<svg xmlns="http://www.w3.org/2000/svg" width="359" height="468" viewBox="0 0 3590 4680"><g id="l6BftBqa0GJgcRIIqEI7f5O" fill="rgb(20,23,10)" style="transform: none;"><g><path id="p2Uo7ggzL" d="M1643 4662 c-18 -2 -33 -7 -33 -13 0 -14 -80 -11 -80 4 -1 7 -7 4 -15 -7 -10 -13 -22 -17 -40 -13 -15 2 -70 -4 -122 -14 -52 -10 -98 -18 -102 -17 -13 3 -122 -26 -127 -34 -3 -4 -18 -8 -34 -8 -15 0 -30 -6 -33 -14 -3 -7 -22 -16 -41 -20 -20 -4 -36 -11 -36 -17 0 -6 -4 -8 -10 -4 -5 3 -17 1 -27 -4 -10 -5 -38 -17 -63 -26 -26 -9 -59 -28 -76 -43 -35 -32 -69 -52 -86 -52 -7 0 -26 -11 -42 -25 -16 -14 -33 -25 -38 -25 -4 0 -8 -7 -8 -15 0 -8 -7 -15 -15 -15 -8 0 -15 -4 -15 -9 0 -5 -9 -12 -19 -16 -27 -8 -128 -107 -185 -180 -25 -33 -54 -68 -63 -77 -16 -18 -32 -43 -55 -88 -7 -14 -18 -29 -25 -33 -7 -4 -13 -14 -13 -22 0 -7 -7 -20 -15 -28 -8 -8 -17 -28 -19 -43 -3 -16 -10 -30 -16 -32 -5 -2 -10 -9 -10 -16 0 -6 -9 -19 -20 -29 -13 -11 -20 -29 -20 -51 0 -19 -4 -38 -10 -41 -5 -3 -10 -17 -10 -31 0 -13 -4 -24 -10 -24 -5 0 -10 -6 -10 -14 0 -8 -4 -16 -9 -18 -5 -1 -12 -19 -15 -38 -13 -73 -27 -166 -30 -199 -2 -18 -10 -38 -17 -43 -11 -7 -11 -11 -1 -15 16 -6 15 -48 -2 -76 -20 -31 -18 -2448 2 -2455 6 -2 12 -12 12 -23 0 -10 -6 -19 -12 -19 -10 0 -9 -3 1 -9 7 -5 15 -19 17 -32 2 -13 6 -44 10 -69 4 -27 18 -60 35 -82 16 -20 29 -44 29 -53 0 -16 49 -97 62 -103 4 -2 15 -18 23 -37 9 -18 32 -41 51 -51 18 -10 34 -22 34 -27 0 -11 41 -46 54 -47 5 0 17 -6 25 -14 9 -7 39 -21 66 -31 28 -10 57 -24 65 -31 8 -7 28 -16 43 -20 16 -3 31 -13 34 -20 4 -12 197 -14 1203 -14 707 0 1201 4 1204 9 4 5 31 17 61 26 30 10 55 21 55 25 0 4 19 13 42 20 24 7 52 18 63 26 11 8 26 14 35 14 9 0 22 9 30 20 8 11 18 20 22 20 14 0 113 106 133 143 11 20 25 37 31 37 7 0 15 13 19 30 4 16 10 30 14 30 9 0 31 60 31 83 0 9 4 17 8 17 9 0 37 79 46 129 5 27 7 2499 2 2614 -1 15 -4 27 -8 27 -5 0 -8 11 -8 25 0 34 -22 115 -32 115 -4 0 -8 10 -8 23 1 29 -23 127 -36 152 -6 11 -14 32 -18 48 -3 15 -11 27 -16 27 -5 0 -17 25 -26 56 -9 31 -25 65 -36 76 -11 11 -26 37 -33 59 -15 40 -36 69 -52 69 -5 0 -14 15 -21 33 -6 17 -27 49 -44 70 -52 61 -148 157 -156 157 -4 0 -22 16 -41 35 -19 19 -41 35 -50 35 -9 0 -25 14 -34 30 -10 17 -27 30 -38 30 -10 0 -19 4 -19 10 0 5 -21 19 -47 31 -27 12 -61 34 -76 50 -16 15 -43 32 -60 38 -18 5 -58 17 -89 26 -32 10 -58 24 -58 31 0 14 -13 19 -72 30 -21 3 -38 10 -38 14 0 5 -24 11 -52 15 -29 4 -81 13 -115 21 -34 8 -68 11 -77 8 -9 -4 -16 -1 -16 6 0 8 -12 10 -40 5 -33 -6 -40 -4 -40 9 0 9 -4 16 -10 16 -5 0 -10 -4 -10 -10 0 -15 -48 -12 -52 2 -4 10 -50 13 -189 13 -101 0 -199 -1 -216 -3z m510 -188 c108 -15 274 -57 291 -75 6 -5 20 -9 33 -9 39 0 257 -113 363 -189 156 -111 343 -321 422 -476 16 -30 16 -30 -1431 -28 -795 1 -1456 2 -1469 2 -20 1 -22 5 -16 24 4 12 9 24 13 27 11 9 71 111 71 121 0 5 4 9 8 9 4 0 16 14 26 30 21 36 91 115 161 183 128 122 375 267 540 315 135 40 333 75 416 74 31 0 70 3 85 7 42 12 362 2 487 -15z m1193 -955 c4 -6 20 -61 37 -123 30 -111 30 -111 35 -438 l4 -328 -1620 0 -1619 0 2 283 c3 298 13 394 55 540 l23 77 1538 0 c1121 0 1540 -3 1545 -11z m72 -1946 c-3 -878 -3 -878 -34 -960 -69 -184 -212 -321 -392 -377 -66 -20 -84 -21 -1142 -24 -1123 -3 -1180 -1 -1284 40 -174 68 -318 237 -362 423 -14 62 -16 172 -18 923 l-1 852 1618 0 1618 0 -3 -877z"></path><path id="pgE2OxeEK" d="M2460 4015 c0 -33 2 -35 35 -35 33 0 35 2 35 35 0 33 -2 35 -35 35 -33 0 -35 -2 -35 -35z"></path><path id="p1H6fuBcMT" d="M1180 4013 c0 -10 -3 -42 -6 -70 -7 -53 -7 -53 28 -53 34 0 35 1 42 46 12 89 10 94 -29 94 -27 0 -35 -4 -35 -17z"></path><path id="pqHTOWpIP" d="M2560 3975 c0 -33 2 -35 35 -35 33 0 35 2 35 35 0 33 -2 35 -35 35 -33 0 -35 -2 -35 -35z"></path><path id="pQ98N9R3g" d="M395 3339 c-83 -24 -127 -110 -133 -255 -6 -156 33 -255 119 -300 40 -20 165 -19 209 4 32 16 35 21 38 68 2 27 -2 63 -8 79 -10 27 -12 28 -68 23 -31 -3 -63 -3 -70 -1 -42 15 -57 141 -22 186 20 25 24 26 90 20 70 -6 70 -6 77 28 5 21 10 -52 13 -186 l5 -220 137 -3 c157 -3 182 4 218 63 19 31 22 47 18 124 -2 73 -7 95 -25 119 -22 30 -22 30 12 83 34 54 34 54 37 -166 l3 -220 162 -3 c162 -2 162 -2 169 34 4 20 3 58 -2 83 -9 46 -9 46 -86 49 -88 3 -108 22 -24 22 85 0 86 1 86 91 0 78 0 78 -65 81 -94 4 -86 22 10 26 80 3 80 3 130 -195 l50 -198 86 -3 c61 -2 89 1 96 10 5 7 25 74 43 148 61 250 58 248 59 44 1 -125 5 -184 13 -192 16 -16 152 -16 166 1 5 6 20 40 32 75 13 34 25 62 29 61 3 0 22 -32 41 -72 35 -72 35 -72 80 -75 24 -2 59 -1 77 3 33 6 33 6 31 283 l-3 277 -69 3 c-81 4 -86 0 -86 -78 -1 -42 -3 -51 -11 -37 -7 12 -23 17 -59 17 -43 0 -51 -3 -65 -27 -15 -27 -15 -27 -9 24 4 29 4 63 0 77 -6 26 -6 26 -161 26 -155 0 -155 0 -161 -40 -12 -76 -61 -82 -79 -10 -11 45 -11 45 -332 47 -321 3 -321 3 -349 -54 l-29 -57 -5 55 c-5 54 -5 54 -79 57 -41 2 -78 -1 -83 -6 -6 -6 -24 -4 -46 4 -42 15 -161 17 -207 3z"></path><path id="p15Nm0R8Dq" d="M2453 3334 c-10 -4 -13 -54 -13 -200 0 -194 0 -194 -44 -194 -31 0 -46 -5 -50 -16 -9 -23 -7 -117 2 -132 7 -9 78 -12 323 -10 l314 3 0 75 c0 75 0 75 -69 80 -87 6 -105 30 -23 30 71 0 79 10 75 97 -3 68 -3 68 -65 71 -47 2 -63 7 -63 17 0 12 17 15 78 15 79 0 79 0 105 -117 15 -65 34 -153 43 -195 16 -78 16 -78 110 -78 52 0 94 2 94 4 0 3 27 112 60 244 81 325 83 312 -31 312 -79 0 -79 0 -85 -40 -12 -75 -52 -80 -69 -9 -11 44 -11 44 -235 44 l-225 0 -3 -197 c-2 -198 -2 -198 -42 -198 -40 0 -40 0 -42 198 -3 197 -3 197 -68 199 -36 1 -71 -1 -77 -3z"></path><path id="pWXRutysq" d="M1576 2399 c-192 -15 -558 -59 -646 -79 -305 -67 -571 -231 -630 -387 -27 -73 -27 -201 0 -261 17 -39 18 -46 5 -83 -30 -85 -13 -251 31 -300 8 -9 19 -43 24 -75 7 -46 16 -65 40 -86 29 -27 30 -29 30 -126 0 -268 127 -417 423 -498 309 -84 670 -69 909 38 67 30 67 30 94 9 48 -38 157 -82 274 -112 128 -32 235 -42 400 -36 167 6 233 19 385 79 102 41 188 120 207 192 11 43 15 47 63 61 70 21 107 46 154 105 49 62 61 102 61 205 -1 155 -49 274 -157 384 -70 71 -70 71 -28 98 50 33 94 83 124 138 17 33 21 56 20 135 -1 118 -12 155 -69 226 -86 108 -230 194 -450 268 -268 89 -841 137 -1264 105z m779 -198 c199 -26 291 -45 405 -82 194 -62 343 -155 396 -245 53 -91 20 -160 -109 -224 -43 -22 -85 -40 -92 -40 -10 0 -45 40 -45 52 0 2 22 1 49 0 44 -3 50 -1 70 27 25 34 37 111 27 166 -9 47 -66 110 -130 142 -206 105 -541 175 -902 190 -138 5 -165 9 -185 25 -24 19 -23 19 171 14 107 -3 263 -14 345 -25z m-895 -45 c135 -24 256 -82 326 -158 30 -31 77 -108 70 -115 -1 -2 -20 6 -42 16 -57 28 -156 58 -259 78 -73 15 -136 18 -330 17 -300 -1 -409 -21 -612 -111 -16 -7 2 44 36 104 30 52 84 82 221 122 196 58 427 76 590 47z m671 -146 c336 -33 653 -119 737 -199 25 -23 27 -32 24 -74 -4 -48 -4 -48 -53 -2 -178 167 -567 181 -766 29 -33 -25 -33 -25 -33 69 0 52 -6 115 -14 140 -8 26 -10 47 -6 47 4 0 54 -5 111 -10z m-789 -190 c50 0 77 -4 73 -10 -3 -5 -20 -10 -37 -10 -16 0 -55 -13 -85 -30 -76 -42 -94 -40 -293 27 -9 3 -11 7 -4 10 21 7 208 21 238 17 16 -2 64 -4 108 -4z m397 -91 c28 -18 27 -29 -4 -29 -16 0 -41 15 -68 40 -42 40 -42 40 4 21 25 -10 56 -25 68 -32z m843 -71 c81 -25 132 -66 190 -154 33 -50 50 -67 72 -71 28 -6 28 -7 8 -14 -29 -11 -28 -43 3 -141 13 -42 33 -129 44 -193 11 -64 25 -123 31 -130 7 -8 -26 -1 -81 16 -129 42 -232 52 -459 46 -178 -5 -263 -16 -334 -43 -18 -7 -19 -3 -12 77 7 73 11 88 36 114 65 70 87 178 55 278 -15 49 -15 57 -2 84 38 73 145 134 267 152 65 10 92 7 182 -21z m-1569 -50 c76 -30 91 -33 197 -33 111 0 117 1 178 33 77 41 106 37 171 -23 25 -23 56 -47 68 -54 34 -18 127 -13 193 10 34 11 67 19 74 16 8 -3 15 -29 19 -62 4 -39 14 -67 31 -90 14 -19 26 -43 26 -55 0 -20 -2 -20 -40 10 -64 51 -153 89 -283 121 -180 44 -333 56 -525 41 -236 -18 -408 -61 -523 -131 -64 -39 -64 -39 -82 -17 -11 11 -28 38 -39 59 -18 36 -18 40 -3 63 15 24 16 24 48 7 23 -13 55 -18 112 -18 70 0 86 4 127 28 26 15 52 37 58 48 11 20 86 79 102 79 5 0 46 -15 91 -32z m442 -279 c172 -23 304 -72 370 -136 27 -26 35 -43 40 -86 4 -29 5 -64 2 -78 -2 -14 -5 -7 -6 20 -1 36 -7 49 -35 75 -61 58 -225 106 -360 106 -43 0 -77 -5 -84 -12 -7 -7 -12 -36 -12 -64 0 -62 17 -84 63 -84 60 -1 171 -30 245 -65 81 -38 125 -44 160 -19 21 14 22 14 22 -9 0 -13 -7 -47 -16 -76 -62 -210 -438 -311 -854 -231 -238 46 -366 153 -385 321 -8 69 9 158 37 194 47 60 213 120 398 144 159 21 259 21 415 0z m1735 -353 c-21 -35 -91 -77 -126 -75 -10 0 -35 7 -54 14 -35 13 -35 13 35 14 82 1 131 25 148 72 7 16 13 25 15 19 2 -5 -6 -25 -18 -44z m-594 -143 c16 -6 15 -8 -11 -14 -70 -15 -295 -6 -295 12 0 18 261 20 306 2z m309 -123 c-29 -32 -133 -77 -231 -101 -133 -33 -333 -31 -466 4 -98 26 -219 81 -226 104 -2 7 12 4 37 -8 89 -42 197 -61 386 -66 218 -6 333 10 440 61 39 18 72 32 74 30 2 -2 -4 -13 -14 -24z"></path><path id="pdLWzJaVB" d="M995 1230 c-143 -16 -288 -63 -334 -109 -16 -16 -21 -34 -21 -74 0 -29 5 -58 12 -65 22 -22 97 -14 163 18 70 33 157 55 260 65 99 10 115 22 115 90 0 87 -17 94 -195 75z"></path></g></g><g id="l3oagKT2OPXmeLvESb7ZVhF" fill="rgb(65,69,41)" style="transform: none;"><g><path id="pPFhgV4to" d="M1658 4524 c-4 -3 -26 -6 -50 -5 -91 2 -333 -39 -473 -81 -165 -48 -412 -193 -540 -315 -70 -68 -140 -147 -161 -183 -10 -16 -22 -30 -26 -30 -4 0 -8 -5 -8 -10 0 -12 -51 -92 -65 -102 -7 -5 -7 -8 0 -8 7 0 7 -3 0 -8 -15 -11 -57 -104 -50 -111 8 -7 2988 -12 3023 -5 12 2 22 9 22 16 0 16 -96 173 -156 253 -62 84 -215 233 -304 296 -101 72 -325 190 -364 192 -12 0 -26 4 -31 8 -22 16 -188 59 -287 73 -108 16 -519 32 -530 20z m-448 -382 c34 -25 70 -98 70 -144 0 -33 -22 -108 -32 -108 -2 0 -2 44 0 98 3 87 1 101 -18 125 -19 24 -28 27 -86 27 -64 0 -64 0 -64 -146 0 -146 0 -146 65 -142 44 3 62 1 55 -6 -6 -6 -42 -12 -80 -14 -70 -4 -70 -4 -70 161 0 149 2 166 18 171 31 9 117 -4 142 -22z m368 16 c-3 -8 -29 -14 -71 -16 -67 -3 -67 -3 -67 -67 0 -65 0 -65 55 -65 30 0 55 -4 55 -10 0 -5 -25 -10 -55 -10 -55 0 -55 0 -55 -64 0 -73 3 -76 86 -76 30 0 54 -4 54 -10 0 -6 -35 -10 -85 -10 l-85 0 0 163 c0 90 3 167 7 170 3 4 42 7 86 7 58 0 78 -3 75 -12z m298 -89 c54 -165 74 -233 69 -238 -9 -8 -14 5 -49 125 -34 119 -34 119 -73 119 -38 0 -38 0 -70 -119 -33 -122 -38 -134 -49 -123 -9 8 83 288 103 317 8 11 20 19 26 17 7 -2 26 -46 43 -98z m373 65 c26 -28 26 -28 0 -6 -28 24 -95 30 -131 11 -42 -23 -63 -143 -39 -227 12 -40 6 -41 -14 -2 -17 33 -20 108 -5 162 6 21 26 50 47 68 31 28 42 31 76 27 26 -4 49 -15 66 -33z m415 20 c3 -9 6 -78 6 -154 0 -76 -3 -145 -6 -154 -15 -39 -24 -9 -24 79 0 95 0 95 -37 95 -41 0 -40 1 -109 -125 -21 -40 -38 -60 -51 -60 -17 0 -18 11 -18 162 0 124 3 163 13 163 9 0 12 -26 12 -95 0 -95 0 -95 39 -95 39 0 39 0 96 100 31 55 61 100 65 100 4 0 11 -7 14 -16z m-367 -142 c3 -37 0 -69 -9 -91 -12 -31 -13 -27 -13 72 0 110 13 121 22 19z"></path><path id="pm6ISWRLN" d="M1760 3190 c0 -72 3 -90 15 -90 18 0 28 52 22 116 -3 27 -6 52 -6 57 -1 4 -8 7 -16 7 -12 0 -15 -17 -15 -90z"></path><path id="pB0kx2COI" d="M13 2534 c3 -239 8 -438 11 -441 3 -4 6 192 6 435 0 306 -3 442 -11 442 -7 0 -9 -131 -6 -436z"></path><path id="paz2Q1saX" d="M10 1310 c0 -71 3 -100 10 -90 5 8 10 49 10 90 0 41 -5 82 -10 90 -7 10 -10 -19 -10 -90z"></path><path id="pC7w1O5bd" d="M16 1174 c-9 -23 -7 -389 1 -380 6 6 12 396 7 396 -1 0 -5 -7 -8 -16z"></path><path id="pucj1gTyD" d="M2440 855 c0 -24 2 -25 75 -25 67 0 75 2 75 19 0 21 -34 31 -106 31 -40 0 -44 -2 -44 -25z"></path><path id="pgoBEdWws" d="M2620 836 c0 -24 3 -26 45 -26 38 0 45 3 45 20 0 11 -6 20 -14 20 -7 0 -28 3 -45 6 -28 6 -31 4 -31 -20z"></path></g></g><g id="l3wzNnknec1KQDjYpQWArH9" fill="rgb(132,74,20)" style="transform: none;"><g><path id="pTuKikFvv" d="M1050 1849 c-247 -35 -372 -75 -449 -144 -48 -44 -52 -62 -13 -71 15 -3 35 -8 45 -11 12 -3 42 17 92 60 41 36 91 71 111 77 52 18 144 7 239 -26 111 -39 172 -38 249 6 53 29 67 33 135 32 91 0 121 -11 177 -62 55 -50 78 -56 153 -34 70 19 69 24 -10 74 -69 45 -169 77 -279 89 -137 15 -374 20 -450 10z"></path><path id="p13ytssnOa" d="M2313 873 c-29 -2 -53 -7 -53 -11 0 -4 -15 -8 -33 -8 -17 -1 -45 -7 -62 -14 -30 -12 -30 -12 -6 -21 52 -20 200 -39 305 -39 105 0 195 14 261 41 30 12 30 12 0 20 -16 5 -38 6 -49 3 -10 -4 -22 0 -27 7 -5 9 -27 14 -64 13 -30 0 -55 4 -55 8 0 13 -48 9 -53 -4 -4 -10 -6 -10 -6 0 -1 12 -36 13 -158 5z"></path></g></g><g id="l1l0yv2iGk877t44a6qoFsY" fill="rgb(124,113,75)" style="transform: none;"><g><path id="p1F4x2eM0n" d="M16 3164 c-10 -27 -7 -224 4 -224 6 0 10 47 10 120 0 66 -2 120 -4 120 -2 0 -7 -7 -10 -16z"></path></g></g><g id="ly4nNHDOyU6dBp9OhGnaz8" fill="rgb(175,145,82)" style="transform: none;"><g><path id="pnPQpFdti" d="M1723 2253 c-43 -6 -42 -16 5 -32 20 -7 53 -23 72 -35 31 -20 53 -24 195 -30 89 -3 170 -8 180 -10 11 -2 54 -7 95 -11 190 -18 489 -98 625 -168 124 -63 167 -169 101 -252 -21 -26 -26 -28 -49 -18 -24 11 -26 16 -20 62 5 47 4 52 -26 80 -66 62 -278 132 -511 170 -212 35 -448 53 -438 34 51 -100 52 -106 56 -245 2 -76 6 -138 9 -138 3 0 28 21 55 46 58 54 150 99 244 119 229 48 468 -43 581 -221 33 -52 37 -52 169 11 70 34 97 53 117 83 110 158 -48 339 -393 451 -201 66 -466 101 -795 106 -132 2 -255 1 -272 -2z"></path><path id="px2REopue" d="M1035 2184 c-112 -17 -285 -67 -345 -100 -47 -26 -88 -80 -108 -145 -16 -50 -26 -132 -16 -127 5 2 49 23 97 47 116 56 251 89 417 103 326 26 632 -28 775 -137 48 -37 48 -37 43 22 -12 166 -169 296 -408 339 -96 17 -339 16 -455 -2z"></path><path id="p5fNPloL3" d="M441 1879 c-24 -38 -28 -118 -8 -138 10 -10 14 5 23 76 6 48 10 90 8 92 -2 2 -12 -12 -23 -30z"></path><path id="paJ3GcrTx" d="M1135 1374 c-99 -9 -216 -27 -287 -44 -91 -23 -208 -79 -236 -115 -51 -65 -55 -263 -7 -361 70 -144 269 -226 586 -241 280 -13 520 47 623 157 51 55 73 114 82 230 10 123 -1 184 -41 223 -66 64 -195 112 -370 136 -81 12 -292 21 -350 15z m9 -180 c23 -23 20 -61 -6 -78 -13 -8 -54 -17 -93 -21 -103 -10 -190 -32 -262 -66 -68 -32 -90 -34 -107 -7 -43 69 122 153 349 178 39 4 78 8 87 9 9 0 24 -6 32 -15z m433 -8 c99 -21 181 -55 219 -92 40 -37 43 -58 10 -79 -22 -14 -28 -13 -97 20 -74 35 -186 64 -246 65 -37 0 -63 22 -63 54 0 49 51 58 177 32z"></path></g></g><g id="l3II3ldzJV8m1QFg398LMC5" fill="rgb(208,182,119)" style="transform: none;"><g><path id="p4WqvS9P3" d="M1038 4194 c-16 -5 -18 -23 -18 -200 0 -194 0 -194 38 -195 141 -5 194 14 229 81 32 60 32 168 1 230 -34 66 -61 81 -154 85 -43 2 -87 2 -96 -1z m161 -110 c16 -21 21 -41 21 -89 0 -75 -18 -103 -72 -112 -38 -6 -38 -6 -38 111 0 116 0 116 34 116 25 0 40 -7 55 -26z"></path><path id="pAlwUERJi" d="M1387 4193 c-4 -3 -7 -93 -7 -200 l0 -193 115 0 c115 0 115 0 115 40 0 40 0 40 -54 40 -75 0 -86 6 -86 46 0 34 0 34 55 34 55 0 55 0 55 40 0 40 0 40 -55 40 -55 0 -55 0 -55 35 0 34 0 34 68 37 67 3 67 3 70 46 3 42 3 42 -106 42 -60 0 -112 -3 -115 -7z"></path><path id="pMbMTk0NR" d="M1776 4178 c-14 -21 -126 -350 -126 -370 0 -4 22 -8 50 -8 49 0 49 0 60 43 49 189 64 228 74 196 2 -8 19 -65 37 -126 32 -113 32 -113 75 -113 53 0 54 3 17 119 -88 284 -84 276 -130 279 -35 3 -44 -1 -57 -20z"></path><path id="ptAdcMOQ3" d="M2075 4168 c-90 -83 -78 -297 21 -358 20 -13 49 -20 80 -20 101 0 153 67 154 195 0 88 -14 138 -49 178 -26 28 -35 32 -99 35 -68 4 -71 3 -107 -30z m146 -74 c21 -22 23 -34 23 -99 -1 -88 -17 -115 -70 -115 -41 0 -61 27 -70 92 -8 55 9 112 39 133 31 21 50 19 78 -11z"></path><path id="p19FTsTuCK" d="M2408 4193 c-15 -4 -17 -24 -15 -196 2 -192 2 -192 50 -192 49 0 49 0 81 60 52 96 70 125 79 125 4 0 7 -43 7 -95 0 -95 0 -95 39 -95 26 0 41 5 45 16 3 9 6 91 6 184 0 93 -3 175 -6 184 -4 11 -19 16 -44 16 -38 0 -38 -1 -95 -100 -31 -55 -61 -100 -66 -100 -5 0 -9 42 -9 94 0 89 -1 94 -22 100 -13 3 -25 5 -28 5 -3 -1 -13 -3 -22 -6z"></path><path id="peAzOPyVS" d="M154 1598 c2 -801 4 -889 19 -953 47 -189 190 -355 363 -423 104 -41 160 -43 1314 -40 1088 3 1106 4 1172 24 216 67 376 250 419 479 5 29 9 413 9 920 l0 870 -1648 3 -1649 2 1 -882z m2065 767 c356 -30 578 -81 786 -179 154 -73 283 -190 312 -283 20 -66 16 -163 -10 -210 -33 -63 -96 -125 -160 -158 -31 -17 -57 -32 -57 -35 0 -3 19 -16 41 -30 129 -79 238 -273 239 -425 0 -73 -16 -118 -61 -175 -47 -59 -84 -84 -154 -105 -48 -14 -52 -18 -63 -61 -19 -72 -105 -151 -207 -192 -139 -55 -221 -73 -355 -79 -252 -11 -523 54 -660 160 -44 34 -44 34 -90 5 -142 -88 -438 -137 -666 -109 -54 7 -149 25 -211 41 -314 81 -443 227 -443 502 0 97 -1 99 -30 126 -24 21 -33 40 -40 86 -5 32 -16 66 -24 75 -59 65 -60 225 -3 289 20 22 20 22 -1 45 -54 57 -67 157 -32 250 59 156 325 320 630 387 88 20 454 64 646 79 177 13 427 12 613 -4z"></path></g></g><g id="l3gz6bD1w768bWjNvHaWBMz" fill="rgb(227,211,159)" style="transform: none;"><g><path id="p5MuqFbXx" d="M1467 4034 c-13 -14 6 -24 44 -24 32 0 39 -3 39 -19 0 -14 -8 -21 -27 -24 -20 -3 -15 -4 15 -6 42 -1 42 -1 42 39 0 40 0 40 -53 40 -30 0 -57 -3 -60 -6z"></path><path id="p883RFEWK" d="M1943 3933 c-19 -7 -16 -23 5 -23 13 0 14 -2 4 -9 -10 -6 -11 -19 -6 -47 5 -21 7 -42 6 -46 -1 -5 7 -8 18 -8 25 0 25 26 2 91 -10 28 -22 44 -29 42z"></path><path id="pgKMf8srl" d="M210 3483 c-41 -144 -51 -242 -56 -570 l-5 -313 1653 0 1653 0 -2 277 c0 153 -4 314 -7 358 -5 72 -53 286 -70 314 -5 8 -432 11 -1575 11 l-1568 0 -23 -77z m353 -174 c46 -12 52 -24 37 -79 -11 -41 -12 -42 -43 -34 -90 21 -133 -3 -148 -82 -25 -131 35 -224 126 -194 43 14 53 7 62 -42 5 -31 2 -38 -21 -54 -35 -22 -117 -30 -156 -14 -83 34 -136 148 -128 274 12 179 118 268 271 225z m215 -86 c4 -113 22 -113 81 2 44 85 44 85 98 85 38 0 55 -4 59 -15 3 -8 -15 -50 -40 -92 -50 -84 -55 -103 -29 -124 48 -40 58 -153 19 -210 -35 -51 -65 -60 -186 -57 l-105 3 -3 235 c-1 129 0 241 3 248 3 9 20 12 52 10 48 -3 48 -3 51 -85z m567 32 c0 -50 0 -50 -80 -55 -80 -5 -80 -5 -80 -45 0 -40 0 -40 68 -43 67 -3 67 -3 67 -51 0 -57 -6 -61 -86 -61 -54 0 -54 0 -54 -40 0 -39 0 -39 77 -42 76 -3 77 -3 84 -33 5 -16 6 -40 3 -52 -6 -23 -7 -24 -138 -21 l-131 3 -3 225 c-1 124 0 235 3 248 5 22 7 23 138 20 132 -3 132 -3 132 -53z m150 5 c11 -45 11 -45 59 -48 58 -4 72 6 80 58 6 40 6 40 61 40 66 0 65 3 31 -125 -13 -49 -38 -151 -56 -225 -18 -74 -38 -141 -43 -148 -7 -9 -29 -12 -66 -10 -56 3 -56 3 -113 228 -31 124 -57 238 -58 253 0 27 1 28 47 25 47 -3 47 -3 58 -48z m396 38 c1 -7 0 -68 -1 -135 -1 -68 2 -123 7 -123 4 0 14 15 22 33 50 121 60 137 81 137 17 0 28 -15 53 -70 17 -38 34 -70 39 -70 4 0 8 48 8 108 0 59 4 113 9 120 5 8 23 12 47 10 39 -3 39 -3 42 -249 2 -247 2 -247 -20 -253 -38 -10 -65 -7 -77 8 -7 8 -32 58 -56 111 -44 97 -44 97 -64 57 -12 -23 -31 -67 -42 -99 -12 -32 -26 -64 -32 -70 -12 -16 -89 -17 -105 -1 -13 13 -18 479 -5 491 12 13 93 8 94 -5z m677 -190 c2 -197 2 -197 45 -200 42 -3 42 -3 45 -50 3 -48 3 -48 -137 -48 -141 0 -141 0 -147 25 -3 14 -3 36 0 50 6 22 12 25 51 25 45 0 45 0 45 193 0 107 3 197 7 201 4 4 25 6 48 4 40 -3 40 -3 43 -200z m397 147 c0 -50 0 -50 -77 -53 -78 -3 -78 -3 -78 -47 0 -44 0 -44 63 -47 62 -3 62 -3 65 -41 5 -54 -10 -67 -75 -67 -54 0 -54 0 -51 -42 3 -43 3 -43 73 -48 70 -5 70 -5 70 -50 0 -45 0 -45 -120 -45 l-120 0 -3 235 c-1 129 0 240 3 248 3 10 34 12 127 10 123 -3 123 -3 123 -53z m150 5 c11 -44 12 -45 54 -48 52 -4 67 7 75 58 6 40 6 40 55 40 30 0 51 -5 53 -12 3 -7 -21 -116 -53 -243 -32 -126 -58 -233 -59 -237 0 -5 -29 -8 -64 -8 -64 0 -64 0 -80 78 -9 42 -32 145 -51 228 -46 201 -47 196 12 192 47 -3 47 -3 58 -48z"></path><path id="pSUtkDykS" d="M778 3011 c-2 -16 -2 -45 0 -65 4 -33 7 -36 37 -36 42 0 65 22 65 64 0 40 -26 66 -67 66 -26 0 -31 -4 -35 -29z"></path><path id="pZrGln47f" d="M1534 3088 c3 -13 9 -42 13 -66 3 -23 9 -45 13 -47 7 -4 40 98 40 123 0 7 -15 12 -36 12 -33 0 -36 -2 -30 -22z"></path><path id="pEHobPPZh" d="M3151 3078 c0 -18 6 -51 13 -73 12 -40 12 -40 29 17 24 79 23 88 -13 88 -27 0 -30 -3 -29 -32z"></path><path id="pxXOFIB38" d="M2370 1710 c-142 -22 -243 -89 -278 -183 -19 -50 -19 -51 2 -86 42 -71 23 -175 -45 -246 -28 -30 -29 -36 -37 -158 -6 -112 -5 -127 8 -121 129 55 242 74 433 74 186 -1 261 -13 428 -70 163 -56 211 -61 275 -29 176 85 83 407 -151 524 -27 14 -75 32 -105 40 -52 14 -59 20 -98 80 -23 35 -60 79 -82 98 -74 63 -226 97 -350 77z m633 -373 c84 -44 140 -111 162 -192 16 -57 16 -69 4 -102 -21 -53 -69 -83 -134 -83 -72 0 -82 14 -106 155 -11 64 -30 150 -43 190 -13 41 -22 76 -19 79 8 8 78 -16 136 -47z"></path><path id="pJzfIngJ" d="M842 1640 c-23 -16 -46 -38 -52 -49 -14 -26 -85 -68 -130 -76 -23 -4 -51 -1 -80 10 -77 29 -115 30 -134 4 -31 -45 -13 -124 42 -187 17 -20 19 -28 10 -48 -19 -41 -1 -38 50 8 123 110 330 172 642 194 120 8 274 -8 428 -46 143 -35 235 -77 299 -137 48 -44 48 -44 72 -17 29 34 25 87 -12 136 -30 40 -40 78 -25 95 16 19 -14 59 -51 66 -19 4 -54 -2 -100 -18 -107 -38 -144 -31 -206 35 -64 69 -143 78 -239 28 -55 -29 -69 -33 -146 -32 -72 0 -98 5 -167 32 -105 41 -147 41 -201 2z"></path><path id="pSqAUcrnB" d="M1945 750 c-18 -39 -18 -41 1 -61 30 -34 129 -79 233 -107 85 -22 116 -25 266 -25 142 -1 185 3 259 21 120 30 207 73 251 124 38 45 37 50 -14 67 -30 10 -41 7 -115 -29 -101 -50 -213 -70 -383 -70 -184 0 -362 39 -440 97 -17 12 -34 23 -36 23 -2 0 -12 -18 -22 -40z"></path><path id="p11M8Cjpr1" d="M1168 473 c12 -2 22 -9 22 -14 0 -12 140 -1 155 12 5 5 -35 8 -95 8 -58 -1 -95 -4 -82 -6z"></path></g></g><g id="l35NEzGubfrlFN0k83Jbzcj" fill="rgb(246,238,203)" style="transform: none;"><g><path id="p17atyNiQM" d="M14 2675 c0 -137 2 -195 3 -128 2 67 2 179 0 250 -1 70 -3 16 -3 -122z"></path><path id="pDD10moP0" d="M472 2603 c65 -2 171 -2 236 0 64 1 11 3 -118 3 -129 0 -182 -2 -118 -3z"></path><path id="pJ6k1vKYp" d="M958 2603 c72 -2 192 -2 265 0 72 1 13 3 -133 3 -146 0 -205 -2 -132 -3z"></path><path id="pMXz7T6oO" d="M1662 2603 c159 -2 417 -2 575 0 159 1 29 2 -287 2 -316 0 -446 -1 -288 -2z"></path><path id="p11tomphYP" d="M2748 2603 c122 -2 322 -2 445 0 122 1 22 2 -223 2 -245 0 -345 -1 -222 -2z"></path><path id="p3EPifWX2" d="M2366 1708 c-65 -9 -77 -14 -51 -24 9 -4 20 -3 24 2 9 14 181 19 181 5 0 -6 6 -8 14 -5 8 3 17 0 21 -5 7 -12 25 -5 25 9 0 18 -132 29 -214 18z"></path><path id="psJmC5DF4" d="M1220 1603 c-72 -5 -90 -11 -70 -23 20 -13 97 -12 121 0 18 10 27 32 12 28 -5 -1 -33 -3 -63 -5z"></path><path id="pyOatjGUF" d="M14 980 c0 -107 2 -151 3 -97 2 53 2 141 0 195 -1 53 -3 9 -3 -98z"></path><path id="px33GzCvA" d="M2077 713 c-17 -16 115 -52 196 -53 37 0 14 18 -30 25 -27 3 -70 13 -97 21 -56 16 -60 16 -69 7z"></path></g></g></svg>