<svg xmlns="http://www.w3.org/2000/svg" width="359" height="468" viewBox="0 0 3590 4680"><g id="l78BmgkpcASM3dtmzv95Zuf" fill="rgb(32,32,17)" style="transform: none;"><g style="transform: none;"><path id="pWhj30lZn" d="M1620 4654 c-19 -2 -93 -11 -163 -20 -71 -8 -191 -31 -268 -50 -330 -81 -579 -209 -779 -400 -202 -194 -322 -418 -377 -705 -17 -87 -18 -176 -18 -1279 0 -1324 -5 -1233 71 -1398 115 -251 387 -467 779 -617 180 -69 298 -101 480 -129 481 -74 989 -23 1405 141 448 176 707 407 802 715 l23 73 3 1170 c3 1275 3 1276 -54 1473 -30 105 -106 268 -170 363 -55 84 -174 211 -258 279 -229 181 -559 313 -921 366 -97 14 -484 27 -555 18z m490 -185 c128 -15 268 -45 387 -84 123 -41 335 -138 310 -143 -11 -2 -17 -13 -17 -33 0 -23 -5 -30 -25 -34 -14 -3 -37 -8 -52 -11 -15 -3 -78 -25 -140 -49 -162 -64 -161 -64 -165 -23 -3 33 -3 33 -60 36 -68 4 -114 -17 -129 -56 -24 -65 -67 -138 -98 -169 -42 -41 -100 -58 -243 -73 -58 -6 -137 -17 -175 -25 -95 -20 -112 -19 -198 15 -41 16 -106 37 -143 45 -53 12 -76 23 -100 48 -31 33 -72 100 -72 118 0 5 30 23 67 40 38 17 76 38 85 46 37 33 12 133 -33 133 -10 0 -19 7 -19 15 0 10 -11 15 -35 15 -24 0 -35 -5 -35 -15 0 -10 -10 -15 -27 -15 -14 0 -77 -27 -139 -60 -78 -42 -124 -60 -149 -60 -52 0 -245 31 -245 39 0 8 150 94 215 124 195 91 427 151 670 176 61 6 126 13 145 15 53 6 324 -4 420 -15z m1040 -501 c139 -172 234 -403 260 -628 5 -47 10 -211 10 -364 l0 -279 -1617 7 c-1197 5 -1619 10 -1625 19 -10 16 1 599 13 677 30 200 128 421 245 558 l29 34 205 -31 c336 -52 301 -39 405 -146 67 -69 102 -97 135 -108 25 -9 90 -33 145 -54 91 -34 111 -38 218 -41 91 -3 139 1 215 17 53 12 150 28 215 36 185 24 256 59 318 157 42 67 44 68 104 68 89 0 168 19 253 60 61 29 104 42 165 50 45 6 109 14 142 19 104 16 114 12 165 -51z m-2170 -1473 c0 -10 11 -15 35 -15 24 0 35 5 35 15 0 13 21 15 130 15 109 0 130 -2 130 -15 0 -9 9 -15 23 -15 12 0 54 -7 92 -16 39 -8 89 -18 113 -21 23 -3 42 -9 42 -13 0 -4 10 -11 23 -17 12 -6 36 -22 53 -36 29 -25 30 -28 20 -70 l-10 -43 -105 18 c-89 16 -164 19 -471 21 -335 2 -376 0 -501 -20 -144 -24 -144 -24 -322 12 -43 8 -81 15 -83 15 -2 0 -4 45 -4 100 l0 100 400 0 c349 0 400 -2 400 -15z m1397 -12 c10 -12 26 -31 36 -42 18 -23 23 -61 7 -61 -5 0 -10 -11 -10 -24 0 -21 -5 -25 -47 -28 -49 -5 -325 -99 -350 -119 -7 -6 -13 -29 -13 -51 l0 -41 -115 5 c-96 4 -120 8 -143 25 -33 25 -50 93 -22 93 21 0 40 54 40 116 0 42 -5 55 -27 76 -38 35 -86 58 -123 58 -16 0 -30 5 -30 11 0 7 121 9 389 7 385 -3 390 -3 408 -25z m1041 -69 l3 -81 -63 -16 c-112 -28 -167 -39 -175 -34 -5 3 -78 13 -163 22 -116 13 -204 16 -347 12 -163 -5 -193 -3 -193 9 0 8 5 14 10 14 6 0 10 27 10 60 0 33 -4 60 -10 60 -5 0 -10 9 -10 20 0 20 5 20 468 18 l467 -3 3 -81z m-383 -276 c10 -9 -71 -322 -96 -373 -10 -22 -48 -73 -84 -114 -69 -79 -85 -116 -124 -281 -36 -154 -58 -187 -176 -268 -80 -55 -90 -65 -163 -154 -34 -42 -81 -93 -105 -113 -87 -75 -363 -191 -497 -210 -59 -8 -169 10 -247 41 -35 14 -115 54 -178 89 -62 36 -149 83 -192 106 -127 68 -131 73 -168 226 -28 115 -63 175 -182 305 -68 74 -98 116 -114 157 -31 82 -141 533 -132 542 36 34 627 66 683 37 l25 -13 -3 -155 c-4 -176 10 -334 38 -444 18 -73 140 -379 168 -424 8 -13 54 -50 103 -83 48 -33 93 -67 99 -75 9 -10 34 -14 81 -14 67 0 71 2 112 39 51 46 80 62 173 89 57 17 79 30 108 62 53 59 65 98 82 273 8 88 20 169 26 181 6 12 25 37 44 56 49 52 71 112 88 240 19 144 45 260 60 266 54 20 552 31 571 12z m385 -482 c0 -261 -3 -481 -6 -490 -3 -9 -12 -16 -20 -16 -9 0 -14 -12 -14 -35 0 -24 5 -35 15 -35 20 0 20 0 -14 -106 -30 -96 -92 -204 -123 -212 -10 -2 -18 -13 -18 -23 0 -22 -84 -106 -166 -164 -177 -128 -372 -219 -604 -284 -191 -53 -273 -68 -278 -53 -5 17 -72 15 -72 -2 0 -17 -40 -25 -162 -33 -71 -4 -98 -3 -98 5 0 7 -15 12 -35 12 -24 0 -35 -5 -35 -15 0 -8 -3 -15 -7 -15 -158 3 -447 40 -583 75 -217 54 -488 167 -640 265 -36 23 -111 89 -167 145 -88 90 -108 116 -147 197 -24 51 -49 117 -55 146 -6 29 -11 152 -11 272 l0 220 30 0 c28 0 30 3 30 35 0 32 -2 35 -30 35 l-30 0 0 266 0 266 23 -5 c12 -3 51 -11 88 -17 36 -6 70 -14 76 -18 6 -4 34 -97 63 -207 119 -464 122 -472 232 -589 123 -132 139 -161 202 -377 30 -104 51 -122 291 -254 261 -144 275 -150 368 -169 291 -60 433 -38 746 119 145 73 153 79 228 162 119 132 154 164 231 218 72 50 152 147 152 184 0 37 70 265 93 304 14 23 48 68 75 100 58 68 69 98 126 347 l41 175 85 22 c47 12 93 22 103 22 16 1 17 -28 17 -473z"></path><path id="p14pP6VE3s" d="M1432 4117 c-33 -35 -30 -97 6 -124 69 -51 115 -67 208 -71 89 -4 91 -4 112 23 26 33 29 96 6 119 -8 9 -27 19 -42 22 -15 3 -58 16 -95 30 -91 32 -166 32 -195 1z"></path><path id="p5mr4Yyh9" d="M1885 3524 c-11 -3 -30 -7 -42 -9 -12 -3 -35 -17 -52 -31 l-31 -26 0 26 0 26 -165 0 -165 0 0 -315 0 -315 85 0 85 0 0 230 0 230 60 0 59 0 -1 -127 c-2 -145 14 -220 58 -273 47 -55 121 -78 219 -65 68 8 113 38 145 95 24 43 25 52 25 220 0 175 0 175 -30 235 -22 43 -40 64 -65 77 -35 17 -148 31 -185 22z m107 -285 c12 -81 1 -145 -29 -174 -15 -15 -17 -15 -35 2 -40 40 -41 221 -2 264 17 19 18 19 37 1 13 -13 23 -45 29 -93z"></path><path id="pc0hQOu5e" d="M255 3508 c-3 -7 -4 -150 -3 -318 l3 -305 255 0 255 0 25 46 25 46 22 -49 22 -49 218 3 c194 3 222 5 258 23 63 31 85 86 85 205 -1 156 -45 220 -161 228 l-58 4 -3 87 -3 86 -168 3 -168 2 -25 -57 -26 -58 -23 55 -23 55 -251 3 c-197 2 -253 -1 -256 -10z m399 -213 l43 -100 -56 -113 c-56 -113 -56 -113 -59 -73 l-3 41 -75 0 -74 0 0 30 c0 29 1 29 63 32 l62 3 0 85 0 85 -63 3 c-62 3 -63 3 -60 30 3 27 4 27 78 27 l75 0 4 45 c2 36 5 41 12 25 5 -11 29 -65 53 -120z m366 -97 c0 -116 -2 -209 -5 -206 -3 2 -25 53 -50 112 l-44 108 46 99 c25 54 47 99 49 99 2 0 4 -95 4 -212z"></path><path id="psJ4dWtMq" d="M2185 3497 c-3 -7 -4 -147 -3 -312 l3 -300 130 -3 c118 -2 134 0 175 20 56 29 81 76 88 167 5 75 -11 167 -34 192 -13 14 -11 25 15 95 l30 79 3 -275 3 -275 165 0 165 0 3 82 3 82 -78 3 c-76 3 -78 4 -81 30 -3 27 -2 27 60 30 l63 3 3 82 3 82 -63 3 c-60 3 -63 4 -66 30 l-3 26 85 4 86 3 2 -230 3 -230 140 0 c127 0 143 2 176 22 54 34 74 88 74 198 0 74 -4 98 -23 137 l-23 47 25 71 c14 39 26 89 26 111 l0 39 -89 0 -90 0 -18 -57 -18 -58 -5 55 -5 55 -355 0 -355 0 -22 -60 -22 -60 0 63 -1 62 -85 0 c-60 0 -87 -4 -90 -13z"></path><path id="p2UeQGF3F" d="M802 2018 c-23 -23 -14 -151 23 -313 19 -85 39 -165 44 -177 5 -13 41 -54 81 -93 74 -73 97 -110 145 -233 16 -42 46 -93 68 -118 39 -44 40 -45 96 -42 l56 3 3 58 c3 51 -1 64 -32 115 -19 31 -52 100 -72 152 -40 105 -55 129 -130 211 -38 41 -56 72 -68 113 -22 74 -56 235 -56 264 0 13 -11 34 -25 47 -19 20 -34 25 -73 25 -26 0 -53 -5 -60 -12z"></path><path id="pu4zcv030" d="M2678 2018 c-9 -7 -23 -38 -31 -69 -9 -34 -31 -79 -56 -113 -51 -69 -65 -100 -97 -222 -16 -63 -37 -116 -64 -158 -33 -52 -40 -72 -40 -113 0 -68 20 -85 91 -81 l53 3 48 76 c38 59 54 98 74 180 19 81 36 123 76 188 57 94 78 159 78 244 0 53 -2 58 -26 67 -35 14 -87 12 -106 -2z"></path></g></g><g id="l74FMLvsXIbKJ9rXrH6uhOK" fill="rgb(115,110,52)" style="transform: none;"><g style="transform: none;"><path id="p1DsSVB9rX" d="M1515 4500 c-168 -21 -216 -29 -357 -65 -192 -49 -397 -141 -555 -251 -44 -30 -52 -40 -30 -41 6 0 71 -11 142 -23 207 -36 230 -34 367 39 98 52 123 61 166 61 44 0 54 -4 68 -25 15 -24 15 -27 0 -43 -8 -10 -59 -38 -111 -61 -52 -24 -95 -47 -95 -51 0 -4 16 -23 35 -43 19 -20 35 -40 35 -45 0 -5 18 -30 40 -55 36 -40 48 -47 110 -61 39 -9 104 -30 145 -46 86 -34 150 -38 258 -15 38 8 117 19 175 25 143 15 201 32 243 73 31 31 74 104 98 169 12 32 62 60 99 56 24 -3 27 -7 25 -40 -2 -33 0 -38 20 -38 33 0 90 18 217 67 104 41 178 58 335 79 l50 6 -40 34 c-57 49 -300 168 -427 209 -210 68 -386 94 -668 100 -148 3 -231 -1 -345 -15z m90 -416 c131 -44 133 -45 140 -62 3 -9 -3 -27 -13 -42 -18 -22 -26 -25 -83 -24 -65 1 -118 20 -181 67 -34 25 -35 34 -6 64 28 29 45 29 143 -3z"></path><path id="p1GIzlYHGu" d="M3088 4063 c-34 -8 -20 -33 17 -33 32 0 35 -2 35 -30 0 -20 5 -30 15 -30 8 0 15 -9 15 -20 0 -11 5 -20 10 -20 6 0 10 -7 10 -15 0 -8 5 -15 10 -15 6 0 10 -7 10 -15 0 -8 5 -15 10 -15 6 0 10 -7 10 -15 0 -8 7 -15 15 -15 8 0 15 -9 15 -19 0 -30 11 -51 26 -51 9 0 14 -11 14 -29 0 -16 7 -36 15 -45 8 -8 15 -24 15 -35 0 -16 6 -21 25 -21 l25 0 -20 50 c-40 101 -116 230 -187 318 -38 47 -59 60 -85 55z"></path><path id="p190NS3jB4" d="M2780 4026 c-67 -12 -150 -49 -150 -66 0 -6 16 -10 35 -10 22 0 35 5 35 13 0 15 123 39 128 26 2 -5 19 -9 38 -9 31 0 34 3 34 30 0 35 -11 36 -120 16z"></path><path id="p174TvpTqj" d="M398 3978 c-115 -140 -194 -319 -234 -524 -18 -96 -18 -104 4 -104 17 0 28 41 49 190 3 19 10 38 14 41 5 3 15 29 21 57 7 29 16 52 20 52 5 0 8 14 8 30 0 18 5 30 13 30 16 0 37 41 37 70 0 11 7 20 15 20 10 0 15 10 15 30 0 23 4 30 20 30 15 0 20 7 20 25 0 18 5 25 20 25 16 0 20 7 20 35 0 19 -2 35 -4 35 -2 0 -19 -19 -38 -42z"></path><path id="ptgy5o1kt" d="M500 4002 c0 -16 24 -22 183 -46 254 -38 307 -48 307 -58 0 -4 9 -8 20 -8 13 0 20 -7 20 -20 0 -23 18 -33 50 -28 20 3 19 5 -14 45 -20 23 -51 46 -69 52 -24 8 -470 81 -493 81 -2 0 -4 -8 -4 -18z"></path><path id="pg2sp8QXt" d="M1880 3512 c0 -18 6 -20 59 -20 108 0 155 -39 188 -154 10 -37 22 -58 31 -58 12 0 14 10 9 52 -4 29 -11 54 -17 56 -5 2 -10 12 -10 22 0 32 -11 50 -31 50 -12 0 -19 7 -19 20 0 13 -7 20 -19 20 -11 0 -21 5 -23 11 -2 6 -41 13 -86 16 -78 6 -82 5 -82 -15z"></path><path id="p14xCO2Uuv" d="M2600 3485 c0 -19 5 -35 10 -35 6 0 10 7 10 15 0 13 22 15 141 15 132 0 141 -1 146 -20 4 -14 14 -20 33 -20 19 0 29 6 33 20 4 17 14 20 57 20 43 0 53 -3 57 -20 3 -11 12 -20 20 -20 10 0 13 10 11 38 l-3 37 -257 3 -258 2 0 -35z"></path><path id="phwf454yE" d="M1419 3363 c0 -112 -3 -141 -11 -120 -7 19 -17 27 -34 27 -19 0 -24 5 -24 25 0 18 -5 25 -20 25 -11 0 -20 5 -20 10 0 6 -16 10 -35 10 -43 0 -48 -25 -7 -35 48 -12 90 -52 109 -105 10 -28 23 -50 30 -50 8 0 13 -14 13 -40 0 -29 -4 -40 -15 -40 -8 0 -15 -6 -15 -13 0 -8 -11 -35 -24 -60 l-23 -47 28 0 c24 0 29 4 29 25 0 14 5 25 10 25 6 0 10 -25 10 -55 l0 -55 35 0 c19 0 35 5 35 10 0 6 -7 10 -15 10 -13 0 -15 38 -15 285 0 247 2 285 15 285 8 0 15 7 15 15 0 10 -11 15 -35 15 l-35 0 -1 -147z"></path><path id="psH0Vq4OS" d="M1713 3178 c5 -108 28 -218 46 -218 5 0 11 -9 14 -20 3 -11 13 -23 24 -27 10 -3 21 -11 24 -15 15 -22 140 -35 208 -22 25 5 31 12 31 31 0 20 -4 24 -17 18 -93 -38 -181 -21 -237 45 -38 46 -57 121 -57 228 1 87 0 92 -21 92 -20 0 -21 -3 -15 -112z"></path><path id="p52LeCbRY" d="M2140 3201 c0 -38 4 -61 13 -64 9 -4 9 -7 -1 -15 -7 -5 -15 -26 -19 -48 -3 -21 -12 -51 -19 -66 -19 -36 -18 -38 11 -38 22 0 25 4 25 35 0 19 5 35 10 35 6 0 10 14 10 30 0 23 4 30 20 30 16 0 20 7 20 35 0 24 -5 35 -15 35 -11 0 -15 12 -15 45 0 38 -3 45 -20 45 -18 0 -20 -7 -20 -59z"></path><path id="pab7tPTas" d="M1987 3135 c-3 -30 -12 -62 -21 -70 -21 -21 -46 -19 -46 5 0 15 -7 20 -25 20 -21 0 -23 -3 -16 -22 4 -12 20 -31 34 -42 22 -16 30 -17 55 -7 35 15 52 48 59 119 5 47 4 52 -14 52 -17 0 -21 -9 -26 -55z"></path><path id="pEtlWgD23" d="M149 3118 c-5 -19 -9 -396 -5 -414 4 -13 13 -24 21 -24 13 0 15 32 15 220 0 189 -2 220 -15 220 -8 0 -15 -1 -16 -2z"></path><path id="p1418FHIrs" d="M929 3087 c5 -13 23 -54 40 -91 17 -38 31 -73 31 -77 0 -5 -13 -9 -30 -9 -25 0 -30 -4 -30 -25 0 -22 4 -25 34 -25 l34 0 6 63 c7 62 -5 117 -26 117 -4 0 -8 9 -8 19 0 34 -12 51 -36 51 -20 0 -22 -3 -15 -23z"></path><path id="p18ZeDsuPk" d="M3305 3058 c-18 -82 -60 -127 -132 -143 -45 -9 -44 -35 2 -35 24 0 35 5 35 15 0 10 11 15 35 15 24 0 35 5 35 15 0 8 6 15 13 15 18 0 37 44 44 102 5 39 3 48 -10 48 -9 0 -18 -13 -22 -32z"></path><path id="pcuomxyRR" d="M1520 2720 c0 -6 -37 -10 -90 -10 -70 0 -90 -3 -90 -14 0 -22 29 -24 328 -26 277 -1 282 0 282 20 0 19 -6 20 -180 20 -113 0 -180 4 -180 10 0 6 -16 10 -35 10 -19 0 -35 -4 -35 -10z"></path><path id="pbd1ISBoR" d="M147 2533 c-6 -11 -2 -241 4 -247 6 -7 194 -44 259 -52 37 -4 104 2 205 18 138 21 177 23 480 21 271 -2 349 -6 438 -21 117 -21 144 -36 149 -85 4 -37 38 -63 96 -72 38 -6 42 -5 42 14 0 14 -6 21 -19 21 -30 0 -51 11 -51 26 0 8 -7 14 -15 14 -18 0 -13 29 17 98 24 59 24 122 -3 156 -11 14 -27 26 -35 26 -8 0 -14 4 -14 8 0 5 -16 16 -35 25 -23 11 -35 24 -35 37 0 16 -7 20 -34 20 -19 0 -37 -6 -39 -12 -4 -10 -6 -10 -6 0 -1 9 -148 12 -700 12 -385 0 -702 -3 -704 -7z"></path><path id="pliIsyMS2" d="M1980 2519 c0 -18 9 -19 178 -19 188 0 222 -4 222 -26 0 -8 4 -14 9 -14 5 0 14 -13 21 -30 10 -25 10 -34 -4 -55 -9 -13 -27 -27 -41 -31 -17 -4 -25 -13 -25 -28 0 -18 5 -21 37 -20 21 1 47 -5 59 -13 12 -7 27 -11 35 -9 8 3 97 8 199 10 183 6 451 -13 490 -34 17 -9 108 6 228 37 l62 16 0 109 c0 78 -4 110 -12 113 -7 2 -338 6 -735 9 -710 5 -723 4 -723 -15z"></path><path id="p14EQklazI" d="M2980 2161 c0 -17 6 -21 30 -21 17 0 30 -2 30 -5 0 -2 -7 -30 -15 -62 -19 -71 -19 -113 -2 -113 9 0 23 37 40 102 14 57 25 103 24 104 -1 1 -26 5 -54 9 -49 6 -53 5 -53 -14z"></path><path id="p12HwLt37k" d="M3290 2142 l-105 -27 -41 -175 c-57 -249 -68 -279 -126 -347 -27 -32 -61 -77 -75 -100 -23 -39 -93 -267 -93 -304 0 -37 -80 -134 -152 -184 -77 -54 -112 -86 -231 -218 -75 -83 -83 -89 -227 -161 -292 -146 -406 -170 -631 -131 -133 23 -167 38 -419 178 -247 137 -266 153 -296 256 -63 216 -79 245 -202 377 -110 118 -113 126 -233 591 -37 146 -57 204 -68 208 -57 18 -236 44 -241 35 -11 -18 -1 -1090 11 -1150 6 -30 31 -97 55 -148 39 -81 59 -107 147 -197 117 -118 180 -162 362 -250 267 -129 555 -202 890 -226 162 -11 297 -6 500 17 170 20 212 28 385 75 476 132 814 384 913 683 l30 91 4 568 4 567 -28 -1 c-15 0 -75 -13 -133 -27z"></path><path id="pwQRBqdrB" d="M638 2141 c-53 -9 -100 -20 -104 -24 -13 -13 16 -117 33 -117 13 0 15 9 11 44 -6 53 -9 51 107 68 71 10 85 15 85 30 0 21 -5 21 -132 -1z"></path><path id="pTdlqmQIx" d="M2680 2010 c0 -11 -6 -20 -14 -20 -9 0 -17 -15 -21 -39 -3 -22 -13 -47 -20 -58 -8 -10 -15 -30 -15 -45 0 -21 -5 -28 -20 -28 -16 0 -20 -7 -20 -36 0 -29 3 -34 13 -26 31 26 86 121 97 170 14 60 35 77 74 62 24 -9 26 -7 26 15 0 23 -3 25 -50 25 -43 0 -50 -3 -50 -20z"></path><path id="pWVa0tvqk" d="M2990 1915 c0 -19 -4 -35 -9 -35 -6 0 -13 -21 -17 -47 -4 -26 -13 -53 -20 -61 -8 -7 -14 -20 -14 -28 0 -8 -4 -14 -10 -14 -5 0 -10 -11 -10 -24 0 -18 -6 -25 -22 -28 -19 -2 -24 -10 -26 -42 -4 -48 5 -43 69 40 32 42 49 79 71 152 33 116 34 122 8 122 -16 0 -20 -7 -20 -35z"></path><path id="pPISrHDrp" d="M790 1878 c0 -13 12 -78 27 -145 22 -102 30 -123 45 -123 23 0 23 -5 -12 148 -16 72 -30 133 -30 136 0 3 -7 6 -15 6 -9 0 -15 -9 -15 -22z"></path><path id="pHsP4Rd21" d="M1180 1350 c39 -99 52 -126 80 -171 17 -25 30 -58 30 -72 0 -21 5 -27 21 -27 20 0 21 4 16 47 -3 26 -10 49 -16 51 -6 2 -11 10 -11 18 0 8 -4 14 -10 14 -5 0 -10 7 -10 15 0 8 -7 15 -15 15 -10 0 -15 10 -15 30 0 17 -4 30 -10 30 -5 0 -10 11 -10 25 0 14 -4 25 -10 25 -5 0 -10 11 -10 25 0 20 -5 25 -25 25 l-25 0 20 -50z"></path><path id="prIeikTb9" d="M2724 1340 c-4 -33 -11 -60 -15 -60 -5 0 -9 -16 -9 -35 0 -24 -5 -35 -15 -35 -10 0 -15 -10 -15 -30 0 -27 -3 -30 -30 -30 -16 0 -30 -4 -30 -10 0 -5 -7 -10 -15 -10 -10 0 -15 -10 -15 -31 l0 -30 33 22 c82 57 112 102 142 220 20 75 19 89 -5 89 -16 0 -20 -9 -26 -60z"></path><path id="pYXwX81ZS" d="M1080 1262 c0 -42 20 -92 36 -92 9 0 14 -11 14 -30 0 -20 5 -30 15 -30 8 0 15 -8 15 -18 0 -27 20 -42 57 -42 18 0 33 1 33 3 0 2 -21 25 -48 53 -30 32 -56 72 -72 113 -28 71 -50 90 -50 43z"></path><path id="pDM9utLkk" d="M2180 1207 c-33 -70 -76 -104 -170 -135 -130 -42 -113 -72 20 -35 45 12 60 21 60 34 0 13 9 19 38 21 27 2 40 9 47 26 5 12 13 22 17 22 5 0 8 9 8 20 0 11 5 20 10 20 6 0 10 16 10 35 0 47 -16 44 -40 -8z"></path><path id="p2ul6Hkcs" d="M1460 1165 c0 -19 5 -35 10 -35 6 0 10 -9 10 -20 0 -15 7 -20 25 -20 20 0 25 -5 25 -25 0 -16 6 -25 15 -25 8 0 15 -4 15 -10 0 -5 7 -10 15 -10 8 0 15 -4 15 -10 0 -5 7 -10 15 -10 8 0 15 -4 15 -10 0 -5 8 -10 19 -10 10 0 21 -9 24 -20 4 -16 14 -20 43 -20 l38 0 -21 21 c-12 12 -61 49 -109 83 -70 48 -93 71 -111 109 -28 56 -43 60 -43 12z"></path><path id="p7ChcUbkx" d="M1320 742 c0 -5 29 -25 65 -45 201 -111 364 -132 559 -72 104 31 216 81 216 95 0 11 -49 14 -74 4 -9 -3 -16 -12 -16 -20 0 -9 -12 -14 -35 -14 -19 0 -35 -4 -35 -10 0 -5 -21 -7 -50 -3 -45 5 -50 4 -50 -14 0 -17 -9 -21 -46 -27 -102 -14 -304 4 -304 26 0 5 -16 8 -35 8 -24 0 -35 5 -35 15 0 10 -11 15 -35 15 -28 0 -35 4 -35 19 0 10 -7 22 -16 25 -23 9 -74 7 -74 -2z"></path></g></g><g id="l4xw8rLRFQ0FnNR5ZsbIHnx" fill="rgb(197,174,109)" style="transform: none;"><g style="transform: none;"><path id="ps1p3JB9e" d="M2965 4049 c-33 -5 -98 -13 -145 -19 -61 -8 -107 -21 -160 -47 -114 -54 -118 -55 -224 -62 l-100 -6 -38 -55 c-20 -30 -51 -67 -67 -81 -39 -36 -130 -68 -226 -81 -44 -5 -139 -21 -211 -35 -154 -29 -272 -31 -335 -7 -24 9 -91 33 -149 52 -105 36 -105 37 -203 133 -112 112 -56 92 -447 154 l-215 35 -33 -38 c-81 -92 -164 -245 -206 -380 -49 -158 -56 -227 -56 -593 l0 -339 513 0 c281 0 1024 -3 1650 -7 l1137 -6 0 299 c0 334 -8 436 -44 574 -42 163 -110 301 -221 448 l-50 67 -55 2 c-30 0 -82 -3 -115 -8z m-926 -574 c40 -20 60 -47 82 -111 25 -70 29 -230 9 -315 -17 -69 -79 -134 -137 -144 -83 -14 -165 19 -203 80 -71 114 -59 384 19 459 57 54 159 68 230 31z m-1484 -45 l0 -55 -77 -3 -78 -3 0 -54 0 -54 63 -3 62 -3 0 -55 0 -55 -63 -3 -63 -3 3 -57 3 -57 73 -3 c39 -2 72 -6 73 -10 0 -4 2 -20 4 -37 9 -65 7 -66 -138 -63 l-132 3 -3 275 c-1 151 0 281 3 288 3 10 36 12 137 10 l133 -3 0 -55z m203 -2 c15 -35 33 -74 39 -88 10 -24 13 -21 51 63 l41 87 56 0 c36 0 55 -4 55 -12 0 -6 -27 -69 -61 -138 l-61 -126 61 -142 c34 -78 61 -147 61 -152 0 -15 -106 -12 -117 3 -5 6 -23 43 -38 80 l-29 68 -40 -78 -41 -78 -54 -3 c-30 -2 -58 1 -63 6 -7 7 14 58 56 142 l67 131 -63 142 c-35 77 -64 145 -66 149 -2 4 24 8 58 8 l61 0 27 -62z m410 -30 l3 -88 53 0 c39 0 62 -6 86 -22 60 -41 75 -71 79 -159 7 -166 -57 -223 -245 -217 l-89 3 -3 275 c-1 151 0 281 3 288 3 9 21 12 57 10 l53 -3 3 -87z m1730 83 c9 -5 12 -25 10 -57 l-3 -49 -82 -3 -82 -3 1 -53 c1 -52 3 -54 31 -60 16 -3 45 -6 64 -6 l34 0 -3 -52 -3 -53 -62 -3 -62 -3 2 -57 2 -57 75 -1 75 -1 0 -54 0 -54 -135 0 -135 0 -3 275 c-1 151 0 280 3 287 5 15 251 19 273 4z m190 -93 c2 -88 5 -98 22 -98 14 0 25 20 50 94 34 103 36 105 113 97 21 -2 37 -8 37 -16 0 -7 -15 -55 -34 -108 -34 -93 -35 -95 -16 -112 34 -31 53 -99 47 -165 -7 -78 -31 -119 -87 -148 -39 -20 -57 -22 -145 -20 l-100 3 -3 275 c-1 151 0 281 3 288 3 9 21 12 57 10 l53 -3 3 -97z m-1360 40 l-3 -53 -77 -3 -78 -3 0 -230 0 -230 -57 3 -58 3 -3 283 -2 282 140 0 141 0 -3 -52z m602 -43 c0 -87 2 -95 19 -95 19 0 22 5 69 135 l18 50 62 3 c34 2 62 1 62 -2 0 -2 -16 -49 -36 -104 l-35 -99 25 -37 c61 -90 42 -241 -37 -300 -25 -19 -42 -21 -145 -21 l-117 0 -3 283 -2 282 60 0 60 0 0 -95z"></path><path id="peBxPJxbU" d="M1898 3363 c-23 -26 -29 -65 -29 -174 0 -111 15 -153 58 -170 31 -11 69 9 82 44 27 73 18 262 -15 298 -22 24 -76 25 -96 2z"></path><path id="paiSfJLWY" d="M1172 3113 l3 -88 32 -3 c42 -4 63 26 63 94 0 60 -20 84 -69 84 l-32 0 3 -87z"></path><path id="pLlrUl4ou" d="M3090 3100 l0 -80 30 0 c43 0 70 31 70 81 0 61 -14 79 -60 79 l-40 0 0 -80z"></path><path id="p78yO4p1y" d="M2330 3100 l0 -80 34 0 c41 0 56 17 63 69 8 57 -16 91 -62 91 l-35 0 0 -80z"></path><path id="pJuYtLUgM" d="M1300 2531 c0 -6 19 -11 44 -11 133 0 342 -74 382 -135 18 -27 18 -29 -20 -130 -14 -38 -26 -79 -26 -91 0 -52 63 -70 275 -78 l140 -5 -33 27 c-38 32 -41 56 -9 76 22 15 297 114 327 119 25 3 80 68 80 94 0 31 -26 82 -57 111 -13 12 -25 22 -26 23 -1 0 -244 3 -539 6 -384 3 -538 2 -538 -6z"></path><path id="pYUpAAhez" d="M2525 2170 c-105 -16 -99 -12 -118 -92 -10 -40 -24 -122 -32 -183 -20 -151 -27 -172 -84 -239 -56 -67 -57 -67 -71 -230 -23 -260 -57 -311 -237 -365 -55 -16 -86 -33 -123 -66 -58 -52 -106 -60 -150 -24 -14 11 -56 42 -95 68 -92 64 -97 70 -145 186 -148 355 -153 378 -155 688 -1 165 -5 231 -14 240 -9 9 -79 12 -274 11 -219 -1 -281 -4 -375 -21 -63 -12 -116 -24 -119 -27 -7 -7 87 -402 128 -538 29 -95 31 -98 134 -214 120 -136 158 -201 180 -305 23 -111 51 -159 110 -193 293 -167 435 -238 510 -256 88 -21 249 -14 342 14 225 68 372 158 483 294 52 64 100 110 159 152 47 33 93 68 102 76 25 23 64 124 89 234 30 128 46 162 119 249 34 41 70 91 80 110 25 49 117 418 107 428 -11 11 -478 13 -551 3z m-1617 -194 c10 -13 24 -57 31 -98 32 -186 66 -282 116 -328 52 -48 94 -116 135 -219 22 -57 53 -122 69 -145 36 -53 40 -66 30 -93 -13 -34 -54 -30 -91 9 -34 37 -63 90 -89 167 -29 84 -64 135 -133 197 -36 31 -69 68 -75 83 -6 14 -27 94 -46 176 -36 155 -44 242 -23 263 19 19 55 14 76 -12z m1853 14 c41 -23 16 -130 -60 -254 -39 -64 -54 -101 -70 -173 -22 -100 -34 -129 -93 -215 -32 -49 -44 -58 -68 -58 -30 0 -50 22 -50 55 0 8 20 50 44 93 26 46 51 107 62 152 22 96 42 143 94 219 23 34 48 84 55 112 20 76 41 93 86 69z"></path></g></g><g id="l72OgIaNY8omAQCe6yL6cdW" fill="rgb(244,230,162)" style="transform: none;"><g style="transform: none;"><path id="pozKRk5WZ" d="M2895 4039 c-137 -18 -159 -23 -247 -64 -68 -32 -118 -48 -170 -55 l-73 -9 71 3 c60 3 88 10 170 49 95 43 106 46 283 67 l183 21 30 -28 c63 -60 190 -284 227 -400 44 -137 61 -251 64 -445 1 -65 6 -118 11 -118 10 0 0 248 -15 359 -26 197 -131 433 -266 599 -41 50 -39 50 -268 21z"></path><path id="p1HLoYiNaS" d="M381 3953 c-93 -123 -166 -285 -207 -460 -13 -54 -17 -143 -21 -440 l-5 -373 959 0 c527 0 1269 -3 1650 -7 l692 -6 0 137 c1 134 1 136 -22 136 -14 0 -18 -3 -10 -8 12 -8 16 -71 14 -199 l-1 -52 -402 4 c-222 2 -958 4 -1636 4 l-1232 1 1 315 c1 223 4 315 12 315 8 0 8 3 0 11 -7 7 -10 26 -7 43 15 85 46 220 60 263 37 111 147 309 165 297 5 -3 8 0 7 7 -2 7 2 13 9 14 6 0 15 4 20 9 5 5 3 6 -4 2 -20 -11 -15 9 5 27 20 19 62 23 62 7 0 -6 10 -8 23 -5 12 4 52 1 87 -5 92 -16 178 -29 230 -35 25 -3 77 -13 117 -21 71 -15 73 -16 144 -95 80 -89 101 -102 239 -149 52 -18 100 -36 105 -40 18 -13 103 -30 152 -30 26 0 107 11 178 24 72 14 175 31 230 39 112 17 201 47 244 82 15 14 32 21 36 17 5 -4 5 -2 2 4 -7 13 47 97 57 87 4 -4 4 0 0 10 -5 14 0 17 30 17 20 0 36 3 36 8 0 4 -14 7 -31 7 -27 0 -37 -8 -70 -56 -75 -111 -142 -145 -329 -168 -52 -7 -151 -23 -220 -37 -145 -30 -229 -27 -320 11 -30 12 -93 35 -140 50 -82 26 -89 31 -179 121 -105 106 -99 103 -301 133 -74 11 -180 27 -235 36 -145 22 -137 24 -194 -52z"></path><path id="p19VpQvluz" d="M287 3498 c-7 -4 52 -8 131 -8 l142 0 0 -60 0 -60 -80 0 -80 0 0 -55 0 -55 65 0 66 0 -3 -57 -3 -58 -62 -3 -63 -3 0 -54 0 -54 78 -3 77 -3 3 -34 c2 -19 1 -45 -3 -58 -6 -24 -6 -24 -138 -21 l-132 3 -5 285 c-5 262 -6 270 -8 100 -3 -174 -3 -359 0 -388 1 -10 35 -12 147 -10 l146 3 3 53 c4 73 -6 82 -89 82 l-69 0 0 45 0 45 53 0 c28 0 57 4 63 8 16 10 27 67 19 102 -6 30 -8 30 -71 30 l-64 0 0 45 0 44 78 3 77 3 3 63 c2 45 -1 64 -10 67 -22 9 -258 11 -271 3z"></path><path id="pRALBROVM" d="M652 3503 c-24 -2 -45 -10 -48 -16 -2 -7 24 -76 60 -153 55 -122 62 -144 52 -163 -7 -12 -16 -18 -21 -14 -4 4 -5 3 -1 -4 3 -7 -18 -60 -48 -119 -29 -60 -52 -114 -49 -121 4 -10 24 -13 77 -11 l71 3 36 68 35 67 23 -54 c12 -31 19 -61 15 -67 -4 -7 -3 -9 4 -5 6 3 13 2 17 -4 3 -5 35 -10 71 -10 56 0 64 2 64 19 0 10 -25 76 -55 146 -30 71 -55 136 -55 145 0 10 27 75 60 145 33 69 58 131 55 136 -4 5 -35 9 -71 9 l-65 0 -35 -77 -36 -77 -30 70 c-29 68 -51 96 -72 92 -6 -1 -30 -3 -54 -5z m119 -102 l38 -85 25 60 c48 112 45 109 109 112 46 2 57 0 57 -13 0 -8 -27 -70 -60 -136 l-61 -120 42 -102 c23 -56 50 -119 60 -139 31 -60 27 -68 -35 -68 -61 0 -61 0 -102 91 l-29 66 -40 -76 -40 -76 -62 -3 c-54 -3 -63 0 -63 14 0 9 29 72 65 141 l65 123 -65 147 c-36 80 -65 147 -65 150 0 2 28 3 62 1 l62 -3 37 -84z"></path><path id="pwT1VgObC" d="M1593 3502 c-95 -2 -134 -6 -142 -16 -8 -9 -11 -100 -9 -297 l3 -284 64 -3 c45 -2 67 1 72 10 5 7 8 110 8 228 l-1 215 66 1 c37 1 71 5 76 10 12 12 14 95 4 119 -8 19 -17 20 -141 17z m135 -74 l3 -57 -78 -3 -78 -3 -2 -195 c-1 -107 -2 -210 -3 -228 l0 -33 -57 3 -58 3 -3 275 c-1 151 0 280 2 287 4 9 40 12 138 10 l133 -2 3 -57z"></path><path id="p55ZABQvM" d="M1865 3495 c-49 -17 -97 -70 -116 -127 -15 -47 -22 -321 -7 -312 4 3 8 -1 8 -8 0 -21 39 -89 63 -110 77 -67 215 -62 279 9 10 10 27 41 40 68 19 43 22 68 23 175 0 176 -26 244 -115 299 -38 23 -50 26 -50 12 0 -5 11 -12 24 -15 43 -11 84 -55 107 -114 18 -47 22 -78 23 -172 0 -124 -10 -173 -46 -226 -46 -68 -150 -93 -234 -55 -85 39 -119 121 -119 291 0 137 17 191 75 244 28 25 51 36 87 41 73 10 82 13 38 13 -22 1 -58 -5 -80 -13z"></path><path id="pnRozFlsU" d="M1042 3203 l3 -298 110 -3 c98 -2 115 0 155 20 120 61 134 280 22 364 -22 18 -38 35 -34 40 4 4 2 4 -5 0 -21 -12 -110 4 -110 20 0 8 4 14 9 14 5 0 6 5 2 12 -4 7 -9 33 -11 58 -4 69 -5 70 -78 70 l-65 0 2 -297z m128 198 l5 -84 48 -3 c53 -4 80 -15 115 -48 41 -36 54 -73 53 -150 -1 -161 -60 -210 -246 -204 l-90 3 -3 288 -2 288 57 -3 58 -3 5 -84z"></path><path id="pvw78k7y8" d="M1172 3113 c3 -87 3 -88 30 -91 42 -5 68 28 68 88 0 60 -24 90 -70 90 l-31 0 3 -87z m70 60 c25 -22 25 -104 0 -126 -9 -9 -26 -15 -37 -13 -18 3 -20 11 -21 72 0 38 1 72 3 77 7 12 36 8 55 -10z"></path><path id="pT4cDivwv" d="M2208 3487 c-10 -11 -12 -70 -8 -298 l5 -284 113 -3 c132 -3 169 9 210 70 45 69 43 212 -4 268 l-26 30 36 92 c20 51 36 100 36 109 0 22 -20 29 -81 29 -56 0 -67 -11 -94 -95 -43 -134 -54 -137 -54 -14 0 65 -3 94 -13 100 -21 14 -105 10 -120 -4z m120 -99 c2 -88 5 -98 22 -98 14 0 25 20 50 95 l32 95 36 1 c45 1 86 -2 91 -7 2 -2 -1 -16 -7 -31 -6 -15 -23 -61 -38 -100 -25 -68 -26 -74 -11 -91 51 -56 63 -177 25 -252 -39 -75 -61 -85 -196 -85 l-117 0 -3 275 c-1 151 0 281 3 288 3 9 21 12 57 10 l53 -3 3 -97z"></path><path id="pg28ViVQR" d="M2330 3100 l0 -80 28 0 c42 0 63 21 69 68 8 58 -15 92 -62 92 l-35 0 0 -80z"></path><path id="pqHhJzz36" d="M2617 3493 c-4 -3 -7 -136 -7 -294 0 -239 2 -289 14 -296 8 -4 73 -7 145 -5 145 3 137 -1 145 77 5 56 -7 65 -84 65 l-70 0 0 45 0 45 54 0 c30 0 58 5 62 11 10 18 12 103 1 117 -5 7 -32 12 -63 12 l-54 0 0 46 0 45 65 -2 c36 -1 68 1 72 4 3 4 -29 7 -73 7 l-79 0 3 -55 4 -54 56 -3 57 -3 3 -57 3 -58 -61 0 -60 0 0 -55 0 -54 73 -3 72 -3 0 -55 0 -55 -135 0 -135 0 0 285 0 285 140 0 140 0 5 -65 6 -65 4 62 c4 51 2 63 -12 72 -19 12 -280 16 -291 4z"></path><path id="pFPIfZSXT" d="M2973 3493 c-18 -7 -19 -563 -1 -581 8 -8 49 -12 117 -12 93 0 109 3 147 25 47 28 84 90 84 144 0 20 4 30 11 26 7 -5 8 -1 1 11 -5 11 -15 42 -21 69 -7 28 -22 60 -33 72 l-21 22 37 102 c43 120 40 129 -40 129 -63 0 -80 -13 -95 -76 -7 -26 -16 -41 -22 -37 -6 3 -7 1 -3 -6 9 -14 -12 -81 -25 -81 -5 0 -9 38 -9 84 0 114 -1 116 -64 115 -28 0 -57 -3 -63 -6z m115 -105 c2 -86 5 -98 20 -98 14 0 24 19 41 73 40 123 43 127 106 127 29 0 56 -4 59 -8 3 -5 -13 -55 -34 -112 l-38 -105 28 -32 c34 -38 45 -85 37 -159 -6 -62 -29 -108 -70 -138 -25 -19 -42 -21 -145 -21 l-117 0 -3 275 c-1 151 0 281 3 288 3 9 21 12 57 10 l53 -3 3 -97z"></path><path id="pZmjvmgxY" d="M3092 3103 l3 -78 34 2 c46 2 56 16 56 79 0 61 -10 74 -63 74 l-33 0 3 -77z"></path><path id="pg9DMK4ts" d="M1908 3369 c-25 -14 -38 -72 -38 -175 0 -133 20 -174 83 -174 47 0 62 32 65 147 2 58 1 120 -3 139 -11 61 -61 90 -107 63z m78 -20 c17 -18 19 -37 19 -149 0 -113 -2 -130 -19 -149 -29 -32 -67 -24 -89 19 -25 47 -20 234 6 274 21 32 57 34 83 5z"></path><path id="puUDAEEMC" d="M1330 2529 c0 -5 4 -8 9 -5 5 4 41 -1 81 -9 75 -16 112 -18 70 -5 -14 4 178 8 426 9 489 1 463 4 509 -58 14 -19 25 -29 25 -23 0 7 -17 31 -37 52 l-38 40 -463 1 c-254 0 -466 -2 -470 -5 -4 -2 -14 -1 -22 5 -21 12 -90 11 -90 -2z"></path><path id="p10tCuOFNF" d="M2366 2318 c-10 -6 -86 -34 -168 -63 -83 -29 -157 -60 -166 -69 -23 -23 -22 -59 2 -73 18 -10 4 -12 -79 -12 -184 -1 -257 19 -269 73 -2 13 -4 10 -3 -9 2 -22 10 -34 36 -49 29 -17 57 -20 199 -23 l166 -4 -27 21 c-31 25 -34 50 -9 72 9 9 85 39 168 67 82 29 156 56 164 61 21 13 8 20 -14 8z"></path><path id="pDqR9zrso" d="M2517 2166 c-42 -7 -81 -17 -86 -22 -14 -14 -40 -133 -51 -237 -15 -134 -33 -187 -85 -248 -56 -65 -61 -84 -75 -244 -13 -156 -20 -186 -59 -247 -34 -53 -71 -75 -178 -107 -53 -16 -84 -32 -121 -66 -82 -73 -106 -67 -294 80 -45 35 -58 53 -90 130 -150 350 -169 430 -167 720 0 99 0 189 0 199 0 10 -4 23 -10 29 -5 5 -105 11 -223 13 -117 1 -204 -1 -194 -5 11 -4 105 -9 210 -10 105 -1 193 -5 196 -8 3 -2 5 -95 6 -206 1 -205 3 -237 29 -361 8 -38 12 -73 8 -79 -3 -6 -1 -7 5 -3 7 4 12 1 12 -9 0 -8 4 -23 10 -33 5 -9 40 -91 78 -182 65 -156 71 -167 118 -203 27 -20 48 -42 47 -47 -2 -5 5 -6 14 -3 10 4 14 2 10 -4 -4 -6 1 -10 11 -9 12 1 16 -5 14 -19 -2 -16 -1 -17 7 -6 8 12 16 9 46 -18 34 -29 41 -32 79 -25 22 3 43 9 46 13 36 45 99 83 175 106 73 22 95 35 136 74 27 26 52 45 55 42 3 -3 2 3 -2 13 -5 13 -4 17 4 12 7 -4 10 -2 6 7 -2 7 0 25 5 39 5 15 15 84 21 155 15 172 16 178 38 161 15 -11 15 -11 5 3 -7 8 -9 25 -6 38 4 17 8 20 15 9 8 -10 9 -10 5 2 -2 8 13 36 34 62 38 49 69 147 69 220 0 18 10 81 21 140 24 119 17 112 124 123 111 12 130 12 144 1 12 -9 13 -8 6 3 -7 12 21 13 181 9 104 -2 176 -1 159 3 -50 11 -424 7 -508 -5z"></path><path id="pELnTANoU" d="M747 2154 c-115 -15 -209 -32 -214 -38 -6 -6 112 -488 136 -558 28 -80 40 -100 102 -165 128 -134 188 -232 208 -343 20 -104 47 -150 111 -186 419 -238 485 -264 658 -264 122 0 228 28 379 100 155 74 206 112 289 216 58 73 97 109 175 164 109 78 130 109 159 230 7 30 23 93 37 139 24 84 26 87 150 242 18 21 39 63 48 92 28 93 83 311 89 352 5 37 -4 5 -78 -270 -15 -55 -34 -113 -42 -130 -20 -43 -102 -135 -117 -131 -7 1 -9 1 -5 -1 5 -3 -3 -23 -16 -46 -28 -49 -53 -132 -81 -267 -3 -14 -15 -46 -27 -73 -15 -34 -24 -44 -31 -35 -6 10 -7 8 -4 -3 7 -20 -15 -41 -100 -97 -34 -23 -88 -72 -120 -109 -130 -152 -171 -186 -293 -245 -174 -84 -291 -118 -409 -118 -158 0 -231 27 -546 202 -172 96 -186 111 -210 226 -9 42 -23 92 -31 110 -8 18 -11 39 -8 45 4 7 4 9 -1 5 -11 -10 -38 29 -30 42 4 6 2 9 -3 8 -5 -2 -24 15 -42 37 -17 22 -60 70 -95 106 -69 70 -92 113 -123 230 -47 175 -93 381 -88 395 3 8 2 13 -3 10 -5 -3 -12 6 -15 22 -4 15 -9 34 -12 43 -4 13 11 19 83 32 49 9 121 19 161 23 39 4 72 11 72 15 0 5 -3 8 -7 8 -5 -1 -52 -7 -106 -15z"></path><path id="pR7Am3MLn" d="M853 2012 c-30 -5 -53 -39 -53 -78 0 -18 -3 -34 -7 -37 -5 -2 -3 -3 3 -1 13 2 38 -131 28 -148 -4 -7 -3 -9 2 -5 10 9 57 -171 49 -191 -3 -8 0 -10 7 -6 8 5 9 2 5 -9 -3 -9 -2 -16 2 -14 5 1 20 -9 33 -23 14 -14 46 -45 72 -69 52 -49 69 -77 116 -200 52 -135 134 -207 181 -160 27 27 24 46 -17 113 -19 33 -52 100 -71 150 -43 108 -70 153 -129 216 -57 61 -77 109 -109 265 -14 72 -28 138 -31 147 -7 25 -55 54 -81 50z m54 -34 c11 -13 23 -43 27 -68 11 -78 58 -264 74 -295 8 -16 38 -55 67 -85 56 -60 86 -111 116 -200 11 -30 40 -91 65 -134 39 -68 44 -82 35 -102 -8 -17 -19 -24 -40 -24 -46 0 -93 65 -142 195 -34 92 -68 143 -131 197 -71 63 -80 79 -107 189 -75 312 -75 346 -5 348 11 1 30 -9 41 -21z"></path><path id="p15aDvwA1H" d="M2692 1998 c-5 -7 -18 -40 -27 -72 -19 -64 -70 -143 -88 -138 -7 2 -9 0 -5 -3 4 -4 -2 -25 -12 -46 -11 -21 -31 -80 -44 -132 -25 -100 -30 -111 -84 -200 -30 -49 -34 -61 -24 -82 16 -35 56 -58 84 -49 13 4 26 7 29 7 3 -1 6 4 6 11 0 7 14 34 32 60 33 48 77 136 73 148 -6 22 41 165 67 205 53 82 78 136 87 183 15 86 -1 120 -57 120 -14 0 -31 -6 -37 -12z m77 -7 c11 -7 13 -24 8 -70 -5 -63 -32 -126 -88 -208 -18 -26 -39 -83 -59 -158 -24 -95 -38 -130 -77 -188 -40 -60 -53 -72 -79 -75 -35 -3 -56 16 -56 51 0 12 17 50 39 84 22 34 45 83 52 110 34 135 63 207 111 275 27 39 50 79 50 89 0 10 7 37 16 59 13 33 21 40 43 40 14 0 32 -4 40 -9z"></path></g></g></svg>