<svg xmlns="http://www.w3.org/2000/svg" width="359" height="468" viewBox="0 0 3590 4680"><g id="lACFrAetw7TaSwKadbiA5B" fill="rgb(227,202,135)" style="transform: none;"><g><path id="prHhSnCch" d="M690 4545 c-174 -39 -318 -152 -395 -307 -67 -136 -66 -115 -63 -1273 l3 -1040 1575 0 1575 0 3 1048 c2 1162 4 1127 -63 1263 -81 166 -216 271 -393 309 -64 13 -215 15 -1130 14 -809 -1 -1070 -4 -1112 -14z m540 -310 c0 -8 -7 -15 -15 -15 -9 0 -12 6 -9 15 4 8 10 15 15 15 5 0 9 -7 9 -15z m248 -126 c16 -1 16 -2 0 -6 -14 -3 -18 -18 -21 -71 -2 -37 -3 -2 -3 78 0 80 2 112 3 73 3 -60 7 -73 21 -74z m395 134 l-33 -4 0 -130 c0 -79 -4 -129 -10 -129 -6 0 -10 52 -10 135 l0 135 43 -2 c36 -1 38 -2 10 -5z m597 -133 c0 -105 -3 -140 -12 -140 -10 0 -12 33 -10 140 4 184 22 184 22 0z m215 0 c0 -77 -3 -140 -7 -140 -5 0 -8 63 -8 140 0 77 3 140 8 140 4 0 7 -63 7 -140z m265 -2 c0 -96 -3 -138 -10 -128 -17 26 -11 270 6 270 2 0 4 -64 4 -142z m-677 62 c-3 -11 -7 -20 -8 -20 -1 0 -5 9 -8 20 -3 12 0 20 8 20 8 0 11 -8 8 -20z m-1744 -57 c0 -49 -2 -54 -10 -33 -9 23 -4 90 6 90 3 0 5 -26 4 -57z m415 -128 c-4 -8 -12 -15 -19 -15 -7 0 -15 7 -19 15 -4 11 1 15 19 15 18 0 23 -4 19 -15z m1264 3 c-3 -7 -11 -13 -18 -13 -7 0 -15 6 -17 13 -3 7 4 12 17 12 13 0 20 -5 18 -12z m-177 -244 c182 -31 238 -66 247 -153 4 -45 9 -53 57 -95 40 -34 74 -52 132 -71 114 -36 179 -81 253 -175 71 -90 109 -179 164 -390 18 -69 48 -161 66 -205 28 -68 43 -91 107 -152 41 -40 72 -77 68 -83 -4 -6 -58 -10 -137 -10 -159 0 -164 3 -238 128 -28 49 -85 128 -126 176 -69 80 -78 86 -113 86 -33 0 -39 -4 -55 -37 -25 -54 -98 -153 -160 -221 -30 -31 -61 -74 -69 -94 -11 -25 -32 -48 -63 -68 -69 -43 -136 -67 -266 -95 -26 -5 -28 -9 -28 -56 0 -61 -20 -93 -72 -120 -38 -20 -40 -20 -76 -2 -53 26 -81 73 -75 124 6 45 -4 59 -45 59 -32 0 -188 56 -238 85 -24 14 -56 42 -71 63 -75 103 -110 115 -186 64 -134 -91 -267 -85 -403 18 -126 95 -192 288 -149 435 28 96 64 156 139 230 82 81 168 128 281 152 71 16 75 18 105 64 17 26 54 66 83 89 47 38 53 46 59 92 13 100 90 141 323 171 90 12 398 6 486 -9z"></path><path id="pra5G8w3J" d="M876 3125 c-53 -19 -106 -63 -140 -119 -26 -41 -30 -60 -34 -136 -7 -134 32 -223 109 -254 46 -19 160 -21 192 -5 75 39 83 80 37 182 -32 71 -60 207 -60 293 l0 54 -32 0 c-18 -1 -50 -7 -72 -15z"></path><path id="pkZeaQcCk" d="M1580 1767 c-96 -27 -155 -82 -191 -177 -26 -69 -26 -274 0 -338 23 -57 77 -113 137 -143 44 -21 62 -24 174 -24 117 0 128 2 176 27 66 35 120 98 139 162 21 71 20 258 -2 322 -21 62 -104 147 -159 164 -60 18 -222 22 -274 7z m181 -198 c85 -60 81 -235 -6 -289 -60 -37 -116 -16 -154 58 -42 83 -33 157 25 218 38 41 89 46 135 13z"></path><path id="plmlUZ8uZ" d="M745 1758 c-3 -7 -4 -159 -3 -338 l3 -325 90 -3 91 -3 99 147 100 147 3 -147 3 -146 94 0 95 0 0 340 0 340 -89 0 -89 0 -29 -37 c-16 -21 -61 -85 -99 -142 l-69 -105 -5 140 -5 139 -93 3 c-68 2 -94 -1 -97 -10z"></path><path id="p1EOvPoSFh" d="M2177 1763 c-5 -8 -73 -260 -127 -471 -17 -68 -30 -140 -28 -160 l3 -37 91 -3 c65 -2 94 1 102 10 5 7 20 58 31 113 12 55 27 123 34 152 l12 51 34 -136 c19 -75 38 -143 44 -149 6 -9 39 -13 99 -13 l89 0 14 33 c8 19 26 85 42 147 l28 114 12 -55 c7 -30 21 -96 33 -148 11 -51 25 -100 31 -108 9 -10 34 -13 98 -11 l86 3 3 32 c2 18 -13 94 -32 170 -19 76 -54 213 -77 306 l-42 167 -104 0 -103 0 -11 -27 c-6 -16 -23 -77 -39 -137 -16 -59 -30 -110 -32 -112 -2 -2 -17 59 -34 134 l-29 137 -112 3 c-61 1 -113 -1 -116 -5z"></path><path id="p5I14CZ1V" d="M797 993 c-10 -9 -8 -655 1 -671 7 -9 59 -12 228 -10 l219 3 0 85 0 85 -120 5 -120 5 -3 43 -3 42 93 0 c51 0 99 4 106 9 9 5 12 30 10 87 l-3 79 -100 5 -100 5 -2 45 c-2 25 -5 78 -9 118 l-6 72 -92 0 c-51 0 -96 -3 -99 -7z"></path><path id="pxUbGq54K" d="M1197 994 c-16 -17 -3 -75 57 -251 122 -359 139 -408 149 -421 7 -9 40 -12 121 -10 l110 3 83 230 c130 360 133 371 133 414 l0 41 -99 0 -99 0 -18 -52 c-24 -77 -26 -78 -114 -78 -88 0 -92 2 -113 75 l-14 50 -95 3 c-51 1 -97 0 -101 -4z m348 -331 c-8 -27 -15 -51 -15 -55 0 -5 -4 -8 -9 -8 -8 0 -31 74 -31 99 0 6 16 11 35 11 l34 0 -14 -47z"></path><path id="p1DFOu9YFN" d="M1905 988 c-3 -7 -4 -162 -3 -343 l3 -330 209 -3 c149 -2 213 1 223 9 10 9 13 32 11 88 l-3 76 -120 5 -120 5 0 40 0 40 80 3 c131 4 125 -1 125 97 l0 84 -102 3 -103 3 -5 115 -5 115 -93 3 c-68 2 -94 -1 -97 -10z"></path><path id="pxYhIBelA" d="M2405 988 c-3 -7 -4 -162 -3 -343 l3 -330 220 0 220 0 0 85 0 85 -100 2 c-142 4 -147 6 -143 51 l3 37 80 3 c132 4 126 -1 123 95 l-3 82 -100 5 -100 5 -5 115 -5 115 -93 3 c-68 2 -94 -1 -97 -10z"></path></g></g><g id="lhygPmUYDVmpxVTLICUYxh" fill="rgb(183,68,17)" style="transform: none;"><g><path id="pjR8tuMfL" d="M1480 3739 c-119 -12 -180 -26 -218 -49 -30 -19 -33 -24 -30 -63 3 -41 4 -42 43 -48 35 -5 36 -6 9 -8 -16 0 -40 -10 -52 -21 -12 -11 -28 -20 -37 -20 -8 0 -15 -7 -15 -15 0 -8 -9 -15 -20 -15 -13 0 -20 -7 -20 -20 0 -11 -7 -20 -14 -20 -21 0 -59 -54 -90 -125 -21 -50 -25 -55 -26 -31 l0 29 -61 -6 c-125 -11 -286 -119 -346 -234 -42 -79 -57 -163 -50 -276 8 -110 26 -172 66 -230 81 -119 244 -173 399 -133 81 20 152 61 152 87 0 15 10 9 43 -26 26 -26 53 -45 65 -45 18 0 22 -6 22 -35 l0 -35 80 0 80 0 0 44 c0 38 -3 45 -22 49 -13 2 5 7 40 12 l62 8 0 33 c0 30 -3 34 -37 40 -25 5 -61 1 -103 -10 -87 -22 -100 -21 -100 7 0 16 -14 34 -45 57 -25 19 -45 39 -45 46 0 6 -6 14 -14 17 -8 3 -25 29 -38 56 -12 28 -26 51 -30 51 -4 0 -10 16 -14 35 -3 19 -10 35 -15 35 -5 0 -9 9 -9 20 0 11 -4 20 -9 20 -16 0 -19 113 -5 155 8 22 14 59 14 82 0 23 5 45 10 48 6 3 10 16 10 29 0 23 45 122 61 132 5 3 9 13 9 23 0 10 9 21 20 24 12 3 20 14 20 26 0 16 8 21 38 26 20 4 46 10 57 15 11 5 37 14 58 20 20 6 37 15 37 19 0 10 235 21 458 22 l172 0 0 40 c0 37 -2 39 -32 40 -18 1 -116 5 -218 9 l-185 8 215 -3 c215 -3 322 -17 286 -37 -10 -6 -16 -22 -16 -43 0 -35 0 -35 45 -35 43 0 45 1 45 30 0 29 2 30 45 30 l45 0 0 45 c0 37 -4 47 -25 61 -30 20 -129 42 -245 54 -106 11 -407 10 -520 -1z m58 -116 c-16 -2 -40 -2 -55 0 -16 2 -3 4 27 4 30 0 43 -2 28 -4z m-118 -13 c-34 -11 -60 -11 -35 0 11 5 29 8 40 8 16 0 15 -2 -5 -8z m-428 -507 c-8 -144 27 -307 87 -409 l20 -34 -29 0 c-20 0 -30 -5 -30 -15 0 -17 -48 -39 -107 -48 -90 -15 -184 62 -224 180 -21 64 -21 67 -4 129 31 113 119 206 222 234 27 7 52 17 58 21 5 5 9 9 10 9 0 0 -2 -30 -3 -67z"></path><path id="pEzFfKYmX" d="M2373 3363 c-7 -2 -13 -20 -13 -39 0 -26 4 -34 18 -34 14 0 17 -11 18 -73 1 -39 7 -92 14 -116 17 -63 14 -174 -6 -218 -52 -119 -78 -164 -104 -183 -15 -11 -39 -39 -53 -63 -36 -61 -73 -90 -97 -77 -10 5 -37 10 -59 10 -39 0 -41 -2 -41 -30 l0 -31 -123 7 c-67 4 -180 3 -250 -1 l-128 -7 3 -41 3 -41 239 -1 c175 -1 241 -5 244 -13 2 -7 25 -12 58 -12 l54 0 0 40 0 40 56 0 c52 0 59 3 90 36 74 77 154 194 154 224 0 5 9 19 19 29 10 10 22 38 26 61 8 46 25 38 25 -11 0 -32 36 -59 80 -59 27 0 30 3 30 31 0 17 -6 40 -12 52 -8 14 -13 63 -13 132 -1 143 -5 155 -56 155 -38 0 -39 1 -39 35 0 19 -4 35 -10 35 -5 0 -10 15 -10 34 0 19 -4 38 -10 41 -5 3 -10 17 -10 31 0 13 -4 24 -10 24 -5 0 -10 9 -10 20 0 16 -6 20 -32 19 -18 0 -39 -3 -45 -6z m154 -395 c-2 -18 -4 -4 -4 32 0 36 2 50 4 33 2 -18 2 -48 0 -65z"></path><path id="pPtI1hDHM" d="M2646 3268 c-8 -32 -7 -88 2 -88 4 0 16 -27 26 -60 11 -33 28 -67 38 -76 10 -10 18 -27 18 -38 0 -12 7 -34 15 -50 8 -15 15 -37 15 -47 0 -10 4 -20 9 -23 4 -3 11 -30 15 -61 3 -30 15 -79 26 -108 11 -28 20 -65 20 -80 0 -15 7 -30 15 -33 8 -4 15 -12 15 -20 0 -19 -39 -18 -46 1 -4 9 -19 15 -40 15 -32 0 -34 -2 -34 -34 0 -33 42 -124 64 -138 6 -4 73 -8 149 -8 l137 0 0 36 c0 29 -8 45 -43 80 -24 24 -52 60 -63 79 -10 19 -22 35 -26 35 -5 0 -8 9 -8 20 0 10 -8 41 -19 67 -10 26 -35 110 -55 186 -37 141 -90 271 -125 306 -10 10 -22 28 -26 40 -10 31 -70 30 -79 -1z"></path><path id="peSUFlTls" d="M1680 2565 l0 -35 110 0 110 0 0 35 0 35 -110 0 -110 0 0 -35z"></path><path id="pLRu3wNUQ" d="M1790 2254 c-8 -3 -23 -18 -32 -34 -13 -23 -24 -30 -48 -30 -27 0 -30 -3 -30 -33 0 -45 15 -57 72 -57 90 0 118 30 118 126 0 32 -2 34 -32 33 -18 -1 -40 -3 -48 -5z"></path></g></g><g id="l16C522QguvMDwQuuQIdptC" fill="rgb(168,63,16)" style="transform: none;"><g><path id="p6NVBXoFK" d="M1520 3731 c0 -13 9 -20 33 -24 17 -2 34 -1 35 4 2 5 10 9 18 9 8 0 14 7 14 15 0 11 -12 15 -50 15 -42 0 -50 -3 -50 -19z"></path><path id="p1V47A4FZ" d="M1880 3735 c0 -8 6 -15 14 -15 8 0 16 -5 18 -11 2 -7 17 -8 41 -4 27 5 37 12 37 26 0 16 -8 19 -55 19 -42 0 -55 -3 -55 -15z"></path><path id="pOoAkYly3" d="M1430 3721 c0 -12 9 -20 25 -23 14 -3 25 -1 25 3 0 5 7 9 15 9 8 0 15 7 15 15 0 11 -11 15 -40 15 -33 0 -40 -4 -40 -19z"></path><path id="pUQYz8MXb" d="M2040 3715 c0 -8 7 -15 15 -15 8 0 15 -5 15 -11 0 -7 9 -9 24 -5 14 3 26 1 28 -5 6 -18 58 1 58 21 0 12 -11 19 -37 24 -66 10 -103 7 -103 -9z"></path><path id="pG6XFpf27" d="M1940 3650 c0 -16 -7 -20 -31 -20 -17 0 -37 -7 -45 -15 -14 -13 -13 -15 10 -15 14 0 26 -4 26 -9 0 -13 -27 -21 -75 -21 -48 0 -75 8 -75 21 0 5 12 9 26 9 23 0 24 2 10 15 -8 8 -28 15 -44 15 -17 0 -32 -6 -36 -15 -4 -10 1 -15 15 -15 12 0 19 -5 17 -12 -3 -9 -30 -14 -76 -16 -60 -2 -72 0 -72 13 0 8 7 15 15 15 8 0 15 7 15 15 0 12 -13 15 -55 15 -43 0 -55 -3 -55 -16 0 -14 -2 -14 -15 0 -8 8 -15 22 -15 30 0 17 -19 20 -58 9 -17 -4 -22 -11 -19 -24 4 -15 -1 -19 -24 -19 -16 0 -29 -4 -29 -10 0 -5 -9 -10 -20 -10 -25 0 -100 -32 -100 -42 0 -5 -6 -8 -14 -8 -7 0 -25 -11 -40 -25 -15 -14 -31 -25 -35 -25 -18 0 -50 -48 -53 -80 -2 -25 -10 -38 -26 -45 -16 -7 -22 -18 -22 -42 0 -37 16 -52 25 -23 3 11 10 20 15 20 5 0 7 6 4 13 -2 7 10 33 27 57 19 26 34 39 37 32 2 -7 -2 -19 -9 -28 -22 -27 -59 -107 -59 -129 0 -11 -4 -25 -10 -31 -5 -5 -12 -32 -14 -59 -3 -28 -12 -77 -20 -110 l-16 -60 5 89 c3 49 10 96 14 105 16 29 10 71 -9 71 -37 0 -52 -239 -24 -375 23 -111 43 -162 64 -168 15 -4 20 -14 20 -36 0 -17 5 -31 10 -31 6 0 10 -4 10 -8 0 -4 -16 -6 -35 -4 -24 3 -42 -2 -61 -17 -15 -12 -33 -21 -40 -21 -23 0 -16 -37 9 -44 12 -3 24 -1 25 4 2 6 8 8 13 4 5 -3 9 0 9 5 0 6 5 10 11 8 6 -1 16 7 22 18 7 11 13 22 15 24 1 3 16 -11 32 -30 16 -19 29 -28 30 -21 0 17 45 15 60 -3 7 -9 15 -14 17 -11 2 2 -19 34 -47 71 -75 99 -140 238 -117 252 5 3 7 1 3 -5 -3 -6 1 -17 9 -26 8 -8 15 -19 14 -23 -3 -10 12 -46 21 -53 3 -3 17 -27 29 -53 13 -27 30 -51 37 -54 8 -3 14 -11 14 -17 0 -7 20 -27 45 -46 30 -22 45 -41 45 -56 0 -18 6 -23 33 -26 31 -3 31 -4 11 -15 -19 -11 -26 -9 -48 8 l-26 20 0 -20 c0 -16 6 -21 25 -21 14 0 25 -4 25 -10 0 -5 6 -10 13 -10 8 0 11 -14 9 -44 -4 -44 -3 -45 39 -67 70 -35 177 -68 244 -75 l62 -7 -5 -63 c-6 -82 12 -114 63 -114 41 0 43 5 13 31 l-23 18 33 1 c26 0 37 6 50 29 18 32 52 48 52 25 0 -8 -8 -14 -17 -14 -15 0 -15 -2 -4 -9 8 -5 11 -16 8 -25 -5 -12 0 -16 20 -16 25 0 26 1 20 56 -3 30 -10 61 -16 68 -9 10 4 14 62 19 86 7 195 39 255 74 38 22 42 29 42 63 0 34 3 38 30 44 22 4 30 11 30 27 0 11 8 33 18 47 37 53 34 56 -10 10 -29 -31 -53 -48 -68 -48 -23 0 -23 1 8 27 18 14 45 48 62 74 16 26 38 53 49 58 11 6 28 25 38 41 21 36 51 43 32 8 -7 -13 -24 -39 -40 -58 l-27 -36 34 4 c28 3 34 8 34 27 0 36 10 55 29 55 20 0 41 39 41 75 0 14 5 25 10 25 6 0 15 10 20 23 8 21 9 21 9 -5 1 -18 6 -28 16 -28 8 0 15 -7 15 -15 0 -8 7 -15 15 -15 8 0 15 -3 15 -7 0 -5 31 -45 68 -90 38 -46 77 -98 87 -118 11 -19 31 -39 47 -44 26 -9 27 -8 18 9 -15 28 -13 31 17 19 14 -5 39 -7 55 -4 25 6 28 11 28 50 0 29 -5 45 -15 49 -8 3 -15 18 -15 33 0 15 -9 52 -20 80 -11 29 -23 78 -26 108 -4 31 -11 58 -15 61 -5 3 -9 13 -9 23 0 10 -7 32 -15 47 -8 16 -15 38 -15 48 0 11 -8 29 -18 40 -10 12 -27 43 -37 70 -15 40 -15 50 -4 57 16 10 31 -7 61 -68 25 -52 38 -55 38 -8 0 24 -5 35 -15 35 -10 0 -15 10 -15 30 0 17 -4 30 -10 30 -5 0 -10 5 -10 12 0 32 -125 145 -186 168 -70 26 -124 27 -125 3 0 -15 -2 -15 -8 2 -5 11 -30 43 -55 72 -49 54 -149 113 -193 113 -12 0 -23 5 -23 10 0 6 -16 10 -36 10 -34 0 -35 1 -18 17 16 17 16 18 -7 24 -44 13 -59 10 -59 -11 0 -14 -6 -20 -22 -19 -17 1 -19 2 -5 6 24 6 21 30 -5 37 -45 12 -68 7 -68 -14z m-396 -76 c5 -12 -1 -15 -31 -12 -48 4 -57 28 -10 28 22 0 37 -6 41 -16z m466 6 c0 -5 -11 -10 -25 -10 -14 0 -25 5 -25 10 0 6 11 10 25 10 14 0 25 -4 25 -10z m-630 -25 c0 -8 -2 -15 -4 -15 -2 0 -11 -3 -20 -6 -10 -4 -16 -1 -16 9 0 14 13 24 33 26 4 1 7 -6 7 -14z m-90 -30 c0 -17 -27 -32 -37 -21 -4 3 2 13 13 21 24 18 24 18 24 0z m1168 -299 c5 -25 -21 -41 -30 -18 -12 30 -9 44 9 40 10 -2 19 -12 21 -22z m8 -71 c-16 -12 -17 -15 -4 -15 10 0 18 -13 22 -35 5 -25 12 -35 25 -35 21 0 31 -19 31 -56 0 -19 -5 -24 -25 -24 -16 0 -25 -6 -25 -15 0 -8 -7 -15 -15 -15 -8 0 -15 -5 -15 -11 0 -6 6 -9 13 -6 10 4 13 -2 9 -19 -2 -13 -10 -24 -16 -24 -9 0 -12 27 -13 93 0 50 -5 109 -11 129 -11 41 -8 48 22 48 21 -1 21 -1 2 -15z m108 -176 c-2 -4 -5 -31 -5 -59 -2 -50 -12 -73 -22 -47 -3 8 -1 20 4 28 5 8 9 52 10 99 1 80 2 82 10 36 4 -28 6 -53 3 -57z m-104 -109 c0 -5 -7 -10 -15 -10 -8 0 -15 5 -15 10 0 6 7 10 15 10 8 0 15 -4 15 -10z m-10 -37 c0 -15 -23 -43 -35 -43 -18 0 -18 1 -5 34 6 17 14 24 25 20 8 -3 15 -8 15 -11z m131 -25 c10 -19 10 -19 -15 -3 -28 19 -35 38 -11 29 9 -4 20 -15 26 -26z m-758 -245 c-24 -2 -62 -2 -85 0 -24 2 -5 4 42 4 47 0 66 -2 43 -4z m-367 -14 c-21 -13 -130 -40 -121 -30 7 6 112 39 130 40 6 0 2 -5 -9 -10z m394 -19 l25 -8 -26 -1 c-32 -1 -49 -31 -18 -31 12 0 19 -5 17 -12 -6 -18 -150 -18 -155 0 -3 7 4 12 16 12 14 0 19 5 15 15 -4 10 -21 16 -48 17 l-41 1 50 7 c69 9 135 9 165 0z m-240 -27 c0 -12 -3 -14 -8 -6 -4 6 -25 13 -47 16 -40 4 -40 4 8 5 39 2 47 -1 47 -15z m-152 0 c-10 -2 -26 -2 -35 0 -10 3 -2 5 17 5 19 0 27 -2 18 -5z m492 -34 c0 -14 -19 -21 -40 -14 -28 9 -14 33 16 27 13 -2 24 -8 24 -13z m-312 -1 c-3 -7 -17 -13 -33 -13 -16 0 -30 6 -32 13 -3 8 7 12 32 12 25 0 35 -4 33 -12z m382 -3 c0 -8 -7 -15 -15 -15 -9 0 -12 6 -9 15 4 8 10 15 15 15 5 0 9 -7 9 -15z m-600 -20 c0 -8 -4 -15 -10 -15 -5 0 -10 7 -10 15 0 8 5 15 10 15 6 0 10 -7 10 -15z m687 0 c2 -6 -8 -12 -22 -13 -24 -2 -32 8 -18 22 10 9 36 3 40 -9z"></path><path id="p7HazDFkp" d="M893 3323 c-16 -3 -23 -11 -23 -28 0 -22 2 -24 27 -14 14 5 32 8 40 5 7 -3 13 -1 13 4 0 6 7 10 15 10 8 0 15 7 15 15 0 15 -35 18 -87 8z"></path><path id="p1007xHXj8" d="M2820 2998 c0 -30 13 -58 26 -58 9 0 14 12 14 35 0 28 -4 35 -20 35 -11 0 -20 -6 -20 -12z"></path><path id="pUMMX1gfV" d="M550 2915 c0 -42 3 -55 15 -55 8 0 15 6 16 13 0 6 3 31 5 55 4 37 3 42 -15 42 -19 0 -21 -6 -21 -55z"></path><path id="pBwjcfzy0" d="M2854 2870 c4 -24 2 -30 -12 -31 -13 0 -11 -3 6 -9 12 -5 22 -14 22 -20 0 -5 5 -10 10 -10 6 0 10 23 10 50 0 44 -2 50 -21 50 -19 0 -21 -4 -15 -30z"></path><path id="pi845q71O" d="M550 2795 c0 -38 3 -45 20 -45 21 0 26 23 14 68 -11 41 -34 26 -34 -23z"></path><path id="pp5pYuKmc" d="M2893 2728 c19 -46 37 -48 37 -4 0 32 -3 36 -25 36 -24 0 -25 -1 -12 -32z"></path><path id="panujdbtY" d="M2917 2659 c4 -12 0 -25 -8 -30 -11 -7 -9 -9 6 -9 13 0 27 -13 39 -35 11 -19 23 -35 28 -35 4 0 8 16 8 35 0 19 -4 35 -9 35 -5 0 -11 14 -14 30 -5 23 -12 30 -31 30 -20 0 -23 -4 -19 -21z"></path><path id="piGmcbBVS" d="M820 2592 c0 -4 9 -15 20 -25 26 -22 70 -13 70 14 0 16 -8 19 -45 19 -25 0 -45 -3 -45 -8z"></path></g></g><g id="l5CkSKuVSwtnC61V9CCYGJD" fill="rgb(57,47,20)" style="transform: none;"><g><path id="pqiQ82X3W" d="M851 4208 l-1 -38 65 0 c63 0 65 1 65 25 0 24 -3 25 -59 25 -38 0 -61 4 -64 13 -3 6 -6 -5 -6 -25z"></path><path id="pyvOTzlVe" d="M2111 4214 c-1 -36 14 -44 92 -44 44 0 47 2 47 25 0 24 -2 25 -64 25 -42 0 -66 4 -69 13 -3 6 -6 -2 -6 -19z"></path><path id="p6xJ5izLg" d="M231 1887 c-12 -15 -13 -1277 0 -1277 3 0 9 -23 11 -52 3 -29 11 -54 17 -56 6 -2 11 -12 11 -23 0 -11 9 -27 20 -36 11 -10 20 -27 20 -38 1 -24 22 -55 39 -55 6 0 11 -8 11 -18 0 -23 60 -82 83 -82 9 0 17 -7 17 -16 0 -9 14 -21 30 -27 17 -6 30 -15 30 -19 0 -4 13 -8 30 -8 16 0 33 -7 37 -15 12 -21 155 -48 221 -41 31 4 52 2 52 -4 0 -6 336 -10 968 -10 1119 0 1081 -3 1259 82 43 21 143 109 175 156 46 65 56 85 91 177 l31 80 4 629 c3 578 2 630 -14 647 -16 18 -68 19 -1574 19 -1266 0 -1560 -3 -1569 -13z m1593 -158 c55 -15 138 -101 159 -163 21 -62 22 -195 2 -262 -19 -64 -73 -128 -139 -162 -45 -23 -63 -26 -146 -27 -110 0 -167 21 -228 86 -54 57 -71 108 -71 216 -1 175 67 280 209 320 49 14 151 11 214 -8z m-914 -178 l5 -184 99 149 c156 233 147 224 217 224 l59 0 0 -310 0 -310 -65 0 -65 0 0 174 c0 96 -4 177 -8 180 -8 5 -65 -72 -197 -267 l-59 -88 -61 3 -60 3 -3 295 c-1 162 0 301 3 308 3 9 23 12 67 10 l63 -3 5 -184z m1501 19 c58 -258 53 -255 104 -55 62 244 50 225 138 225 l74 0 42 -167 c23 -93 58 -228 76 -302 19 -74 32 -138 29 -143 -9 -14 -110 -9 -123 6 -6 8 -18 45 -26 83 -25 121 -74 336 -78 339 -1 2 -22 -74 -46 -169 -23 -95 -49 -187 -56 -204 -14 -32 -16 -33 -73 -33 -36 0 -63 5 -69 13 -6 6 -32 99 -58 205 -26 106 -50 191 -52 188 -4 -4 -53 -212 -79 -336 -9 -41 -20 -81 -26 -87 -12 -15 -124 -18 -133 -3 -3 5 8 65 26 132 54 211 121 463 126 471 3 4 41 6 86 5 l81 -3 37 -165z m-1451 -612 c2 -58 12 -205 15 -215 3 -8 36 -13 102 -15 l98 -3 3 -49 c2 -32 -1 -52 -10 -57 -7 -5 -54 -9 -104 -9 -66 0 -93 -4 -97 -13 -3 -7 -2 -40 2 -72 l6 -60 120 -5 120 -5 0 -55 0 -55 -189 -3 c-145 -2 -191 1 -198 10 -9 15 -11 602 -1 611 12 13 133 8 133 -5z m417 -43 c8 -27 20 -56 25 -62 7 -9 44 -13 118 -13 74 0 111 4 117 13 6 6 18 36 27 65 l18 52 69 0 c43 0 69 -4 69 -11 0 -12 -18 -65 -133 -384 l-83 -230 -80 -3 c-57 -2 -84 1 -91 10 -9 12 -33 78 -172 488 -22 63 -37 118 -34 123 2 4 34 7 70 5 l66 -3 14 -50z m693 -65 l5 -115 103 -3 102 -3 0 -54 c0 -64 1 -64 -125 -67 l-80 -3 0 -70 0 -70 120 -5 120 -5 3 -46 c2 -30 -2 -50 -11 -58 -10 -8 -67 -11 -193 -9 l-179 3 -3 300 c-1 165 0 306 3 313 3 9 23 12 67 10 l63 -3 5 -115z m500 0 l5 -115 100 -5 100 -5 3 -52 c4 -62 4 -61 -123 -65 l-80 -3 -3 -67 c-3 -80 -9 -77 143 -81 l100 -2 0 -55 0 -55 -190 0 -190 0 -3 300 c-1 165 0 306 3 313 3 9 23 12 67 10 l63 -3 5 -115z"></path><path id="pLJvamGaf" d="M1643 1619 c-92 -27 -132 -194 -74 -306 31 -62 64 -83 129 -83 110 0 158 60 156 195 -2 93 -20 144 -63 174 -35 25 -103 34 -148 20z"></path><path id="pZMaeqLTV" d="M1451 731 c-11 -7 -6 -30 24 -125 20 -64 40 -116 45 -116 12 0 83 227 75 240 -7 12 -124 13 -144 1z"></path></g></g><g id="l5mC09Ee12TAYMTYhdukVGT" fill="rgb(24,27,13)" style="transform: none;"><g><path id="pOOj1MjTo" d="M756 4591 c-4 -5 -30 -12 -59 -16 -28 -4 -69 -15 -90 -26 -21 -10 -46 -19 -57 -19 -10 0 -23 -6 -27 -13 -4 -7 -26 -24 -48 -37 -22 -13 -47 -31 -57 -39 -9 -9 -28 -25 -42 -36 -14 -11 -25 -25 -26 -31 0 -5 -8 -19 -17 -30 -34 -38 -63 -83 -63 -98 0 -8 -6 -21 -14 -28 -7 -8 -17 -29 -21 -46 -3 -18 -13 -45 -21 -61 -12 -24 -14 -279 -12 -1780 2 -1284 6 -1754 14 -1759 6 -4 15 -23 19 -42 4 -19 14 -44 21 -55 8 -11 14 -27 14 -37 0 -10 4 -18 9 -18 8 0 47 -56 60 -85 5 -11 89 -92 122 -117 13 -10 28 -18 35 -18 7 0 14 -6 17 -14 3 -7 22 -16 41 -20 20 -4 36 -11 36 -16 0 -7 86 -31 122 -34 3 -1 10 -4 14 -9 11 -10 2162 -9 2168 2 3 5 27 12 53 16 45 6 119 33 153 55 8 6 26 16 40 23 29 14 140 121 140 135 0 5 9 17 20 27 11 10 20 24 20 32 0 7 6 16 14 19 8 3 17 21 20 40 4 19 11 34 16 34 6 0 10 7 10 15 0 8 9 41 20 73 20 58 20 77 18 1788 -3 1623 -4 1731 -20 1759 -10 17 -18 40 -18 53 0 12 -4 22 -10 22 -5 0 -14 18 -20 40 -6 22 -14 40 -18 40 -4 0 -16 16 -27 36 -20 38 -131 154 -147 154 -5 0 -16 6 -23 13 -32 28 -43 35 -66 42 -13 4 -37 15 -54 25 -16 10 -56 21 -87 25 -32 3 -60 11 -63 16 -8 12 -2102 12 -2109 0z m2146 -76 c177 -38 312 -143 393 -309 67 -135 65 -104 63 -1233 l-3 -1018 -1545 0 -1545 0 -3 1010 c-3 1125 -3 1107 63 1243 59 119 176 229 295 277 107 43 110 43 1182 44 888 1 1037 -1 1100 -14z m442 -2664 c11 -13 13 -107 11 -601 -2 -322 -4 -592 -5 -600 -3 -27 -51 -162 -68 -194 -53 -96 -154 -200 -230 -236 -15 -7 -39 -19 -54 -27 -16 -8 -28 -11 -28 -7 0 3 -7 1 -15 -6 -8 -6 -19 -9 -24 -6 -5 4 -12 2 -16 -4 -4 -6 -11 -8 -16 -4 -6 3 -18 3 -27 -1 -9 -4 -28 -10 -42 -13 -48 -10 -1940 -9 -1940 1 0 6 -25 8 -65 5 -39 -4 -65 -2 -65 4 0 5 -13 7 -30 3 -16 -4 -30 -3 -30 2 0 4 -16 8 -36 9 -23 0 -40 7 -46 17 -5 10 -21 17 -39 17 -17 0 -28 4 -25 9 3 5 -8 11 -25 15 -19 4 -33 13 -36 26 -3 11 -13 20 -22 20 -16 0 -89 66 -83 76 7 12 0 24 -14 24 -8 0 -13 4 -10 9 3 5 -1 11 -9 15 -8 3 -12 12 -9 20 3 8 -3 23 -14 34 -11 11 -18 23 -14 26 3 3 0 6 -6 6 -6 0 -9 7 -6 15 4 8 -1 17 -9 21 -9 3 -13 12 -10 20 3 8 1 14 -3 14 -5 0 -9 17 -10 37 0 20 -5 38 -10 40 -11 4 -12 1203 -1 1220 5 9 393 11 1537 11 1395 -1 1531 -2 1544 -17z"></path><path id="p5VUw6rxm" d="M574 4276 c-84 -37 -120 -163 -72 -256 32 -62 91 -93 170 -88 32 3 60 7 63 10 3 3 1 17 -4 30 -8 22 -17 26 -66 30 -74 6 -97 28 -103 100 -4 47 -1 58 23 86 25 29 32 32 86 32 58 0 59 0 59 29 0 21 -6 30 -22 35 -38 10 -101 6 -134 -8z"></path><path id="p10QjkcqSm" d="M2290 4284 c-9 -3 -21 -18 -27 -34 -6 -17 -18 -30 -27 -30 -9 0 -16 -4 -16 -10 0 -12 -43 -14 -54 -2 -4 4 -12 8 -17 8 -5 1 -13 2 -18 3 -5 0 -14 15 -20 31 -8 26 -15 30 -45 30 l-35 0 14 -42 c7 -24 33 -99 57 -168 l43 -125 44 0 44 0 58 165 c62 179 61 191 -1 174z m-68 -149 c-1 -11 -10 -40 -19 -64 -14 -38 -17 -41 -26 -25 -17 29 -36 102 -29 109 3 3 22 5 42 3 29 -2 34 -7 32 -23z"></path><path id="pBNprPiio" d="M773 4263 c3 -10 29 -87 57 -170 l52 -153 43 0 43 0 43 128 c23 70 50 146 60 170 l19 43 -42 -3 c-36 -3 -43 -7 -48 -28 -4 -16 -14 -26 -28 -28 -12 -2 -22 -8 -22 -13 0 -14 -60 -11 -76 5 -8 8 -18 26 -24 40 -8 21 -16 26 -46 26 -30 0 -35 -3 -31 -17z m193 -129 c-10 -38 -40 -104 -48 -104 -3 0 -11 21 -17 48 -5 26 -13 55 -16 65 -6 15 -1 17 40 17 46 0 47 -1 41 -26z"></path><path id="pjjTcCFAN" d="M1163 4228 c-45 -113 -93 -252 -93 -270 0 -16 6 -19 37 -16 l37 3 34 123 c20 67 38 119 42 115 4 -4 15 -37 25 -73 49 -180 44 -170 87 -170 21 0 38 4 38 10 0 5 -26 82 -57 170 l-56 160 -37 0 c-35 0 -37 -3 -57 -52z"></path><path id="plc43b6HP" d="M1420 4110 l0 -170 105 0 c109 0 115 3 99 44 -5 12 -21 16 -70 16 l-64 0 0 35 0 35 60 0 c45 0 60 4 60 14 0 32 -13 46 -44 46 -63 0 -76 9 -76 51 l0 39 71 0 70 0 -3 28 -3 27 -102 3 -103 3 0 -171z"></path><path id="p1DSDJ6WXd" d="M1792 4113 l3 -168 35 0 35 0 3 132 3 131 64 7 c65 7 73 13 59 49 -5 13 -24 16 -105 16 l-99 0 2 -167z"></path><path id="pfMNsKUTB" d="M2418 4143 l-3 -138 -37 -3 c-35 -3 -38 -6 -38 -33 l0 -29 126 0 125 0 -3 28 c-3 24 -7 27 -45 30 l-43 3 0 140 0 139 -40 0 -39 0 -3 -137z"></path><path id="pYG9RhKmw" d="M2640 4110 l0 -170 106 0 c105 0 106 0 100 23 -3 12 -6 25 -6 29 0 4 -28 8 -62 10 -63 3 -63 3 -66 35 l-3 32 58 3 c55 3 58 5 61 30 3 26 2 27 -55 30 l-58 3 0 40 0 40 68 3 c67 3 67 3 67 32 l0 30 -105 0 -105 0 0 -170z"></path><path id="pXNB2q2pD" d="M2906 4258 c-9 -35 -7 -291 3 -307 6 -10 30 -12 96 -10 83 4 88 5 116 37 38 43 40 98 4 140 l-25 30 26 59 c15 32 28 61 31 66 2 4 -14 7 -35 7 -36 0 -41 -3 -51 -30 -16 -47 -50 -90 -72 -90 -17 0 -19 7 -19 60 l0 60 -34 0 c-26 0 -35 -5 -40 -22z m158 -180 c9 -12 16 -26 16 -30 0 -19 -43 -48 -70 -48 -29 0 -30 1 -30 50 l0 50 34 0 c25 0 39 -7 50 -22z"></path><path id="pORWWghX" d="M1515 3783 c-233 -30 -310 -71 -323 -171 -6 -46 -12 -54 -59 -92 -29 -23 -66 -63 -83 -89 -30 -46 -34 -48 -105 -64 -113 -24 -199 -71 -281 -152 -116 -114 -159 -224 -152 -384 10 -196 102 -334 268 -402 111 -45 253 -28 358 43 50 34 53 33 114 -49 21 -29 58 -64 81 -78 49 -28 206 -85 236 -85 39 0 46 -9 43 -53 -6 -75 65 -147 146 -147 42 0 104 32 125 64 10 15 17 46 17 75 0 47 2 51 28 56 130 28 197 52 266 95 31 20 52 43 63 68 8 20 39 63 69 94 62 68 135 167 160 221 10 20 21 37 25 37 18 0 161 -179 209 -262 76 -128 75 -128 269 -128 148 0 161 1 171 19 19 37 10 54 -69 130 -68 66 -83 87 -111 156 -18 44 -48 136 -66 205 -55 211 -93 300 -164 390 -74 94 -139 139 -253 175 -58 19 -92 37 -132 71 -48 42 -53 50 -57 95 -6 61 -33 92 -102 118 -101 37 -226 51 -450 50 -116 -1 -224 -4 -241 -6z m524 -79 c112 -16 187 -43 197 -69 11 -27 -2 -28 -69 -6 -85 29 -200 41 -384 41 -198 0 -391 -17 -459 -40 -51 -18 -74 -14 -58 11 12 20 88 47 164 58 41 6 86 13 100 15 76 11 412 5 509 -10z m-14 -115 c101 -12 205 -47 263 -89 109 -79 187 -250 199 -435 7 -118 -8 -192 -57 -291 -41 -80 -175 -256 -204 -267 -8 -3 -59 5 -112 19 -183 46 -524 43 -744 -6 l-85 -19 -41 44 c-143 148 -208 290 -221 475 -10 146 38 320 112 409 64 75 211 146 334 160 110 12 451 13 556 0z m511 -220 c127 -48 242 -214 299 -434 64 -243 113 -359 182 -429 23 -24 43 -47 43 -50 0 -9 -213 -7 -226 2 -6 4 -30 41 -53 82 -52 92 -108 165 -185 242 l-58 59 12 93 c10 72 11 112 2 183 -12 87 -52 227 -72 247 -10 10 -14 26 -5 26 2 0 30 -10 61 -21z m-1562 -116 c-8 -61 -13 -66 -73 -82 -102 -26 -186 -110 -221 -220 -26 -81 -25 -132 2 -211 44 -133 156 -199 285 -170 29 6 67 23 84 38 l31 26 29 -35 c16 -19 29 -37 29 -41 0 -3 -20 -18 -44 -32 -201 -118 -432 -24 -497 202 -48 167 -2 334 119 442 74 66 189 126 245 129 16 1 17 -5 11 -46z m-4 -370 c7 -32 25 -87 41 -122 28 -62 28 -65 12 -84 -64 -70 -192 -59 -246 21 -96 143 -31 341 129 397 l39 13 7 -83 c3 -46 12 -109 18 -142z m1090 -413 c95 -23 120 -31 120 -39 0 -15 -82 -58 -152 -79 -163 -51 -384 -49 -536 2 -75 26 -147 61 -157 75 -10 17 115 43 270 55 89 7 409 -3 455 -14z m-227 -241 c29 -47 -42 -114 -100 -93 -36 12 -58 52 -49 88 6 26 8 27 73 24 47 -2 69 -8 76 -19z"></path></g></g></svg>