<svg xmlns="http://www.w3.org/2000/svg" width="359" height="468" viewBox="0 0 3590 4680"><g id="l1OQGNq61DdSp7BA94Ae58v" fill="rgb(4,4,1)" style="transform: none;"><g><path id="pii5Bylis" d="M1620 4640 c-456 -28 -852 -192 -1124 -465 -224 -224 -327 -459 -356 -810 -12 -157 -13 -1486 0 -1710 15 -267 73 -502 173 -701 254 -506 740 -847 1301 -915 130 -16 380 -6 506 20 303 62 588 206 813 412 267 244 456 590 517 945 20 114 21 157 21 1039 1 627 -3 948 -10 1007 -35 266 -162 523 -355 713 -234 231 -520 372 -882 435 -169 29 -412 41 -604 30z m512 -3452 l-2 -693 -22 -20 -22 -20 17 21 c16 19 17 73 17 696 0 573 3 708 14 708 0 0 0 -312 -2 -692z"></path></g></g><g id="l3n1YY2v13VA43pnGXjdWkG" fill="rgb(26,26,12)" style="transform: none;"><g><path id="pXveoMJn3" d="M1730 4643 c-128 -5 -317 -25 -414 -44 -320 -64 -613 -216 -820 -424 -146 -146 -227 -275 -287 -457 -54 -165 -60 -215 -69 -513 -10 -355 -4 -1588 9 -1675 48 -335 120 -532 279 -771 218 -326 582 -582 960 -678 76 -20 93 -23 247 -41 227 -28 566 15 750 95 17 7 55 22 86 34 77 30 215 109 310 177 310 223 545 567 639 932 48 191 50 239 51 1190 1 964 -1 998 -52 1180 -38 134 -74 211 -152 330 -111 167 -240 290 -432 409 -203 127 -373 182 -725 238 -59 10 -297 21 -380 18z m-430 -991 c30 -2 59 -7 66 -12 8 -8 9 -98 0 -107 -4 -5 -348 -11 -365 -6 -20 5 -29 43 -23 96 3 26 5 27 63 27 33 0 59 -4 59 -10 0 -5 -25 -10 -55 -10 l-55 0 0 -45 0 -45 185 0 185 0 0 44 0 43 -54 -1 c-30 0 -58 3 -62 7 -4 4 -10 35 -12 70 -3 34 -10 65 -16 69 -8 6 -7 8 2 8 8 0 13 19 14 58 1 31 4 3 8 -63 l5 -120 55 -3z m-1021 -234 c-4 -29 -6 -219 -5 -423 l1 -370 55 -6 c30 -3 45 -6 33 -7 -13 -1 -23 -8 -24 -14 0 -10 -2 -10 -6 0 -2 6 -15 12 -28 12 -12 0 -27 6 -34 13 -12 15 -21 767 -8 767 4 0 7 18 7 40 0 22 4 40 8 40 5 0 5 -24 1 -52z m5 -929 c-4 -6 -7 -219 -8 -473 0 -253 -3 -420 -6 -371 -8 134 -5 828 4 843 4 6 9 12 12 12 3 0 2 -5 -2 -11z m1848 -1301 l-2 -693 -22 -20 -22 -20 17 21 c16 19 17 73 17 696 0 573 3 708 14 708 0 0 0 -312 -2 -692z"></path></g></g><g id="l5fkbYTYki6eX9JXU7X6VNB" fill="rgb(48,47,26)" style="transform: none;"><g><path id="pBYLi5wXi" d="M1598 4490 c-132 -10 -343 -52 -463 -92 -87 -29 -305 -130 -328 -152 -7 -6 -32 -24 -57 -41 -25 -16 -82 -66 -128 -110 -190 -181 -262 -308 -323 -570 -20 -84 -21 -118 -21 -490 0 -220 1 -403 1 -408 1 -4 686 -6 1524 -5 l1522 3 3 395 c3 428 -1 486 -47 623 -78 231 -201 394 -418 558 -194 147 -445 241 -738 278 -111 14 -398 20 -527 11z m-356 -602 l3 -233 55 -3 c30 -2 59 -7 64 -12 12 -12 16 -47 10 -86 l-4 -30 -194 -2 c-219 -1 -205 -7 -202 83 l1 40 68 3 67 3 0 228 c0 125 3 231 7 234 3 4 33 7 64 7 l59 0 2 -232z m355 192 c1 -19 2 -63 2 -97 1 -58 3 -63 24 -63 17 0 30 16 61 73 71 130 67 128 147 126 38 -1 71 -4 73 -8 2 -3 -23 -52 -55 -109 l-60 -103 31 -25 c47 -40 61 -76 61 -155 0 -60 -4 -77 -25 -110 -14 -21 -45 -49 -69 -61 -37 -19 -58 -22 -182 -22 l-140 -1 -2 273 c-2 207 1 272 10 272 8 0 7 3 -2 9 -8 5 -11 16 -8 25 6 14 19 16 69 14 l63 -3 2 -35z m523 -12 c1 -77 1 -370 0 -465 l0 -83 -49 0 c-87 0 -81 -25 -81 306 l0 294 65 0 65 0 0 -52z m252 -40 l3 -92 35 -1 c19 -1 51 -3 70 -3 52 -3 116 -48 142 -100 37 -78 22 -189 -35 -251 -37 -40 -80 -51 -212 -56 -115 -5 -125 -4 -134 14 -11 19 -15 557 -5 573 3 4 34 8 69 8 l64 0 3 -92z m-63 -670 c53 -27 86 -70 95 -128 14 -90 -32 -160 -130 -195 -27 -9 -65 -23 -84 -30 -49 -18 -64 -60 -31 -86 30 -24 77 -24 124 0 63 32 64 32 92 -12 l28 -41 -29 -23 c-74 -59 -185 -77 -264 -42 -92 41 -133 136 -96 222 19 47 43 64 136 98 46 16 91 34 101 39 45 25 26 93 -31 105 -34 8 -133 -19 -151 -41 -17 -21 -33 -17 -56 15 -35 46 -32 61 14 94 84 60 193 69 282 25z m-1374 -83 l0 -100 90 -5 90 -5 3 -57 3 -57 -93 -3 -93 -3 0 -58 c0 -33 4 -61 8 -64 5 -3 54 -6 110 -6 l102 -2 3 -63 3 -62 -178 2 -178 3 -3 293 -2 293 67 -3 68 -3 0 -100z m443 -187 l-3 -293 -65 0 -65 0 -3 293 -2 292 70 0 70 0 -2 -292z m240 189 l3 -98 25 3 c22 2 35 20 77 101 l51 97 78 0 c48 0 78 -4 78 -11 0 -5 -25 -52 -55 -104 -30 -51 -55 -96 -55 -100 0 -3 14 -18 31 -33 18 -14 38 -41 45 -59 19 -46 17 -130 -5 -178 -39 -85 -87 -104 -268 -105 l-133 0 0 295 0 296 63 -3 62 -3 3 -98z m1122 -126 c0 -257 -7 -238 82 -237 51 1 56 -7 54 -84 l-1 -35 -202 -3 -203 -2 0 65 0 66 58 -3 c31 -1 62 1 69 5 9 6 12 63 12 215 -1 114 -1 215 0 225 1 14 11 17 66 17 l65 0 0 -229z"></path><path id="pbKLxiPRB" d="M1632 3802 l-33 -3 3 -77 3 -76 55 2 c41 2 59 8 73 24 23 27 22 69 -3 100 -21 27 -46 35 -98 30z"></path><path id="p6KfN7hqN" d="M2368 3753 c-5 -111 -4 -113 52 -113 41 0 52 4 70 28 18 21 21 36 17 72 -6 56 -34 80 -92 80 l-43 0 -4 -67z"></path><path id="payP0FcYY" d="M570 2509 c-19 -4 -92 -6 -161 -4 -69 2 -132 -1 -140 -6 -8 -5 -9 -9 -3 -9 9 0 12 -121 12 -447 0 -449 5 -545 38 -681 8 -35 13 -71 9 -80 -3 -9 -3 -13 1 -9 4 4 20 -31 36 -78 15 -46 43 -119 63 -161 38 -83 42 -100 23 -106 -7 -3 -2 -7 10 -10 15 -4 20 -2 16 5 -3 7 2 3 10 -8 9 -11 14 -25 12 -32 -3 -7 0 -12 7 -10 7 1 11 -6 10 -16 0 -10 1 -16 5 -13 3 3 15 -8 28 -26 18 -24 21 -35 13 -50 -9 -16 -7 -19 8 -17 29 5 45 -9 33 -31 -7 -14 -5 -19 9 -23 15 -4 18 -1 14 12 -4 9 3 5 14 -9 16 -18 19 -30 12 -42 -8 -15 -6 -18 11 -18 12 0 18 -4 15 -10 -3 -5 1 -10 10 -10 11 0 15 -5 11 -15 -3 -10 1 -15 13 -15 11 0 21 5 23 12 3 8 7 6 11 -5 3 -9 3 -16 -1 -16 -4 1 -14 1 -22 0 -12 -1 -11 -5 4 -16 28 -21 50 -19 42 2 -4 10 7 2 23 -17 17 -19 29 -43 27 -52 -3 -11 2 -18 11 -18 10 0 13 6 9 16 -4 10 7 5 26 -12 18 -15 32 -31 30 -36 -1 -5 2 -7 8 -3 5 3 10 1 10 -4 0 -6 3 -10 8 -10 19 3 22 -3 11 -22 -10 -20 -9 -21 24 -17 20 2 33 0 31 -4 -3 -4 4 -8 16 -8 28 0 15 -20 -13 -21 -17 -1 -18 -2 -5 -6 10 -2 25 0 35 5 20 12 78 -13 68 -28 -3 -6 1 -7 11 -3 14 5 15 3 5 -15 -11 -20 -9 -22 13 -22 13 0 26 5 28 11 2 5 11 7 21 4 9 -4 14 -12 10 -18 -4 -6 0 -8 10 -4 10 3 17 2 17 -3 0 -5 7 -6 17 -3 11 5 14 3 8 -6 -6 -10 -2 -11 15 -6 16 5 20 4 15 -5 -5 -9 -1 -10 15 -5 13 4 20 3 17 -2 -9 -15 6 -31 37 -39 25 -6 28 -4 23 10 -9 22 -2 20 28 -10 26 -26 64 -27 49 -2 -6 10 -3 9 9 0 9 -8 21 -11 27 -7 6 3 10 -3 10 -17 0 -13 4 -18 8 -12 4 6 16 14 27 18 11 4 16 4 13 0 -4 -3 -1 -13 7 -20 15 -15 45 -19 45 -6 0 4 11 9 25 10 18 1 23 -2 19 -13 -5 -11 1 -15 20 -15 14 0 26 4 26 8 0 4 23 8 50 8 35 0 50 -4 50 -13 0 -19 109 -18 116 1 5 14 58 15 71 2 10 -10 42 -7 63 6 17 11 22 10 29 0 7 -11 11 -11 23 1 23 23 69 35 156 40 32 1 41 5 37 16 -5 12 -2 11 12 -1 17 -16 20 -15 41 7 14 15 29 22 39 18 11 -4 14 -2 9 5 -8 13 11 16 72 14 26 -1 32 3 32 19 0 11 5 17 10 14 6 -3 13 1 16 9 4 10 15 14 29 12 13 -3 25 0 27 5 2 5 17 12 33 15 33 5 58 31 48 47 -4 6 0 8 10 4 10 -3 17 -3 17 2 0 9 38 24 53 22 5 -1 11 8 14 19 3 11 11 20 18 20 7 0 15 7 19 15 3 8 10 15 16 15 5 0 25 17 45 38 24 26 35 32 35 20 0 -9 5 -20 12 -24 7 -4 8 -3 4 5 -4 6 -4 21 -1 32 6 17 9 19 16 8 6 -10 10 -9 15 6 4 11 17 30 28 42 33 34 46 51 46 62 0 6 7 8 15 5 11 -4 15 1 15 17 0 17 3 20 9 11 8 -13 9 -12 25 38 5 16 24 42 29 41 20 -3 27 0 27 12 0 7 16 36 35 64 19 29 35 57 35 62 0 5 4 11 9 13 5 2 11 12 13 23 1 11 8 25 13 32 6 7 16 19 23 28 8 9 11 23 8 31 -3 7 -1 14 5 14 6 0 7 5 4 10 -10 16 6 34 17 19 6 -9 8 -2 5 23 -3 21 -1 36 3 33 9 -6 35 81 32 108 -1 9 2 17 7 17 6 0 10 8 9 18 0 9 7 38 16 65 8 26 12 47 9 47 -3 0 -1 6 6 13 6 8 11 29 11 48 1 59 5 89 10 89 3 0 3 57 0 127 -3 71 -5 173 -4 228 0 55 1 209 2 343 2 235 3 242 22 242 11 0 20 3 20 8 0 11 88 10 -1455 11 -1010 1 -1104 1 -1210 -3 -27 -1 -68 1 -90 4 -22 3 -56 3 -75 -1z m828 -171 c17 -2 33 4 43 16 14 17 16 17 32 1 12 -12 17 -13 17 -3 0 11 2 11 9 0 10 -17 261 -18 271 -1 5 7 9 7 12 -3 4 -10 29 -13 102 -11 61 2 95 -1 91 -7 -3 -6 -2 -10 4 -10 5 0 13 5 16 10 3 6 22 10 41 10 20 0 34 5 35 13 0 10 2 10 6 0 2 -7 20 -13 39 -13 20 0 34 5 35 13 0 10 2 10 6 0 7 -18 33 -16 40 3 6 15 8 15 20 -2 13 -17 14 -17 28 2 13 17 14 17 15 2 0 -20 20 -25 20 -5 0 8 4 7 10 -3 8 -12 12 -13 19 -2 4 7 20 15 34 16 23 3 25 1 16 -15 -7 -15 -6 -19 6 -19 8 0 15 5 15 11 0 5 5 7 10 4 6 -4 10 -86 10 -213 0 -176 -3 -211 -16 -231 -13 -18 -18 -20 -25 -10 -7 10 -11 11 -16 2 -11 -16 -165 -11 -171 6 -3 8 -12 2 -23 -16 -18 -27 -19 -60 -19 -709 0 -668 0 -681 -20 -699 -11 -10 -20 -15 -20 -12 0 4 -12 2 -26 -3 -14 -6 -23 -7 -20 -2 6 11 -17 38 -33 37 -18 0 -27 -25 -9 -26 7 -1 16 -1 21 0 4 0 7 -4 7 -10 0 -6 -7 -9 -15 -5 -32 12 -187 18 -181 7 4 -7 -1 -11 -14 -11 -12 0 -18 4 -15 10 7 11 -28 14 -38 3 -11 -10 -87 -13 -87 -3 0 6 -5 10 -11 10 -5 0 -7 -5 -4 -10 11 -18 -7 -10 -26 11 -10 11 -30 22 -45 24 -14 1 -29 7 -33 12 -9 13 -103 70 -128 78 -13 3 -23 11 -23 16 0 5 -4 9 -10 9 -9 0 -72 39 -97 60 -7 5 -16 10 -21 10 -18 0 -62 26 -62 36 0 6 -7 17 -15 24 -13 11 -16 41 -16 165 0 11 3 36 6 55 3 19 2 30 -2 23 -4 -6 -8 18 -8 53 0 35 4 64 9 64 5 0 6 23 3 50 -4 31 -2 48 3 45 6 -4 10 1 10 9 0 9 5 16 10 16 6 0 10 -4 10 -9 0 -14 38 -20 69 -11 34 9 54 0 41 -20 -6 -10 -2 -17 13 -25 25 -14 61 -1 51 18 -5 9 -3 8 7 -1 7 -6 21 -12 31 -12 10 0 18 -5 18 -11 0 -5 4 -8 9 -4 6 3 9 127 7 310 -2 167 1 310 5 317 4 7 3 18 -2 25 -7 8 -7 18 0 31 5 10 8 27 5 38 -5 17 -15 19 -127 19 -147 0 -152 3 -164 95 -11 85 -6 120 15 121 15 1 15 2 1 6 -13 3 -17 18 -18 73 0 38 3 72 9 75 5 3 6 15 1 28 -6 15 -4 31 5 47 7 14 13 19 14 11 0 -9 8 -11 25 -7 17 4 25 2 25 -6 0 -7 5 -5 11 5 6 11 17 16 28 12 9 -3 26 1 37 9 16 12 20 12 22 1 2 -8 15 -15 30 -17z"></path><path id="p1Cx39dAh5" d="M1310 2250 c-7 -4 -10 -48 -8 -131 l3 -124 105 -6 c117 -6 132 -10 154 -44 14 -21 16 -80 16 -442 0 -453 -1 -457 -55 -479 -26 -10 -38 -9 -93 14 -57 23 -62 28 -46 39 10 7 13 13 8 13 -6 0 -15 -5 -21 -11 -8 -8 -20 -9 -42 -1 -17 6 -33 7 -36 2 -6 -10 -4 -231 3 -278 5 -34 23 -47 219 -148 48 -25 105 -54 126 -65 33 -17 55 -19 195 -17 l157 3 5 670 c4 517 8 675 18 692 20 36 51 47 152 53 l95 5 3 128 3 127 -28 1 c-122 5 -924 5 -933 -1z"></path></g></g><g id="l5WOOg4rpeg8kvMEzgrImnR" fill="rgb(84,76,42)" style="transform: none;"><g></g></g><g id="l1ve85Jire4nRLKhR3h1IXK" fill="rgb(110,97,53)" style="transform: none;"><g><path id="pzuLsBSdQ" d="M330 2502 c-19 -2 -39 -7 -44 -12 -14 -13 -11 -869 3 -980 25 -187 90 -396 172 -548 21 -41 36 -78 33 -83 -3 -5 0 -8 8 -7 7 2 12 -5 12 -14 -1 -10 2 -15 7 -12 5 3 9 1 9 -3 0 -5 13 -23 29 -41 17 -17 27 -32 24 -32 -4 0 6 -13 21 -29 17 -18 25 -34 21 -42 -5 -7 -4 -10 2 -6 6 4 58 -40 116 -98 59 -57 118 -112 132 -121 13 -9 22 -21 18 -27 -3 -6 -1 -7 5 -3 7 4 12 2 12 -3 0 -6 3 -10 8 -9 14 4 53 -23 47 -33 -4 -5 7 -12 24 -15 17 -4 28 -10 25 -15 -5 -8 10 -13 29 -10 12 2 67 -32 67 -42 0 -4 3 -6 8 -3 12 7 113 -39 105 -48 -5 -5 2 -5 14 -2 13 4 23 4 23 -1 0 -4 12 -9 26 -10 15 0 29 -5 33 -10 3 -4 20 -9 36 -11 17 -2 31 -7 33 -12 2 -4 12 -5 24 -2 14 3 19 1 14 -6 -4 -7 2 -9 19 -6 14 2 25 0 25 -4 0 -5 12 -7 26 -4 21 4 25 2 19 -8 -6 -10 -4 -12 7 -8 9 4 46 2 84 -3 97 -14 408 -10 479 6 17 4 41 8 55 10 29 4 48 9 72 19 9 4 21 5 27 2 5 -3 11 -2 13 3 1 6 14 12 28 14 14 2 38 9 53 15 16 7 34 12 40 12 7 0 52 20 101 45 135 69 168 87 207 117 20 16 44 28 52 28 8 0 17 7 21 15 3 8 10 15 16 15 6 0 24 16 41 35 17 19 37 35 44 35 8 0 16 8 20 19 3 10 25 36 48 57 23 22 49 48 57 60 8 11 25 26 37 33 13 6 22 15 20 19 -3 11 105 172 115 172 5 0 7 4 3 9 -6 11 29 74 37 66 2 -3 10 6 16 21 9 18 9 23 1 18 -6 -3 -4 4 4 17 8 13 22 48 32 77 9 28 21 52 26 52 6 0 9 6 7 13 -1 6 3 22 10 34 7 12 9 29 6 37 -3 9 -1 16 4 16 6 0 11 8 11 18 0 15 6 47 11 62 1 3 2 8 1 13 -1 4 4 26 9 50 19 74 20 94 26 595 l5 492 -63 2 c-107 3 -2931 3 -2968 0z m2050 -150 c19 -15 20 -30 20 -222 0 -165 -3 -210 -15 -227 -13 -19 -24 -21 -126 -20 -85 0 -113 -3 -120 -14 -5 -8 -9 -314 -9 -696 l0 -682 -26 -20 c-25 -19 -38 -20 -238 -19 -116 1 -213 4 -216 8 -5 8 -100 53 -113 54 -5 1 -14 8 -20 16 -7 8 -33 26 -59 39 -27 13 -48 28 -48 32 0 4 -14 10 -31 14 -17 4 -33 13 -36 21 -3 8 -23 19 -45 26 -22 6 -42 18 -45 25 -3 7 -11 13 -19 13 -7 0 -21 15 -30 33 -14 27 -17 61 -17 207 1 250 2 262 13 255 6 -3 10 1 10 9 0 9 6 16 14 16 8 0 16 5 18 11 2 7 12 7 30 -2 15 -6 25 -17 21 -22 -4 -6 0 -8 11 -4 15 6 40 -2 114 -36 17 -8 28 -8 40 0 15 9 17 42 16 357 -1 191 -3 349 -6 352 -3 2 -56 6 -119 7 -125 2 -143 9 -154 62 -3 17 -5 109 -5 205 0 165 2 175 22 197 l22 23 563 0 c514 -1 565 -2 583 -18z"></path></g></g><g id="l2wWvY0vQAvklDhEi5s2Zqb" fill="rgb(155,96,32)" style="transform: none;"><g><path id="ppB6CJfem" d="M1309 2250 c-6 -4 -9 -57 -7 -131 l3 -124 105 -5 c107 -5 142 -16 160 -50 6 -12 10 -173 10 -442 0 -462 1 -455 -57 -476 -23 -7 -45 -2 -123 29 l-95 38 -7 -32 c-4 -18 -6 -88 -3 -156 4 -100 9 -126 22 -136 9 -7 94 -54 190 -104 l173 -92 157 3 158 3 5 676 c5 723 3 693 54 722 12 6 64 14 116 17 l95 5 3 128 3 127 -28 0 c-442 5 -926 4 -934 0z"></path></g></g><g id="l7DKY4LAzVxruugjMUagTbL" fill="rgb(127,122,64)" style="transform: none;"><g><path id="pOcCojtdt" d="M330 2502 c-19 -2 -39 -7 -44 -12 -14 -13 -11 -869 3 -980 25 -187 90 -396 172 -548 21 -41 36 -78 33 -83 -3 -5 0 -8 8 -7 7 2 12 -5 12 -14 -1 -10 2 -15 7 -12 5 3 9 1 9 -3 0 -5 13 -23 29 -41 17 -17 27 -32 24 -32 -4 0 6 -13 21 -29 17 -18 25 -34 21 -42 -5 -7 -4 -10 2 -6 6 4 58 -40 116 -98 59 -57 118 -112 132 -121 13 -9 22 -21 18 -27 -3 -6 -1 -7 5 -3 7 4 12 2 12 -3 0 -6 3 -10 8 -9 14 4 53 -23 47 -33 -4 -5 7 -12 24 -15 17 -4 28 -10 25 -15 -5 -8 10 -13 29 -10 12 2 67 -32 67 -42 0 -4 3 -6 8 -3 12 7 113 -39 105 -48 -5 -5 2 -5 14 -2 13 4 23 4 23 -1 0 -4 12 -9 26 -10 15 0 29 -5 33 -10 3 -4 20 -9 36 -11 17 -2 31 -7 33 -12 2 -4 12 -5 24 -2 14 3 19 1 14 -6 -4 -7 2 -9 19 -6 14 2 25 0 25 -4 0 -5 12 -7 26 -4 21 4 25 2 19 -8 -6 -10 -4 -12 7 -8 9 4 46 2 84 -3 97 -14 408 -10 479 6 17 4 41 8 55 10 29 4 48 9 72 19 9 4 21 5 27 2 5 -3 11 -2 13 3 1 6 14 12 28 14 14 2 38 9 53 15 16 7 34 12 40 12 7 0 52 20 101 45 135 69 168 87 207 117 20 16 44 28 52 28 8 0 17 7 21 15 3 8 10 15 16 15 6 0 24 16 41 35 17 19 37 35 44 35 8 0 16 8 20 19 3 10 25 36 48 57 23 22 49 48 57 60 8 11 25 26 37 33 13 6 22 15 20 19 -3 11 105 172 115 172 5 0 7 4 3 9 -6 11 29 74 37 66 2 -3 10 6 16 21 9 18 9 23 1 18 -6 -3 -4 4 4 17 8 13 22 48 32 77 9 28 21 52 26 52 6 0 9 6 7 13 -1 6 3 22 10 34 7 12 9 29 6 37 -3 9 -1 16 4 16 6 0 11 8 11 18 0 15 6 47 11 62 1 3 2 8 1 13 -1 4 4 26 9 50 19 74 20 94 26 595 l5 492 -63 2 c-107 3 -2931 3 -2968 0z m2050 -150 c19 -15 20 -30 20 -222 0 -165 -3 -210 -15 -227 -13 -19 -24 -21 -126 -20 -85 0 -113 -3 -120 -14 -5 -8 -9 -314 -9 -696 l0 -682 -26 -20 c-25 -19 -38 -20 -238 -19 -116 1 -213 4 -216 8 -5 8 -100 53 -113 54 -5 1 -14 8 -20 16 -7 8 -33 26 -59 39 -27 13 -48 28 -48 33 0 4 -4 8 -9 8 -5 0 -22 5 -38 11 -15 7 -38 12 -50 13 -19 1 -62 41 -63 59 0 4 -7 7 -15 7 -8 0 -22 15 -31 33 -14 27 -17 61 -17 207 1 250 2 262 13 255 6 -3 10 1 10 9 0 9 6 16 14 16 8 0 16 5 18 11 2 7 12 7 30 -2 15 -6 25 -17 21 -22 -4 -6 0 -8 11 -4 15 6 40 -2 114 -36 17 -8 28 -8 40 0 15 9 17 42 16 357 -1 191 -3 349 -6 352 -3 2 -56 6 -119 7 -125 2 -143 9 -154 62 -3 17 -5 109 -5 205 0 165 2 175 22 197 l22 23 563 0 c514 -1 565 -2 583 -18z"></path></g></g><g id="l1ICryjLuT4RqaHfjdCxwY4" fill="rgb(175,117,43)" style="transform: none;"><g><path id="p4Ii5V9v5" d="M1309 2249 c-6 -3 -8 -60 -7 -130 l3 -124 105 -5 c107 -5 142 -16 160 -50 6 -12 10 -173 10 -442 0 -462 1 -455 -57 -476 -23 -7 -45 -2 -123 29 l-95 38 -7 -32 c-4 -18 -6 -88 -3 -156 4 -100 9 -126 22 -136 9 -7 94 -54 190 -104 l173 -92 157 3 158 3 5 676 c5 723 3 693 54 722 12 6 64 14 116 17 l95 5 3 128 3 127 -28 0 c-284 4 -927 4 -934 -1z"></path></g></g><g id="l6tcxqzT1AUNzKL6LPy8WFO" fill="rgb(196,138,55)" style="transform: none;"><g><path id="p1C9w0gTZV" d="M1302 2123 l3 -128 70 -2 c39 0 86 -2 106 -2 26 -1 46 -10 68 -30 l31 -29 0 -430 0 -431 -23 -26 c-17 -21 -32 -27 -62 -27 -25 0 -34 -3 -24 -8 23 -13 65 0 93 29 l26 27 0 433 1 434 -28 29 c-15 16 -38 31 -50 34 -13 4 -21 10 -18 14 3 5 0 12 -6 16 -8 4 -9 3 -5 -4 5 -9 -17 -12 -83 -12 l-91 0 0 115 0 114 118 4 117 3 -123 2 -123 2 3 -127z"></path><path id="p19N5u7jwb" d="M1908 2243 l352 -3 0 -115 c0 -85 -3 -115 -12 -117 -7 0 -38 -2 -68 -3 -30 -1 -68 -3 -84 -4 -19 -1 -42 -14 -67 -40 l-39 -39 0 -115 c0 -83 -4 -117 -12 -120 -10 -4 -10 -6 0 -6 9 -1 12 -117 12 -546 l0 -545 -132 0 c-73 0 -140 -5 -148 -10 -10 -7 34 -9 135 -8 l150 3 5 677 5 678 28 27 c26 26 34 28 130 33 l102 5 0 125 0 125 -355 0 -355 0 353 -2z"></path></g></g><g id="l1Ulmil3sIPkmAbvwEp6vyC" fill="rgb(172,146,91)" style="transform: none;"><g></g></g><g id="l4nEvOt15ZHAthzCNnYfCWo" fill="rgb(196,168,107)" style="transform: none;"><g><path id="p1NMKINWF" d="M1598 4489 c-59 -4 -167 -19 -240 -34 -314 -63 -547 -178 -741 -365 -183 -175 -266 -323 -318 -565 -17 -80 -19 -134 -19 -498 l0 -407 1523 2 1522 3 3 390 c3 418 -1 480 -45 620 -70 221 -204 405 -411 560 -180 135 -401 228 -644 269 -94 17 -403 38 -477 34 -25 -1 -94 -6 -153 -9z m-356 -601 l3 -233 60 -3 c66 -3 75 -11 75 -64 0 -71 9 -68 -206 -68 l-194 0 -6 23 c-3 13 -4 41 -2 63 l3 39 68 3 67 3 0 228 c0 125 3 231 7 234 3 4 33 7 64 7 l59 0 2 -232z m356 130 c3 -94 4 -98 25 -98 17 0 31 16 61 73 70 129 67 127 146 127 38 0 71 -3 73 -8 3 -4 -22 -53 -54 -110 l-60 -103 31 -26 c47 -39 64 -79 63 -153 0 -93 -25 -135 -103 -176 -29 -15 -59 -18 -175 -19 l-140 0 -3 285 c-1 157 0 291 3 298 3 9 23 12 67 10 l63 -3 3 -97z m522 50 c1 -94 1 -472 1 -511 l-1 -38 -62 3 -63 3 -3 298 -2 297 65 0 65 0 0 -52z m252 -39 l3 -90 69 -5 c131 -8 199 -79 198 -204 0 -97 -52 -170 -136 -195 -62 -19 -247 -20 -264 -3 -9 9 -12 88 -12 293 0 155 3 285 7 288 3 4 35 7 69 7 l63 0 3 -91z m-60 -671 c98 -54 128 -179 61 -258 -30 -36 -64 -55 -153 -85 -53 -18 -67 -27 -75 -49 -8 -24 -6 -31 14 -47 37 -30 82 -23 182 27 4 2 19 -15 34 -38 l28 -42 -29 -23 c-46 -37 -92 -55 -154 -60 -135 -13 -239 90 -216 211 12 61 47 91 148 127 126 45 149 71 109 120 -28 34 -102 32 -164 -4 -25 -15 -50 -27 -55 -27 -5 0 -22 18 -37 40 -31 45 -28 54 32 91 87 54 196 61 275 17z m-1376 -83 l1 -100 89 -5 89 -5 3 -57 3 -57 -93 -3 -93 -3 1 -60 1 -60 111 -3 112 -3 0 -65 0 -64 -177 2 -178 3 -3 293 -2 293 67 -3 68 -3 1 -100z m442 -187 l-3 -293 -65 0 -65 0 -3 293 -2 292 70 0 70 0 -2 -292z m242 192 c0 -98 0 -100 23 -100 24 0 35 16 100 142 l30 58 79 0 c48 0 78 -4 78 -11 0 -5 -25 -52 -55 -104 -30 -51 -55 -96 -55 -100 0 -3 14 -18 31 -33 41 -34 59 -78 59 -145 0 -67 -20 -117 -60 -150 -44 -38 -89 -47 -232 -47 l-128 0 0 295 0 295 65 0 65 0 0 -100z m1120 -130 l0 -230 64 0 c61 0 64 -1 68 -27 3 -16 5 -44 4 -63 l-1 -35 -202 -3 -203 -2 0 65 0 65 64 0 c53 0 66 3 70 18 3 9 5 105 5 212 -1 107 -1 203 0 213 1 14 11 17 66 17 l65 0 0 -230z"></path><path id="p6CBcGswI" d="M1600 3725 l0 -75 59 0 c51 0 62 3 75 22 22 31 20 70 -5 102 -18 22 -28 26 -75 26 l-54 0 0 -75z"></path></g></g><g id="l1knv6uESRQAXXpbbNhyXzc" fill="rgb(241,177,67)" style="transform: none;"><g><path id="pQjAJ6JNZ" d="M1995 1130 c0 -305 1 -430 2 -277 2 152 2 402 0 555 -1 152 -2 27 -2 -278z"></path></g></g><g id="l2wfhPyUPyk6FlmWnBmD7qf" fill="rgb(208,182,119)" style="transform: none;"><g><path id="p1F43eXdhP" d="M1605 4489 c-112 -8 -138 -12 -280 -41 -138 -28 -261 -70 -390 -135 -129 -64 -136 -69 -128 -91 4 -13 3 -14 -5 -3 -11 16 -15 14 -92 -45 -68 -51 -204 -192 -248 -257 -47 -68 -109 -192 -128 -256 -49 -164 -52 -195 -53 -628 l-1 -413 1522 3 1523 2 3 390 c3 415 -2 483 -43 612 -72 221 -184 381 -375 539 -51 42 -156 114 -165 114 -4 0 -19 9 -34 19 -65 46 -309 133 -437 156 -202 35 -470 49 -669 34z m-364 -511 c0 -79 2 -183 2 -233 l2 -90 60 -3 c66 -3 75 -11 75 -64 0 -71 9 -68 -206 -68 l-194 0 -6 23 c-3 13 -4 41 -2 63 l3 39 65 3 66 3 1 225 c1 123 5 229 8 234 3 6 33 10 66 10 l59 0 1 -142z m357 40 c3 -94 4 -98 25 -98 17 0 31 16 61 73 70 129 67 127 146 127 38 0 71 -3 73 -8 3 -4 -21 -52 -53 -107 l-58 -100 39 -42 c45 -49 62 -104 53 -173 -9 -65 -38 -108 -94 -140 -42 -23 -54 -25 -185 -25 l-140 0 -3 285 c-1 157 0 291 3 298 3 9 23 12 67 10 l63 -3 3 -97z m523 45 c1 -50 1 -413 -1 -511 l0 -33 -62 3 -63 3 -3 298 -2 297 65 0 65 0 1 -57z m251 -34 l3 -90 67 -3 c46 -2 78 -10 103 -25 20 -12 41 -19 46 -15 5 3 8 2 7 -3 -1 -4 8 -30 21 -57 60 -122 6 -266 -113 -301 -62 -19 -247 -20 -264 -3 -9 9 -12 88 -12 293 0 155 3 285 7 288 3 4 35 7 69 7 l63 0 3 -91z m-1029 -648 l37 -1 -2 -292 -3 -293 -65 0 -65 0 -3 285 c-1 157 0 290 2 296 2 6 17 10 33 8 15 -1 45 -2 66 -3z m968 -22 c99 -55 129 -180 62 -259 -29 -35 -72 -59 -153 -85 -79 -26 -98 -57 -60 -95 21 -21 68 -26 98 -11 9 5 31 15 47 22 17 7 33 14 36 16 4 1 19 -16 35 -38 l28 -41 -29 -24 c-140 -112 -341 -66 -371 84 -9 46 3 97 32 131 13 16 21 31 17 33 -5 3 -3 3 4 2 20 -5 180 57 203 78 22 21 20 50 -6 78 -24 25 -104 18 -157 -13 -25 -15 -50 -27 -55 -27 -5 0 -22 18 -37 40 -31 45 -28 54 32 92 90 55 194 61 274 17z m427 -208 l2 -231 64 0 c61 0 64 -1 68 -27 3 -16 5 -44 4 -63 l-1 -35 -202 -3 -203 -2 0 65 0 65 64 0 c53 0 66 3 69 18 3 9 4 109 3 222 -1 113 1 210 5 215 4 6 34 9 66 9 l58 -2 3 -231z m-1802 124 l1 -100 89 -5 89 -5 3 -57 3 -57 -93 -3 -93 -3 1 -60 1 -60 111 -3 112 -3 0 -64 0 -65 -169 0 c-93 0 -175 2 -183 5 -10 4 -13 59 -11 283 2 152 3 283 3 290 0 10 17 12 68 10 l67 -3 1 -100z m684 5 c0 -98 0 -100 23 -100 24 0 35 16 100 142 l30 58 79 0 c52 0 78 -4 78 -11 0 -7 -13 -34 -30 -61 -35 -56 -36 -63 -12 -77 16 -10 16 -10 0 -11 -10 0 -18 5 -18 11 0 17 -14 3 -34 -35 l-19 -35 33 -28 c42 -35 60 -79 60 -148 0 -77 -29 -135 -83 -166 -38 -22 -55 -24 -189 -27 -138 -4 -148 -3 -148 15 -1 42 -1 453 -1 511 l1 62 65 0 65 0 0 -100z"></path><path id="pcTkOVMv" d="M1600 3725 l0 -75 59 0 c66 0 81 10 88 65 7 52 -30 85 -97 85 l-50 0 0 -75z"></path><path id="psM8YI3o9" d="M2370 3730 l0 -90 49 0 c42 0 53 4 71 28 18 21 21 36 17 72 -6 57 -33 80 -93 80 l-44 0 0 -90z"></path><path id="pxASyI07m" d="M1620 2995 l0 -75 63 0 c73 0 87 10 87 62 0 58 -34 88 -100 88 l-50 0 0 -75z"></path></g></g><g id="l6twLBhFEmJb5xPcT7FPRce" fill="rgb(219,196,133)" style="transform: none;"><g><path id="pTfPjEJ8P" d="M1605 4488 c-140 -9 -350 -48 -262 -48 15 0 27 -5 27 -12 0 -7 5 -5 13 5 19 26 122 38 361 44 179 5 220 3 227 -8 7 -11 9 -11 9 -1 0 8 5 10 12 6 7 -4 31 -7 55 -5 25 1 43 -2 43 -8 0 -7 16 -8 45 -4 25 3 45 2 45 -3 0 -5 30 -9 68 -10 87 -1 51 9 -109 30 -142 18 -387 25 -534 14z"></path><path id="p12Y9yW1x" d="M2350 4428 c19 -5 40 -16 46 -24 8 -9 21 -13 35 -9 31 7 217 -69 322 -132 107 -64 254 -189 323 -272 53 -66 71 -92 135 -206 16 -27 29 -45 29 -40 0 17 -86 163 -129 219 -68 88 -208 214 -316 285 -111 72 -403 193 -461 190 -11 0 -3 -5 16 -11z"></path><path id="px2JURKUC" d="M1050 4365 c-131 -54 -217 -102 -317 -177 -89 -66 -228 -207 -279 -281 -60 -89 -147 -297 -131 -314 3 -2 10 18 16 44 14 56 91 223 103 223 4 0 8 6 8 13 0 23 89 127 105 121 8 -3 22 2 32 12 17 17 17 17 1 11 -31 -11 -19 11 35 64 84 84 227 186 241 172 3 -3 6 -1 6 6 0 12 122 73 235 117 33 13 53 23 45 23 -8 0 -53 -15 -100 -34z"></path><path id="plEyGNPdn" d="M1134 4132 c-35 -7 -44 -32 -44 -127 0 -57 -4 -95 -12 -103 -9 -9 -9 -12 0 -12 9 0 12 -32 12 -115 l0 -114 -57 -4 -58 -3 63 -2 62 -2 1 73 c1 39 2 140 3 222 1 83 5 156 9 163 5 7 31 12 68 12 57 0 59 -1 60 -27 1 -16 2 -120 3 -233 l1 -205 62 -3 c71 -3 77 -12 71 -88 l-3 -39 -197 -3 -198 -2 -5 22 c-2 13 -6 43 -8 68 -3 38 -4 36 -5 -16 -1 -35 3 -65 10 -72 9 -9 69 -12 209 -12 170 0 198 2 203 16 10 27 6 110 -6 122 -7 7 -36 12 -65 12 l-53 0 -1 138 c0 75 0 172 1 214 2 98 -7 115 -63 119 -24 2 -52 2 -63 1z"></path><path id="p1CX13CSyZ" d="M2053 4132 c-69 -3 -72 -4 -81 -32 -6 -16 -9 -43 -7 -60 2 -17 -1 -30 -7 -30 -6 0 -7 -8 -3 -17 3 -10 7 -22 8 -28 1 -5 7 -13 12 -17 7 -5 7 -8 0 -8 -6 0 -10 -34 -9 -85 1 -47 -2 -85 -6 -85 -5 0 -7 -11 -6 -25 0 -14 4 -25 7 -25 3 0 5 -45 5 -100 -1 -74 2 -100 12 -100 6 0 12 -8 12 -17 0 -15 2 -16 10 -3 6 10 6 16 0 18 -6 2 -10 119 -10 303 l0 299 64 0 c52 0 64 -3 68 -17 2 -10 4 -144 4 -298 l-1 -280 -55 -6 c-30 -3 -46 -6 -36 -7 10 -1 25 -10 32 -19 13 -17 14 -17 8 0 -5 13 -1 17 19 17 13 0 29 6 35 13 12 15 22 608 10 601 -3 -2 -8 -1 -10 3 -1 5 -35 7 -75 5z"></path><path id="phXtOMswF" d="M1460 4122 c-13 -6 -15 -50 -15 -310 l0 -303 160 3 c150 3 161 2 177 -17 17 -20 17 -19 12 9 -5 30 20 59 44 51 6 -2 12 2 12 10 0 7 7 20 15 29 8 8 18 30 21 48 5 33 5 33 -14 -7 -23 -50 -70 -91 -120 -105 -21 -6 -92 -10 -162 -8 l-125 3 0 295 0 295 65 6 65 6 -60 1 c-33 0 -67 -2 -75 -6z"></path><path id="pLjsCzxV7" d="M2232 4118 c-17 -17 -18 -578 0 -596 8 -8 50 -12 124 -12 87 0 114 -3 124 -15 7 -8 18 -15 24 -15 6 0 3 5 -6 11 -27 15 -22 26 16 33 18 4 52 23 74 44 23 21 43 34 45 28 3 -6 5 0 5 14 0 14 6 51 13 82 15 70 1 129 -43 182 -41 50 -77 66 -160 73 l-70 6 4 87 3 87 -70 2 c-45 1 -75 -3 -83 -11z m140 -89 l3 -90 65 -3 c81 -4 134 -28 165 -75 67 -101 44 -245 -48 -304 -46 -30 -107 -39 -232 -35 l-90 3 -3 285 c-1 157 0 290 3 297 3 9 26 13 69 13 l65 0 3 -91z"></path><path id="pXFiK955H" d="M2370 3730 l0 -90 45 0 c74 0 109 50 89 126 -7 28 -54 54 -98 54 l-36 0 0 -90z m98 64 c23 -16 29 -48 11 -60 -8 -5 -8 -9 1 -14 8 -5 10 -18 6 -34 -7 -29 -41 -42 -81 -32 -24 6 -25 10 -25 81 l0 75 33 0 c18 0 43 -7 55 -16z"></path><path id="p15epVockC" d="M3242 3720 c46 -133 50 -154 39 -172 -9 -14 -8 -18 4 -18 8 0 15 -9 15 -20 0 -11 -4 -20 -10 -20 -5 0 -10 -4 -10 -10 0 -5 7 -10 15 -10 19 0 21 -60 3 -78 -9 -9 -8 -12 5 -12 16 0 17 -22 17 -285 -1 -257 -3 -285 -17 -285 -15 0 -15 -1 1 -13 14 -10 16 -25 14 -87 l-3 -75 -75 2 c-117 2 -1013 3 -1443 0 -213 -1 -387 2 -387 6 0 5 -5 5 -11 1 -9 -5 -914 -6 -1059 -1 l-45 2 -3 365 c-3 349 1 455 16 446 4 -2 7 26 8 63 1 67 0 67 -23 -19 -4 -14 -8 -217 -10 -452 l-4 -427 1523 2 1523 2 3 385 c2 249 -1 413 -8 465 -11 73 -61 240 -77 254 -3 3 -4 -1 -1 -9z"></path><path id="pbR5OIfIV" d="M790 3381 c-5 -11 -10 -67 -10 -125 0 -74 -4 -106 -12 -110 -10 -5 -10 -7 0 -12 9 -4 12 -43 12 -145 0 -135 -1 -140 -22 -150 l-23 -10 23 5 c22 4 26 -6 25 -51 -1 -7 5 -13 13 -13 8 0 14 7 14 15 0 8 -4 15 -8 15 -9 0 -9 566 -1 574 6 6 38 8 92 7 l48 -1 -1 -92 c-1 -51 -1 -98 -1 -105 1 -8 29 -13 89 -15 l87 -3 3 -40 c4 -50 22 -72 22 -26 0 19 4 30 10 26 6 -3 10 4 10 17 0 17 -3 19 -9 9 -7 -11 -11 -9 -20 8 -10 17 -21 21 -66 21 -33 0 -55 5 -58 13 -4 10 -6 10 -6 0 -1 -7 -12 -13 -26 -13 -25 0 -25 0 -25 100 0 116 -3 120 -94 120 -44 0 -57 -4 -66 -19z"></path><path id="pWTOnZCGk" d="M1240 3386 c-7 -10 -12 -52 -12 -115 0 -93 -1 -101 -19 -101 -10 0 -19 -4 -19 -10 0 -5 10 -10 23 -10 16 0 18 -3 8 -9 -11 -7 -11 -9 0 -14 12 -4 11 -7 -1 -16 -13 -10 -13 -12 0 -21 13 -9 13 -10 0 -10 -13 0 -13 -1 0 -10 13 -9 13 -11 0 -20 -13 -9 -13 -10 0 -10 13 0 13 -1 0 -10 -13 -8 -13 -10 0 -10 19 0 1 -17 -25 -23 -15 -3 -12 -5 9 -6 24 -1 27 -3 16 -16 -9 -10 -9 -15 -1 -15 6 0 11 -7 11 -15 0 -8 -6 -15 -12 -15 -10 0 -10 -2 0 -9 11 -6 10 -10 -5 -15 -17 -7 -17 -8 1 -22 20 -14 20 -14 0 -29 -17 -13 -17 -14 -1 -15 9 0 17 -6 17 -14 0 -8 5 -27 11 -43 8 -22 12 -24 19 -13 7 10 10 11 10 3 0 -7 7 -13 15 -13 8 0 15 5 15 10 0 6 16 10 35 8 19 -1 40 3 47 10 8 8 11 67 10 202 -1 126 1 190 8 190 7 0 7 7 0 21 -7 12 -9 48 -7 86 3 37 1 77 -4 90 -8 21 -15 23 -73 23 -43 0 -67 -5 -76 -14z m128 -4 c9 -7 12 -73 10 -298 l-3 -289 -65 0 -65 0 -3 285 c-1 157 0 290 3 297 5 15 102 18 123 5z"></path><path id="pSD14gqzQ" d="M1476 3375 c-15 -14 -22 -25 -16 -25 7 0 11 -15 10 -37 -3 -70 0 -123 8 -123 4 0 7 40 8 90 0 49 3 92 6 95 7 7 100 13 116 7 8 -3 12 -33 12 -103 0 -96 1 -99 23 -99 18 0 33 18 77 99 l54 100 74 3 c82 3 95 -5 69 -45 -8 -12 -33 -57 -56 -99 l-41 -76 26 -21 c41 -32 64 -87 64 -155 0 -75 -27 -132 -77 -166 -35 -23 -49 -25 -185 -28 -122 -3 -146 -7 -141 -18 3 -9 13 -12 24 -9 11 4 19 2 19 -4 0 -6 4 -11 10 -11 5 0 7 6 5 13 -4 9 18 12 89 13 89 1 95 0 99 -20 4 -21 4 -21 6 1 1 15 11 25 35 33 84 27 126 93 126 195 0 46 -6 78 -20 104 -10 21 -16 42 -12 46 4 5 2 5 -4 2 -6 -4 -19 2 -29 13 -20 23 -16 36 54 150 53 87 46 101 -50 99 -86 -2 -94 -8 -153 -119 -24 -47 -51 -85 -58 -85 -10 0 -14 23 -16 89 -2 50 -8 96 -14 103 -6 8 -32 13 -63 13 -42 0 -57 -5 -79 -25z"></path><path id="p150mrCDuj" d="M2065 3369 c-33 -16 -69 -39 -80 -50 -20 -20 -20 -20 4 -61 19 -33 20 -42 10 -49 -11 -7 -10 -9 4 -9 23 0 22 15 -5 58 l-22 35 34 28 c103 86 247 91 342 11 37 -32 58 -78 58 -131 0 -88 -42 -134 -158 -175 -80 -28 -112 -50 -112 -77 1 -8 7 -2 15 12 9 17 31 31 66 42 29 10 54 15 57 13 2 -3 9 0 16 5 6 5 27 20 46 32 82 53 104 149 56 240 -14 25 -22 48 -18 50 4 2 1 2 -7 0 -7 -2 -20 2 -28 8 -11 10 -11 14 -1 22 9 6 8 7 -5 3 -10 -3 -31 1 -47 9 -18 9 -56 15 -97 15 -56 0 -79 -6 -128 -31z"></path><path id="pLxfzXFRG" d="M2605 3389 c-19 -9 -20 -18 -17 -234 l3 -225 -61 0 c-34 0 -70 5 -81 10 -15 8 -19 7 -19 -4 0 -7 8 -17 17 -20 11 -4 13 -10 7 -14 -15 -10 -12 -52 3 -52 8 0 13 13 13 35 l0 35 65 0 65 0 1 208 c1 114 1 213 0 220 -4 27 19 39 76 38 l58 -1 3 -232 2 -233 65 0 c55 0 65 3 70 20 3 11 3 24 0 30 -10 16 -24 2 -20 -20 3 -18 -2 -20 -51 -20 l-54 0 1 200 c0 110 5 200 10 200 5 0 0 15 -10 33 -16 29 -22 32 -72 34 -30 1 -63 -2 -74 -8z"></path><path id="pO3orhJUu" d="M1620 2995 l0 -75 59 0 c70 0 91 15 91 66 0 54 -36 84 -100 84 l-50 0 0 -75z m31 43 l0 -23 11 23 c11 22 28 28 42 15 4 -5 13 -8 19 -8 22 0 42 -52 31 -82 -8 -25 -15 -28 -58 -31 -33 -2 -52 1 -57 10 -12 19 -11 118 1 118 6 0 10 -10 11 -22z"></path><path id="pISj4LflC" d="M1030 3051 c-67 -4 -95 -10 -94 -18 1 -7 2 -35 3 -63 l1 -50 109 0 109 0 4 -55 c1 -30 2 -60 0 -65 -2 -6 -72 -10 -175 -11 -95 -1 -161 -4 -147 -8 14 -4 71 -5 128 -3 71 3 102 1 102 -7 0 -6 7 -11 15 -11 8 0 15 5 15 11 0 5 8 9 18 8 9 -2 27 1 39 5 21 7 22 13 20 65 -2 31 -7 63 -11 69 -5 8 -42 12 -112 12 l-104 0 0 29 c0 16 6 32 13 34 10 4 10 6 0 6 -7 1 -13 9 -12 19 0 11 2 12 6 4 4 -10 9 -10 23 3 14 13 18 13 23 2 3 -9 19 -13 49 -12 55 3 51 2 66 25 7 11 11 19 10 18 -2 -1 -46 -4 -98 -7z"></path></g></g><g id="l2briDSFA2A32Wfls4Po7WO" fill="rgb(235,215,146)" style="transform: none;"><g><path id="p11KpZbAVJ" d="M1055 4366 c-225 -93 -375 -197 -519 -362 -106 -121 -192 -279 -210 -384 -3 -19 5 -3 17 35 51 152 128 273 258 404 134 135 295 236 501 316 34 13 56 24 48 24 -8 0 -51 -15 -95 -33z"></path><path id="pszLnCGmv" d="M2232 4118 c-17 -17 -17 -579 0 -596 8 -8 49 -11 128 -10 l115 2 -120 6 -120 5 0 295 0 295 68 3 67 3 0 -91 0 -90 53 2 52 2 -47 3 -47 4 -3 87 -3 87 -65 3 c-42 2 -70 -2 -78 -10z"></path><path id="pPGMy7bPh" d="M1600 3725 l0 -75 51 0 c75 0 89 11 89 70 0 61 -22 80 -92 80 l-48 0 0 -75z m114 49 c19 -18 21 -85 4 -102 -7 -7 -34 -12 -60 -12 l-48 0 0 65 0 65 44 0 c27 0 51 -6 60 -16z"></path><path id="pXi2d50Hh" d="M282 3013 l-2 -393 70 0 c39 0 70 4 70 9 0 12 -43 19 -67 10 -12 -4 -30 -5 -42 -2 -21 5 -21 10 -24 387 l-2 381 -3 -392z"></path><path id="phTnIZDjq" d="M2180 2630 c0 -6 102 -10 285 -10 183 0 285 4 285 10 0 6 -102 10 -285 10 -183 0 -285 -4 -285 -10z"></path></g></g><g id="l1p3AY2bbqIoyNCVPLmTPAt" fill="rgb(252,241,171)" style="transform: none;"><g><path id="p10EBim0AW" d="M1600 3725 l0 -75 54 0 c66 0 86 16 86 71 0 56 -26 79 -90 79 l-50 0 0 -75z m114 49 c19 -18 21 -85 4 -102 -7 -7 -34 -12 -60 -12 l-48 0 0 65 0 65 44 0 c27 0 51 -6 60 -16z"></path></g></g></svg>