<svg xmlns="http://www.w3.org/2000/svg" width="359" height="468" viewBox="0 0 3590 4680"><g id="l2kBal6vwQuHBJrxTMgr2qK" fill="rgb(11,13,8)" style="transform: none;"><g style="transform: none;"><path id="psypDcr5P" d="M1520 3310 c0 -113 -4 -180 -10 -180 -5 0 -10 -16 -10 -35 0 -35 0 -35 45 -35 l45 0 0 70 0 70 30 0 30 0 0 85 0 85 -30 0 -30 0 0 60 0 60 -35 0 -35 0 0 -180z"></path><path id="pUj7qclmk" d="M2530 3470 c0 -11 -7 -20 -15 -20 -10 0 -15 -11 -15 -35 0 -34 1 -35 40 -35 33 0 40 3 40 20 0 11 5 20 10 20 6 0 10 16 10 35 0 33 -2 35 -35 35 -28 0 -35 -4 -35 -20z"></path><path id="pELylfQ3k" d="M1930 3405 l0 -75 -40 0 -40 0 0 -59 c0 -32 3 -73 6 -90 6 -27 10 -31 40 -31 30 0 34 -3 34 -25 0 -22 4 -25 35 -25 l35 0 0 190 0 190 -35 0 -35 0 0 -75z"></path><path id="pk6AVkbXR" d="M3230 3385 c0 -33 2 -35 35 -35 33 0 35 2 35 35 0 33 -2 35 -35 35 -33 0 -35 -2 -35 -35z"></path><path id="p17H0XAwFl" d="M2640 3275 l0 -135 35 0 35 0 0 135 0 135 -35 0 -35 0 0 -135z"></path><path id="pgtvsx5SF" d="M2047 3353 c-4 -3 -7 -21 -7 -40 0 -32 1 -33 40 -33 l40 0 0 40 c0 39 -1 40 -33 40 -19 0 -37 -3 -40 -7z"></path><path id="p12Fak68sk" d="M2870 3300 c0 -59 0 -60 -29 -60 -31 0 -41 -18 -41 -72 0 -25 3 -28 35 -28 31 0 36 3 42 30 4 25 10 30 34 30 l29 0 0 80 0 80 -35 0 -35 0 0 -60z"></path><path id="p19ImwMiU9" d="M688 3336 c-12 -8 -18 -27 -18 -50 0 -36 0 -36 44 -36 47 0 56 11 56 73 0 24 -4 27 -32 27 -18 0 -41 -7 -50 -14z"></path><path id="p14GHTuzvk" d="M1220 3290 l0 -50 35 0 35 0 0 50 0 50 -35 0 -35 0 0 -50z"></path><path id="pV4aBdST1" d="M2180 3185 l0 -85 35 0 35 0 0 85 0 85 -35 0 -35 0 0 -85z"></path><path id="p14jqFexK" d="M290 3225 c0 -33 2 -35 35 -35 33 0 35 2 35 35 0 33 -2 35 -35 35 -33 0 -35 -2 -35 -35z"></path><path id="p5zs0XLZU" d="M2440 3203 c0 -58 10 -73 46 -73 l34 0 0 50 0 50 -40 0 c-37 0 -40 -2 -40 -27z"></path><path id="ppJEdHKtd" d="M1090 3150 c0 -11 -7 -20 -15 -20 -10 0 -15 -11 -15 -35 0 -35 0 -35 44 -35 41 0 44 2 50 31 13 68 9 79 -29 79 -28 0 -35 -4 -35 -20z"></path><path id="p6VwnOXiI" d="M560 2940 c0 -39 1 -40 35 -40 34 0 35 1 35 40 0 39 -1 40 -35 40 -34 0 -35 -1 -35 -40z"></path><path id="pfbK0VHn4" d="M2240 2955 c0 -18 -5 -25 -20 -25 -16 0 -20 -7 -20 -35 0 -33 2 -35 35 -35 28 0 35 4 35 20 0 13 7 20 20 20 17 0 20 7 20 40 0 39 -1 40 -35 40 -31 0 -35 -3 -35 -25z"></path><path id="pN7hE9mL7" d="M1757 2758 c-2 -117 -2 -216 2 -221 4 -4 31 -10 59 -14 l52 -6 0 37 c0 29 -4 36 -20 36 -19 0 -20 7 -20 190 l0 190 -34 0 -33 0 -6 -212z"></path><path id="pC1hW8oFj" d="M3100 2935 c0 -33 2 -35 35 -35 33 0 35 2 35 35 0 33 -2 35 -35 35 -33 0 -35 -2 -35 -35z"></path><path id="pcQ27ksgx" d="M790 2821 c0 -94 3 -131 13 -134 10 -4 10 -6 0 -6 -9 -1 -13 -17 -13 -46 0 -38 -3 -45 -20 -45 -16 0 -20 -7 -20 -35 l0 -35 55 0 c42 0 55 3 55 15 0 8 5 15 10 15 6 0 10 73 10 200 l0 200 -45 0 -45 0 0 -129z"></path><path id="pNcIOj2CX" d="M1230 2745 l0 -195 35 0 35 0 0 195 0 195 -35 0 -35 0 0 -195z"></path><path id="pmAWquB6S" d="M270 2815 l0 -115 45 0 45 0 0 115 0 115 -45 0 -45 0 0 -115z"></path><path id="pvssNvIt1" d="M2340 2865 c0 -33 2 -35 35 -35 33 0 35 2 35 35 0 33 -2 35 -35 35 -33 0 -35 -2 -35 -35z"></path><path id="p150k9IFBB" d="M1570 2820 l0 -70 35 0 35 0 0 70 0 70 -35 0 -35 0 0 -70z"></path><path id="prQVL0ZdK" d="M1010 2795 c0 -24 5 -35 15 -35 9 0 15 -9 15 -25 0 -20 5 -25 25 -25 21 0 25 -5 25 -30 0 -29 2 -30 45 -30 45 0 45 0 45 35 0 19 5 35 10 35 6 0 10 16 10 35 0 33 -2 35 -34 35 -28 0 -35 -4 -39 -22 -3 -15 -5 -10 -6 13 -1 40 -15 49 -78 49 -31 0 -33 -2 -33 -35z"></path><path id="p1GMAdQabb" d="M2990 2785 c0 -32 2 -35 30 -35 23 0 30 -4 30 -20 0 -16 7 -20 35 -20 33 0 35 2 35 35 0 32 -2 35 -30 35 -23 0 -30 4 -30 20 0 16 -7 20 -35 20 -33 0 -35 -2 -35 -35z"></path><path id="pEQHgriw9" d="M530 2670 l0 -140 35 0 35 0 0 140 0 140 -35 0 -35 0 0 -140z"></path><path id="pMP7aPxw5" d="M1850 2755 c0 -33 2 -35 35 -35 33 0 35 2 35 35 0 33 -2 35 -35 35 -33 0 -35 -2 -35 -35z"></path><path id="p11ervWmpo" d="M1990 2695 l0 -55 35 0 35 0 0 55 0 55 -35 0 -35 0 0 -55z"></path><path id="p1ANnGOx0U" d="M2340 2660 c0 -39 1 -40 35 -40 34 0 35 1 35 40 0 39 -1 40 -35 40 -34 0 -35 -1 -35 -40z"></path><path id="p1BILcge2h" d="M270 2575 l0 -75 45 0 45 0 0 75 0 75 -45 0 -45 0 0 -75z"></path><path id="pufwwKyBr" d="M1550 2605 c0 -8 -4 -15 -10 -15 -5 0 -10 -16 -10 -35 0 -33 2 -35 35 -35 24 0 35 5 35 15 0 8 9 15 20 15 16 0 20 7 20 35 0 35 0 35 -45 35 -33 0 -45 -4 -45 -15z"></path><path id="p1GiKWYOXI" d="M2580 2565 c0 -33 2 -35 35 -35 33 0 35 2 35 35 0 33 -2 35 -35 35 -33 0 -35 -2 -35 -35z"></path><path id="pHZWiP2cK" d="M270 2425 l0 -55 45 0 45 0 0 55 0 55 -45 0 -45 0 0 -55z"></path><path id="pzXQJJqlM" d="M1600 2215 l0 -35 190 0 190 0 0 35 0 35 -190 0 -190 0 0 -35z"></path><path id="pQFf0Xnd4" d="M1480 2205 l0 -35 50 0 50 0 0 35 0 35 -50 0 -50 0 0 -35z"></path><path id="pFa5G1EfW" d="M2350 2145 c0 -33 2 -35 35 -35 33 0 35 2 35 35 0 33 -2 35 -35 35 -33 0 -35 -2 -35 -35z"></path><path id="pAASNERoW" d="M970 2065 c0 -33 2 -35 35 -35 33 0 35 2 35 35 0 33 -2 35 -35 35 -33 0 -35 -2 -35 -35z"></path><path id="pfdo2xLfA" d="M2690 1975 c0 -33 2 -35 35 -35 33 0 35 2 35 35 0 33 -2 35 -35 35 -33 0 -35 -2 -35 -35z"></path><path id="pILQd8EKW" d="M1090 1935 c0 -24 5 -35 15 -35 8 0 15 -4 15 -10 0 -5 18 -10 39 -10 42 0 51 11 51 61 0 29 0 29 -60 29 l-60 0 0 -35z"></path><path id="pP4lFuyPg" d="M870 1915 c0 -34 1 -35 40 -35 39 0 40 1 40 35 0 34 -1 35 -40 35 -39 0 -40 -1 -40 -35z"></path><path id="pBm04UOlB" d="M2343 1850 c-3 -11 -12 -20 -19 -20 -10 0 -14 -13 -14 -45 l0 -45 45 0 c41 0 45 2 45 25 0 18 5 25 20 25 16 0 20 7 20 34 0 37 -12 46 -62 46 -21 0 -31 -6 -35 -20z"></path><path id="p1Cjq6urSD" d="M1040 1825 l0 -35 50 0 50 0 0 35 0 35 -50 0 -50 0 0 -35z"></path><path id="pytXEqXvK" d="M1760 1825 l0 -35 55 0 55 0 0 35 0 35 -55 0 -55 0 0 -35z"></path><path id="p1BiUzgk9t" d="M2700 1825 c0 -35 0 -35 45 -35 45 0 45 0 45 35 0 35 0 35 -45 35 -45 0 -45 0 -45 -35z"></path><path id="pt1VGgqZ" d="M2010 1825 c0 -8 -9 -20 -20 -27 -13 -9 -20 -24 -20 -45 0 -32 1 -33 43 -33 37 0 46 4 55 25 7 14 12 41 12 60 0 33 -2 35 -35 35 -24 0 -35 -5 -35 -15z"></path><path id="pgX4d3ljo" d="M2107 1813 c-4 -3 -7 -21 -7 -40 0 -32 1 -33 40 -33 l40 0 0 40 c0 39 -1 40 -33 40 -19 0 -37 -3 -40 -7z"></path><path id="pX7DiYi6U" d="M1510 1755 c0 -33 2 -35 35 -35 33 0 35 2 35 35 0 33 -2 35 -35 35 -33 0 -35 -2 -35 -35z"></path><path id="pWVVuMfGH" d="M1660 1757 c0 -25 5 -37 18 -40 9 -3 0 -5 -22 -6 l-38 -1 4 -39 c3 -36 1 -40 -24 -45 -24 -5 -28 -10 -28 -41 0 -39 19 -49 81 -43 31 3 34 6 37 37 2 20 -2 37 -10 42 -10 7 -9 9 5 9 12 0 17 8 17 30 0 29 2 30 44 30 24 0 64 3 90 6 45 7 46 8 46 42 l0 35 -59 -7 c-41 -5 -60 -3 -63 5 -2 6 -25 13 -51 16 l-47 6 0 -36z"></path><path id="pqtT9HIUz" d="M1040 1735 c0 -21 -5 -25 -30 -25 -27 0 -30 -3 -30 -30 0 -27 -3 -30 -30 -30 -28 0 -30 -3 -30 -35 0 -19 5 -35 10 -35 6 0 10 -9 10 -20 0 -16 7 -20 30 -20 17 0 30 -4 30 -10 0 -5 20 -10 45 -10 l45 0 0 39 c0 37 -2 39 -52 59 -50 20 -51 21 -20 21 21 1 32 6 32 16 0 10 10 15 34 15 56 0 66 8 66 51 l0 39 -55 0 c-52 0 -55 -1 -55 -25z"></path><path id="plqBmxGHm" d="M1290 1685 c0 -34 1 -35 40 -35 39 0 40 1 40 35 0 34 -1 35 -40 35 -39 0 -40 -1 -40 -35z"></path><path id="ph02HNOzZ" d="M2260 1695 c0 -8 -7 -15 -15 -15 -10 0 -15 -11 -15 -35 0 -28 4 -35 19 -35 16 0 20 -8 23 -37 3 -36 5 -38 41 -41 l37 -3 0 40 c0 37 -2 41 -25 41 -16 0 -25 6 -25 15 0 8 9 15 20 15 16 0 20 7 20 35 0 34 -1 35 -40 35 -29 0 -40 -4 -40 -15z"></path><path id="pJHkRngpK" d="M2470 1675 c0 -32 2 -35 31 -35 21 0 29 -4 25 -12 -3 -7 -9 -21 -12 -30 -4 -10 -10 -18 -15 -18 -5 0 -9 -16 -9 -35 0 -33 2 -35 35 -35 24 0 35 5 35 15 0 8 6 15 14 15 15 0 26 30 26 73 0 23 -4 27 -30 27 -28 0 -30 3 -30 35 0 33 -2 35 -35 35 -33 0 -35 -2 -35 -35z"></path><path id="pLKNYwsxx" d="M2100 1625 c-16 -19 -7 -89 13 -110 20 -19 74 -20 93 -1 8 8 14 28 14 45 0 24 -4 31 -20 31 -15 0 -20 7 -20 25 0 22 -4 25 -34 25 -18 0 -39 -7 -46 -15z"></path><path id="p16lDMxgiU" d="M1920 1585 c0 -33 2 -35 35 -35 33 0 35 2 35 35 0 33 -2 35 -35 35 -33 0 -35 -2 -35 -35z"></path><path id="pIjX98Kfx" d="M1110 1560 c0 -39 1 -40 35 -40 34 0 35 1 35 40 0 39 -1 40 -35 40 -34 0 -35 -1 -35 -40z"></path><path id="ptcBULrzC" d="M1428 1533 c-36 -4 -38 -6 -38 -37 0 -29 4 -34 31 -40 78 -15 109 0 109 53 0 34 -2 34 -102 24z"></path><path id="pMuZiOIsM" d="M1200 1465 c0 -28 4 -35 19 -35 11 0 21 -5 23 -10 2 -6 27 -13 56 -17 l52 -6 0 36 c0 35 -2 37 -40 43 -22 4 -40 10 -40 15 0 5 -16 9 -35 9 -33 0 -35 -2 -35 -35z"></path><path id="pL4XeSFlc" d="M1700 1465 c0 -33 2 -35 35 -35 33 0 35 2 35 35 0 33 -2 35 -35 35 -33 0 -35 -2 -35 -35z"></path><path id="pISKQFy9O" d="M2394 1475 c-4 -8 -15 -15 -25 -15 -16 0 -19 -8 -19 -45 0 -45 0 -45 35 -45 22 0 38 6 41 15 4 8 12 15 19 15 16 0 25 22 25 61 0 27 -3 29 -35 29 -22 0 -38 -6 -41 -15z"></path><path id="p6ndE1Xsf" d="M1870 1445 c0 -33 2 -35 35 -35 33 0 35 2 35 35 0 33 -2 35 -35 35 -33 0 -35 -2 -35 -35z"></path><path id="pyTqrSniZ" d="M1573 1402 c-38 -15 -43 -20 -43 -48 0 -24 5 -33 23 -38 32 -8 77 -7 77 2 0 5 11 15 25 22 19 10 25 21 25 47 0 31 -2 33 -32 32 -18 -1 -52 -9 -75 -17z"></path><path id="p181Haz6Up" d="M2070 1375 c0 -34 1 -35 40 -35 39 0 40 1 40 35 0 34 -1 35 -40 35 -39 0 -40 -1 -40 -35z"></path><path id="pULnWMd0w" d="M1860 1346 c0 -25 -21 -36 -72 -36 -26 0 -28 -3 -28 -40 l0 -40 60 0 c33 0 60 4 60 10 0 6 18 10 40 10 l40 0 0 40 c0 29 -4 40 -15 40 -8 0 -15 9 -15 20 0 16 -7 20 -35 20 -30 0 -35 -3 -35 -24z"></path><path id="pXG839Kuw" d="M2170 1305 c0 -33 2 -35 35 -35 33 0 35 2 35 35 0 33 -2 35 -35 35 -33 0 -35 -2 -35 -35z"></path><path id="pD2S3d3jd" d="M1590 1215 c0 -33 2 -35 35 -35 33 0 35 2 35 35 0 33 -2 35 -35 35 -33 0 -35 -2 -35 -35z"></path><path id="p1CM0CPmTF" d="M1990 875 l0 -65 35 0 35 0 0 65 0 65 -35 0 -35 0 0 -65z"></path><path id="pLTN9d35P" d="M2700 835 c0 -33 2 -35 35 -35 33 0 35 2 35 35 0 33 -2 35 -35 35 -33 0 -35 -2 -35 -35z"></path><path id="pDBaNlz4N" d="M1820 640 c0 -39 1 -40 35 -40 34 0 35 1 35 40 0 39 -1 40 -35 40 -34 0 -35 -1 -35 -40z"></path><path id="pU9h9tXjJ" d="M1976 569 c-14 -71 -10 -79 39 -79 l45 0 0 39 c0 59 -8 71 -45 71 -28 0 -33 -4 -39 -31z"></path><path id="pbcbXjaO3" d="M1660 465 c0 -33 2 -35 35 -35 33 0 35 2 35 35 0 33 -2 35 -35 35 -33 0 -35 -2 -35 -35z"></path><path id="phTLQSAfn" d="M2783 388 c-17 -8 -23 -20 -23 -45 0 -33 0 -33 49 -33 53 0 61 8 61 61 0 26 -3 29 -32 28 -18 0 -43 -5 -55 -11z"></path></g></g><g id="l2VZZJzwE9t5tGKpLpNg6kM" fill="rgb(32,30,17)" style="transform: none;"><g style="transform: none;"><path id="pjx51FODk" d="M1570 4605 c-123 -16 -430 -112 -430 -135 0 -3 -21 -12 -47 -20 -26 -7 -58 -24 -71 -37 -12 -13 -27 -23 -32 -23 -11 0 -83 -39 -90 -49 -3 -4 -27 -22 -55 -41 -27 -18 -59 -43 -71 -54 -11 -12 -53 -50 -92 -86 -40 -36 -72 -70 -72 -76 0 -5 -13 -20 -30 -32 -16 -13 -30 -29 -30 -37 0 -8 -8 -19 -18 -24 -10 -5 -24 -22 -32 -38 -8 -15 -23 -38 -33 -49 -20 -24 -30 -41 -100 -175 -26 -51 -47 -96 -47 -101 0 -5 -9 -30 -21 -55 -19 -42 -49 -163 -52 -208 0 -11 -4 -25 -8 -31 -26 -34 -30 -245 -27 -1334 l3 -1135 27 -88 c37 -117 132 -277 165 -277 4 0 16 -14 25 -30 10 -17 25 -33 35 -37 10 -4 31 -20 47 -35 15 -16 44 -35 64 -44 20 -8 39 -18 42 -22 9 -14 77 -52 91 -52 8 0 31 -11 50 -24 20 -14 67 -35 105 -47 38 -12 74 -25 79 -30 19 -14 101 -39 186 -55 46 -9 86 -19 89 -24 8 -12 105 -30 250 -46 291 -31 791 -8 905 41 17 7 59 18 95 25 80 15 190 51 190 62 0 4 8 8 18 8 31 0 170 53 182 70 3 3 25 14 50 24 25 9 63 29 85 44 22 15 53 34 69 42 40 21 206 184 206 204 0 9 5 16 10 16 6 0 32 44 58 98 l47 97 3 1215 c2 776 -1 1249 -7 1310 -6 52 -22 128 -36 167 -14 40 -25 79 -25 86 0 7 -14 41 -30 75 -17 34 -30 68 -30 75 0 7 -11 28 -25 47 -14 19 -25 38 -25 42 0 14 -125 200 -160 238 -101 111 -184 190 -200 190 -5 0 -10 6 -10 14 0 8 -19 24 -42 36 -24 12 -53 33 -65 47 -13 13 -43 33 -68 44 -25 11 -45 23 -45 27 0 4 -21 18 -47 31 -27 13 -69 34 -94 47 -53 27 -260 97 -334 113 -156 33 -385 39 -575 16z m481 -139 c52 -7 102 -17 110 -22 13 -8 88 -31 179 -54 19 -5 36 -14 38 -19 2 -6 8 -11 13 -11 6 0 29 -9 51 -20 23 -11 47 -20 54 -20 6 0 17 -7 24 -15 7 -8 24 -21 39 -28 51 -26 77 -42 126 -82 95 -75 193 -170 270 -260 22 -26 48 -56 58 -66 9 -11 17 -22 17 -26 0 -5 9 -19 20 -33 11 -14 20 -31 20 -37 0 -10 -185 -13 -894 -13 -607 0 -904 -3 -923 -11 -19 -7 -29 -7 -31 0 -3 8 -112 11 -343 11 -209 0 -339 4 -339 10 0 5 11 20 25 34 14 14 25 31 25 39 0 16 36 57 50 57 6 0 10 8 10 18 0 10 14 28 30 40 17 13 30 29 30 37 0 8 16 25 35 37 19 13 35 27 35 31 0 11 53 56 66 57 5 0 20 14 32 30 13 17 28 30 35 30 7 0 19 9 27 20 8 11 35 30 60 42 25 12 54 32 65 45 11 12 36 26 55 29 19 4 51 17 70 29 62 38 112 57 184 72 39 8 78 21 86 28 8 7 47 16 85 20 39 4 97 10 130 15 72 10 244 4 376 -14z m1125 -936 c11 -30 24 -68 28 -85 l7 -30 -20 29 c-33 50 -69 66 -144 66 -80 0 -117 -16 -151 -66 -21 -32 -25 -33 -30 -16 -11 32 -53 64 -98 73 -24 5 -105 6 -180 2 l-137 -6 -11 -33 c-15 -45 -43 -45 -55 -1 l-10 32 -131 3 -131 3 -21 -48 -20 -48 -1 48 -1 47 -71 0 -72 0 6 -67 6 -68 -15 39 c-30 83 -77 110 -180 104 -61 -3 -77 -7 -99 -28 -31 -29 -45 -53 -56 -95 -5 -18 -6 0 -3 43 l6 73 -78 0 c-44 0 -116 2 -160 5 -95 7 -136 -7 -169 -56 l-20 -30 -5 37 -5 38 -70 0 -70 0 -3 -67 -3 -68 -44 0 -44 0 -3 68 -3 67 -130 0 -129 0 -10 -32 c-5 -21 -15 -33 -26 -33 -11 0 -21 12 -26 33 -10 32 -10 32 -82 35 l-72 3 0 -47 c0 -26 14 -94 31 -153 17 -58 39 -137 50 -174 l20 -68 81 3 81 3 23 80 c13 44 24 91 24 105 0 14 7 34 15 44 13 18 15 7 15 -107 l0 -127 159 0 c87 0 173 3 190 6 27 6 31 10 31 41 l0 34 30 -35 c46 -51 81 -59 229 -51 69 3 134 9 144 11 15 5 17 20 18 107 2 98 2 100 9 35 11 -114 59 -158 171 -158 81 0 124 25 155 88 l20 43 -4 -60 -4 -61 75 0 76 0 20 43 19 42 1 -43 1 -43 68 3 67 3 3 125 4 125 34 -119 c19 -66 38 -124 42 -128 5 -5 42 -8 82 -6 l73 3 29 90 c15 50 31 106 35 125 6 25 9 0 13 -90 l5 -125 99 -3 c116 -3 147 6 181 56 l23 34 17 -31 c25 -49 69 -71 143 -71 79 0 124 20 154 68 18 29 23 56 28 142 l5 105 13 -66 c8 -45 12 -192 12 -472 l0 -407 -1445 0 -1445 0 0 170 c0 144 -2 170 -15 170 -8 0 -15 -7 -15 -15 0 -8 -7 -15 -15 -15 -12 0 -15 13 -15 55 0 42 3 55 15 55 8 0 15 -7 15 -15 0 -8 7 -15 15 -15 13 0 15 27 15 183 0 221 17 348 64 487 20 57 36 106 36 107 0 2 606 2 1347 1 l1347 -3 22 -55z m-1616 -255 c0 -170 -1 -185 -17 -184 -11 0 -13 3 -5 6 9 3 12 50 12 184 0 98 2 179 5 179 3 0 5 -83 5 -185z m407 -67 c-1 -46 -3 -9 -3 82 0 91 2 128 3 83 2 -46 2 -120 0 -165z m710 15 c-2 -32 -3 -8 -3 52 0 61 1 87 3 58 2 -29 2 -78 0 -110z m-1261 127 c23 0 24 -3 24 -75 l0 -75 -47 0 c-54 0 -65 5 -82 37 -15 30 -14 58 5 95 14 26 19 29 46 24 17 -3 41 -6 54 -6z m374 -74 c0 -22 -7 -49 -14 -59 -13 -17 -15 -17 -30 5 -19 26 -21 74 -5 115 l11 28 19 -24 c12 -15 19 -38 19 -65z m1279 39 c10 -35 -1 -99 -18 -110 -29 -17 -47 109 -20 141 15 19 26 10 38 -31z m-337 -67 c-9 -30 -10 -27 -10 32 0 59 1 62 10 33 8 -23 8 -43 0 -65z m-1999 52 c-5 -18 -33 -30 -33 -14 0 5 29 32 37 34 0 0 -1 -9 -4 -20z m884 -52 c-2 -13 -4 -5 -4 17 -1 22 1 32 4 23 2 -10 2 -28 0 -40z m293 37 c0 -8 7 -15 15 -15 8 0 15 -4 15 -10 0 -5 -7 -10 -15 -10 -8 0 -15 -7 -15 -15 0 -8 -7 -15 -15 -15 -11 0 -15 11 -15 40 0 29 4 40 15 40 8 0 15 -7 15 -15z m307 -127 c-2 -18 -4 -6 -4 27 0 33 2 48 4 33 2 -15 2 -42 0 -60z m-1207 52 c0 -5 -20 -10 -45 -10 -25 0 -45 5 -45 10 0 6 20 10 45 10 25 0 45 -4 45 -10z m-680 -325 c0 -8 -7 -15 -15 -15 -8 0 -15 7 -15 15 0 8 7 15 15 15 8 0 15 -7 15 -15z m0 -275 c0 -5 -7 -10 -15 -10 -8 0 -15 5 -15 10 0 6 7 10 15 10 8 0 15 -4 15 -10z m610 -408 c-228 -112 -331 -264 -288 -426 11 -44 18 -52 55 -70 33 -16 45 -29 53 -56 5 -19 20 -52 33 -72 24 -40 114 -114 151 -124 11 -3 39 -34 62 -67 47 -71 135 -137 217 -163 34 -11 100 -18 188 -20 115 -4 145 -8 185 -27 44 -20 64 -22 204 -22 153 0 160 1 250 38 10 5 24 -6 42 -32 42 -59 351 -374 449 -457 120 -102 165 -124 249 -124 82 0 114 20 131 83 14 51 7 143 -14 183 -21 40 -78 98 -285 287 l-172 159 57 37 c70 46 131 111 173 184 21 38 39 57 57 62 71 17 173 101 198 163 22 51 29 140 16 187 -24 87 -142 203 -274 269 l-72 35 323 1 322 0 0 -677 0 -678 -24 -67 c-55 -156 -176 -284 -361 -382 -27 -14 -57 -31 -65 -36 -34 -22 -254 -100 -361 -128 -230 -62 -457 -86 -729 -79 -184 4 -305 20 -467 61 -334 86 -562 195 -711 343 -91 90 -143 181 -162 282 -6 33 -10 307 -10 707 l0 654 318 0 317 -1 -55 -27z m753 11 c-13 -2 -33 -2 -45 0 -13 2 -3 4 22 4 25 0 35 -2 23 -4z m240 0 c-13 -2 -33 -2 -45 0 -13 2 -3 4 22 4 25 0 35 -2 23 -4z m169 -58 c196 -24 370 -76 487 -145 39 -22 71 -42 71 -43 0 -1 -389 -2 -865 -2 -679 0 -862 3 -849 12 37 27 173 92 234 112 136 44 237 61 485 85 72 7 317 -3 437 -19z m-928 -230 c-4 -8 -10 -15 -15 -15 -5 0 -9 7 -9 15 0 8 7 15 15 15 9 0 12 -6 9 -15z m1196 -140 c0 -8 -7 -15 -15 -15 -8 0 -15 7 -15 15 0 8 7 15 15 15 8 0 15 -7 15 -15z m-540 -5 c-18 -12 -68 -12 -95 0 -14 6 0 9 45 9 45 1 60 -2 50 -9z m590 3 c0 -5 -5 -15 -10 -23 -8 -12 -10 -11 -10 8 0 12 5 22 10 22 6 0 10 -3 10 -7z m-1300 -62 c0 -9 -24 -21 -41 -21 -5 0 -9 7 -9 15 0 9 9 15 25 15 14 0 25 -4 25 -9z m19 -117 c8 -7 -73 -2 -104 6 -19 5 -6 6 35 3 36 -3 67 -7 69 -9z m731 -4 c-33 -11 -110 -11 -135 0 -13 6 11 8 70 8 60 0 82 -3 65 -8z m-866 -21 c-9 -15 -34 -10 -28 5 3 8 12 12 20 9 8 -3 11 -9 8 -14z m645 12 c19 -12 -4 -24 -30 -16 -17 6 -19 9 -8 16 17 11 21 11 38 0z m-589 -32 c0 -5 -7 -9 -15 -9 -8 0 -15 7 -15 15 0 9 6 12 15 9 8 -4 15 -10 15 -15z m395 -19 c4 -6 -6 -10 -22 -10 -22 0 -25 2 -13 10 19 12 27 12 35 0z m652 -101 c36 -6 96 -9 132 -7 l66 5 -50 -12 c-27 -7 -65 -14 -83 -14 -49 -1 -173 29 -166 41 3 5 12 7 20 4 8 -3 44 -11 81 -17z m-644 -66 c-18 -2 -48 -2 -65 0 -18 2 -4 4 32 4 36 0 50 -2 33 -4z m387 -103 c0 -5 -7 -10 -15 -10 -8 0 -15 5 -15 10 0 6 7 10 15 10 8 0 15 -4 15 -10z"></path><path id="pAMDfOwPz" d="M2313 2983 l-92 -4 -11 -39 c-14 -53 -46 -56 -56 -5 -7 41 -24 48 -105 43 l-54 -3 0 -40 c0 -22 4 -53 8 -68 7 -26 6 -27 -12 -18 -11 6 -36 11 -55 11 l-36 0 0 60 0 61 -72 -3 -73 -3 -3 -208 c-3 -250 -8 -239 113 -245 125 -7 173 17 195 97 6 23 8 20 19 -27 15 -61 30 -72 101 -72 74 0 86 10 110 93 64 221 58 207 89 207 l29 0 -33 -33 c-57 -57 -60 -169 -5 -230 l28 -32 214 -3 c117 -2 223 0 236 3 19 5 22 12 23 53 l0 47 14 -44 c17 -54 27 -61 90 -61 89 0 91 2 124 109 58 190 82 289 79 317 l-3 29 -75 0 -75 0 -9 -38 c-13 -50 -43 -48 -60 3 l-11 35 -147 2 -148 3 0 -155 0 -155 -27 1 c-32 2 -94 16 -77 18 7 0 26 14 43 30 30 28 31 32 31 113 0 124 -37 160 -157 156 -32 -1 -99 -4 -150 -5z m-516 -245 c-1 -40 -3 -10 -3 67 0 77 1 110 3 73 2 -37 2 -100 0 -140z m1034 34 c16 -51 29 -95 29 -98 0 -3 -15 -4 -32 -2 l-33 3 -2 115 c0 63 1 106 4 95 2 -11 18 -62 34 -113z"></path><path id="p7KXMKqeX" d="M537 2973 c-13 -12 -8 -428 5 -441 13 -13 78 -16 116 -6 20 6 22 12 22 80 0 72 1 74 25 74 24 0 25 -2 25 -74 l0 -74 39 -7 c21 -3 55 -3 75 0 34 7 36 9 36 46 0 28 -4 39 -15 39 -8 0 -15 -7 -15 -15 0 -8 -7 -15 -15 -15 -10 0 -15 10 -15 34 0 21 6 36 15 40 10 4 15 -1 15 -15 0 -12 5 -19 13 -17 23 8 21 128 -3 128 -6 0 -10 -12 -10 -26 0 -23 -2 -24 -15 -10 -17 16 -21 76 -5 76 14 0 12 27 -2 34 -10 5 -10 7 1 12 11 5 11 8 0 15 -12 8 -12 10 0 18 11 7 11 10 0 15 -12 5 -12 7 0 12 11 5 11 8 0 15 -11 7 -10 9 4 9 15 0 17 -10 17 -80 0 -47 4 -80 10 -80 6 0 10 24 11 53 0 49 3 43 44 -98 24 -82 44 -153 45 -157 0 -4 7 -14 16 -22 19 -19 108 -21 143 -3 24 12 51 77 51 125 0 12 5 22 10 22 6 0 10 7 10 16 0 9 6 35 13 58 11 39 12 34 17 -89 l5 -130 84 0 83 0 21 51 21 52 21 -52 20 -51 83 -3 82 -3 -1 226 0 225 -70 0 -69 0 0 -51 c0 -44 -2 -50 -15 -39 -8 7 -35 11 -64 8 l-50 -3 -3 40 -3 40 -135 0 -135 0 -11 -35 c-17 -51 -49 -53 -61 -3 l-9 38 -139 0 -140 0 -3 -72 c-3 -70 -4 -73 -27 -73 -24 0 -25 2 -25 75 l0 75 -68 0 c-38 0 -72 -3 -75 -7z m730 -316 c-1 -45 -3 -5 -3 88 0 94 2 130 3 82 2 -48 2 -125 0 -170z m340 141 c-2 -13 -4 -3 -4 22 0 25 2 35 4 23 2 -13 2 -33 0 -45z m-1040 -85 c-3 -10 -5 -2 -5 17 0 19 2 27 5 18 2 -10 2 -26 0 -35z m583 -13 c0 -11 -7 -20 -15 -20 -18 0 -19 6 -2 25 16 19 17 18 17 -5z"></path><path id="pjEx0lfJ8" d="M1567 1082 c-11 -12 -17 -36 -17 -70 0 -43 5 -57 30 -85 17 -19 30 -38 30 -41 0 -4 -13 -24 -29 -44 -50 -64 -63 -150 -37 -248 15 -56 63 -134 98 -159 36 -24 95 -19 125 11 22 23 25 32 21 80 -4 40 -11 61 -30 82 -52 56 -53 67 -11 125 35 48 38 57 42 130 3 73 1 83 -30 144 -18 35 -42 71 -53 79 -30 21 -119 18 -139 -4z"></path><path id="pAO1kVmL4" d="M1846 1078 c-27 -38 -20 -109 14 -156 l30 -42 -34 -45 c-76 -99 -56 -278 42 -383 37 -40 94 -44 137 -10 26 20 27 25 22 81 -4 40 -12 69 -26 86 -34 42 -46 71 -35 85 67 91 69 97 68 180 -1 91 -17 135 -65 191 -28 32 -36 35 -84 35 -44 0 -57 -4 -69 -22z"></path></g></g><g id="l76HutpRMaBUd59nJtTVT8G" fill="rgb(53,45,25)" style="transform: none;"><g style="transform: none;"><path id="p1DFrbhVwR" d="M1554 4500 c-3 -2 -27 -5 -54 -6 -46 -2 -99 -27 -100 -48 0 -8 28 -6 163 16 63 10 77 15 77 30 0 15 -7 18 -41 16 -22 -2 -43 -5 -45 -8z"></path><path id="p4ozDBrkW" d="M2120 4471 c0 -26 7 -29 74 -37 48 -6 56 -4 56 10 0 9 -7 16 -15 16 -24 0 -29 2 -50 16 -29 21 -65 18 -65 -5z"></path><path id="p17m4xGyUe" d="M1223 4409 c-35 -17 -63 -35 -63 -40 0 -5 18 -9 40 -9 22 0 40 4 40 8 0 5 23 15 50 22 37 10 50 18 50 32 0 27 -45 22 -117 -13z"></path><path id="p128xmJr2J" d="M2320 4413 c0 -10 12 -24 27 -30 32 -15 93 -17 93 -3 0 6 -7 10 -15 10 -8 0 -15 4 -15 9 0 10 -22 19 -65 27 -19 3 -25 0 -25 -13z"></path><path id="p1AFOz7eQB" d="M1070 4343 c-16 -6 -50 -38 -50 -48 0 -10 76 -5 88 7 31 31 6 57 -38 41z"></path><path id="pbkKBOqpj" d="M935 4255 c-16 -7 -26 -14 -22 -14 11 -1 -19 -31 -31 -31 -5 0 -17 -9 -27 -20 -18 -20 -17 -20 18 -20 30 0 37 4 37 20 0 15 7 20 25 20 26 0 39 17 33 44 -3 12 -7 12 -33 1z"></path><path id="pHO9PRs3d" d="M2650 4240 c0 -34 23 -50 72 -50 l33 1 -45 39 c-25 22 -48 40 -52 40 -5 0 -8 -13 -8 -30z"></path><path id="pas8flTjZ" d="M750 4095 c0 -9 -6 -12 -17 -8 -10 4 -14 2 -9 -5 3 -6 -2 -15 -11 -21 -15 -8 -11 -10 20 -11 35 0 37 2 37 30 0 17 -4 30 -10 30 -5 0 -10 -7 -10 -15z"></path><path id="pbqTgucOI" d="M572 3900 c-6 -11 -12 -26 -12 -35 0 -9 -6 -12 -15 -9 -11 5 -13 2 -9 -10 3 -9 1 -16 -5 -16 -6 0 -11 -4 -11 -10 0 -5 14 -10 30 -10 23 0 30 4 30 20 0 11 5 20 10 20 6 0 10 16 10 35 0 39 -9 44 -28 15z"></path><path id="pnmBrXUqF" d="M3020 3892 c0 -49 22 -82 53 -82 l28 0 -19 28 c-11 15 -20 30 -21 35 -1 4 -10 16 -21 27 l-20 20 0 -28z"></path><path id="p1Er1ghF5L" d="M490 3758 c-21 -47 -20 -54 7 -42 20 9 30 11 56 13 24 1 22 31 -3 31 -13 0 -20 7 -20 20 0 34 -20 22 -40 -22z"></path><path id="pizHIfLwL" d="M3100 3770 c0 -6 -39 -10 -90 -10 -73 0 -90 -3 -90 -15 0 -8 8 -16 18 -17 25 -2 35 -4 55 -13 9 -4 23 -3 30 3 15 13 75 13 83 0 8 -13 33 23 27 38 -6 16 -33 27 -33 14z"></path><path id="pfst6JCOA" d="M1000 3746 c0 -15 45 -30 60 -21 6 4 10 1 10 -4 0 -6 11 -10 25 -9 14 1 25 6 25 10 0 4 7 8 15 8 8 0 15 7 15 15 0 12 -15 15 -75 15 -57 0 -75 -3 -75 -14z"></path><path id="pVibbjqnn" d="M1160 3745 c0 -8 7 -15 15 -15 8 0 15 -4 15 -10 0 -13 61 -13 94 0 17 6 26 6 26 0 0 -6 7 -10 15 -10 8 0 15 5 15 10 0 6 7 10 15 10 8 0 15 7 15 15 0 12 -18 15 -105 15 -87 0 -105 -3 -105 -15z"></path><path id="p13niVw2OE" d="M858 1779 c-15 -16 -15 -19 -3 -19 8 0 17 -11 21 -25 9 -35 34 -32 34 4 0 61 -20 76 -52 40z"></path><path id="pJS607kj8" d="M1020 1634 c0 -23 3 -24 65 -24 57 0 65 2 65 19 0 13 -6 18 -23 16 -13 -2 -43 1 -65 5 -40 7 -42 6 -42 -16z"></path><path id="pj6hxlFtJ" d="M1398 1412 c-10 -2 -18 -10 -18 -18 0 -10 14 -14 55 -14 46 0 55 3 55 18 0 13 -8 18 -37 18 -21 0 -46 -2 -55 -4z"></path><path id="piBwrUBk0" d="M2060 1406 c0 -14 29 -26 68 -26 15 0 22 6 22 20 0 17 -7 20 -45 20 -32 0 -45 -4 -45 -14z"></path><path id="pshT33TsW" d="M2180 1406 c0 -8 -6 -17 -12 -19 -18 -8 53 -8 80 -1 41 11 26 34 -23 34 -32 0 -45 -4 -45 -14z"></path><path id="pQDA6Z3sU" d="M1725 1308 c-28 -16 -49 -38 -36 -38 5 0 12 4 15 8 3 5 19 7 36 4 25 -4 30 -1 30 17 0 23 -15 26 -45 9z"></path><path id="pyZ85wJzS" d="M1500 175 c0 -8 6 -15 14 -15 8 0 16 -4 18 -10 2 -5 19 -7 41 -3 27 4 37 10 37 24 0 16 -8 19 -55 19 -42 0 -55 -3 -55 -15z"></path><path id="pQaPBqK6w" d="M2000 175 c0 -8 6 -15 14 -15 8 0 17 -6 19 -12 4 -10 6 -10 6 0 1 6 8 12 16 12 8 0 15 7 15 15 0 10 -11 15 -35 15 -24 0 -35 -5 -35 -15z"></path></g></g><g id="l7aJEEfNW35eADsEZkKLckE" fill="rgb(86,56,22)" style="transform: none;"><g style="transform: none;"><path id="pMNKbVn5y" d="M1467 4482 c-59 -19 -63 -42 -8 -42 22 0 43 5 46 10 3 6 15 10 26 10 24 0 25 26 1 32 -10 3 -39 -2 -65 -10z"></path><path id="p16jWo0DZA" d="M919 4236 c-14 -13 -35 -29 -47 -35 -32 -17 -27 -31 11 -31 42 0 77 29 77 64 0 32 -8 33 -41 2z"></path><path id="pM6iTLIpi" d="M620 3946 c0 -8 -8 -17 -18 -21 -11 -3 -24 -17 -30 -30 -11 -23 -10 -25 14 -25 14 0 32 6 40 14 16 16 19 76 4 76 -5 0 -10 -6 -10 -14z"></path></g></g><g id="l1oobCWbNFtV6BlUgXw4ePL" fill="rgb(77,75,57)" style="transform: none;"><g style="transform: none;"></g></g><g id="l2LxfKj7WTGc4kUkKiVeYcH" fill="rgb(124,84,25)" style="transform: none;"><g style="transform: none;"><path id="p07T7lIR6" d="M2375 2260 c3 -6 17 -10 30 -10 13 0 35 -4 49 -10 21 -7 26 -6 26 5 0 8 -6 15 -12 16 -7 1 -32 3 -56 5 -27 2 -41 0 -37 -6z"></path></g></g><g id="l1XMrFWQuCQpJe4p9PodPcs" fill="rgb(170,81,32)" style="transform: none;"><g style="transform: none;"><path id="p1GmhnayoA" d="M1690 4515 c-8 -2 -55 -8 -105 -15 -49 -6 -99 -15 -110 -20 -11 -4 -60 -18 -110 -30 -77 -19 -225 -78 -275 -111 -8 -5 -26 -14 -40 -20 -13 -5 -27 -13 -30 -17 -3 -4 -21 -16 -40 -26 -19 -11 -47 -32 -63 -48 -15 -15 -34 -28 -42 -28 -8 0 -22 -11 -31 -25 -9 -14 -21 -25 -28 -25 -13 -1 -66 -46 -66 -57 0 -4 -16 -18 -35 -31 -19 -12 -35 -29 -35 -37 0 -8 -13 -24 -30 -37 -16 -12 -30 -28 -30 -36 0 -8 -13 -28 -30 -44 -16 -15 -30 -35 -30 -43 0 -7 -9 -20 -20 -28 -18 -13 -50 -74 -50 -97 0 -7 419 -10 1320 -10 1313 0 1320 0 1320 20 0 11 -4 20 -9 20 -5 0 -13 10 -17 22 -27 86 -299 384 -396 434 -15 8 -28 19 -28 24 0 4 -13 16 -30 24 -16 9 -43 23 -59 31 -16 9 -34 22 -41 30 -7 8 -19 15 -26 15 -8 0 -22 4 -32 10 -68 38 -191 83 -270 100 -26 6 -56 14 -67 19 -47 22 -410 50 -465 36z"></path><path id="p1Fx4M9Ywb" d="M330 1579 c0 -422 4 -707 10 -740 38 -200 216 -378 505 -502 290 -125 599 -187 935 -187 431 0 764 71 1083 231 212 107 334 230 393 397 l24 67 0 708 0 707 -32 0 c-290 4 -747 5 -760 2 -27 -7 -21 -29 10 -37 46 -11 164 -66 220 -101 73 -47 135 -106 174 -166 26 -42 32 -61 31 -102 -1 -65 -23 -116 -69 -160 -42 -40 -108 -82 -146 -91 -19 -5 -38 -26 -65 -72 -45 -78 -133 -162 -202 -194 -28 -13 -50 -28 -51 -33 0 -12 152 -161 300 -294 135 -121 186 -180 200 -233 24 -88 -23 -169 -98 -169 -53 0 -117 36 -221 124 -97 82 -379 369 -442 449 -23 29 -47 55 -54 59 -7 5 -32 -3 -56 -16 -64 -35 -143 -49 -250 -44 -72 3 -106 10 -144 28 -44 21 -65 24 -180 25 -155 1 -216 16 -306 78 -41 28 -76 62 -103 104 -23 33 -51 64 -62 67 -37 10 -127 84 -151 124 -13 20 -28 53 -33 72 -8 27 -19 39 -51 54 -65 29 -81 109 -40 201 42 94 168 195 328 261 92 37 111 49 100 60 -3 4 -184 7 -402 8 l-395 1 0 -686z m1346 -523 c11 -8 35 -44 53 -80 44 -86 41 -141 -12 -214 -52 -70 -49 -119 8 -182 43 -48 41 -96 -6 -120 -27 -15 -58 5 -100 66 -70 102 -71 213 -3 292 43 51 43 79 -1 132 -39 46 -44 74 -18 102 19 22 51 23 79 4z m293 -21 c36 -41 56 -85 66 -142 7 -47 -8 -92 -49 -140 -49 -58 -45 -101 15 -171 37 -42 38 -83 3 -111 -35 -28 -41 -27 -76 11 -95 101 -112 232 -43 323 51 67 53 85 11 140 -40 52 -43 70 -20 103 23 33 57 28 93 -13z"></path></g></g><g id="lVAhQAKYahfWmOO7UH4kXz" fill="rgb(112,108,83)" style="transform: none;"><g style="transform: none;"></g></g><g id="l4nwNvDnuIMyvAhTbUCilEd" fill="rgb(199,97,38)" style="transform: none;"><g style="transform: none;"><path id="ps5pc3qxA" d="M331 2227 c2 -30 3 -34 6 -14 2 15 11 27 19 27 21 0 17 17 -6 23 -18 5 -20 1 -19 -36z"></path><path id="p19IB7vETY" d="M1135 2262 c-27 -3 -44 -16 -45 -33 0 -4 17 -1 38 7 20 7 47 13 60 14 12 0 22 4 22 10 0 5 -10 9 -22 7 -13 -1 -36 -4 -53 -5z"></path><path id="p156cENRT2" d="M420 2250 c0 -5 7 -10 15 -10 8 0 15 5 15 10 0 6 -7 10 -15 10 -8 0 -15 -4 -15 -10z"></path><path id="pqU7vk9yA" d="M560 2251 c0 -10 52 -17 98 -13 58 6 34 22 -33 22 -36 0 -65 -4 -65 -9z"></path><path id="pSotAmsuY" d="M710 2250 c0 -5 7 -10 15 -10 8 0 15 5 15 10 0 6 -7 10 -15 10 -8 0 -15 -4 -15 -10z"></path><path id="p9R9sZHMf" d="M830 2250 c0 -5 9 -10 20 -10 11 0 20 5 20 10 0 6 -9 10 -20 10 -11 0 -20 -4 -20 -10z"></path><path id="pUBR6mA7i" d="M900 2251 c0 -12 20 -19 50 -15 14 1 35 3 48 3 12 1 22 6 22 11 0 6 -27 10 -60 10 -33 0 -60 -4 -60 -9z"></path><path id="pmudP2EgF" d="M1040 2250 c0 -5 7 -10 15 -10 8 0 15 5 15 10 0 6 -7 10 -15 10 -8 0 -15 -4 -15 -10z"></path><path id="p117bTvsY6" d="M2445 2244 c40 -15 68 -18 115 -10 14 2 49 4 78 5 28 0 52 6 52 11 0 6 -54 10 -142 9 -138 0 -142 -1 -103 -15z"></path><path id="p9IRZX33P" d="M2710 2252 c0 -14 11 -21 26 -15 21 8 17 23 -6 23 -11 0 -20 -4 -20 -8z"></path><path id="p138TaLrm2" d="M2780 2251 c0 -16 20 -23 46 -17 36 9 29 26 -11 26 -19 0 -35 -4 -35 -9z"></path><path id="pjd0oVceF" d="M2860 2250 c0 -6 27 -10 60 -10 33 0 63 0 67 -1 4 0 9 4 11 10 2 7 -21 11 -67 11 -41 0 -71 -4 -71 -10z"></path><path id="pfHvwcNKV" d="M3170 2250 c0 -5 7 -10 15 -10 8 0 15 5 15 10 0 6 -7 10 -15 10 -8 0 -15 -4 -15 -10z"></path><path id="pPHrk2aC7" d="M3230 2250 c0 -5 11 -10 25 -10 14 0 25 5 25 10 0 6 -11 10 -25 10 -14 0 -25 -4 -25 -10z"></path><path id="pI0fWOxUN" d="M334 1905 c0 -154 2 -216 3 -137 2 79 2 205 0 280 -1 75 -3 11 -3 -143z"></path><path id="pU1haSISy" d="M333 1555 c0 -22 2 -30 4 -17 2 12 2 30 0 40 -3 9 -5 -1 -4 -23z"></path><path id="p1ESDDDrTf" d="M880 1515 c0 -16 27 -32 37 -21 7 7 -16 36 -28 36 -5 0 -9 -7 -9 -15z"></path><path id="pA4aUnxGD" d="M332 1480 c0 -19 2 -27 5 -17 2 9 2 25 0 35 -3 9 -5 1 -5 -18z"></path><path id="p18xI9TCok" d="M333 1330 c0 -30 2 -43 4 -27 2 15 2 39 0 55 -2 15 -4 2 -4 -28z"></path><path id="pidoTZISr" d="M1042 1373 c-10 -4 -9 -9 4 -24 17 -19 44 -26 44 -11 0 15 -34 40 -48 35z"></path><path id="pVKEpDEOU" d="M2392 1309 c2 -6 8 -10 13 -10 5 0 11 4 13 10 2 6 -4 11 -13 11 -9 0 -15 -5 -13 -11z"></path><path id="p14TNIWz4d" d="M1166 1272 c-3 -5 5 -14 18 -20 19 -9 25 -8 30 4 3 8 1 14 -3 14 -5 0 -16 3 -24 6 -8 3 -18 1 -21 -4z"></path><path id="psAJwGaxj" d="M334 1180 c0 -52 1 -74 3 -47 2 26 2 68 0 95 -2 26 -3 4 -3 -48z"></path><path id="pHLnLfiz5" d="M1488 1233 c-30 -5 -37 -18 -13 -27 8 -3 21 2 30 10 13 13 21 28 13 23 -2 -1 -15 -4 -30 -6z"></path><path id="phVfVUYay" d="M1340 1220 c0 -5 9 -10 20 -10 11 0 20 5 20 10 0 6 -9 10 -20 10 -11 0 -20 -4 -20 -10z"></path><path id="pTO7jC1U" d="M1400 1220 c19 -13 30 -13 30 0 0 6 -10 10 -22 10 -19 0 -20 -2 -8 -10z"></path><path id="pmhArmG0j" d="M1585 1210 c-3 -6 1 -13 10 -16 19 -8 30 0 20 15 -8 14 -22 14 -30 1z"></path><path id="p7gV6wvij" d="M1660 1180 c0 -5 6 -10 14 -10 8 0 16 -6 19 -12 2 -7 8 -10 12 -6 13 12 -4 38 -25 38 -11 0 -20 -4 -20 -10z"></path><path id="p6U4EdsrI" d="M1888 1183 c-31 -5 -37 -18 -12 -27 25 -10 34 -7 34 10 0 8 5 12 10 9 6 -3 10 -1 10 4 0 6 -3 10 -7 10 -5 -1 -20 -4 -35 -6z"></path><path id="pnd1GY1R9" d="M1640 1073 c8 -3 24 -10 35 -15 20 -9 20 -9 1 6 -11 9 -27 16 -35 15 -14 0 -14 -1 -1 -6z"></path><path id="pBITju9YF" d="M2232 1043 c-10 -4 -10 -8 -1 -19 13 -15 39 -19 39 -5 0 14 -24 29 -38 24z"></path><path id="pWNLYcMcD" d="M333 945 c0 -27 2 -38 4 -22 2 15 2 37 0 50 -2 12 -4 0 -4 -28z"></path><path id="pVOu74Pes" d="M1592 943 c-10 -4 -10 -8 -1 -19 13 -16 35 -18 44 -5 7 12 -25 30 -43 24z"></path><path id="prg8B2WM7" d="M2032 920 c0 -14 4 -38 8 -55 l8 -30 0 30 c0 17 -4 41 -8 55 l-8 25 0 -25z"></path><path id="p1DasnKdr9" d="M1890 920 c-12 -8 -12 -10 3 -16 21 -8 35 2 21 16 -5 5 -15 6 -24 0z"></path><path id="pxyeuSxME" d="M1876 825 c-3 -8 -2 -15 3 -15 5 0 14 7 21 15 10 12 10 15 -3 15 -8 0 -17 -7 -21 -15z"></path><path id="pWnfVPsL8" d="M2452 823 c-10 -4 -8 -11 9 -29 22 -23 49 -32 49 -16 0 15 -45 50 -58 45z"></path><path id="p1Dr7QLapF" d="M2899 732 c-3 -20 -2 -29 4 -23 5 5 7 19 5 32 -3 20 -5 19 -9 -9z"></path><path id="ppzgCVx19" d="M1683 675 c0 -22 2 -30 4 -17 2 12 2 30 0 40 -3 9 -5 -1 -4 -23z"></path><path id="pZb6vn4jm" d="M1810 689 c0 -11 7 -27 15 -35 13 -14 15 -11 15 20 0 25 -4 36 -15 36 -9 0 -15 -9 -15 -21z"></path><path id="pp0nq5hMC" d="M2630 660 c-10 -6 -8 -11 8 -19 24 -13 42 -14 42 -3 0 14 -37 30 -50 22z"></path><path id="p1CD007qte" d="M1850 565 c-10 -12 -10 -15 4 -15 9 0 16 7 16 15 0 8 -2 15 -4 15 -2 0 -9 -7 -16 -15z"></path><path id="pDYDvg2Rs" d="M1593 533 c-16 -6 -5 -33 13 -33 8 0 14 6 14 14 0 18 -11 25 -27 19z"></path><path id="pxKd1OdQd" d="M2031 525 c-1 -11 -4 -31 -6 -45 l-6 -25 11 25 c6 13 9 33 7 45 -4 19 -4 19 -6 0z"></path><path id="p15Q5YItgC" d="M1880 510 c-12 -8 -12 -10 3 -16 21 -8 35 2 21 16 -5 5 -15 6 -24 0z"></path><path id="pvDkoXNCf" d="M1675 440 c-4 -6 5 -10 19 -10 14 0 26 5 26 10 0 6 -9 10 -19 10 -11 0 -23 -4 -26 -10z"></path><path id="px0amDIVG" d="M1753 153 c15 -2 37 -2 50 0 12 2 0 4 -28 4 -27 0 -38 -2 -22 -4z"></path></g></g><g id="l5PQ7jdjbACXeyFhwlpB6aW" fill="rgb(182,147,28)" style="transform: none;"><g style="transform: none;"></g></g><g id="l5TknahH2eyVGV0MYJi242F" fill="rgb(219,170,29)" style="transform: none;"><g style="transform: none;"><path id="pwWqUDBih" d="M901 1807 c-32 -10 -33 -12 -27 -50 27 -166 206 -236 380 -148 89 46 95 54 52 79 l-35 21 -66 -35 c-45 -23 -80 -34 -108 -34 -81 0 -151 69 -145 143 4 40 1 41 -51 24z"></path><path id="pTcuXblxF" d="M1055 1804 c-23 -23 -15 -57 16 -68 30 -10 65 -4 94 18 20 15 20 15 -7 41 -31 29 -78 33 -103 9z"></path><path id="p16a0DXEEp" d="M1330 1810 c0 -5 12 -16 28 -24 15 -8 81 -53 146 -100 152 -110 202 -129 316 -124 99 5 147 25 222 95 41 39 108 136 108 157 0 3 -22 6 -50 6 -35 0 -50 -4 -50 -13 0 -28 -61 -103 -107 -132 -45 -28 -55 -30 -143 -30 -113 0 -131 8 -264 107 -88 65 -93 68 -148 68 -32 0 -58 -4 -58 -10z"></path><path id="pEn1W0aFD" d="M1622 1808 c7 -21 84 -59 137 -67 62 -10 113 6 155 48 l31 31 -164 0 c-126 0 -162 -3 -159 -12z"></path><path id="p15sk4jRKA" d="M2248 1773 c-9 -26 -15 -50 -12 -53 11 -10 44 43 44 71 0 43 -13 35 -32 -18z"></path><path id="p1GHy6sIMC" d="M2370 1782 c0 -66 -89 -152 -158 -152 -19 0 -39 -11 -62 -35 l-34 -35 72 0 c81 0 132 17 175 58 44 42 87 124 87 166 0 35 -1 36 -40 36 -40 0 -40 0 -40 -38z"></path><path id="pxTiJZutm" d="M2538 1762 c-3 -50 -11 -68 -57 -134 -86 -125 -150 -161 -286 -160 -44 0 -102 7 -128 15 -46 15 -52 14 -103 -5 -29 -11 -51 -25 -47 -30 12 -20 93 -48 168 -59 163 -22 321 24 407 120 55 61 102 150 117 219 18 87 17 92 -28 92 l-39 0 -4 -58z"></path><path id="pFiNUnRcV" d="M2720 1781 c0 -16 -3 -36 -6 -45 -9 -23 7 -20 38 9 32 30 28 65 -8 65 -20 0 -24 -5 -24 -29z"></path><path id="pQBuU0l3p" d="M1419 1594 c-7 -9 -35 -28 -62 -44 -57 -33 -51 -40 40 -48 59 -4 144 11 143 27 -1 3 -25 23 -54 43 -48 33 -55 36 -67 22z"></path><path id="ppQWMbT3H" d="M1173 1472 c-24 -2 -43 -5 -43 -8 0 -7 58 -56 91 -76 76 -47 237 -63 336 -33 64 19 150 59 183 85 l25 20 -30 0 c-17 0 -45 4 -64 10 -28 8 -40 6 -65 -9 -96 -59 -244 -65 -339 -14 -39 21 -63 27 -94 25z"></path><path id="p10MmT4eWN" d="M1791 1346 c-18 -13 -47 -30 -64 -37 l-31 -13 24 -7 c59 -16 220 0 220 23 0 4 -6 8 -13 8 -7 0 -29 11 -49 25 -45 31 -46 31 -87 1z"></path></g></g><g id="l4mCRvDPkPaLmLTGhrO8Lqb" fill="rgb(157,151,118)" style="transform: none;"><g style="transform: none;"></g></g><g id="l3GZLIDrPzM8TSsVeLrJx4W" fill="rgb(242,195,35)" style="transform: none;"><g style="transform: none;"><path id="pfmnS73Ts" d="M917 1813 c-14 -4 -16 -8 -6 -19 17 -20 39 -17 39 6 0 20 -2 21 -33 13z"></path><path id="p11WeQdCBf" d="M1102 1808 c7 -19 38 -22 38 -4 0 10 -9 16 -21 16 -12 0 -19 -5 -17 -12z"></path><path id="p11a7IfYUN" d="M1320 1810 c35 -24 52 -32 46 -21 -5 7 6 11 33 11 22 0 43 5 46 10 4 6 -21 10 -67 10 -53 0 -69 -3 -58 -10z"></path><path id="pUC7xKg2e" d="M1621 1801 c14 -11 26 -15 30 -9 4 5 60 9 138 7 89 -1 136 2 143 9 9 9 -30 12 -161 12 -172 0 -173 0 -150 -19z"></path><path id="pBRAuC0RP" d="M2050 1808 c0 -19 87 -20 94 -2 4 11 -6 14 -44 14 -33 0 -50 -4 -50 -12z"></path><path id="pgJfNnf8k" d="M2370 1808 c0 -8 16 -14 40 -15 28 -1 40 3 40 13 0 10 -12 14 -40 14 -25 0 -40 -5 -40 -12z"></path><path id="ppxdyp6Kf" d="M2543 1807 c0 -8 11 -11 34 -9 43 5 43 22 0 22 -21 0 -34 -5 -34 -13z"></path><path id="p18GentEef" d="M2725 1800 c3 -5 13 -10 21 -10 8 0 14 5 14 10 0 6 -9 10 -21 10 -11 0 -17 -4 -14 -10z"></path><path id="pxzvzory1" d="M1165 1779 c5 -12 -2 -20 -22 -27 -15 -6 -21 -11 -12 -11 8 -1 24 5 35 13 16 12 17 17 6 28 -11 11 -12 10 -7 -3z"></path><path id="ptw9kujGC" d="M2236 1744 c-8 -21 -8 -24 4 -24 5 0 14 9 20 20 8 16 8 20 -4 20 -7 0 -17 -7 -20 -16z"></path><path id="pEvwhHrsz" d="M1773 1743 c9 -2 25 -2 35 0 9 3 1 5 -18 5 -19 0 -27 -2 -17 -5z"></path><path id="p6CRbaVFh" d="M1016 1645 c-3 -9 0 -15 9 -15 16 0 20 16 6 24 -5 3 -11 -1 -15 -9z"></path><path id="p169nT0iWU" d="M1430 1586 c0 -9 7 -16 16 -16 9 0 14 5 12 12 -6 18 -28 21 -28 4z"></path><path id="p4HEQihzX" d="M1262 1428 c5 -15 58 -30 58 -17 0 5 -12 14 -26 19 -33 13 -37 13 -32 -2z"></path><path id="p7aranjr1" d="M1896 1313 c-8 -21 -8 -22 14 -16 28 8 33 20 11 26 -12 3 -22 -1 -25 -10z"></path></g></g><g id="l7hscnvAjWLKKn2wZWuVm1V" fill="rgb(201,190,146)" style="transform: none;"><g style="transform: none;"><path id="p1cAE6jYR" d="M3007 3382 c-23 -26 -22 -52 3 -52 11 0 20 5 20 10 0 6 14 10 30 10 31 0 39 17 18 38 -18 18 -53 15 -71 -6z"></path><path id="ppW9gnlPl" d="M890 3350 c0 -17 7 -20 50 -20 l50 0 0 -35 c0 -28 4 -35 20 -35 16 0 20 7 20 35 0 19 -4 35 -10 35 -5 0 -10 9 -10 20 0 18 -7 20 -60 20 -53 0 -60 -2 -60 -20z"></path><path id="p65cnCB5e" d="M770 3105 l0 -65 45 0 c41 0 45 2 45 25 0 20 -5 25 -25 25 -22 0 -25 4 -25 40 0 33 -3 40 -20 40 -18 0 -20 -7 -20 -65z"></path><path id="p2Dz6ipQs" d="M1010 3085 l0 -45 45 0 c41 0 45 2 45 25 0 20 -5 25 -26 25 -17 0 -28 6 -31 20 -10 40 -33 22 -33 -25z"></path><path id="p1HGgH2hKQ" d="M1951 3089 c-1 -33 2 -37 30 -43 64 -12 79 -8 79 22 0 26 -1 27 -49 24 -41 -3 -50 -1 -54 15 -3 10 -5 2 -6 -18z"></path><path id="pg8Voh5Zl" d="M548 2983 c-13 -3 -18 -15 -18 -39 0 -38 24 -48 33 -14 4 16 14 20 46 20 l41 0 0 -75 c0 -68 2 -75 20 -75 18 0 20 7 20 80 l0 80 -30 0 c-20 0 -30 5 -30 15 0 15 -41 19 -82 8z"></path><path id="punk1nC7B" d="M1260 2970 c0 -16 7 -20 35 -20 28 0 35 4 35 20 0 16 -7 20 -35 20 -28 0 -35 -4 -35 -20z"></path><path id="pIjqL7I5e" d="M1780 2967 c0 -20 4 -22 45 -19 l45 4 0 -36 c0 -29 4 -36 20 -36 16 0 20 7 20 35 0 28 -4 35 -20 35 -13 0 -20 7 -20 20 0 17 -7 20 -45 20 -40 0 -45 -2 -45 -23z"></path><path id="p1EEnbk6NK" d="M2008 2983 c-13 -3 -18 -15 -18 -39 0 -28 4 -34 20 -34 14 0 20 6 18 18 -2 11 5 18 21 20 35 5 71 -7 71 -23 0 -8 5 -15 10 -15 6 0 10 15 10 34 0 30 -4 34 -31 40 -34 7 -74 6 -101 -1z"></path><path id="p1D8DX2eWJ" d="M2810 2975 c0 -8 -4 -15 -10 -15 -5 0 -10 -16 -10 -35 0 -29 4 -35 21 -35 16 0 20 5 17 28 -3 25 0 27 35 30 29 3 37 7 37 23 0 16 -7 19 -45 19 -33 0 -45 -4 -45 -15z"></path><path id="pw29aJQWB" d="M2640 2700 c0 -13 -7 -20 -20 -20 -14 0 -20 -7 -20 -23 0 -20 4 -22 40 -19 39 4 40 5 40 43 0 32 -3 39 -20 39 -13 0 -20 -7 -20 -20z"></path><path id="pAckPdJFW" d="M2762 2683 c3 -35 6 -38 36 -41 27 -3 32 0 32 17 0 12 -7 21 -15 21 -8 0 -15 9 -15 20 0 14 -7 20 -21 20 -17 0 -20 -5 -17 -37z"></path><path id="p5fLNEEY8" d="M650 2636 l0 -74 -30 -7 c-43 -9 -39 -35 5 -35 19 0 35 5 35 10 0 6 7 10 15 10 12 0 15 14 15 65 0 58 2 65 20 65 13 0 20 7 20 20 0 17 -7 20 -40 20 l-40 0 0 -74z"></path><path id="pLSaqJAAJ" d="M720 2630 c0 -11 -4 -20 -10 -20 -5 0 -10 -16 -10 -35 0 -34 1 -35 40 -35 22 0 40 5 40 10 0 6 -4 10 -10 10 -5 0 -10 20 -10 45 0 38 -3 45 -20 45 -13 0 -20 -7 -20 -20z"></path><path id="pUnSRYUO6" d="M1790 2541 c0 -14 6 -21 19 -21 10 0 22 -7 25 -16 4 -11 17 -14 48 -12 39 3 43 6 46 31 3 25 1 27 -36 27 -22 0 -54 3 -71 6 -27 6 -31 4 -31 -15z"></path><path id="pOTlWKic9" d="M2450 2531 c0 -21 19 -31 61 -31 24 0 29 4 29 25 0 23 -4 25 -45 25 -37 0 -45 -3 -45 -19z"></path><path id="pTcLeRqAt" d="M1990 2175 c0 -23 4 -25 45 -25 37 0 45 3 45 19 0 19 -25 31 -67 31 -18 0 -23 -6 -23 -25z"></path><path id="p1BcHDUs3H" d="M1358 2173 c-10 -2 -18 -10 -18 -18 0 -16 22 -25 61 -25 24 0 29 4 29 25 0 21 -5 25 -27 24 -16 -1 -36 -3 -45 -6z"></path><path id="p6JofdwLW" d="M1268 2153 c-10 -2 -18 -13 -18 -24 0 -15 7 -19 35 -19 31 0 35 3 35 25 0 25 -11 29 -52 18z"></path></g></g><g id="l4ZYnX9lkScv4bZbCd2VMsQ" fill="rgb(221,203,154)" style="transform: none;"><g style="transform: none;"><path id="pxJGluyzK" d="M430 3617 c0 -1 -16 -50 -36 -107 -56 -167 -64 -250 -64 -712 l0 -408 1475 0 1476 0 -3 468 -3 467 -27 101 c-16 56 -37 123 -48 148 l-19 46 -1376 0 c-756 0 -1375 -1 -1375 -3z m970 -150 c20 -11 24 -20 22 -47 -1 -19 -4 -35 -6 -37 -1 -2 -17 2 -35 8 -69 24 -111 -18 -111 -110 0 -91 38 -130 114 -116 l36 7 0 -40 c0 -39 -2 -41 -36 -48 -73 -14 -134 10 -178 70 -18 23 -21 42 -21 125 0 88 3 101 25 134 14 20 39 43 55 52 37 18 102 19 135 2z m431 -10 c48 -31 73 -88 77 -172 3 -58 -1 -78 -20 -115 -44 -85 -129 -114 -199 -67 -88 58 -106 240 -32 327 46 55 116 66 174 27z m959 -6 c33 -23 70 -89 70 -123 0 -46 26 -33 39 19 7 26 21 59 32 75 59 82 180 75 234 -14 16 -27 20 -51 20 -128 0 -81 -3 -100 -23 -131 -40 -66 -126 -88 -189 -49 -36 21 -67 75 -77 133 -9 48 -36 51 -36 4 0 -43 -49 -120 -87 -136 -17 -7 -60 -11 -99 -9 l-69 3 -3 187 -2 187 22 4 c43 10 143 -4 168 -22z m-2226 -18 c8 -31 11 -33 56 -33 45 0 48 2 56 33 9 29 14 32 52 35 38 3 42 1 41 -20 0 -13 -22 -97 -48 -188 l-48 -165 -51 -3 -51 -3 -20 68 c-68 233 -81 282 -81 297 0 14 8 17 42 14 38 -3 43 -6 52 -35z m324 -30 l3 -62 46 -3 c51 -3 67 -24 52 -65 -7 -19 -16 -23 -54 -23 l-45 0 0 -40 0 -39 58 -3 57 -3 3 -37 3 -38 -90 0 c-54 0 -91 -4 -91 -10 0 -5 -6 -10 -12 -10 -10 0 -13 44 -11 192 1 106 2 197 3 201 0 5 17 7 38 5 l37 -3 3 -62z m237 -123 l0 -185 -27 -3 c-16 -2 -28 -8 -28 -13 0 -5 -7 -9 -15 -9 -13 0 -15 28 -15 193 0 107 3 197 7 201 4 4 23 6 43 4 l35 -3 0 -185z m435 -1 l0 -190 -42 3 -43 3 -3 175 c-1 96 0 180 2 187 3 8 22 13 46 13 l40 0 0 -191z m482 81 l3 -110 50 110 49 111 41 -3 40 -3 0 -185 0 -185 -37 -3 -37 -3 -3 113 c-2 72 -6 106 -11 93 -91 -219 -96 -225 -145 -213 l-32 9 0 189 0 190 40 0 39 0 3 -110z m313 73 c9 -31 12 -33 56 -33 45 0 48 2 59 35 11 32 15 35 50 35 21 0 41 -3 43 -7 4 -8 -72 -293 -92 -345 -9 -25 -16 -28 -55 -28 -25 0 -47 4 -50 9 -14 22 -96 327 -96 356 0 13 8 16 38 13 32 -3 38 -7 47 -35z m-1704 -495 c3 -5 6 -38 5 -74 l-1 -64 52 0 52 0 3 73 3 72 40 0 40 0 3 -189 c3 -199 1 -206 -43 -206 -40 0 -47 14 -46 89 1 78 1 78 -68 65 -31 -6 -31 -7 -31 -70 0 -58 -2 -65 -24 -75 -14 -7 -36 -9 -50 -5 l-26 6 0 194 c0 177 2 195 18 198 24 5 66 -3 73 -14z m689 -104 l5 -109 34 73 c43 96 61 95 111 -3 l35 -70 3 113 3 112 39 0 40 0 0 -195 0 -195 -22 -1 c-39 -2 -73 2 -81 10 -5 5 -20 41 -35 81 -15 39 -31 73 -36 73 -5 1 -24 -34 -41 -78 l-32 -80 -54 0 -54 0 -3 170 c-1 94 0 180 3 192 6 24 29 33 60 23 18 -7 21 -19 25 -116z m529 110 c2 -2 3 -29 2 -59 l-2 -55 36 0 c78 0 127 -51 129 -135 1 -71 -31 -120 -87 -137 -23 -7 -48 -19 -54 -28 -12 -13 -14 -13 -25 1 -7 8 -29 19 -48 25 l-35 10 -3 184 c-2 167 -1 186 15 198 16 11 59 9 72 -4z m242 0 c4 -2 10 -20 13 -39 7 -34 8 -35 55 -35 47 0 48 1 60 40 11 38 14 40 52 40 26 0 42 -5 45 -15 5 -13 -19 -105 -79 -300 -18 -58 -27 -71 -49 -79 -18 -6 -38 -6 -55 0 -26 9 -31 21 -74 174 -64 232 -62 218 -42 223 17 4 60 -1 74 -9z m413 2 c47 -20 66 -51 66 -112 0 -61 -15 -83 -80 -117 -48 -25 -62 -55 -35 -77 12 -10 24 -11 50 -2 40 12 42 10 47 -38 3 -32 0 -36 -29 -45 -18 -5 -33 -12 -33 -16 0 -10 -81 21 -104 40 -10 9 -25 31 -33 49 -27 64 7 126 96 174 24 13 32 24 29 40 -2 19 -10 24 -40 26 -20 2 -47 -2 -58 -8 -27 -15 -30 -12 -33 36 -2 36 0 39 33 51 47 16 84 16 124 -1z m388 -3 c4 -2 11 -18 16 -36 8 -30 11 -32 58 -35 l50 -3 10 38 c8 35 12 38 48 41 21 2 42 0 47 -5 7 -8 -14 -93 -73 -285 -28 -95 -30 -98 -63 -104 -59 -11 -72 0 -95 79 -12 40 -36 123 -55 186 -39 128 -37 147 19 135 17 -3 34 -8 38 -11z m-1919 -36 l9 -38 50 3 c48 3 51 5 62 38 10 31 15 35 50 38 21 2 42 0 47 -5 4 -4 -3 -46 -17 -93 -14 -47 -37 -125 -51 -175 -31 -105 -35 -112 -73 -120 -56 -12 -67 -1 -99 103 -50 163 -80 280 -73 287 3 3 24 5 46 3 38 -3 41 -6 49 -41z m1769 -89 c2 -179 1 -173 18 -174 8 -1 22 -2 31 -2 22 -3 36 -71 17 -83 -15 -10 -188 -12 -212 -3 -22 8 -21 70 0 82 9 5 25 7 34 5 23 -6 30 38 30 190 l0 117 40 0 40 0 2 -132z"></path><path id="ppr2CEEvX" d="M1725 3386 c-16 -12 -20 -29 -23 -93 -3 -68 -1 -81 18 -105 26 -34 52 -36 80 -6 29 32 29 154 -1 192 -23 29 -46 33 -74 12z"></path><path id="pnC8ZXPFp" d="M2690 3280 c0 -130 4 -139 51 -101 22 17 24 27 24 99 0 85 -17 122 -57 122 -16 0 -18 -10 -18 -120z"></path><path id="povXxV0Pl" d="M3060 3391 c0 -9 -8 -11 -25 -7 -35 9 -49 -23 -49 -111 0 -56 4 -76 18 -92 56 -62 120 26 101 139 -7 39 -44 99 -45 71z"></path><path id="pUix1N4Ln" d="M590 3311 c0 -23 24 -111 31 -111 4 0 10 21 14 46 3 26 9 53 12 60 4 10 -4 14 -26 14 -17 0 -31 -4 -31 -9z"></path><path id="ptzLqeVBC" d="M2387 3323 c-5 -4 19 -113 26 -119 2 -2 9 21 16 51 7 30 13 58 14 62 2 8 -49 13 -56 6z"></path><path id="pzMA021q4" d="M1870 2690 c0 -63 9 -72 50 -50 45 24 26 110 -25 110 -24 0 -25 -3 -25 -60z"></path><path id="pn4i9Jxeh" d="M2155 2765 c3 -16 9 -45 12 -62 8 -47 18 -41 31 18 17 71 16 74 -19 74 -29 0 -30 -2 -24 -30z"></path><path id="pqWirZmWF" d="M2954 2774 c3 -9 9 -27 12 -40 9 -34 30 -30 38 7 9 47 8 49 -25 49 -24 0 -30 -3 -25 -16z"></path><path id="pm2mfXYGh" d="M1020 2781 c0 -8 15 -58 27 -91 4 -10 11 0 19 25 20 64 18 75 -16 75 -16 0 -30 -4 -30 -9z"></path><path id="pbEX0ajJN" d="M1590 2201 c-122 -11 -190 -22 -190 -29 0 -4 -23 -7 -52 -7 -29 0 -53 -5 -55 -12 -2 -6 -12 -9 -21 -6 -28 7 -180 -45 -274 -94 -48 -25 -106 -65 -129 -89 l-43 -44 109 7 c144 10 1715 10 1780 0 l49 -7 -39 41 c-109 111 -401 217 -614 222 -47 1 -89 6 -92 11 -9 11 -323 16 -429 7z"></path><path id="p18qa0Wubp" d="M2183 1280 c7 -10 72 -81 143 -156 212 -225 439 -423 461 -401 18 19 -21 68 -144 184 -76 70 -199 188 -273 261 -118 115 -140 132 -169 132 -30 0 -31 -1 -18 -20z"></path></g></g><g id="l6g7cMs0i6EhfURdqKjJ76Y" fill="rgb(240,227,177)" style="transform: none;"><g style="transform: none;"><path id="pNkpcJR60" d="M2565 3440 c3 -5 13 -10 21 -10 8 0 14 5 14 10 0 6 -9 10 -21 10 -11 0 -17 -4 -14 -10z"></path><path id="pQSVNJnCz" d="M794 3260 c0 -91 2 -128 3 -82 2 45 2 119 0 165 -1 45 -3 8 -3 -83z"></path><path id="pkPYFZ0yq" d="M3244 3372 c-9 -5 -8 -11 2 -20 12 -11 14 -9 14 8 0 22 0 23 -16 12z"></path><path id="pg6Zv2zfJ" d="M2860 3269 c0 -63 2 -69 18 -60 14 7 16 20 14 64 -3 36 -9 57 -18 61 -11 4 -14 -8 -14 -65z"></path><path id="pYwEitgKe" d="M2041 3288 c0 -24 3 -36 6 -28 3 8 9 22 13 30 5 9 2 20 -6 28 -12 11 -14 6 -13 -30z"></path><path id="p13qfZG2Yy" d="M2421 3320 c-8 -4 -12 -17 -8 -29 3 -12 1 -21 -5 -21 -9 0 -5 -57 5 -66 2 -3 10 23 16 57 13 66 12 72 -8 59z"></path><path id="pk4PoFWIi" d="M600 3310 c0 -5 9 -10 19 -10 11 0 23 5 26 10 4 6 -5 10 -19 10 -14 0 -26 -4 -26 -10z"></path><path id="p56lDCHYn" d="M1580 3285 c0 -8 7 -15 15 -15 8 0 15 7 15 15 0 8 -7 15 -15 15 -8 0 -15 -7 -15 -15z"></path><path id="pgTLiDA0f" d="M1580 3245 c0 -8 7 -15 15 -15 8 0 15 7 15 15 0 8 -7 15 -15 15 -8 0 -15 -7 -15 -15z"></path><path id="pvA4sJrdN" d="M890 3235 c0 -9 6 -12 15 -9 8 4 15 10 15 15 0 5 -7 9 -15 9 -8 0 -15 -7 -15 -15z"></path><path id="p1EVYJitp4" d="M334 2885 c0 -143 2 -200 3 -127 2 73 2 190 0 260 -1 70 -3 10 -3 -133z"></path><path id="payK32BfF" d="M1218 2919 c2 -16 10 -29 18 -29 20 0 17 33 -4 46 -16 11 -18 9 -14 -17z"></path><path id="pwRDlQb77" d="M550 2906 c0 -8 -6 -17 -12 -19 -10 -4 -10 -6 0 -6 6 -1 12 -8 12 -16 0 -8 -6 -15 -12 -15 -10 0 -10 -2 -1 -8 8 -5 13 -42 16 -97 2 -74 3 -67 5 43 1 72 0 132 -3 132 -3 0 -5 -6 -5 -14z"></path><path id="prnEgfkbz" d="M2337 2893 c-4 -3 -7 -12 -7 -20 0 -17 26 -17 33 1 8 21 -11 35 -26 19z"></path><path id="pchmIpWnb" d="M893 2875 c-17 -19 -16 -25 2 -25 8 0 15 9 15 20 0 23 -1 24 -17 5z"></path><path id="p1C2iznoBb" d="M1893 2833 c9 -2 25 -2 35 0 9 3 1 5 -18 5 -19 0 -27 -2 -17 -5z"></path><path id="pt1N89JJT" d="M2150 2777 c0 -11 5 -17 13 -14 6 2 20 0 30 -5 14 -7 17 -4 17 14 0 19 -5 23 -30 23 -22 0 -30 -5 -30 -18z"></path><path id="pltveyYbc" d="M1020 2778 c0 -7 5 -20 10 -28 8 -13 10 -13 10 2 0 11 6 15 20 11 14 -4 20 0 20 11 0 11 -9 16 -30 16 -17 0 -30 -5 -30 -12z"></path><path id="pmMokJuao" d="M1342 2758 l-1 -33 14 25 c18 32 18 40 2 40 -9 0 -14 -12 -15 -32z"></path><path id="pnAjckIwA" d="M1505 2769 c11 -37 24 -45 22 -14 -1 16 -8 30 -16 33 -10 3 -11 -2 -6 -19z"></path><path id="pWdYdzlB0" d="M2953 2776 c3 -8 11 -34 18 -58 10 -36 13 -40 20 -23 12 31 10 45 -6 45 -8 0 -15 7 -15 15 0 13 4 14 20 5 17 -9 20 -8 20 10 0 16 -6 20 -31 20 -23 0 -30 -4 -26 -14z"></path><path id="p7KlCKkSg" d="M1880 2736 c0 -9 7 -12 20 -9 11 3 20 9 20 14 0 5 -9 9 -20 9 -11 0 -20 -6 -20 -14z"></path><path id="p0J0CRdMe" d="M2550 2735 c-7 -9 -11 -18 -8 -20 3 -3 11 1 18 10 7 9 11 18 8 20 -3 3 -11 -1 -18 -10z"></path><path id="p17Pf3qHGV" d="M2040 2730 c0 -5 7 -10 15 -10 8 0 15 5 15 10 0 6 -7 10 -15 10 -8 0 -15 -4 -15 -10z"></path><path id="pBi17VGe6" d="M1422 2709 c-11 -16 -9 -19 8 -19 11 0 20 6 20 14 0 24 -15 26 -28 5z"></path><path id="pbApkqzA0" d="M1040 2708 c0 -7 5 -20 10 -28 8 -12 10 -9 10 13 0 15 -4 27 -10 27 -5 0 -10 -6 -10 -12z"></path><path id="p1Am97ogS3" d="M2073 2695 c-17 -19 -16 -25 2 -25 8 0 15 9 15 20 0 23 -1 24 -17 5z"></path><path id="pmQFQnpSv" d="M944 2673 c15 -4 16 -7 5 -14 -11 -7 -11 -9 4 -9 9 0 17 7 17 15 0 9 -9 15 -22 14 -20 -1 -20 -2 -4 -6z"></path><path id="pkZQ4bf9W" d="M2882 2664 c-8 -9 -9 -14 -2 -14 7 0 9 -8 5 -20 -5 -14 -2 -20 9 -20 16 0 20 23 8 51 -6 14 -9 15 -20 3z"></path><path id="p3FF0HstK" d="M552 2610 c0 -19 2 -27 5 -17 2 9 2 25 0 35 -3 9 -5 1 -5 -18z"></path><path id="p10orn5GvF" d="M2574 2605 c-2 -21 0 -22 12 -10 17 17 18 35 2 35 -7 0 -14 -11 -14 -25z"></path><path id="pJaEECnsR" d="M1470 2600 c-12 -8 -11 -10 5 -10 17 0 17 -2 5 -10 -13 -8 -12 -10 3 -10 18 0 21 8 9 27 -5 8 -13 9 -22 3z"></path><path id="p5u5J37le" d="M1017 2544 c3 -8 11 -14 19 -14 21 0 17 17 -5 23 -14 3 -18 1 -14 -9z"></path><path id="p18AlaSZtO" d="M1287 2553 c-12 -11 -8 -23 7 -23 8 0 16 7 20 15 5 15 -14 21 -27 8z"></path><path id="pC5bpe5LS" d="M333 2465 c0 -44 2 -61 4 -37 2 23 2 59 0 80 -2 20 -4 1 -4 -43z"></path><path id="ppyqkwgnS" d="M1720 2201 c0 -11 111 -24 133 -15 37 14 13 24 -58 24 -41 0 -75 -4 -75 -9z"></path><path id="pUfdSFtYa" d="M1900 2195 c-8 -10 -1 -14 37 -17 42 -4 75 4 62 15 -13 12 -89 14 -99 2z"></path><path id="proCKHZdR" d="M1560 2190 c0 -6 27 -10 60 -10 33 0 60 4 60 10 0 6 -27 10 -60 10 -33 0 -60 -4 -60 -10z"></path><path id="paSqA0eyr" d="M1480 2180 c0 -5 9 -10 20 -10 11 0 20 5 20 10 0 6 -9 10 -20 10 -11 0 -20 -4 -20 -10z"></path><path id="pmGI1HHK2" d="M2045 2180 c-4 -6 5 -10 19 -10 14 0 26 5 26 10 0 6 -9 10 -19 10 -11 0 -23 -4 -26 -10z"></path><path id="pBt8ZZLeK" d="M1410 2170 c0 -5 7 -10 15 -10 8 0 15 5 15 10 0 6 -7 10 -15 10 -8 0 -15 -4 -15 -10z"></path><path id="ppD5tys3n" d="M1198 2133 c-10 -2 -18 -12 -18 -21 0 -10 3 -13 8 -7 4 6 16 11 26 10 11 0 21 6 24 13 4 12 -8 14 -40 5z"></path><path id="pUnFNIDoS" d="M2360 2126 c0 -10 9 -16 21 -16 24 0 21 23 -4 28 -10 2 -17 -3 -17 -12z"></path><path id="pw8RSn66C" d="M2410 2115 c0 -8 7 -15 15 -15 8 0 15 4 15 9 0 5 -7 11 -15 15 -9 3 -15 0 -15 -9z"></path><path id="pIpAocgOa" d="M2566 2055 c-3 -8 3 -19 14 -25 42 -23 56 -3 16 23 -21 14 -25 14 -30 2z"></path><path id="pwQ31k6ZM" d="M971 2041 c-9 -6 -10 -11 -2 -15 6 -4 11 -2 11 4 0 6 5 8 10 5 6 -3 10 -1 10 4 0 13 -10 14 -29 2z"></path><path id="po2xdM6X8" d="M2713 1953 c-20 -7 -15 -23 7 -23 11 0 20 4 20 9 0 13 -12 19 -27 14z"></path><path id="pMqalglZs" d="M2180 1285 c7 -9 19 -14 26 -11 7 3 18 -2 24 -10 13 -15 40 -19 40 -6 0 19 -38 42 -70 42 -28 0 -31 -2 -20 -15z"></path><path id="pb2fp2Of7" d="M2300 1210 c-12 -8 -12 -10 3 -16 21 -8 35 2 21 16 -5 5 -15 6 -24 0z"></path></g></g></svg>