<svg xmlns="http://www.w3.org/2000/svg" width="359" height="468" viewBox="0 0 3590 4680"><g id="l1M67toTKwK8XhpNzkyCuBc" fill="rgb(30,28,17)" style="transform: none;"><g style="transform: none;"><path id="pKez463bw" d="M1630 4637 c-3 -3 -39 -8 -80 -11 -79 -7 -230 -43 -230 -56 0 -4 -25 -12 -56 -19 -67 -15 -154 -50 -154 -62 0 -5 -7 -9 -15 -9 -19 0 -128 -56 -214 -110 -34 -22 -65 -40 -66 -40 -2 0 -16 -12 -32 -26 -32 -29 -115 -99 -156 -130 -15 -12 -27 -25 -27 -29 0 -4 -21 -28 -47 -54 -68 -67 -96 -100 -128 -148 -15 -24 -32 -43 -36 -43 -5 0 -9 -4 -9 -10 0 -5 -11 -26 -25 -46 -14 -20 -25 -43 -25 -50 0 -7 -11 -29 -24 -49 -14 -19 -36 -68 -51 -108 -15 -39 -34 -87 -42 -105 -23 -52 -41 -130 -48 -217 -10 -108 -12 -2260 -3 -2405 7 -103 12 -122 43 -185 75 -148 108 -193 220 -291 90 -79 317 -200 450 -240 33 -10 62 -21 65 -24 12 -14 142 -50 240 -66 58 -10 107 -21 110 -25 3 -3 52 -15 110 -25 154 -28 653 -28 823 0 64 11 117 23 117 28 0 4 10 8 23 8 62 0 312 61 327 80 3 3 34 14 70 25 36 10 99 36 140 57 42 21 80 38 86 38 14 0 182 107 216 137 93 83 157 158 183 214 12 27 26 54 32 61 6 7 21 40 34 73 l24 60 3 1130 c2 727 -1 1182 -7 1275 -11 146 -23 199 -79 355 -28 75 -108 244 -122 255 -4 3 -28 38 -54 78 -26 39 -53 75 -60 80 -7 4 -23 23 -36 42 -34 49 -133 150 -146 150 -7 0 -24 16 -38 35 -15 19 -33 35 -40 35 -7 0 -21 9 -32 21 -23 26 -89 71 -132 90 -18 7 -32 17 -32 21 0 10 -135 78 -155 78 -8 0 -15 4 -15 9 0 11 -83 46 -130 56 -19 4 -48 13 -65 20 -75 32 -148 52 -217 61 -62 7 -482 17 -488 11z m475 -161 c547 -111 1001 -498 1169 -996 19 -58 40 -134 45 -170 7 -38 11 -262 11 -547 l0 -483 -1516 0 -1515 0 4 523 c4 578 1 552 76 747 186 480 705 871 1247 940 95 12 394 3 479 -14z m-1659 -2438 c30 -51 296 -509 338 -583 73 -130 192 -323 204 -332 9 -8 43 -13 79 -13 54 0 65 3 77 23 16 25 74 129 108 195 12 23 24 42 27 42 4 0 32 -49 64 -108 31 -59 69 -127 84 -152 14 -25 41 -72 59 -105 18 -33 58 -107 89 -165 32 -58 73 -134 92 -170 90 -168 90 -168 137 -175 50 -8 85 1 103 24 7 9 40 66 73 126 33 61 65 117 70 125 5 8 40 69 76 135 166 300 199 354 205 347 13 -12 78 -134 120 -220 51 -107 67 -122 125 -122 80 0 70 -12 264 335 67 121 130 231 139 245 9 14 23 39 31 55 8 17 31 57 51 90 20 33 76 130 125 215 48 85 101 175 116 199 l28 45 0 -585 c0 -659 -1 -663 -72 -784 -81 -135 -163 -206 -359 -307 -127 -66 -163 -80 -304 -125 -448 -140 -996 -155 -1430 -37 -240 65 -474 170 -614 274 -121 91 -214 226 -240 348 -7 36 -11 243 -11 637 l0 585 55 0 54 0 37 -62z m964 -26 c-88 -164 -88 -163 -184 -201 l-87 -35 -72 72 -72 72 -56 0 c-64 0 -76 -9 -103 -83 -16 -44 -19 -47 -31 -30 -18 26 -118 200 -144 251 l-21 42 409 0 409 0 -48 -88z m1127 46 c-14 -24 -35 -61 -47 -83 -12 -22 -39 -69 -59 -105 -21 -36 -78 -138 -127 -228 l-89 -162 -119 -51 c-92 -38 -121 -47 -128 -37 -4 7 -20 45 -35 83 -14 39 -33 76 -42 83 -9 7 -43 12 -84 12 l-69 0 -68 -66 -69 -66 -60 21 c-34 12 -67 21 -75 21 -8 0 -26 26 -41 57 l-26 57 27 51 c15 27 65 115 111 194 46 79 98 170 114 203 l29 58 441 0 441 0 -25 -42z m549 26 c-3 -9 -43 -80 -88 -157 -45 -78 -98 -170 -117 -205 l-36 -64 -17 41 -17 41 -68 0 -67 0 -68 -67 c-101 -100 -101 -74 -1 102 25 44 66 116 91 160 25 44 59 99 74 123 l29 42 146 0 c129 0 144 -2 139 -16z m-1974 -501 l58 5 -19 -31 c-11 -18 -37 -64 -58 -104 l-39 -72 -58 101 -58 101 16 35 17 34 41 -37 c40 -36 43 -37 100 -32z m1537 -266 l-63 -116 -53 104 c-29 58 -53 107 -53 110 0 3 13 -1 30 -10 52 -27 96 -20 143 25 37 34 43 37 50 22 6 -13 -9 -51 -54 -135z m-824 -90 c40 -82 40 -82 82 -85 30 -2 56 4 93 23 l52 26 -35 -63 c-19 -35 -67 -123 -107 -196 -40 -74 -76 -130 -80 -125 -9 9 -240 423 -240 429 0 2 26 4 59 4 56 0 60 2 92 38 19 21 36 37 39 35 3 -3 23 -41 45 -86z"></path><path id="pvHH6TwhJ" d="M890 3771 c-123 -40 -170 -113 -178 -276 -8 -180 30 -274 133 -325 41 -20 65 -25 135 -25 47 0 102 4 123 8 l37 8 0 69 c0 37 -3 75 -6 84 -7 19 -42 20 -94 5 -75 -23 -134 39 -134 141 0 101 56 161 132 140 20 -5 51 -10 69 -10 31 0 33 1 39 53 4 28 8 48 10 42 3 -13 86 -290 126 -422 31 -101 32 -103 66 -109 42 -8 161 1 172 12 15 16 170 534 170 568 0 31 -15 36 -105 36 -82 0 -88 -4 -105 -73 l-12 -47 -53 0 -53 0 -6 45 c-10 65 -24 75 -111 75 -49 0 -78 -5 -87 -13 -10 -11 -17 -11 -42 2 -35 17 -186 25 -226 12z"></path><path id="p1DopNcsfk" d="M1756 3738 c-8 -18 -28 -80 -46 -138 -18 -58 -50 -160 -71 -227 -22 -68 -39 -142 -39 -168 l0 -45 84 0 c72 0 85 3 89 18 3 9 22 77 43 149 l39 133 37 -118 c21 -64 40 -131 44 -148 l6 -31 159 -7 c88 -3 211 -3 274 0 l115 7 0 79 0 78 -95 0 c-95 0 -95 0 -95 25 0 24 2 25 70 25 81 0 90 9 90 89 0 79 -2 81 -86 81 l-74 0 0 30 0 29 98 3 97 3 3 71 c2 52 -1 74 -11 83 -10 8 -66 11 -188 9 l-174 -3 -3 -270 -3 -270 -39 125 c-21 69 -58 190 -82 270 l-44 145 -92 3 -93 3 -13 -33z"></path><path id="pNkGsVwwe" d="M2537 3763 c-4 -3 -7 -140 -7 -304 l0 -297 65 -7 c108 -12 236 -2 276 21 62 36 79 75 79 176 0 93 -7 116 -46 159 l-25 26 46 81 c51 93 58 138 22 147 -12 3 -52 5 -87 3 l-65 -3 -42 -65 -43 -64 0 55 c0 30 -5 60 -12 67 -13 13 -149 17 -161 5z m198 -361 c6 -4 16 -15 24 -25 12 -15 11 -21 -9 -42 -37 -39 -50 -32 -50 25 0 49 10 61 35 42z"></path><path id="p18Bmfet4m" d="M887 3033 c-4 -3 -7 -138 -7 -299 0 -280 1 -294 19 -304 22 -11 83 -13 129 -4 l31 6 3 112 3 111 50 0 50 0 3 -111 c2 -106 4 -112 25 -118 29 -7 106 -7 135 0 l22 6 -2 302 -3 301 -85 0 -85 0 -3 -102 -3 -103 -55 0 -56 0 7 90 c9 116 6 120 -95 120 -42 0 -80 -3 -83 -7z"></path><path id="pZg8siIqm" d="M1367 3033 c-15 -15 -5 -93 22 -178 16 -49 51 -164 78 -254 41 -138 52 -164 71 -172 31 -12 108 -11 154 1 36 10 38 13 63 98 14 48 47 155 72 237 51 164 65 252 42 266 -22 14 -156 11 -166 -3 -4 -7 -15 -33 -23 -58 -15 -44 -16 -45 -60 -45 -44 0 -45 1 -60 45 -24 70 -24 70 -109 70 -43 0 -81 -3 -84 -7z"></path><path id="pg0H5H1Yy" d="M1895 3017 c-8 -29 -2 -574 6 -581 10 -11 193 -19 251 -12 73 9 132 48 153 98 23 60 20 184 -6 228 -12 19 -29 40 -38 47 -14 10 -14 15 -2 35 46 75 72 139 69 170 l-3 33 -85 0 -85 0 -40 -70 -40 -70 -3 73 -3 72 -84 0 c-79 0 -85 -1 -90 -23z m221 -352 c24 -24 25 -28 11 -48 -8 -12 -24 -23 -36 -25 -19 -3 -21 1 -21 47 0 57 9 63 46 26z"></path><path id="pPHG7lJXG" d="M2367 3033 c-4 -3 -7 -140 -7 -304 l0 -297 77 -7 c168 -16 268 10 323 86 45 63 55 103 55 229 0 96 -4 123 -21 161 -30 65 -83 114 -137 128 -49 12 -279 16 -290 4z m225 -190 c39 -43 44 -141 12 -205 -13 -24 -42 -48 -58 -48 -3 0 -6 65 -6 145 0 136 1 145 18 136 9 -5 25 -17 34 -28z"></path></g></g><g id="l1p6R8fKGelupoxvalansrY" fill="rgb(60,63,41)" style="transform: none;"><g style="transform: none;"><path id="p4xQp9qLf" d="M1648 4523 c-33 -8 -20 -33 17 -33 28 0 35 4 35 20 0 20 -14 23 -52 13z"></path><path id="plIJNReRk" d="M1940 4510 c0 -16 7 -20 35 -20 40 0 49 24 13 34 -38 10 -48 7 -48 -14z"></path><path id="ptibJB3vA" d="M1545 4513 c-11 -2 -44 -9 -72 -14 -35 -7 -53 -15 -53 -25 0 -17 13 -17 112 -2 64 10 78 16 78 30 0 18 -19 21 -65 11z"></path><path id="pd6uo4QWx" d="M2030 4503 c0 -16 12 -21 78 -31 99 -15 112 -15 112 2 0 14 -43 27 -142 41 -43 7 -48 5 -48 -12z"></path><path id="p2wQDWotG" d="M1331 4462 c-84 -32 -50 -58 40 -30 27 8 39 17 39 30 0 22 -21 22 -79 0z"></path><path id="p82YHvRb6" d="M1203 4415 c-43 -18 -42 -35 2 -35 31 0 35 3 35 25 0 14 -1 25 -2 25 -2 -1 -18 -7 -35 -15z"></path><path id="pDq39b7aN" d="M2400 4405 c0 -22 4 -25 35 -25 23 0 35 -5 35 -14 0 -17 22 -26 61 -26 44 0 35 16 -26 44 -100 48 -105 49 -105 21z"></path><path id="p3QVQRhMq" d="M1038 4336 c-56 -29 -88 -51 -88 -58 0 -4 16 -8 35 -8 24 0 35 5 35 15 0 9 9 15 25 15 20 0 25 5 25 25 0 29 2 29 -32 11z"></path><path id="p1CYzGBSWE" d="M2600 4306 c0 -25 16 -36 56 -36 17 0 24 -6 24 -20 0 -11 7 -20 15 -20 8 0 15 -4 15 -10 0 -5 9 -10 20 -10 11 0 20 -7 20 -15 0 -8 8 -15 19 -15 10 0 21 -9 24 -20 3 -11 14 -20 25 -20 11 0 22 -9 25 -20 3 -12 14 -20 26 -20 14 0 21 -6 21 -20 0 -16 7 -20 37 -20 l37 0 -30 31 c-57 61 -300 239 -326 239 -4 0 -8 -11 -8 -24z"></path><path id="p1HWRcXRFr" d="M657 4048 c-48 -49 -50 -53 -29 -56 34 -5 52 5 52 28 0 13 7 20 20 20 16 0 20 7 20 30 0 17 -2 30 -5 30 -3 0 -29 -24 -58 -52z"></path><path id="p2zQ6gGe4" d="M2972 4015 c3 -37 5 -40 36 -43 29 -3 32 -6 32 -38 0 -24 5 -34 15 -34 8 0 15 -9 15 -20 0 -11 5 -20 10 -20 6 0 10 -7 10 -15 0 -10 10 -15 31 -15 l30 0 -41 58 c-22 31 -63 82 -90 112 l-50 55 2 -40z"></path><path id="p1VFd2cYf" d="M562 3945 l-33 -40 27 -3 c35 -5 46 8 42 49 l-3 34 -33 -40z"></path><path id="pT3tckADn" d="M488 3843 c-49 -58 -178 -332 -178 -379 0 -8 9 -14 20 -14 15 0 21 9 26 40 4 22 10 40 15 40 5 0 9 11 9 24 0 13 3 26 8 28 14 6 42 79 42 108 0 23 4 30 20 30 16 0 20 7 20 35 0 28 4 35 20 35 16 0 20 7 20 35 0 40 -1 41 -22 18z"></path><path id="paJw5uNrJ" d="M1000 3767 c0 -10 17 -19 50 -27 63 -15 74 -28 65 -80 -6 -33 -10 -40 -23 -35 -42 17 -119 17 -150 1 -27 -14 -52 -43 -52 -60 0 -15 45 -4 61 15 17 20 25 21 94 14 65 -6 75 -5 75 9 0 9 7 16 15 16 10 0 15 11 16 33 1 23 3 26 6 10 2 -13 9 -23 14 -23 5 0 9 -12 9 -27 0 -14 8 -50 17 -80 12 -38 22 -53 35 -53 22 0 23 15 2 71 -8 24 -24 74 -34 111 l-19 68 25 6 c38 10 30 34 -11 34 -19 0 -35 -4 -35 -10 0 -13 -47 -13 -52 0 -2 6 -27 13 -56 17 -43 5 -52 3 -52 -10z"></path><path id="p1DiKtXVyZ" d="M1260 3756 c0 -8 11 -17 25 -20 24 -6 45 -52 45 -98 0 -11 8 -18 20 -18 11 0 20 4 20 10 0 28 -24 116 -36 127 -17 18 -74 17 -74 -1z"></path><path id="pEoFdEqbv" d="M1746 3723 c-9 -26 -16 -59 -16 -75 0 -48 25 -32 44 28 12 38 24 58 37 61 33 9 22 33 -15 33 -32 0 -35 -3 -50 -47z"></path><path id="pa3sQFrde" d="M2420 3757 c0 -8 9 -17 21 -20 11 -3 23 -15 26 -26 3 -12 12 -21 20 -21 10 0 13 10 11 38 -3 35 -5 37 -40 40 -28 2 -38 -1 -38 -11z"></path><path id="p6OV4BFE1" d="M2526 3748 c-3 -13 -6 -143 -6 -290 0 -261 0 -268 20 -268 20 0 20 7 20 271 0 262 1 271 20 276 34 9 24 33 -14 33 -26 0 -35 -5 -40 -22z"></path><path id="pRvs9kL5W" d="M2787 3763 c-9 -8 -9 -73 -1 -73 3 0 15 11 26 25 11 14 26 25 34 25 8 0 14 7 14 15 0 10 -10 15 -33 15 -19 0 -37 -3 -40 -7z"></path><path id="p9kpaDRJ4" d="M833 3753 c-7 -2 -13 -11 -13 -18 0 -8 -10 -15 -22 -17 -15 -2 -24 -11 -26 -25 -2 -13 -10 -23 -17 -23 -16 0 -45 -87 -45 -137 0 -53 26 -42 39 17 19 86 57 138 129 174 17 9 32 21 32 26 0 10 -55 12 -77 3z"></path><path id="pB3FwigPY" d="M1637 3738 l21 -10 -19 -56 c-24 -69 -24 -82 -1 -82 13 0 23 15 35 53 9 30 17 66 17 80 0 25 -3 27 -37 26 -34 0 -36 -2 -16 -11z"></path><path id="p1BiOuwKBd" d="M1956 3633 c18 -60 48 -159 65 -220 22 -81 36 -113 46 -113 13 0 15 9 10 46 -2 26 -9 49 -14 53 -6 3 -13 26 -16 52 -8 57 -56 213 -68 217 -5 2 -9 19 -9 38 0 29 -3 34 -24 34 l-24 0 34 -107z"></path><path id="pPjqqKoOx" d="M2887 3635 c-26 -47 -47 -88 -47 -90 0 -3 11 -5 25 -5 22 0 25 4 25 35 0 27 4 35 18 35 11 0 24 11 30 25 14 30 16 85 4 85 -5 0 -29 -38 -55 -85z"></path><path id="pnOl770VS" d="M1470 3655 c0 -40 24 -49 34 -12 10 37 7 47 -14 47 -16 0 -20 -7 -20 -35z"></path><path id="pcZwzNDkT" d="M2730 3645 c0 -43 10 -44 33 -6 22 38 22 41 -8 41 -22 0 -25 -4 -25 -35z"></path><path id="pg71UWGPI" d="M2130 3635 c0 -19 5 -35 10 -35 6 0 10 16 10 35 0 19 -4 35 -10 35 -5 0 -10 -16 -10 -35z"></path><path id="po6TLXw5C" d="M2470 3654 c0 -9 -9 -18 -20 -21 -35 -9 -24 -33 15 -33 33 0 35 2 35 35 0 24 -5 35 -15 35 -8 0 -15 -7 -15 -16z"></path><path id="pW9nHgW1I" d="M3233 3603 c3 -26 10 -49 16 -51 6 -2 11 -15 11 -28 0 -19 5 -24 25 -24 l24 0 -25 67 c-30 79 -32 83 -46 83 -7 0 -9 -17 -5 -47z"></path><path id="p17POxE2CP" d="M2676 3608 c-12 -45 -7 -68 14 -68 22 0 50 42 31 48 -6 2 -11 12 -11 23 0 27 -26 24 -34 -3z"></path><path id="p17Cz56gd6" d="M1847 3573 c-9 -17 -29 -114 -24 -119 9 -9 67 7 67 17 0 6 -5 30 -11 55 -11 44 -23 62 -32 47z"></path><path id="pnrKiReaN" d="M1576 3463 c-42 -144 -41 -143 -19 -143 21 0 43 53 43 103 0 14 5 27 10 29 6 2 13 27 17 56 5 41 3 52 -9 52 -9 0 -23 -32 -42 -97z"></path><path id="p1B7Hhogyy" d="M1672 3485 c-16 -60 -15 -95 2 -95 8 0 20 24 30 58 20 74 20 82 -2 82 -13 0 -21 -13 -30 -45z"></path><path id="pWmQq98yR" d="M2130 3490 c0 -22 5 -40 10 -40 6 0 10 18 10 40 0 22 -4 40 -10 40 -5 0 -10 -18 -10 -40z"></path><path id="p3gQk1RyT" d="M1424 3479 c-4 -22 -13 -43 -20 -46 -8 -3 -14 -10 -14 -17 0 -23 21 -86 29 -86 4 0 16 33 25 73 10 39 20 82 23 95 4 17 1 22 -16 22 -17 0 -22 -8 -27 -41z"></path><path id="pFutNveb6" d="M2390 3513 c14 -3 28 -10 32 -17 14 -21 8 -66 -12 -86 l-20 -20 35 0 c33 0 35 2 35 35 0 19 -4 35 -10 35 -5 0 -10 14 -10 30 0 28 -2 30 -37 29 -28 -1 -32 -3 -13 -6z"></path><path id="pyOfcHk21" d="M2871 3482 c19 -22 38 -41 42 -41 5 -1 7 16 5 37 -3 35 -5 37 -42 40 l-40 3 35 -39z"></path><path id="p72Ojw2iO" d="M3293 3443 c2 -21 11 -73 18 -115 11 -65 17 -78 32 -78 17 0 18 5 12 53 -13 96 -36 177 -52 177 -12 0 -14 -9 -10 -37z"></path><path id="pfQLUMTrY" d="M1240 3426 c0 -52 12 -86 31 -86 22 0 23 6 8 66 -12 47 -39 61 -39 20z"></path><path id="p19MwtKlTV" d="M2677 3443 c-17 -16 -5 -33 24 -33 43 0 59 -20 59 -76 0 -46 0 -47 20 -29 23 21 27 80 7 106 -24 32 -91 52 -110 32z"></path><path id="pV1sBoMUp" d="M1880 3395 c0 -28 4 -35 20 -35 22 0 26 20 10 51 -16 30 -30 23 -30 -16z"></path><path id="p5JUUGgkR" d="M710 3398 c0 -50 13 -98 26 -98 9 0 14 -11 14 -30 0 -27 3 -30 30 -30 l30 0 -24 38 c-14 20 -30 61 -36 90 -12 53 -40 75 -40 30z"></path><path id="p18c5lH1Ea" d="M286 3373 c-2 -16 -8 -49 -11 -75 -6 -43 -4 -48 13 -48 16 0 20 10 26 53 3 28 6 62 6 75 0 32 -27 28 -34 -5z"></path><path id="pVUKyLq50" d="M1777 3333 c-8 -32 -20 -77 -27 -100 l-11 -43 -56 0 c-54 0 -55 1 -51 25 5 26 1 29 -26 19 -10 -4 -16 -18 -16 -39 0 -30 3 -33 38 -39 55 -9 92 -7 92 4 0 6 13 10 28 10 26 0 30 4 40 51 7 28 12 61 12 75 0 13 5 24 10 24 6 0 10 16 10 35 0 56 -25 43 -43 -22z"></path><path id="p1AnQMR7cX" d="M2670 3330 c0 -43 3 -50 20 -50 17 0 20 7 20 50 0 43 -3 50 -20 50 -17 0 -20 -7 -20 -50z"></path><path id="p18818lj6O" d="M890 3354 c0 -17 24 -46 50 -59 40 -21 60 -19 60 5 0 13 -7 20 -18 20 -10 0 -24 9 -32 20 -13 18 -60 29 -60 14z"></path><path id="pIWi8xz3i" d="M1910 3305 c0 -51 23 -115 42 -115 22 0 22 8 2 82 -17 60 -44 80 -44 33z"></path><path id="pv5VH5fIF" d="M1020 3300 c0 -22 16 -25 54 -10 23 8 26 7 32 -15 10 -39 34 -31 34 10 l0 35 -60 0 c-53 0 -60 -2 -60 -20z"></path><path id="pR1z4kQ68" d="M1504 3228 c-8 -26 -17 -34 -47 -41 -48 -12 -50 -37 -2 -37 28 0 35 4 35 20 0 15 7 20 25 20 22 0 25 4 25 35 0 45 -24 47 -36 3z"></path><path id="p1FqOtdvo8" d="M2082 3215 c5 -23 2 -25 -28 -25 -27 0 -34 -4 -34 -20 0 -16 7 -20 35 -20 19 0 35 5 35 10 0 6 7 10 15 10 10 0 15 11 15 35 0 29 -4 35 -21 35 -17 0 -20 -5 -17 -25z"></path><path id="ph4XHjbWw" d="M2843 3208 c-42 -26 -42 -38 2 -38 32 0 35 2 35 30 0 17 -1 30 -2 29 -2 0 -18 -10 -35 -21z"></path><path id="p3PU9rjfD" d="M1112 3209 c-3 -30 -116 -45 -189 -26 -53 14 -53 14 -53 -9 0 -20 6 -23 56 -30 50 -6 183 1 192 11 2 1 2 18 -1 37 -2 18 -5 26 -5 17z"></path><path id="piYOc72Io" d="M1331 3188 c-1 -37 0 -38 34 -38 44 0 48 26 6 35 -17 3 -32 14 -34 23 -3 9 -5 0 -6 -20z"></path><path id="p2Tq01QUc" d="M2141 3188 l-1 -38 170 0 170 0 0 35 c0 19 -4 35 -10 35 -5 0 -10 -7 -10 -15 0 -12 -16 -15 -77 -16 -43 -1 -100 -3 -128 -4 -69 -4 -103 3 -108 23 -3 9 -5 0 -6 -20z"></path><path id="pZW9kXXpm" d="M2570 3170 c0 -17 7 -20 40 -20 45 0 57 23 18 34 -42 11 -58 7 -58 -14z"></path><path id="pU79i4xB0" d="M990 3027 c0 -7 10 -17 23 -22 21 -10 22 -14 19 -107 -4 -94 -3 -98 17 -98 20 0 21 5 21 98 0 131 -4 142 -46 142 -21 0 -34 -5 -34 -13z"></path><path id="pfe9C1Pyr" d="M1166 3024 c-3 -9 -6 -63 -6 -120 0 -97 1 -104 20 -104 19 0 20 7 20 101 0 92 2 101 20 106 11 3 20 12 20 19 0 20 -66 19 -74 -2z"></path><path id="puD7FxYFJ" d="M1280 3025 c0 -8 7 -15 16 -15 9 0 18 -9 21 -20 9 -35 33 -24 33 15 0 33 -2 35 -35 35 -24 0 -35 -5 -35 -15z"></path><path id="pvREENGDt" d="M1360 3005 c0 -39 24 -50 33 -15 3 11 12 20 21 20 9 0 16 7 16 15 0 10 -11 15 -35 15 -33 0 -35 -2 -35 -35z"></path><path id="picQOgk70" d="M1691 3018 c-5 -13 -12 -38 -16 -55 -6 -32 -8 -33 -61 -33 -53 0 -54 0 -54 30 0 23 -4 30 -20 30 -24 0 -25 -18 -5 -66 l14 -35 73 3 73 3 16 50 c10 32 23 54 37 60 34 15 27 35 -13 35 -28 0 -37 -5 -44 -22z"></path><path id="pVaasx1pp" d="M1800 3026 c0 -8 11 -17 25 -20 29 -7 30 -16 10 -82 -19 -64 -19 -74 5 -74 16 0 20 7 20 35 0 19 5 35 10 35 6 0 10 9 10 20 0 13 7 20 19 20 12 0 21 9 25 25 4 14 13 25 21 25 8 0 15 4 15 9 0 4 -28 11 -61 15 -87 9 -99 8 -99 -8z"></path><path id="p7VfMzNJM" d="M2260 3025 c0 -8 6 -15 14 -15 8 0 17 -4 20 -8 6 -10 -30 -84 -75 -153 l-31 -49 23 -20 c13 -11 27 -19 30 -20 3 0 15 -18 28 -40 27 -49 41 -51 41 -6 0 35 -35 86 -59 86 -6 0 -11 5 -11 10 0 6 5 10 10 10 6 0 10 11 10 25 0 16 6 25 15 25 8 0 15 9 15 20 0 11 5 20 10 20 6 0 10 9 10 20 0 11 5 20 10 20 6 0 10 20 10 45 0 45 0 45 -35 45 -24 0 -35 -5 -35 -15z"></path><path id="p1GbdZ29T4" d="M2356 3009 c-11 -58 -8 -79 14 -79 16 0 20 7 20 36 0 27 5 37 20 41 34 9 24 33 -14 33 -30 0 -34 -4 -40 -31z"></path><path id="p8YkpF5DQ" d="M2570 3027 c0 -10 17 -19 51 -27 38 -9 62 -23 90 -53 22 -21 39 -43 39 -48 0 -5 5 -9 11 -9 6 0 9 16 7 38 -2 30 -7 38 -25 40 -15 2 -23 10 -23 23 0 12 -7 19 -19 19 -11 0 -21 5 -23 11 -2 6 -27 14 -56 17 -42 4 -52 2 -52 -11z"></path><path id="pF0uKcPoj" d="M2040 2970 c0 -33 3 -40 20 -40 17 0 20 7 20 40 0 33 -3 40 -20 40 -17 0 -20 -7 -20 -40z"></path><path id="pozdIATPa" d="M2126 2994 c-3 -9 -6 -29 -6 -45 0 -22 -5 -29 -20 -29 -15 0 -20 -7 -20 -25 0 -16 -6 -25 -15 -25 -9 0 -15 -9 -15 -25 0 -48 28 -25 83 70 l56 95 -29 0 c-16 0 -30 -7 -34 -16z"></path><path id="pnyrk2HNt" d="M2508 2904 c-3 -3 -4 -14 -1 -25 8 -28 33 -24 33 6 0 23 -18 34 -32 19z"></path><path id="pcaNfr13q" d="M1390 2878 c0 -13 14 -74 31 -135 26 -92 36 -113 51 -113 24 0 24 1 -17 140 -19 66 -35 122 -35 125 0 3 -7 5 -15 5 -9 0 -15 -9 -15 -22z"></path><path id="pjH4jBavK" d="M2600 2857 c0 -21 5 -37 11 -37 8 0 10 -27 7 -90 -4 -78 -7 -92 -28 -110 -12 -11 -27 -20 -32 -20 -4 0 -8 -9 -8 -20 0 -39 60 -18 85 30 36 70 27 227 -16 266 -18 17 -19 16 -19 -19z"></path><path id="p9K7Y4rQL" d="M2778 2820 c9 -37 20 -60 28 -60 15 0 17 24 8 83 -5 30 -11 37 -29 37 -21 0 -21 0 -7 -60z"></path><path id="p5x3rG7r0" d="M1566 2793 c-4 -5 41 -183 49 -191 6 -6 14 16 17 43 1 11 -4 48 -11 82 -10 44 -18 63 -32 66 -10 3 -20 3 -23 0z"></path><path id="p9i21keZT" d="M1630 2755 c0 -40 24 -49 34 -12 10 37 7 47 -14 47 -16 0 -20 -7 -20 -35z"></path><path id="ppM3JBSw2" d="M1320 2611 l0 -149 -30 -7 c-16 -4 -43 -4 -60 0 l-29 6 -3 112 c-3 97 -5 112 -20 115 -16 3 -18 -8 -18 -122 0 -105 2 -126 15 -126 8 0 15 -4 15 -10 0 -6 30 -10 69 -10 72 0 81 6 81 51 0 10 5 19 10 19 6 0 10 52 10 135 0 128 -1 135 -20 135 -19 0 -20 -7 -20 -149z"></path><path id="pvOmZHdbp" d="M1751 2648 c-17 -62 -31 -116 -31 -120 0 -5 8 -8 19 -8 20 0 31 25 31 73 0 15 4 27 8 27 10 0 32 81 32 115 0 14 -6 25 -13 25 -9 0 -25 -40 -46 -112z"></path><path id="pEbdsWt2P" d="M2785 2683 c-4 -21 -10 -50 -15 -65 -8 -25 -7 -28 14 -28 19 0 24 7 30 38 10 62 7 92 -9 92 -9 0 -16 -14 -20 -37z"></path><path id="pyWePT9Lf" d="M1037 2683 c-4 -3 -7 -55 -7 -114 l0 -107 -39 -7 c-43 -7 -81 7 -81 30 0 8 -7 15 -15 15 -21 0 -21 -66 1 -74 9 -3 45 -6 80 -6 50 0 64 3 64 15 0 8 7 15 15 15 13 0 15 20 15 120 0 93 -3 120 -13 120 -8 0 -17 -3 -20 -7z"></path><path id="p15e17pNqV" d="M2130 2621 c0 -19 -25 -31 -68 -31 -17 0 -23 -5 -20 -17 5 -26 87 -19 111 9 24 28 22 58 -3 58 -13 0 -20 -7 -20 -19z"></path><path id="pwHnUQjvO" d="M2278 2563 c-11 -31 -28 -55 -48 -68 -40 -27 -38 -37 8 -33 30 2 38 7 40 26 2 12 9 22 17 22 14 0 25 30 25 73 0 43 -24 32 -42 -20z"></path><path id="pZLhv25gJ" d="M2510 2601 c0 -5 -3 -16 -6 -25 -4 -12 0 -16 15 -16 16 0 21 6 21 25 0 16 -6 25 -15 25 -8 0 -15 -4 -15 -9z"></path><path id="phuJgcE2e" d="M1480 2574 c0 -50 22 -104 42 -104 13 0 18 -7 18 -25 0 -24 3 -25 59 -25 32 0 73 3 90 6 28 6 31 10 31 42 l0 36 -20 -21 c-23 -25 -94 -39 -130 -25 -20 8 -29 23 -44 76 -19 68 -46 91 -46 40z"></path><path id="pPTL6pNdS" d="M2732 2545 l-22 -35 30 0 c28 0 30 3 30 35 0 44 -9 44 -38 0z"></path><path id="pQL4FMEQQ" d="M1890 2500 l0 -50 35 0 c24 0 35 -5 35 -15 0 -10 11 -15 35 -15 23 0 35 5 35 14 0 15 -30 26 -72 26 -19 0 -28 5 -30 18 0 9 -2 22 -3 27 -2 6 -3 18 -4 28 0 9 -8 17 -16 17 -11 0 -15 -12 -15 -50z"></path><path id="pE8PM3CJX" d="M2650 2476 c-14 -7 -42 -16 -62 -20 -50 -9 -52 -36 -3 -36 19 0 35 5 35 10 0 6 16 10 35 10 31 0 35 3 35 25 0 28 -5 30 -40 11z"></path><path id="pYBtxh3qO" d="M2118 2453 c-33 -8 -20 -33 17 -33 28 0 35 4 35 20 0 20 -14 23 -52 13z"></path><path id="pPFeCT1sX" d="M2420 2440 c0 -16 7 -20 35 -20 40 0 49 24 13 34 -38 10 -48 7 -48 -14z"></path><path id="pIbGIP9I6" d="M760 2270 c0 -16 7 -20 35 -20 28 0 35 4 35 20 0 16 -7 20 -35 20 -28 0 -35 -4 -35 -20z"></path><path id="piCDYetvo" d="M1200 2270 c0 -16 7 -20 35 -20 28 0 35 4 35 20 0 16 -7 20 -35 20 -28 0 -35 -4 -35 -20z"></path><path id="p1DlPeTO77" d="M1290 2270 c0 -16 7 -20 35 -20 28 0 35 4 35 20 0 16 -7 20 -35 20 -28 0 -35 -4 -35 -20z"></path><path id="psQw7JlG3" d="M1760 2270 c0 -18 7 -20 85 -20 78 0 85 2 85 20 0 18 -7 20 -85 20 -78 0 -85 -2 -85 -20z"></path><path id="pIUo3jfvP" d="M2220 2270 c0 -16 7 -20 35 -20 28 0 35 4 35 20 0 16 -7 20 -35 20 -28 0 -35 -4 -35 -20z"></path><path id="pPp0s8lUu" d="M2752 2104 c-52 -80 -232 -396 -232 -407 0 -4 11 -7 23 -7 25 0 47 33 47 70 0 11 7 20 15 20 9 0 15 9 15 25 0 14 6 25 13 25 8 0 22 19 33 43 10 23 24 48 31 55 7 7 13 20 13 28 0 8 4 14 9 14 5 0 15 16 22 35 7 19 17 35 21 35 4 0 8 7 8 15 0 8 5 15 10 15 6 0 10 7 10 15 0 8 7 15 15 15 8 0 15 7 15 15 0 8 -4 15 -9 15 -5 0 -15 2 -23 5 -7 3 -23 -11 -36 -31z"></path><path id="pHrOmsAfq" d="M270 1515 c0 -656 1 -678 50 -775 79 -157 196 -259 425 -370 280 -136 544 -199 917 -221 375 -21 735 31 1093 157 73 26 292 141 350 184 108 80 201 207 236 323 17 57 18 106 19 689 l0 628 -28 0 c-33 0 -37 -6 -194 -280 -52 -91 -106 -183 -119 -205 -13 -22 -31 -53 -39 -70 -8 -16 -22 -41 -31 -55 -9 -14 -71 -124 -139 -245 -156 -280 -184 -323 -214 -331 -40 -10 -63 12 -110 108 -26 51 -71 139 -100 196 -53 100 -55 103 -69 80 -15 -23 -104 -181 -224 -398 -35 -63 -68 -122 -73 -130 -5 -8 -37 -64 -70 -125 -83 -151 -81 -149 -137 -146 -22 1 -37 23 -116 171 -19 36 -60 112 -92 170 -31 58 -71 132 -89 165 -18 33 -43 78 -56 100 -53 90 -170 309 -170 317 0 24 -20 0 -53 -64 -45 -89 -103 -195 -123 -225 -16 -26 -70 -32 -96 -10 -12 9 -131 202 -204 332 -42 74 -308 532 -338 583 l-37 62 -84 0 -85 0 0 -615z"></path><path id="p12JBQO9wI" d="M1460 2111 c-5 -11 -10 -33 -10 -50 0 -23 -5 -31 -18 -31 -13 0 -25 -15 -38 -42 -10 -24 -24 -49 -31 -56 -7 -7 -13 -24 -13 -38 0 -15 -6 -24 -15 -24 -8 0 -20 -9 -27 -20 -7 -11 -23 -20 -35 -20 -14 0 -23 -6 -23 -15 0 -10 -11 -15 -35 -15 -19 0 -35 -4 -35 -10 0 -21 -38 -8 -70 25 -26 26 -44 34 -70 35 l-34 0 49 -51 c28 -28 57 -54 65 -59 10 -5 51 7 120 35 118 49 113 43 228 258 52 96 53 97 28 97 -15 0 -30 -8 -36 -19z"></path><path id="pGnpuapvd" d="M1624 2078 c-15 -29 -69 -125 -120 -214 -52 -88 -94 -164 -94 -167 0 -4 11 -7 24 -7 17 0 27 7 32 22 3 12 13 28 20 36 8 7 14 24 14 38 0 14 6 24 14 24 15 0 26 21 26 51 0 10 7 19 15 19 9 0 15 9 15 25 0 15 6 25 14 25 17 0 26 22 26 61 0 21 5 29 18 29 11 0 25 14 35 35 40 84 2 105 -39 23z"></path><path id="pXus2gnaI" d="M2110 2105 c0 -22 4 -25 35 -25 31 0 35 3 35 25 0 22 -4 25 -35 25 -31 0 -35 -3 -35 -25z"></path><path id="pjtpYKvdj" d="M2210 2105 c0 -22 4 -25 35 -25 31 0 35 3 35 25 0 22 -4 25 -35 25 -31 0 -35 -3 -35 -25z"></path><path id="p13jWCyHDO" d="M2580 2115 c0 -8 -6 -15 -13 -15 -16 0 -37 -41 -37 -70 0 -11 -7 -20 -15 -20 -8 0 -15 -9 -15 -20 0 -11 -4 -20 -10 -20 -5 0 -10 -11 -10 -25 0 -16 -6 -25 -15 -25 -9 0 -15 -9 -15 -25 0 -15 -6 -25 -14 -25 -17 0 -26 -22 -26 -61 0 -21 -5 -29 -18 -29 -22 0 -52 -58 -52 -100 0 -23 -4 -30 -20 -30 -15 0 -20 -7 -20 -25 0 -14 -6 -25 -13 -25 -7 0 -21 -16 -30 -35 -18 -37 -23 -95 -9 -95 4 0 46 69 92 153 46 83 100 181 121 217 20 36 46 82 58 103 12 21 39 70 61 108 22 39 40 73 40 75 0 2 -9 4 -20 4 -11 0 -20 -7 -20 -15z"></path><path id="pgB31e6d1" d="M3113 2123 c-7 -2 -13 -20 -13 -39 0 -27 -4 -34 -20 -34 -11 0 -20 -7 -20 -15 0 -8 -4 -15 -8 -15 -5 0 -17 -19 -28 -42 -10 -24 -24 -49 -31 -56 -7 -7 -13 -20 -13 -28 0 -8 -4 -14 -10 -14 -5 0 -10 -9 -10 -20 0 -11 -4 -20 -10 -20 -5 0 -10 -11 -10 -25 0 -16 -6 -25 -15 -25 -8 0 -15 -7 -15 -15 0 -8 -4 -15 -8 -15 -11 0 -42 -66 -43 -93 -1 -17 -4 -14 -16 16 -10 24 -22 37 -34 37 -11 0 -19 7 -19 15 0 11 -13 15 -54 15 -50 0 -59 -4 -100 -42 -38 -34 -46 -47 -46 -77 l0 -35 58 58 c54 53 62 57 98 54 38 -3 39 -4 58 -63 11 -33 21 -67 23 -74 4 -15 20 10 163 259 46 80 103 178 127 219 23 40 43 75 43 77 0 5 -32 3 -47 -3z"></path><path id="pXE8gMWRB" d="M590 2105 c0 -9 148 -271 193 -342 15 -24 27 -47 27 -53 0 -5 4 -10 9 -10 4 0 21 35 36 78 15 42 35 85 43 95 17 20 62 23 80 5 9 -9 12 -5 12 20 0 31 -2 32 -39 32 -56 0 -91 -15 -91 -40 0 -11 -4 -20 -10 -20 -5 0 -13 -18 -16 -39 -7 -45 -34 -65 -34 -26 0 14 -4 25 -8 25 -4 0 -14 16 -21 35 -7 19 -19 35 -27 35 -8 0 -14 10 -14 25 0 14 -4 25 -10 25 -5 0 -10 6 -10 13 0 21 -44 97 -57 97 -7 0 -13 11 -13 25 0 20 -5 25 -25 25 -14 0 -25 -2 -25 -5z"></path><path id="pRScjKiTQ" d="M970 1678 c0 -35 32 -78 58 -78 7 0 12 -4 12 -10 0 -5 25 -10 55 -10 52 0 55 1 55 25 0 22 -2 24 -26 15 -38 -15 -41 -14 -100 41 l-54 52 0 -35z"></path><path id="pS8RgVMkn" d="M1377 1641 c-9 -16 -17 -36 -17 -44 0 -27 62 -147 76 -147 8 0 52 -13 98 -29 80 -28 85 -28 100 -12 15 16 12 19 -37 34 -30 9 -63 17 -75 17 -12 0 -22 4 -22 9 0 5 -10 11 -23 15 -32 8 -72 94 -68 147 3 46 -8 50 -32 10z"></path><path id="pdnk6bfRH" d="M2487 1641 c-22 -38 -22 -38 13 -56 38 -20 40 -19 40 10 0 14 -4 25 -10 25 -5 0 -10 11 -10 25 0 33 -12 32 -33 -4z"></path><path id="plwBcqli" d="M910 1621 l-19 -39 81 -141 82 -141 18 28 c24 36 23 42 -7 42 -20 0 -25 5 -25 25 0 18 -5 25 -20 25 -15 0 -20 7 -20 29 0 39 -9 61 -26 61 -8 0 -14 10 -14 25 0 16 -6 25 -15 25 -12 0 -13 4 -5 19 13 25 13 81 0 81 -5 0 -19 -18 -30 -39z"></path><path id="pi5W0ZfKh" d="M1180 1614 c0 -8 -7 -22 -15 -30 -16 -16 -21 -84 -7 -84 8 0 72 112 72 125 0 3 -11 5 -25 5 -16 0 -25 -6 -25 -16z"></path><path id="pkiAg6OOs" d="M1743 1574 c-7 -3 -13 -14 -13 -25 0 -14 -7 -19 -25 -19 -22 0 -25 -4 -25 -36 l0 -37 45 42 c36 33 52 41 83 41 21 0 45 -6 53 -12 8 -7 32 -57 54 -111 21 -54 43 -96 49 -94 14 5 20 57 7 57 -6 0 -11 11 -11 24 0 14 -6 31 -13 38 -8 7 -17 30 -21 51 -4 21 -13 37 -21 37 -7 0 -15 10 -17 23 -3 20 -9 22 -68 24 -36 1 -71 -1 -77 -3z"></path><path id="pGPPxIz8T" d="M2692 1538 c-17 -17 -15 -48 4 -48 13 0 15 -7 10 -37 -4 -21 -9 -55 -12 -75 -4 -27 -11 -38 -23 -38 -21 0 -61 -79 -61 -120 0 -45 14 -36 50 33 18 34 47 89 65 122 l33 60 -27 58 c-21 45 -29 55 -39 45z"></path><path id="pvQBsXwjO" d="M2400 1485 c0 -17 62 -125 72 -125 18 0 2 103 -19 118 -17 12 -53 17 -53 7z"></path><path id="p13MXNPFkV" d="M2150 1445 c0 -10 -11 -15 -35 -15 -19 0 -35 -4 -35 -10 0 -5 -11 -10 -25 -10 -20 0 -25 -5 -25 -25 l0 -25 48 19 c148 60 177 81 107 81 -24 0 -35 -5 -35 -15z"></path><path id="pWr2zOjzV" d="M2595 1434 c-11 -8 -25 -12 -32 -10 -8 3 -13 -2 -13 -14 0 -16 7 -20 35 -20 32 0 35 2 35 30 0 35 1 34 -25 14z"></path><path id="p1RYp8f29" d="M1767 1377 c-14 -22 -14 -25 4 -38 10 -7 19 -23 19 -34 0 -30 15 -47 38 -43 20 3 20 4 -5 63 -32 77 -37 81 -56 52z"></path><path id="pDmbFuWKd" d="M2480 1326 c0 -3 23 -50 51 -106 36 -70 55 -97 60 -88 5 7 9 21 9 30 0 27 -32 88 -47 88 -7 0 -13 11 -13 24 0 40 -11 56 -36 56 -13 0 -24 -2 -24 -4z"></path><path id="p15TCK0Auk" d="M1510 1295 c0 -12 75 -135 82 -135 4 0 8 16 8 35 0 28 -4 35 -20 35 -11 0 -20 4 -20 9 0 6 12 6 32 0 18 -5 48 -9 65 -9 28 0 33 4 33 23 0 20 -4 23 -29 19 -16 -2 -54 3 -84 12 -60 18 -67 19 -67 11z"></path><path id="p1EQvIFgmf" d="M2078 1247 c-59 -28 -74 -47 -38 -47 15 0 20 -7 20 -25 0 -17 -5 -25 -18 -25 -22 0 -52 -58 -52 -100 0 -45 14 -36 50 33 18 34 48 88 67 120 19 31 33 61 31 65 -2 4 -29 -6 -60 -21z"></path><path id="p1GHAEjhOV" d="M1840 1205 c0 -32 2 -35 30 -35 20 0 30 -5 30 -15 0 -10 10 -15 30 -15 46 0 80 20 80 47 0 28 -1 28 -50 3 -52 -27 -57 -26 -81 15 -12 19 -25 35 -30 35 -5 0 -9 -16 -9 -35z"></path><path id="pGZgsitx3" d="M1602 1131 c11 -31 184 -331 190 -331 12 0 10 56 -4 85 -6 14 -19 25 -30 25 -14 0 -18 8 -18 35 0 28 -4 35 -20 35 -15 0 -20 7 -20 29 0 42 -10 61 -31 61 -15 0 -19 7 -19 35 0 31 -3 35 -26 35 -14 0 -24 -4 -22 -9z"></path><path id="pG0ZQ9dKy" d="M1900 905 c0 -14 -6 -25 -13 -25 -14 0 -47 -60 -47 -85 0 -8 -9 -15 -20 -15 -23 0 -24 -1 -8 -35 14 -31 19 -31 37 -2 23 35 101 177 101 182 0 3 -11 5 -25 5 -20 0 -25 -5 -25 -25z"></path></g></g><g id="l1FjkFgV5VpXmIWooknTltC" fill="rgb(93,85,57)" style="transform: none;"><g style="transform: none;"><path id="pap2VcHSO" d="M1658 4523 c-36 -9 -20 -33 22 -33 33 0 40 3 40 20 0 20 -20 24 -62 13z"></path><path id="pLcp9veA4" d="M1910 4510 c0 -17 7 -20 45 -20 49 0 64 23 23 34 -45 12 -68 7 -68 -14z"></path><path id="pD2JEHAvx" d="M1539 4510 c-118 -20 -159 -32 -159 -46 0 -18 14 -18 138 3 85 14 102 20 102 35 0 19 -8 20 -81 8z"></path><path id="pCu0koWbp" d="M2020 4502 c0 -15 13 -20 75 -30 41 -6 123 -27 183 -47 60 -19 116 -35 125 -35 10 0 17 -4 17 -10 0 -5 16 -10 36 -10 24 0 34 4 32 13 -9 27 -288 115 -415 131 -47 6 -53 5 -53 -12z"></path><path id="pNKXgICdp" d="M1226 4422 c-38 -15 -71 -33 -74 -39 -6 -19 44 -16 101 4 37 14 47 22 47 40 0 13 -1 23 -2 23 -2 -1 -34 -13 -72 -28z"></path><path id="pnuTv5sOU" d="M2540 4337 c0 -27 34 -47 80 -47 43 0 37 13 -19 43 -59 33 -61 33 -61 4z"></path><path id="p1BAval4pY" d="M979 4299 c-84 -50 -216 -147 -239 -174 -11 -13 -7 -15 25 -15 28 0 38 5 42 20 3 11 14 20 25 20 11 0 22 9 25 20 3 11 14 20 24 20 11 0 19 5 19 10 0 6 7 10 15 10 8 0 15 5 15 10 0 6 7 10 15 10 8 0 15 5 15 10 0 6 7 10 15 10 8 0 15 7 15 15 0 8 9 15 20 15 37 0 70 22 70 47 0 12 -4 23 -8 23 -5 0 -47 -23 -93 -51z"></path><path id="pVLmLYyHr" d="M2720 4231 c0 -29 3 -31 36 -31 39 0 38 9 -6 40 l-30 21 0 -30z"></path><path id="pmmt4t1Ck" d="M2810 4161 c0 -26 4 -31 25 -31 16 0 25 -6 25 -16 0 -9 23 -41 52 -70 39 -40 60 -54 80 -54 25 0 28 -3 28 -36 0 -27 5 -37 20 -41 11 -3 20 -14 20 -24 0 -14 7 -19 25 -19 22 0 25 -4 25 -35 0 -19 4 -35 9 -35 5 0 12 -11 15 -25 4 -14 13 -25 21 -25 9 0 15 -10 15 -25 0 -20 5 -25 25 -25 14 0 25 3 25 6 0 12 -73 129 -124 198 -59 80 -201 228 -253 265 l-33 22 0 -30z"></path><path id="p7fADgtwi" d="M665 4055 l-40 -40 29 -3 c37 -4 58 17 54 54 l-3 29 -40 -40z"></path><path id="ppZkgm8om" d="M545 3918 c-50 -64 -135 -197 -135 -212 0 -3 11 -6 25 -6 22 0 25 4 25 35 0 28 4 35 20 35 16 0 20 7 20 30 0 23 4 30 20 30 13 0 20 7 20 19 0 10 9 21 20 24 12 3 20 14 20 26 0 12 6 21 15 21 10 0 15 11 15 35 0 19 -2 35 -4 35 -3 0 -30 -32 -61 -72z"></path><path id="pQzQ9TpsL" d="M883 3773 c-15 -3 -23 -12 -23 -24 0 -15 -7 -19 -35 -19 -24 0 -35 -5 -35 -15 0 -8 -7 -15 -15 -15 -10 0 -15 -11 -15 -35 0 -28 -4 -35 -19 -35 -20 0 -31 -26 -31 -77 0 -54 25 -39 43 25 22 81 78 137 159 159 91 26 68 55 -29 36z"></path><path id="p15g0xfzAZ" d="M2810 3766 c0 -9 -8 -16 -19 -16 -21 0 -31 -19 -31 -61 0 -40 12 -36 39 11 21 38 25 40 69 40 56 0 75 -9 62 -30 -15 -24 -12 -30 15 -30 22 0 25 4 25 33 0 17 -4 38 -8 44 -4 7 -40 15 -80 19 -63 6 -72 5 -72 -10z"></path><path id="pRqT1aSww" d="M1490 3744 c-6 -14 -10 -39 -10 -55 0 -16 -4 -29 -10 -29 -5 0 -10 -9 -10 -20 0 -12 7 -20 18 -20 12 0 21 15 32 53 10 36 22 55 38 62 34 15 27 35 -13 35 -29 0 -37 -5 -45 -26z"></path><path id="prccA9sTq" d="M1890 3756 c0 -7 9 -16 19 -19 14 -3 24 -23 36 -66 11 -37 23 -61 31 -61 19 0 18 43 -1 108 -15 50 -17 52 -50 52 -23 0 -35 -5 -35 -14z"></path><path id="po0OGrcf1" d="M2630 3757 c0 -8 9 -17 21 -20 11 -3 23 -15 26 -26 3 -12 12 -21 20 -21 10 0 13 10 11 38 -3 35 -5 37 -40 40 -28 2 -38 -1 -38 -11z"></path><path id="pahzfBJoR" d="M1070 3750 c0 -6 11 -16 25 -22 14 -6 25 -17 25 -25 0 -7 5 -13 10 -13 6 0 10 16 10 35 0 33 -2 35 -35 35 -19 0 -35 -5 -35 -10z"></path><path id="pyCXf8TJZ" d="M1746 3738 c-3 -13 -6 -35 -6 -50 0 -14 -4 -28 -9 -30 -12 -4 -101 -297 -101 -332 0 -15 6 -26 13 -26 9 0 24 35 41 93 77 259 108 347 122 347 8 0 14 5 14 10 0 6 -15 10 -34 10 -26 0 -35 -5 -40 -22z"></path><path id="p1DIvIWEW4" d="M2520 3660 c0 -82 3 -100 15 -100 8 0 15 6 16 13 0 6 2 41 3 77 5 91 4 90 21 90 8 0 15 5 15 10 0 6 -16 10 -35 10 l-35 0 0 -100z"></path><path id="pzz40FLXo" d="M2109 3513 c-1 -181 -4 -230 -11 -205 -6 17 -15 32 -19 32 -5 0 -9 12 -9 26 0 14 -8 55 -17 90 -14 50 -21 64 -36 64 -24 0 -20 -26 33 -199 21 -69 38 -126 37 -127 -4 -4 -34 -6 -73 -5 l-41 1 -28 100 c-18 65 -32 100 -41 100 -8 0 -14 -11 -14 -26 0 -33 41 -178 52 -182 4 -2 8 -10 8 -18 0 -19 155 -20 164 -1 5 10 7 10 12 0 8 -18 74 -17 74 1 0 8 -11 17 -25 20 l-25 6 0 270 c0 246 2 270 18 279 14 8 10 10 -20 11 l-38 0 -1 -237z"></path><path id="pwL4Fo6Yp" d="M1150 3710 c0 -19 -5 -30 -14 -30 -8 0 -17 -14 -21 -31 -6 -25 -11 -30 -28 -25 -69 17 -106 17 -139 2 -39 -19 -63 -54 -73 -108 -6 -33 -5 -38 11 -38 14 0 23 12 32 41 20 66 35 74 119 72 42 -1 73 2 73 7 0 6 9 10 20 10 16 0 20 7 21 33 l1 32 10 -37 c7 -27 15 -38 29 -38 23 0 23 10 4 74 -8 26 -12 52 -9 57 3 5 -4 9 -15 9 -17 0 -21 -6 -21 -30z"></path><path id="phvmHnivf" d="M1325 3678 c9 -52 12 -58 31 -58 15 0 18 20 8 69 -5 22 -12 31 -26 31 -18 0 -19 -5 -13 -42z"></path><path id="p17SY68gxo" d="M380 3648 l-19 -43 21 -3 c26 -5 38 13 38 56 0 44 -17 40 -40 -10z"></path><path id="p13zwtTtBR" d="M3210 3658 c0 -43 12 -61 38 -56 l21 3 -19 43 c-23 50 -40 54 -40 10z"></path><path id="p18KnMfNnL" d="M2882 3621 c-27 -48 -27 -51 2 -51 26 0 36 16 36 61 0 40 -12 36 -38 -10z"></path><path id="plFPofu7P" d="M2696 3614 c-9 -23 -7 -74 2 -74 8 0 52 71 52 84 0 14 -48 5 -54 -10z"></path><path id="p186LvPvNM" d="M1596 3525 c-31 -113 -31 -115 -8 -115 15 0 23 17 41 83 25 95 27 127 7 127 -8 0 -23 -34 -40 -95z"></path><path id="pAz52EdeJ" d="M1846 3562 c-11 -18 -18 -82 -8 -82 6 0 13 -13 17 -30 5 -21 13 -30 26 -30 23 0 23 -1 2 83 -16 63 -25 78 -37 59z"></path><path id="ppdAUdXL3" d="M2833 3540 c-11 -17 -9 -21 18 -37 43 -25 69 -80 69 -148 0 -91 -40 -145 -122 -165 -31 -8 -48 -18 -48 -27 0 -13 10 -15 51 -11 28 3 54 10 58 15 3 6 15 12 26 14 30 6 63 64 70 124 12 89 -11 195 -42 195 -7 0 -13 7 -13 15 0 8 -6 15 -14 15 -8 0 -16 7 -20 15 -7 20 -19 19 -33 -5z"></path><path id="ppjlONuAo" d="M3270 3515 c0 -14 9 -58 20 -97 11 -40 23 -100 26 -135 6 -54 10 -63 27 -63 18 0 19 5 13 58 -9 71 -42 216 -56 243 -15 27 -30 24 -30 -6z"></path><path id="peW2roQl7" d="M2390 3520 c0 -5 7 -10 15 -10 8 0 17 -11 21 -25 10 -39 34 -31 34 10 0 33 -2 35 -35 35 -19 0 -35 -4 -35 -10z"></path><path id="p2AMRjDIz" d="M1385 3433 c14 -48 25 -91 25 -95 0 -5 4 -8 8 -8 8 0 32 86 32 115 0 7 -9 15 -19 18 -11 2 -21 15 -23 28 -2 16 -11 25 -25 27 l-22 3 24 -88z"></path><path id="prYaHrbFy" d="M1220 3484 c0 -37 21 -114 31 -114 5 0 9 -12 9 -27 0 -15 10 -57 22 -95 21 -64 24 -68 52 -68 17 0 26 4 20 8 -11 7 -58 144 -90 260 -17 64 -44 86 -44 36z"></path><path id="p3pJkhx1k" d="M700 3460 c0 -33 3 -40 20 -40 17 0 20 7 20 40 0 33 -3 40 -20 40 -17 0 -20 -7 -20 -40z"></path><path id="phCnmQzyQ" d="M301 3433 c-10 -45 -31 -168 -31 -185 0 -5 8 -8 18 -8 14 0 20 15 31 78 24 146 25 162 8 162 -10 0 -19 -16 -26 -47z"></path><path id="p1940LDQPW" d="M1780 3333 c-17 -65 -33 -123 -35 -129 -4 -14 -54 -22 -94 -16 -27 4 -29 6 -20 29 14 37 11 53 -10 53 -19 0 -31 -25 -31 -68 0 -40 23 -52 94 -52 64 0 66 1 66 25 0 17 6 25 18 25 13 0 23 22 45 103 31 114 34 147 13 147 -9 0 -24 -39 -46 -117z"></path><path id="pbcDcHisU" d="M875 3403 c8 -46 30 -85 56 -101 17 -11 19 -9 19 18 0 16 -4 30 -9 30 -5 0 -15 20 -22 45 -10 33 -18 45 -32 45 -17 0 -18 -5 -12 -37z"></path><path id="p15tNvkHWs" d="M2422 3420 c-7 -11 -19 -20 -27 -20 -8 0 -15 -7 -15 -15 0 -10 11 -15 35 -15 33 0 35 2 35 35 0 39 -9 44 -28 15z"></path><path id="pOlyY2fPI" d="M2672 3363 c3 -65 6 -78 21 -81 15 -3 17 6 17 77 0 75 -2 81 -20 81 -19 0 -20 -6 -18 -77z"></path><path id="pyIQrCdCe" d="M710 3370 c0 -22 5 -40 10 -40 6 0 10 -11 10 -24 0 -37 10 -56 31 -56 14 0 19 -7 19 -25 0 -15 7 -28 18 -32 9 -4 23 -13 30 -20 7 -7 29 -13 48 -13 19 0 34 -4 34 -10 0 -5 16 -10 35 -10 49 0 47 27 -2 36 -103 18 -179 94 -197 197 -10 52 -36 50 -36 -3z"></path><path id="pZegnYX04" d="M1033 3323 c-15 -3 -23 -12 -23 -24 0 -21 11 -23 58 -10 29 9 34 7 42 -12 7 -19 9 -16 9 16 1 36 0 37 -31 36 -18 -1 -43 -4 -55 -6z"></path><path id="pJYL2U5Tr" d="M1514 3258 c-17 -56 -23 -64 -51 -72 -45 -12 -43 -36 2 -36 24 0 35 5 35 15 0 8 8 15 18 15 13 0 21 13 30 45 28 106 -2 135 -34 33z"></path><path id="pV9CkDPDw" d="M2720 3300 c0 -13 7 -20 18 -20 11 0 27 9 37 20 18 20 17 20 -18 20 -30 0 -37 -4 -37 -20z"></path><path id="pnFNhwQFv" d="M2443 3293 c13 -3 17 -15 17 -54 0 -42 3 -49 20 -49 18 0 20 7 20 55 l0 55 -37 -1 c-21 -1 -30 -3 -20 -6z"></path><path id="p18iCYHwlE" d="M2520 3210 c0 -29 4 -40 15 -40 8 0 15 -4 15 -10 0 -5 18 -10 40 -10 52 0 56 26 6 36 -28 5 -36 12 -41 35 -10 45 -35 37 -35 -11z"></path><path id="p1DkKNgenr" d="M1018 3173 c-33 -8 -20 -33 17 -33 28 0 35 4 35 20 0 20 -14 23 -52 13z"></path><path id="pzfSUm7hX" d="M1730 3030 c0 -14 -7 -20 -24 -20 -20 0 -25 -6 -31 -40 l-7 -40 -47 0 -48 0 -14 53 c-14 50 -15 52 -52 55 -42 4 -52 -17 -15 -33 14 -6 27 -28 37 -60 l16 -49 75 0 74 -1 16 55 c16 55 16 55 58 58 34 3 42 7 42 23 0 16 -7 19 -40 19 -33 0 -40 -3 -40 -20z"></path><path id="pRu5n5NPn" d="M2163 3043 c-7 -2 -13 -21 -13 -41 l0 -35 23 21 c17 16 36 22 70 22 40 0 47 3 47 20 0 18 -6 20 -57 19 -32 0 -64 -3 -70 -6z"></path><path id="pZ6br4f73" d="M2410 3040 c0 -5 -13 -10 -30 -10 l-30 0 0 -295 0 -295 25 0 c14 0 25 -4 25 -10 0 -5 18 -10 40 -10 27 0 40 4 40 14 0 14 -29 26 -67 26 l-22 0 -3 253 c-2 138 -2 262 0 275 3 21 7 22 112 22 60 0 120 -4 134 -10 23 -8 26 -7 26 14 0 20 -6 24 -46 30 -73 10 -204 7 -204 -4z"></path><path id="pfE43yhWc" d="M880 3005 c0 -39 24 -50 33 -15 3 11 12 20 21 20 9 0 16 7 16 15 0 10 -11 15 -35 15 -33 0 -35 -2 -35 -35z"></path><path id="p1BrV2dlpK" d="M1000 3020 c0 -5 7 -10 15 -10 8 0 17 -11 21 -25 10 -39 34 -31 34 10 0 33 -2 35 -35 35 -19 0 -35 -4 -35 -10z"></path><path id="p4Ti3bu9P" d="M1160 2995 c0 -41 24 -49 34 -10 4 14 13 25 21 25 8 0 15 5 15 10 0 6 -16 10 -35 10 -33 0 -35 -2 -35 -35z"></path><path id="pD6nAFItw" d="M1290 3020 c0 -5 7 -10 15 -10 15 0 18 -68 17 -390 -1 -169 1 -159 -27 -166 -36 -9 -32 -34 6 -34 58 0 59 4 60 287 1 174 4 242 10 208 4 -27 13 -51 19 -53 5 -2 10 -14 10 -28 0 -50 24 -114 42 -114 24 0 23 10 -17 143 -39 129 -42 147 -20 147 8 0 15 5 15 10 0 6 -28 10 -65 10 -37 0 -65 -4 -65 -10z"></path><path id="pAxyPYdQz" d="M2010 3020 c0 -5 7 -10 15 -10 17 0 18 -6 15 -112 -2 -73 0 -78 19 -78 20 0 21 5 21 105 l0 105 -35 0 c-19 0 -35 -4 -35 -10z"></path><path id="pNxemaV3n" d="M1837 3010 c22 -9 22 -10 8 -57 -19 -63 -19 -73 3 -73 21 0 42 55 42 109 0 29 -2 31 -37 30 -33 0 -35 -2 -16 -9z"></path><path id="pCg2gWOq8" d="M2096 2944 c-9 -23 -7 -74 2 -74 8 0 52 71 52 84 0 14 -48 5 -54 -10z"></path><path id="pMTyrkDeM" d="M2740 2925 c0 -3 8 -22 19 -43 10 -20 21 -54 25 -74 9 -50 36 -52 36 -3 0 19 -4 35 -10 35 -5 0 -10 13 -10 29 0 45 -10 61 -36 61 -13 0 -24 -2 -24 -5z"></path><path id="pwGz83vII" d="M2540 2890 c0 -16 7 -20 35 -20 39 0 46 14 16 30 -31 16 -51 12 -51 -10z"></path><path id="poDEjdd2A" d="M2214 2834 l-19 -36 30 -23 c16 -13 31 -22 33 -20 6 6 -10 115 -18 115 -4 0 -15 -16 -26 -36z"></path><path id="p2f6ibHGt" d="M2615 2785 c7 -75 -7 -165 -26 -165 -5 0 -9 -11 -9 -25 0 -29 12 -32 35 -8 28 27 37 64 38 148 0 78 -13 125 -34 125 -7 0 -8 -25 -4 -75z"></path><path id="pOHIuAqTM" d="M1037 2820 c-4 -15 0 -20 14 -20 12 0 19 7 19 20 0 11 -6 20 -14 20 -7 0 -16 -9 -19 -20z"></path><path id="pH1FywLyn" d="M1772 2711 c-37 -129 -38 -131 -13 -131 14 0 22 12 30 44 6 25 11 56 11 70 0 13 5 26 11 28 6 2 13 25 16 51 4 37 3 47 -9 47 -10 0 -25 -34 -46 -109z"></path><path id="p1GOg1zc1S" d="M1570 2778 c0 -7 9 -44 20 -83 11 -38 20 -73 20 -77 1 -40 51 93 50 135 0 4 -9 7 -19 7 -12 0 -21 -8 -24 -22 -3 -14 -5 -9 -6 15 -1 30 -5 37 -21 37 -11 0 -20 -6 -20 -12z"></path><path id="p18O41m3z3" d="M2280 2704 c15 -39 12 -122 -7 -161 -19 -40 -59 -69 -120 -84 -53 -14 -58 -39 -8 -39 19 0 35 5 35 10 0 6 14 10 30 10 25 0 30 4 30 25 0 21 5 25 30 25 23 0 30 4 30 20 0 11 4 20 9 20 12 0 22 100 15 154 -6 40 -10 46 -30 46 -21 0 -22 -3 -14 -26z"></path><path id="pM6jv2Y7l" d="M2040 2640 c0 -73 2 -80 20 -80 18 0 20 7 20 60 l0 60 35 0 c19 0 35 4 35 10 0 15 -36 30 -74 30 l-36 0 0 -80z"></path><path id="p104t4Tve9" d="M2784 2663 c-4 -21 -15 -55 -25 -75 -24 -47 -24 -48 5 -48 26 0 36 16 36 61 0 16 5 29 10 29 6 0 10 16 10 35 0 49 -27 47 -36 -2z"></path><path id="pDCVVg9bU" d="M1040 2670 c0 -18 7 -20 75 -20 68 0 75 2 75 20 0 18 -7 20 -75 20 -68 0 -75 -2 -75 -20z"></path><path id="p7OhwjbPF" d="M1463 2613 c3 -26 10 -49 16 -51 6 -2 11 -16 11 -30 0 -50 11 -72 35 -72 l22 0 -30 100 c-21 66 -36 100 -45 100 -11 0 -13 -10 -9 -47z"></path><path id="pxWp52vN3" d="M2120 2590 c0 -27 2 -29 19 -21 10 6 21 20 24 31 4 16 0 20 -19 20 -20 0 -24 -5 -24 -30z"></path><path id="pbMJWGsxE" d="M1710 2505 c0 -8 -9 -24 -20 -35 l-20 -20 35 0 c33 0 35 2 35 35 0 24 -5 35 -15 35 -8 0 -15 -7 -15 -15z"></path><path id="pgPplfMY7" d="M1036 2485 c-4 -15 -16 -27 -31 -31 -36 -9 -32 -34 6 -34 39 0 59 20 59 59 0 38 -25 42 -34 6z"></path><path id="p1FaJouIQi" d="M1890 2475 c0 -32 2 -35 30 -35 17 0 30 -4 30 -10 0 -5 16 -10 35 -10 23 0 35 5 35 14 0 14 -29 26 -67 26 -16 0 -25 8 -29 25 -10 39 -34 31 -34 -10z"></path><path id="p8OKzyVDx" d="M2673 2487 c-42 -28 -41 -37 2 -37 32 0 35 2 35 30 0 17 -1 30 -2 29 -2 0 -18 -10 -35 -22z"></path><path id="pKsyyhPtQ" d="M270 2270 c0 -19 16 -19 1545 -20 1534 0 1545 0 1545 20 0 20 -11 20 -1545 20 -1530 0 -1545 0 -1545 -20z"></path><path id="p10REaTAm8" d="M604 2078 c18 -29 47 -80 65 -113 45 -83 109 -192 135 -230 l22 -32 28 78 c32 91 43 106 76 113 21 5 39 -7 110 -74 47 -44 91 -80 98 -80 26 0 188 72 208 93 12 12 56 84 97 160 l76 137 -474 0 -475 0 34 -52z"></path><path id="p1ExxOIHw9" d="M1616 2057 c-21 -39 -78 -139 -126 -222 -48 -82 -97 -169 -110 -193 l-24 -42 34 -70 34 -70 98 -32 98 -32 68 67 c81 81 88 87 128 87 41 0 55 -18 99 -130 21 -52 39 -97 41 -98 1 -2 22 7 46 21 24 14 89 44 144 67 80 33 104 47 113 68 7 15 36 70 65 122 66 117 228 407 268 478 l29 52 -483 0 -483 0 -39 -73z"></path><path id="p1GeyWiv1G" d="M2742 2083 c-58 -93 -274 -475 -270 -478 2 -1 20 -12 41 -25 l39 -23 77 82 c83 87 108 98 150 64 12 -10 30 -45 39 -78 l18 -60 39 70 c21 39 55 98 76 132 22 34 39 64 39 66 0 5 98 176 109 192 4 6 20 31 35 58 l27 47 -195 0 -194 0 -30 -47z"></path><path id="pDInMdS5i" d="M931 1660 c-14 -34 -28 -63 -33 -66 -10 -6 31 -84 44 -84 12 0 10 58 -2 81 -8 15 -7 19 4 19 8 0 18 9 21 20 4 13 15 20 31 20 20 0 24 -5 24 -30 0 -28 3 -30 35 -30 43 0 44 10 6 33 -16 9 -44 35 -61 57 -17 22 -35 40 -39 40 -3 0 -17 -27 -30 -60z"></path><path id="pxYtWJK8V" d="M1176 1637 c-73 -27 -88 -51 -27 -45 22 2 41 0 41 -4 0 -18 16 -6 38 27 34 54 34 54 -52 22z"></path><path id="psznyAAqG" d="M2637 1477 c-37 -40 -67 -73 -67 -74 0 -2 16 -3 35 -3 33 0 35 2 35 35 0 30 3 35 25 35 13 0 28 -7 33 -16 5 -9 18 -14 30 -12 l20 3 -22 52 -22 52 -67 -72z"></path><path id="pOWvBvuUJ" d="M1116 1504 c-3 -9 -6 -24 -6 -35 0 -10 -6 -19 -14 -19 -7 0 -19 -13 -26 -30 -14 -33 -40 -41 -40 -11 0 35 -12 51 -36 51 -13 0 -24 -3 -24 -7 0 -5 19 -40 43 -80 l43 -72 57 104 c31 57 57 106 57 110 0 13 -48 3 -54 -11z"></path><path id="pRl05ulo7" d="M2400 1486 c0 -14 104 -206 111 -206 15 0 10 57 -8 95 -9 19 -23 35 -30 35 -7 0 -13 5 -13 10 0 6 11 10 25 10 38 0 30 19 -17 40 -41 19 -68 25 -68 16z"></path><path id="plSQXpfL" d="M1719 1318 c-61 -65 -57 -64 -157 -31 -24 8 -46 13 -48 10 -6 -6 238 -437 248 -437 4 0 8 16 8 35 0 28 -4 35 -20 35 -15 0 -20 7 -20 30 0 37 -19 80 -37 80 -7 0 -13 11 -13 25 0 18 -5 25 -20 25 -15 0 -20 7 -20 30 0 37 -19 80 -37 80 -7 0 -13 8 -13 18 0 14 8 17 55 14 35 -3 55 0 55 7 0 6 7 11 15 11 10 0 15 10 15 31 l0 31 50 -7 50 -7 -11 31 c-20 57 -38 55 -100 -11z"></path><path id="p1B3FInvRg" d="M2660 1325 c0 -43 10 -44 33 -6 22 38 22 41 -8 41 -22 0 -25 -4 -25 -35z"></path><path id="p7uOelLkI" d="M1820 1246 c0 -19 7 -41 15 -50 8 -8 15 -22 15 -30 0 -12 10 -16 35 -16 39 0 44 9 16 27 -11 7 -29 33 -40 58 -24 54 -41 58 -41 11z"></path><path id="pxHb5y2aG" d="M2106 1255 c-8 -8 -21 -15 -28 -15 -22 0 -118 -51 -118 -62 0 -6 16 -9 38 -7 l37 4 -4 -37 c-1 -21 1 -38 6 -38 7 0 86 126 101 162 6 14 -16 9 -32 -7z"></path><path id="p1Ad3PIze4" d="M2610 1254 c0 -8 -7 -22 -15 -30 -16 -16 -21 -84 -6 -84 8 0 71 110 71 124 0 3 -11 6 -25 6 -16 0 -25 -6 -25 -16z"></path><path id="pTy4UQ6Iq" d="M1970 1035 c0 -14 -6 -25 -13 -25 -7 0 -21 -16 -30 -35 -18 -37 -23 -95 -9 -95 7 0 102 163 102 175 0 3 -11 5 -25 5 -20 0 -25 -5 -25 -25z"></path><path id="p154cfFqdO" d="M1770 833 c0 -5 14 -32 31 -62 l31 -54 24 39 c30 49 30 54 -1 54 -14 0 -28 7 -31 15 -6 15 -54 22 -54 8z"></path></g></g><g id="l6jxYgbkJC7FVngsWSW8vuB" fill="rgb(154,148,116)" style="transform: none;"><g style="transform: none;"><path id="p2GmEO0AE" d="M1678 4523 c-10 -2 -18 -11 -18 -19 0 -10 13 -14 45 -14 38 0 45 3 45 20 0 15 -6 20 -27 19 -16 -1 -36 -3 -45 -6z"></path><path id="pG298xNlf" d="M1880 4510 c0 -17 7 -20 45 -20 49 0 64 23 23 34 -45 12 -68 7 -68 -14z"></path><path id="po7f17oVo" d="M1492 4499 c-241 -45 -516 -179 -727 -356 l-70 -58 33 -3 c35 -4 62 11 62 34 0 7 10 14 23 16 14 2 23 11 25 26 3 16 10 22 28 22 13 0 24 5 24 10 0 6 7 10 15 10 8 0 15 5 15 10 0 6 7 10 15 10 8 0 15 9 15 20 0 14 7 20 24 20 37 0 56 10 56 31 0 14 7 19 30 19 29 0 162 57 168 73 2 4 15 7 28 7 13 0 24 4 24 9 0 5 12 11 28 14 15 3 71 16 126 30 54 14 123 29 152 33 44 5 54 10 54 25 0 23 -12 23 -148 -2z"></path><path id="p1ATuM1bVV" d="M2000 4503 c0 -15 21 -22 118 -41 136 -26 162 -27 162 -8 0 14 -71 34 -194 56 -80 13 -86 13 -86 -7z"></path><path id="pJIOJOojm" d="M2360 4417 c0 -18 11 -26 58 -45 32 -12 61 -22 66 -22 4 0 14 -7 22 -15 9 -8 31 -15 50 -15 27 0 34 -4 34 -19 0 -13 11 -24 35 -32 19 -7 35 -17 35 -21 0 -4 6 -8 14 -8 8 0 16 -7 20 -15 3 -8 12 -15 21 -15 8 0 15 -4 15 -10 0 -5 6 -10 14 -10 8 0 16 -7 20 -15 3 -8 16 -15 30 -15 18 0 25 -6 28 -22 2 -19 10 -23 43 -26 l40 -2 -45 40 c-106 96 -301 215 -435 265 l-65 25 0 -23z"></path><path id="pk0SWz1Yw" d="M609 3993 c-79 -87 -191 -254 -219 -327 -8 -23 -7 -26 14 -26 26 0 46 34 46 80 0 23 5 30 20 30 11 0 20 5 20 10 0 6 9 20 20 32 11 12 20 28 20 35 0 7 5 13 10 13 6 0 10 11 10 25 0 18 5 25 20 25 13 0 20 7 20 20 0 11 6 20 14 20 22 0 38 27 34 60 l-3 32 -26 -29z"></path><path id="pEmgzlrvD" d="M2992 3985 c2 -31 8 -42 26 -50 12 -5 22 -18 22 -28 0 -11 9 -21 20 -24 11 -3 20 -14 20 -24 0 -11 5 -19 10 -19 6 0 10 -7 10 -15 0 -8 4 -15 9 -15 5 0 12 -11 15 -25 4 -14 11 -25 16 -25 6 0 10 -7 10 -15 0 -8 7 -15 15 -15 8 0 15 -8 15 -19 0 -20 47 -133 60 -141 4 -3 10 -22 14 -42 4 -20 10 -38 14 -40 8 -3 52 -220 52 -255 0 -16 6 -23 20 -23 24 0 23 -8 5 113 -34 225 -158 487 -309 652 l-46 50 2 -40z"></path><path id="perbd6A7K" d="M869 3771 c-50 -16 -69 -31 -69 -56 0 -20 -5 -25 -25 -25 -15 0 -25 -6 -25 -14 0 -8 -5 -16 -11 -18 -19 -6 -39 -109 -39 -196 0 -107 16 -172 41 -172 15 0 19 -7 19 -36 0 -27 5 -37 20 -41 11 -3 20 -11 20 -19 0 -20 56 -45 116 -51 43 -5 54 -3 54 9 0 9 -21 21 -60 31 -45 13 -69 27 -99 59 -54 56 -73 116 -72 230 0 77 4 99 27 145 30 62 86 108 151 125 52 13 59 38 11 37 -18 0 -45 -4 -59 -8z"></path><path id="pbu4j4jQ7" d="M1010 3767 c0 -8 23 -20 55 -29 55 -15 55 -15 55 7 0 25 -22 35 -77 35 -21 0 -33 -5 -33 -13z"></path><path id="p12YeKeZcP" d="M1520 3766 c0 -9 -8 -16 -19 -16 -13 0 -20 -11 -27 -42 -9 -42 -10 -43 -55 -46 l-47 -3 -12 50 c-11 49 -13 51 -46 51 -38 0 -43 -9 -15 -27 11 -7 24 -34 31 -63 l12 -51 76 3 76 3 16 55 16 55 54 3 c30 1 60 -1 67 -6 9 -6 4 -33 -18 -107 -17 -55 -51 -167 -75 -250 -25 -82 -47 -156 -50 -163 -2 -8 -18 -19 -34 -25 -17 -6 -30 -17 -30 -24 0 -17 61 -17 82 0 16 13 88 241 88 281 0 14 4 26 9 28 4 2 21 46 37 98 27 89 37 180 22 195 -3 3 -40 9 -82 12 -66 5 -76 4 -76 -11z"></path><path id="pPGhmlCaF" d="M2800 3750 c0 -25 -4 -30 -25 -30 -18 0 -26 -7 -31 -25 -3 -14 -10 -25 -14 -25 -5 0 -12 -10 -16 -22 -3 -12 -13 -28 -20 -36 -18 -17 -18 -72 -1 -72 6 0 36 43 66 95 29 53 61 100 70 105 19 9 99 2 106 -10 5 -7 -51 -115 -90 -173 l-19 -29 36 -31 c51 -45 62 -72 61 -149 0 -60 2 -68 18 -68 17 0 19 8 19 68 0 95 -15 142 -44 142 -19 0 -25 6 -28 30 -3 17 -1 30 4 30 4 0 8 11 8 25 0 14 6 25 13 25 18 0 47 64 54 120 l5 47 -38 6 c-22 4 -60 7 -86 7 -47 0 -48 -1 -48 -30z"></path><path id="pPELQuoFq" d="M1143 3755 c-3 -9 -3 -31 0 -50 4 -25 2 -35 -8 -35 -7 0 -16 -12 -19 -26 -6 -24 -9 -25 -51 -18 -40 6 -45 4 -45 -14 0 -14 9 -21 31 -26 79 -15 99 -5 99 50 0 18 5 24 21 24 19 0 20 4 15 36 -6 31 -4 36 13 41 12 3 21 12 21 19 0 20 -69 19 -77 -1z"></path><path id="p3jdEI0PD" d="M2117 3763 c-4 -3 -7 -21 -7 -40 0 -37 24 -47 33 -12 3 11 15 23 26 26 35 9 25 33 -12 33 -19 0 -37 -3 -40 -7z"></path><path id="p1H0xNqcXX" d="M1900 3750 c0 -5 7 -10 15 -10 9 0 20 -21 31 -57 9 -32 31 -107 49 -168 102 -337 102 -335 69 -335 -8 0 -14 -7 -14 -15 0 -12 14 -15 70 -15 56 0 70 3 70 15 0 8 -6 15 -13 15 -15 0 -57 45 -57 60 0 6 -4 10 -10 10 -5 0 -10 12 -10 26 0 34 -50 208 -61 212 -5 2 -9 13 -9 25 0 12 -14 73 -31 135 l-32 112 -34 0 c-18 0 -33 -4 -33 -10z"></path><path id="p12aV1TNVd" d="M1727 3680 c-21 -75 -22 -110 -2 -110 8 0 15 3 15 8 0 4 11 42 24 85 l24 77 -22 0 c-19 0 -25 -9 -39 -60z"></path><path id="pgbKhcaSg" d="M2468 3685 l4 -55 -101 0 c-94 0 -101 -1 -101 -20 0 -19 7 -20 106 -20 128 0 134 4 134 89 0 57 -2 61 -22 61 -22 0 -23 -4 -20 -55z"></path><path id="pekOk5AN9" d="M932 3614 c-27 -19 -48 -58 -57 -107 -6 -33 -5 -37 13 -37 20 0 32 32 32 86 0 17 6 24 19 24 33 0 51 11 51 31 0 23 -27 25 -58 3z"></path><path id="pz7Xd92EW" d="M350 3574 c-28 -64 -47 -135 -65 -238 -19 -112 -19 -116 4 -116 15 0 19 10 24 51 9 70 59 273 69 277 12 5 10 72 -2 72 -6 0 -19 -20 -30 -46z"></path><path id="poPPjQgVt" d="M1190 3574 c0 -15 14 -73 30 -131 17 -57 30 -106 30 -108 0 -3 9 -5 20 -5 11 0 20 5 20 10 0 6 -16 64 -35 130 -19 66 -35 122 -35 125 0 3 -7 5 -15 5 -10 0 -15 -10 -15 -26z"></path><path id="p1ERoqLAmz" d="M1831 3502 c-11 -37 -35 -121 -53 -186 -30 -108 -35 -121 -60 -130 -45 -17 -35 -38 14 -34 l43 3 27 95 c15 52 27 110 27 128 1 17 5 32 10 32 5 0 11 8 13 18 2 9 14 -19 27 -63 12 -44 32 -110 42 -147 20 -67 20 -68 54 -68 24 0 35 5 35 15 0 8 -7 15 -15 15 -9 0 -20 10 -25 23 -13 32 -100 330 -100 344 0 6 -4 14 -9 17 -5 3 -18 -24 -30 -62z"></path><path id="pHQQMLqF6" d="M1371 3503 c1 -36 47 -178 52 -163 3 8 13 47 22 85 10 39 20 76 23 83 8 22 -35 13 -46 -10 l-11 -23 0 23 c-1 15 -7 22 -21 22 -13 0 -20 -6 -19 -17z"></path><path id="pOPDQ9aSh" d="M1656 3452 c-9 -32 -16 -70 -16 -85 0 -15 -4 -27 -8 -27 -12 0 -30 -63 -38 -132 l-7 -58 42 0 c30 0 41 4 41 15 0 8 -6 15 -12 15 -37 1 -37 16 8 160 24 80 44 150 44 157 0 7 -8 13 -19 13 -14 0 -22 -14 -35 -58z"></path><path id="pCefPG9no" d="M874 3419 c8 -47 22 -79 36 -79 11 0 13 28 4 83 -5 28 -11 37 -27 37 -17 0 -19 -4 -13 -41z"></path><path id="pDqKnXWyX" d="M2426 3425 c-4 -14 -13 -25 -21 -25 -8 0 -15 -4 -15 -10 0 -5 16 -10 35 -10 33 0 35 2 35 35 0 41 -24 49 -34 10z"></path><path id="p1DYmEw2S0" d="M2720 3420 c0 -13 7 -20 20 -20 15 0 20 -7 20 -24 0 -31 -25 -56 -56 -56 -17 0 -24 -5 -24 -20 0 -16 7 -20 35 -20 72 0 109 77 64 134 -25 31 -59 35 -59 6z"></path><path id="pEkPwZQ7t" d="M930 3306 c17 -17 32 -21 78 -19 31 1 66 3 77 5 18 3 20 -3 23 -49 3 -55 5 -54 -65 -68 -20 -4 -33 -13 -33 -22 0 -13 10 -15 59 -10 33 3 64 8 70 12 12 7 14 59 5 128 l-7 46 -114 -1 -114 -1 21 -21z"></path><path id="pUbyC9WY" d="M2270 3310 c0 -19 7 -20 94 -20 86 0 95 -2 101 -20 10 -32 -5 -82 -26 -87 -33 -9 -22 -33 15 -33 41 0 46 11 46 92 0 83 -7 88 -129 88 -94 0 -101 -1 -101 -20z"></path><path id="pqzsWroqO" d="M1292 3226 c6 -54 26 -76 67 -76 38 0 42 25 6 34 -18 5 -28 17 -36 46 -17 58 -43 54 -37 -4z"></path><path id="pN9ftexj5" d="M2520 3196 c0 -37 12 -46 61 -46 38 0 38 22 -1 37 -16 6 -30 18 -30 27 0 9 -7 16 -15 16 -10 0 -15 -10 -15 -34z"></path><path id="pRb2LsHXG" d="M2840 3203 c-33 -17 -62 -23 -112 -23 -61 0 -68 -2 -68 -20 0 -18 7 -20 55 -20 57 0 141 15 163 29 8 4 12 19 10 32 l-3 24 -45 -22z"></path><path id="pVCSzbSjU" d="M883 3035 c-10 -11 -13 -86 -13 -300 0 -314 0 -315 59 -315 38 0 42 25 6 34 l-25 6 0 275 0 275 60 0 c46 0 61 -4 69 -17 8 -15 10 -11 11 20 l0 37 -77 0 c-55 -1 -82 -5 -90 -15z"></path><path id="pFNtU3zBz" d="M1180 3013 c1 -31 3 -35 11 -20 14 25 124 25 138 0 8 -15 10 -11 11 20 l0 37 -80 0 -80 0 0 -37z"></path><path id="pfG3BS7kn" d="M1361 3041 c-10 -7 -12 -21 -7 -58 9 -67 57 -233 67 -233 5 0 9 -12 9 -26 0 -35 21 -104 32 -104 4 0 8 -14 8 -32 0 -45 31 -138 47 -138 7 0 13 -7 13 -15 0 -10 11 -15 35 -15 24 0 35 5 35 15 0 8 -6 15 -13 15 -35 0 -51 34 -126 285 -43 143 -75 264 -71 268 4 4 34 7 66 5 l59 -3 14 -52 c14 -54 41 -73 41 -30 0 58 -13 97 -31 97 -11 0 -19 7 -19 15 0 12 -15 15 -72 15 -40 0 -79 -4 -87 -9z"></path><path id="pkv6ow4hx" d="M1710 3014 c0 -27 -4 -34 -19 -34 -11 0 -21 -9 -25 -22 -11 -41 -7 -58 13 -58 15 0 21 10 26 39 11 64 25 76 86 73 29 -1 57 -6 62 -11 5 -5 -11 -72 -36 -152 -122 -392 -116 -369 -89 -369 13 0 23 15 35 53 9 30 17 65 17 80 0 14 4 27 9 29 5 2 23 50 40 108 58 196 66 220 77 220 7 0 14 9 17 20 4 17 14 20 62 20 48 0 58 -3 62 -20 9 -34 33 -24 33 14 0 24 -5 36 -17 40 -10 3 -93 5 -185 5 l-168 0 0 -35z"></path><path id="pBFj56dnX" d="M2153 3035 c-7 -8 -13 -23 -13 -35 0 -11 -7 -20 -15 -20 -8 0 -15 -7 -15 -15 0 -8 -4 -15 -9 -15 -10 0 -51 -91 -51 -114 0 -39 30 -9 79 79 30 52 63 97 73 101 27 8 98 -6 98 -19 0 -7 -23 -52 -50 -101 -28 -49 -50 -92 -50 -96 0 -3 13 -16 30 -28 43 -32 62 -75 61 -143 0 -93 -37 -142 -128 -169 -62 -19 -59 -44 4 -37 26 3 49 10 51 16 2 6 12 11 23 11 14 0 19 7 19 25 0 20 5 25 25 25 19 0 26 7 34 38 14 49 14 151 0 191 -9 25 -16 31 -40 31 -22 0 -29 5 -29 20 0 19 29 90 41 100 4 3 16 24 28 47 25 50 28 103 6 103 -8 0 -15 5 -15 10 0 16 -143 12 -157 -5z"></path><path id="pudSgPYIt" d="M2368 3043 c-23 -6 -26 -73 -4 -73 7 0 16 8 19 19 3 12 17 20 46 25 58 9 57 36 -1 35 -24 -1 -51 -3 -60 -6z"></path><path id="phNOShMw4" d="M2540 3035 c0 -9 14 -16 38 -20 102 -17 172 -79 199 -177 25 -89 55 -72 37 21 -4 17 -13 31 -20 31 -9 0 -14 11 -14 30 0 17 -4 30 -9 30 -5 0 -11 9 -14 20 -3 12 -14 20 -26 20 -12 0 -21 6 -21 14 0 16 -21 26 -56 26 -13 0 -24 5 -24 10 0 6 -20 10 -45 10 -33 0 -45 -4 -45 -15z"></path><path id="pMbvbZHqR" d="M2560 2885 c0 -14 6 -25 13 -25 13 0 37 -53 37 -83 0 -11 8 -17 21 -17 20 0 21 4 16 42 -6 47 -32 87 -65 99 -19 7 -22 5 -22 -16z"></path><path id="pFsI8oMxT" d="M1570 2783 c1 -28 49 -175 53 -163 9 24 47 157 47 164 0 13 -33 5 -46 -11 -13 -17 -13 -17 -14 0 0 10 -8 17 -20 17 -11 0 -20 -3 -20 -7z"></path><path id="pGDoA6S2q" d="M2050 2701 c0 -16 6 -21 24 -21 48 0 78 -62 36 -75 -25 -8 -27 -45 -2 -45 23 0 37 10 51 37 30 57 0 111 -67 120 -38 5 -42 4 -42 -16z"></path><path id="p1EXUH35L5" d="M2610 2693 c0 -37 -24 -82 -47 -88 -28 -7 -32 -45 -5 -45 44 0 92 65 92 125 0 18 -5 25 -20 25 -12 0 -20 -7 -20 -17z"></path><path id="peh2NJE30" d="M2777 2632 c-24 -86 -82 -148 -158 -169 -90 -25 -74 -55 20 -37 17 4 31 13 31 20 0 9 11 14 28 14 29 0 62 26 62 48 0 7 5 12 10 12 6 0 10 14 10 30 0 19 5 30 14 30 7 0 16 14 20 31 18 93 -12 110 -37 21z"></path><path id="p3ljbSqEd" d="M1160 2466 c0 -37 12 -46 61 -46 38 0 38 22 -1 37 -16 6 -30 18 -30 27 0 9 -7 16 -15 16 -10 0 -15 -10 -15 -34z"></path><path id="pgc2Wqekl" d="M1658 2458 c-52 -14 -50 -38 2 -38 36 0 40 3 40 25 0 14 -1 25 -2 24 -2 -1 -20 -6 -40 -11z"></path><path id="pug93BG0" d="M2380 2444 c0 -21 4 -24 40 -24 27 0 40 4 40 14 0 8 -18 18 -40 24 -38 9 -40 9 -40 -14z"></path><path id="pwwrAa70s" d="M1930 2440 c0 -17 7 -20 40 -20 45 0 57 23 18 34 -42 11 -58 7 -58 -14z"></path><path id="pOegMlCrI" d="M919 1629 c-17 -35 -19 -46 -9 -68 15 -33 141 -251 145 -251 3 0 21 33 142 254 24 44 41 81 40 83 -2 2 -36 -7 -77 -19 -68 -21 -74 -21 -101 -5 l-29 16 0 -29 c0 -30 0 -30 61 -30 54 0 60 -2 54 -17 -4 -10 -10 -30 -13 -45 -2 -16 -10 -28 -17 -28 -16 0 -25 -22 -25 -61 0 -38 -35 -41 -52 -4 -6 14 -15 25 -20 25 -4 0 -8 6 -8 14 0 8 -6 21 -12 28 -29 30 -46 85 -41 131 7 60 -9 62 -38 6z"></path><path id="p1FggEr2kY" d="M2650 1486 c-25 -30 -51 -57 -59 -61 -8 -3 -52 11 -98 31 -47 20 -86 34 -88 32 -2 -2 37 -84 86 -182 50 -98 94 -174 99 -169 4 4 23 37 42 73 19 36 54 100 78 143 l42 77 -23 55 c-12 30 -25 55 -29 55 -3 0 -26 -24 -50 -54z m44 -31 c4 -15 0 -37 -9 -55 -8 -16 -15 -43 -15 -60 0 -23 -4 -30 -20 -30 -15 0 -22 -9 -26 -30 -4 -16 -10 -30 -15 -30 -4 0 -9 -12 -11 -26 -2 -20 -14 -4 -56 81 -40 81 -48 103 -33 95 25 -13 81 -13 81 0 0 6 13 10 28 10 34 0 52 16 52 47 0 31 16 29 24 -2z"></path><path id="psdM7zavA" d="M1739 1336 c-63 -79 -74 -83 -153 -58 -40 12 -66 16 -66 9 0 -6 21 -47 46 -91 92 -160 122 -212 174 -308 30 -54 57 -98 62 -98 12 0 10 55 -4 85 -6 14 -17 25 -25 25 -7 0 -13 9 -13 20 0 32 -22 70 -42 70 -14 0 -18 8 -18 35 0 24 -5 35 -15 35 -8 0 -15 9 -15 20 0 32 -22 70 -41 70 -12 0 -18 10 -21 39 l-3 39 54 7 c61 8 81 22 81 59 0 22 4 26 30 26 26 0 30 -3 30 -29 0 -33 32 -115 54 -137 22 -21 109 -18 156 6 22 11 40 16 40 10 0 -5 -6 -10 -13 -10 -8 0 -24 -24 -38 -52 -13 -29 -30 -59 -36 -66 -7 -7 -13 -24 -13 -38 0 -13 -6 -24 -13 -24 -8 0 -24 -24 -38 -52 -13 -29 -30 -59 -36 -66 -7 -7 -16 -24 -19 -38 -3 -13 -10 -24 -14 -24 -15 0 -21 -39 -10 -61 13 -23 10 -28 178 276 30 55 74 134 98 175 24 41 41 76 40 78 -2 2 -50 -20 -106 -48 -69 -34 -110 -50 -125 -46 -16 4 -32 29 -63 100 -23 52 -42 99 -42 105 0 23 -19 9 -61 -43z"></path></g></g><g id="l7Oe0QoXx2MAVuh7uTVKGDw" fill="rgb(221,205,157)" style="transform: none;"><g style="transform: none;"><path id="pM2Hbrurn" d="M1650 4520 c-479 -56 -903 -307 -1162 -689 -65 -96 -141 -256 -167 -351 -48 -176 -51 -225 -51 -736 l0 -484 1546 0 1545 0 -4 518 c-3 490 -5 522 -25 612 -106 455 -457 846 -927 1030 -212 83 -535 126 -755 100z m-565 -784 c32 -14 35 -18 35 -58 0 -61 -8 -70 -50 -58 -53 15 -102 12 -137 -10 -80 -48 -78 -253 2 -306 21 -14 39 -16 99 -11 l73 7 7 -52 c4 -31 3 -55 -3 -61 -15 -15 -160 -21 -209 -8 -57 16 -105 61 -139 129 -25 51 -28 68 -28 157 0 83 4 108 22 145 29 58 80 108 129 125 51 19 156 19 199 1z m569 -6 c4 -5 -1 -36 -12 -72 -11 -34 -46 -151 -77 -258 -32 -107 -65 -201 -73 -207 -9 -7 -43 -13 -78 -13 -37 0 -65 5 -71 13 -9 11 -29 73 -136 424 -19 62 -32 115 -29 118 8 8 115 6 129 -3 6 -4 17 -29 24 -55 l12 -48 75 3 76 3 11 43 c14 58 38 75 95 67 25 -4 49 -10 54 -15z m1249 14 c20 -4 37 -12 37 -18 0 -7 -24 -54 -54 -105 l-53 -94 42 -41 c35 -33 45 -50 50 -88 14 -93 -19 -167 -90 -203 -33 -17 -57 -20 -143 -18 -159 3 -143 -30 -140 286 l3 272 60 0 60 0 3 -92 c2 -65 6 -93 15 -93 7 0 28 28 47 62 79 137 87 144 163 132z m-957 -49 c32 -101 144 -493 144 -503 0 -8 -21 -12 -60 -12 l-59 0 -21 73 c-12 39 -38 128 -58 196 l-37 125 -19 -65 c-11 -35 -36 -122 -55 -194 l-36 -130 -62 -3 c-35 -2 -63 1 -63 6 0 11 46 164 101 341 21 68 39 128 39 133 0 5 7 24 15 44 l14 35 72 -3 72 -3 13 -40z m524 26 c14 -26 13 -74 -2 -89 -8 -8 -46 -12 -105 -12 l-93 0 0 -55 0 -54 78 -3 77 -3 0 -50 0 -50 -77 -3 -78 -3 0 -49 0 -50 88 0 c98 0 112 -7 112 -56 0 -65 3 -64 -165 -64 -130 0 -154 2 -159 16 -8 21 -8 529 1 537 3 4 75 7 159 7 141 0 154 -2 164 -19z m-1442 -713 c8 -8 12 -47 12 -110 l0 -98 75 0 75 0 0 98 c0 63 4 102 12 110 7 7 33 12 58 12 25 0 51 -5 58 -12 17 -17 17 -529 0 -546 -13 -13 -85 -16 -112 -6 -13 5 -16 25 -16 115 l0 109 -75 0 -75 0 0 -103 c0 -67 -4 -107 -12 -115 -16 -16 -100 -16 -116 0 -17 17 -17 529 0 546 7 7 33 12 58 12 25 0 51 -5 58 -12z m479 -3 c13 -9 23 -30 27 -60 l7 -45 74 0 73 0 12 38 c21 66 37 82 78 82 54 0 82 -10 82 -29 0 -9 -13 -56 -29 -106 -16 -49 -50 -160 -76 -245 -53 -178 -62 -190 -140 -190 -63 0 -76 13 -99 90 -9 30 -34 114 -55 185 -72 236 -82 278 -68 287 20 13 91 9 114 -7z m527 9 c13 -5 16 -24 16 -101 0 -108 9 -115 50 -42 14 25 40 68 57 97 31 50 35 52 76 52 24 0 51 -6 60 -12 16 -12 12 -21 -37 -110 l-55 -96 44 -44 c91 -92 67 -236 -50 -289 -45 -21 -204 -27 -249 -9 l-26 10 0 269 c0 206 3 271 13 274 18 8 83 8 101 1z m594 -8 c61 -22 97 -52 128 -110 23 -42 29 -67 32 -136 5 -99 -6 -147 -47 -212 -44 -70 -92 -91 -217 -96 -156 -6 -144 -31 -144 288 0 247 1 269 18 273 41 11 192 6 230 -7z"></path><path id="p2wZ88ovR" d="M1375 3490 c4 -17 15 -58 25 -93 l17 -62 12 45 c7 25 19 66 26 93 l14 47 -50 0 -51 0 7 -30z"></path><path id="prPtzVPsU" d="M2680 3365 l0 -75 39 0 c52 0 71 20 71 75 0 51 -24 75 -77 75 l-33 0 0 -75z"></path><path id="phmqTudXz" d="M1572 2778 c3 -7 13 -43 23 -80 10 -38 21 -68 24 -68 4 0 15 29 24 64 9 36 20 72 23 80 5 13 -3 16 -46 16 -37 0 -51 -4 -48 -12z"></path><path id="p10dVf65N5" d="M2050 2641 l0 -81 33 0 c64 0 100 53 77 111 -12 29 -19 32 -77 44 l-33 7 0 -81z"></path><path id="pBJdXb68J" d="M2510 2735 l0 -175 25 0 c41 0 81 26 96 62 8 19 14 67 14 113 0 46 -6 94 -14 113 -15 36 -55 62 -96 62 l-25 0 0 -175z"></path><path id="pWvr6Bnt1" d="M928 1644 l-26 -65 68 -122 c38 -67 73 -128 77 -135 5 -8 40 46 100 155 50 92 91 169 90 170 -2 1 -29 -7 -61 -18 -89 -29 -105 -26 -161 31 -27 28 -52 50 -55 50 -3 0 -17 -30 -32 -66z"></path><path id="pwWqh0A3S" d="M2654 1486 c-27 -31 -58 -59 -69 -62 -11 -3 -54 11 -98 31 -44 20 -80 35 -82 33 -1 -2 39 -83 90 -181 l92 -178 78 147 c43 81 78 152 78 158 -1 6 -10 33 -21 60 l-19 48 -49 -56z"></path><path id="p1F4fpXQun" d="M1735 1329 c-27 -33 -59 -62 -71 -65 -11 -3 -47 1 -80 10 -32 8 -59 14 -60 13 -3 -3 280 -515 298 -540 12 -16 29 11 159 245 81 145 145 265 144 267 -2 1 -44 -18 -94 -43 -137 -70 -142 -68 -201 79 -18 44 -36 83 -39 87 -3 4 -29 -20 -56 -53z"></path></g></g><g id="l2vq0LdrfjbjuD4AxbiH2dc" fill="rgb(248,240,192)" style="transform: none;"><g style="transform: none;"><path id="p5BF8mmmG" d="M1761 4526 c7 -8 98 -10 105 -3 4 4 -19 7 -51 7 -32 0 -56 -2 -54 -4z"></path><path id="p3QpAJA3z" d="M1658 4513 c18 -2 45 -2 60 0 15 2 0 4 -33 4 -33 0 -45 -2 -27 -4z"></path><path id="ppmKQ4njx" d="M1928 4513 c18 -2 45 -2 60 0 15 2 0 4 -33 4 -33 0 -45 -2 -27 -4z"></path><path id="pYyqTSsQU" d="M2280 4457 c0 -7 122 -48 127 -43 3 2 -20 12 -49 21 -29 10 -59 20 -65 23 -7 2 -13 2 -13 -1z"></path><path id="p1F7n4HsIj" d="M1280 4435 c-33 -19 -21 -19 21 0 19 8 27 14 19 14 -8 0 -26 -6 -40 -14z"></path><path id="pV0QqKNL4" d="M1088 4354 c-27 -13 -48 -27 -48 -29 0 -5 99 42 109 51 13 11 -20 0 -61 -22z"></path><path id="p11BiGabJF" d="M2491 4376 c10 -9 69 -36 69 -32 0 6 -55 36 -66 36 -4 0 -5 -2 -3 -4z"></path><path id="pbhWvND8q" d="M2925 4080 c21 -22 41 -40 44 -40 3 0 -13 18 -34 40 -21 22 -41 40 -44 40 -3 0 13 -18 34 -40z"></path><path id="p1GX0aG6Ex" d="M611 3986 l-35 -41 39 37 c22 21 37 39 35 41 -3 2 -20 -15 -39 -37z"></path><path id="p1A1btYklb" d="M903 3752 c-7 -4 20 -6 60 -4 102 4 115 10 27 11 -41 0 -80 -3 -87 -7z"></path><path id="pOAepaKsl" d="M1568 3753 c12 -2 30 -2 40 0 9 3 -1 5 -23 4 -22 0 -30 -2 -17 -4z"></path><path id="pC62lorEe" d="M2826 3752 c-2 -4 13 -6 35 -4 21 2 39 6 39 8 0 7 -69 4 -74 -4z"></path><path id="pasyEgpkj" d="M1300 3740 c8 -5 20 -24 27 -42 13 -32 13 -32 7 -3 -6 34 -21 55 -38 55 -6 0 -4 -5 4 -10z"></path><path id="pMw6w023e" d="M2141 3736 c-8 -9 -11 -92 -8 -282 l2 -269 3 272 c2 247 4 273 20 282 9 6 12 11 6 11 -6 0 -17 -6 -23 -14z"></path><path id="p14RtRduXr" d="M1123 3675 c0 -33 2 -45 4 -27 2 18 2 45 0 60 -2 15 -4 0 -4 -33z"></path><path id="pQAAQdvmL" d="M2684 3640 c0 -52 1 -74 3 -47 2 26 2 68 0 95 -2 26 -3 4 -3 -48z"></path><path id="pIQSRBbdv" d="M778 3663 c-22 -26 -41 -64 -34 -71 3 -3 6 -1 6 5 0 6 11 27 25 47 26 39 28 47 3 19z"></path><path id="plh6sk7kQ" d="M1182 3670 c0 -8 8 -37 18 -65 10 -27 18 -43 18 -35 0 8 -8 38 -18 65 -10 28 -18 43 -18 35z"></path><path id="pgJ3K0Iof" d="M356 3580 c-22 -56 -19 -65 5 -11 11 24 18 46 15 48 -2 2 -11 -14 -20 -37z"></path><path id="ptHxNsnFo" d="M1716 3554 c-10 -31 -16 -58 -14 -60 3 -2 12 21 22 52 10 31 16 58 14 60 -3 2 -12 -21 -22 -52z"></path><path id="p6g0aSa3a" d="M2874 3598 c-4 -7 -15 -24 -23 -38 -10 -15 -11 -21 -3 -16 13 7 46 66 38 66 -3 0 -8 -6 -12 -12z"></path><path id="pgcF54dG2" d="M1982 3580 c0 -8 8 -37 18 -65 10 -27 18 -43 18 -35 0 8 -8 38 -18 65 -10 28 -18 43 -18 35z"></path><path id="pChxc4YT9" d="M1836 3505 c-10 -31 -16 -59 -13 -61 2 -3 10 16 17 41 9 32 16 42 21 33 10 -16 10 0 0 25 -5 14 -11 5 -25 -38z"></path><path id="pp3RkpiK6" d="M882 3500 c0 -19 2 -27 5 -17 2 9 2 25 0 35 -3 9 -5 1 -5 -18z"></path><path id="p262xn9Op" d="M2830 3526 c0 -2 12 -12 28 -21 l27 -18 -19 21 c-17 20 -36 29 -36 18z"></path><path id="pqHELhMc9" d="M2308 3513 c23 -2 61 -2 85 0 23 2 4 4 -43 4 -47 0 -66 -2 -42 -4z"></path><path id="pZDuOSnpy" d="M723 3460 c0 -30 2 -43 4 -27 2 15 2 39 0 55 -2 15 -4 2 -4 -28z"></path><path id="pi0rpvjKQ" d="M1872 3490 c0 -8 8 -37 18 -65 10 -27 18 -43 18 -35 0 8 -8 38 -18 65 -10 28 -18 43 -18 35z"></path><path id="pQBKQk8W4" d="M2430 3455 l-5 -50 -77 -3 c-43 -2 -78 -6 -78 -10 0 -13 148 -1 160 13 6 7 10 33 8 57 l-4 43 -4 -50z"></path><path id="p1Fbk4yTc7" d="M1381 3480 c0 -8 8 -42 19 -75 11 -33 17 -44 13 -25 -8 47 -31 119 -32 100z"></path><path id="pB1XxG2yy" d="M1571 3419 c-7 -22 -11 -43 -8 -45 2 -2 9 14 16 37 7 22 11 43 8 45 -2 2 -9 -14 -16 -37z"></path><path id="pH3fSyazt" d="M880 3419 c0 -19 4 -41 9 -48 6 -10 8 1 4 30 -7 55 -13 63 -13 18z"></path><path id="pp2rumI10" d="M2683 3365 c0 -44 2 -61 4 -37 2 23 2 59 0 80 -2 20 -4 1 -4 -43z"></path><path id="pn6ghMwz0" d="M2933 3355 c0 -27 2 -38 4 -22 2 15 2 37 0 50 -2 12 -4 0 -4 -28z"></path><path id="pZxTEzFYM" d="M1272 3370 c0 -8 8 -37 18 -65 10 -27 18 -43 18 -35 0 8 -8 38 -18 65 -10 28 -18 43 -18 35z"></path><path id="pNMIrfSoB" d="M2271 3328 c-1 -25 2 -28 32 -27 29 2 29 2 5 6 -18 3 -28 12 -31 26 -4 18 -5 17 -6 -5z"></path><path id="p6gmbm4Nx" d="M283 3275 c0 -22 2 -30 4 -17 2 12 2 30 0 40 -3 9 -5 -1 -4 -23z"></path><path id="p3kB6jJRf" d="M750 3304 c0 -5 14 -25 31 -44 l30 -35 -27 40 c-16 22 -29 42 -31 44 -2 2 -3 0 -3 -5z"></path><path id="plwI9flXA" d="M2071 3285 c0 -5 6 -30 13 -55 8 -25 15 -36 15 -25 -1 21 -27 98 -28 80z"></path><path id="p7mjM5WLK" d="M3342 3260 c0 -19 2 -27 5 -17 2 9 2 25 0 35 -3 9 -5 1 -5 -18z"></path><path id="pk5E2APnY" d="M1122 3220 c0 -19 2 -27 5 -17 2 9 2 25 0 35 -3 9 -5 1 -5 -18z"></path><path id="p160Q9MJiD" d="M272 2748 c-1 -269 1 -488 6 -488 6 0 6 370 -1 805 -1 94 -4 -49 -5 -317z"></path><path id="pZj6O8GmO" d="M3348 2735 c-2 -261 0 -475 5 -475 4 0 7 214 7 475 0 261 -2 475 -5 475 -2 0 -6 -214 -7 -475z"></path><path id="pTZyWFExM" d="M1038 2909 l3 -109 75 0 74 0 -2 108 -2 107 -3 -102 -4 -103 -64 0 -65 0 0 99 c0 55 -3 102 -7 104 -5 3 -7 -44 -5 -104z"></path><path id="p12R3KcQYn" d="M2164 2998 c-4 -7 -14 -24 -22 -38 -14 -24 -13 -24 3 -5 20 24 37 55 31 55 -3 0 -8 -6 -12 -12z"></path><path id="py8RGfDZt" d="M1334 2735 c0 -148 2 -211 3 -138 2 72 2 194 0 270 -1 76 -3 17 -3 -132z"></path><path id="pbAyRnk4a" d="M1914 2735 c0 -148 2 -211 3 -138 2 72 2 194 0 270 -1 76 -3 17 -3 -132z"></path><path id="p15yBbhYhb" d="M2661 2997 c2 -2 22 -15 44 -31 l40 -27 -35 30 c-19 17 -39 31 -44 31 -5 0 -7 -1 -5 -3z"></path><path id="p1BrjXfeI5" d="M1381 2960 c0 -8 4 -24 9 -35 5 -13 9 -14 9 -5 0 8 -4 24 -9 35 -5 13 -9 14 -9 5z"></path><path id="pVLkXTXOl" d="M1841 2919 c-6 -18 -11 -37 -10 -43 0 -6 7 7 15 28 8 22 12 41 10 43 -2 2 -9 -10 -15 -28z"></path><path id="poME1JrxL" d="M2254 2895 c-9 -14 -15 -28 -12 -30 2 -2 12 9 22 25 21 36 13 40 -10 5z"></path><path id="p1CnQ2W85r" d="M1583 2903 c20 -2 54 -2 75 0 20 2 3 4 -38 4 -41 0 -58 -2 -37 -4z"></path><path id="pM2zXtTAS" d="M2512 2733 l-2 -173 23 1 c16 1 17 3 5 6 -16 4 -18 23 -21 171 l-3 167 -2 -172z"></path><path id="pMjddXTwF" d="M2570 2893 c8 -3 24 -13 35 -22 20 -16 20 -16 1 7 -11 12 -26 22 -35 21 -14 0 -14 -1 -1 -6z"></path><path id="pFadmPME7" d="M2760 2897 c0 -3 7 -21 15 -40 8 -20 16 -60 17 -89 l1 -53 4 45 c4 45 -13 126 -28 136 -5 3 -9 3 -9 1z"></path><path id="pUa9qZoJE" d="M2067 2846 c-11 -8 -14 -17 -8 -20 5 -4 15 3 21 14 13 23 11 24 -13 6z"></path><path id="pVnAthsSc" d="M1571 2783 c0 -5 5 -17 10 -28 9 -19 9 -19 5 2 -3 19 1 22 38 26 l41 4 -47 1 c-27 1 -48 -1 -47 -5z"></path><path id="p1FiipBPTi" d="M1441 2765 c0 -5 10 -44 24 -85 14 -41 22 -60 19 -41 -7 38 -42 142 -43 126z"></path><path id="p1GuApWdmT" d="M1646 2744 c-4 -14 -5 -28 -3 -31 3 -2 8 8 11 23 4 14 5 28 3 31 -3 2 -8 -8 -11 -23z"></path><path id="p12TM8PkPg" d="M2085 2703 c53 -6 65 -18 67 -67 l1 -41 4 38 c6 54 -17 78 -71 75 l-41 -1 40 -4z"></path><path id="ppXHzbmej" d="M2789 2670 c-4 -25 -10 -54 -13 -65 -3 -11 1 -5 9 14 9 18 15 48 13 65 -3 27 -4 25 -9 -14z"></path><path id="pwXSXtwju" d="M1623 2670 c-6 -17 -8 -30 -3 -30 8 0 24 50 18 56 -2 2 -9 -10 -15 -26z"></path><path id="p19WZzB6Vb" d="M1044 2575 c0 -60 1 -84 3 -52 2 32 2 81 0 110 -2 29 -3 3 -3 -58z"></path><path id="plDdhdUUC" d="M1073 2673 c9 -2 25 -2 35 0 9 3 1 5 -18 5 -19 0 -27 -2 -17 -5z"></path><path id="pKorC6SQw" d="M1153 2673 l27 -4 0 -103 c0 -66 4 -106 12 -114 7 -7 35 -11 67 -10 l56 1 -60 6 -60 6 -3 113 -3 112 -32 -1 c-30 -2 -30 -2 -4 -6z"></path><path id="phLaA7Fp5" d="M2302 2640 c0 -19 2 -27 5 -17 2 9 2 25 0 35 -3 9 -5 1 -5 -18z"></path><path id="pRaR57yGt" d="M1741 2589 c-7 -22 -11 -43 -8 -45 2 -2 9 14 16 37 7 22 11 43 8 45 -2 2 -9 -14 -16 -37z"></path><path id="p1029xntsa" d="M2063 2563 c9 -2 25 -2 35 0 9 3 1 5 -18 5 -19 0 -27 -2 -17 -5z"></path><path id="p12PNXJWSZ" d="M1520 2493 c0 -7 9 -22 21 -34 18 -18 30 -21 85 -17 35 2 70 10 76 17 11 10 8 10 -15 2 -32 -12 -117 -14 -133 -3 -6 4 -16 16 -22 27 -6 11 -12 14 -12 8z"></path><path id="p1Hprl3BMj" d="M2187 2464 c-3 -3 -30 -10 -59 -14 -49 -7 -50 -8 -13 -8 35 -1 119 25 89 27 -6 1 -13 -2 -17 -5z"></path><path id="pZvnQmLgV" d="M919 2447 c5 -5 30 -7 57 -5 l49 3 -57 5 c-31 3 -53 1 -49 -3z"></path><path id="p182xPDSdx" d="M1935 2450 c19 -8 123 -14 114 -6 -2 2 -33 6 -69 9 -38 3 -57 1 -45 -3z"></path><path id="pQOdBjulX" d="M2510 2450 l-105 -6 100 -1 c55 -1 109 2 120 7 11 5 13 8 5 7 -8 0 -62 -4 -120 -7z"></path><path id="p12GdWNzge" d="M2023 2263 c20 -2 54 -2 75 0 20 2 3 4 -38 4 -41 0 -58 -2 -37 -4z"></path><path id="puxzba1wb" d="M2718 2263 c12 -2 30 -2 40 0 9 3 -1 5 -23 4 -22 0 -30 -2 -17 -4z"></path><path id="p10WgPtqzw" d="M1215 1640 c-11 -5 -14 -9 -7 -9 7 -1 10 -5 7 -11 -3 -5 -4 -10 -1 -10 3 0 10 9 16 20 6 11 9 20 8 19 -2 0 -12 -4 -23 -9z"></path><path id="p1Elw1tjxd" d="M2410 1472 c0 -5 7 -17 16 -28 14 -18 14 -18 3 5 -10 21 -9 23 5 18 10 -4 15 -3 11 3 -7 12 -35 13 -35 2z"></path><path id="pfjBAxWhL" d="M2624 1449 c-25 -26 -34 -30 -64 -25 -24 4 -30 3 -20 -4 28 -18 56 -10 90 25 19 19 32 35 29 35 -3 0 -18 -14 -35 -31z"></path><path id="pfAah7Rsk" d="M1115 1440 c-9 -16 -13 -30 -11 -30 3 0 12 14 21 30 9 17 13 30 11 30 -3 0 -12 -13 -21 -30z"></path><path id="pUdl3kbHs" d="M2728 1453 c5 -10 7 -25 5 -33 -4 -13 -3 -13 6 -1 9 14 -2 51 -15 51 -2 0 -1 -8 4 -17z"></path><path id="pFdL4j1Ug" d="M1803 1330 c11 -27 23 -48 25 -46 4 5 -35 96 -42 96 -2 0 5 -22 17 -50z"></path><path id="pQNJbTUBC" d="M1729 1318 c-17 -24 -18 -29 -6 -19 18 14 42 51 33 51 -3 0 -15 -15 -27 -32z"></path><path id="p11mpbkT1V" d="M2665 1300 c-9 -16 -13 -30 -11 -30 3 0 12 14 21 30 9 17 13 30 11 30 -3 0 -12 -13 -21 -30z"></path><path id="psZ6TCQCG" d="M2520 1260 c11 -22 23 -40 25 -40 3 0 -4 18 -15 40 -11 22 -23 40 -25 40 -3 0 4 -18 15 -40z"></path><path id="pWPc2s2oE" d="M2068 1234 c-27 -13 -48 -26 -48 -29 0 -5 98 40 107 49 13 13 -14 4 -59 -20z"></path><path id="p1C9tAHcon" d="M1565 1210 c9 -16 18 -30 21 -30 2 0 -2 14 -11 30 -9 17 -18 30 -21 30 -2 0 2 -13 11 -30z"></path><path id="pAiZMc5SN" d="M2064 1165 c-9 -14 -15 -28 -12 -30 2 -2 12 9 22 25 21 36 13 40 -10 5z"></path><path id="p7KoEqlBg" d="M1903 1163 c9 -2 25 -2 35 0 9 3 1 5 -18 5 -19 0 -27 -2 -17 -5z"></path><path id="p101kdPqmX" d="M1630 1095 c0 -10 40 -75 47 -75 2 0 -6 17 -18 38 -28 45 -29 47 -29 37z"></path><path id="pGSKj1ONc" d="M1975 1000 c-9 -16 -13 -30 -11 -30 3 0 12 14 21 30 9 17 13 30 11 30 -3 0 -12 -13 -21 -30z"></path><path id="p11sbYmcMX" d="M1720 935 c0 -10 40 -75 47 -75 2 0 -6 17 -18 38 -28 45 -29 47 -29 37z"></path><path id="p5F9mCkd4" d="M1812 765 c6 -14 15 -25 20 -25 5 0 1 11 -8 25 -9 14 -18 25 -20 25 -2 0 2 -11 8 -25z"></path></g></g></svg>