<svg xmlns="http://www.w3.org/2000/svg" width="359" height="468" viewBox="0 0 3590 4680"><g id="l67aBNA277sVJbId319QQo3" fill="rgb(30,29,14)" style="transform: none;"><g><path id="pdyltlAtm" d="M1525 4585 c-16 -7 -41 -11 -55 -8 -14 2 -62 -1 -105 -7 -44 -7 -100 -14 -124 -16 -47 -3 -164 -38 -196 -58 -11 -7 -40 -18 -65 -25 -53 -16 -124 -50 -148 -71 -24 -20 -82 -53 -82 -45 0 3 -10 -3 -22 -15 -12 -11 -27 -20 -32 -20 -6 0 -17 -9 -24 -20 -7 -11 -19 -20 -27 -20 -8 0 -24 -13 -37 -30 -12 -16 -26 -30 -31 -30 -15 0 -87 -79 -87 -95 0 -8 -9 -15 -19 -15 -11 0 -28 -13 -38 -30 -9 -16 -22 -30 -28 -30 -6 0 -22 -21 -34 -46 -13 -25 -29 -48 -36 -50 -6 -3 -23 -28 -36 -57 -13 -28 -31 -59 -40 -68 -10 -9 -23 -33 -30 -53 -7 -20 -16 -36 -19 -36 -4 0 -13 -19 -20 -42 -7 -24 -21 -50 -30 -58 -9 -9 -20 -34 -24 -55 -4 -22 -14 -53 -22 -70 -8 -16 -16 -43 -18 -60 -3 -16 -14 -61 -25 -100 -11 -38 -21 -80 -21 -92 0 -13 -4 -23 -10 -23 -7 0 -10 -470 -10 -1390 0 -920 3 -1390 10 -1390 6 0 10 -10 10 -21 0 -31 22 -99 32 -99 4 0 8 -6 8 -13 0 -16 38 -89 53 -102 7 -5 23 -26 36 -45 13 -19 42 -44 65 -54 22 -11 52 -31 65 -45 l25 -26 1458 -3 c983 -1 1458 1 1458 8 0 5 6 10 14 10 7 0 25 11 40 25 15 14 38 28 51 31 14 3 25 10 25 15 0 5 6 9 14 9 8 0 26 20 40 45 15 25 31 45 37 45 6 0 7 5 4 10 -3 6 -1 10 4 10 6 0 11 6 11 14 0 8 8 22 17 32 43 43 43 20 43 1550 l0 1461 -26 74 c-14 41 -25 83 -25 94 0 11 -6 30 -14 42 -8 12 -15 36 -15 53 0 16 -4 30 -10 30 -5 0 -10 7 -10 15 0 25 -58 145 -69 145 -6 0 -11 11 -11 23 0 13 -9 32 -20 42 -11 10 -20 24 -20 31 0 22 -83 137 -102 142 -10 2 -18 11 -18 20 0 16 -9 27 -130 147 -110 110 -151 145 -212 180 -29 16 -64 40 -78 52 -14 13 -34 23 -46 23 -11 0 -24 3 -28 7 -11 11 -99 43 -118 43 -10 0 -18 7 -18 15 0 9 -14 16 -37 20 -21 4 -51 11 -67 16 -48 15 -216 40 -295 43 -43 2 -77 9 -81 16 -5 8 -29 10 -81 5 -152 -13 -382 -16 -392 -6 -15 15 -65 12 -102 -4z m596 -165 c220 -22 414 -72 559 -145 51 -26 186 -118 240 -165 l35 -29 -1144 -1 c-1022 0 -1142 2 -1131 15 44 53 229 169 355 223 132 56 260 86 434 102 130 11 536 11 652 0z m1040 -583 c105 -152 197 -384 241 -607 20 -102 23 -146 23 -380 l0 -265 -1620 0 -1620 0 0 285 c0 301 5 351 51 511 43 151 103 281 198 432 l61 97 1309 -2 1310 -3 47 -68z m-2483 -1447 c-7 -11 -21 -20 -31 -20 -26 0 -68 -24 -99 -57 -40 -42 -69 -155 -75 -295 -9 -182 13 -223 144 -269 81 -29 161 -98 228 -199 25 -37 45 -70 45 -73 0 -3 -53 -6 -118 -8 -157 -5 -172 -14 -172 -103 l0 -64 74 -46 c64 -40 164 -131 154 -141 -1 -2 -41 -13 -87 -25 -185 -47 -289 -132 -369 -301 -48 -103 -63 -172 -69 -314 -5 -123 -4 -132 17 -158 18 -22 29 -27 66 -27 57 0 78 21 99 99 21 74 88 161 165 213 64 43 143 64 297 79 l104 10 42 -36 c23 -20 71 -51 107 -68 l65 -32 230 1 c126 0 311 3 410 5 168 4 184 6 235 30 30 14 77 43 104 64 l50 38 86 -6 c239 -17 384 -80 493 -215 68 -83 97 -140 97 -189 0 -21 7 -51 15 -66 l14 -28 -1262 3 -1262 3 -55 26 c-117 55 -206 170 -229 293 -7 40 -11 360 -11 978 l0 918 255 0 c253 0 255 0 243 -20z m1802 -47 c11 -38 29 -110 39 -162 11 -51 25 -97 33 -102 7 -5 28 -9 45 -9 39 0 58 25 67 87 6 42 -8 205 -20 237 -6 14 33 16 390 16 l396 0 -5 -557 c-3 -307 -5 -587 -5 -624 l0 -65 -156 -13 c-86 -7 -182 -19 -214 -25 l-59 -12 22 30 c15 22 23 49 25 97 4 64 3 67 -26 88 -17 11 -35 21 -42 21 -6 0 -60 47 -119 105 -144 140 -185 160 -333 160 l-108 0 0 45 c0 143 -47 353 -108 484 -45 95 -130 193 -206 237 l-51 29 207 0 207 0 21 -67z m-1118 -56 c41 -7 107 -7 238 1 151 9 189 9 235 -3 233 -61 385 -290 402 -605 l6 -106 -59 -16 c-32 -9 -66 -19 -75 -23 -10 -4 -19 4 -30 27 -13 30 -19 33 -61 36 -57 4 -145 -37 -197 -92 -19 -19 -38 -33 -43 -30 -16 10 -8 22 22 34 56 23 79 115 45 180 -20 40 -43 50 -110 50 -46 0 -60 -4 -80 -25 -22 -21 -25 -33 -25 -97 l0 -73 -44 -27 c-24 -16 -46 -28 -50 -28 -3 0 -6 13 -6 29 0 16 -4 41 -10 55 -9 24 -14 26 -77 26 -47 0 -79 -6 -110 -21 -52 -25 -115 -95 -140 -154 -10 -25 -22 -45 -27 -45 -5 0 -23 9 -40 19 -23 15 -35 32 -44 67 -18 65 -85 204 -126 257 l-34 45 97 4 c153 6 188 36 244 212 26 83 31 117 31 191 0 55 -5 99 -13 114 -12 22 -12 23 5 17 11 -4 45 -13 76 -19z m-250 -97 c18 -25 18 -26 -12 -122 -32 -101 -49 -131 -42 -73 5 41 -12 95 -39 123 -15 17 -31 22 -72 22 -29 0 -58 -5 -65 -12 -7 -7 -12 -35 -12 -62 1 -42 6 -57 31 -86 l30 -35 -133 -6 c-75 -4 -137 -3 -142 2 -6 5 6 9 30 9 57 0 77 25 82 101 5 72 -2 81 -64 89 l-46 5 22 28 21 27 147 1 c81 1 158 5 172 9 41 14 72 7 92 -20z m1473 -774 c28 -13 91 -62 142 -109 l92 -86 -34 -20 c-18 -10 -60 -29 -92 -41 -58 -21 -62 -21 -165 -6 -58 9 -131 16 -162 16 -47 0 -58 3 -71 24 -13 19 -14 32 -4 75 16 78 62 132 129 153 75 23 106 22 165 -6z m-1181 -242 c17 -138 27 -154 95 -154 25 0 52 4 60 9 8 5 17 41 22 93 5 48 18 106 30 134 l22 49 8 -50 c21 -125 30 -155 56 -175 58 -45 143 -8 143 63 0 43 25 126 48 155 16 21 17 20 14 -64 -2 -56 1 -90 8 -100 13 -15 106 -20 126 -6 6 4 16 35 22 69 6 34 19 74 29 90 l18 27 3 -74 c3 -68 1 -75 -22 -94 -43 -36 -59 -84 -64 -187 -4 -82 -2 -102 17 -144 24 -54 22 -58 -39 -75 -49 -14 -80 -12 -131 5 -49 18 -86 56 -130 138 l-32 57 -51 0 c-29 0 -57 -5 -64 -12 -21 -21 -15 -126 9 -164 11 -19 16 -34 11 -34 -10 0 -89 114 -124 179 -16 28 -21 31 -67 31 -40 0 -53 -4 -65 -22 -21 -29 -21 -120 0 -160 l16 -31 -29 7 c-47 12 -116 62 -155 113 -20 26 -73 124 -118 218 -44 93 -88 178 -98 188 -15 18 -12 17 28 -3 57 -29 154 -127 164 -164 4 -17 16 -42 27 -58 17 -23 28 -28 60 -28 76 0 79 4 76 143 -2 112 0 126 23 172 l24 50 8 -38 c4 -21 14 -90 22 -153z m1001 -190 c133 -20 242 -55 331 -105 78 -44 179 -132 204 -178 11 -21 6 -19 -32 12 -48 40 -151 86 -263 119 -53 15 -110 21 -238 25 l-167 6 -25 29 c-30 36 -31 44 -5 86 22 36 4 36 195 6z m1023 -204 c1 -117 -2 -226 -8 -254 -26 -123 -112 -241 -211 -291 l-48 -25 16 46 c13 37 15 76 10 198 -3 83 -11 169 -17 191 -22 73 -79 181 -120 228 l-42 47 28 10 c41 16 330 59 374 56 13 -1 15 -32 18 -206z m-2485 120 l15 -40 -61 0 c-76 -1 -198 -22 -252 -44 l-40 -16 30 25 c48 39 138 84 201 99 87 21 89 20 107 -24z"></path><path id="p10rmdwahk" d="M1577 3815 c-49 -17 -85 -50 -104 -94 -21 -50 -28 -198 -13 -271 24 -113 83 -154 220 -154 132 0 172 26 212 138 l19 51 -8 -45 c-4 -25 -8 -65 -8 -90 l0 -45 78 -3 c87 -3 82 -8 93 83 l7 60 17 -70 17 -70 79 0 79 0 9 58 c11 68 26 75 26 13 0 -65 17 -78 99 -74 l66 3 -1 70 c0 39 -16 152 -35 252 -38 206 -28 193 -142 193 -76 0 -71 5 -91 -90 l-13 -65 -13 70 c-7 39 -18 73 -24 77 -21 14 -153 9 -166 -6 -6 -8 -24 -82 -38 -163 l-27 -148 -6 80 c-15 192 -73 256 -234 255 -33 -1 -77 -7 -98 -15z m146 -198 c23 -46 16 -106 -17 -144 -19 -21 -26 -24 -43 -15 -66 36 -48 210 21 200 13 -2 28 -18 39 -41z"></path><path id="p1Dylt1fTC" d="M1175 3804 c-88 -45 -120 -121 -113 -269 5 -124 32 -178 107 -217 44 -23 66 -28 125 -28 48 0 83 6 106 18 30 15 35 22 38 58 2 22 -2 52 -7 67 -10 27 -13 28 -76 26 -76 -2 -98 12 -116 71 -22 72 39 148 96 122 14 -7 39 -12 56 -12 36 0 49 27 49 105 0 51 -1 54 -31 64 -49 17 -198 14 -234 -5z"></path><path id="pWv8h06Er" d="M315 3227 c-3 -7 -4 -127 -3 -267 l3 -255 68 -3 c42 -2 74 2 83 9 10 8 14 35 14 96 l0 84 33 -3 32 -3 3 -88 3 -88 77 3 77 3 3 258 2 258 -77 -3 -78 -3 -3 -87 -3 -88 -34 0 -35 0 0 89 c0 103 2 101 -96 101 -43 0 -66 -4 -69 -13z"></path><path id="p1AvDzuu5j" d="M745 3227 c-3 -7 -4 -127 -3 -267 l3 -255 63 -3 c87 -4 92 2 93 107 l0 86 15 -55 c27 -102 89 -144 209 -144 108 0 139 15 143 71 2 22 -4 58 -13 78 l-15 38 -63 -7 c-53 -5 -66 -3 -80 11 -15 17 -11 18 81 18 l97 0 3 152 c3 178 6 173 -115 181 -135 9 -207 -33 -244 -140 l-18 -53 -1 91 c0 86 -1 92 -22 98 -42 11 -128 7 -133 -7z m334 -264 c0 -36 -2 -43 -9 -27 -7 18 -3 74 6 74 2 0 4 -21 3 -47z"></path><path id="prpS5RYHJ" d="M1332 3233 l-32 -4 2 -262 3 -262 78 -3 77 -3 0 84 c0 92 10 111 52 105 22 -3 23 -8 28 -93 l5 -90 73 -3 72 -3 0 264 c0 232 -2 266 -16 271 -20 8 -63 8 -102 0 l-31 -6 -3 -87 -3 -86 -35 0 -35 0 -3 86 c-3 104 -7 107 -130 92z"></path><path id="pXf1hDdjW" d="M1885 3230 l-170 -5 0 -260 0 -260 69 -3 c41 -2 73 1 80 8 7 7 11 72 11 183 l0 172 75 5 c74 5 75 5 80 35 5 27 7 24 22 -30 22 -83 75 -281 88 -332 l11 -43 90 0 c63 0 91 4 94 13 2 6 17 59 33 117 64 227 92 336 92 362 0 37 -28 50 -102 46 l-62 -3 -12 -40 c-9 -34 -15 -40 -41 -43 -28 -3 -32 0 -38 30 -11 52 -21 58 -89 56 -33 -1 -137 -5 -231 -8z"></path><path id="pryUB7Pco" d="M2475 3227 c-3 -7 -4 -127 -3 -267 l3 -255 77 -3 76 -3 46 83 45 83 3 -80 3 -80 78 -3 77 -3 0 266 0 266 -82 -3 -83 -3 -40 -75 -40 -75 -3 75 c-2 44 -8 78 -15 82 -21 13 -137 9 -142 -5z"></path><path id="p1D8pIn0xs" d="M2905 3217 c-3 -7 -4 -123 -3 -257 l3 -245 110 -3 c138 -4 167 2 210 39 52 46 70 105 70 230 0 92 -3 111 -25 155 -40 77 -83 94 -237 94 -91 0 -125 -3 -128 -13z m199 -166 c40 -44 36 -136 -6 -166 -13 -8 -26 -15 -30 -15 -5 0 -8 45 -8 100 0 106 8 121 44 81z"></path></g></g><g id="l4g4224NHqqRQ5DugMGHu06" fill="rgb(150,81,22)" style="transform: none;"><g><path id="pda3umaVV" d="M1439 4450 c-96 -9 -242 -35 -309 -55 -186 -55 -452 -217 -539 -327 -13 -17 47 -18 1220 -18 l1234 1 -65 60 c-71 67 -198 157 -270 194 -145 73 -339 123 -559 145 -117 11 -582 11 -712 0z"></path><path id="pEbOsab7d" d="M1574 2428 c-3 -4 11 -8 30 -8 19 0 38 4 41 10 3 5 -9 9 -30 8 -20 -1 -38 -5 -41 -10z"></path><path id="pOQKzJyTN" d="M1870 2432 c0 -5 24 -14 53 -21 148 -37 279 -149 349 -297 63 -135 108 -341 108 -495 l0 -56 53 14 c131 36 238 -5 377 -142 52 -51 115 -104 140 -118 24 -14 49 -31 54 -39 30 -49 -52 -167 -146 -209 l-53 -24 36 -3 c20 -2 83 11 140 28 78 23 147 34 279 46 96 9 180 18 186 19 7 2 11 200 12 654 l2 651 -436 0 c-411 0 -436 -1 -429 -17 26 -69 39 -155 36 -249 -1 -39 -30 -78 -49 -65 -8 4 -22 51 -33 102 -10 52 -28 124 -39 162 l-21 67 -309 0 c-171 0 -310 -4 -310 -8z"></path><path id="p07XOh8gI" d="M958 2416 c-43 -15 -124 -62 -133 -76 -10 -16 95 -12 155 6 111 33 217 2 264 -77 29 -49 25 -136 -12 -255 -58 -185 -87 -207 -275 -213 l-127 -3 58 -63 c62 -66 139 -207 164 -298 11 -43 19 -51 76 -87 35 -22 65 -40 68 -40 2 0 4 8 4 18 0 30 47 118 85 160 44 49 108 82 158 82 44 0 51 -12 62 -108 l7 -64 37 35 c79 75 157 108 177 75 4 -7 15 -44 24 -83 l16 -70 18 34 c30 56 97 121 158 152 32 16 64 29 71 29 22 0 39 -26 42 -62 2 -22 7 -32 17 -29 7 3 55 19 107 35 l93 31 -5 135 c-8 221 -70 393 -182 506 -67 68 -134 106 -227 130 -54 14 -84 14 -248 4 -214 -14 -253 -8 -376 54 -111 55 -200 69 -276 42z m828 -721 c34 -23 49 -69 34 -105 -36 -86 -160 -61 -160 32 0 70 71 112 126 73z"></path><path id="p8TbxoBqJ" d="M990 2240 c-14 -4 -91 -8 -171 -9 -132 -1 -148 -3 -164 -21 -22 -25 -55 -159 -55 -227 0 -44 4 -55 27 -73 23 -18 35 -20 63 -14 19 4 111 8 203 9 145 2 171 5 188 21 22 20 79 192 79 240 0 17 -9 43 -21 58 -18 22 -28 26 -72 25 -29 -1 -63 -5 -77 -9z m-265 -143 c36 -27 -3 -117 -51 -117 -30 0 -43 25 -34 67 14 60 45 78 85 50z m261 -4 c24 -24 45 -79 38 -98 -4 -8 -18 -18 -31 -22 -21 -5 -32 1 -59 33 -35 41 -42 72 -22 92 17 17 54 15 74 -5z"></path><path id="pe1ZKnyoy" d="M2390 1452 c-42 -14 -62 -27 -86 -59 -49 -65 -70 -186 -38 -231 13 -18 25 -22 72 -22 31 0 102 -7 156 -15 55 -8 116 -15 137 -15 63 0 201 59 236 101 10 12 -8 33 -98 114 -60 55 -130 110 -156 122 -59 28 -144 29 -223 5z"></path><path id="p1142UFUhA" d="M1357 1394 c-53 -52 -71 -121 -64 -247 5 -98 5 -98 -20 -110 -23 -10 -28 -8 -49 18 -13 16 -26 42 -29 57 -8 35 -73 108 -132 147 -46 31 -108 53 -185 66 l-38 6 56 -56 c47 -47 68 -82 141 -233 46 -97 101 -199 121 -225 47 -61 111 -102 195 -124 90 -24 98 -14 52 62 -38 64 -43 99 -19 133 26 38 54 25 91 -42 19 -32 50 -81 70 -108 l36 -50 46 7 c25 4 49 9 54 12 4 2 -11 29 -33 60 -56 78 -53 143 5 143 16 0 30 -14 50 -52 47 -86 85 -126 139 -144 66 -22 175 -15 238 17 48 23 48 23 28 44 -10 11 -29 42 -41 69 -38 88 -10 237 54 279 22 14 24 20 19 94 -3 55 1 91 12 123 8 24 13 46 12 48 -9 9 -87 -41 -106 -68 -12 -16 -26 -59 -32 -95 -10 -57 -14 -66 -36 -72 -62 -15 -77 51 -42 187 12 45 19 84 17 86 -2 2 -31 -22 -64 -54 -64 -61 -93 -123 -93 -199 0 -23 -8 -42 -25 -59 -24 -24 -28 -25 -48 -11 -33 21 -46 56 -61 161 -7 53 -16 99 -20 103 -11 11 -58 -40 -78 -86 -10 -24 -22 -82 -27 -129 -9 -84 -18 -102 -52 -102 -35 0 -50 36 -64 149 -14 113 -32 222 -38 227 -2 2 -20 -13 -40 -32z"></path></g></g><g id="lDp8hOo0Rvma1nLOSFO4zu" fill="rgb(100,97,72)" style="transform: none;"><g><path id="pEMmPASZY" d="M2055 4590 c28 -12 45 -12 45 0 0 6 -15 10 -32 9 -28 0 -30 -2 -13 -9z"></path><path id="pp0PRVccZ" d="M2535 4510 c11 -5 27 -9 35 -9 9 0 8 4 -5 9 -11 5 -27 9 -35 9 -9 0 -8 -4 5 -9z"></path><path id="pY0nd0TFJ" d="M404 3843 c-147 -233 -222 -445 -249 -700 -6 -58 -5 -63 13 -63 16 0 20 9 25 68 9 94 30 216 38 222 11 8 39 111 39 142 0 17 5 28 14 28 12 0 46 71 46 98 0 7 4 12 8 12 5 0 19 24 33 53 13 28 27 54 32 55 4 2 7 15 7 28 0 15 6 24 15 24 10 0 15 10 15 30 0 23 4 30 20 30 11 0 20 7 20 15 0 8 5 15 10 15 6 0 10 9 10 20 0 12 -7 20 -18 20 -11 0 -39 -35 -78 -97z"></path><path id="pzztCbeIF" d="M3122 3909 c2 -26 8 -35 26 -37 17 -3 22 -10 22 -33 0 -16 4 -29 8 -29 4 0 14 -16 21 -35 7 -19 19 -35 27 -35 8 0 14 -9 14 -20 0 -36 22 -70 46 -70 21 0 22 3 14 25 -14 36 -81 153 -121 209 -44 63 -62 70 -57 25z"></path><path id="p14canRF4X" d="M1240 3810 c0 -18 7 -20 54 -20 75 0 116 -16 116 -45 0 -13 -4 -35 -10 -50 -8 -22 -13 -24 -29 -15 -30 16 -51 12 -51 -9 0 -21 19 -31 61 -31 19 0 29 5 29 15 0 8 6 15 14 15 25 0 35 102 12 125 -18 18 -88 34 -148 35 -41 0 -48 -3 -48 -20z"></path><path id="phaKxjnNF" d="M1690 3816 c0 -13 28 -26 58 -26 6 0 12 9 12 20 0 16 -7 20 -35 20 -23 0 -35 -5 -35 -14z"></path><path id="p1FXONdDZN" d="M2080 3806 c0 -8 10 -16 23 -20 20 -5 25 -17 41 -98 23 -111 36 -152 46 -141 6 7 50 205 50 226 0 4 -8 7 -19 7 -13 0 -21 -11 -28 -42 l-10 -43 -8 43 c-4 23 -11 42 -16 42 -5 0 -9 9 -9 20 0 16 -7 20 -35 20 -23 0 -35 -5 -35 -14z"></path><path id="p11jgTAojv" d="M2310 3806 c0 -8 12 -17 28 -20 27 -6 27 -9 60 -189 18 -100 36 -194 38 -209 7 -38 34 -37 34 1 0 16 -13 101 -30 189 -16 89 -30 170 -30 181 0 12 -6 21 -15 21 -8 0 -15 9 -15 20 0 16 -7 20 -35 20 -24 0 -35 -5 -35 -14z"></path><path id="p8AHwsXgb" d="M1150 3770 l0 -30 35 22 c44 29 44 38 0 38 -32 0 -35 -2 -35 -30z"></path><path id="poc9SnbHB" d="M1500 3745 c0 -28 -4 -35 -19 -35 -19 0 -31 -39 -31 -102 0 -38 27 -36 34 2 3 17 9 44 12 61 3 17 22 49 41 70 l35 39 -36 0 c-34 0 -36 -1 -36 -35z"></path><path id="p2vIr2lVU" d="M1830 3731 c11 -17 28 -59 37 -95 16 -66 43 -92 43 -41 0 40 -21 125 -31 125 -5 0 -9 9 -9 20 0 16 -7 20 -31 20 l-30 0 21 -29z"></path><path id="pI5ILVgpl" d="M1937 3630 c-21 -121 -21 -140 -3 -140 14 0 21 24 46 164 13 77 13 76 -8 76 -16 0 -21 -15 -35 -100z"></path><path id="pZKs9bw3X" d="M1066 3669 c-18 -91 12 -111 36 -24 15 55 15 55 -7 55 -17 0 -24 -7 -29 -31z"></path><path id="pm8XQVsZH" d="M1240 3670 c-40 -40 -52 -100 -21 -100 13 0 21 9 26 29 3 15 17 34 30 41 31 16 34 50 5 50 -11 0 -29 -9 -40 -20z"></path><path id="pkAHnAsDS" d="M1617 3672 c-10 -11 -21 -36 -24 -56 -5 -32 -3 -36 15 -36 17 0 22 8 27 44 9 59 4 72 -18 48z"></path><path id="pwgt6FLDZ" d="M1710 3660 c0 -16 5 -30 10 -30 6 0 10 -11 10 -25 0 -19 5 -25 21 -25 19 0 21 4 15 32 -7 37 -32 78 -46 78 -6 0 -10 -13 -10 -30z"></path><path id="p5NsJ6cBf" d="M3300 3604 c0 -34 41 -164 52 -164 4 0 8 -8 8 -17 0 -10 8 -53 17 -95 14 -61 22 -78 35 -78 10 0 18 4 18 9 0 31 -34 161 -67 255 -38 109 -63 145 -63 90z"></path><path id="pUHbvyD02" d="M2047 3498 c-10 -62 -17 -124 -17 -136 0 -16 -7 -26 -20 -29 -34 -9 -24 -33 14 -33 l34 0 8 68 7 67 10 -42 c7 -32 15 -43 28 -43 23 0 23 6 5 79 -7 31 -19 84 -26 119 -7 34 -16 62 -20 62 -4 0 -14 -51 -23 -112z"></path><path id="pDnkGpRSI" d="M2287 3583 c-7 -11 -47 -205 -47 -227 0 -9 8 -16 20 -16 15 0 20 7 20 25 0 42 19 28 22 -17 3 -43 3 -43 46 -46 31 -2 42 0 42 11 0 8 -11 18 -25 21 -27 7 -28 8 -45 141 -13 92 -23 125 -33 108z"></path><path id="pj2pTWWcB" d="M1724 3505 c-6 -40 -9 -45 -33 -45 -34 1 -61 22 -61 49 0 14 -6 21 -20 21 -41 0 -10 -95 34 -106 65 -16 109 16 122 89 5 33 4 37 -14 37 -17 0 -22 -8 -28 -45z"></path><path id="ppuhBvHcm" d="M1867 3483 c-9 -32 -25 -72 -35 -89 -43 -68 -170 -89 -256 -41 l-46 26 0 -28 c0 -23 7 -31 33 -42 42 -18 219 -19 225 -1 2 6 12 12 23 12 12 0 19 7 19 20 0 13 7 20 19 20 12 0 24 13 34 38 l16 37 -6 -52 c-5 -48 -4 -53 13 -53 12 0 20 7 20 18 0 9 4 36 8 60 7 38 6 42 -12 42 -17 0 -19 5 -14 45 3 35 1 45 -10 45 -9 0 -21 -21 -31 -57z"></path><path id="p1ExrFYYry" d="M1060 3504 c0 -37 21 -114 31 -114 5 0 9 -7 9 -15 0 -8 7 -15 15 -15 8 0 15 -7 15 -15 0 -19 51 -45 90 -45 41 0 39 23 -5 39 -54 19 -93 65 -112 132 -17 61 -43 81 -43 33z"></path><path id="p70P3x4NB" d="M1450 3508 c0 -13 3 -40 6 -60 5 -31 11 -38 29 -38 l23 0 -15 60 c-15 60 -43 84 -43 38z"></path><path id="pOQmdTrLf" d="M1240 3446 c17 -17 33 -21 87 -21 64 0 67 -1 76 -28 11 -35 -3 -53 -54 -69 -22 -6 -39 -17 -39 -25 0 -18 51 -17 95 1 33 14 35 17 35 65 0 27 -4 61 -9 74 -9 24 -12 25 -111 24 l-101 0 21 -21z"></path><path id="pXabyfpmq" d="M400 3226 c0 -8 11 -17 25 -20 14 -4 25 -13 25 -21 0 -8 5 -15 10 -15 6 0 10 16 10 35 0 33 -2 35 -35 35 -23 0 -35 -5 -35 -14z"></path><path id="puptNN1ID" d="M568 3233 c-13 -3 -18 -15 -18 -39 0 -38 24 -48 33 -14 4 16 14 20 51 20 34 0 46 -4 46 -15 0 -8 5 -15 10 -15 6 0 10 16 10 35 l0 35 -57 -1 c-32 -1 -66 -3 -75 -6z"></path><path id="pHOdhlZfa" d="M810 3226 c0 -8 13 -17 29 -21 17 -3 32 -14 34 -23 3 -9 5 0 6 21 1 36 0 37 -34 37 -24 0 -35 -5 -35 -14z"></path><path id="pPAoOMNAk" d="M1038 3233 c-10 -2 -18 -9 -18 -14 0 -5 -9 -9 -19 -9 -42 0 -101 -113 -101 -192 0 -50 26 -31 43 32 22 78 70 133 132 150 53 15 62 41 13 39 -18 -1 -41 -3 -50 -6z"></path><path id="p19rjqZsIj" d="M1150 3227 c0 -8 21 -20 48 -28 l47 -14 3 -82 c3 -75 5 -83 22 -83 18 0 20 7 20 88 0 48 -4 93 -8 100 -18 27 -132 44 -132 19z"></path><path id="p1BQqsXazE" d="M1321 3203 c1 -21 3 -31 6 -22 2 10 17 18 36 21 64 7 66 5 69 -90 3 -73 6 -87 21 -90 15 -3 17 7 17 101 0 120 2 117 -91 117 l-59 0 1 -37z"></path><path id="pnzWK62VA" d="M1543 3225 c-9 -9 -13 -48 -13 -110 0 -86 2 -96 18 -93 14 3 17 17 20 89 l3 87 29 6 c61 12 60 16 60 -240 0 -201 -2 -234 -15 -234 -8 0 -15 -4 -15 -10 0 -5 16 -10 35 -10 l35 0 0 259 c0 227 -2 260 -16 265 -31 12 -129 6 -141 -9z"></path><path id="psqdurdsO" d="M1740 3217 c0 -20 4 -22 45 -19 36 3 45 8 45 23 0 16 -7 19 -45 19 -40 0 -45 -2 -45 -23z"></path><path id="p12VfefUEW" d="M2040 3205 c0 -19 5 -35 10 -35 6 0 10 7 10 15 0 8 11 17 25 21 39 10 31 34 -10 34 -33 0 -35 -2 -35 -35z"></path><path id="pUOaROPbp" d="M2370 3228 c0 -7 13 -19 29 -25 l30 -11 -15 -53 c-35 -126 -54 -203 -54 -216 0 -7 8 -13 18 -13 14 0 22 16 35 73 9 40 17 83 17 95 0 12 4 22 9 22 5 0 12 10 14 23 2 12 5 -74 6 -190 l1 -213 38 0 c30 1 34 3 20 11 -16 9 -18 31 -18 239 0 207 2 230 17 239 26 14 16 18 -69 26 -63 5 -78 4 -78 -7z"></path><path id="pBQyvO926" d="M2550 3226 c0 -8 11 -17 25 -20 14 -4 25 -13 25 -21 0 -8 5 -15 10 -15 6 0 10 16 10 35 0 33 -2 35 -35 35 -23 0 -35 -5 -35 -14z"></path><path id="pzpnm2RCF" d="M2723 3233 c-7 -2 -13 -20 -13 -39 0 -26 -4 -34 -18 -34 -22 0 -52 -58 -52 -100 0 -23 -4 -30 -20 -30 -17 0 -20 -7 -20 -42 0 -56 9 -46 85 95 l60 112 52 3 c43 2 52 0 56 -15 3 -10 5 -1 6 20 l1 37 -62 -1 c-35 0 -69 -3 -75 -6z"></path><path id="p1Chy72ZwL" d="M2990 3221 c0 -19 5 -21 68 -21 122 -1 181 -47 202 -160 6 -29 10 -54 10 -56 0 -2 7 -4 15 -4 16 0 19 29 9 93 -4 22 -12 37 -20 37 -9 0 -14 11 -14 30 0 27 -3 30 -30 30 -25 0 -30 4 -30 24 0 29 -15 33 -127 42 -80 7 -83 6 -83 -15z"></path><path id="pPAAjwvdD" d="M2900 3195 c0 -39 24 -50 33 -15 3 11 12 20 21 20 9 0 16 7 16 15 0 10 -11 15 -35 15 -33 0 -35 -2 -35 -35z"></path><path id="purNfEmXC" d="M2276 3179 c-9 -49 -7 -61 10 -57 10 2 22 21 29 46 13 41 12 42 -10 42 -17 0 -24 -7 -29 -31z"></path><path id="pO945h2Lk" d="M3410 3175 c0 -28 4 -35 20 -35 21 0 24 10 14 48 -10 36 -34 27 -34 -13z"></path><path id="pZVVSuwMy" d="M2040 3138 c0 -37 42 -198 51 -198 5 0 9 -11 9 -24 0 -13 7 -56 16 -95 13 -57 20 -71 35 -71 25 0 25 6 -14 151 -19 68 -42 154 -52 192 -11 42 -22 67 -31 67 -8 0 -14 -10 -14 -22z"></path><path id="p1AfbOe2tv" d="M3420 3085 c0 -38 3 -45 20 -45 21 0 26 23 14 68 -11 41 -34 26 -34 -23z"></path><path id="pRBSs9Ni6" d="M1095 3096 c-71 -31 -86 -186 -23 -242 l20 -19 -7 45 c-14 91 -10 145 13 168 12 12 33 22 47 22 28 0 34 24 9 34 -21 8 -24 7 -59 -8z"></path><path id="pH0i2fRSA" d="M3037 3103 c-17 -17 -3 -31 37 -37 41 -6 44 -9 50 -44 10 -62 7 -88 -14 -115 -20 -25 -27 -67 -12 -67 22 0 53 35 62 72 26 95 -19 198 -88 198 -16 0 -32 -3 -35 -7z"></path><path id="p1H5b16N64" d="M1845 3090 c-4 -6 -5 -86 -4 -178 3 -164 3 -167 -19 -177 -37 -16 -27 -37 16 -33 l37 3 3 198 c2 167 0 197 -12 197 -8 0 -18 -5 -21 -10z"></path><path id="pWmWR7xEI" d="M447 3069 c-7 -27 1 -49 19 -49 9 0 14 12 14 35 0 39 -24 49 -33 14z"></path><path id="phaD0nV9w" d="M1710 2995 c0 -57 3 -75 14 -75 21 0 25 36 17 138 -1 6 -8 12 -16 12 -12 0 -15 -15 -15 -75z"></path><path id="pfLWK352E" d="M2200 3010 c0 -22 34 -130 40 -130 7 0 40 106 40 128 0 7 -16 12 -40 12 -22 0 -40 -5 -40 -10z"></path><path id="p0GhT0CtO" d="M2715 2947 c-11 -23 -21 -45 -23 -49 -2 -5 8 -8 22 -8 19 0 26 5 26 19 0 10 3 33 6 50 9 44 -7 38 -31 -12z"></path><path id="pJ0ZGAtmk" d="M3261 2910 c-20 -92 -67 -151 -131 -165 -43 -9 -39 -35 5 -35 28 0 35 4 35 20 0 16 7 20 35 20 28 0 35 4 35 20 0 11 7 20 15 20 17 0 45 86 45 137 0 53 -26 42 -39 -17z"></path><path id="pUx4KnGoG" d="M900 2925 c0 -40 21 -125 31 -125 5 0 9 -8 9 -18 0 -18 29 -52 44 -52 4 0 14 -6 22 -14 28 -28 224 -32 224 -5 0 5 9 9 20 9 17 0 20 7 20 49 0 26 -5 62 -11 80 -10 30 -13 31 -65 31 -48 0 -54 -2 -54 -21 0 -19 4 -21 36 -16 33 6 36 4 50 -30 9 -19 13 -42 10 -49 -14 -36 -138 -49 -191 -21 -54 28 -84 69 -101 140 -11 42 -22 67 -30 67 -8 0 -14 -11 -14 -25z"></path><path id="pw5auhEUQ" d="M450 2900 c0 -13 7 -20 20 -20 13 0 20 7 20 20 0 13 -7 20 -20 20 -13 0 -20 -7 -20 -20z"></path><path id="pCxYgUuXx" d="M530 2901 c0 -16 6 -21 26 -21 33 0 30 33 -4 38 -17 3 -22 -2 -22 -17z"></path><path id="p10IMmzYfq" d="M1442 2908 c-7 -7 -12 -42 -12 -95 0 -67 -3 -83 -15 -83 -8 0 -15 -4 -15 -10 0 -5 16 -10 35 -10 l35 0 0 85 0 85 30 0 30 0 0 -74 c0 -96 4 -106 46 -106 38 0 48 24 14 33 -17 4 -20 15 -22 93 l-3 89 -55 3 c-34 2 -60 -2 -68 -10z"></path><path id="pW7cojdHd" d="M2340 2875 c0 -3 -9 -37 -19 -75 l-20 -70 22 0 c19 0 24 9 35 53 16 70 15 97 -3 97 -8 0 -15 -2 -15 -5z"></path><path id="pJtFeGSuQ" d="M2626 2781 c-14 -27 -32 -52 -39 -54 -6 -3 4 -6 24 -6 29 -1 38 4 47 24 14 30 16 85 4 85 -5 0 -21 -22 -36 -49z"></path><path id="pjiNRvC7E" d="M2900 2745 c0 -33 2 -35 35 -35 39 0 50 24 15 33 -11 3 -20 12 -20 21 0 9 -7 16 -15 16 -10 0 -15 -11 -15 -35z"></path><path id="pawDt0LP5" d="M740 2735 c0 -33 2 -35 35 -35 39 0 50 24 15 33 -11 3 -20 12 -20 21 0 9 -7 16 -15 16 -10 0 -15 -11 -15 -35z"></path><path id="pdC4gX2FS" d="M2720 2735 c0 -33 2 -35 35 -35 39 0 50 24 15 33 -11 3 -20 12 -20 21 0 9 -7 16 -15 16 -10 0 -15 -11 -15 -35z"></path><path id="pwtyaFlQu" d="M152 2573 c3 -17 90 -18 1653 -18 1563 0 1650 1 1653 18 3 16 -81 17 -1653 17 -1572 0 -1656 -1 -1653 -17z"></path><path id="pvE5uuSY7" d="M697 2422 c-10 -10 -17 -22 -17 -26 0 -17 -31 -36 -59 -36 -17 0 -31 -3 -31 -8 0 -4 -10 -12 -22 -17 -14 -6 -24 -21 -26 -37 -2 -16 -9 -28 -16 -28 -15 0 -42 -94 -52 -184 -6 -47 -4 -56 9 -56 11 0 18 13 22 38 17 97 48 188 73 215 30 32 72 56 99 58 10 1 38 23 62 50 l44 49 -35 0 c-21 0 -41 -7 -51 -18z"></path><path id="peaDwmMFT" d="M620 1765 c0 -20 5 -25 25 -25 14 0 25 -4 25 -10 0 -5 7 -10 15 -10 8 0 15 -4 15 -10 0 -5 17 -10 38 -10 l37 1 -32 27 c-17 15 -52 35 -77 44 l-46 17 0 -24z"></path><path id="pMtL1yGkm" d="M800 1636 c0 -25 4 -36 15 -36 8 0 15 -9 15 -20 0 -11 5 -20 10 -20 6 0 10 -7 10 -15 0 -8 6 -15 14 -15 8 0 16 -13 18 -30 3 -16 1 -30 -4 -30 -22 0 -4 -29 22 -35 44 -10 52 0 35 42 -18 42 -98 165 -120 183 -13 11 -15 7 -15 -24z"></path><path id="p1BP0NtLfw" d="M770 1460 c0 -16 7 -20 35 -20 28 0 35 4 35 20 0 16 -7 20 -35 20 -28 0 -35 -4 -35 -20z"></path><path id="pIqOXQEzd" d="M648 1463 c-11 -3 -18 -14 -18 -29 0 -17 -5 -24 -20 -24 -17 0 -20 -7 -20 -45 0 -33 4 -45 15 -45 8 0 15 -9 15 -20 0 -11 7 -20 15 -20 8 0 15 -4 15 -10 0 -5 11 -12 25 -16 14 -3 25 -10 25 -15 0 -5 7 -9 15 -9 8 0 15 -4 15 -10 0 -5 16 -10 35 -10 34 0 35 -2 35 -36 0 -27 5 -37 20 -41 36 -9 21 -19 -46 -32 -76 -14 -168 -46 -188 -67 -8 -8 -19 -14 -25 -14 -6 0 -11 -4 -11 -9 0 -5 -9 -11 -20 -14 -15 -4 -20 -14 -20 -37 l0 -32 48 35 c26 19 65 44 88 55 46 23 189 62 228 62 l26 0 -27 43 c-43 67 -93 115 -170 164 -67 41 -73 48 -73 79 0 37 22 57 78 69 46 10 42 35 -5 34 -21 -1 -46 -3 -55 -6z"></path><path id="p10V1RmquR" d="M2186 1018 c-22 -31 -20 -38 9 -38 14 0 25 5 25 10 0 6 23 10 50 10 36 0 50 4 50 14 0 16 -30 26 -82 26 -27 0 -41 -6 -52 -22z"></path><path id="pYWVX6QUn" d="M2330 1012 c0 -16 10 -21 60 -26 33 -4 106 -21 163 -37 56 -17 117 -33 135 -36 18 -3 32 -11 32 -19 0 -8 10 -14 25 -14 16 0 25 -6 25 -15 0 -8 7 -15 15 -15 8 0 15 -4 15 -10 0 -5 6 -10 14 -10 8 0 16 -7 20 -15 3 -8 17 -15 31 -15 20 0 25 -5 25 -26 0 -17 6 -28 20 -31 11 -3 20 -14 20 -24 0 -14 7 -19 25 -19 14 0 25 4 25 9 0 18 -81 112 -123 142 -132 96 -264 144 -479 174 -43 6 -48 4 -48 -13z"></path><path id="paPJNeqeX" d="M3348 1013 c-10 -2 -18 -11 -18 -19 0 -10 13 -14 45 -14 l45 0 0 -115 c0 -109 1 -115 20 -115 20 0 20 5 18 133 l-3 132 -45 2 c-25 0 -53 -1 -62 -4z"></path><path id="pdCHvJMbp" d="M3154 990 c-95 -15 -214 -45 -214 -55 0 -1 20 -25 45 -51 25 -27 58 -68 73 -91 15 -24 30 -43 35 -43 4 0 7 16 7 35 0 19 -4 35 -10 35 -5 0 -10 7 -10 15 0 8 -4 15 -10 15 -5 0 -10 6 -10 13 0 8 -9 22 -20 32 -11 10 -17 22 -13 26 10 9 138 36 216 45 47 6 57 10 57 25 0 22 -1 22 -146 -1z"></path><path id="pSYjyh3SH" d="M807 954 c-67 -16 -97 -30 -97 -45 0 -12 33 -9 144 12 55 11 70 11 74 1 2 -6 14 -12 27 -12 22 0 23 2 14 30 -10 28 -14 30 -57 29 -26 0 -73 -7 -105 -15z"></path><path id="psKx7QWvl" d="M2160 911 c0 -11 11 -33 25 -48 l24 -28 1 32 c0 44 -9 63 -31 63 -12 0 -19 -7 -19 -19z"></path><path id="pUUMs4IsN" d="M440 906 c0 -8 -7 -16 -15 -20 -8 -3 -15 -12 -15 -21 0 -8 -4 -15 -9 -15 -5 0 -15 -20 -22 -45 -7 -25 -17 -45 -20 -45 -15 0 -59 -171 -59 -230 0 -45 28 -39 36 8 22 128 68 246 132 335 l34 47 -31 0 c-20 0 -31 -5 -31 -14z"></path><path id="pghfBYUQd" d="M642 882 c-51 -34 -101 -92 -131 -149 -30 -60 -26 -70 14 -34 20 17 63 45 95 61 63 32 76 50 35 50 -18 0 -23 4 -19 15 4 8 12 15 20 15 8 0 14 5 14 10 0 6 7 10 15 10 9 0 15 9 15 25 0 32 -5 31 -58 -3z"></path><path id="ptBc3JN0y" d="M960 851 c0 -16 6 -21 26 -21 33 0 30 33 -4 38 -17 3 -22 -2 -22 -17z"></path><path id="p46Lk5URG" d="M2260 850 c0 -19 7 -20 90 -20 83 0 90 1 90 20 0 19 -7 20 -90 20 -83 0 -90 -1 -90 -20z"></path><path id="pVQKdMjyG" d="M773 853 c-25 -3 -33 -9 -33 -25 0 -18 4 -19 43 -13 83 12 97 17 97 31 0 14 -32 16 -107 7z"></path><path id="pm7yzLDUB" d="M2460 846 c0 -14 29 -26 66 -26 27 0 162 -40 232 -68 l52 -22 0 24 c0 19 -10 27 -56 45 -31 11 -69 21 -85 21 -16 0 -29 4 -29 9 0 9 -107 31 -153 31 -16 0 -27 -6 -27 -14z"></path><path id="pSByF5c3U" d="M3100 714 c26 -69 50 -85 50 -35 0 44 -10 61 -36 61 -21 0 -23 -3 -14 -26z"></path><path id="pYQqNRUko" d="M2891 671 c36 -33 83 -83 105 -110 21 -28 41 -51 45 -51 9 0 -17 114 -32 142 -6 11 -17 17 -24 14 -7 -2 -19 2 -25 10 -7 8 -23 14 -36 14 -17 0 -24 6 -24 20 0 16 -7 20 -37 20 l-38 0 66 -59z"></path><path id="pYd9Vx0yI" d="M958 713 c-10 -2 -18 -11 -18 -19 0 -10 13 -14 50 -14 43 0 50 3 50 20 0 16 -6 20 -32 19 -18 -1 -41 -3 -50 -6z"></path><path id="p9y6wobvg" d="M2390 700 c0 -17 7 -20 40 -20 45 0 57 23 18 34 -42 11 -58 7 -58 -14z"></path><path id="p4Z8rEK0D" d="M768 690 c-66 -14 -102 -28 -145 -57 -79 -52 -146 -139 -168 -214 -17 -61 -43 -99 -69 -99 -17 0 -56 46 -56 66 0 8 -7 14 -15 14 -20 0 -20 -59 1 -88 18 -26 84 -32 84 -7 0 10 10 15 34 15 34 0 35 1 57 75 12 41 26 75 30 75 5 0 9 9 9 20 0 11 7 20 15 20 10 0 15 10 15 30 0 27 3 30 30 30 18 0 33 6 36 15 4 8 12 15 20 15 8 0 14 7 14 15 0 9 9 15 24 15 13 0 42 7 65 15 23 8 64 17 91 21 40 5 50 10 50 25 0 23 -9 23 -122 -1z"></path><path id="pIlkqqwCS" d="M2480 692 c0 -14 14 -21 63 -31 34 -7 89 -23 123 -37 33 -13 68 -24 77 -24 9 0 17 -7 17 -15 0 -8 9 -15 20 -15 11 0 20 -6 20 -13 0 -21 44 -57 68 -57 18 0 22 -6 22 -30 0 -20 5 -30 15 -30 8 0 15 -9 15 -20 0 -11 7 -20 15 -20 9 0 15 -9 15 -24 0 -37 10 -56 31 -56 40 0 7 77 -78 182 -85 105 -183 161 -335 193 -87 19 -88 19 -88 -3z"></path><path id="pOyRI5cMY" d="M2188 666 c-26 -17 -48 -34 -48 -38 0 -13 65 -9 84 5 11 8 16 23 14 39 l-3 25 -47 -31z"></path><path id="ph2JoXlZk" d="M1110 660 c0 -20 5 -30 15 -30 8 0 15 -4 15 -10 0 -5 5 -10 11 -10 6 0 17 -7 25 -15 9 -8 26 -15 40 -15 13 0 24 -4 24 -9 0 -17 118 -30 275 -30 153 0 245 11 245 30 0 13 38 11 42 -3 6 -17 153 -22 236 -8 65 11 72 14 72 35 0 23 -1 23 -47 9 -58 -18 -206 -17 -256 0 -33 12 -42 12 -70 -3 -27 -13 -66 -16 -232 -16 -222 0 -238 3 -334 65 l-61 40 0 -30z"></path><path id="p1Fh4aCdMO" d="M3147 578 c4 -29 8 -105 8 -168 0 -133 -11 -166 -65 -192 -33 -17 -116 -18 -1307 -18 -1077 0 -1273 -2 -1273 -14 0 -7 10 -16 23 -20 12 -3 607 -5 1322 -3 l1300 2 65 31 c113 53 199 165 229 294 16 70 14 90 -9 90 -15 0 -20 -7 -20 -25 0 -29 -22 -118 -31 -125 -15 -12 -29 -51 -29 -79 0 -26 -4 -31 -23 -31 -28 0 -47 -17 -47 -42 0 -13 -8 -18 -25 -18 -15 0 -25 -6 -25 -14 0 -8 -14 -16 -32 -19 -18 -3 -43 -8 -55 -12 -18 -6 -23 -3 -23 9 0 10 9 16 25 16 32 0 40 38 40 185 -1 149 -10 205 -36 205 -18 0 -19 -4 -12 -52z"></path><path id="pduNxPx5Q" d="M150 552 c0 -75 57 -217 106 -263 l24 -22 0 37 c0 22 -5 39 -14 42 -8 3 -17 16 -20 30 -4 13 -12 24 -19 24 -9 0 -18 28 -27 80 -11 66 -17 80 -32 80 -10 0 -18 -4 -18 -8z"></path><path id="p1CJXCmti9" d="M2970 265 c0 -30 3 -35 24 -35 23 0 24 2 13 35 -6 19 -16 35 -24 35 -8 0 -13 -13 -13 -35z"></path><path id="pikNhaXz" d="M370 209 c0 -13 62 -39 95 -39 18 0 25 5 25 19 0 14 -10 20 -37 25 -56 9 -83 7 -83 -5z"></path></g></g><g id="l66KWnxVu3JbQotW0PLvi9h" fill="rgb(151,144,112)" style="transform: none;"><g><path id="p1BssFjQRq" d="M1568 4593 c12 -2 30 -2 40 0 9 3 -1 5 -23 4 -22 0 -30 -2 -17 -4z"></path><path id="pPMO7PgZM" d="M1983 4593 c15 -2 37 -2 50 0 12 2 0 4 -28 4 -27 0 -38 -2 -22 -4z"></path><path id="p2lv98ZOb" d="M448 3908 c-29 -39 -108 -171 -108 -181 0 -4 11 -7 24 -7 24 0 36 16 36 51 0 10 7 19 15 19 8 0 15 5 15 11 0 6 7 17 15 25 8 9 15 24 15 35 0 10 7 19 15 19 8 0 15 5 15 10 0 11 2587 15 2628 4 13 -4 22 -14 22 -25 0 -11 5 -19 10 -19 6 0 10 -7 10 -15 0 -8 5 -15 10 -15 6 0 10 -7 10 -15 0 -8 9 -15 20 -15 16 0 20 -7 20 -35 0 -24 5 -35 15 -35 9 0 15 -9 15 -24 0 -13 13 -53 30 -88 16 -34 30 -69 30 -75 0 -7 11 -13 24 -13 l25 0 -20 57 c-24 70 -108 229 -162 306 l-40 57 -1332 0 -1333 0 -24 -32z"></path><path id="p16sGDdXzt" d="M1198 3818 c-21 -6 -38 -14 -38 -19 0 -5 -6 -9 -14 -9 -25 0 -66 -59 -66 -96 0 -39 14 -44 31 -11 38 74 137 126 213 111 32 -5 36 -4 36 15 0 19 -5 21 -62 20 -35 -1 -80 -6 -100 -11z"></path><path id="pxspqF66A" d="M1600 3810 c0 -21 10 -24 48 -14 36 10 27 34 -13 34 -28 0 -35 -4 -35 -20z"></path><path id="p158VnAcSM" d="M1700 3817 c0 -8 17 -19 39 -25 75 -23 112 -68 132 -162 11 -53 39 -71 39 -25 0 40 -21 124 -34 138 -7 6 -15 20 -19 30 -3 9 -13 17 -22 17 -8 0 -15 4 -15 9 0 12 -56 31 -91 31 -18 0 -29 -5 -29 -13z"></path><path id="pE0Zew1qH" d="M1971 3797 c-14 -36 -51 -222 -52 -259 0 -18 -3 -27 -6 -20 -11 28 -31 8 -47 -49 -21 -77 -64 -123 -129 -140 -52 -13 -65 -39 -19 -39 38 0 102 19 102 30 0 6 7 10 15 10 9 0 19 8 22 18 4 9 13 23 20 30 11 11 13 9 13 -12 0 -32 26 -35 33 -3 4 12 20 99 36 193 35 196 43 224 71 231 35 9 24 33 -15 33 -28 0 -37 -5 -44 -23z"></path><path id="pSeSYzTcl" d="M2320 3806 c0 -8 11 -17 25 -20 18 -5 26 -15 30 -39 3 -17 19 -106 35 -195 36 -196 37 -212 10 -219 -35 -9 -24 -33 15 -33 46 0 51 15 38 104 -28 179 -67 381 -74 384 -5 2 -9 10 -9 18 0 9 -11 14 -35 14 -23 0 -35 -5 -35 -14z"></path><path id="p2vQeC9PS" d="M1503 3775 c-7 -8 -13 -19 -13 -25 0 -5 -4 -10 -9 -10 -13 0 -31 -58 -31 -101 0 -53 27 -53 36 -1 9 50 41 107 70 123 13 7 24 16 24 21 0 14 -64 8 -77 -7z"></path><path id="pT19dMy7E" d="M2124 3781 c4 -5 15 -51 25 -103 11 -51 24 -104 29 -118 8 -23 11 -19 23 34 10 46 10 61 1 64 -16 5 -15 22 1 22 8 0 20 23 29 55 l15 55 -23 0 c-19 0 -24 -7 -30 -47 l-8 -48 -9 48 c-8 41 -12 47 -34 47 -13 0 -22 -4 -19 -9z"></path><path id="pHf065OoY" d="M1413 3735 c-3 -29 0 -35 17 -35 16 0 20 7 20 35 0 27 -4 35 -17 35 -13 0 -19 -9 -20 -35z"></path><path id="p12LmijBWN" d="M312 3678 c-25 -51 -65 -146 -78 -185 -13 -42 -12 -43 9 -43 17 0 25 9 35 40 6 22 12 51 12 65 0 15 6 25 14 25 16 0 36 50 36 91 0 35 -12 37 -28 7z"></path><path id="pEp7G93K8" d="M1633 3685 c-20 -14 -43 -69 -43 -102 0 -7 8 -13 19 -13 12 0 20 9 24 29 6 27 31 61 45 61 4 0 16 -7 27 -15 14 -12 20 -31 23 -80 4 -59 2 -67 -19 -85 -13 -10 -34 -19 -46 -20 -17 0 -23 8 -28 40 -5 31 -11 40 -27 40 -18 0 -19 -4 -14 -37 12 -69 81 -104 133 -68 28 19 48 107 39 168 -12 81 -77 121 -133 82z"></path><path id="p173AR8ABw" d="M1206 3608 c-10 -38 -7 -48 14 -48 16 0 20 7 20 35 0 40 -24 49 -34 13z"></path><path id="p3Y7VFCrn" d="M2052 3523 c-7 -43 -15 -104 -18 -135 -6 -55 -5 -58 15 -58 18 0 21 6 22 48 l1 47 16 -62 c15 -62 16 -63 49 -63 36 0 47 24 15 32 -16 5 -47 107 -68 231 -3 20 -9 37 -13 37 -4 0 -13 -35 -19 -77z"></path><path id="pYW1ExmNv" d="M2287 3583 c-5 -8 -37 -177 -37 -195 0 -5 9 -8 20 -8 11 0 20 -7 20 -15 0 -8 9 -15 20 -15 24 0 25 12 6 138 -14 94 -19 111 -29 95z"></path><path id="p1H3ByESjp" d="M1200 3535 c0 -9 7 -31 15 -51 20 -47 72 -70 129 -55 48 12 55 7 63 -43 5 -34 4 -38 -26 -49 -42 -16 -40 -37 4 -37 33 0 35 2 35 35 0 19 5 35 10 35 6 0 10 16 10 35 0 28 -4 35 -20 35 -12 0 -20 7 -20 16 0 14 -8 16 -51 11 -47 -6 -54 -4 -80 23 -16 15 -29 36 -29 44 0 9 -8 16 -20 16 -11 0 -20 -7 -20 -15z"></path><path id="pVCrA8T8I" d="M1063 3468 c4 -29 11 -54 17 -56 5 -2 10 -12 10 -23 0 -15 7 -19 31 -19 l30 0 -20 28 c-11 16 -25 49 -32 75 -7 30 -17 47 -27 47 -12 0 -14 -9 -9 -52z"></path><path id="pTBChbs8J" d="M1450 3481 c0 -50 18 -101 36 -101 8 0 14 -9 14 -21 0 -12 8 -23 20 -26 11 -3 20 -9 20 -14 0 -11 67 -29 108 -29 49 0 42 28 -9 36 -77 13 -140 76 -153 153 -9 55 -36 57 -36 2z"></path><path id="ptQSzzrBG" d="M3350 3456 c0 -13 14 -80 30 -149 17 -69 30 -137 30 -151 0 -20 5 -26 21 -26 19 0 20 4 14 43 -10 68 -57 270 -67 290 -13 25 -28 21 -28 -7z"></path><path id="pJkeqsMdY" d="M186 3328 c-8 -40 -18 -94 -21 -120 -6 -43 -4 -48 13 -48 16 0 21 13 32 83 23 151 24 157 7 157 -11 0 -20 -21 -31 -72z"></path><path id="pOyFPyg3v" d="M2240 3354 c0 -9 -9 -18 -20 -21 -35 -9 -24 -33 15 -33 33 0 35 2 35 35 0 24 -5 35 -15 35 -8 0 -15 -7 -15 -16z"></path><path id="phsEk2b56" d="M1210 3310 c0 -16 7 -20 35 -20 40 0 49 24 13 34 -38 10 -48 7 -48 -14z"></path><path id="pxs8E8B9w" d="M310 3205 c0 -39 24 -50 33 -15 3 11 12 20 21 20 9 0 16 7 16 15 0 10 -11 15 -35 15 -33 0 -35 -2 -35 -35z"></path><path id="p324mRpI6" d="M571 3203 c1 -21 3 -30 6 -21 2 9 17 20 34 23 42 9 38 35 -6 35 -34 0 -35 -1 -34 -37z"></path><path id="pFrzC5kLX" d="M737 3233 c-4 -3 -7 -123 -7 -265 l0 -258 35 0 c19 0 35 5 35 10 0 6 -7 10 -15 10 -13 0 -15 33 -15 236 0 227 1 236 20 241 34 9 24 33 -13 33 -19 0 -37 -3 -40 -7z"></path><path id="p4lscUGCt" d="M820 3226 c0 -8 11 -17 25 -20 14 -4 25 -13 25 -21 0 -8 5 -15 10 -15 6 0 10 16 10 35 0 33 -2 35 -35 35 -23 0 -35 -5 -35 -14z"></path><path id="p4gR8PHw6" d="M1160 3226 c0 -8 19 -18 45 -25 35 -9 46 -17 51 -36 10 -39 34 -31 34 10 0 32 -2 35 -30 35 -20 0 -30 5 -30 15 0 10 -11 15 -35 15 -23 0 -35 -5 -35 -14z"></path><path id="pWHqobTS5" d="M1310 3205 c0 -19 5 -35 10 -35 6 0 10 7 10 15 0 8 11 17 25 21 39 10 31 34 -10 34 -33 0 -35 -2 -35 -35z"></path><path id="pNhnonPZW" d="M1390 3226 c0 -8 11 -17 25 -20 14 -4 25 -13 25 -21 0 -8 5 -15 10 -15 6 0 10 16 10 35 0 33 -2 35 -35 35 -23 0 -35 -5 -35 -14z"></path><path id="p12IlY2FO6" d="M1730 3205 c0 -35 0 -35 20 -15 16 16 28 19 65 13 41 -5 45 -4 45 16 0 19 -5 21 -65 21 l-65 0 0 -35z"></path><path id="pdLVA49l2" d="M1910 3220 c0 -17 7 -20 45 -20 44 0 45 0 45 -34 0 -24 5 -35 18 -38 14 -4 22 -22 32 -67 10 -48 17 -61 31 -61 24 0 24 8 -2 105 -11 45 -29 86 -40 96 -10 9 -19 21 -19 28 0 7 -21 11 -55 11 -48 0 -55 -2 -55 -20z"></path><path id="pENftA4kn" d="M2120 3227 c0 -7 10 -17 22 -22 14 -6 26 -24 31 -47 7 -29 14 -38 29 -38 18 0 20 4 14 33 -4 17 -11 34 -16 35 -6 2 -10 15 -10 28 0 21 -5 24 -35 24 -22 0 -35 -5 -35 -13z"></path><path id="p8zeHt5b3" d="M2286 3232 c-3 -5 -8 -32 -12 -60 -5 -44 -4 -52 9 -52 10 0 20 15 27 41 7 27 18 43 31 46 33 9 22 33 -15 33 -19 0 -37 -4 -40 -8z"></path><path id="pgdrG738B" d="M2470 3205 c0 -19 5 -35 10 -35 6 0 10 7 10 15 0 8 11 17 25 21 39 10 31 34 -10 34 -33 0 -35 -2 -35 -35z"></path><path id="puRFLwkuv" d="M2800 3226 c0 -8 11 -17 25 -20 l25 -6 0 -235 0 -235 -50 0 c-43 0 -50 -3 -50 -20 0 -18 7 -20 54 -20 31 0 56 5 58 11 2 6 25 13 51 16 26 3 47 10 47 14 0 5 -7 9 -15 9 -13 0 -15 32 -15 229 l0 228 62 6 c122 11 210 -19 243 -84 21 -39 35 -37 35 6 0 19 -4 35 -9 35 -5 0 -11 9 -14 20 -3 11 -17 22 -33 26 -16 4 -32 12 -35 17 -9 14 -249 23 -258 10 -3 -6 -16 -13 -28 -17 -17 -6 -23 -3 -23 8 0 12 -10 16 -35 16 -23 0 -35 -5 -35 -14z"></path><path id="pGuUOOSyC" d="M2692 3195 c-14 -30 -16 -85 -4 -85 5 0 19 19 32 43 13 23 31 47 39 54 13 10 10 12 -20 13 -29 0 -38 -5 -47 -25z"></path><path id="pJFDZ3wOv" d="M2407 3103 c-42 -150 -43 -163 -20 -163 16 0 22 13 36 73 10 39 17 82 17 95 0 12 5 22 10 22 6 0 10 16 10 35 0 22 -5 35 -13 35 -9 0 -24 -37 -40 -97z"></path><path id="p5ic6Fcmr" d="M156 3118 c-3 -13 -6 -49 -6 -80 0 -51 2 -58 20 -58 18 0 20 7 20 80 0 61 -3 80 -14 80 -7 0 -16 -10 -20 -22z"></path><path id="pYZuxoPgM" d="M911 3096 c-26 -103 3 -137 33 -38 9 31 19 63 22 70 4 8 -3 12 -19 12 -21 0 -26 -7 -36 -44z"></path><path id="p6sZXV1Bd" d="M1072 3077 c-12 -13 -28 -49 -34 -79 -11 -51 -10 -59 13 -104 16 -34 31 -50 47 -52 17 -3 22 2 22 17 0 12 -4 21 -10 21 -5 0 -10 5 -10 10 0 6 11 10 25 10 30 0 34 25 5 33 -11 3 -20 12 -20 21 0 9 -6 16 -14 16 -10 0 -16 -13 -19 -37 -2 -26 -4 -17 -5 25 -1 36 2 62 8 62 6 0 10 9 10 20 0 13 7 20 20 20 11 0 20 -7 20 -15 0 -8 9 -15 20 -15 16 0 20 7 20 35 0 34 -1 35 -38 35 -27 0 -45 -7 -60 -23z"></path><path id="p16JhTfwQ0" d="M3420 2830 c0 -263 0 -270 20 -270 19 0 20 7 20 248 0 258 -3 292 -26 292 -12 0 -14 -47 -14 -270z"></path><path id="pcI0T2Bpu" d="M3110 3071 c0 -49 13 -81 33 -81 17 0 19 5 14 36 -9 53 -47 90 -47 45z"></path><path id="p1Bvu7kELU" d="M1256 3058 c-3 -13 -6 -45 -6 -71 0 -40 -3 -50 -20 -54 -34 -9 -24 -33 14 -33 42 0 46 10 46 106 0 56 -3 74 -14 74 -7 0 -16 -10 -20 -22z"></path><path id="pbELxAE7l" d="M1437 3051 c-5 -22 0 -31 20 -31 7 0 13 11 13 25 0 30 -25 34 -33 6z"></path><path id="p1xFzX36S" d="M2616 3054 c-9 -23 -7 -74 2 -74 8 0 52 71 52 84 0 14 -48 5 -54 -10z"></path><path id="ph6C9UdoI" d="M3260 3058 c0 -30 13 -58 26 -58 9 0 14 12 14 35 0 28 -4 35 -20 35 -11 0 -20 -6 -20 -12z"></path><path id="prVCXGlKQ" d="M540 3040 c0 -13 7 -20 20 -20 13 0 20 7 20 20 0 13 -7 20 -20 20 -13 0 -20 -7 -20 -20z"></path><path id="pB0HLFhnY" d="M2203 3003 c3 -10 11 -42 18 -70 7 -29 16 -53 19 -53 8 0 39 128 32 135 -3 3 -21 5 -39 5 -28 0 -33 -3 -30 -17z"></path><path id="p1FbNn72Mf" d="M2709 2930 c-43 -76 -89 -167 -89 -175 0 -3 10 -5 23 -5 18 0 29 13 55 65 18 36 32 72 32 79 0 8 5 16 11 18 6 2 9 21 7 43 l-3 40 -36 -65z"></path><path id="p10AXJQvk5" d="M2090 2948 c0 -37 23 -138 32 -138 4 0 8 -12 8 -27 0 -58 10 -73 46 -73 19 0 34 5 34 10 0 6 -6 10 -14 10 -15 0 -34 50 -61 168 -11 47 -22 72 -31 72 -8 0 -14 -10 -14 -22z"></path><path id="p1DthgYQn9" d="M3120 2915 c0 -31 -3 -35 -25 -35 -18 0 -25 -5 -25 -20 0 -30 34 -25 64 11 32 38 35 79 6 79 -16 0 -20 -7 -20 -35z"></path><path id="pH6XTVjUf" d="M900 2907 c0 -18 7 -57 15 -85 14 -44 19 -52 40 -52 20 0 25 -5 25 -25 0 -22 4 -25 35 -25 43 0 44 10 4 34 -40 23 -66 67 -79 133 -13 61 -40 75 -40 20z"></path><path id="pulXC4zlJ" d="M3266 2918 c-10 -38 -7 -48 14 -48 16 0 20 7 20 35 0 40 -24 49 -34 13z"></path><path id="p1CVIV1X2R" d="M457 2913 c-4 -3 -7 -12 -7 -20 0 -9 17 -13 65 -13 49 0 65 3 65 14 0 8 -7 17 -16 20 -21 8 -99 8 -107 -1z"></path><path id="pwn8ZTZ0k" d="M2337 2850 c-10 -33 -17 -67 -17 -75 0 -8 -9 -24 -20 -35 l-20 -20 33 0 c33 0 33 0 50 73 21 86 22 117 4 117 -8 0 -21 -25 -30 -60z"></path><path id="pE3Mr9Gza" d="M150 2730 c0 -163 1 -170 20 -170 19 0 20 7 20 170 0 163 -1 170 -20 170 -19 0 -20 -7 -20 -170z"></path><path id="p8MKUTHkC" d="M1170 2870 c0 -14 7 -20 24 -20 18 0 27 -8 35 -31 6 -18 11 -40 11 -49 0 -25 -55 -45 -122 -44 -50 1 -58 -2 -58 -18 0 -16 9 -18 65 -18 37 0 65 4 65 10 0 6 14 10 31 10 35 0 59 20 59 48 0 41 -13 82 -26 82 -8 0 -14 10 -14 25 0 22 -4 25 -35 25 -28 0 -35 -4 -35 -20z"></path><path id="p2dZ5dilj" d="M3225 2811 c-10 -17 -36 -39 -57 -51 -47 -26 -48 -40 -4 -40 48 0 96 44 96 87 0 41 -9 42 -35 4z"></path><path id="ppP6xiQLF" d="M1438 2793 c-6 -28 2 -53 18 -53 9 0 14 11 14 35 0 37 -24 50 -32 18z"></path><path id="pTB7BNpSM" d="M447 2759 c-3 -11 -15 -23 -26 -26 -12 -3 -21 -12 -21 -20 0 -10 10 -13 38 -11 35 3 37 5 40 41 2 27 -1 37 -11 37 -8 0 -17 -9 -20 -21z"></path><path id="pawnVD3uh" d="M677 2760 c-7 -28 -93 -30 -100 -2 -3 9 -5 0 -6 -20 l-1 -38 48 0 c78 0 92 7 92 46 0 38 -24 48 -33 14z"></path><path id="phSGc93Lv" d="M867 2759 c-3 -11 -15 -23 -26 -26 -12 -3 -21 -12 -21 -20 0 -10 10 -13 38 -11 35 3 37 5 40 41 2 27 -1 37 -11 37 -8 0 -17 -9 -20 -21z"></path><path id="pYbNAcxJ8" d="M1530 2745 c0 -33 2 -35 35 -35 19 0 35 5 35 10 0 6 -7 10 -15 10 -8 0 -17 11 -21 25 -10 39 -34 31 -34 -10z"></path><path id="pLuJ3cG4c" d="M2462 2743 c3 -36 5 -38 41 -41 27 -2 37 1 37 11 0 8 -9 17 -21 20 -11 3 -23 15 -26 26 -3 12 -12 21 -20 21 -10 0 -13 -10 -11 -37z"></path><path id="pYYKu5fqV" d="M310 2735 c0 -33 2 -35 35 -35 39 0 50 24 15 33 -11 3 -20 12 -20 21 0 9 -7 16 -15 16 -10 0 -15 -11 -15 -35z"></path><path id="pUBC0ezi4" d="M2970 2720 c0 -18 7 -20 75 -20 68 0 75 2 75 20 0 18 -7 20 -75 20 -68 0 -75 -2 -75 -20z"></path><path id="p1GQCKB3CN" d="M720 2414 l0 -25 30 21 c17 12 30 23 30 26 0 2 -13 4 -30 4 -26 0 -30 -4 -30 -26z"></path><path id="prsGSKnmM" d="M150 2265 c0 -148 1 -155 20 -155 19 0 20 7 20 155 0 148 -1 155 -20 155 -19 0 -20 -7 -20 -155z"></path><path id="pGBuHa26G" d="M610 2360 c0 -5 -9 -10 -20 -10 -13 0 -20 -7 -20 -20 0 -13 -7 -20 -20 -20 -16 0 -20 -7 -20 -30 0 -19 -5 -30 -14 -30 -15 0 -31 -58 -42 -155 -6 -46 -4 -55 9 -55 11 0 18 13 23 38 14 86 37 159 59 193 21 32 76 69 104 69 6 0 11 7 11 15 0 10 -11 15 -35 15 -19 0 -35 -4 -35 -10z"></path><path id="peCy7wIUw" d="M150 1990 c0 -73 2 -80 20 -80 18 0 20 7 20 80 0 73 -2 80 -20 80 -18 0 -20 -7 -20 -80z"></path><path id="p6RphNYRD" d="M460 1982 c0 -57 24 -155 39 -160 6 -2 11 -10 11 -18 0 -19 75 -53 118 -54 48 0 39 16 -25 47 -73 35 -103 87 -103 175 0 51 -2 58 -20 58 -17 0 -20 -7 -20 -48z"></path><path id="pxxrsHmsD" d="M150 1795 c0 -28 4 -35 20 -35 16 0 20 7 20 35 0 28 -4 35 -20 35 -16 0 -20 -7 -20 -35z"></path><path id="p1Gph1EhV1" d="M710 1721 c0 -29 3 -31 36 -31 39 0 38 9 -6 40 l-30 21 0 -30z"></path><path id="pit81R35M" d="M790 1646 c0 -25 4 -36 15 -36 8 0 15 -9 15 -20 0 -11 5 -20 10 -20 6 0 10 -7 10 -15 0 -8 5 -15 10 -15 6 0 10 -7 10 -15 0 -9 9 -15 25 -15 14 0 25 4 25 8 0 11 -96 148 -110 157 -6 4 -10 -8 -10 -29z"></path><path id="pUWwKibpM" d="M683 1473 c-18 -2 -33 -8 -33 -14 0 -5 -9 -9 -20 -9 -11 0 -20 -7 -20 -15 0 -8 -4 -15 -10 -15 -5 0 -10 -25 -10 -55 0 -54 0 -55 30 -55 l29 0 -16 29 c-16 27 -16 30 1 55 9 15 29 31 43 37 21 8 215 14 249 8 20 -3 24 2 15 20 -9 17 -23 19 -118 18 -60 0 -123 -2 -140 -4z"></path><path id="puOuGBiih" d="M150 1395 c0 -28 4 -35 20 -35 16 0 20 7 20 35 0 28 -4 35 -20 35 -16 0 -20 -7 -20 -35z"></path><path id="pzrACaQFj" d="M150 1295 c0 -38 3 -45 20 -45 17 0 20 7 20 45 0 38 -3 45 -20 45 -17 0 -20 -7 -20 -45z"></path><path id="pfGJVIQqm" d="M680 1265 c0 -16 6 -25 15 -25 8 0 15 -4 15 -10 0 -5 7 -10 15 -10 8 0 15 -4 15 -10 0 -5 11 -10 25 -10 20 0 25 -5 25 -25 0 -16 6 -25 15 -25 8 0 15 -8 15 -18 0 -15 -15 -22 -80 -36 -72 -15 -80 -19 -80 -40 l0 -24 61 19 c34 11 85 22 115 25 30 4 54 9 54 11 0 7 -33 56 -63 96 -27 35 -121 107 -139 107 -5 0 -8 -11 -8 -25z"></path><path id="pJeUOFUYW" d="M150 1145 c0 -28 4 -35 20 -35 16 0 20 7 20 35 0 28 -4 35 -20 35 -16 0 -20 -7 -20 -35z"></path><path id="ptviM4yOZ" d="M2209 1033 c-18 -4 -49 -54 -49 -77 0 -9 8 -16 20 -16 15 0 20 7 20 25 0 20 6 25 35 31 20 3 35 12 35 20 0 8 -4 14 -9 14 -5 0 -15 2 -23 4 -7 2 -20 2 -29 -1z"></path><path id="p100DVUZbP" d="M150 995 c0 -28 4 -35 20 -35 16 0 20 7 20 35 0 28 -4 35 -20 35 -16 0 -20 -7 -20 -35z"></path><path id="pFzdnckcq" d="M560 1000 l0 -30 35 22 c44 29 44 38 0 38 -32 0 -35 -2 -35 -30z"></path><path id="pmKXltGL" d="M2320 1012 c0 -15 14 -20 83 -30 106 -15 117 -15 117 2 0 15 -14 19 -120 36 -83 13 -80 13 -80 -8z"></path><path id="pcj30nFEg" d="M3368 1013 c-28 -7 -22 -33 7 -33 14 0 25 -4 25 -10 0 -5 11 -10 25 -10 20 0 25 5 25 25 0 14 -3 25 -7 26 -5 0 -19 2 -33 4 -14 1 -33 1 -42 -2z"></path><path id="pGdA9ElGf" d="M3195 995 c-139 -24 -145 -25 -145 -40 0 -19 11 -19 148 2 94 15 112 21 112 35 0 21 -5 21 -115 3z"></path><path id="p2tFm7yd9" d="M2530 970 c0 -16 7 -20 34 -20 19 0 36 -4 38 -8 4 -11 107 -52 129 -52 11 0 19 -7 19 -15 0 -8 7 -15 15 -15 8 0 15 -4 15 -10 0 -5 7 -10 15 -10 8 0 15 -4 15 -10 0 -5 9 -10 20 -10 11 0 20 -7 20 -15 0 -8 7 -15 15 -15 8 0 15 -7 15 -15 0 -8 9 -15 20 -15 13 0 20 -7 20 -20 0 -11 -7 -20 -15 -20 -8 0 -15 5 -15 10 0 6 -7 10 -15 10 -8 0 -15 4 -15 9 0 20 -168 81 -222 81 -46 0 -33 -26 18 -39 69 -18 170 -66 227 -109 27 -20 74 -68 105 -107 l55 -70 -6 39 c-4 22 -12 43 -18 47 -7 4 -9 13 -6 21 8 21 -27 94 -75 156 -55 71 -186 157 -295 194 -100 33 -113 34 -113 8z m430 -322 c0 -5 -4 -8 -10 -8 -5 0 -10 10 -10 23 0 18 2 19 10 7 5 -8 10 -18 10 -22z"></path><path id="phGKSIGre" d="M852 959 c-84 -12 -156 -41 -217 -87 l-50 -37 35 -3 c19 -2 36 1 38 7 2 6 10 11 17 11 7 0 15 4 17 8 7 16 111 53 183 65 61 9 75 15 75 29 0 20 -4 20 -98 7z"></path><path id="pknaH8XjZ" d="M2971 949 c-31 -10 -32 -11 -16 -28 14 -16 21 -17 51 -8 22 7 34 17 34 29 0 20 -16 22 -69 7z"></path><path id="pi73bY6m9" d="M430 874 c0 -39 9 -38 40 6 l21 30 -30 0 c-29 0 -31 -3 -31 -36z"></path><path id="p18thtBcBV" d="M960 890 c0 -11 -7 -20 -15 -20 -8 0 -15 -9 -15 -20 0 -15 7 -20 28 -20 47 0 56 13 38 49 -19 35 -36 41 -36 11z"></path><path id="plCOiTt97" d="M2170 891 c0 -4 9 -20 21 -35 14 -18 30 -26 52 -26 47 0 77 10 77 26 0 10 -14 14 -50 14 -38 0 -50 4 -50 15 0 9 -9 15 -25 15 -14 0 -25 -4 -25 -9z"></path><path id="pRCq3v8W2" d="M3420 718 c0 -90 -3 -187 -6 -215 -6 -44 -4 -53 8 -53 24 0 30 34 34 205 5 178 0 225 -21 225 -13 0 -15 -27 -15 -162z"></path><path id="pL2N557xF" d="M2380 856 c0 -7 10 -16 23 -20 41 -11 57 -7 57 14 0 17 -7 20 -40 20 -27 0 -40 -4 -40 -14z"></path><path id="pbmX7vK7Q" d="M3038 828 c16 -24 41 -67 56 -95 30 -59 46 -68 46 -23 0 37 -19 80 -37 80 -7 0 -13 11 -13 25 0 14 -4 25 -10 25 -5 0 -10 7 -10 15 0 10 -10 15 -30 15 l-31 0 29 -42z"></path><path id="p6whlerrI" d="M735 845 c-33 -7 -80 -21 -104 -29 -32 -12 -47 -13 -52 -5 -8 14 -51 -41 -73 -95 -22 -53 -21 -53 24 -13 21 20 56 45 77 56 42 21 156 56 216 66 23 4 37 11 37 20 0 19 -42 18 -125 0z"></path><path id="p1ANgzkdw5" d="M2480 846 c0 -13 28 -26 58 -26 6 0 12 9 12 20 0 16 -7 20 -35 20 -23 0 -35 -5 -35 -14z"></path><path id="p12TRFxd2P" d="M150 795 c0 -28 4 -35 20 -35 16 0 20 7 20 35 0 28 -4 35 -20 35 -16 0 -20 -7 -20 -35z"></path><path id="p140jO0fIn" d="M376 814 c-9 -25 -7 -74 4 -74 10 0 24 22 40 64 9 23 7 26 -14 26 -13 0 -27 -7 -30 -16z"></path><path id="pfzMMwQB4" d="M998 713 c-36 -9 -20 -33 22 -33 33 0 40 3 40 20 0 20 -20 24 -62 13z"></path><path id="pHihYnLgd" d="M2370 700 c0 -17 7 -20 40 -20 45 0 57 23 18 34 -42 11 -58 7 -58 -14z"></path><path id="pToj4r74n" d="M848 703 c-36 -9 -20 -33 22 -33 33 0 40 3 40 20 0 20 -20 24 -62 13z"></path><path id="p1EDhxSrBn" d="M2470 691 c0 -18 39 -31 98 -31 44 0 23 28 -28 39 -67 14 -70 14 -70 -8z"></path><path id="p1EUkWimH7" d="M311 627 c-15 -84 -14 -107 3 -107 10 0 18 20 26 58 6 31 15 69 20 85 8 24 7 27 -14 27 -21 0 -25 -7 -35 -63z"></path><path id="p4tEjP3kh" d="M738 683 c-33 -8 -20 -33 17 -33 28 0 35 4 35 20 0 20 -14 23 -52 13z"></path><path id="p10vCuSFjC" d="M1120 650 c0 -20 5 -30 15 -30 8 0 15 -4 15 -10 0 -5 14 -10 30 -10 20 0 30 -5 30 -15 0 -10 10 -15 29 -15 16 0 31 -5 33 -10 2 -6 29 -14 61 -17 48 -5 57 -3 57 10 0 11 -17 19 -56 27 -70 15 -117 34 -171 72 l-43 29 0 -31z"></path><path id="p16UDFJawM" d="M2600 663 c0 -21 53 -43 104 -43 58 0 4 41 -75 57 -24 5 -29 2 -29 -14z"></path><path id="pV9oI3ttl" d="M651 648 c-88 -44 -179 -157 -197 -246 -5 -27 -4 -32 12 -32 21 0 54 76 54 124 0 21 5 26 23 26 29 0 67 39 67 68 0 18 6 22 33 22 42 0 60 12 55 39 l-3 21 -44 -22z"></path><path id="pwR4ufSv4" d="M3133 635 c6 -19 16 -35 24 -35 8 0 13 13 13 35 0 30 -3 35 -24 35 -23 0 -24 -2 -13 -35z"></path><path id="py8OFvrOx" d="M2118 624 c-38 -20 -35 -34 7 -34 31 0 35 3 35 25 0 29 -5 30 -42 9z"></path><path id="puZqOq5uc" d="M2740 605 c0 -15 6 -25 14 -25 8 0 16 -5 18 -11 2 -6 19 -9 38 -7 l35 3 -44 33 c-53 39 -61 40 -61 7z"></path><path id="pEGDGdQfp" d="M1693 586 c-101 -33 -74 -62 33 -35 37 10 44 15 44 35 0 13 -3 23 -7 22 -5 0 -36 -10 -70 -22z"></path><path id="p6ORr4dqK" d="M1790 585 c0 -17 7 -24 31 -29 91 -18 111 12 24 36 -55 15 -55 15 -55 -7z"></path><path id="pxl5hFZaa" d="M2035 595 c-5 -2 -27 -6 -47 -10 -45 -7 -53 -35 -10 -35 63 0 102 12 102 31 0 18 -18 23 -45 14z"></path><path id="pquJwT6Sa" d="M1453 578 c-25 -5 -43 -15 -43 -23 0 -10 21 -13 85 -13 63 0 85 3 85 13 0 11 -12 16 -70 29 -8 2 -34 -1 -57 -6z"></path><path id="pgvcW6bEy" d="M155 528 c12 -82 29 -131 70 -192 61 -93 137 -145 233 -161 37 -6 42 -4 42 12 0 13 -12 22 -42 30 -75 20 -118 38 -118 49 0 14 -53 64 -68 64 -7 0 -12 9 -12 20 0 11 -7 20 -15 20 -8 0 -15 8 -15 18 0 9 -9 44 -20 76 -11 33 -20 72 -20 88 0 22 -5 28 -21 28 -19 0 -20 -4 -14 -52z"></path><path id="pvBD7q0Of" d="M3160 513 c0 -43 11 -73 26 -73 10 0 14 14 14 50 0 43 -3 50 -20 50 -15 0 -20 -7 -20 -27z"></path><path id="pt6x0PvvQ" d="M2880 488 c0 -27 4 -38 15 -38 8 0 15 -9 15 -20 0 -11 4 -20 9 -20 5 0 12 -11 15 -25 4 -14 11 -25 16 -25 6 0 10 -11 10 -25 0 -18 5 -25 20 -25 11 0 20 7 20 16 0 26 -48 117 -85 159 l-34 40 -1 -37z"></path><path id="peFy5mnnG" d="M290 430 c0 -33 3 -40 20 -40 17 0 20 7 20 40 0 33 -3 40 -20 40 -17 0 -20 -7 -20 -40z"></path><path id="p14VRHAojS" d="M3165 363 c-14 -83 -18 -95 -42 -123 -28 -33 -57 -38 -91 -14 -21 15 -22 14 -22 -17 l0 -32 50 6 c32 4 50 2 50 -5 0 -15 65 -1 128 29 28 13 52 29 52 34 0 15 -67 10 -84 -6 -8 -8 -25 -14 -38 -14 -16 1 -18 3 -6 6 18 5 38 78 38 138 0 49 -27 47 -35 -2z"></path><path id="p12XeaWtDz" d="M3340 323 l1 -38 24 28 c32 36 31 47 0 47 -22 0 -25 -4 -25 -37z"></path></g></g><g id="l1qabTKXsce4WD0DNFkGdaG" fill="rgb(202,180,119)" style="transform: none;"><g><path id="pkTn0m7WX" d="M560 3895 c0 -33 2 -35 35 -35 33 0 35 2 35 35 0 33 -2 35 -35 35 -33 0 -35 -2 -35 -35z"></path><path id="pmnftIKVg" d="M890 3890 c0 -39 1 -40 35 -40 24 0 35 5 35 15 0 12 13 15 60 15 57 0 60 1 60 25 0 25 0 25 -95 25 l-95 0 0 -40z"></path><path id="pGbycFBLu" d="M1923 3923 l-73 -4 0 -37 c0 -20 -3 -61 -6 -89 l-7 -53 36 0 c36 0 36 0 42 54 l7 54 69 7 69 7 0 34 c0 32 -2 34 -32 32 -18 -1 -66 -4 -105 -5z"></path><path id="pIs4rnEWz" d="M2520 3880 c0 -47 2 -50 25 -50 18 0 25 -5 25 -19 0 -14 8 -21 28 -24 22 -3 20 -4 -10 -6 -36 -1 -38 -2 -38 -36 0 -33 2 -35 35 -35 19 0 35 5 35 10 0 6 16 10 35 10 19 0 35 5 35 10 0 6 5 10 10 10 6 0 10 -13 10 -30 0 -28 3 -30 34 -30 33 0 35 2 38 38 2 25 7 5 17 -65 l14 -103 34 0 c38 0 38 -3 21 121 l-12 89 -33 0 c-26 0 -33 4 -33 20 0 11 5 20 10 20 6 0 10 16 10 35 0 24 5 35 15 35 9 0 15 9 15 25 0 22 -4 25 -35 25 -31 0 -35 -3 -35 -25 0 -14 -5 -25 -11 -25 -16 0 -39 -26 -39 -44 0 -9 -7 -16 -15 -16 -8 0 -15 -4 -15 -10 0 -5 -11 -10 -25 -10 -21 0 -25 5 -25 30 0 25 -4 30 -25 30 -22 0 -25 4 -25 35 0 33 -2 35 -35 35 l-35 0 0 -50z"></path><path id="p68jML6jb" d="M2850 3913 c0 -48 12 -63 47 -63 33 0 34 1 31 38 -3 35 -5 37 -40 40 -31 3 -38 0 -38 -15z"></path><path id="puycTxgRF" d="M3098 3923 c-13 -3 -18 -15 -18 -39 0 -32 2 -34 35 -34 31 0 35 -3 35 -25 0 -18 5 -25 20 -25 11 0 20 -7 20 -15 0 -8 9 -15 20 -15 15 0 20 -7 20 -25 0 -22 -4 -25 -35 -25 -33 0 -35 -2 -35 -35 0 -33 2 -35 35 -35 31 0 35 3 35 28 0 18 3 23 9 14 4 -8 18 -12 30 -10 22 3 22 3 -10 63 -45 86 -112 180 -129 181 -8 1 -23 0 -32 -3z"></path><path id="pcVqO9cSm" d="M660 3885 c0 -33 2 -35 35 -35 33 0 35 2 35 35 0 33 -2 35 -35 35 -33 0 -35 -2 -35 -35z"></path><path id="pXpEzQTo7" d="M1210 3886 c0 -28 4 -35 23 -39 19 -4 18 -4 -5 -6 -26 -1 -28 2 -28 34 0 34 -1 35 -40 35 -39 0 -40 -1 -40 -35 0 -34 2 -35 38 -36 20 -1 29 -3 20 -6 -13 -3 -18 -15 -18 -39 0 -39 -1 -39 36 -19 16 8 37 15 46 15 9 0 18 5 20 11 3 8 26 5 76 -8 l72 -20 0 33 c0 23 -5 34 -17 37 -17 4 -17 5 0 6 13 1 17 10 17 36 0 33 -2 35 -35 35 -33 0 -35 -2 -35 -35 0 -19 -4 -35 -10 -35 -5 0 -10 7 -10 15 0 8 -9 15 -20 15 -13 0 -20 7 -20 20 0 16 -7 20 -35 20 -33 0 -35 -2 -35 -34z"></path><path id="pINTu3ZBI" d="M1730 3885 c0 -28 -4 -35 -20 -35 -14 0 -20 -7 -20 -23 0 -18 8 -24 45 -33 41 -9 45 -9 45 8 0 10 5 18 10 18 6 0 10 7 10 15 0 8 7 15 15 15 10 0 15 11 15 35 l0 35 -50 0 -50 0 0 -35z"></path><path id="p12UZYrhnk" d="M2980 3885 c0 -33 2 -35 35 -35 33 0 35 2 35 35 0 33 -2 35 -35 35 -33 0 -35 -2 -35 -35z"></path><path id="pAySA69Rs" d="M2130 3855 c0 -16 -6 -25 -15 -25 -21 0 -19 -26 5 -50 28 -28 50 -26 50 5 0 16 6 25 15 25 10 0 15 11 15 35 0 33 -2 35 -35 35 -31 0 -35 -3 -35 -25z"></path><path id="ptcmSTTbF" d="M2323 3843 c-7 -2 -13 -16 -13 -29 0 -18 5 -24 23 -24 13 0 28 -5 34 -11 18 -18 33 -1 33 37 0 32 -2 34 -32 33 -18 0 -39 -3 -45 -6z"></path><path id="pOfowNgVy" d="M1540 3795 c0 -32 -2 -35 -30 -35 -28 0 -30 -3 -30 -35 0 -43 10 -44 33 -5 10 17 36 39 58 50 52 27 55 60 4 60 -33 0 -35 -2 -35 -35z"></path><path id="p2eOGoLb3" d="M2430 3795 c0 -33 2 -35 35 -35 33 0 35 2 35 35 0 33 -2 35 -35 35 -33 0 -35 -2 -35 -35z"></path><path id="p1C9fEO0aQ" d="M530 3805 c0 -10 -11 -15 -35 -15 -33 0 -35 -2 -35 -35 0 -32 2 -35 30 -35 20 0 30 -5 30 -15 0 -9 9 -15 25 -15 16 0 25 -6 25 -15 0 -10 -10 -15 -30 -15 -28 0 -30 -3 -30 -35 0 -19 5 -35 10 -35 6 0 10 -4 10 -10 0 -5 -13 -10 -30 -10 -20 0 -30 -5 -30 -15 0 -8 -4 -15 -10 -15 -5 0 -10 -16 -10 -35 0 -33 2 -35 35 -35 26 0 35 4 36 18 0 10 3 12 6 5 2 -7 20 -13 38 -13 27 0 34 5 38 23 4 19 4 18 6 -5 0 -18 7 -28 16 -28 10 0 15 -10 15 -30 0 -28 3 -30 35 -30 28 0 35 4 35 20 0 16 7 20 31 20 l32 0 -7 53 c-3 28 -9 69 -12 90 -5 24 -3 37 5 37 6 0 11 -16 11 -35 0 -33 2 -35 35 -35 19 0 35 -4 35 -10 0 -5 -7 -10 -16 -10 -12 0 -15 -9 -14 -37 4 -73 0 -113 -10 -113 -5 0 -10 11 -10 25 0 22 -4 25 -35 25 -33 0 -35 -2 -35 -35 0 -33 2 -35 35 -35 31 0 35 -3 35 -25 0 -22 4 -25 40 -25 33 0 40 -3 40 -20 0 -16 7 -20 35 -20 33 0 35 2 35 35 0 34 -1 35 -37 35 -23 0 -33 4 -26 8 8 5 12 30 11 71 -1 45 2 65 13 72 23 14 39 10 39 -10 0 -14 10 -20 46 -25 81 -11 84 -10 84 28 l0 34 -60 7 c-55 6 -60 9 -60 31 0 21 -5 24 -35 24 -28 0 -35 4 -35 20 0 17 -7 20 -50 20 l-50 0 0 35 c0 19 -4 35 -10 35 -5 0 -10 14 -10 30 0 28 -3 30 -35 30 -33 0 -35 -2 -35 -35 0 -19 5 -35 10 -35 6 0 10 -9 10 -20 0 -15 -7 -20 -25 -20 -20 0 -25 5 -25 25 0 22 -4 25 -35 25 l-36 0 7 60 7 60 -37 0 c-25 0 -36 -4 -36 -15z"></path><path id="p7Avp8cOA" d="M910 3790 c0 -13 -7 -20 -20 -20 -13 0 -20 -7 -20 -20 0 -11 -4 -20 -10 -20 -5 0 -10 -16 -10 -35 0 -34 1 -35 39 -35 59 0 71 8 71 46 0 19 5 34 10 34 6 0 10 16 10 35 0 33 -2 35 -35 35 -28 0 -35 -4 -35 -20z"></path><path id="pBvbs20Re" d="M2972 3770 c3 -39 3 -40 -29 -40 -31 0 -33 -2 -33 -35 0 -33 2 -35 35 -35 19 0 35 5 35 10 0 6 16 10 35 10 29 0 35 4 36 23 1 16 2 18 6 5 3 -13 15 -18 39 -18 32 0 34 2 34 35 0 24 -5 35 -15 35 -8 0 -15 7 -15 15 0 10 -10 15 -30 15 -16 0 -30 5 -30 10 0 6 -16 10 -36 10 -36 0 -36 0 -32 -40z"></path><path id="pgaVWiIzY" d="M320 3688 l-40 -83 32 -3 c18 -2 34 2 39 10 7 10 9 9 9 -4 0 -10 -7 -18 -15 -18 -8 0 -15 -9 -15 -20 0 -19 -19 -26 -57 -21 -14 2 -22 -10 -33 -51 l-9 -31 39 6 c22 3 40 1 40 -4 0 -5 16 -9 35 -9 32 0 35 2 35 30 0 17 5 30 10 30 6 0 10 9 10 20 0 11 7 20 15 20 10 0 15 10 15 30 0 23 4 30 20 30 16 0 20 7 20 35 0 24 -5 35 -15 35 -8 0 -15 9 -15 20 0 16 -7 20 -30 20 -23 0 -30 4 -30 20 0 40 -20 19 -60 -62z"></path><path id="phjK9RHbl" d="M990 3695 c0 -33 2 -35 35 -35 28 0 35 -4 35 -20 0 -11 -7 -20 -15 -20 -10 0 -15 -11 -15 -35 0 -32 2 -35 30 -35 26 0 30 3 30 29 0 16 3 43 6 60 6 27 4 31 -15 31 -17 0 -21 6 -21 30 0 28 -3 30 -35 30 -33 0 -35 -2 -35 -35z"></path><path id="p14DEUAcFm" d="M1900 3685 c0 -26 -4 -35 -16 -35 -12 0 -15 -6 -10 -22 3 -13 6 -29 6 -35 0 -7 11 -13 25 -13 15 0 25 6 25 14 0 7 8 16 18 19 12 2 22 17 25 37 13 64 11 70 -33 70 -39 0 -40 -1 -40 -35z"></path><path id="pl6ZUGGD2" d="M2150 3702 c0 -24 23 -128 29 -135 7 -7 41 103 41 133 0 5 -16 10 -35 10 -19 0 -35 -4 -35 -8z"></path><path id="pxoFNpOGe" d="M2402 3695 c-10 -12 -10 -31 3 -102 8 -49 15 -91 15 -95 0 -5 11 -8 25 -8 20 0 25 5 25 25 0 16 6 25 15 25 10 0 15 11 15 35 0 31 -3 35 -25 35 -16 0 -25 6 -25 15 0 8 7 15 15 15 10 0 15 11 15 35 0 33 -2 35 -32 35 -18 -1 -39 -7 -46 -15z"></path><path id="pHJzAxu3a" d="M1644 3688 c-23 -11 -51 -58 -34 -58 6 0 10 -11 10 -25 0 -22 4 -25 35 -25 33 0 35 2 35 35 0 19 -4 35 -9 35 -5 0 -11 11 -13 24 -3 20 -6 22 -24 14z"></path><path id="pcu14Upoc" d="M1258 3679 c-10 -5 -18 -21 -18 -34 0 -15 -6 -25 -14 -25 -14 0 -26 -29 -26 -62 0 -13 8 -18 30 -18 27 0 30 3 30 30 0 25 4 30 25 30 20 0 25 5 25 25 0 22 4 25 35 25 19 0 35 4 35 10 0 26 -87 40 -122 19z"></path><path id="pdXUrAbsM" d="M1710 3560 c0 -89 1 -91 22 -88 19 2 24 12 31 54 11 68 -2 118 -31 122 -21 3 -22 0 -22 -88z"></path><path id="p15vELEC7J" d="M3120 3605 c0 -33 2 -35 35 -35 33 0 35 2 35 35 0 33 -2 35 -35 35 -33 0 -35 -2 -35 -35z"></path><path id="pVv8XGmbw" d="M1440 3580 c0 -33 3 -40 20 -40 17 0 20 7 20 40 0 33 -3 40 -20 40 -17 0 -20 -7 -20 -40z"></path><path id="pkWQLWqWL" d="M2910 3585 c0 -33 2 -35 35 -35 33 0 35 2 35 35 0 33 -2 35 -35 35 -33 0 -35 -2 -35 -35z"></path><path id="p9UpuXwu8" d="M2285 3573 c-13 -35 -19 -163 -6 -163 6 0 11 -15 11 -35 0 -28 4 -35 20 -35 11 0 20 1 20 3 0 19 -30 241 -33 244 -3 2 -8 -4 -12 -14z"></path><path id="p1CtiJFoCr" d="M2060 3558 c0 -7 -3 -23 -6 -35 -5 -19 -2 -23 15 -23 22 0 25 10 15 48 -7 23 -24 31 -24 10z"></path><path id="p1NU5CToy" d="M1894 3547 c-6 -7 -14 -29 -18 -49 -6 -34 -5 -36 25 -42 18 -3 34 -4 37 -1 3 2 7 27 10 55 4 47 3 50 -19 50 -13 -1 -29 -6 -35 -13z"></path><path id="pfddiwcpx" d="M3320 3505 c0 -30 -4 -55 -10 -55 -5 0 -10 -7 -10 -15 0 -9 -9 -15 -25 -15 -22 0 -25 -4 -25 -35 0 -33 2 -35 35 -35 24 0 35 5 35 15 0 11 6 12 22 6 19 -7 22 -14 19 -50 -2 -40 -2 -41 28 -41 18 0 31 5 31 13 0 6 -11 53 -25 104 -45 168 -75 211 -75 108z"></path><path id="pnmKAja3H" d="M1590 3538 c0 -30 13 -58 26 -58 9 0 14 12 14 35 0 28 -4 35 -20 35 -11 0 -20 -6 -20 -12z"></path><path id="p6bXEv2zV" d="M2990 3505 c0 -33 2 -35 35 -35 28 0 35 -4 35 -20 0 -16 7 -20 35 -20 33 0 35 2 35 35 0 33 -2 35 -35 35 -28 0 -35 4 -35 20 0 16 -7 20 -35 20 -33 0 -35 -2 -35 -35z"></path><path id="p1AWKaFl61" d="M2680 3495 c0 -33 2 -35 35 -35 33 0 35 2 35 35 0 33 -2 35 -35 35 -33 0 -35 -2 -35 -35z"></path><path id="plOURA2r6" d="M230 3425 c0 -26 4 -35 18 -36 9 0 2 -5 -17 -12 -37 -13 -43 -25 -55 -114 -6 -49 -5 -53 14 -53 13 0 20 7 20 20 0 11 4 20 9 20 5 0 11 14 15 30 4 24 11 30 31 30 16 0 25 6 25 15 0 8 7 15 16 15 25 0 44 26 44 59 0 26 -4 31 -25 31 -16 0 -25 6 -25 15 0 10 -11 15 -35 15 -33 0 -35 -2 -35 -35z"></path><path id="p196IRI7LX" d="M2040 3408 c0 -69 -8 -78 -62 -78 -41 0 -51 3 -55 20 -9 34 -33 24 -33 -14 0 -33 1 -33 53 -40 76 -9 87 -8 87 9 0 8 9 15 20 15 15 0 20 7 20 25 0 14 5 25 10 25 6 0 10 16 10 35 0 31 -3 35 -25 35 -22 0 -25 -5 -25 -32z"></path><path id="pffFNOtJR" d="M2610 3405 c0 -33 2 -35 35 -35 33 0 35 2 35 35 0 33 -2 35 -35 35 -33 0 -35 -2 -35 -35z"></path><path id="pSq74yfBz" d="M2690 3405 c0 -33 2 -35 35 -35 33 0 35 2 35 35 0 33 -2 35 -35 35 -33 0 -35 -2 -35 -35z"></path><path id="pItnnSWNV" d="M1490 3387 c0 -26 4 -37 15 -37 8 0 15 -7 15 -15 0 -10 11 -15 35 -15 19 0 35 5 35 10 0 6 -4 10 -10 10 -5 0 -27 19 -50 42 l-40 42 0 -37z"></path><path id="pf5o7dsmK" d="M1850 3411 c0 -4 -11 -20 -25 -35 l-24 -26 34 0 c33 0 35 2 35 35 0 19 -4 35 -10 35 -5 0 -10 -4 -10 -9z"></path><path id="pxKDapL4I" d="M360 3365 c0 -24 5 -35 15 -35 9 0 15 -9 15 -25 0 -22 4 -25 35 -25 33 0 35 2 35 35 0 24 -5 35 -15 35 -9 0 -15 9 -15 25 0 22 -4 25 -35 25 -33 0 -35 -2 -35 -35z"></path><path id="pdR4XkbtA" d="M540 3365 c0 -19 -4 -35 -10 -35 -5 0 -10 -16 -10 -35 0 -29 4 -35 23 -36 12 -1 4 -5 -18 -8 l-40 -6 -3 -72 -3 -73 36 0 c32 0 35 2 35 30 0 20 5 30 15 30 8 0 15 9 15 20 0 22 35 35 75 28 22 -5 25 -2 25 23 0 19 -5 29 -15 29 -8 0 -15 9 -15 20 0 15 -7 20 -25 20 -23 0 -24 2 -18 50 l6 50 -37 0 c-35 0 -36 -1 -36 -35z"></path><path id="pQ2jciII0" d="M1150 3340 c0 -28 3 -30 35 -30 19 0 35 4 35 9 0 5 -16 18 -35 30 l-35 20 0 -29z"></path><path id="pqtNx0KuD" d="M2121 3328 l-1 -38 45 0 c38 0 45 3 45 20 0 17 -7 20 -39 20 -29 0 -41 5 -44 18 -3 9 -5 0 -6 -20z"></path><path id="pLtAboJoD" d="M2680 3325 c0 -33 2 -35 35 -35 33 0 35 2 35 35 0 33 -2 35 -35 35 -33 0 -35 -2 -35 -35z"></path><path id="prcelW6uW" d="M3090 3325 c0 -33 2 -35 35 -35 33 0 35 2 35 35 0 33 -2 35 -35 35 -33 0 -35 -2 -35 -35z"></path><path id="p8z2LiE4m" d="M1740 3328 c-19 -6 -59 -8 -87 -5 l-53 6 0 -30 c0 -28 2 -29 49 -29 26 0 69 3 95 6 43 6 46 9 46 35 0 32 0 32 -50 17z"></path><path id="pgEVBk0yd" d="M1333 3323 c-16 -3 -23 -11 -23 -29 0 -21 4 -24 40 -24 38 0 40 2 40 30 0 31 -5 33 -57 23z"></path><path id="pyYcUa0pP" d="M2360 3300 c0 -28 3 -30 35 -30 32 0 35 2 35 30 0 28 -3 30 -35 30 -32 0 -35 -2 -35 -30z"></path><path id="p1GoZdohVi" d="M1083 3263 c-29 -4 -33 -8 -33 -33 l0 -29 54 6 c69 7 122 -3 147 -28 19 -19 19 -19 19 10 0 49 -9 61 -46 61 -19 0 -34 5 -34 10 0 10 -42 11 -107 3z"></path><path id="p1DeRNblXp" d="M3384 3218 c3 -29 9 -117 13 -195 l6 -143 25 0 25 0 -6 168 c-7 204 -11 222 -45 222 -24 0 -25 -1 -18 -52z"></path><path id="p1HIgruxib" d="M400 3235 c0 -18 5 -25 19 -25 11 0 23 -4 26 -10 13 -21 25 -9 25 25 0 33 -2 35 -35 35 -31 0 -35 -3 -35 -25z"></path><path id="pvxplyogI" d="M830 3238 c0 -15 10 -27 27 -35 39 -19 43 -17 43 22 0 33 -2 35 -35 35 -30 0 -35 -3 -35 -22z"></path><path id="p14uinpGpB" d="M1318 3253 c-24 -4 -28 -9 -28 -39 0 -27 4 -34 19 -34 10 0 21 7 25 15 3 9 19 15 41 15 31 0 35 3 35 25 0 22 -4 25 -32 24 -18 -1 -45 -4 -60 -6z"></path><path id="pVU7gTcb5" d="M1536 3238 c-17 -64 6 -108 29 -55 6 13 21 23 38 25 21 3 27 9 27 28 0 22 -4 24 -44 24 -37 0 -45 -4 -50 -22z"></path><path id="pVdsucV7I" d="M1740 3245 c0 -8 -7 -15 -15 -15 -10 0 -15 -11 -15 -35 0 -40 20 -47 35 -12 10 21 15 22 128 22 104 0 120 -2 128 -18 6 -9 7 -22 4 -27 -4 -6 7 -10 24 -10 26 0 31 4 31 25 0 13 8 29 18 34 15 9 15 10 -5 11 -13 0 -23 5 -23 10 0 6 -9 10 -20 10 -11 0 -20 5 -20 10 0 6 -52 10 -135 10 -113 0 -135 -2 -135 -15z"></path><path id="p19BgUcWHf" d="M2100 3235 c0 -21 5 -25 29 -25 26 0 31 -5 43 -42 l15 -43 56 -3 c31 -2 57 1 57 5 0 4 4 25 9 46 9 36 8 37 -20 37 -19 0 -29 -5 -29 -15 0 -8 -9 -15 -20 -15 -15 0 -20 7 -20 25 0 20 -5 25 -25 25 -16 0 -25 6 -25 15 0 10 -11 15 -35 15 -31 0 -35 -3 -35 -25z"></path><path id="p182OoYWRI" d="M2540 3235 c0 -20 5 -25 24 -25 14 0 28 -4 31 -10 13 -21 25 -9 25 25 0 34 -1 35 -40 35 -36 0 -40 -2 -40 -25z"></path><path id="pDFFYt0sH" d="M2790 3250 c0 -5 -22 -10 -50 -10 l-50 0 0 -35 c0 -41 19 -46 50 -15 21 21 94 28 105 10 13 -21 25 -9 25 25 0 34 -1 35 -40 35 -22 0 -40 -4 -40 -10z"></path><path id="p1EX0RBElF" d="M2910 3224 c0 -31 3 -35 18 -28 44 20 186 14 245 -11 14 -6 17 -2 17 28 0 32 -3 35 -37 41 -21 3 -84 6 -140 6 l-103 0 0 -36z"></path><path id="p1EBvto1YV" d="M2445 3208 c-4 -24 -11 -45 -16 -48 -5 -4 -12 -20 -15 -38 -5 -25 -3 -32 10 -32 14 0 16 -15 16 -110 l0 -110 -25 0 c-22 0 -25 4 -25 35 0 40 -24 49 -34 13 -9 -36 -7 -48 9 -48 10 0 15 -11 15 -35 0 -32 2 -35 30 -35 28 0 30 -2 30 -40 0 -39 1 -40 37 -40 29 0 34 3 25 12 -9 9 -12 76 -12 240 0 194 2 229 15 234 8 4 15 15 15 25 0 15 -7 19 -34 19 -32 0 -35 -2 -41 -42z"></path><path id="pI9CexOiN" d="M960 3205 c0 -28 4 -35 19 -35 37 0 51 12 51 41 0 26 -3 29 -35 29 -33 0 -35 -2 -35 -35z"></path><path id="pBnlVWO0b" d="M3270 3205 c0 -33 2 -35 35 -35 33 0 35 2 35 35 0 33 -2 35 -35 35 -33 0 -35 -2 -35 -35z"></path><path id="p1AVOrHUFO" d="M1420 3221 c0 -6 5 -13 10 -16 6 -3 10 -46 10 -96 0 -88 0 -89 25 -89 l25 0 0 105 0 105 -35 0 c-19 0 -35 -4 -35 -9z"></path><path id="pkbRlD3do" d="M3220 3157 c0 -2 7 -18 16 -35 22 -46 54 -44 54 3 0 33 -2 35 -35 35 -19 0 -35 -2 -35 -3z"></path><path id="p9xqWUakG" d="M2040 3105 c0 -28 4 -35 20 -35 21 0 24 10 14 48 -10 36 -34 27 -34 -13z"></path><path id="peGKKpHwn" d="M906 3089 c-18 -91 12 -111 36 -24 15 55 15 55 -7 55 -17 0 -24 -7 -29 -31z"></path><path id="pHlAIrMrZ" d="M1983 3106 c-20 -9 -23 -19 -23 -68 0 -55 -1 -58 -25 -58 -22 0 -25 -4 -25 -35 0 -33 2 -35 35 -35 33 0 35 2 35 35 0 31 3 35 25 35 24 0 25 2 25 70 0 74 -4 78 -47 56z"></path><path id="pFqpBU0Qc" d="M156 3067 c-3 -12 -3 -103 -1 -202 3 -99 5 -208 5 -242 l0 -63 1645 0 1645 0 0 25 c0 20 -5 25 -25 25 -21 0 -25 5 -25 30 0 28 -3 30 -35 30 -32 0 -35 -2 -35 -30 0 -29 -2 -30 -45 -30 -33 0 -45 4 -45 15 0 10 -11 15 -35 15 -24 0 -35 -5 -35 -15 0 -13 -36 -15 -265 -15 -258 0 -265 1 -265 20 0 16 -7 20 -35 20 -28 0 -35 -4 -35 -20 0 -17 -7 -20 -45 -20 -38 0 -45 3 -45 20 0 15 -7 20 -25 20 -14 0 -25 5 -25 10 0 6 -16 10 -35 10 -32 0 -35 -2 -35 -30 0 -16 -4 -30 -10 -30 -5 0 -10 16 -10 35 0 34 -1 35 -40 35 -39 0 -40 -1 -40 -35 0 -33 -2 -35 -35 -35 -33 0 -35 2 -35 35 0 32 -2 35 -29 35 -51 0 -81 -17 -81 -45 0 -25 0 -25 -90 -25 -83 0 -90 1 -90 20 0 15 -7 20 -25 20 -14 0 -25 5 -25 10 0 6 -16 10 -35 10 -24 0 -35 -5 -35 -15 0 -10 -10 -15 -30 -15 -20 0 -30 -5 -30 -15 0 -13 -32 -15 -225 -15 l-225 0 0 30 c0 28 -3 30 -35 30 -32 0 -35 -2 -35 -30 0 -16 -4 -30 -10 -30 -5 0 -10 11 -10 25 0 22 -4 25 -35 25 -31 0 -35 -3 -35 -25 0 -24 -2 -25 -75 -25 l-75 0 0 35 c0 33 -2 35 -35 35 -33 0 -35 -2 -35 -35 l0 -35 -200 0 -200 0 0 35 c0 31 3 35 25 35 22 0 25 4 25 35 0 33 -2 35 -35 35 -31 0 -35 -3 -36 -27 -2 -25 -2 -26 -6 -5 -3 16 -9 22 -20 18 -8 -3 -35 -6 -59 -6 -42 0 -44 -1 -44 -30 0 -28 2 -30 40 -30 38 0 40 -2 40 -30 l0 -30 -80 0 c-64 0 -80 3 -80 15 0 9 9 15 24 15 19 0 24 6 30 38 12 77 10 82 -34 82 -39 0 -40 1 -40 35 0 24 -5 35 -15 35 -10 0 -15 10 -15 29 0 21 6 30 23 35 37 10 47 7 47 -14 0 -16 7 -20 30 -20 28 0 30 3 30 35 0 28 -4 35 -20 35 -18 0 -20 7 -20 55 l0 55 -40 0 c-34 0 -41 4 -46 25 -8 33 -49 35 -58 2z m84 -398 c0 -5 -7 -9 -15 -9 -9 0 -12 6 -9 15 6 15 24 11 24 -6z"></path><path id="pfkKbNXs9" d="M2630 3055 c0 -43 10 -44 33 -6 22 38 22 41 -8 41 -22 0 -25 -4 -25 -35z"></path><path id="pmnqxBhKi" d="M456 3064 c-15 -40 -8 -45 57 -42 59 3 62 4 65 31 3 27 3 27 -56 27 -45 0 -61 -4 -66 -16z"></path><path id="p1BKn0dx5n" d="M2396 3058 c-10 -38 -7 -48 14 -48 16 0 20 7 20 35 0 40 -24 49 -34 13z"></path><path id="ppPuVmKb3" d="M3050 3045 c0 -33 2 -35 35 -35 33 0 35 2 35 35 0 33 -2 35 -35 35 -33 0 -35 -2 -35 -35z"></path><path id="p159XHwXZf" d="M2210 3005 c0 -29 22 -115 29 -115 11 0 34 107 26 120 -10 16 -55 12 -55 -5z"></path><path id="po7439PPq" d="M2080 2979 c0 -12 -8 -23 -20 -26 -28 -8 -29 -73 -1 -73 11 0 26 -7 35 -15 17 -17 46 -20 46 -5 0 36 -34 140 -46 140 -8 0 -14 -9 -14 -21z"></path><path id="pwQOi51EX" d="M2600 2973 c1 -27 1 -27 15 -9 19 25 19 36 0 36 -10 0 -15 -10 -15 -27z"></path><path id="pi47bT6tH" d="M1030 2968 c0 -30 13 -58 26 -58 9 0 14 12 14 35 0 28 -4 35 -20 35 -11 0 -20 -6 -20 -12z"></path><path id="pIUiQp7T1" d="M2722 2953 c-16 -29 -15 -33 8 -33 22 0 23 4 11 35 -8 19 -8 19 -19 -2z"></path><path id="pE5uFtBm1" d="M3270 2931 c0 -10 -7 -37 -15 -60 l-14 -41 33 0 c31 0 34 3 40 38 11 70 8 82 -19 82 -18 0 -25 -5 -25 -19z"></path><path id="pByqOMHM3" d="M880 2909 c0 -17 7 -37 15 -45 8 -9 15 -24 15 -35 0 -13 7 -19 23 -19 l23 0 -16 65 c-13 56 -18 65 -37 65 -19 0 -23 -6 -23 -31z"></path><path id="p1BQWjh1p6" d="M1110 2900 l0 -30 65 0 65 0 0 30 0 30 -65 0 -65 0 0 -30z"></path><path id="p1ERnKpLi8" d="M3110 2883 c0 -35 0 -36 20 -18 11 10 20 26 20 37 0 11 -7 18 -20 18 -16 0 -20 -7 -20 -37z"></path><path id="pLoBVon4T" d="M450 2885 c0 -24 3 -25 60 -25 57 0 60 1 60 25 0 24 -3 25 -60 25 -57 0 -60 -1 -60 -25z"></path><path id="phA0LsPtN" d="M1440 2826 c0 -47 -4 -88 -10 -91 -21 -13 -9 -25 25 -25 l35 0 0 100 0 100 -25 0 c-25 0 -25 -1 -25 -84z"></path><path id="pua2lC2rA" d="M3030 2865 c0 -21 5 -25 30 -25 25 0 30 4 30 25 0 21 -5 25 -30 25 -25 0 -30 -4 -30 -25z"></path><path id="pL7dmOfnv" d="M1910 2835 c0 -33 2 -35 35 -35 33 0 35 2 35 35 0 33 -2 35 -35 35 -33 0 -35 -2 -35 -35z"></path><path id="p9ResI6zJ" d="M2336 2838 c-10 -38 -7 -48 14 -48 16 0 20 7 20 35 0 40 -24 49 -34 13z"></path><path id="p7zojJUDx" d="M3330 2825 c0 -24 5 -35 15 -35 9 0 15 -9 15 -25 0 -22 4 -25 35 -25 33 0 35 2 35 35 0 24 -5 35 -15 35 -9 0 -15 9 -15 25 0 22 -4 25 -35 25 -33 0 -35 -2 -35 -35z"></path><path id="p1DlriFiM8" d="M2120 2805 c0 -28 4 -35 20 -35 21 0 24 10 14 48 -10 36 -34 27 -34 -13z"></path><path id="p9s2EWwBc" d="M2710 2775 c0 -42 3 -55 15 -55 8 0 15 -7 15 -15 0 -12 14 -15 65 -15 l65 0 0 35 0 35 -20 -20 c-21 -21 -39 -24 -77 -14 -20 6 -23 13 -23 55 0 42 -3 49 -20 49 -18 0 -20 -7 -20 -55z"></path><path id="pkqBTIGQW" d="M1241 2788 c2 -13 0 -29 -4 -35 -6 -9 -1 -13 17 -13 23 0 26 4 26 35 0 29 -4 35 -21 35 -15 0 -20 -5 -18 -22z"></path><path id="pp9fYDfHy" d="M2622 2765 l-22 -35 30 0 c28 0 30 3 30 35 0 44 -9 44 -38 0z"></path><path id="pXDP36cNf" d="M560 2741 c0 -52 8 -61 56 -61 24 0 44 5 44 10 0 6 7 10 15 10 11 0 15 10 14 38 -1 20 -3 29 -6 20 -8 -33 -103 -35 -103 -2 0 8 -4 14 -10 14 -5 0 -10 -13 -10 -29z"></path><path id="pNR1Vi4p4" d="M1710 2735 c0 -33 2 -35 35 -35 39 0 50 24 15 33 -11 3 -20 12 -20 21 0 9 -7 16 -15 16 -10 0 -15 -11 -15 -35z"></path><path id="pqEo8VKyW" d="M1846 2748 c-11 -42 -7 -48 29 -48 33 0 35 2 35 35 0 32 -3 35 -29 35 -21 0 -30 -6 -35 -22z"></path><path id="pf8dcwwVd" d="M2330 2725 c0 -33 2 -35 35 -35 33 0 35 2 35 35 0 33 -2 35 -35 35 -33 0 -35 -2 -35 -35z"></path><path id="p7yJMPUUT" d="M1020 2713 c0 -29 3 -33 28 -33 40 0 72 11 72 24 0 7 -22 19 -50 27 l-50 16 0 -34z"></path><path id="p1z1n5pKp" d="M2940 2709 l0 -29 95 0 95 0 0 28 0 27 -95 1 -95 1 0 -28z"></path><path id="pFQ6PlzWV" d="M1148 2723 c-33 -8 -20 -33 17 -33 28 0 35 4 35 20 0 20 -14 23 -52 13z"></path><path id="p70CEGXEO" d="M1960 2695 c0 -33 2 -35 35 -35 33 0 35 2 35 35 0 33 -2 35 -35 35 -33 0 -35 -2 -35 -35z"></path><path id="pLeowCh9v" d="M720 2655 c0 -33 2 -35 35 -35 33 0 35 2 35 35 0 33 -2 35 -35 35 -33 0 -35 -2 -35 -35z"></path><path id="pjfTgQas4" d="M154 1468 c2 -1066 -2 -1007 60 -1112 36 -61 124 -140 181 -162 48 -18 91 -19 1410 -19 l1360 0 62 29 c78 36 144 104 186 194 l32 67 3 273 3 272 -73 0 c-121 0 -428 -57 -428 -80 0 -3 18 -24 41 -45 131 -128 208 -389 169 -573 -13 -60 -50 -102 -90 -102 -38 0 -70 41 -70 90 0 81 -113 241 -218 309 -93 60 -235 97 -412 107 l-111 7 -32 -31 c-42 -40 -140 -88 -207 -103 -66 -14 -175 -7 -215 13 -27 14 -32 14 -68 -5 -44 -22 -167 -35 -205 -20 -14 5 -47 5 -83 -1 -105 -17 -237 25 -322 103 l-44 41 -134 -10 c-221 -17 -306 -48 -400 -146 -39 -42 -62 -77 -77 -119 -32 -88 -45 -109 -75 -119 -57 -20 -78 42 -65 189 24 279 194 496 430 550 35 7 78 15 96 17 l34 3 -42 63 c-33 48 -62 76 -133 125 -94 64 -108 83 -87 123 21 38 64 49 193 48 81 0 117 3 117 11 0 14 -59 112 -106 177 -40 54 -120 122 -157 134 -128 39 -156 64 -177 157 -15 68 11 243 48 317 28 56 78 100 114 100 11 0 41 23 68 50 l49 50 -313 0 -313 0 1 -972z"></path><path id="pyOSmtXOP" d="M2200 1005 c0 -22 4 -25 40 -25 36 0 40 3 40 25 0 23 -4 25 -40 25 -36 0 -40 -2 -40 -25z"></path><path id="pmtgugjVT" d="M2300 1010 c0 -16 7 -20 35 -20 23 0 35 -5 35 -14 0 -9 18 -15 53 -20 83 -9 87 -9 87 18 0 27 -2 27 -120 46 -87 13 -90 13 -90 -10z"></path><path id="pmXx65Iw5" d="M910 965 c-8 -2 -32 -6 -52 -10 -56 -9 -49 -32 12 -40 28 -4 50 -11 50 -16 0 -5 -7 -9 -15 -9 -10 0 -15 -10 -15 -30 0 -26 4 -30 28 -30 40 0 70 10 76 25 7 18 -41 115 -56 114 -7 -1 -20 -3 -28 -4z"></path><path id="pabTimMpH" d="M2160 924 c0 -21 18 -54 30 -54 6 0 10 16 10 35 0 28 -4 35 -20 35 -11 0 -20 -7 -20 -16z"></path><path id="pJUqLN6Vc" d="M2560 905 c0 -33 2 -35 35 -35 33 0 35 2 35 35 0 33 -2 35 -35 35 -33 0 -35 -2 -35 -35z"></path><path id="pyLDYbFzV" d="M680 870 c0 -13 -9 -22 -25 -26 -19 -5 -25 -13 -25 -35 0 -33 3 -34 60 -14 23 8 71 20 106 26 59 10 64 13 64 36 0 25 -1 26 -55 19 -35 -4 -55 -2 -55 4 0 5 -16 10 -35 10 -28 0 -35 -4 -35 -20z"></path><path id="phq12ximX" d="M2223 875 c-7 -8 -13 -22 -13 -31 0 -13 6 -15 31 -10 17 3 38 6 45 6 8 0 14 10 14 25 0 22 -4 25 -32 25 -18 -1 -39 -7 -45 -15z"></path><path id="p15vVKT6LB" d="M2370 865 c0 -17 6 -25 18 -25 9 0 34 -3 55 -6 36 -6 37 -6 37 25 0 31 0 31 -55 31 -52 0 -55 -1 -55 -25z"></path><path id="pEM9LSlro" d="M2490 846 c0 -13 28 -26 58 -26 6 0 12 9 12 20 0 16 -7 20 -35 20 -23 0 -35 -5 -35 -14z"></path><path id="pD14mzMuA" d="M572 817 c-31 -33 -28 -47 13 -47 33 0 35 2 35 35 0 41 -17 46 -48 12z"></path><path id="p17C3rcfRX" d="M2910 756 c0 -33 2 -36 31 -36 l30 0 -21 30 c-31 44 -40 45 -40 6z"></path><path id="p1B1THqU5s" d="M2960 634 c0 -23 39 -74 56 -74 17 0 18 16 3 59 -8 23 -17 31 -35 31 -15 0 -24 -6 -24 -16z"></path></g></g><g id="l1gNvkC1eh79tBOpLzvVEJq" fill="rgb(229,215,167)" style="transform: none;"><g><path id="p2Yc18Lks" d="M2038 4593 c12 -2 32 -2 45 0 12 2 2 4 -23 4 -25 0 -35 -2 -22 -4z"></path><path id="pclBw1IR" d="M1795 3932 l-1330 -2 -45 -68 c-61 -94 -163 -299 -164 -332 -1 -16 -4 -26 -7 -24 -11 6 -49 -121 -69 -231 -17 -94 -20 -155 -20 -412 l0 -303 1645 0 1645 0 0 283 c0 155 -5 311 -11 347 -28 178 -87 367 -160 513 -47 93 -119 207 -140 222 -9 7 -469 9 -1344 7z m-426 -145 c48 -17 56 -35 37 -81 -14 -33 -18 -36 -38 -29 -13 4 -43 8 -67 8 -34 -1 -48 -6 -66 -27 -31 -36 -41 -114 -22 -161 23 -53 56 -71 122 -64 48 5 56 3 66 -14 17 -32 7 -72 -21 -86 -32 -16 -111 -17 -162 -1 -48 14 -103 73 -117 125 -16 56 -13 163 5 217 33 96 157 150 263 113z m412 -10 c68 -36 94 -96 94 -217 0 -117 -22 -174 -80 -210 -45 -28 -123 -37 -181 -21 -95 25 -134 92 -135 228 -2 135 33 198 126 231 53 19 128 14 176 -11z m348 -5 c5 -9 15 -47 22 -82 6 -36 16 -83 22 -105 l10 -40 26 110 c15 61 30 116 34 123 5 7 30 12 62 12 66 0 67 -2 89 -135 10 -55 26 -147 37 -203 10 -57 17 -108 13 -113 -3 -5 -28 -9 -55 -9 -59 0 -63 6 -74 122 -8 90 -20 141 -28 118 -2 -8 -15 -64 -27 -125 -12 -60 -22 -111 -23 -111 -7 -6 -87 -10 -95 -5 -5 3 -21 58 -36 121 -15 63 -30 122 -34 130 -6 18 -30 -117 -32 -180 -1 -64 -10 -74 -66 -72 -26 1 -49 4 -51 6 -10 10 67 421 83 448 3 5 30 8 59 8 42 0 56 -4 64 -18z m-1491 -549 c-10 -2 -26 -2 -35 0 -10 3 -2 5 17 5 19 0 27 -2 18 -5z m1270 0 c-27 -2 -69 -2 -95 0 -27 2 -5 3 47 3 52 0 74 -1 48 -3z m1095 0 c-13 -2 -33 -2 -45 0 -13 2 -3 4 22 4 25 0 35 -2 23 -4z m-2555 -105 c2 -56 7 -88 15 -90 7 -2 35 -2 64 0 l52 4 3 86 3 87 45 0 45 0 3 -232 2 -233 -24 -6 c-13 -3 -35 -4 -47 -2 -23 3 -24 7 -27 91 l-3 87 -64 0 -64 0 -3 -87 -3 -88 -52 -3 -53 -3 0 241 0 241 53 -3 52 -3 3 -87z m417 -148 l0 -235 -50 0 -50 0 -3 225 c-1 123 0 231 3 238 3 9 20 12 52 10 l48 -3 0 -235z m380 220 c12 -10 15 -36 15 -120 0 -60 -3 -115 -6 -124 -5 -12 -21 -16 -75 -16 l-69 0 0 49 c0 47 2 50 28 53 23 3 27 8 27 33 0 25 -4 31 -27 33 -60 7 -101 -48 -101 -133 0 -104 59 -149 148 -115 25 9 27 7 47 -36 23 -53 18 -63 -41 -83 -108 -36 -223 25 -252 132 -6 23 -9 81 -7 129 4 77 8 93 34 130 17 25 49 53 74 66 38 20 56 23 117 19 40 -2 79 -10 88 -17z m193 -77 l3 -93 59 0 60 0 0 89 c0 96 3 101 58 101 53 0 53 1 50 -246 l-3 -229 -50 0 -50 0 -3 88 -3 87 -59 0 -59 0 -3 -87 -3 -88 -50 0 -50 0 -3 225 c-1 123 0 231 3 238 3 9 20 12 52 10 l48 -3 3 -92z m561 83 c7 -9 8 -27 3 -52 l-8 -39 -72 -3 -72 -3 -2 -182 -3 -182 -52 -3 -53 -3 0 235 c0 178 3 236 13 239 6 3 62 6 123 6 83 1 114 -3 123 -13z m175 -31 l12 -40 56 -3 57 -3 8 43 c8 42 9 43 53 46 76 4 78 0 42 -135 -18 -65 -44 -163 -58 -218 -15 -55 -31 -106 -37 -112 -6 -8 -33 -13 -68 -13 -70 0 -63 -10 -109 168 -16 64 -40 156 -53 204 -28 101 -24 110 42 106 42 -3 45 -5 55 -43z m426 -85 c4 -88 8 -121 15 -110 6 8 37 64 70 125 l60 110 45 3 c33 3 47 -1 57 -14 18 -24 19 -444 1 -462 -17 -17 -74 -15 -92 3 -12 12 -14 33 -9 103 3 48 1 98 -4 111 -9 22 -15 14 -66 -86 -31 -60 -63 -115 -71 -122 -8 -7 -35 -11 -63 -9 l-48 3 -3 225 c-1 123 0 231 3 238 3 9 20 12 52 10 l48 -3 5 -125z m577 101 c63 -32 88 -91 88 -211 0 -79 -4 -102 -22 -137 -29 -54 -62 -78 -124 -93 -49 -12 -167 -8 -189 5 -6 4 -10 96 -10 225 0 198 2 220 18 230 29 18 192 5 239 -19z m-1720 -103 c-2 -13 -4 -5 -4 17 -1 22 1 32 4 23 2 -10 2 -28 0 -40z m1020 -95 c-2 -27 -3 -5 -3 47 0 52 1 74 3 48 2 -27 2 -69 0 -95z m0 -115 c-2 -13 -4 -3 -4 22 0 25 2 35 4 23 2 -13 2 -33 0 -45z m-1949 25 c-10 -2 -28 -2 -40 0 -13 2 -5 4 17 4 22 1 32 -1 23 -4z m1949 -125 c-2 -13 -4 -3 -4 22 0 25 2 35 4 23 2 -13 2 -33 0 -45z m601 -55 c-16 -2 -40 -2 -55 0 -16 2 -3 4 27 4 30 0 43 -2 28 -4z m-2660 -10 c-10 -2 -26 -2 -35 0 -10 3 -2 5 17 5 19 0 27 -2 18 -5z m-95 -130 c-23 -2 -64 -2 -90 0 -26 2 -7 3 42 3 50 0 71 -1 48 -3z m345 0 c-10 -2 -28 -2 -40 0 -13 2 -5 4 17 4 22 1 32 -1 23 -4z m295 0 c-13 -2 -35 -2 -50 0 -16 2 -5 4 22 4 28 0 40 -2 28 -4z m664 0 c-20 -2 -52 -2 -70 0 -17 2 0 4 38 4 39 0 53 -2 32 -4z m116 0 c-13 -2 -35 -2 -50 0 -16 2 -5 4 22 4 28 0 40 -2 28 -4z m345 0 c-10 -2 -26 -2 -35 0 -10 3 -2 5 17 5 19 0 27 -2 18 -5z m315 0 c-13 -2 -35 -2 -50 0 -16 2 -5 4 22 4 28 0 40 -2 28 -4z m125 0 c-10 -2 -26 -2 -35 0 -10 3 -2 5 17 5 19 0 27 -2 18 -5z m320 0 c-10 -2 -28 -2 -40 0 -13 2 -5 4 17 4 22 1 32 -1 23 -4z m135 0 c-13 -2 -35 -2 -50 0 -16 2 -5 4 22 4 28 0 40 -2 28 -4z m205 0 c-10 -2 -28 -2 -40 0 -13 2 -5 4 17 4 22 1 32 -1 23 -4z m175 0 c-13 -2 -35 -2 -50 0 -16 2 -5 4 22 4 28 0 40 -2 28 -4z"></path><path id="ppfGKCFSO" d="M1645 3688 c-26 -15 -33 -25 -46 -72 -14 -50 -3 -139 19 -166 9 -11 31 -23 49 -26 27 -5 37 -1 63 24 28 29 30 34 30 112 0 77 -2 83 -29 111 -31 31 -54 35 -86 17z m102 -115 c-3 -10 -5 -2 -5 17 0 19 2 27 5 18 2 -10 2 -26 0 -35z"></path><path id="p13NTGx8Sr" d="M2210 3012 c0 -25 24 -122 30 -122 4 0 10 15 13 33 3 17 9 47 13 65 6 31 5 32 -25 32 -17 0 -31 -4 -31 -8z"></path><path id="pFwLD5KBL" d="M3030 2970 l0 -130 31 0 c43 0 69 16 85 55 26 63 11 175 -26 195 -10 5 -35 10 -54 10 l-36 0 0 -130z"></path><path id="ptfZiLsP3" d="M293 2434 c9 -9 67 -11 67 -2 0 4 -16 8 -37 8 -20 0 -34 -3 -30 -6z"></path><path id="pEqajVzsb" d="M420 2430 c30 -4 61 -4 69 0 7 4 -18 7 -55 7 l-69 1 55 -8z"></path><path id="p3a0FpaPf" d="M550 2432 c0 -5 20 -8 44 -8 24 1 42 4 39 9 -6 10 -83 9 -83 -1z"></path><path id="p12H4cRV0" d="M690 2429 l-45 -6 47 -1 48 -2 -23 -26 c-12 -14 -35 -32 -52 -40 -28 -13 -28 -14 -4 -9 14 2 46 24 70 49 48 47 48 47 -41 35z"></path><path id="phlXXkSIq" d="M163 2290 c0 -36 2 -50 4 -32 2 17 2 47 0 65 -2 17 -4 3 -4 -33z"></path><path id="pR2SktNgx" d="M566 2290 c-20 -22 -36 -46 -36 -53 0 -6 6 -3 12 8 6 11 24 35 41 53 17 17 28 32 25 32 -3 0 -22 -18 -42 -40z"></path><path id="p15uHm6ZHM" d="M163 2145 c0 -44 2 -61 4 -37 2 23 2 59 0 80 -2 20 -4 1 -4 -43z"></path><path id="pCFnlwA2K" d="M490 2061 c-9 -66 -10 -99 -2 -127 l11 -39 -5 41 c-3 23 0 79 7 123 6 45 9 84 7 87 -3 2 -11 -36 -18 -85z"></path><path id="p1DzatQg9p" d="M163 2025 c0 -22 2 -30 4 -17 2 12 2 30 0 40 -3 9 -5 -1 -4 -23z"></path><path id="p4Pyeytxo" d="M163 1945 c0 -22 2 -30 4 -17 2 12 2 30 0 40 -3 9 -5 -1 -4 -23z"></path><path id="pQJabSeww" d="M163 1815 c0 -33 2 -45 4 -27 2 18 2 45 0 60 -2 15 -4 0 -4 -33z"></path><path id="p1AtABWOdd" d="M580 1792 c8 -5 26 -13 40 -16 17 -5 20 -4 10 2 -8 5 -26 13 -40 16 -17 5 -20 4 -10 -2z"></path><path id="pVx1apu8x" d="M684 1750 c22 -11 48 -27 58 -36 10 -10 18 -14 18 -11 0 11 -64 54 -90 61 -15 4 -9 -1 14 -14z"></path><path id="p6GOmlzAn" d="M164 1655 c0 -55 1 -76 3 -47 2 29 2 74 0 100 -2 26 -3 2 -3 -53z"></path><path id="p15UwCYwLd" d="M781 1682 c73 -99 92 -122 96 -122 6 0 -6 19 -54 83 -24 31 -47 57 -50 57 -3 0 1 -8 8 -18z"></path><path id="p11OaLVs3Q" d="M164 1275 c0 -154 2 -216 3 -137 2 79 2 205 0 280 -1 75 -3 11 -3 -143z"></path><path id="ptgYw5Kyh" d="M900 1509 c12 -23 24 -38 27 -35 5 5 -35 76 -43 76 -2 0 5 -18 16 -41z"></path><path id="pncso229o" d="M778 1453 c23 -2 59 -2 80 0 20 2 1 4 -43 4 -44 0 -61 -2 -37 -4z"></path><path id="p1BWzpOykF" d="M639 1421 c-31 -31 -37 -66 -16 -94 13 -18 131 -92 121 -76 -3 5 -30 24 -60 40 -59 34 -74 63 -55 105 6 14 26 31 44 39 20 9 25 14 14 15 -10 0 -32 -13 -48 -29z"></path><path id="p1H8EGLuxd" d="M799 1194 c63 -70 68 -74 36 -29 -15 22 -40 49 -54 60 -16 11 -9 -1 18 -31z"></path><path id="px3Jwkao2" d="M813 1083 c9 -2 25 -2 35 0 9 3 1 5 -18 5 -19 0 -27 -2 -17 -5z"></path><path id="pqc0ul0g9" d="M628 1030 c-20 -11 -40 -25 -44 -31 -5 -9 73 31 95 48 14 10 -20 -1 -51 -17z"></path><path id="pWVRHGmZV" d="M2184 1009 c-26 -29 -26 -105 1 -142 l20 -28 155 -4 c134 -3 170 -8 268 -34 63 -17 141 -45 175 -63 61 -32 158 -120 209 -188 l26 -35 -10 54 c-42 237 -286 406 -648 451 -131 16 -174 13 -196 -11z"></path><path id="pxZro4Y7s" d="M3215 994 c-102 -15 -139 -23 -134 -29 2 -2 42 3 89 11 47 7 127 17 177 20 l93 7 3 -244 2 -244 3 248 2 247 -72 -1 c-40 -1 -113 -7 -163 -15z"></path><path id="pb9BfrAu1" d="M163 910 c0 -47 2 -66 4 -42 2 23 2 61 0 85 -2 23 -4 4 -4 -43z"></path><path id="pOZ8w1ktk" d="M513 944 l-48 -46 45 37 c60 51 65 55 58 55 -3 0 -28 -21 -55 -46z"></path><path id="p1EgHMbtr6" d="M855 954 c-156 -24 -272 -98 -334 -214 l-33 -61 62 45 c80 59 186 93 333 106 62 5 115 10 119 10 7 0 -39 111 -50 121 -4 3 -47 0 -97 -7z"></path><path id="pOsv3hQ59" d="M3035 960 c-19 -8 -19 -9 2 -9 12 -1 25 4 28 9 7 12 -2 12 -30 0z"></path><path id="pyJldgAED" d="M2950 935 c0 -6 24 -33 52 -60 51 -49 44 -36 -20 35 -18 19 -32 30 -32 25z"></path><path id="py1CUYZvh" d="M424 835 c-9 -14 -15 -27 -13 -30 3 -2 12 10 21 26 21 36 15 39 -8 4z"></path><path id="pm2X3F6Hm" d="M3059 805 c5 -11 17 -29 26 -40 l16 -20 -10 20 c-5 11 -17 29 -26 40 l-16 20 10 -20z"></path><path id="pzPvEoa1k" d="M376 738 c-25 -57 -42 -106 -33 -98 9 9 66 150 61 150 -3 0 -15 -24 -28 -52z"></path><path id="paHhCVUb7" d="M1030 714 c-8 -1 -60 -6 -115 -10 -55 -4 -93 -9 -85 -11 9 -2 67 1 130 6 98 7 118 6 133 -7 19 -17 24 -3 5 16 -11 11 -35 14 -68 6z"></path><path id="p1Gmi042T4" d="M2236 694 c-22 -21 -20 -31 2 -12 9 9 26 18 37 21 19 4 18 5 -2 6 -12 0 -29 -6 -37 -15z"></path><path id="p653UqjaW" d="M2449 700 c46 -5 115 -18 153 -30 39 -12 72 -19 74 -17 11 11 -157 49 -229 52 l-82 4 84 -9z"></path><path id="p18Al8HyPP" d="M3121 690 c0 -3 8 -32 19 -65 12 -33 18 -46 16 -29 -5 29 -33 106 -35 94z"></path><path id="pnDpP1o6n" d="M162 590 c0 -52 3 -103 7 -114 4 -10 5 26 3 80 -4 134 -10 150 -10 34z"></path><path id="p19TG8vpKu" d="M705 665 c-39 -17 -21 -18 25 0 19 7 28 14 20 14 -8 0 -28 -6 -45 -14z"></path><path id="pqjxl0Zkq" d="M589 599 l-44 -41 50 38 c28 21 52 40 54 41 2 2 0 3 -6 3 -6 0 -30 -18 -54 -41z"></path><path id="pBvFa3kPJ" d="M1175 630 c7 -11 76 -42 81 -37 2 2 -17 13 -42 25 -25 12 -43 18 -39 12z"></path><path id="pwPTqtmHE" d="M2100 613 c-19 -9 -48 -19 -65 -23 -27 -7 -28 -8 -5 -9 25 -1 110 33 110 44 0 6 3 7 -40 -12z"></path><path id="p5NLZDiui" d="M2740 626 c0 -2 16 -13 36 -25 19 -12 32 -16 29 -11 -7 11 -65 43 -65 36z"></path><path id="p48ejDgMN" d="M1725 589 c-22 -10 -34 -19 -27 -19 7 0 26 7 43 15 26 14 34 14 75 0 26 -9 74 -14 117 -13 l72 1 -90 7 c-49 3 -100 12 -112 18 -27 15 -29 15 -78 -9z"></path><path id="procAQT5C" d="M316 496 c-8 -96 -2 -132 27 -163 38 -42 86 -26 111 37 9 22 16 46 16 53 -1 6 -10 -10 -20 -37 -11 -27 -25 -53 -32 -58 -23 -14 -54 -9 -74 13 -16 18 -19 35 -16 130 1 60 1 109 -1 109 -3 0 -7 -38 -11 -84z"></path><path id="ppIJXAXNS" d="M1320 570 c25 -8 147 -13 139 -6 -2 2 -40 6 -84 8 -44 3 -69 2 -55 -2z"></path><path id="pSDKDCe9Q" d="M2870 523 c24 -29 45 -53 47 -53 8 0 -35 55 -63 80 -16 14 -9 2 16 -27z"></path><path id="pTfoK31hI" d="M512 523 c-29 -43 -36 -61 -13 -33 25 29 44 60 37 60 -3 0 -13 -12 -24 -27z"></path><path id="pI5keizID" d="M3173 430 c0 -41 2 -58 4 -37 2 20 2 54 0 75 -2 20 -4 3 -4 -38z"></path><path id="pOC6Loqlv" d="M3422 453 c-15 -48 -8 -55 8 -8 7 20 10 38 8 41 -3 2 -10 -13 -16 -33z"></path><path id="pWQtH3YUf" d="M2941 430 c29 -46 29 -45 29 -32 0 6 -12 24 -26 39 l-26 28 23 -35z"></path><path id="puRCA8nU3" d="M2986 310 c8 -75 30 -105 80 -107 l39 -1 -39 7 c-47 10 -66 32 -67 80 0 20 -4 45 -9 56 -6 13 -7 1 -4 -35z"></path><path id="p1JEG04sv" d="M3362 330 c-13 -16 -19 -30 -14 -30 4 0 16 14 25 30 10 17 16 30 14 30 -2 0 -13 -13 -25 -30z"></path><path id="pxxfM86I7" d="M296 263 c29 -29 58 -53 64 -53 7 0 0 10 -16 22 -16 12 -45 35 -64 52 -20 17 -12 7 16 -21z"></path><path id="p19RC0gYez" d="M3300 262 c-19 -16 -44 -34 -55 -40 -11 -6 -15 -12 -9 -12 11 0 104 67 104 75 0 8 -5 6 -40 -23z"></path><path id="pEUVFUbHW" d="M3132 242 l-23 -37 26 28 c14 15 25 32 25 38 0 14 -3 11 -28 -29z"></path><path id="pSPK2fxWd" d="M1197 173 c354 -2 932 -2 1285 0 354 1 65 2 -642 2 -707 0 -996 -1 -643 -2z"></path></g></g></svg>