<svg xmlns="http://www.w3.org/2000/svg" width="359" height="468" viewBox="0 0 3590 4680"><g id="l5N86j6TefcR3y0SSiQjaeW" fill="rgb(10,12,5)" style="transform: none;"><g><path id="p14fjFh3iF" d="M1418 4528 c-46 -10 -48 -11 -48 -45 l0 -35 48 5 c103 12 112 16 112 53 0 32 -2 34 -32 33 -18 -1 -54 -6 -80 -11z"></path><path id="p14K2CesqF" d="M2090 4497 c0 -31 3 -34 45 -45 25 -7 56 -12 70 -12 22 0 25 4 25 39 l0 38 -52 7 c-87 10 -88 10 -88 -27z"></path><path id="p1DJ0hvvRK" d="M3000 3995 c0 -28 4 -35 20 -35 13 0 20 -7 20 -20 0 -11 7 -20 15 -20 8 0 15 -9 15 -20 0 -16 7 -20 35 -20 33 0 35 2 35 35 0 24 -5 35 -15 35 -8 0 -15 9 -15 20 0 13 -7 20 -20 20 -13 0 -20 7 -20 20 0 16 -7 20 -35 20 -33 0 -35 -2 -35 -35z"></path><path id="p1DG9atXEN" d="M1590 3750 l0 -40 81 0 80 0 -3 38 -3 37 -77 3 -78 3 0 -41z"></path><path id="phZGZBPmo" d="M983 3773 l-23 -4 0 -280 c0 -241 2 -279 15 -279 8 0 15 -5 15 -10 0 -7 45 -10 128 -8 l127 3 3 39 3 38 -70 -7 c-38 -4 -88 -4 -110 0 l-41 7 0 211 0 212 112 -3 c132 -3 138 -5 138 -32 0 -17 6 -20 45 -20 l45 0 0 40 c0 29 -4 40 -15 40 -8 0 -15 7 -15 15 0 9 -9 15 -24 15 -13 0 -26 6 -28 13 -4 9 -42 12 -144 13 -76 1 -149 0 -161 -3z"></path><path id="plZGJEnsv" d="M1952 3768 c-7 -7 -12 -31 -12 -55 0 -42 0 -43 35 -43 19 0 35 5 35 10 0 6 7 10 15 10 12 0 15 -13 15 -60 l0 -60 45 0 c43 0 45 -1 45 -30 0 -26 4 -30 28 -30 37 0 52 -17 52 -57 0 -31 2 -33 34 -33 31 0 34 3 40 38 3 20 6 56 6 80 l0 42 -80 0 -80 0 0 100 0 100 -83 0 c-51 0 -88 -5 -95 -12z"></path><path id="palFE7alO" d="M2347 3773 c-4 -3 -7 -134 -7 -289 l0 -284 23 -5 c12 -3 92 -4 177 -3 l155 3 3 37 3 36 -143 -1 -143 -2 -3 213 c-2 207 -2 212 18 212 18 0 20 -6 20 -80 l0 -80 35 0 c19 0 35 -4 35 -10 0 -5 14 -10 30 -10 17 0 30 -4 30 -10 0 -5 7 -10 15 -10 8 0 15 -9 15 -20 0 -16 7 -20 35 -20 l35 0 0 49 c0 79 -2 81 -86 81 l-74 0 0 100 0 100 -83 0 c-46 0 -87 -3 -90 -7z"></path><path id="pREHWZ0Gs" d="M1439 3683 c-19 -38 -26 -457 -8 -479 12 -15 58 -18 133 -8 l46 7 0 108 0 109 -35 0 -35 0 0 -74 c0 -78 -7 -93 -33 -73 -14 11 -15 31 -7 177 5 91 12 186 16 213 l6 47 -34 0 c-28 0 -38 -6 -49 -27z"></path><path id="pQTKAb3JT" d="M290 3680 c0 -5 -6 -10 -13 -10 -16 0 -47 -67 -47 -101 0 -54 11 -69 46 -69 26 0 34 4 34 18 0 9 11 38 25 64 14 26 25 61 25 78 0 28 -3 30 -35 30 -19 0 -35 -4 -35 -10z"></path><path id="poyrlCW63" d="M1050 3580 l0 -90 33 -1 c20 -1 25 -3 11 -6 -31 -6 -44 -44 -44 -127 l0 -73 31 -7 c67 -13 79 -9 79 28 0 19 -4 38 -10 41 -5 3 -10 17 -10 31 0 13 5 24 10 24 15 0 12 67 -2 73 -7 3 -3 6 10 6 18 1 22 7 22 36 0 28 -4 35 -20 35 -18 0 -20 7 -20 60 l0 60 -45 0 -45 0 0 -90z"></path><path id="pALYzMYE7" d="M1310 3540 c0 -5 -7 -10 -15 -10 -8 0 -15 -7 -15 -15 0 -8 -7 -15 -15 -15 -10 0 -15 -11 -15 -35 0 -33 2 -35 35 -35 24 0 35 5 35 15 0 8 7 15 16 15 25 0 44 26 44 59 0 29 -3 31 -35 31 -19 0 -35 -4 -35 -10z"></path><path id="p2URtJu9c" d="M2450 3395 l0 -75 35 0 35 0 0 75 0 75 -35 0 -35 0 0 -75z"></path><path id="pCdj9ruqa" d="M2040 3371 l0 -68 46 -7 c81 -11 84 -10 84 29 0 28 -4 35 -20 35 -17 0 -20 7 -20 40 l0 40 -45 0 -45 0 0 -69z"></path><path id="p3nYQrMNu" d="M1300 3370 c0 -16 -4 -30 -10 -30 -5 0 -10 -16 -10 -35 0 -35 0 -35 45 -35 l45 0 0 65 0 65 -35 0 c-32 0 -35 -2 -35 -30z"></path><path id="pRVujkErU" d="M170 3280 c0 -16 -4 -30 -10 -30 -7 0 -10 -158 -10 -455 0 -442 1 -455 19 -455 11 0 21 -5 23 -11 5 -15 451 -16 456 0 4 13 32 15 32 2 0 -10 155 -11 408 -4 l162 5 0 33 0 33 -142 7 c-79 4 -177 5 -218 3 -41 -1 -204 -2 -362 0 l-288 2 0 450 0 450 -35 0 c-32 0 -35 -2 -35 -30z"></path><path id="p10oiRSBhl" d="M1710 3235 c0 -38 14 -45 102 -45 77 0 88 6 88 45 l0 32 -95 1 -95 0 0 -33z"></path><path id="puxsEepr" d="M1960 3225 l0 -35 170 0 170 0 0 35 0 35 -170 0 -170 0 0 -35z"></path><path id="pXQoHjoKM" d="M3360 2828 l0 -423 -657 3 c-362 1 -691 0 -730 -3 l-73 -7 0 -35 0 -35 55 4 c30 1 55 0 55 -4 0 -12 135 -9 167 3 19 7 29 7 31 0 5 -14 242 -15 242 -1 0 6 7 10 15 10 8 0 15 -5 15 -10 0 -12 497 -12 568 0 23 4 42 3 42 -1 0 -5 20 -9 45 -9 25 0 45 5 45 10 0 6 16 10 35 10 19 0 35 -4 35 -10 0 -6 32 -10 75 -10 68 0 75 2 75 20 0 11 7 20 15 20 13 0 15 56 15 445 l0 445 -35 0 -35 0 0 -422z"></path><path id="pkdbNEcnk" d="M86 3178 c-8 -30 -8 -2206 0 -2236 4 -12 13 -22 20 -22 12 0 14 176 14 1140 0 964 -2 1140 -14 1140 -7 0 -16 -10 -20 -22z"></path><path id="pfGZsYg14" d="M1228 3113 c-13 -3 -18 -15 -18 -44 l0 -39 75 0 75 0 0 39 c0 37 -2 39 -37 45 -41 6 -68 6 -95 -1z"></path><path id="pVTYJ1af6" d="M2030 3076 c0 -42 10 -46 106 -46 l74 0 0 40 0 40 -90 0 -90 0 0 -34z"></path><path id="pju0kLpAC" d="M2750 3050 l0 -60 40 0 c29 0 40 4 40 15 0 8 5 15 10 15 6 0 10 17 10 39 0 42 -13 51 -72 51 -27 0 -28 -1 -28 -60z"></path><path id="p3OsuXCTz" d="M392 3058 c3 -43 3 -43 46 -46 l42 -3 0 -85 0 -84 40 0 c22 0 40 -4 40 -10 0 -6 27 -10 60 -10 l60 0 0 40 0 40 -55 0 -54 0 -3 98 -3 97 -88 3 -88 3 3 -43z"></path><path id="p2t62n1CB" d="M670 3055 l0 -45 60 0 c53 0 60 -2 60 -20 0 -16 7 -20 35 -20 l35 0 0 49 c0 81 0 81 -101 81 l-89 0 0 -45z"></path><path id="p5x2oK4Bz" d="M906 3084 c-3 -9 -6 -36 -6 -60 0 -44 0 -44 35 -44 24 0 35 5 35 15 0 8 7 15 15 15 13 0 15 -33 15 -235 l0 -235 45 0 45 0 0 280 0 280 -89 0 c-72 0 -90 -3 -95 -16z"></path><path id="p7LowPprd" d="M1620 3061 c0 -35 3 -39 31 -45 17 -3 53 -6 80 -6 l49 0 0 45 0 45 -80 0 -80 0 0 -39z"></path><path id="p12pezXJCN" d="M2950 2975 l0 -125 35 0 35 0 0 80 c0 79 0 80 25 80 14 0 25 -4 25 -10 0 -5 16 -10 35 -10 34 0 35 1 35 41 0 60 -15 69 -109 69 l-81 0 0 -125z"></path><path id="pP4xoksJa" d="M1876 2919 c-8 -41 -8 -153 0 -213 6 -44 8 -46 40 -46 l32 0 0 145 0 145 -33 0 c-28 0 -33 -4 -39 -31z"></path><path id="p1C1wr8MS5" d="M1990 2810 l0 -90 35 0 35 0 0 90 0 90 -35 0 -35 0 0 -90z"></path><path id="p8YnfpR08" d="M1440 2880 c0 -5 -7 -10 -15 -10 -10 0 -15 -10 -15 -29 0 -27 -3 -29 -50 -35 -49 -7 -50 -7 -50 -41 0 -34 1 -35 39 -35 57 0 71 8 71 41 0 26 4 29 31 29 39 0 59 20 59 59 0 29 -3 31 -35 31 -19 0 -35 -4 -35 -10z"></path><path id="pBwk0pMwF" d="M3113 2805 c-16 -18 -17 -56 -1 -90 10 -22 17 -25 60 -25 45 0 48 1 48 27 0 14 -8 44 -17 64 -15 32 -23 38 -48 38 -16 0 -36 -6 -42 -14z"></path><path id="pC6gv9X5d" d="M503 2793 c-7 -2 -13 -21 -13 -40 l0 -36 61 7 c34 3 82 6 105 6 44 0 44 0 44 35 l0 35 -92 -1 c-51 0 -99 -3 -105 -6z"></path><path id="pVvh8QUs5" d="M480 2635 c0 -43 4 -75 10 -75 6 0 10 -7 10 -15 0 -10 11 -15 35 -15 l35 0 0 90 0 90 -45 0 -45 0 0 -75z"></path><path id="p13GWhCO0S" d="M1394 2655 c-4 -9 -3 -40 1 -71 l7 -55 36 3 37 3 3 68 3 67 -41 0 c-27 0 -43 -5 -46 -15z"></path><path id="p12jEOgWc3" d="M1468 2403 c-13 -3 -18 -14 -18 -38 l0 -33 77 -8 c54 -5 78 -3 81 5 5 14 52 15 52 1 0 -13 111 -13 144 0 21 8 26 16 26 45 l0 35 -172 -1 c-95 -1 -181 -3 -190 -6z"></path><path id="pekNOKbSI" d="M890 1145 c0 -31 3 -36 30 -41 17 -4 30 -10 30 -15 0 -5 18 -9 40 -9 39 0 40 1 40 35 0 29 -4 35 -21 35 -11 0 -27 7 -35 15 -9 8 -31 15 -50 15 -32 0 -34 -2 -34 -35z"></path><path id="pPwvvIiOu" d="M1506 814 c-11 -30 -6 -72 10 -78 9 -3 33 -6 55 -6 39 0 39 0 39 40 0 29 -5 42 -19 50 -30 15 -78 12 -85 -6z"></path><path id="pXOk2hJeK" d="M2180 736 c0 -33 2 -36 29 -36 16 0 43 -3 60 -6 26 -6 31 -11 31 -35 0 -27 3 -29 40 -29 38 0 40 2 40 30 0 23 4 30 20 30 11 0 20 -6 20 -14 0 -7 10 -16 23 -20 35 -9 87 -7 87 4 0 6 7 10 15 10 16 0 21 55 7 76 -4 7 -75 14 -189 18 l-183 7 0 -35z"></path><path id="pJvdsXvk3" d="M1757 744 c-4 -4 -7 -22 -7 -39 0 -30 3 -33 38 -39 20 -3 54 -6 75 -6 20 0 37 -5 37 -11 0 -7 17 -10 45 -7 25 2 45 0 45 -4 0 -5 16 -8 35 -8 35 0 35 1 35 43 l0 43 -97 13 c-143 20 -197 23 -206 15z"></path></g></g><g id="lKP9Yrc1hikYc3iFenEEE7" fill="rgb(38,35,22)" style="transform: none;"><g><path id="pKrlmaHk2" d="M1570 4620 c-86 -7 -191 -28 -200 -39 -3 -4 -36 -13 -75 -20 -38 -8 -92 -24 -120 -36 -27 -13 -70 -30 -95 -38 -63 -21 -100 -39 -100 -48 0 -5 -17 -13 -38 -18 -21 -6 -47 -19 -59 -30 -11 -11 -36 -26 -54 -35 -19 -8 -50 -28 -69 -45 -19 -17 -38 -31 -42 -31 -21 0 -308 -266 -308 -286 0 -5 -12 -23 -27 -40 -51 -56 -74 -88 -96 -134 -12 -25 -25 -47 -28 -50 -22 -18 -92 -193 -104 -262 -4 -21 -11 -38 -15 -38 -4 0 -16 -33 -26 -72 -18 -69 -19 -143 -22 -1281 -2 -1084 -1 -1214 14 -1270 9 -34 20 -67 24 -73 5 -5 27 -46 49 -90 31 -62 57 -95 120 -154 107 -102 147 -133 180 -145 15 -5 35 -17 43 -26 9 -9 31 -21 50 -28 18 -7 50 -21 72 -33 21 -11 68 -30 105 -43 36 -13 89 -32 116 -43 28 -12 77 -26 110 -33 33 -7 65 -15 70 -19 22 -15 135 -40 210 -46 44 -4 85 -10 90 -14 59 -46 820 -45 880 0 6 4 44 11 85 14 94 9 210 35 210 47 0 5 11 9 25 9 39 0 110 19 230 62 152 54 165 59 165 68 0 5 15 12 33 15 34 8 89 33 97 45 3 4 21 14 40 22 19 8 49 27 65 41 17 14 56 46 88 72 31 25 57 52 57 60 0 7 9 16 20 20 18 6 34 27 79 107 12 21 29 53 40 71 53 93 51 53 51 1309 0 694 -4 1187 -10 1223 -15 98 -42 205 -51 205 -5 0 -9 8 -9 18 0 21 -50 165 -73 209 -9 18 -30 51 -46 75 -16 24 -31 53 -35 64 -4 12 -15 29 -26 39 -11 10 -20 24 -20 32 0 7 -6 13 -13 13 -7 0 -23 17 -34 38 -38 67 -232 253 -317 303 -20 11 -36 25 -36 29 0 5 -25 21 -57 36 -31 15 -67 38 -80 50 -13 12 -37 24 -54 28 -16 3 -37 12 -45 20 -8 8 -40 24 -71 36 -32 11 -67 25 -78 30 -53 24 -96 38 -160 50 -38 8 -73 18 -77 24 -3 5 -28 9 -55 10 -26 0 -51 4 -54 9 -16 22 -352 32 -539 17z m500 -155 c106 -21 263 -62 314 -84 169 -71 349 -174 451 -258 61 -51 245 -236 245 -248 0 -3 21 -33 46 -67 110 -148 205 -398 220 -579 4 -43 11 -79 15 -79 12 0 12 -727 0 -734 -5 -3 -704 -6 -1555 -6 -1292 -1 -1546 -3 -1546 -14 0 -19 32 -25 101 -19 51 4 58 3 53 -11 -5 -13 -23 -16 -100 -16 -56 0 -94 4 -94 10 0 6 -9 10 -20 10 -13 0 -20 7 -20 20 0 11 7 20 15 20 8 0 15 -7 15 -15 0 -9 9 -15 21 -15 15 0 19 4 15 16 -3 9 -6 27 -6 40 0 15 -6 24 -15 24 -8 0 -15 -7 -15 -15 0 -8 -7 -15 -15 -15 -12 0 -15 16 -15 80 0 64 3 80 15 80 8 0 15 -7 15 -15 0 -8 7 -15 15 -15 11 0 15 11 15 40 0 29 -4 40 -15 40 -8 0 -15 -7 -15 -15 0 -8 -7 -15 -15 -15 -11 0 -15 11 -15 40 0 29 4 40 15 40 8 0 15 -7 15 -15 0 -8 7 -15 15 -15 11 0 15 12 15 45 0 33 -4 45 -15 45 -8 0 -15 -7 -15 -15 0 -8 -7 -15 -15 -15 -12 0 -15 16 -15 85 0 69 3 85 15 85 8 0 15 -7 15 -15 0 -8 7 -15 15 -15 11 0 15 11 15 40 0 29 -4 40 -15 40 -8 0 -15 -7 -15 -15 0 -8 -7 -15 -15 -15 -12 0 -15 20 -15 120 0 100 3 120 15 120 8 0 15 -7 15 -15 0 -8 7 -15 15 -15 11 0 15 12 15 44 0 55 24 190 49 281 42 147 46 160 59 174 7 7 24 36 38 65 15 28 53 88 85 133 32 44 63 93 69 107 5 14 16 26 23 26 8 0 37 25 66 55 105 111 285 234 485 330 145 70 350 128 507 145 116 12 347 4 449 -15z m1290 -2889 c0 -614 -1 -647 -20 -708 -62 -202 -276 -381 -585 -491 -258 -91 -567 -153 -865 -172 -180 -11 -566 31 -777 86 -476 122 -750 303 -854 564 l-24 60 -1 653 -1 652 1564 0 1563 0 0 -644z"></path><path id="plHZsUMky" d="M1590 3781 c-64 -8 -85 -18 -121 -58 -25 -29 -26 -33 -37 -261 -12 -227 -11 -233 8 -252 16 -16 33 -20 90 -20 39 0 70 1 71 3 0 1 4 89 7 194 7 179 8 194 29 214 l21 22 26 -26 26 -26 0 -176 c0 -134 3 -180 13 -190 9 -8 40 -13 90 -13 72 -1 77 1 83 22 3 13 4 122 2 244 -3 205 -4 223 -24 249 -48 65 -149 91 -284 74z"></path><path id="p3Rjb3L8L" d="M1028 3773 c-50 -3 -58 -7 -58 -23 0 -11 -4 -20 -10 -20 -6 0 -10 -70 -10 -190 0 -133 3 -190 11 -190 8 0 9 -22 4 -74 l-6 -73 47 -7 c71 -9 197 -7 253 5 66 14 101 42 101 80 0 16 5 29 11 29 14 0 4 101 -12 132 -7 12 -7 23 -2 27 28 19 43 59 43 118 0 76 -12 109 -53 145 -39 36 -64 42 -138 35 -32 -3 -59 -1 -59 4 0 5 -15 8 -32 7 -18 -1 -59 -3 -90 -5z"></path><path id="pMC954azd" d="M1948 3723 c-2 -16 -2 -139 0 -274 l4 -247 30 -6 c17 -3 97 -6 179 -6 136 0 149 2 159 19 14 27 13 124 -2 139 -8 8 -48 12 -115 12 -85 0 -103 -3 -103 -15 0 -8 -7 -15 -15 -15 -11 0 -15 11 -15 40 0 29 4 40 15 40 8 0 15 -7 15 -15 0 -8 7 -15 15 -15 8 0 15 7 15 15 0 12 14 15 66 15 79 0 94 12 94 73 0 67 -32 97 -105 97 -52 0 -55 1 -55 25 0 16 -6 25 -15 25 -8 0 -15 -7 -15 -15 0 -8 -7 -15 -15 -15 -12 0 -15 13 -15 60 l0 60 -44 0 c-26 0 -46 -5 -49 -12 -4 -9 -6 -8 -6 3 -1 8 4 20 11 27 9 9 7 12 -9 12 -15 0 -22 -7 -25 -27z"></path><path id="piGhM5QxM" d="M2352 3478 l3 -273 152 -8 c135 -8 154 -7 177 9 25 16 27 21 24 83 l-3 66 -92 3 c-83 2 -93 5 -99 24 -9 29 10 38 87 38 77 0 79 2 79 90 0 56 -1 58 -31 64 -17 3 -49 6 -69 6 -67 0 -70 3 -70 91 0 116 -20 100 -22 -18 l-2 -98 -3 83 -4 82 -50 0 -49 0 2 -242 3 -243 90 -6 90 -5 -85 -2 c-47 -1 -91 2 -98 6 -10 7 -12 65 -10 265 2 202 0 257 -10 257 -10 0 -12 -58 -10 -272z"></path><path id="pehUKPyKI" d="M1160 3096 c-33 -12 -35 -15 -38 -67 -2 -30 -1 -69 3 -86 5 -30 9 -33 44 -33 21 0 55 7 76 16 44 18 74 12 55 -11 -6 -8 -22 -17 -33 -21 -41 -12 -128 -76 -138 -101 -14 -39 -11 -170 6 -203 8 -15 31 -39 52 -52 33 -20 50 -23 138 -23 55 0 112 3 127 8 26 7 27 9 27 88 0 94 -4 98 -88 81 -62 -13 -92 -1 -48 19 15 7 27 16 27 21 0 4 7 8 15 8 9 0 34 9 56 21 111 56 102 277 -14 332 -43 21 -213 22 -267 3z"></path><path id="pEVLhJRjh" d="M2150 3101 c0 -6 -28 -7 -69 -4 -56 5 -74 2 -100 -13 -41 -24 -91 -99 -91 -136 0 -15 -4 -28 -10 -28 -6 0 -10 -43 -10 -110 0 -67 4 -110 10 -110 6 0 10 -3 10 -8 0 -4 -24 -5 -52 -2 l-53 5 -3 188 c-2 157 -5 187 -17 187 -8 0 -15 -7 -15 -15 0 -16 -19 -19 -69 -9 -43 9 -39 24 7 25 23 1 28 3 15 6 -13 2 -23 9 -23 14 0 5 -18 9 -40 9 l-40 0 0 -205 0 -205 -50 0 c-58 0 -63 -9 -58 -105 l3 -60 198 -3 197 -2 0 61 0 62 23 -33 c12 -18 39 -47 60 -64 38 -31 40 -31 155 -31 83 0 116 3 120 13 2 6 10 12 17 12 26 0 72 50 96 102 20 46 24 69 24 168 0 99 -3 122 -23 165 -41 90 -103 135 -184 135 -16 0 -28 -4 -28 -9z m9 -180 c23 -23 36 -95 27 -155 -8 -49 -43 -90 -70 -80 -20 8 -46 55 -46 84 0 11 -4 20 -10 20 -13 0 -13 35 0 58 5 9 17 34 26 55 18 42 43 48 73 18z"></path><path id="p69A7PtW7" d="M2433 3103 l-23 -4 0 -285 0 -284 25 -6 c13 -3 84 -4 157 -2 118 3 137 6 171 26 l37 24 0 -26 0 -26 91 0 90 0 23 53 c13 28 26 61 30 71 9 25 15 17 46 -57 l26 -62 92 -3 92 -3 0 35 c0 19 -8 54 -19 78 -38 88 -74 163 -80 168 -23 19 -51 107 -51 163 0 34 -3 79 -6 100 -6 34 -9 37 -39 37 -19 0 -36 -6 -39 -12 -5 -10 -7 -10 -12 0 -9 18 -65 15 -80 -5 -8 -11 -13 -47 -14 -96 0 -72 -3 -84 -46 -170 -26 -50 -50 -103 -55 -117 -6 -20 -7 -16 -8 21 -1 73 -12 108 -41 139 l-28 29 39 67 c44 75 51 124 19 124 -11 0 -20 7 -20 15 0 12 -14 15 -63 15 -71 0 -75 -3 -120 -80 l-27 -45 0 52 c0 41 -4 54 -19 63 -19 10 -103 12 -148 3z"></path><path id="pYpQmDuXn" d="M382 2809 l3 -284 84 -3 c94 -3 101 1 101 61 0 26 -4 37 -15 37 -8 0 -15 -7 -15 -15 0 -8 -7 -15 -15 -15 -11 0 -15 12 -15 45 0 33 4 45 15 45 8 0 15 -7 15 -15 0 -8 7 -15 15 -15 11 0 15 12 15 45 0 42 2 45 28 45 71 0 72 -2 72 -116 l0 -104 89 0 c72 0 90 3 95 16 8 20 8 498 0 518 -3 9 -12 16 -20 16 -10 0 -13 -8 -8 -27 4 -18 2 -24 -3 -15 -6 7 -34 14 -66 15 -71 3 -78 24 -9 30 38 3 35 4 -13 3 l-60 -1 -5 -85 -5 -85 -47 -3 c-29 -2 -48 1 -48 7 0 6 -7 11 -15 11 -8 0 -15 -7 -15 -15 0 -8 -7 -15 -15 -15 -12 0 -15 15 -15 78 l0 79 -41 -1 c-27 -1 -44 4 -47 12 -3 11 9 13 57 10 34 -1 61 0 61 5 0 4 -12 7 -27 7 -16 0 -52 3 -81 6 l-52 7 2 -284z"></path><path id="pyiXcx0cS" d="M902 2808 l3 -283 90 0 90 0 3 38 c2 28 0 37 -12 37 -9 0 -16 -7 -16 -15 0 -8 -7 -15 -15 -15 -12 0 -15 14 -15 65 0 51 3 65 15 65 8 0 15 -7 15 -15 0 -8 7 -15 15 -15 11 0 15 11 15 40 0 29 -4 40 -15 40 -8 0 -15 -7 -15 -15 0 -8 -7 -15 -15 -15 -12 0 -15 16 -15 80 0 64 3 80 15 80 8 0 15 -7 15 -15 0 -8 7 -15 15 -15 10 0 15 11 15 35 0 24 -5 35 -15 35 -8 0 -15 -7 -15 -15 0 -8 -7 -15 -15 -15 -11 0 -15 18 -17 78 l-3 77 -46 0 c-34 0 -45 3 -42 12 3 8 26 13 62 14 l56 2 -50 7 c-27 5 -62 9 -78 9 l-27 1 2 -282z"></path><path id="pZsov23zZ" d="M1880 2142 c-53 -29 -76 -71 -131 -246 -28 -89 -70 -217 -94 -286 -24 -69 -70 -205 -102 -304 -48 -147 -62 -180 -80 -187 -13 -5 -23 -13 -23 -20 0 -42 -426 149 -614 275 -75 50 -115 58 -167 31 -36 -19 -49 -50 -49 -119 0 -66 22 -98 144 -214 126 -118 405 -297 549 -351 23 -9 27 -16 27 -47 0 -28 8 -44 34 -70 19 -19 43 -34 54 -34 12 0 37 -9 56 -21 52 -30 186 -25 233 9 l33 23 127 -21 c115 -20 152 -22 373 -17 295 7 432 30 491 86 40 37 33 207 -9 228 -9 4 -114 8 -232 8 -182 1 -232 5 -323 23 -93 20 -277 68 -284 76 -1 1 69 215 157 476 140 414 160 483 160 538 0 77 -16 110 -72 148 -38 26 -53 29 -133 32 -74 2 -96 0 -125 -16z m139 -165 c8 -11 6 -29 -10 -73 -11 -32 -33 -102 -49 -154 -32 -108 -125 -385 -139 -415 -6 -11 -28 -77 -51 -147 -41 -126 -42 -127 -66 -116 -13 6 -24 16 -24 22 0 14 68 222 85 261 7 17 37 104 65 195 28 91 55 174 60 185 5 11 21 61 36 110 41 139 62 168 93 132z m-379 -1083 c25 -9 46 -18 48 -20 2 -1 -2 -20 -9 -42 -11 -37 -14 -40 -36 -31 -13 5 -33 9 -44 9 -23 0 -59 29 -53 44 19 55 26 67 37 63 6 -3 32 -13 57 -23z"></path></g></g><g id="l1o7PjUKB3DrFVWaxrJdgJf" fill="rgb(91,66,39)" style="transform: none;"><g><path id="pQAVnHHXK" d="M203 1568 l2 -683 24 -60 c143 -357 642 -587 1401 -646 256 -19 593 14 892 90 406 102 660 244 788 442 82 128 80 103 80 865 l0 674 -1594 0 -1595 0 2 -682z m1905 527 c49 -33 72 -69 72 -117 0 -18 -74 -254 -165 -524 -91 -270 -163 -498 -160 -507 7 -17 110 -49 274 -85 102 -22 142 -25 336 -27 121 -1 228 -5 237 -9 10 -5 22 -29 29 -60 20 -91 -12 -126 -143 -160 -171 -44 -541 -47 -745 -6 l-112 22 -36 -28 c-50 -38 -130 -45 -180 -15 -20 11 -45 21 -57 21 -11 0 -35 15 -54 34 -26 26 -34 42 -34 70 0 31 -4 38 -27 47 -215 80 -611 368 -678 492 -26 49 -14 102 28 127 18 11 35 20 38 20 4 0 37 -21 75 -46 153 -103 461 -248 604 -285 49 -12 53 -12 68 7 10 12 24 23 32 26 9 4 38 75 73 184 32 99 78 235 102 304 24 69 66 197 94 286 55 175 78 217 131 246 52 29 141 21 198 -17z"></path></g></g><g id="l6db0alo8R2wmq1RWfZw37C" fill="rgb(154,75,29)" style="transform: none;"><g><path id="p1FP43M1Ej" d="M1967 2023 c-23 -6 -38 -38 -71 -148 -15 -49 -31 -99 -36 -110 -5 -11 -32 -94 -60 -185 -28 -91 -58 -178 -65 -195 -8 -16 -32 -88 -55 -160 -22 -72 -45 -137 -50 -146 -7 -14 1 -21 50 -39 32 -12 63 -19 68 -16 6 3 29 63 52 134 23 70 47 141 55 157 7 17 18 48 25 70 7 22 31 96 55 165 23 69 64 194 91 278 47 151 48 153 28 171 -21 20 -59 31 -87 24z"></path></g></g><g id="l3sZki36h6y0BRnfdEnOin4" fill="rgb(123,119,91)" style="transform: none;"><g></g></g><g id="l6b94Hd7yoxPXCH6EJ00Cwi" fill="rgb(171,163,127)" style="transform: none;"><g></g></g><g id="l2Aulw55j8nXKghSp7ZtLXE" fill="rgb(217,199,151)" style="transform: none;"><g><path id="pduzWhXG3" d="M1591 4509 c-224 -21 -504 -122 -714 -256 -286 -182 -506 -444 -599 -713 -59 -172 -61 -190 -65 -692 l-4 -468 1590 0 1591 0 0 380 c0 537 -18 666 -125 888 -164 341 -483 625 -859 763 -108 40 -299 86 -411 99 -103 11 -281 11 -404 -1z m190 -781 c82 -45 84 -51 84 -291 l0 -212 -39 -3 c-22 -2 -50 -1 -63 2 l-23 6 0 186 c0 183 0 185 -25 209 -31 32 -84 34 -111 4 -17 -19 -20 -42 -24 -213 l-5 -191 -48 -3 c-77 -5 -77 -4 -77 192 0 94 5 189 11 211 11 41 48 88 84 108 62 33 172 32 236 -5z m-492 -3 c46 -27 71 -64 78 -113 7 -52 -10 -95 -50 -126 -28 -23 -29 -25 -14 -41 28 -27 38 -54 39 -97 1 -90 -73 -130 -239 -126 -56 2 -104 6 -107 9 -9 9 -18 426 -11 470 8 46 14 48 160 46 90 -2 116 -6 144 -22z m811 -75 l0 -100 80 0 80 0 0 -44 c0 -58 -14 -68 -92 -65 l-63 3 -3 -57 -3 -57 89 0 c55 0 92 -4 100 -12 15 -15 16 -53 2 -79 -10 -17 -23 -19 -155 -19 -79 0 -146 4 -149 8 -8 13 -10 498 -2 510 4 7 31 12 62 12 l54 0 0 -100z m392 3 l3 -98 75 -5 c69 -5 75 -7 78 -29 2 -12 1 -34 -2 -47 -6 -21 -12 -23 -79 -26 l-72 -3 -3 -57 -3 -57 93 -3 93 -3 3 -32 c2 -18 -2 -41 -8 -53 -10 -19 -20 -20 -140 -20 -70 0 -135 3 -144 6 -14 5 -16 38 -16 258 0 139 3 256 7 259 3 4 30 7 59 7 l53 0 3 -97z m-1079 -598 c43 -28 70 -80 71 -139 1 -71 -24 -101 -121 -151 -71 -36 -78 -43 -81 -72 -3 -28 1 -33 23 -39 23 -6 78 -2 127 8 9 2 14 -12 16 -49 3 -50 2 -53 -25 -60 -15 -4 -59 -8 -98 -8 -123 0 -181 56 -173 167 5 70 33 105 112 138 28 12 59 29 69 38 20 17 22 53 5 70 -17 17 -80 15 -128 -4 -23 -9 -44 -14 -47 -10 -11 11 -15 103 -5 110 55 34 204 35 255 1z m797 15 c46 -12 93 -61 122 -125 17 -39 22 -68 22 -135 0 -171 -82 -269 -226 -270 -69 0 -95 9 -142 51 -57 49 -79 101 -84 196 -10 178 76 293 218 293 30 0 71 -5 90 -10z m341 -1 c18 -9 20 -19 17 -90 -4 -103 12 -105 71 -6 60 98 69 107 105 107 39 0 76 -10 76 -20 0 -4 -23 -46 -50 -94 l-51 -88 40 -38 c31 -30 41 -49 47 -85 13 -90 -35 -173 -114 -195 -40 -11 -210 -14 -236 -4 -14 5 -16 38 -16 259 l0 254 23 3 c53 8 70 7 88 -3z m-2013 -102 l3 -98 77 3 77 3 3 98 3 97 58 0 c44 0 60 -4 65 -16 8 -20 8 -468 0 -488 -5 -12 -21 -16 -65 -16 l-59 0 0 105 0 105 -80 0 -79 0 -3 -102 -3 -103 -60 0 -60 0 -3 245 c-1 134 0 251 3 258 3 9 22 12 62 10 l58 -3 3 -98z m520 -154 l-3 -258 -60 0 -60 0 -3 245 c-1 134 0 250 3 257 3 9 25 13 65 13 l60 0 -2 -257z m694 55 l3 -203 50 -5 50 -5 3 -53 3 -52 -168 2 -168 3 -3 29 c-2 15 -1 39 2 52 6 21 12 24 56 24 l50 0 0 205 0 205 60 0 60 0 2 -202z m1352 186 c3 -9 6 -54 6 -101 0 -79 3 -91 34 -147 31 -55 116 -240 116 -251 0 -3 -27 -5 -61 -5 l-60 0 -25 58 c-58 133 -68 151 -74 147 -4 -3 -18 -33 -30 -67 -13 -35 -32 -80 -42 -100 -18 -38 -19 -38 -78 -38 -33 0 -60 2 -60 5 0 6 40 95 101 223 48 100 49 104 49 197 l0 95 59 0 c44 0 60 -4 65 -16z"></path><path id="p1GB1dvo5z" d="M1110 3591 l0 -71 45 0 c59 0 90 28 81 73 -9 44 -24 56 -79 63 l-47 7 0 -72z"></path><path id="p18bB2xs9C" d="M1110 3375 c0 -49 2 -55 24 -61 38 -9 80 16 84 49 5 41 -22 67 -70 67 l-38 0 0 -55z"></path><path id="ps2IshVZb" d="M2078 2960 c-35 -27 -52 -96 -45 -175 7 -78 27 -118 65 -134 33 -14 67 -4 96 28 24 27 34 164 17 228 -18 67 -83 93 -133 53z"></path><path id="p72zy9d38" d="M2560 2725 l0 -75 40 0 c50 0 80 27 80 73 0 53 -24 77 -76 77 l-44 0 0 -75z"></path><path id="pXunMQRPn" d="M1000 1087 c0 -23 339 -227 378 -227 13 0 36 66 27 80 -3 5 -13 10 -21 10 -22 0 -244 85 -313 119 -69 35 -71 36 -71 18z"></path><path id="p2qpOoWxN" d="M1545 960 c-10 -16 -45 -122 -45 -136 0 -12 126 -62 169 -67 20 -2 26 5 41 48 33 97 33 92 3 103 -15 6 -58 22 -95 36 -39 15 -70 22 -73 16z"></path><path id="pGTlznDtp" d="M1826 793 c-3 -16 -8 -38 -12 -50 -5 -19 -1 -23 33 -32 118 -30 394 -40 571 -20 135 16 139 29 8 29 -136 0 -357 32 -487 71 -54 16 -100 29 -102 29 -3 0 -7 -12 -11 -27z"></path></g></g><g id="l5S6gStESMugbHBANdFPWUp" fill="rgb(237,226,177)" style="transform: none;"><g></g></g></svg>