<svg xmlns="http://www.w3.org/2000/svg" width="359" height="468" viewBox="0 0 3590 4680"><g id="l7ZWwwQ5HAkQeEmvV6ui7qA" fill="rgb(28,29,18)" style="transform: none;"><g style="transform: none;"><path id="p11Rr0YNCN" d="M1617 4620 c-451 -41 -783 -177 -1054 -433 -194 -184 -317 -407 -380 -688 -15 -65 -17 -183 -20 -989 -5 -974 -1 -1084 41 -1270 148 -655 649 -1006 1498 -1049 616 -32 1117 119 1424 429 169 171 278 386 334 658 36 179 42 372 37 1257 -4 912 -4 920 -62 1120 -107 369 -431 689 -855 843 -275 101 -660 149 -963 122z"></path></g></g><g id="l6PvIK2kFBwWU097EhUJ771" fill="rgb(54,61,50)" style="transform: none;"><g style="transform: none;"><path id="pwcCo7sc5" d="M1515 4464 c-209 -27 -432 -94 -585 -176 -272 -144 -488 -397 -575 -669 -50 -158 -58 -234 -59 -534 l-1 -280 1530 0 1530 0 3 225 c3 254 -9 412 -43 547 -40 159 -119 312 -213 414 -30 32 -51 63 -47 69 4 6 1 9 -6 8 -7 -2 -13 2 -14 9 0 6 -4 15 -9 20 -5 5 -6 3 -2 -4 10 -19 -9 -16 -25 3 -7 9 -40 37 -74 62 -74 56 -86 67 -62 59 11 -4 16 -3 12 4 -4 6 -13 8 -21 5 -8 -3 -41 11 -75 30 -152 90 -344 156 -559 194 -163 29 -537 37 -705 14z m-93 -270 c44 -22 69 -45 62 -56 -3 -4 0 -7 8 -6 7 2 24 -19 38 -47 32 -65 40 -187 16 -269 -31 -106 -113 -166 -229 -166 -85 0 -137 19 -187 69 -56 56 -75 114 -75 221 1 142 60 233 175 271 38 13 154 3 192 -17z m463 -119 c18 -71 36 -150 41 -175 9 -44 10 -42 49 130 l40 175 73 3 c39 2 72 1 72 -1 0 -2 13 -64 29 -138 46 -208 81 -380 81 -395 0 -10 -16 -14 -60 -14 -54 0 -60 2 -64 23 -13 67 -46 259 -52 305 -8 64 -17 58 -33 -23 -14 -69 -48 -212 -62 -267 -10 -37 -11 -38 -58 -38 -27 0 -53 6 -59 13 -5 6 -27 92 -48 190 -20 97 -41 177 -45 177 -5 0 -6 -6 -3 -13 2 -7 -7 -81 -21 -163 -39 -229 -27 -204 -95 -204 -32 0 -61 3 -63 8 -3 4 12 81 33 172 21 91 48 211 61 268 l22 103 66 -3 65 -3 31 -130z m776 131 c2 -2 2 -27 1 -55 l-4 -50 -91 -3 -92 -3 -3 -217 -2 -218 -65 0 -65 0 0 275 0 275 158 0 c87 0 161 -2 163 -4z m-804 -691 c34 -10 61 -27 82 -50 31 -35 31 -37 31 -145 l0 -110 -115 0 -115 0 0 51 0 50 67 -2 c51 -2 68 1 71 12 3 11 1 11 -7 -1 -8 -12 -11 -5 -11 28 0 40 -3 44 -35 58 -47 19 -84 18 -123 -6 -79 -49 -92 -234 -20 -295 39 -33 111 -34 170 -4 l42 21 33 -36 c18 -19 33 -39 33 -43 0 -13 -82 -60 -125 -72 -201 -55 -349 81 -332 306 7 89 43 171 89 204 66 48 173 61 265 34z m-1005 -151 l3 -157 62 104 c34 57 77 127 95 154 l33 50 65 0 65 0 2 -270 c2 -201 -1 -271 -10 -277 -19 -12 -95 -9 -103 3 -4 6 -6 81 -5 165 1 85 0 154 -3 154 -3 0 -15 -18 -26 -40 -12 -23 -25 -38 -30 -35 -5 3 -8 0 -5 -7 3 -7 -28 -62 -68 -123 l-73 -110 -54 -7 c-34 -4 -60 -2 -67 4 -10 8 -13 76 -13 279 l0 269 65 0 64 0 3 -156z m556 -121 l-3 -278 -53 -3 c-37 -2 -54 1 -57 11 -3 7 -7 133 -8 280 l-2 267 63 0 62 0 -2 -277z m792 162 l0 -115 91 0 90 0 -2 113 -2 112 62 3 61 3 0 -276 0 -275 -30 -1 c-16 -1 -42 -1 -57 -2 l-28 -1 -5 109 -5 110 -85 0 -85 0 -3 -107 -3 -108 -64 0 -65 0 0 275 0 275 65 0 65 0 0 -115z m630 -105 l0 -220 65 0 66 0 -3 -57 -3 -58 -47 1 c-27 1 -111 2 -189 3 l-140 1 3 53 3 52 60 5 60 5 3 218 2 217 60 0 60 0 0 -220z"></path><path id="p1550ogkYw" d="M1258 4094 c-34 -18 -56 -58 -69 -129 -25 -135 61 -234 165 -191 92 38 105 231 20 305 -38 34 -73 39 -116 15z"></path><path id="puLBZFnEb" d="M1412 2688 c6 -15 -16 -16 -275 -16 -192 0 -287 4 -296 12 -11 8 -13 8 -8 0 8 -14 -519 -17 -545 -3 -13 7 -16 6 -12 -5 3 -7 26 -21 52 -31 26 -9 56 -20 67 -25 11 -4 49 -16 85 -25 36 -9 79 -20 95 -25 63 -18 143 -31 216 -34 42 -2 82 -6 88 -10 6 -4 11 -4 11 1 0 4 17 9 37 9 21 1 39 7 41 13 2 7 8 6 17 -3 11 -10 41 -12 135 -9 97 4 131 1 173 -13 29 -10 61 -19 71 -21 11 -2 26 -9 35 -16 10 -8 13 -8 8 0 -11 18 15 21 50 7 17 -8 52 -15 76 -16 25 -2 43 -6 40 -10 -2 -5 3 -8 12 -8 10 0 13 -5 9 -12 -6 -10 -4 -10 8 0 12 9 23 10 43 2 25 -9 26 -9 15 5 -7 8 -10 19 -6 22 4 4 11 2 15 -5 4 -8 20 -20 35 -27 15 -8 24 -10 21 -5 -10 16 48 4 90 -19 22 -11 49 -21 60 -21 11 0 58 -14 105 -31 47 -17 90 -31 97 -32 7 0 14 -6 17 -14 3 -7 16 -13 30 -13 14 0 28 -5 31 -10 6 -10 77 -8 105 4 56 22 275 89 329 100 79 17 304 20 331 6 24 -13 34 -44 21 -68 -9 -17 -23 -19 -115 -20 -115 -1 -167 -13 -271 -61 -36 -17 -69 -31 -73 -31 -4 0 -19 -6 -33 -14 -14 -7 -39 -16 -55 -20 -29 -8 -74 -42 -74 -58 0 -4 9 -8 19 -8 10 0 21 -7 25 -15 3 -8 1 -15 -4 -15 -6 0 -10 -5 -10 -11 0 -8 5 -8 15 1 12 10 20 9 42 -6 16 -10 32 -17 37 -16 4 2 13 -1 20 -6 13 -11 134 -21 272 -23 177 -2 313 -33 333 -75 15 -33 -16 -71 -45 -56 -13 7 -25 7 -38 0 -9 -5 -20 -7 -23 -4 -4 3 0 6 8 7 8 1 -13 7 -46 14 -33 7 -129 14 -214 15 l-154 1 54 -37 c30 -20 68 -49 86 -63 17 -14 52 -41 78 -59 25 -18 43 -37 40 -43 -4 -5 -1 -8 7 -7 7 2 14 -7 16 -19 3 -17 -3 -26 -23 -33 -22 -8 -37 -4 -98 30 -84 46 -174 107 -169 116 2 3 0 9 -4 12 -4 4 -4 1 0 -5 10 -19 0 -16 -42 10 -20 13 -44 27 -52 30 -8 4 -33 20 -56 35 -130 86 -139 91 -147 79 -6 -8 -7 -6 -3 5 3 12 -16 32 -75 75 -44 32 -99 68 -122 81 -23 13 -58 34 -79 47 -20 13 -56 26 -80 29 -23 3 -74 10 -113 15 -88 11 -101 7 -80 -25 8 -13 13 -24 11 -24 -2 0 4 -10 15 -22 65 -77 119 -152 119 -166 0 -30 54 -109 70 -105 12 4 12 2 2 -5 -11 -7 -9 -20 7 -68 25 -73 39 -158 35 -204 -9 -109 -7 -187 8 -215 27 -53 48 -140 50 -212 2 -62 -2 -79 -30 -136 -18 -35 -32 -70 -32 -77 0 -8 -8 -10 -26 -6 -22 6 -25 4 -19 -14 4 -12 2 -20 -5 -20 -6 0 -1 -10 10 -22 12 -13 19 -31 16 -40 -2 -10 0 -16 4 -13 4 3 18 -11 29 -31 16 -27 21 -50 19 -85 -2 -27 -6 -49 -10 -49 -3 0 -4 -9 -1 -20 4 -17 0 -20 -25 -20 -17 0 -32 3 -34 8 -6 15 -104 56 -151 63 -27 5 -59 4 -71 -1 -13 -4 -36 -11 -52 -14 -16 -3 -45 -9 -65 -14 -62 -16 -227 -6 -299 17 -74 23 -115 27 -104 9 4 -6 3 -8 -2 -5 -11 6 -127 -47 -120 -54 3 -3 -3 -5 -12 -5 -9 -1 -24 -4 -33 -8 -10 -5 -27 2 -46 18 -26 22 -30 31 -26 63 6 58 23 113 34 113 6 0 7 5 4 10 -4 6 -1 18 6 26 7 9 14 25 16 35 4 27 -34 109 -49 106 -22 -4 -42 120 -30 193 8 53 7 67 -5 76 -8 7 -10 13 -4 15 6 2 -6 24 -26 49 -19 25 -49 73 -65 108 -17 34 -34 60 -38 57 -5 -3 -12 0 -16 6 -4 8 -3 9 4 5 17 -10 15 5 -5 44 -9 18 -16 45 -17 61 -1 15 -4 25 -7 23 -4 -2 -12 24 -18 59 -7 34 -16 76 -21 92 -12 38 -17 80 -30 235 -6 69 -12 148 -15 175 -2 28 -4 55 -5 61 0 7 -11 15 -25 18 -14 4 -25 11 -25 16 0 5 -6 7 -14 4 -7 -3 -51 7 -97 22 -46 14 -88 27 -94 28 -5 0 -13 5 -16 10 -10 12 -66 -3 -73 -20 -7 -19 1 -896 8 -942 8 -46 13 -68 30 -147 9 -38 19 -81 22 -94 2 -13 14 -41 25 -63 11 -22 18 -49 16 -59 -3 -11 -1 -17 3 -14 4 3 22 -24 38 -60 17 -35 35 -70 41 -77 16 -19 81 -119 81 -125 0 -2 -5 -1 -12 3 -7 5 -8 3 -4 -5 5 -7 10 -10 13 -7 7 6 169 -144 166 -154 -1 -4 4 -7 10 -7 7 0 32 -12 56 -27 75 -47 146 -86 194 -105 15 -6 25 -16 22 -21 -3 -5 0 -7 9 -4 8 3 72 -13 143 -36 74 -24 179 -49 253 -60 69 -10 143 -21 165 -25 105 -17 419 -12 592 9 85 10 299 58 383 86 182 60 388 191 495 313 64 74 140 181 165 232 12 25 25 43 28 41 4 -2 8 7 8 20 1 13 5 32 10 42 4 9 8 19 9 22 8 32 18 49 25 45 4 -3 6 4 3 14 -3 11 0 35 6 54 13 38 15 48 37 162 19 96 30 592 15 637 -6 17 -6 26 -1 23 11 -7 8 620 -2 631 -11 10 -557 10 -551 0 4 -5 1 -6 -5 -3 -8 6 -107 8 -287 7 -11 0 -255 0 -543 1 -469 1 -525 3 -539 18 -16 15 -16 15 -11 -1z m1101 -1111 c4 2 7 -1 7 -6 0 -6 6 -11 14 -11 8 0 33 -11 57 -24 24 -14 48 -22 53 -19 6 4 8 3 4 -1 -4 -4 10 -22 29 -39 74 -65 119 -159 124 -262 1 -22 6 -48 11 -57 5 -11 5 -18 0 -18 -5 0 -12 -24 -14 -52 -2 -29 -15 -75 -28 -103 -13 -27 -24 -56 -23 -62 0 -7 -3 -11 -7 -8 -4 2 -21 -11 -39 -29 -20 -20 -28 -36 -22 -39 8 -4 7 -5 -1 -3 -6 1 -36 -12 -65 -30 -49 -29 -98 -42 -216 -58 -22 -3 -35 -1 -32 5 4 5 21 9 40 9 147 0 284 83 353 214 25 48 27 59 27 181 0 120 -2 134 -26 185 -34 72 -108 143 -188 183 -109 53 -277 49 -369 -11 -28 -18 -23 -22 48 -47 127 -43 199 -110 252 -234 29 -67 33 -87 33 -166 0 -85 -2 -93 -37 -155 -38 -67 -71 -104 -123 -136 -22 -13 -19 -8 13 20 23 21 39 42 36 48 -4 6 -2 8 4 4 13 -8 45 36 79 110 22 49 25 65 20 128 -5 69 -32 156 -48 156 -5 0 -15 -12 -23 -27 -8 -16 -15 -23 -16 -17 0 6 9 23 20 37 21 26 26 42 11 33 -5 -3 -8 2 -7 12 0 9 -4 16 -11 15 -7 -2 -10 3 -7 11 7 20 -69 92 -126 120 -25 12 -71 31 -102 41 -56 18 -57 20 -40 38 42 48 182 80 282 66 25 -4 48 -5 53 -2z"></path><path id="pCG9NfxC9" d="M1536 2389 c-4 -24 -10 -59 -13 -76 -6 -39 5 -42 35 -10 27 29 29 77 4 108 l-19 22 -7 -44z"></path><path id="pMBrQMc7G" d="M1645 2373 c-3 -21 -9 -56 -14 -78 -5 -22 -8 -42 -6 -44 7 -6 55 53 61 76 7 26 -7 75 -24 81 -6 2 -13 -13 -17 -35z"></path><path id="pOPEGbB0F" d="M770 2275 c0 -2 25 -23 56 -46 71 -52 115 -99 107 -112 -3 -5 -1 -7 4 -4 23 14 186 -224 244 -356 24 -55 35 -71 37 -56 6 35 -18 107 -66 203 -65 133 -128 208 -224 270 -15 10 -26 21 -23 25 2 4 -1 8 -8 8 -7 0 -35 16 -63 36 -49 35 -64 43 -64 32z"></path><path id="pufYW6sTd" d="M1153 1280 c-57 -25 -83 -69 -83 -140 0 -67 32 -129 72 -142 18 -6 48 -5 84 2 162 34 208 218 70 281 -52 24 -90 23 -143 -1z m102 -70 c55 -21 48 -111 -10 -126 -86 -21 -142 80 -66 121 31 17 42 18 76 5z"></path><path id="p1NX75XgY" d="M1620 1289 c-54 -22 -100 -85 -100 -134 0 -58 60 -126 128 -145 96 -26 165 -5 192 60 25 59 -8 163 -63 202 -34 25 -118 34 -157 17z m120 -89 c30 -30 27 -85 -5 -106 -38 -25 -75 -21 -102 10 -30 35 -29 61 2 91 30 31 77 33 105 5z"></path></g></g><g id="l7GIa63kuSaILBQzAVFFdPy" fill="rgb(94,93,71)" style="transform: none;"><g style="transform: none;"><path id="p18kR8QwuL" d="M1530 4465 c-197 -25 -400 -81 -559 -155 -293 -137 -540 -424 -625 -725 -44 -156 -50 -215 -50 -505 l-1 -275 1530 0 1530 0 3 225 c5 362 -23 548 -111 733 -59 125 -102 187 -198 283 -288 292 -703 436 -1239 433 -96 -1 -222 -7 -280 -14z m-134 -260 c54 -16 109 -65 140 -125 26 -51 31 -191 10 -264 -21 -71 -83 -139 -141 -155 -52 -14 -138 -14 -186 1 -54 16 -112 68 -140 125 -30 64 -33 205 -6 273 55 135 175 189 323 145z m490 -130 c17 -71 35 -148 39 -170 9 -49 10 -48 54 145 l36 155 73 3 c39 2 72 1 72 -1 0 -2 13 -64 29 -138 46 -208 81 -380 81 -395 0 -10 -16 -14 -60 -14 -33 0 -60 1 -61 3 0 1 -15 88 -33 192 -18 105 -36 183 -39 175 -3 -8 -19 -78 -36 -155 -51 -231 -44 -215 -100 -215 -27 0 -53 6 -59 13 -5 6 -19 57 -31 112 -40 183 -53 236 -57 233 -2 -2 -15 -71 -29 -153 -39 -230 -27 -205 -95 -205 -32 0 -61 3 -63 8 -3 4 12 81 33 172 21 91 48 211 61 268 l22 103 66 -3 65 -3 32 -130z m775 131 c2 -2 2 -27 1 -55 l-4 -50 -91 -3 -92 -3 -3 -217 -2 -218 -65 0 -65 0 0 275 0 275 158 0 c87 0 161 -2 163 -4z m-798 -692 c27 -9 59 -30 77 -50 29 -34 30 -37 30 -144 l0 -110 -116 0 -115 0 3 52 3 52 58 -3 57 -2 0 41 c0 37 -3 42 -35 56 -47 19 -84 18 -123 -6 -43 -27 -65 -79 -65 -160 0 -71 18 -118 55 -144 31 -22 104 -20 157 5 l44 20 34 -33 c18 -17 33 -37 33 -42 0 -17 -64 -56 -116 -72 -106 -32 -198 -13 -265 55 -58 57 -74 106 -74 226 0 78 4 98 28 147 16 32 42 67 59 79 67 48 185 62 271 33z m-1011 -151 l3 -157 52 89 c29 50 72 119 95 155 l43 65 65 0 65 0 0 -275 0 -275 -49 -3 c-27 -2 -54 2 -60 8 -7 7 -10 61 -7 167 2 111 0 154 -8 149 -6 -4 -11 -11 -11 -17 0 -11 -139 -229 -172 -270 -20 -24 -31 -28 -83 -31 l-60 -3 -3 278 -2 277 65 0 64 0 3 -157z m556 -120 l-3 -278 -49 -3 c-27 -2 -54 2 -60 8 -7 7 -10 101 -11 280 l0 270 63 0 62 0 -2 -277z m792 162 l0 -115 91 0 90 0 -2 113 -2 112 62 3 61 3 -2 -277 -3 -277 -55 -1 -55 -1 -3 107 c-3 124 2 119 -112 115 l-65 -2 -3 -107 -3 -106 -54 -4 c-31 -1 -60 -1 -65 0 -6 2 -10 106 -10 278 l0 274 65 0 65 0 0 -115z m632 -102 l3 -218 63 -3 63 -3 -3 -57 -3 -57 -80 2 c-44 0 -129 2 -188 2 l-108 1 3 53 3 52 60 5 60 5 3 218 2 217 60 0 60 0 2 -217z"></path><path id="pSDlnBZQI" d="M1254 4091 c-40 -24 -66 -89 -67 -166 -1 -122 77 -192 167 -150 92 44 105 230 20 304 -40 36 -75 39 -120 12z"></path><path id="pDsjXZSt9" d="M1159 2468 c0 -2 -3 -36 -5 -75 -5 -64 -3 -72 11 -67 18 7 45 55 45 81 0 22 -27 63 -41 63 -5 0 -9 -1 -10 -2z"></path><path id="pLR1ouuUY" d="M1266 2419 c-3 -17 -6 -47 -6 -67 l0 -35 25 23 c26 25 32 59 15 91 -15 28 -27 24 -34 -12z"></path><path id="pqZbOmfLH" d="M1536 2388 c-4 -24 -10 -58 -13 -75 -6 -39 5 -42 37 -8 18 20 22 31 17 61 -4 21 -13 44 -20 52 -12 11 -15 7 -21 -30z"></path><path id="ppcwLNtuD" d="M1645 2373 c-3 -21 -9 -55 -14 -75 -10 -46 -1 -48 34 -6 22 26 25 37 20 67 -12 64 -31 71 -40 14z"></path><path id="pXxfWYyDh" d="M770 2276 c0 -2 28 -24 63 -49 34 -25 75 -59 91 -76 16 -16 34 -28 39 -24 6 3 7 1 3 -6 -4 -6 5 -28 22 -49 81 -104 162 -241 220 -372 l11 -25 0 31 c2 54 -57 195 -124 300 -32 50 -130 154 -146 154 -3 0 -41 27 -85 60 -72 54 -94 68 -94 56z"></path><path id="peJ4ubWkB" d="M2256 1546 c-67 -28 -87 -43 -65 -50 79 -24 147 -55 185 -83 25 -19 43 -37 40 -40 -3 -3 -14 0 -23 8 -16 13 -17 12 -4 -4 7 -9 21 -16 29 -15 20 4 61 -58 93 -137 19 -48 24 -78 24 -150 0 -79 -4 -97 -28 -143 -48 -91 -128 -166 -167 -155 -13 4 -13 3 0 -5 22 -15 190 13 242 39 24 12 51 28 60 36 9 8 22 12 30 7 7 -4 10 -4 6 1 -4 4 8 28 28 51 67 82 79 124 79 264 0 158 -17 202 -111 289 -81 76 -147 103 -269 108 -79 3 -98 1 -149 -21z"></path><path id="pByX0xhgG" d="M1434 1376 c-3 -8 -4 -31 -2 -52 3 -34 6 -39 31 -42 26 -3 27 -1 27 40 0 44 -13 68 -37 68 -8 0 -16 -6 -19 -14z"></path><path id="prXXXdvNt" d="M1153 1280 c-57 -25 -83 -69 -83 -140 0 -67 32 -129 72 -142 45 -15 129 8 176 48 89 76 78 189 -22 235 -52 24 -90 23 -143 -1z m102 -70 c36 -14 49 -53 30 -90 -39 -75 -164 -32 -138 47 9 26 44 53 70 53 6 0 23 -4 38 -10z"></path><path id="pnLqh7PPb" d="M1624 1289 c-37 -10 -91 -67 -100 -105 -17 -65 45 -152 123 -173 55 -16 125 -13 151 5 55 38 65 110 28 191 -37 79 -110 109 -202 82z m116 -89 c12 -12 20 -33 20 -55 0 -29 -6 -39 -32 -55 -38 -23 -64 -19 -95 16 -30 32 -29 59 2 89 30 31 77 33 105 5z"></path></g></g><g id="lkdM33umYZNyvO6mxvkoeV" fill="rgb(171,146,84)" style="transform: none;"><g style="transform: none;"><path id="py5ayrJNk" d="M1570 4469 c-291 -32 -570 -124 -748 -246 -276 -189 -448 -453 -508 -781 -20 -109 -32 -606 -14 -626 8 -11 285 -13 1533 -12 l1522 1 3 205 c5 361 -26 575 -112 756 -55 116 -91 168 -180 262 -217 229 -506 368 -886 427 -125 20 -487 28 -610 14z m-165 -265 c62 -22 119 -80 141 -146 23 -71 16 -227 -13 -283 -46 -88 -113 -125 -225 -125 -89 0 -138 21 -189 77 -50 55 -64 102 -64 208 0 76 5 99 27 146 27 59 75 106 130 126 48 17 137 15 193 -3z m492 -167 l38 -169 40 169 41 168 72 3 c67 3 72 2 77 -20 22 -92 105 -495 105 -510 0 -17 -7 -19 -62 -16 l-63 3 -29 183 c-17 100 -34 182 -38 182 -4 0 -8 -10 -8 -22 -1 -13 -18 -95 -38 -183 l-37 -160 -57 -3 -57 -3 -10 38 c-5 21 -25 103 -42 182 -18 79 -34 140 -36 135 -1 -5 -14 -76 -28 -159 -36 -217 -26 -195 -95 -195 -32 0 -61 4 -65 10 -3 5 3 44 14 87 11 43 36 152 56 242 19 90 38 174 41 187 5 21 12 23 67 26 34 2 65 1 69 -2 4 -3 24 -81 45 -173z m771 116 c3 -49 1 -53 -20 -54 -13 0 -57 -1 -98 -2 l-75 -2 -5 -220 -5 -219 -60 -1 -60 0 -3 278 -2 277 162 -2 163 -3 3 -52z m-1831 -631 c9 -6 13 -54 15 -161 l3 -153 42 74 c23 40 66 109 95 153 l53 80 65 0 65 0 0 -275 0 -275 -60 0 -60 0 0 158 c0 86 -3 157 -7 157 -5 0 -8 -5 -8 -12 0 -13 -154 -253 -183 -286 -18 -19 -30 -22 -77 -20 l-55 3 -3 270 c-1 148 0 275 3 282 5 14 92 18 112 5z m570 -6 c8 -7 3 -540 -5 -548 -5 -5 -33 -8 -63 -6 l-54 3 -3 270 c-1 148 0 275 2 281 3 7 25 9 63 6 32 -2 59 -5 60 -6z m448 3 c22 -6 56 -28 77 -49 l38 -38 0 -111 0 -111 -116 0 -115 0 3 53 3 52 55 0 55 0 0 40 c0 39 -2 41 -44 54 -103 33 -171 -36 -171 -172 0 -41 6 -79 15 -97 31 -60 113 -76 194 -40 24 11 45 20 47 20 8 0 64 -66 64 -75 0 -16 -79 -64 -125 -76 -22 -6 -69 -9 -106 -7 -94 5 -153 43 -194 123 -27 54 -30 67 -30 159 0 88 3 108 26 157 41 86 113 128 224 129 33 0 78 -5 100 -11z m343 -112 l3 -117 84 0 c74 0 85 2 86 18 1 9 2 60 3 112 l1 95 45 7 c86 12 81 32 78 -280 l-3 -277 -60 0 -60 0 0 105 0 105 -87 3 -87 3 -3 -108 -3 -108 -60 0 -60 0 -3 277 -2 277 22 3 c13 2 41 4 63 3 l40 -1 3 -117z m629 109 c3 -3 6 -101 7 -218 l1 -213 63 -3 63 -3 -3 -57 -3 -57 -185 0 -185 0 0 55 0 55 58 3 57 3 0 87 c1 48 1 146 1 219 0 128 1 132 22 135 31 5 97 1 104 -6z"></path><path id="pjV51Y4Ap" d="M1270 4097 c-92 -32 -112 -256 -28 -311 54 -36 126 -19 162 37 21 32 31 133 17 182 -12 46 -54 91 -91 99 -14 3 -41 0 -60 -7z"></path><path id="p12zsCLPbG" d="M1165 2460 c-4 -6 -8 -40 -11 -75 -3 -52 -1 -63 10 -59 22 8 45 66 39 96 -6 33 -28 54 -38 38z"></path><path id="pKck4S237" d="M1265 2395 c-9 -66 -2 -77 27 -47 19 18 20 26 12 58 -14 58 -31 53 -39 -11z"></path><path id="peOdtcpKX" d="M1532 2359 c-7 -39 -10 -74 -7 -77 3 -3 17 6 32 20 21 22 25 32 19 60 -3 19 -12 42 -19 52 -11 15 -14 7 -25 -55z"></path><path id="pIO51vNND" d="M1645 2368 c-3 -24 -9 -59 -12 -78 l-6 -35 26 24 c35 32 41 54 27 96 -15 47 -27 44 -35 -7z"></path><path id="p4btjl6sz" d="M825 2239 c71 -52 169 -165 244 -278 45 -68 81 -119 81 -115 0 4 -14 29 -31 55 -17 27 -27 53 -23 60 4 7 22 -19 44 -62 42 -83 57 -125 42 -116 -5 4 0 -18 12 -47 12 -30 22 -53 23 -52 5 5 -11 85 -17 81 -3 -2 -7 8 -7 23 0 36 -86 207 -129 257 -18 22 -34 37 -34 33 0 -4 14 -23 31 -42 18 -21 27 -40 23 -47 -4 -8 -3 -9 4 -5 7 4 12 3 12 -3 0 -26 -20 -17 -46 22 -15 23 -37 52 -48 64 -11 13 -16 26 -12 30 4 4 12 1 17 -7 9 -13 10 -13 7 0 -4 14 -162 140 -203 161 -11 5 -6 0 10 -12z"></path><path id="pRXB141zv" d="M2335 1566 c-5 -3 -26 -7 -45 -10 -19 -3 -53 -17 -74 -30 l-39 -23 54 -18 c191 -63 296 -198 307 -396 4 -79 2 -90 -24 -144 -32 -64 -104 -150 -134 -160 -42 -13 -17 -21 42 -13 136 18 196 46 271 127 78 83 91 124 92 271 0 116 -2 129 -28 181 -58 120 -195 208 -335 215 -42 2 -81 2 -87 0z"></path><path id="pxRjASjxZ" d="M1460 1383 c0 -7 -7 -10 -16 -6 -13 5 -15 -2 -12 -43 3 -45 5 -49 31 -52 25 -3 27 -1 27 35 0 34 -29 98 -30 66z"></path><path id="pTQskV0J" d="M1167 1286 c-69 -25 -97 -66 -97 -143 0 -49 28 -124 51 -138 22 -14 107 -7 152 13 81 36 121 113 98 185 -14 42 -38 65 -88 83 -48 17 -68 17 -116 0z m109 -89 c22 -19 25 -28 20 -54 -15 -68 -89 -90 -133 -39 -30 35 -29 61 2 91 31 32 75 32 111 2z"></path><path id="pVdcgKXmr" d="M1630 1290 c-39 -9 -96 -65 -106 -105 -8 -33 0 -63 28 -106 30 -45 85 -70 164 -77 61 -5 64 -4 93 27 17 18 33 48 37 68 14 75 -44 173 -114 193 -42 11 -53 11 -102 0z m111 -88 c49 -40 15 -125 -51 -125 -36 0 -80 37 -80 68 0 12 9 34 21 49 25 32 75 35 110 8z"></path></g></g><g id="l32669EiVm5eJPhX8YwK7WS" fill="rgb(211,184,122)" style="transform: none;"><g style="transform: none;"><path id="pyavYrc6d" d="M1590 4469 c-261 -26 -507 -97 -690 -200 -136 -77 -320 -234 -304 -260 3 -5 0 -8 -7 -7 -17 4 -106 -115 -157 -210 -52 -98 -98 -238 -117 -357 -13 -82 -24 -609 -13 -620 2 -2 690 -5 1528 -7 l1525 -2 -1 274 c-1 423 -39 594 -178 809 -46 71 -190 231 -209 231 -5 0 -3 -8 4 -17 11 -16 11 -16 -1 -5 -8 7 -15 18 -15 25 0 17 -146 119 -162 113 -8 -3 -11 -1 -8 4 14 23 -245 133 -411 174 -209 53 -559 78 -784 55z m-162 -275 c94 -47 134 -125 135 -264 0 -179 -92 -284 -248 -282 -77 0 -112 11 -167 49 -86 59 -123 225 -78 348 12 33 22 68 23 77 1 9 3 15 6 12 8 -8 60 49 54 59 -3 6 -1 7 5 3 6 -3 26 0 44 8 18 8 65 15 104 15 57 1 80 -4 122 -25z m454 -90 c15 -60 33 -137 41 -171 l13 -63 37 162 c20 89 43 167 49 174 9 7 35 10 75 7 62 -5 63 -6 72 -42 30 -113 102 -474 99 -493 -3 -21 -8 -23 -57 -21 -29 1 -57 5 -61 10 -4 4 -21 89 -38 188 -16 99 -32 173 -35 165 -2 -8 -21 -89 -41 -180 -21 -91 -43 -170 -49 -176 -8 -7 -30 -9 -62 -5 l-50 6 -32 145 c-18 80 -37 160 -41 179 -6 28 -13 2 -37 -143 -21 -128 -33 -180 -45 -186 -22 -11 -98 -6 -112 8 -8 8 -9 21 0 49 6 21 32 133 57 248 25 116 48 219 51 230 4 18 13 20 72 19 l67 0 27 -110z m777 102 c16 -10 14 -106 -1 -108 -7 -1 -38 -2 -68 -3 -30 -1 -70 -3 -87 -4 l-33 -1 -2 -217 -3 -218 -60 0 -60 0 -3 277 c-2 253 -1 277 15 280 31 6 290 1 302 -6z m-1809 -841 c3 -88 8 -152 12 -142 4 9 5 25 2 35 -4 12 -3 14 4 4 11 -17 95 119 86 141 -3 8 -1 18 5 22 7 3 8 0 5 -9 -12 -32 5 -15 38 37 43 68 46 76 17 52 l-24 -20 17 20 c14 17 28 20 84 19 36 -1 70 -6 75 -11 5 -5 8 -128 7 -279 l-3 -269 -60 0 -60 0 0 158 c0 127 -2 154 -12 141 -7 -10 -10 -29 -8 -43 4 -19 3 -21 -3 -7 -7 15 -18 2 -68 -75 -32 -52 -59 -104 -59 -116 -1 -13 -7 -29 -14 -35 -11 -11 -11 -9 -1 10 18 36 4 38 -16 2 -21 -35 -42 -43 -105 -38 l-44 3 -3 270 c-1 148 0 276 3 283 3 9 22 12 62 10 l58 -3 5 -160z m559 152 c14 -18 13 -526 -2 -545 -7 -8 -31 -12 -71 -11 l-61 2 3 271 c1 149 4 277 7 284 6 17 109 16 124 -1z m479 -13 c72 -36 82 -59 82 -188 l0 -105 -92 -3 c-143 -5 -140 -6 -136 55 l3 52 55 0 55 0 3 36 c3 30 -1 37 -23 47 -37 17 -111 15 -140 -4 -33 -21 -55 -84 -55 -155 0 -140 72 -188 206 -138 l57 22 29 -34 c15 -19 27 -40 25 -48 -1 -7 -26 -27 -56 -44 -47 -27 -67 -32 -140 -35 -72 -3 -92 0 -125 17 -31 16 -43 18 -55 9 -13 -10 -14 -10 -4 1 9 11 7 21 -13 47 -82 107 -87 308 -9 409 44 59 104 83 211 84 57 1 80 -4 122 -25z m310 -96 l3 -118 84 0 84 0 3 118 3 117 53 3 c30 2 59 -1 66 -7 14 -12 13 -538 -2 -553 -5 -5 -33 -8 -63 -6 l-54 3 -3 108 -3 107 -84 0 -84 0 -3 -107 -3 -108 -60 0 -60 0 -3 270 c-1 148 0 276 3 283 3 9 22 12 62 10 l58 -3 3 -117z m639 -88 c0 -113 1 -213 2 -222 1 -15 11 -18 61 -18 l61 0 -3 -57 -3 -58 -185 0 -185 0 -3 58 c-2 41 -6 56 -15 51 -7 -4 -9 -3 -4 1 4 5 36 7 72 6 l65 -2 0 219 c0 120 3 222 7 226 4 4 34 6 68 4 l60 -3 2 -205z"></path><path id="pyVCoSLjp" d="M1273 4099 c-46 -13 -75 -66 -81 -149 -8 -119 30 -180 114 -180 61 0 99 34 114 102 30 144 -43 257 -147 227z"></path><path id="pCFETRfN2" d="M1167 2460 c-3 -8 -8 -44 -11 -79 l-6 -65 25 24 c18 17 25 34 25 60 0 41 -25 86 -33 60z"></path><path id="p18jrteRcf" d="M2335 1563 c-48 -6 -122 -33 -135 -48 -9 -11 4 -19 65 -42 43 -15 94 -43 115 -61 21 -18 42 -32 47 -31 20 3 31 -2 37 -18 6 -15 4 -15 -14 2 -11 10 -20 13 -20 8 0 -6 7 -16 16 -24 45 -38 95 -182 95 -277 0 -68 -8 -94 -49 -175 -2 -4 3 -4 12 -1 9 3 16 2 16 -4 0 -5 -8 -9 -17 -9 -10 0 -46 -26 -79 -59 l-62 -61 51 8 c115 19 159 32 204 63 27 18 47 38 45 45 -1 7 1 10 6 7 13 -8 57 43 88 104 28 52 29 61 28 180 0 109 -3 131 -23 173 -76 156 -246 244 -426 220z"></path><path id="pjHTxHFfT" d="M1192 1289 c-47 -9 -64 -17 -58 -27 2 -4 -2 -16 -10 -27 -8 -10 -14 -14 -14 -9 0 6 6 16 13 23 10 11 9 13 -2 9 -22 -6 -51 -69 -51 -108 0 -50 17 -103 40 -128 45 -48 182 -17 234 52 36 46 41 80 22 131 -26 66 -92 98 -174 84z m82 -90 c16 -12 26 -30 26 -45 0 -31 -50 -84 -78 -84 -34 0 -79 46 -84 85 -2 19 -2 32 0 30 3 -2 16 5 30 15 32 26 73 25 106 -1z"></path><path id="pJspzBe5b" d="M1604 1281 c-27 -12 -72 -66 -80 -97 -9 -34 22 -109 53 -134 32 -25 114 -50 163 -50 49 0 102 53 105 106 3 52 -20 116 -56 150 -26 25 -38 29 -97 31 -37 2 -76 -1 -88 -6z m149 -92 c24 -33 14 -73 -25 -102 -70 -52 -156 47 -96 110 31 33 93 29 121 -8z"></path></g></g><g id="l2htGWIR3BazMj1BDO4ZEL4" fill="rgb(246,234,169)" style="transform: none;"><g style="transform: none;"><path id="pVq95jOiG" d="M1655 4474 c-219 -21 -335 -44 -495 -96 -447 -146 -739 -456 -835 -888 -13 -56 -18 -135 -20 -305 l-2 -230 7 220 c4 121 11 236 14 255 50 264 148 455 325 631 95 95 200 173 296 221 106 54 331 126 456 147 196 32 242 36 444 35 540 -4 950 -158 1225 -459 74 -80 103 -122 94 -136 -4 -8 -3 -9 4 -5 25 15 150 -294 153 -378 0 -11 3 -15 6 -8 7 18 -25 144 -59 231 -101 257 -306 461 -603 602 -215 101 -475 156 -777 163 -106 2 -211 2 -233 0z"></path><path id="p19irpfbVI" d="M1182 4204 c-93 -46 -142 -142 -142 -274 0 -87 22 -157 64 -207 20 -22 32 -44 28 -48 -4 -5 -2 -5 5 -1 6 3 29 -4 50 -16 32 -19 52 -23 124 -23 75 1 91 4 133 29 26 15 60 46 76 69 16 23 33 47 37 52 10 13 13 34 18 125 l4 75 -9 -67 c-21 -164 -80 -243 -200 -269 -181 -39 -320 84 -320 282 0 128 54 228 145 270 46 21 147 25 206 8 76 -23 137 -95 158 -186 7 -30 9 -33 10 -12 1 14 -12 52 -29 85 -22 44 -42 68 -81 94 -48 32 -58 35 -138 38 -77 3 -92 0 -139 -24z"></path><path id="plwfwh7G6" d="M1710 4208 c-5 -13 -35 -139 -66 -281 -42 -189 -54 -261 -46 -269 8 -8 10 -6 6 8 -3 11 11 87 30 169 19 83 46 203 61 268 l27 117 63 0 c35 0 67 -5 70 -11 10 -14 75 -297 75 -322 0 -32 7 -16 14 33 4 28 3 40 -3 31 -6 -9 -17 26 -35 105 -38 169 -37 168 -119 172 -62 3 -68 1 -77 -20z"></path><path id="p5ZbQHQwd" d="M2128 4223 c36 -7 30 15 115 -388 19 -88 32 -166 30 -172 -3 -8 -24 -13 -58 -13 -30 0 -57 5 -63 13 -5 6 -23 89 -38 182 -35 207 -37 213 -47 120 -3 -27 -3 -42 -1 -32 14 46 26 -3 54 -208 10 -72 25 -85 97 -85 75 0 77 7 41 175 -16 77 -40 193 -53 258 -29 141 -37 157 -73 156 -23 -2 -24 -2 -4 -6z"></path><path id="p4nqhEwXX" d="M2341 4216 c-18 -21 -16 -556 1 -568 21 -13 128 -10 132 5 13 40 15 67 6 67 -5 0 -10 -16 -10 -35 l0 -36 -62 3 -63 3 0 280 0 280 45 6 45 6 -41 1 c-25 1 -46 -4 -53 -12z"></path><path id="pGgmPDJEE" d="M2440 4223 c0 -5 42 -7 92 -5 139 3 140 3 136 -66 l-3 -57 -60 -6 -60 -6 61 -1 c48 -2 63 1 68 14 10 27 6 110 -6 122 -13 13 -228 18 -228 5z"></path><path id="p1BjXgm7Di" d="M1236 4071 c-65 -68 -57 -253 12 -290 51 -27 128 -6 153 42 18 32 28 86 18 93 -5 3 -9 -6 -9 -20 0 -96 -93 -150 -163 -95 -72 56 -51 265 28 285 70 17 124 -24 133 -102 2 -25 8 -47 12 -49 12 -8 -1 76 -16 107 -20 39 -53 58 -99 58 -32 0 -47 -6 -69 -29z"></path><path id="p3NjNbk8f" d="M1786 3967 c-4 -32 -5 -61 -2 -65 3 -3 6 7 6 23 0 41 10 25 24 -42 8 -32 21 -92 30 -133 16 -71 37 -110 59 -110 6 0 2 6 -9 14 -14 11 -29 59 -60 193 l-41 178 -7 -58z"></path><path id="pOP9XYUl7" d="M1258 3539 c9 -10 12 -82 12 -289 0 -201 3 -279 12 -288 7 -7 37 -12 68 -12 31 0 61 5 68 12 16 16 17 530 1 560 -9 17 -19 19 -77 17 -37 -2 -74 1 -82 5 -12 7 -13 6 -2 -5z m156 -25 c9 -24 7 -527 -3 -542 -5 -9 -26 -12 -67 -10 l-59 3 -3 270 c-1 148 0 275 3 282 7 20 121 17 129 -3z"></path><path id="p12XTZnoue" d="M1715 3540 c-31 -5 -23 -7 40 -7 62 -1 92 -6 128 -23 50 -24 87 -65 87 -98 0 -12 5 -24 10 -27 7 -4 8 5 5 27 -16 87 -146 150 -270 128z"></path><path id="p19hXdqaYG" d="M720 3525 c-14 -17 -17 -552 -2 -567 5 -5 38 -8 73 -6 l64 3 89 133 c48 73 86 135 83 138 -3 3 -15 -12 -28 -33 -12 -21 -52 -82 -87 -136 l-65 -98 -61 3 -61 3 0 280 0 280 60 0 60 0 3 -158 3 -159 82 137 c108 180 113 186 176 184 28 -1 55 -5 61 -9 7 -4 9 -94 8 -281 l-3 -274 -60 0 -60 0 -5 155 c-3 85 -7 148 -10 140 -3 -8 -3 -80 0 -160 l5 -145 64 -3 c35 -2 68 1 73 6 5 5 8 132 8 283 0 312 4 299 -86 299 -33 0 -56 -5 -64 -15 -7 -8 -17 -12 -23 -8 -5 3 -7 1 -3 -5 3 -6 -7 -30 -23 -54 -16 -24 -51 -80 -79 -126 l-50 -82 0 135 c-1 74 -3 139 -7 145 -10 16 -121 12 -135 -5z"></path><path id="pE9rXlPcu" d="M1617 3512 c-149 -79 -180 -345 -57 -485 50 -57 104 -78 196 -79 79 0 136 20 192 66 l32 28 -27 39 c-16 21 -35 41 -45 44 -9 3 -44 -3 -77 -15 -33 -11 -67 -20 -76 -20 -29 0 -75 30 -90 60 -33 64 -7 212 43 239 21 11 103 13 120 2 6 -3 13 -18 17 -33 7 -27 6 -27 -51 -30 -57 -3 -58 -4 -65 -35 -4 -18 -3 -33 2 -33 5 0 9 14 9 30 l0 30 60 0 c60 0 60 0 60 29 0 41 -32 61 -95 61 -43 0 -56 -4 -78 -28 -33 -34 -47 -79 -47 -149 0 -127 86 -184 199 -133 59 27 65 26 100 -19 29 -36 29 -39 13 -54 -43 -38 -108 -62 -181 -66 -96 -4 -143 11 -195 62 -52 52 -76 123 -76 221 0 132 47 225 130 262 22 10 40 21 40 26 0 10 5 11 -53 -20z"></path><path id="p16TCRMtY4" d="M2066 3521 c-10 -11 -13 -22 -8 -25 5 -3 12 3 15 14 4 17 14 20 66 20 l60 0 3 -117 3 -118 82 -3 82 -3 3 118 3 118 59 3 c67 3 72 -1 74 -60 3 -57 12 -62 12 -5 0 73 -4 77 -74 77 -35 0 -67 -5 -74 -12 -8 -8 -12 -49 -12 -118 l0 -107 -55 -2 c-95 -4 -94 -5 -93 114 0 57 -3 109 -7 115 -3 5 -32 10 -64 10 -44 0 -62 -5 -75 -19z"></path><path id="pZWRS1ryK" d="M2701 3527 c-7 -9 -11 -84 -11 -224 l-1 -209 -42 0 c-71 0 -77 -6 -77 -73 0 -44 4 -60 16 -65 9 -3 96 -6 194 -6 169 0 180 1 190 20 10 20 8 106 -4 117 -3 3 -30 6 -61 6 l-55 0 0 212 c0 151 -3 214 -12 223 -17 17 -123 16 -137 -1z m137 -224 l2 -223 59 0 59 0 4 -47 c3 -27 2 -54 0 -61 -3 -10 -47 -12 -191 -10 l-186 3 -3 58 -3 57 61 0 60 0 0 218 c0 120 3 222 7 226 4 4 34 6 68 4 l60 -3 3 -222z"></path><path id="pEE49ZwHY" d="M2057 3224 c1 -141 4 -259 8 -262 4 -4 37 -9 74 -12 l68 -5 3 50 c2 28 3 78 3 113 l0 62 74 0 73 0 -1 -95 c-1 -62 3 -101 11 -110 19 -22 122 -20 143 3 10 11 13 23 8 31 -6 9 -10 5 -15 -14 -6 -25 -9 -26 -69 -23 l-62 3 -3 108 -3 107 -84 0 -85 0 0 -110 0 -111 -62 3 -63 3 -3 258 c-1 141 -6 257 -10 257 -4 0 -6 -115 -5 -256z"></path><path id="pkvTh877W" d="M1978 3363 c-3 -4 -6 -39 -7 -78 -1 -38 -3 -70 -5 -72 -1 -1 -48 -4 -105 -5 -57 -2 -105 -6 -107 -9 -3 -5 162 -5 212 0 7 1 14 34 18 82 7 74 5 103 -6 82z"></path><path id="p1HcSBgBIU" d="M3352 3003 l-2 -183 -62 -2 -63 -1 60 -6 c33 -4 63 -4 68 0 4 3 6 88 4 190 l-2 184 -3 -182z"></path><path id="p5mPnG0j0" d="M302 2853 l-2 -43 203 2 202 3 -197 2 -197 3 -4 38 -4 37 -1 -42z"></path><path id="p4zFPHmGD" d="M1038 2813 c184 -2 481 -2 660 0 180 1 30 2 -333 2 -363 0 -510 -1 -327 -2z"></path><path id="pMm1NjbAC" d="M2197 2813 c94 -2 252 -2 350 0 98 1 21 2 -172 2 -192 1 -273 -1 -178 -2z"></path><path id="pCF2SjSbf" d="M2853 2813 c71 -2 183 -2 250 0 67 1 10 3 -128 3 -137 0 -192 -2 -122 -3z"></path><path id="p151u10oNl" d="M2325 1560 c-45 -6 -142 -46 -133 -55 9 -8 133 -54 137 -50 2 3 -10 11 -28 18 -17 7 -28 17 -24 21 4 4 0 4 -8 1 -8 -3 -26 -2 -39 3 l-25 9 31 16 c41 21 160 40 204 32 85 -15 112 -26 106 -42 -5 -13 -4 -14 8 -4 12 10 23 7 55 -13 72 -46 150 -143 135 -168 -4 -6 -3 -8 3 -5 14 9 30 -75 29 -156 -1 -37 3 -67 8 -67 12 0 0 176 -15 220 -38 110 -144 201 -274 234 -63 17 -90 18 -170 6z"></path><path id="pFxuQAqby" d="M2345 1443 c6 -5 31 -26 58 -47 36 -28 56 -57 86 -119 90 -187 70 -330 -65 -457 -43 -41 -49 -50 -32 -50 12 0 19 2 16 5 -2 3 15 26 39 51 24 26 57 76 75 111 26 53 31 76 32 136 0 142 -83 303 -185 361 -19 10 -29 15 -24 9z"></path><path id="p12NFvQREC" d="M1155 1280 c-38 -15 -76 -66 -82 -109 -7 -53 13 -124 43 -152 20 -19 31 -21 84 -16 128 11 203 108 163 208 -11 28 -27 46 -54 59 -40 21 -117 26 -154 10z m145 -15 c42 -22 60 -53 60 -106 0 -37 -6 -55 -27 -80 -35 -41 -96 -69 -155 -69 -43 0 -48 3 -69 36 -25 41 -39 134 -20 134 7 0 9 4 6 10 -8 14 23 58 54 75 34 19 115 19 151 0z"></path><path id="p1AVRDjOru" d="M1156 1205 c-71 -66 29 -187 108 -128 50 37 59 91 21 128 -33 34 -92 34 -129 0z m121 -7 c30 -28 29 -59 -3 -97 -32 -38 -62 -40 -103 -5 -40 33 -42 74 -5 103 35 27 81 27 111 -1z"></path><path id="pqQuQPyNz" d="M1593 1271 c-30 -19 -84 -101 -66 -101 5 0 16 18 26 39 22 48 66 71 134 71 60 -1 89 -17 120 -66 18 -28 23 -32 18 -14 -4 14 -20 38 -36 55 -25 26 -37 30 -96 33 -55 2 -74 -1 -100 -17z"></path><path id="p6kls47aQ" d="M1648 1224 c-80 -43 -56 -142 39 -163 25 -5 41 -5 37 0 -5 8 9 13 29 10 4 0 6 2 5 6 -1 5 4 21 10 36 15 36 15 42 -2 76 -14 26 -53 51 -79 51 -7 -1 -24 -7 -39 -16z m100 -30 c30 -34 28 -60 -8 -96 -26 -25 -36 -29 -63 -24 -80 15 -91 115 -16 145 32 13 59 5 87 -25z"></path><path id="p12bxlqCe5" d="M1833 1129 c1 -53 -21 -95 -60 -110 -23 -9 -47 -7 -126 8 -42 8 -95 59 -103 99 -3 19 -10 34 -14 34 -13 0 6 -56 29 -89 24 -34 80 -58 154 -67 47 -6 56 -3 84 20 42 35 57 74 45 117 -10 34 -10 34 -9 -12z"></path><path id="pJLUHAoG1" d="M2771 1070 c-2 -44 -48 -128 -96 -175 -54 -54 -132 -93 -204 -102 -28 -3 -51 -10 -51 -15 0 -5 8 -7 18 -5 9 3 42 11 72 17 71 16 128 50 180 106 48 53 93 144 87 176 -4 22 -4 22 -6 -2z"></path></g></g></svg>