<svg xmlns="http://www.w3.org/2000/svg" width="359" height="468" viewBox="0 0 3590 4680"><g id="l543kfSb930a4Arqlnf3UUy" fill="rgb(30,28,17)" style="transform: none;"><g><path id="p16IVM99D4" d="M1540 4634 c-120 -17 -182 -30 -189 -41 -3 -6 -30 -13 -59 -17 -53 -7 -116 -31 -139 -53 -7 -6 -30 -14 -52 -18 -21 -3 -47 -13 -58 -20 -10 -8 -26 -15 -35 -15 -10 0 -18 -3 -18 -7 0 -5 -24 -21 -53 -37 -28 -16 -54 -32 -57 -36 -3 -3 -26 -18 -52 -33 -27 -15 -48 -31 -48 -35 0 -4 -14 -13 -31 -21 -18 -8 -34 -22 -36 -32 -3 -10 -18 -22 -33 -28 -16 -5 -38 -23 -51 -40 -13 -17 -28 -31 -35 -31 -7 0 -22 -16 -34 -35 -12 -19 -28 -35 -36 -35 -8 0 -18 -10 -23 -23 -5 -13 -16 -29 -25 -36 -9 -7 -16 -20 -16 -27 0 -8 -6 -14 -12 -14 -12 0 -22 -13 -57 -70 -5 -8 -15 -28 -22 -45 -8 -16 -20 -34 -27 -38 -13 -9 -62 -108 -62 -126 0 -6 -4 -11 -8 -11 -13 0 -49 -89 -57 -140 -4 -24 -16 -60 -26 -80 -49 -95 -49 -99 -49 -1394 1 -1184 1 -1210 21 -1269 11 -33 27 -66 35 -74 7 -8 14 -22 14 -31 0 -22 48 -105 66 -115 8 -4 14 -13 14 -18 0 -10 70 -81 150 -151 17 -15 41 -30 54 -34 13 -3 33 -16 44 -29 12 -13 39 -29 61 -35 23 -6 41 -17 41 -25 0 -8 23 -20 58 -30 31 -9 84 -29 117 -44 33 -16 85 -35 115 -42 30 -7 57 -16 60 -19 12 -13 109 -40 143 -40 22 0 53 -6 70 -14 83 -36 217 -56 402 -60 50 -1 100 -7 112 -14 32 -18 148 -16 163 3 9 11 30 14 84 12 146 -5 408 29 426 54 3 4 28 11 55 14 103 12 165 29 165 45 0 4 28 13 63 20 66 13 139 37 147 49 3 4 37 18 77 30 39 13 79 31 88 41 9 10 32 21 50 24 21 4 36 14 40 26 3 10 20 23 38 29 18 7 43 23 57 36 14 13 50 48 81 77 31 30 64 68 73 85 9 18 22 36 28 40 24 15 68 116 68 156 0 9 4 17 9 17 10 0 31 77 31 114 0 14 3 26 8 26 12 0 6 2244 -6 2315 -6 33 -14 79 -17 103 -4 23 -11 42 -15 42 -5 0 -13 33 -19 73 -7 39 -16 79 -20 87 -5 9 -12 30 -16 48 -3 18 -12 32 -19 32 -6 0 -17 21 -24 48 -8 26 -18 54 -23 62 -5 8 -14 27 -20 43 -6 15 -15 27 -19 27 -4 0 -15 18 -24 40 -9 22 -31 56 -50 76 -19 20 -40 50 -46 65 -7 16 -20 31 -29 34 -9 3 -27 23 -40 44 -12 21 -48 60 -79 87 -31 27 -74 66 -96 87 -22 20 -45 37 -52 37 -6 0 -19 11 -30 24 -10 14 -28 27 -41 31 -13 3 -32 14 -42 24 -11 11 -46 32 -78 48 -32 16 -69 36 -83 45 -14 9 -50 24 -80 34 -30 10 -66 26 -80 35 -14 10 -54 24 -90 31 -36 7 -67 15 -70 19 -8 9 -140 40 -196 44 -126 11 -445 11 -524 -1z m473 -149 c359 -54 670 -214 914 -469 147 -153 268 -357 322 -541 53 -182 53 -185 58 -647 l5 -438 -1505 0 -1504 0 -5 73 c-10 141 -2 780 10 848 7 37 27 113 46 170 167 516 640 903 1226 1004 103 18 315 18 433 0z m-699 -2315 c18 -42 56 -75 99 -85 31 -8 29 -2 52 -275 9 -102 24 -263 33 -357 15 -140 16 -173 5 -173 -7 0 -22 -9 -33 -20 -18 -18 -20 -33 -20 -149 0 -143 7 -161 61 -161 26 0 29 -3 29 -34 0 -25 -6 -38 -25 -50 -21 -14 -25 -24 -25 -66 0 -43 4 -52 30 -71 16 -12 32 -35 35 -51 10 -42 80 -126 136 -161 41 -25 49 -35 49 -60 0 -47 25 -67 83 -67 64 0 87 19 87 72 0 21 4 38 8 38 5 0 29 13 53 30 51 33 100 97 118 153 7 20 17 37 21 37 5 0 18 10 30 22 35 38 21 121 -25 138 -19 7 -25 17 -25 40 0 28 2 30 38 30 21 0 43 5 50 12 8 8 12 55 12 145 0 120 -2 135 -20 153 -11 11 -25 20 -31 20 -13 0 -14 -11 26 455 14 165 27 310 30 321 3 12 15 24 29 28 36 9 87 55 102 93 l14 33 486 0 485 0 -3 -647 -3 -648 -32 -80 c-80 -195 -240 -331 -528 -447 -190 -77 -459 -143 -680 -168 -116 -13 -405 -13 -520 0 -120 14 -357 63 -478 100 -272 82 -481 193 -608 323 -75 77 -144 210 -159 307 -6 38 -10 313 -10 663 l0 597 503 0 503 0 18 -40z m702 -157 c-6 -55 -47 -482 -62 -640 l-7 -73 -128 0 -128 0 -5 43 c-10 82 -66 672 -66 700 l0 27 201 0 201 0 -6 -57z m-137 -1319 c-42 -45 -56 -48 -95 -19 -19 14 -34 30 -34 36 0 5 35 9 77 9 l76 0 -24 -26z"></path><path id="p9V2BkZoA" d="M661 3751 c-64 -17 -121 -77 -141 -150 -13 -49 -13 -195 1 -242 15 -47 61 -104 102 -126 35 -18 188 -25 240 -10 26 7 27 9 27 83 l0 75 -70 -3 c-65 -2 -72 0 -98 25 -23 23 -27 36 -27 81 0 44 5 59 24 80 24 25 28 26 96 20 70 -6 72 -6 78 17 4 13 7 48 7 77 0 48 -2 53 -27 63 -37 14 -170 20 -212 10z"></path><path id="p1EKoOFAwC" d="M2959 3744 c-9 -11 -25 -35 -35 -54 l-19 -35 -5 45 -5 45 -80 0 -80 0 -3 -254 c-2 -197 1 -256 10 -263 7 -4 66 -8 131 -8 133 0 168 10 211 61 27 31 28 37 24 118 -3 75 -6 91 -30 121 l-27 35 34 55 c43 69 49 140 13 140 -13 0 -45 3 -73 6 -41 5 -53 3 -66 -12z"></path><path id="pE8lZYE13" d="M917 3743 c-4 -3 -7 -120 -7 -259 0 -287 -8 -264 95 -264 53 0 66 3 75 19 6 11 10 89 10 180 l0 161 75 0 75 0 0 -174 c0 -197 -6 -186 92 -186 84 0 78 -20 78 271 l0 258 -243 1 c-134 0 -247 -3 -250 -7z"></path><path id="p5GjKSwgf" d="M1447 3743 c-13 -12 -8 -498 5 -511 13 -13 116 -15 157 -3 18 5 32 25 57 81 l32 74 35 -76 c33 -71 38 -77 71 -84 20 -3 66 -3 101 1 l65 7 -2 256 -3 257 -85 0 -85 0 -5 -75 c-5 -69 -6 -72 -17 -47 -12 25 -17 27 -73 27 -59 0 -60 -1 -79 -37 l-20 -38 -1 88 0 87 -73 0 c-41 0 -77 -3 -80 -7z"></path><path id="pIYbOxphH" d="M1996 3735 c-12 -32 -7 -490 6 -503 15 -15 227 -16 280 -2 20 6 47 23 59 38 19 24 21 36 16 114 -3 67 -1 90 9 99 8 6 15 19 16 28 1 9 5 -51 8 -134 l5 -150 157 -3 157 -3 6 24 c4 13 5 46 3 73 l-3 49 -77 3 c-60 2 -78 6 -78 17 0 12 14 15 59 15 l60 0 6 43 c4 24 5 56 3 73 -3 28 -5 29 -65 32 -55 3 -63 6 -63 22 0 18 7 20 80 20 l81 0 -3 78 -3 77 -162 3 -163 2 -1 -52 c0 -38 -3 -47 -9 -33 -4 11 -22 34 -40 50 l-31 30 -153 3 c-135 3 -154 1 -160 -13z"></path><path id="pfavAOKm7" d="M743 3130 c-18 -4 -44 -15 -59 -25 -25 -16 -26 -20 -21 -79 3 -34 9 -69 12 -79 9 -22 63 -23 124 -2 48 17 89 12 71 -10 -5 -7 -36 -24 -68 -38 -31 -14 -73 -42 -92 -62 -34 -35 -35 -39 -38 -123 -3 -78 -1 -91 20 -121 45 -66 68 -76 187 -79 82 -3 117 0 146 12 l38 16 -7 53 c-3 28 -6 64 -6 80 0 25 -3 27 -38 27 -20 0 -52 -4 -70 -9 -33 -10 -62 -6 -62 8 0 4 36 25 80 46 99 47 121 73 128 161 8 111 -44 198 -135 223 -43 12 -162 13 -210 1z"></path><path id="p3YqEb3KH" d="M1673 3116 c-87 -41 -132 -125 -134 -254 -1 -38 -2 -42 -8 -22 -23 75 -72 109 -170 117 l-70 6 -3 81 -3 81 -86 3 -87 3 -5 -33 c-3 -18 -4 -154 -3 -303 l4 -270 53 -8 c30 -5 97 -7 149 -5 83 3 102 7 143 31 54 32 73 64 86 139 5 29 9 42 10 28 4 -66 72 -162 136 -191 62 -29 195 -26 261 5 54 25 100 79 122 145 18 51 15 258 -3 312 -21 60 -66 113 -118 138 -65 31 -203 30 -274 -3z m202 -250 c10 -67 -2 -134 -30 -162 -13 -13 -28 -24 -33 -24 -21 0 -51 43 -62 90 -17 73 -6 136 32 174 l30 30 29 -31 c17 -20 30 -48 34 -77z m-545 -96 c25 -25 25 -42 3 -62 -40 -34 -43 -32 -43 26 0 60 8 68 40 36z"></path><path id="p18WQltN9o" d="M2394 3126 c-12 -9 -37 -42 -55 -73 l-34 -58 -5 65 -5 65 -90 0 -90 0 -3 -298 -2 -297 27 -11 c17 -6 82 -9 158 -7 120 3 133 5 176 30 27 16 53 41 62 60 l17 33 0 -41 c0 -75 0 -75 220 -72 l195 3 3 65 c5 102 1 110 -58 110 l-50 0 0 204 c0 163 -3 206 -14 215 -9 8 -43 11 -93 9 l-78 -3 -3 -212 -2 -213 -51 0 c-40 0 -51 -4 -57 -20 -4 -12 -7 5 -7 43 0 81 -9 109 -44 145 l-29 29 43 74 c43 72 59 139 36 153 -5 3 -39 8 -77 12 -54 4 -74 2 -90 -10z"></path><path id="p7lDj36XV" d="M1758 1609 c-15 -9 -18 -26 -18 -117 0 -71 4 -112 12 -120 7 -7 37 -12 68 -12 31 0 61 5 68 12 8 8 12 48 12 114 0 95 -2 104 -22 118 -25 18 -94 21 -120 5z"></path></g></g><g id="l56QblhTRvOs8cKFkKJaCZG" fill="rgb(89,69,46)" style="transform: none;"><g><path id="pY99TaKrZ" d="M1477 2233 c-4 -3 -2 -12 4 -20 9 -10 77 -13 338 -13 322 0 351 3 351 32 0 10 -684 11 -693 1z"></path></g></g><g id="l33jljJMsUZdILNdADYKA0F" fill="rgb(175,85,33)" style="transform: none;"><g><path id="pu79xKr8o" d="M260 1613 c0 -371 4 -655 10 -693 15 -97 84 -230 159 -307 127 -130 336 -241 608 -323 121 -37 358 -86 478 -100 115 -13 463 -13 580 0 221 25 490 91 680 168 288 116 448 252 528 447 l32 80 3 678 3 677 -515 0 -516 0 -14 -33 c-15 -38 -66 -84 -102 -93 -30 -8 -31 -9 -49 -234 -19 -229 -43 -507 -50 -577 -4 -43 -2 -53 10 -53 8 0 24 -9 35 -20 17 -17 20 -33 20 -123 0 -67 -4 -107 -12 -115 -7 -7 -29 -12 -50 -12 l-38 0 0 -60 c0 -55 2 -61 25 -70 47 -18 49 -81 3 -96 -9 -3 -22 -22 -29 -42 -23 -72 -80 -136 -156 -176 -29 -14 -32 -20 -26 -46 4 -22 0 -36 -12 -50 -38 -42 -101 -9 -93 48 4 26 -1 32 -40 52 -54 29 -129 113 -144 162 -6 20 -24 46 -39 57 -36 27 -37 55 -4 77 22 15 25 23 25 80 l0 64 -29 0 c-52 0 -61 20 -61 131 0 86 3 102 20 119 11 11 27 20 35 20 19 0 19 -16 -9 266 -14 132 -30 300 -36 374 -17 216 -17 217 -47 225 -43 10 -81 43 -99 85 l-18 40 -533 0 -533 0 0 -627z"></path></g></g><g id="l74h35vouFAWrVhe8iYSErO" fill="rgb(135,130,104)" style="transform: none;"><g><path id="p1CH0tQSim" d="M3460 2092 c0 -628 3 -1142 8 -1142 10 0 9 2266 0 2276 -5 4 -8 -506 -8 -1134z"></path></g></g><g id="l10Tb9d58syOn6XmUTpI5A4" fill="rgb(213,197,150)" style="transform: none;"><g><path id="paTXJZW0n" d="M1550 4515 c-510 -88 -940 -394 -1155 -825 -43 -85 -99 -252 -116 -343 -8 -40 -13 -228 -15 -524 l-2 -463 1540 0 1540 0 -5 468 c-5 495 -4 493 -58 677 -54 184 -175 388 -322 541 -244 255 -555 415 -914 469 -119 18 -388 18 -493 0z m-703 -806 c23 -9 25 -13 20 -50 -3 -22 -7 -43 -10 -45 -3 -3 -24 0 -47 6 -53 14 -91 6 -121 -26 -21 -23 -24 -35 -24 -111 0 -84 0 -85 34 -115 33 -29 37 -30 98 -24 l63 7 0 -46 c0 -40 -3 -45 -27 -52 -47 -13 -146 -7 -180 10 -71 37 -113 119 -113 218 0 124 59 216 151 239 38 10 116 4 156 -11z m2243 0 c0 -5 -21 -45 -46 -89 l-46 -79 32 -32 c39 -39 50 -67 50 -124 0 -51 -35 -100 -87 -121 -35 -15 -199 -19 -221 -6 -9 7 -12 60 -10 233 l3 224 50 0 50 0 3 -77 c2 -53 7 -78 15 -78 7 0 30 31 51 68 57 97 58 98 110 94 25 -2 46 -8 46 -13z m-1885 -1 c3 -7 6 -31 8 -53 l2 -40 -77 -3 -78 -3 0 -160 c0 -91 -4 -169 -10 -180 -7 -13 -21 -19 -45 -19 -68 0 -65 -11 -65 234 0 123 3 226 7 229 3 4 62 7 130 7 90 0 125 -3 128 -12z m175 -218 c0 -126 -3 -230 -7 -231 -5 0 -19 -2 -33 -4 -14 -2 -35 -1 -47 2 l-23 5 0 229 0 229 55 0 55 0 0 -230z m190 93 c0 -85 4 -133 9 -128 5 6 28 44 50 85 34 65 44 75 69 78 27 3 33 -3 66 -62 20 -37 41 -66 46 -66 5 0 11 51 12 113 l3 112 55 0 55 0 3 -226 2 -226 -49 -7 c-80 -11 -92 -1 -142 113 -24 56 -46 101 -50 101 -3 0 -26 -46 -51 -102 l-45 -103 -48 -9 c-81 -16 -80 -20 -83 225 -1 117 0 219 2 226 3 8 23 13 51 13 l45 0 0 -137z m747 94 c35 -34 38 -42 38 -92 0 -47 -4 -58 -32 -87 l-31 -33 19 -35 c40 -73 14 -149 -59 -170 -52 -14 -205 -13 -220 2 -13 13 -18 411 -6 443 6 14 22 16 130 13 l124 -3 37 -38z m371 -9 l3 -48 -80 0 -81 0 0 -50 0 -50 59 0 c33 0 63 -4 66 -10 3 -5 3 -25 -1 -45 l-6 -35 -59 0 -59 0 0 -45 0 -44 77 -3 c84 -3 92 -10 79 -64 l-7 -25 -127 3 -127 3 -3 233 -2 233 132 -3 133 -3 3 -47z m-1765 -569 c83 -23 147 -118 132 -196 -11 -59 -38 -87 -126 -129 -87 -41 -101 -56 -88 -91 13 -35 68 -41 155 -17 20 5 22 1 25 -47 4 -51 3 -52 -30 -67 -24 -9 -60 -13 -112 -10 -86 3 -116 19 -157 79 -20 28 -23 44 -20 92 4 49 9 62 38 92 19 20 59 47 89 61 66 30 91 51 91 75 0 48 -69 63 -156 33 -49 -17 -63 -11 -64 26 0 8 -3 25 -6 37 -14 52 128 90 229 62z m994 -10 c52 -25 97 -78 118 -138 18 -53 20 -203 3 -252 -35 -105 -122 -169 -228 -169 -135 1 -225 100 -237 263 -11 147 34 248 130 293 68 31 153 33 214 3z m617 0 c5 -4 -18 -52 -52 -108 l-60 -101 30 -18 c46 -27 71 -75 70 -137 -1 -74 -25 -120 -81 -153 -40 -23 -59 -27 -146 -30 -56 -2 -112 1 -128 7 l-27 11 2 267 3 268 60 0 60 0 3 -97 c2 -74 6 -98 16 -98 8 0 37 41 66 90 29 50 62 97 73 105 21 15 92 11 111 -6z m-1274 -77 l5 -83 66 -3 c123 -6 174 -61 174 -186 0 -93 -18 -129 -81 -166 -52 -30 -143 -41 -231 -27 l-52 8 -5 245 c-2 135 -1 258 1 273 6 27 7 28 62 25 l56 -3 5 -83z m1558 76 c9 -9 12 -70 12 -215 l0 -203 50 0 c44 0 50 -3 56 -24 3 -13 4 -38 2 -57 l-3 -34 -168 -3 -167 -2 -12 25 c-7 16 -8 35 -2 57 9 31 12 33 62 36 l52 3 0 208 c0 114 3 211 7 214 11 12 98 8 111 -5z"></path><path id="pKL5XCMGT" d="M2869 3466 c-2 -2 -2 -34 -1 -71 l4 -67 36 6 c43 6 62 28 62 68 0 36 -32 68 -68 68 -16 0 -31 -2 -33 -4z"></path><path id="ppxuacwpa" d="M2130 3580 l0 -60 38 0 c45 0 72 23 72 62 0 34 -30 58 -73 58 l-37 0 0 -60z"></path><path id="pkg4n5hKw" d="M2130 3385 c0 -54 0 -55 30 -55 32 0 70 30 70 55 0 25 -38 55 -70 55 -30 0 -30 -1 -30 -55z"></path><path id="p1HfWiP3hM" d="M1757 2980 c-46 -37 -62 -158 -33 -254 17 -57 39 -75 86 -76 72 0 100 47 100 170 0 79 -12 126 -42 157 -27 29 -76 30 -111 3z"></path><path id="pHTAIp1Be" d="M2270 2725 l0 -75 40 0 c53 0 80 27 80 78 0 50 -24 72 -78 72 l-42 0 0 -75z"></path><path id="pKE9NmV3N" d="M1260 2735 l0 -85 34 0 c19 0 45 9 60 21 21 17 26 29 26 65 0 58 -25 84 -80 84 l-40 0 0 -85z"></path><path id="p9v27s4G9" d="M1583 2053 c3 -27 20 -194 37 -373 17 -179 33 -344 36 -367 l5 -43 158 0 159 0 7 78 c4 42 17 186 31 320 13 134 27 286 30 338 l7 94 -238 0 -238 0 6 -47z m265 -479 c19 -13 22 -24 22 -88 0 -79 -9 -96 -50 -96 -42 0 -50 17 -50 102 0 63 3 79 18 87 24 14 34 13 60 -5z"></path><path id="p1HC1um4ty" d="M1597 1154 c-4 -4 -7 -20 -7 -36 l0 -28 231 0 230 0 -3 33 -3 32 -221 3 c-121 1 -223 -1 -227 -4z"></path><path id="pG0jRt9g9" d="M1690 916 l0 -66 45 0 46 0 -3 63 -3 62 -42 3 -43 3 0 -65z"></path><path id="p10uV8XSBj" d="M1860 916 l0 -66 50 0 51 0 -3 63 -3 62 -47 3 -48 3 0 -65z"></path><path id="pjhRihXyJ" d="M1702 708 c24 -43 90 -98 117 -98 28 0 79 38 111 81 16 23 30 46 30 51 0 4 -63 8 -141 8 l-140 0 23 -42z"></path></g></g><g id="l4k6HO7ddwL30E39A9MI6At" fill="rgb(240,229,182)" style="transform: none;"><g><path id="p1HbULepOc" d="M2390 3465 c0 -184 2 -215 15 -215 13 0 15 31 15 215 0 184 -2 215 -15 215 -13 0 -15 -31 -15 -215z"></path><path id="p14Pk6UCnX" d="M3474 2825 c0 -132 2 -185 3 -117 2 68 2 176 0 240 -1 64 -3 9 -3 -123z"></path><path id="p1CTZIzxfh" d="M2273 2543 c-93 -3 -125 -12 -90 -26 18 -7 203 0 216 8 17 10 13 25 -6 23 -10 -1 -64 -4 -120 -5z"></path><path id="pF0HciZ3s" d="M1740 1480 c0 -60 3 -70 18 -70 14 0 15 -2 2 -10 -13 -8 -12 -10 4 -10 12 0 16 5 12 16 -3 9 -6 45 -6 80 0 50 -3 64 -15 64 -12 0 -15 -14 -15 -70z"></path><path id="pJVkvEApq" d="M1686 736 c7 -20 265 -18 272 2 3 9 -29 12 -137 12 -117 0 -139 -2 -135 -14z"></path></g></g></svg>