<svg xmlns="http://www.w3.org/2000/svg" width="359" height="468" viewBox="0 0 3590 4680"><g id="l5UJ8veOw4pcoXtuofv3FNo" fill="rgb(42,41,22)" style="transform: none;"><g><path id="ptewdNTMz" d="M1025 4582 c-159 -13 -297 -50 -387 -103 -27 -16 -53 -29 -58 -29 -31 0 -217 -192 -272 -280 -49 -81 -75 -145 -104 -255 -18 -66 -19 -144 -22 -1526 -2 -1520 -3 -1506 38 -1669 14 -57 79 -188 127 -254 66 -92 218 -220 286 -242 12 -4 31 -13 42 -20 11 -8 25 -14 33 -14 7 0 32 -9 54 -20 23 -11 53 -20 67 -20 14 0 64 -7 111 -15 71 -13 213 -15 849 -15 814 0 925 6 1030 51 24 10 49 19 57 19 17 0 86 37 159 86 170 112 296 304 341 519 18 86 19 158 19 1565 l0 1475 -23 89 c-53 209 -175 387 -343 501 -24 17 -45 33 -47 38 -2 4 -7 7 -12 7 -5 0 -37 13 -72 29 -35 16 -85 35 -113 44 -27 8 -61 19 -75 23 -22 7 -1613 23 -1685 16z m1544 -134 c215 -18 397 -110 526 -266 70 -85 117 -175 147 -282 l23 -85 0 -1465 0 -1465 -23 -80 c-85 -295 -292 -485 -587 -539 -132 -24 -1583 -24 -1720 0 -108 19 -223 61 -301 113 -133 85 -249 252 -296 421 l-23 85 0 1465 c0 1400 1 1468 19 1540 34 138 126 280 250 389 109 94 252 155 403 170 114 12 1446 11 1582 -1z"></path><path id="p4161rESM" d="M1770 4091 c-103 -32 -140 -94 -140 -237 0 -102 13 -143 61 -198 34 -40 79 -56 154 -56 117 0 185 46 185 123 0 41 -3 46 -32 58 l-33 13 38 4 37 3 0 104 c0 95 -2 106 -24 133 -42 49 -168 76 -246 53z m87 -291 c34 0 35 -1 21 -22 -21 -32 -31 -32 -61 -2 -21 21 -27 36 -27 71 0 24 6 54 13 66 11 19 12 14 15 -45 l3 -68 36 0z"></path><path id="p17ViqzXN6" d="M460 3845 l0 -237 133 4 c115 3 137 6 167 25 47 29 80 89 80 144 0 85 15 71 54 -51 l38 -121 86 3 85 3 14 40 c8 22 36 108 63 190 l49 150 0 -192 1 -193 73 0 72 1 45 75 45 76 3 -76 3 -76 74 0 75 0 0 235 0 235 -74 0 -74 0 -44 -67 -43 -68 -3 68 -3 67 -153 0 -153 0 -13 -46 c-12 -42 -15 -45 -44 -42 -26 3 -32 9 -42 43 l-11 40 -81 3 -82 3 0 -26 0 -26 -31 23 c-28 21 -43 23 -170 26 l-139 4 0 -237z m198 75 c26 -24 37 -76 23 -112 -12 -31 -58 -65 -71 -52 -13 14 0 184 15 184 6 0 21 -9 33 -20z"></path><path id="pPbac4tKG" d="M2070 3845 l0 -235 70 0 70 0 0 165 0 164 73 3 72 3 3 68 3 67 -146 0 -145 0 0 -235z"></path><path id="pExR5vxul" d="M2370 3845 l0 -236 153 3 152 3 3 68 3 67 -81 0 c-64 0 -80 3 -80 15 0 12 14 15 65 15 l65 0 0 65 0 65 -65 0 c-51 0 -65 3 -65 15 0 12 16 15 80 15 l80 0 0 70 0 70 -155 0 -155 0 0 -235z"></path><path id="p1ChzYULSU" d="M2700 3844 l0 -236 141 4 141 3 33 37 c23 25 36 50 40 82 9 60 -2 129 -25 158 -18 22 -17 24 6 70 13 26 24 63 24 83 l0 35 -77 0 -78 0 -27 -58 -27 -57 0 58 -1 57 -75 0 -75 0 0 -236z m186 -49 c19 -15 19 -15 0 -30 -29 -22 -36 -19 -36 15 0 34 7 37 36 15z"></path><path id="prV7uFaiI" d="M692 3353 c-55 -27 -73 -59 -70 -122 3 -55 4 -56 39 -65 l36 -9 -34 -31 c-30 -27 -35 -39 -40 -94 -12 -133 44 -192 183 -192 55 0 81 5 118 24 46 23 48 24 53 5 5 -18 19 -19 352 -19 382 1 390 2 435 63 17 24 21 43 21 115 0 75 -3 92 -23 119 l-23 32 31 60 c30 60 39 114 21 126 -6 3 -46 3 -90 -1 l-81 -7 -32 -65 -33 -65 -3 65 -3 66 -34 6 c-19 4 -57 4 -85 0 l-50 -7 0 -176 0 -176 -60 3 -60 4 0 173 0 173 -50 7 c-66 9 -107 -1 -114 -28 -3 -12 -6 -91 -6 -174 l0 -153 -49 0 c-28 0 -52 4 -56 9 -3 5 -19 12 -35 16 l-30 7 29 24 c41 34 54 74 49 149 -5 74 -25 110 -79 137 -45 24 -180 24 -227 1z m114 -158 c-22 -17 -36 -19 -36 -7 0 14 12 22 34 22 21 -1 21 -1 2 -15z m795 -151 c11 -14 10 -18 -6 -30 -30 -22 -45 -17 -45 16 0 23 5 30 19 30 10 0 25 -7 32 -16z"></path><path id="ppBGH2jaH" d="M1833 3363 l-23 -4 0 -255 0 -255 83 3 82 3 3 251 2 251 -37 7 c-40 6 -74 6 -110 -1z"></path><path id="p16cDSSiUR" d="M2589 3347 c-24 -13 -57 -43 -74 -66 -30 -42 -30 -44 -30 -175 0 -130 1 -134 29 -174 44 -64 109 -92 215 -92 140 0 221 49 221 133 0 35 -3 39 -42 57 l-42 19 40 3 39 3 3 117 3 116 -38 31 c-49 41 -89 51 -194 51 -71 0 -94 -4 -130 -23z m146 -146 c-30 -6 -30 -7 -30 -76 l0 -70 44 -3 43 -3 -23 -25 c-28 -30 -53 -31 -84 0 -63 64 -27 189 55 185 23 -1 23 -2 -5 -8z"></path><path id="p14oZvAPCA" d="M2010 3105 l0 -255 84 0 83 0 38 63 c21 34 47 73 57 86 18 24 18 23 18 -63 l0 -87 83 3 82 3 0 250 0 250 -80 3 -80 2 -55 -81 -55 -81 -3 81 -3 81 -84 0 -85 0 0 -255z"></path><path id="ppI3lWJwb" d="M1314 2761 c-70 -33 -121 -80 -161 -148 -26 -45 -28 -54 -27 -163 1 -138 16 -193 124 -441 138 -317 213 -531 310 -884 67 -246 84 -275 181 -323 35 -17 76 -34 91 -38 44 -10 55 -30 31 -57 -36 -39 -53 -84 -53 -141 0 -70 12 -102 58 -149 61 -63 118 -87 209 -87 149 0 218 58 321 271 57 118 63 204 27 384 -7 39 -23 120 -35 180 -12 61 -32 153 -45 205 -16 61 -25 134 -28 205 -4 119 -27 218 -63 275 -12 20 -51 68 -87 107 -79 86 -79 86 -107 193 -13 47 -34 108 -48 135 -40 79 -148 242 -224 337 -112 139 -167 168 -315 168 -87 0 -105 -3 -159 -29z m330 -295 c61 -65 231 -365 219 -385 -13 -21 -116 -62 -169 -69 -59 -6 -92 32 -129 151 -16 51 -39 124 -52 164 -13 39 -23 80 -23 91 0 38 56 89 99 91 8 1 33 -19 55 -43z m336 -615 c69 -26 114 -63 146 -117 28 -47 26 -67 -3 -42 -30 25 -104 64 -178 93 -38 15 -83 34 -100 43 l-30 15 35 13 c49 18 73 17 130 -5z m-73 -323 c29 -27 29 -48 2 -77 -26 -28 -56 -24 -82 11 l-20 26 22 31 c26 37 46 39 78 9z m92 -429 c17 -17 31 -35 31 -41 0 -16 -57 -68 -75 -68 -19 0 -75 52 -75 70 0 17 56 70 73 70 9 0 29 -14 46 -31z m87 -524 c20 -20 23 -29 14 -45 -17 -31 -46 -43 -70 -28 -31 20 -35 47 -9 74 28 30 34 30 65 -1z"></path></g></g><g id="l3KbnBdXQypzc8JzvjMVGE4" fill="rgb(93,72,37)" style="transform: none;"><g><path id="ppdbj8t4u" d="M1028 4483 c-10 -2 -18 -11 -18 -19 0 -12 110 -14 775 -14 655 0 775 2 775 14 0 8 -10 16 -22 19 -28 7 -1486 7 -1510 0z"></path><path id="pF3AwF2Do" d="M865 4465 c-168 -38 -305 -127 -422 -273 -125 -157 -154 -250 -160 -529 -5 -198 -5 -203 15 -203 19 0 20 8 24 203 4 186 7 208 30 272 31 85 60 149 71 153 4 2 7 10 7 18 0 8 5 14 10 14 6 0 10 8 10 19 0 10 9 21 20 24 13 3 20 14 20 30 0 19 6 26 23 29 17 2 23 11 25 36 3 29 6 32 37 32 19 0 38 6 42 13 4 6 28 23 53 36 25 14 47 27 50 30 11 13 109 45 182 60 62 13 78 20 78 34 0 21 -29 21 -115 2z"></path><path id="p1A1iVmjte" d="M2600 4462 c0 -15 9 -21 43 -25 86 -12 261 -83 306 -124 13 -13 32 -23 42 -23 11 0 19 -6 19 -13 0 -19 63 -77 83 -77 12 0 17 -8 17 -25 0 -14 7 -28 15 -31 8 -4 15 -12 15 -19 0 -7 3 -15 8 -17 10 -4 67 -132 88 -198 13 -41 18 -104 22 -252 4 -190 5 -198 24 -198 20 0 20 5 15 198 -6 223 -22 307 -83 423 -67 127 -193 253 -314 314 -65 33 -187 72 -247 80 -48 6 -53 5 -53 -13z"></path><path id="plon1nzRB" d="M1740 4086 c-23 -8 -36 -20 -38 -34 -2 -14 -11 -22 -22 -22 -46 0 -76 -214 -41 -300 19 -47 59 -100 76 -100 7 0 15 -5 17 -11 2 -6 27 -14 56 -17 42 -4 52 -2 52 11 0 9 -16 19 -44 26 -80 20 -136 108 -136 215 0 155 109 243 246 200 82 -26 104 -57 104 -150 l0 -74 -80 0 c-64 0 -80 3 -80 15 0 8 -4 15 -10 15 -5 0 -10 -16 -10 -35 0 -34 1 -35 43 -36 23 -1 33 -3 22 -6 -11 -3 -24 -9 -29 -14 -24 -23 -66 3 -66 40 0 14 -6 21 -20 21 -15 0 -20 -7 -20 -29 0 -70 106 -111 147 -56 18 25 18 25 56 8 20 -9 37 -23 37 -31 0 -25 -57 -71 -104 -83 -58 -15 -63 -39 -6 -39 41 0 90 17 90 32 0 4 7 8 15 8 8 0 15 7 15 15 0 8 5 15 11 15 15 0 4 101 -12 110 -6 5 0 10 15 14 26 6 26 7 26 105 0 66 -4 104 -12 113 -7 8 -18 23 -24 33 -26 47 -190 71 -274 41z"></path><path id="pJ74RsBxP" d="M457 4083 c-4 -3 -7 -109 -7 -235 l0 -228 35 0 c19 0 35 5 35 10 0 6 -7 10 -15 10 -13 0 -15 29 -15 205 l0 205 98 0 c119 0 154 -15 195 -82 25 -41 29 -55 28 -123 -1 -139 -55 -195 -192 -203 -71 -4 -79 -7 -79 -25 0 -19 5 -19 88 -15 91 5 152 27 152 53 0 8 7 15 15 15 22 0 54 76 56 130 l1 45 15 -50 c9 -27 19 -52 22 -55 4 -3 13 -31 20 -62 8 -38 17 -58 27 -58 8 0 14 -4 14 -10 0 -11 101 -14 136 -4 18 5 32 36 77 172 l55 167 1 -158 c1 -186 2 -187 87 -187 46 0 60 4 75 22 11 11 19 25 19 29 0 5 7 17 15 26 8 10 21 27 29 38 14 19 15 16 16 -33 0 -70 13 -82 89 -82 l61 0 0 35 c0 19 -4 35 -10 35 -5 0 -10 -7 -10 -15 0 -11 -12 -15 -44 -15 l-44 0 -4 83 c-2 45 -1 101 3 125 3 24 2 39 -2 35 -14 -14 -149 -227 -149 -235 0 -5 -20 -8 -45 -8 l-45 0 0 205 0 205 45 0 c33 0 45 -4 45 -15 0 -8 7 -15 15 -15 10 0 15 11 15 35 l0 35 -150 0 c-127 0 -150 -2 -150 -15 0 -8 -4 -15 -9 -15 -5 0 -12 -14 -16 -31 -6 -27 -10 -30 -38 -27 -26 3 -32 9 -41 43 l-12 40 -82 3 -82 3 0 -36 c0 -28 -4 -35 -20 -35 -15 0 -20 7 -20 25 0 19 -7 26 -37 34 -42 12 -256 15 -266 4z m487 -78 l12 -40 60 -3 61 -3 13 46 13 45 48 0 c27 0 49 -4 49 -9 0 -10 -95 -309 -114 -361 -13 -34 -16 -35 -68 -38 l-55 -3 -36 113 c-20 62 -46 142 -57 178 -12 36 -25 78 -30 93 l-9 28 51 -3 c50 -3 51 -4 62 -43z"></path><path id="p1Vn1AfCm" d="M980 3878 c0 -28 34 -128 40 -121 7 7 30 102 30 123 0 6 -16 10 -35 10 -20 0 -35 -5 -35 -12z"></path><path id="pLZcYMhcA" d="M1431 4025 c-23 -35 -41 -69 -41 -75 0 -5 -4 -10 -9 -10 -13 0 -31 -57 -31 -99 l0 -36 25 44 c14 24 48 79 76 122 51 79 52 79 95 79 32 0 44 -4 44 -15 0 -8 5 -15 10 -15 6 0 10 16 10 35 l0 35 -69 0 -69 0 -41 -65z"></path><path id="pMnIgcvcL" d="M2067 4083 c-4 -3 -7 -111 -7 -239 0 -261 -6 -244 82 -244 77 0 78 2 78 199 0 164 -1 171 -20 171 -19 0 -20 -7 -20 -165 l0 -165 -40 0 -40 0 0 205 0 205 116 0 115 0 -3 -37 c-3 -40 0 -38 -70 -42 -27 -2 -21 -30 7 -37 14 -3 41 -4 60 -2 l35 4 0 -63 c0 -56 2 -63 20 -63 19 0 20 7 20 120 l0 120 125 0 125 0 0 -40 0 -40 -80 0 c-73 0 -80 -2 -80 -20 0 -18 7 -20 88 -20 48 0 93 4 100 9 9 5 12 28 10 77 l-3 69 -306 2 c-168 2 -309 0 -312 -4z"></path><path id="pswfaYqSl" d="M2710 4055 c0 -19 5 -35 10 -35 6 0 10 7 10 15 0 11 12 15 45 15 41 0 45 -2 45 -25 0 -18 5 -25 20 -25 15 0 20 7 20 29 0 56 -6 61 -81 61 l-69 0 0 -35z"></path><path id="pZrwri4P8" d="M2903 4075 c-7 -7 -15 -26 -19 -41 -7 -28 -14 -38 -47 -75 -21 -24 -15 -54 9 -45 9 3 19 6 23 6 4 0 21 29 37 65 l29 65 48 0 c26 0 47 -2 47 -5 0 -3 -16 -36 -34 -74 l-35 -68 25 -24 c75 -70 36 -213 -63 -234 -48 -10 -43 -35 7 -35 22 0 40 4 40 9 0 5 10 11 21 13 41 6 64 52 68 139 2 53 0 79 -8 79 -6 0 -11 10 -11 23 0 13 -5 28 -11 34 -7 7 -3 25 15 61 14 28 26 67 26 87 l0 35 -77 0 c-53 -1 -82 -5 -90 -15z"></path><path id="pdEYrj2sX" d="M1803 3970 c-42 -17 -61 -90 -23 -90 11 0 20 7 20 15 0 8 11 22 25 31 23 15 27 15 50 0 33 -22 55 -20 55 4 0 37 -75 61 -127 40z"></path><path id="p1DZdwegA4" d="M577 3963 c-2 -5 -3 -60 -3 -123 l1 -115 41 -3 c51 -4 91 27 100 76 6 28 4 32 -15 32 -11 0 -21 -6 -21 -13 0 -18 -38 -57 -55 -57 -12 0 -15 20 -15 105 0 85 -3 105 -14 105 -8 0 -17 -3 -19 -7z"></path><path id="pZt4UO1Q5" d="M620 3950 c0 -13 7 -20 19 -20 13 0 24 -11 32 -35 13 -35 49 -50 49 -21 0 25 -20 69 -38 82 -27 21 -62 17 -62 -6z"></path><path id="ph08BiSsR" d="M2490 3900 c0 -18 7 -20 65 -20 l65 0 0 -35 0 -35 -65 0 c-58 0 -65 -2 -65 -20 0 -18 7 -20 79 -20 87 0 91 3 91 68 0 79 -3 82 -91 82 -72 0 -79 -2 -79 -20z"></path><path id="p15v1vTEXk" d="M2820 3821 c0 -15 8 -21 33 -23 20 -2 32 -8 32 -18 0 -10 -12 -16 -32 -18 -25 -2 -33 -8 -33 -23 0 -27 72 -27 100 1 43 43 9 100 -60 100 -33 0 -40 -3 -40 -19z"></path><path id="pKEuTrei2" d="M2360 3704 c0 -101 3 -104 129 -104 94 0 101 1 101 20 0 19 -7 20 -95 20 l-95 0 0 70 c0 63 -2 70 -20 70 -18 0 -20 -7 -20 -76z"></path><path id="pysM8LCsm" d="M2490 3740 c0 -18 7 -20 80 -20 64 0 80 -3 80 -15 0 -8 7 -15 15 -15 10 0 15 11 15 35 l0 35 -95 0 c-88 0 -95 -1 -95 -20z"></path><path id="pcrpnmddE" d="M2650 3664 c0 -9 -9 -18 -20 -21 -35 -9 -24 -33 15 -33 33 0 35 2 35 35 0 24 -5 35 -15 35 -8 0 -15 -7 -15 -16z"></path><path id="pL40ICltr" d="M710 3360 c0 -5 -9 -10 -20 -10 -16 0 -20 -7 -20 -31 l0 -30 28 20 c16 11 40 23 55 26 40 10 34 35 -8 35 -19 0 -35 -4 -35 -10z"></path><path id="p1CalS3ENh" d="M830 3355 c0 -8 6 -15 13 -15 7 0 29 -9 50 -19 l37 -19 0 28 c0 20 -6 29 -22 34 -42 11 -78 7 -78 -9z"></path><path id="p14tZ2xI2l" d="M1097 3363 c-4 -3 -7 -26 -7 -50 0 -51 25 -61 35 -14 3 16 14 31 24 34 30 7 81 -4 81 -19 0 -8 5 -14 10 -14 6 0 10 16 10 35 l0 35 -73 0 c-41 0 -77 -3 -80 -7z"></path><path id="pzhgjfRh7" d="M1390 3335 c0 -19 5 -35 10 -35 6 0 10 6 10 14 0 8 13 15 33 17 48 6 77 -1 77 -17 0 -8 5 -14 10 -14 6 0 10 16 10 35 l0 35 -75 0 -75 0 0 -35z"></path><path id="p12aK2WlJL" d="M1623 3355 c-14 -16 -18 -75 -5 -75 5 0 14 11 22 24 10 20 21 25 67 28 30 1 56 1 58 -1 3 -2 -2 -16 -10 -32 -20 -37 -19 -39 9 -39 36 0 51 66 22 96 -20 19 -146 19 -163 -1z"></path><path id="pevkRsM2B" d="M1820 3335 c0 -19 5 -35 10 -35 6 0 10 6 10 14 0 29 106 27 113 -3 3 -9 5 1 6 22 l1 37 -70 0 -70 0 0 -35z"></path><path id="p2ZpHVoCl" d="M2020 3335 c0 -19 5 -35 10 -35 6 0 10 7 10 15 0 12 13 15 55 15 30 0 54 -3 54 -7 -4 -25 3 -43 16 -43 20 0 20 56 1 76 -10 9 -37 14 -80 14 l-66 0 0 -35z"></path><path id="pDz9zxbNa" d="M2310 3360 c0 -5 -7 -10 -15 -10 -8 0 -15 -6 -15 -14 0 -8 -5 -16 -11 -18 -6 -2 -9 -19 -7 -38 l3 -35 30 42 c29 42 32 43 80 40 l50 -2 1 -70 c2 -101 2 -105 19 -105 12 0 15 18 15 104 0 99 -1 104 -22 110 -37 9 -128 7 -128 -4z"></path><path id="pmfiRUEaC" d="M2760 3356 c0 -8 14 -17 33 -21 17 -4 49 -18 70 -31 l37 -24 0 30 c0 28 -3 30 -35 30 -24 0 -35 5 -35 15 0 10 -11 15 -35 15 -24 0 -35 -5 -35 -14z"></path><path id="p1EL2DBiJl" d="M963 3235 c6 -19 16 -35 24 -35 8 0 13 13 13 35 0 30 -3 35 -24 35 -23 0 -24 -2 -13 -35z"></path><path id="pubikDvTE" d="M1570 3235 c0 -53 13 -46 48 28 2 4 -8 7 -22 7 -23 0 -26 -4 -26 -35z"></path><path id="pAz4dWsUx" d="M2918 3179 c3 -85 2 -91 -17 -96 -35 -9 -25 -33 13 -33 43 0 46 8 46 126 0 91 -1 94 -22 94 -22 0 -23 -2 -20 -91z"></path><path id="pxCtRWHER" d="M610 3225 c0 -34 1 -35 38 -35 30 1 34 3 20 11 -10 5 -18 21 -18 34 0 18 -5 25 -20 25 -16 0 -20 -7 -20 -35z"></path><path id="pe8oOp19z" d="M748 3228 c-21 -21 -21 -23 -5 -26 34 -7 67 7 67 28 0 27 -34 26 -62 -2z"></path><path id="pPR2ORRXu" d="M2708 3243 c-10 -2 -18 -11 -18 -19 0 -8 8 -14 18 -15 10 0 12 -3 5 -6 -18 -7 -17 -73 1 -73 7 0 16 9 19 20 4 16 14 20 46 20 48 0 64 22 36 48 -13 13 -19 14 -22 5 -7 -18 -23 -16 -23 2 0 8 -4 15 -9 15 -5 0 -15 2 -23 4 -7 2 -21 2 -30 -1z"></path><path id="p1GNMlXudX" d="M830 3215 c0 -20 -5 -25 -25 -25 -14 0 -25 -4 -25 -10 0 -5 -11 -10 -25 -10 -18 0 -25 -5 -25 -20 0 -25 16 -25 73 -1 51 22 70 47 56 74 -14 25 -29 21 -29 -8z"></path><path id="px3BJNjUp" d="M2148 3213 c-9 -35 -9 -148 0 -138 5 6 25 34 46 63 l38 52 -26 0 c-19 0 -26 5 -26 20 0 25 -26 27 -32 3z"></path><path id="p16yYC1vsh" d="M2476 3168 c-10 -86 -8 -98 14 -98 17 0 20 7 20 44 0 24 3 58 6 75 6 26 4 31 -13 31 -17 0 -21 -9 -27 -52z"></path><path id="p162DpGt7l" d="M2630 3181 c-16 -31 -12 -51 10 -51 16 0 20 7 20 35 0 39 -14 46 -30 16z"></path><path id="pWVGEgVra" d="M951 3135 l-20 -35 29 0 c28 0 30 3 30 35 0 19 -4 35 -9 35 -5 0 -18 -16 -30 -35z"></path><path id="p18X9LJcUX" d="M1732 3115 c29 -44 38 -44 38 0 0 32 -2 35 -30 35 l-30 0 22 -35z"></path><path id="pZry9OoTM" d="M2300 3121 c-13 -26 -13 -31 4 -31 7 0 16 11 18 25 6 30 -7 33 -22 6z"></path><path id="pSacP8wFd" d="M647 3123 c-4 -3 -7 -17 -7 -30 0 -12 -4 -23 -10 -23 -6 0 -10 -26 -10 -59 0 -97 25 -141 79 -141 37 0 40 12 7 30 -33 17 -59 84 -51 130 4 19 21 50 38 68 l31 32 -35 0 c-20 0 -39 -3 -42 -7z"></path><path id="p4lbJkhzD" d="M2428 3093 c-6 -28 2 -53 18 -53 9 0 14 11 14 35 0 37 -24 50 -32 18z"></path><path id="pivAJdiOf" d="M1523 3084 c-8 -21 -6 -22 67 -29 65 -7 65 -7 45 13 -26 25 -104 37 -112 16z"></path><path id="p1DGUblpaR" d="M838 3063 c-33 -8 -20 -33 17 -33 19 0 35 -4 35 -8 0 -5 16 -13 35 -19 33 -11 35 -10 35 13 0 21 -5 24 -35 24 -24 0 -35 5 -35 15 0 15 -17 17 -52 8z"></path><path id="p1HqLEbw0u" d="M2480 3025 c0 -28 4 -35 20 -35 21 0 24 10 14 48 -10 36 -34 27 -34 -13z"></path><path id="p2Bjq2G3R" d="M2239 3024 c-20 -25 -79 -119 -79 -127 0 -4 11 -7 25 -7 21 0 25 5 25 30 0 23 4 30 20 30 21 0 34 32 28 70 -3 22 -4 22 -19 4z"></path><path id="p1B4cxKDcM" d="M1520 2990 c0 -13 7 -20 20 -20 13 0 20 7 20 20 0 13 -7 20 -20 20 -13 0 -20 -7 -20 -20z"></path><path id="pyJIkpJrV" d="M2429 2998 c-1 -7 -2 -35 -3 -63 -2 -38 -6 -51 -19 -53 -33 -7 -19 -32 18 -32 l35 0 0 80 c0 64 -3 80 -15 80 -8 0 -16 -6 -16 -12z"></path><path id="p5G7mme5M" d="M790 2980 c0 -14 7 -20 23 -20 13 0 32 9 42 20 18 20 17 20 -23 20 -35 0 -42 -3 -42 -20z"></path><path id="pyWeb4OfB" d="M955 2964 c-18 -45 -18 -44 0 -44 10 0 15 -10 15 -30 0 -28 3 -30 35 -30 19 0 35 5 35 10 0 6 -6 10 -14 10 -17 0 -30 51 -21 80 3 11 13 20 21 20 8 0 14 5 14 10 0 6 -16 10 -35 10 -30 0 -37 -4 -50 -36z"></path><path id="pEjzSx5bl" d="M2690 2986 c0 -17 37 -27 68 -19 41 10 26 33 -23 33 -32 0 -45 -4 -45 -14z"></path><path id="pMZCoIFs5" d="M1347 2900 c-4 -17 -14 -20 -66 -20 -54 0 -61 -2 -61 -20 0 -18 7 -20 64 -20 86 0 96 5 96 46 0 38 -24 48 -33 14z"></path><path id="p1BDv1c5LG" d="M2813 2886 c-61 -24 -70 -46 -18 -46 19 0 35 5 35 10 0 6 11 10 25 10 20 0 25 5 25 25 0 29 1 29 -67 1z"></path><path id="p1CTpWzd9o" d="M1303 2763 c-12 -4 -19 -53 -8 -53 15 0 85 42 85 50 0 10 -55 12 -77 3z"></path><path id="pLQhl2uGr" d="M1183 2660 c-3 -11 -9 -20 -14 -20 -5 0 -9 -16 -9 -35 0 -19 3 -35 8 -35 4 1 24 25 45 55 l38 55 -32 0 c-22 0 -32 -5 -36 -20z"></path><path id="p1EbUsW9BX" d="M1709 2653 c11 -16 36 -46 55 -68 l35 -40 1 38 c0 33 -3 37 -25 37 -21 0 -25 5 -25 30 0 27 -3 30 -31 30 l-30 0 20 -27z"></path><path id="p18ODLBGYP" d="M1550 2537 c-44 -11 -69 -33 -86 -74 -19 -45 -17 -63 6 -63 15 0 20 7 20 25 0 14 5 25 10 25 6 0 10 9 10 20 0 13 7 20 20 20 11 0 20 5 20 10 0 6 16 10 35 10 23 0 35 5 35 14 0 19 -28 24 -70 13z"></path><path id="pUOrgRBi6" d="M1120 2500 c0 -45 23 -57 34 -17 11 41 7 57 -14 57 -17 0 -20 -7 -20 -40z"></path><path id="pFjFRWHJ6" d="M1680 2446 c0 -20 4 -36 9 -36 5 0 12 -11 15 -25 4 -14 11 -25 16 -25 6 0 10 -7 10 -15 0 -9 9 -15 25 -15 14 0 25 3 25 6 0 12 -70 121 -85 134 -13 11 -15 7 -15 -24z"></path><path id="p1Bdbz6DA7" d="M1872 2435 c29 -44 38 -44 38 0 0 32 -2 35 -30 35 l-30 0 22 -35z"></path><path id="pr3TIiyWG" d="M1120 2410 c0 -33 3 -40 20 -40 21 0 25 16 14 58 -11 39 -34 27 -34 -18z"></path><path id="p11y2WXD2c" d="M1910 2384 c0 -12 34 -64 42 -64 4 0 8 16 8 35 0 31 -3 35 -25 35 -14 0 -25 -3 -25 -6z"></path><path id="pzXSduoEu" d="M1470 2345 c0 -8 9 -38 19 -67 11 -29 22 -68 26 -85 9 -45 35 -44 35 2 0 19 -4 35 -10 35 -5 0 -10 16 -10 35 0 19 -4 35 -10 35 -5 0 -10 14 -10 30 0 23 -4 30 -20 30 -11 0 -20 -7 -20 -15z"></path><path id="p19Y6wN35a" d="M1140 2314 c0 -50 22 -104 42 -104 22 0 22 9 1 77 -18 56 -43 72 -43 27z"></path><path id="p1CWQbkl8A" d="M2010 2198 c0 -30 13 -58 26 -58 9 0 14 12 14 35 0 28 -4 35 -20 35 -11 0 -20 -6 -20 -12z"></path><path id="p153anGb9H" d="M1210 2116 c0 -32 3 -36 25 -36 24 0 25 1 12 32 -19 46 -37 48 -37 4z"></path><path id="pV6TWl1fI" d="M2040 2083 c0 -23 40 -103 51 -103 5 0 9 16 9 35 0 19 -4 35 -10 35 -5 0 -10 11 -10 25 0 18 -5 25 -20 25 -12 0 -20 -7 -20 -17z"></path><path id="pIyZ3HYBi" d="M1860 2060 c0 -32 9 -37 28 -18 19 19 15 48 -8 48 -16 0 -20 -7 -20 -30z"></path><path id="p19nB3VIG4" d="M1558 2061 c9 -25 59 -81 72 -81 6 0 10 11 10 25 0 18 -5 25 -20 25 -15 0 -20 7 -20 25 0 20 -5 25 -25 25 -20 0 -23 -4 -17 -19z"></path><path id="pKi8vCDaP" d="M1250 2026 c0 -32 3 -36 25 -36 24 0 25 1 12 32 -19 46 -37 48 -37 4z"></path><path id="puxNWqK92" d="M1710 2000 c0 -21 10 -24 48 -14 36 10 27 34 -13 34 -28 0 -35 -4 -35 -20z"></path><path id="pcHH1bkoW" d="M2179 1883 c44 -57 69 -99 76 -131 9 -44 35 -42 35 3 0 19 -4 35 -10 35 -5 0 -10 11 -10 25 0 18 -5 25 -19 25 -15 0 -21 8 -23 33 -3 28 -7 32 -37 35 l-34 3 22 -28z"></path><path id="p16bUXIgtL" d="M1838 1893 c-33 -8 -20 -33 17 -33 28 0 35 4 35 20 0 20 -14 23 -52 13z"></path><path id="pbe202kDE" d="M1930 1881 c0 -17 6 -21 30 -21 17 0 30 -4 30 -10 0 -5 16 -10 35 -10 19 0 35 5 35 11 0 11 -55 37 -101 46 -25 5 -29 2 -29 -16z"></path><path id="pTM2dVOl0" d="M1737 1863 c-26 -7 -2 -33 29 -33 17 0 24 6 24 20 0 20 -14 23 -53 13z"></path><path id="pOGIpgIIp" d="M1340 1816 c0 -24 5 -36 14 -36 9 0 15 -16 19 -45 6 -54 8 -58 36 -53 20 3 19 5 -12 82 -36 89 -57 108 -57 52z"></path><path id="p2IlzZij4" d="M1832 1798 c3 -7 26 -21 51 -30 l47 -18 0 24 c0 25 -21 36 -73 36 -19 0 -27 -4 -25 -12z"></path><path id="pdGXWgMEa" d="M2120 1766 c0 -19 4 -36 9 -38 5 -1 11 -16 13 -33 3 -16 3 -24 1 -17 -3 7 -20 12 -41 12 l-37 -1 30 -25 c17 -14 45 -39 62 -56 l33 -30 -1 59 c0 40 -8 74 -26 111 -28 60 -43 66 -43 18z"></path><path id="p2qR5Vk2Z" d="M1990 1732 c0 -8 52 -42 64 -42 3 0 6 11 6 25 0 22 -4 25 -35 25 -19 0 -35 -4 -35 -8z"></path><path id="pb1OkMcPx" d="M1410 1635 c0 -28 4 -35 20 -35 21 0 24 10 14 48 -10 36 -34 27 -34 -13z"></path><path id="p4G2t4tti" d="M2280 1648 c0 -30 13 -58 26 -58 9 0 14 12 14 35 0 28 -4 35 -20 35 -11 0 -20 -6 -20 -12z"></path><path id="p6lv9xLhL" d="M1801 1551 c-27 -37 -27 -61 -1 -61 15 0 20 7 20 25 0 18 5 25 20 25 13 0 20 7 20 20 0 30 -35 25 -59 -9z"></path><path id="p8311bB6k" d="M1900 1440 c0 -6 -21 -8 -57 -4 l-58 6 21 -21 c33 -36 117 -30 142 9 11 18 10 20 -18 20 -16 0 -30 -5 -30 -10z"></path><path id="pnOTAryLH" d="M2303 1380 c23 -76 47 -94 47 -35 0 19 -4 35 -10 35 -5 0 -10 16 -10 35 0 30 -3 35 -24 35 l-23 0 20 -70z"></path><path id="p16kkH5Ani" d="M1500 1344 c0 -14 10 -59 23 -100 16 -55 26 -74 40 -74 23 0 22 10 -9 113 -17 53 -32 87 -41 87 -7 0 -13 -11 -13 -26z"></path><path id="pp4okxdsO" d="M2340 1228 c0 -30 13 -58 26 -58 9 0 14 12 14 35 0 28 -4 35 -20 35 -11 0 -20 -6 -20 -12z"></path><path id="pYHF23GN" d="M1923 1158 c-56 -14 -101 -98 -53 -98 13 0 22 9 26 25 3 14 12 25 19 25 7 0 15 5 17 10 5 15 68 0 68 -16 0 -8 5 -14 10 -14 6 0 10 -7 10 -15 0 -8 9 -15 20 -15 30 0 25 33 -10 68 -33 34 -62 42 -107 30z"></path><path id="pVwHDBstF" d="M1570 1117 c0 -37 22 -137 30 -137 4 0 10 -18 14 -40 3 -22 11 -40 16 -40 6 0 10 -7 10 -15 0 -10 10 -15 31 -15 l30 0 -20 28 c-27 38 -56 114 -71 185 -7 37 -16 57 -26 57 -8 0 -14 -10 -14 -23z"></path><path id="p10U55XF8Y" d="M2380 1030 c0 -37 24 -110 36 -110 15 0 17 23 8 83 -5 27 -11 37 -25 37 -11 0 -19 -4 -19 -10z"></path><path id="plngqwJTK" d="M1902 978 c8 -22 54 -33 83 -20 41 19 29 32 -31 32 -40 0 -55 -3 -52 -12z"></path><path id="pEnd5RQtk" d="M284 903 c12 -87 17 -103 33 -103 13 0 15 9 9 53 -3 28 -6 62 -6 75 0 16 -6 22 -21 22 -20 0 -21 -4 -15 -47z"></path><path id="pPbjpiY46" d="M3260 918 c0 -18 -7 -58 -15 -88 -19 -70 -19 -110 -1 -110 14 0 39 85 51 178 6 48 5 52 -14 52 -17 0 -21 -6 -21 -32z"></path><path id="puObdl0Ml" d="M2414 823 c4 -21 0 -61 -7 -90 -14 -52 -14 -53 8 -53 25 0 35 34 35 128 0 46 -2 52 -21 52 -18 0 -20 -4 -15 -37z"></path><path id="p15AFEy6aS" d="M1750 816 c0 -24 17 -36 51 -36 10 0 19 -4 19 -9 0 -5 14 -12 31 -16 21 -5 29 -11 25 -22 -3 -8 -6 -23 -6 -34 0 -12 -7 -19 -18 -19 -22 0 -42 -39 -42 -80 0 -45 22 -36 47 18 13 26 34 62 48 81 14 19 25 38 25 42 0 16 -43 48 -74 55 -17 3 -36 10 -41 15 -6 4 -23 12 -38 18 -25 10 -27 8 -27 -13z"></path><path id="pK8jxbXTf" d="M315 753 c9 -51 41 -123 54 -123 17 0 13 67 -4 84 -8 8 -15 28 -15 45 0 25 -4 31 -21 31 -19 0 -21 -4 -14 -37z"></path><path id="p1FLNEfzyi" d="M3190 644 c0 -44 18 -42 37 4 13 31 12 32 -12 32 -22 0 -25 -4 -25 -36z"></path><path id="pxnYZvGlb" d="M2028 633 c-36 -9 -20 -33 22 -33 29 0 40 4 40 15 0 8 -4 15 -9 15 -5 0 -15 2 -23 4 -7 2 -21 2 -30 -1z"></path><path id="pszwfRJQF" d="M2354 603 c-35 -69 -105 -173 -131 -193 -14 -11 -48 -28 -75 -37 -57 -21 -64 -43 -13 -43 19 0 35 5 35 10 0 6 9 10 19 10 37 0 51 12 51 41 0 26 4 29 30 29 27 0 30 3 30 30 0 23 4 30 20 30 16 0 20 7 20 35 0 28 4 35 19 35 21 0 31 19 31 61 0 39 -13 36 -36 -8z"></path><path id="p1dNarBPz" d="M1969 576 c-15 -31 -5 -70 24 -96 l22 -21 3 28 c2 15 -1 29 -7 31 -6 2 -11 21 -11 43 0 44 -15 51 -31 15z"></path><path id="pkYe6zJJX" d="M1810 525 c0 -30 3 -35 24 -35 23 0 24 2 13 35 -6 19 -16 35 -24 35 -8 0 -13 -13 -13 -35z"></path><path id="p11aDQPoKT" d="M3100 494 c0 -39 9 -38 40 6 l21 30 -30 0 c-29 0 -31 -3 -31 -36z"></path><path id="p18qfWbayF" d="M1860 447 c0 -41 12 -51 55 -45 l26 3 -40 40 -41 39 0 -37z"></path><path id="pxLoeWcRP" d="M2990 395 c0 -21 -5 -25 -29 -25 -45 0 -61 -10 -61 -36 0 -13 4 -24 9 -24 11 0 109 66 136 91 19 19 19 19 -18 19 -33 0 -37 -3 -37 -25z"></path><path id="pR1OV7RXo" d="M536 399 c8 -13 124 -89 136 -89 4 0 8 11 8 25 0 18 -7 26 -25 31 -14 3 -25 10 -25 15 0 5 -7 9 -15 9 -8 0 -15 5 -15 10 0 6 -16 10 -36 10 -23 0 -33 -4 -28 -11z"></path><path id="p11ZxeU7HF" d="M2790 301 c0 -5 -22 -12 -50 -16 -41 -6 -50 -10 -50 -27 0 -18 4 -19 42 -13 53 9 128 41 128 55 0 5 -16 10 -35 10 -19 0 -35 -4 -35 -9z"></path><path id="pOFLtDndV" d="M820 266 c0 -13 28 -26 58 -26 6 0 12 9 12 20 0 16 -7 20 -35 20 -23 0 -35 -5 -35 -14z"></path><path id="pBMfaApcJ" d="M940 246 c0 -13 28 -26 58 -26 6 0 12 9 12 20 0 16 -7 20 -35 20 -23 0 -35 -5 -35 -14z"></path></g></g><g id="l7klog2TzI3q2Yk7g8anbHi" fill="rgb(181,101,20)" style="transform: none;"><g><path id="p1Cn0GyfN0" d="M885 4464 c-150 -29 -269 -95 -380 -209 -92 -94 -136 -163 -178 -278 -26 -71 -30 -99 -34 -207 -2 -69 -4 -167 -6 -217 l-3 -93 1506 0 1506 0 -3 83 c-1 45 -5 140 -7 212 -6 199 -60 341 -179 471 -119 130 -246 202 -423 239 -99 21 -1693 20 -1799 -1z m1039 -410 c69 -24 96 -68 96 -156 0 -78 -1 -79 -105 -75 l-60 2 -3 43 c-3 42 -3 42 32 42 44 0 56 18 26 42 -29 24 -91 24 -121 -1 -22 -17 -24 -27 -24 -101 0 -77 2 -83 28 -106 36 -31 68 -30 107 3 31 25 32 26 66 10 39 -19 44 -43 14 -75 -38 -40 -78 -54 -145 -50 -48 3 -71 10 -97 30 -51 39 -81 108 -81 188 0 169 114 256 267 204z m-1234 -4 c43 -12 93 -61 114 -112 32 -76 15 -191 -37 -246 -41 -45 -76 -55 -174 -54 -51 0 -97 3 -103 7 -11 7 -15 397 -3 408 10 11 164 8 203 -3z m256 -35 l11 -40 59 -3 59 -3 15 43 c15 43 15 43 65 43 44 0 50 -2 47 -20 -2 -11 -31 -104 -64 -207 l-61 -188 -35 -6 c-60 -11 -84 4 -103 66 -9 30 -38 120 -63 200 -25 80 -46 149 -46 153 0 4 24 7 52 5 52 -3 53 -3 64 -43z m404 -77 l0 -122 76 123 76 122 41 -3 42 -3 0 -209 0 -209 -35 -2 c-59 -2 -61 4 -54 134 l6 116 -79 -125 c-75 -118 -82 -125 -114 -127 -59 -3 -60 1 -59 210 1 104 4 196 7 203 3 9 21 14 49 14 l44 0 0 -122z m988 75 c4 -48 7 -46 -85 -43 l-63 2 0 -159 c0 -168 -4 -183 -46 -183 -55 0 -54 -4 -54 214 0 112 3 206 7 210 4 3 59 5 122 4 l116 -3 3 -42z m320 0 c4 -50 -6 -55 -106 -51 l-62 3 0 -37 0 -38 64 0 c60 0 64 -1 70 -26 14 -53 1 -64 -70 -64 l-64 0 0 -35 0 -35 80 0 80 0 0 -45 0 -45 -37 -1 c-21 0 -75 -3 -120 -5 -58 -3 -84 -1 -89 8 -9 15 -17 362 -9 396 5 22 8 23 133 20 l127 -3 3 -42z m163 35 c0 -7 0 -39 -1 -70 -1 -56 -1 -58 24 -58 23 0 31 10 59 68 l33 67 52 3 c28 2 52 1 52 -2 0 -3 -17 -40 -37 -82 -35 -69 -37 -76 -20 -85 22 -13 47 -72 47 -111 0 -46 -26 -96 -62 -118 -27 -17 -50 -20 -135 -20 l-103 0 0 203 c0 112 3 207 7 210 12 13 83 8 84 -5z"></path><path id="p9vLOmQnE" d="M580 3850 l0 -120 44 0 c64 0 96 39 96 116 0 80 -40 124 -111 124 l-29 0 0 -120z"></path><path id="p9D8VlDRU" d="M991 3858 c0 -13 6 -41 13 -63 l13 -40 7 30 c4 17 12 43 17 59 5 16 9 31 9 32 0 2 -13 4 -30 4 -25 0 -30 -4 -29 -22z"></path><path id="pojvsb8q7" d="M2827 3834 c-4 -4 -7 -29 -7 -55 0 -52 13 -63 58 -53 39 10 52 23 52 54 0 15 -6 32 -12 38 -17 14 -81 25 -91 16z"></path></g></g><g id="l1AdasBm3rFap8eKKBzViCH" fill="rgb(123,115,83)" style="transform: none;"><g><path id="p1DkVgi2Cj" d="M280 2213 c0 -703 3 -1288 6 -1300 4 -13 13 -23 20 -23 12 0 14 200 14 1300 0 1293 0 1300 -20 1300 -20 0 -20 -7 -20 -1277z"></path><path id="pIey3i4W7" d="M3260 2190 c0 -1100 2 -1300 14 -1300 7 0 16 10 20 22 3 13 6 598 6 1301 0 1270 0 1277 -20 1277 -20 0 -20 -7 -20 -1300z"></path><path id="p18wTZ8jGR" d="M760 3361 c0 -16 9 -19 65 -23 69 -4 102 -24 131 -80 19 -37 34 -35 34 5 0 43 -25 77 -56 77 -14 0 -24 6 -24 14 0 8 -17 16 -46 20 -82 11 -104 8 -104 -13z"></path><path id="p1T77j5cZ" d="M2648 3373 c-16 -2 -28 -11 -28 -19 0 -9 -11 -14 -30 -14 -25 0 -30 -4 -30 -25 0 -20 -5 -25 -25 -25 -15 0 -25 -6 -25 -14 0 -8 -5 -16 -11 -18 -36 -12 -39 -278 -3 -278 9 0 14 -11 14 -31 0 -22 5 -32 20 -36 11 -3 20 -12 20 -20 0 -23 89 -56 168 -61 50 -3 72 -1 72 7 0 6 16 11 35 11 19 0 35 5 35 10 0 6 9 10 20 10 15 0 20 7 20 25 0 20 5 25 25 25 23 0 25 3 25 49 0 48 -1 49 -40 65 -22 9 -61 16 -86 16 -37 0 -47 -4 -51 -20 -3 -11 -12 -20 -19 -20 -8 0 -14 -9 -14 -20 0 -28 28 -25 61 6 l27 26 46 -21 c25 -11 46 -24 46 -29 0 -21 -42 -61 -85 -81 -64 -30 -146 -28 -212 4 -65 33 -102 85 -112 160 -23 170 63 285 215 285 34 0 74 -4 88 -10 23 -9 26 -7 26 14 0 19 -7 24 -37 30 -40 6 -110 6 -155 -1z"></path><path id="psqoZkMR8" d="M1190 3357 c0 -8 9 -17 20 -20 19 -5 20 -14 20 -181 0 -170 1 -176 20 -176 20 0 20 5 18 193 l-3 192 -37 3 c-28 2 -38 -1 -38 -11z"></path><path id="pVPWwTcO2" d="M1480 3356 c0 -7 9 -16 20 -19 18 -5 20 -14 20 -81 l0 -76 28 0 c24 0 32 9 65 76 24 47 45 78 57 81 35 9 23 33 -15 33 -33 0 -35 -2 -35 -35 0 -28 -4 -35 -20 -35 -12 0 -21 -8 -24 -22 -3 -13 -7 -32 -9 -43 -3 -11 -5 -2 -6 20 -1 22 -4 57 -7 78 -6 34 -9 37 -40 37 -22 0 -34 -5 -34 -14z"></path><path id="p1GanEzPiq" d="M1730 3355 c0 -8 6 -15 14 -15 29 0 26 -19 -15 -94 -33 -62 -39 -79 -29 -91 7 -8 15 -15 19 -15 12 0 61 109 61 135 0 14 5 25 10 25 6 0 10 16 10 35 0 33 -2 35 -35 35 -24 0 -35 -5 -35 -15z"></path><path id="p18ybMligp" d="M1810 3335 c0 -39 24 -50 33 -15 3 11 12 20 21 20 9 0 16 7 16 15 0 10 -11 15 -35 15 -33 0 -35 -2 -35 -35z"></path><path id="pDzZMIU25" d="M1900 3356 c0 -8 11 -17 25 -20 14 -4 25 -13 25 -21 0 -8 5 -15 10 -15 6 0 10 16 10 35 0 33 -2 35 -35 35 -23 0 -35 -5 -35 -14z"></path><path id="pqPOjfsqS" d="M2100 3356 c0 -8 11 -17 25 -20 14 -4 25 -13 25 -21 0 -8 5 -15 10 -15 6 0 10 16 10 35 0 33 -2 35 -35 35 -23 0 -35 -5 -35 -14z"></path><path id="pbHULc139" d="M2300 3355 c0 -8 -7 -15 -15 -15 -10 0 -15 -10 -15 -30 0 -23 -4 -30 -20 -30 -11 0 -20 -4 -20 -10 0 -5 -9 -19 -20 -30 -11 -11 -20 -29 -20 -40 0 -11 -6 -20 -14 -20 -9 0 -18 -18 -24 -47 -10 -47 -8 -68 6 -47 74 116 170 245 185 250 29 9 87 -5 87 -21 0 -8 5 -15 10 -15 6 0 10 16 10 35 l0 35 -75 0 c-60 0 -75 -3 -75 -15z"></path><path id="pmHvPZcFc" d="M640 3316 c0 -8 -5 -16 -12 -18 -6 -2 -13 -30 -16 -61 -4 -55 -4 -57 24 -67 59 -21 61 -23 42 -27 -10 -3 -18 -11 -18 -19 0 -8 -6 -14 -14 -14 -15 0 -26 -30 -26 -72 0 -42 25 -34 38 11 14 44 37 62 119 92 32 12 64 26 71 32 19 15 14 55 -7 67 -31 16 -51 12 -51 -10 0 -11 4 -20 10 -20 5 0 7 -7 4 -15 -11 -28 -31 -17 -26 15 2 17 0 30 -6 30 -14 0 -42 -28 -42 -42 0 -13 -57 -3 -76 13 -17 14 -2 54 34 92 l26 27 -37 0 c-25 0 -37 -5 -37 -14z"></path><path id="pQw3bkI88" d="M2850 3325 c0 -3 16 -19 35 -36 19 -17 38 -42 41 -55 10 -38 34 -30 34 11 0 28 -4 35 -20 35 -15 0 -20 7 -20 25 0 22 -4 25 -35 25 -19 0 -35 -2 -35 -5z"></path><path id="p5xuuh2AU" d="M2667 3229 c-19 -11 -47 -67 -47 -94 0 -30 36 -16 48 19 17 46 42 56 42 16 0 -17 5 -30 10 -30 6 0 10 7 10 15 0 16 3 17 59 19 42 1 49 18 22 45 -24 24 -61 28 -61 6 0 -8 -7 -15 -15 -15 -8 0 -15 7 -15 15 0 17 -27 19 -53 4z"></path><path id="psUw7KW7p" d="M965 3161 c-9 -43 -54 -79 -131 -103 -61 -20 -69 -26 -72 -50 -3 -21 2 -30 20 -39 28 -12 75 2 84 26 12 32 94 11 94 -24 0 -29 -52 -78 -98 -92 -48 -14 -57 -39 -13 -39 47 0 91 20 91 41 0 12 7 19 20 19 15 0 20 7 20 25 0 14 5 25 11 25 6 0 9 16 7 38 -3 34 -6 37 -35 40 -18 2 -33 7 -33 12 0 5 -8 11 -17 13 -10 3 -4 5 13 6 34 1 54 17 54 43 0 10 5 18 10 18 6 0 10 16 10 35 0 43 -26 48 -35 6z"></path><path id="pM29RG8MP" d="M2231 3010 l-84 -130 -53 0 c-42 0 -53 4 -57 18 -3 9 -5 0 -6 -20 l-1 -38 65 0 c51 0 65 3 65 15 0 8 9 15 20 15 11 0 20 5 20 11 0 6 7 17 15 25 8 9 15 29 15 45 0 22 5 29 20 29 11 0 20 7 20 15 0 8 5 15 10 15 6 0 10 7 10 15 0 8 4 15 10 15 10 0 24 59 18 84 -2 9 -38 -38 -87 -114z"></path><path id="p7kSPCZSr" d="M2926 3105 c-4 -14 -13 -25 -21 -25 -8 0 -15 -4 -15 -10 0 -5 16 -10 35 -10 33 0 35 2 35 35 0 41 -24 49 -34 10z"></path><path id="pHvqQ32NU" d="M1753 3075 c6 -19 16 -35 24 -35 8 0 13 13 13 35 0 30 -3 35 -24 35 -23 0 -24 -2 -13 -35z"></path><path id="poP7FDlAe" d="M2620 3080 c0 -33 27 -88 48 -99 55 -29 69 1 22 47 -16 17 -30 40 -30 51 0 14 -6 21 -20 21 -13 0 -20 -7 -20 -20z"></path><path id="pjHHlNf3I" d="M1522 3033 l3 -58 38 -3 c51 -4 87 19 87 56 0 27 -15 52 -32 52 -4 0 -8 -16 -8 -35 0 -31 -3 -35 -25 -35 -22 0 -25 4 -25 40 0 34 -3 40 -20 40 -19 0 -21 -5 -18 -57z"></path><path id="pPr9yMHoB" d="M1755 2990 c-9 -40 -42 -80 -81 -96 -22 -9 -73 -14 -145 -14 -102 0 -111 2 -116 20 -3 11 -12 20 -19 20 -20 0 -19 -66 2 -74 49 -19 324 1 324 24 0 4 9 10 20 13 15 4 20 14 20 36 0 21 5 31 15 31 10 0 15 11 15 35 0 44 -26 48 -35 5z"></path><path id="pJM84EfYf" d="M1310 2995 c0 -8 7 -15 16 -15 9 0 18 -9 21 -20 9 -35 33 -24 33 15 0 33 -2 35 -35 35 -24 0 -35 -5 -35 -15z"></path><path id="pZjEZM45a" d="M620 2966 c0 -47 9 -66 31 -66 12 0 19 -7 19 -19 0 -21 44 -41 91 -41 38 0 38 26 1 35 -53 11 -90 42 -103 85 -15 50 -39 54 -39 6z"></path><path id="pcd2rCVTM" d="M1800 2915 c0 -19 5 -35 10 -35 6 0 10 -9 10 -20 0 -18 7 -20 64 -20 86 0 96 5 96 46 0 38 -24 48 -33 14 -4 -17 -14 -20 -56 -20 l-51 0 0 35 c0 28 -4 35 -20 35 -16 0 -20 -7 -20 -35z"></path><path id="p83doEQHa" d="M990 2877 l0 -37 190 0 190 0 0 35 c0 19 -4 35 -10 35 -5 0 -10 -6 -10 -14 0 -22 -13 -23 -180 -18 -127 3 -157 7 -167 20 -11 13 -13 10 -13 -21z"></path><path id="p1CljusC58" d="M2430 2895 c0 -11 -11 -15 -40 -15 -33 0 -40 -3 -40 -20 0 -17 7 -20 45 -20 45 0 45 0 45 35 0 19 -2 35 -5 35 -3 0 -5 -7 -5 -15z"></path><path id="pIYbEbHRL" d="M1415 2796 c-5 -3 -27 -7 -47 -11 -24 -4 -38 -11 -38 -20 0 -10 -10 -15 -30 -15 -16 0 -30 -4 -30 -9 0 -5 -9 -11 -20 -14 -15 -4 -20 -14 -20 -36 0 -28 -3 -31 -30 -31 -20 0 -30 -5 -30 -15 0 -8 -4 -15 -9 -15 -14 0 -41 -76 -41 -115 0 -50 25 -45 38 8 24 93 114 187 212 222 23 8 72 15 109 15 123 0 197 -53 328 -232 135 -183 190 -283 223 -408 23 -84 52 -142 84 -169 14 -12 16 -10 16 24 0 28 -5 38 -20 42 -11 3 -20 14 -20 24 0 53 -82 289 -101 289 -4 0 -10 11 -13 25 -4 14 -11 25 -16 25 -6 0 -10 7 -10 15 0 8 -4 15 -9 15 -5 0 -12 11 -15 25 -4 14 -13 25 -21 25 -8 0 -15 9 -15 20 0 11 -4 20 -10 20 -5 0 -10 7 -10 15 0 8 -7 15 -15 15 -8 0 -15 9 -15 20 0 11 -7 20 -15 20 -8 0 -15 9 -15 20 0 13 -7 20 -19 20 -14 0 -21 8 -23 28 -2 22 -8 28 -35 30 -29 3 -33 7 -33 33 0 19 -6 32 -17 36 -10 4 -24 13 -31 20 -7 7 -24 13 -37 13 -13 0 -25 5 -27 10 -3 10 -154 24 -173 16z"></path><path id="pgPEHCRy5" d="M1519 2525 c-62 -34 -77 -103 -42 -204 22 -65 43 -79 43 -28 0 20 -5 37 -10 39 -6 2 -11 28 -13 58 -2 49 1 59 25 83 15 15 34 27 43 27 8 0 15 9 15 20 0 24 -23 26 -61 5z"></path><path id="p1GHHdJsP0" d="M1590 2520 c0 -15 9 -22 30 -26 21 -5 30 -12 30 -25 0 -11 5 -19 10 -19 6 0 10 -7 10 -15 0 -8 5 -15 10 -15 6 0 10 -7 10 -15 0 -9 9 -15 25 -15 14 0 25 3 25 7 0 14 -64 105 -88 123 -33 26 -62 26 -62 0z"></path><path id="p15Dyo7AXc" d="M1123 2368 c3 -34 10 -64 16 -66 6 -2 11 -17 11 -33 0 -40 51 -169 67 -169 8 0 13 -12 13 -29 0 -39 9 -61 26 -61 9 0 14 -11 14 -27 0 -37 62 -183 78 -183 6 0 12 -12 12 -27 0 -43 11 -73 26 -73 9 0 14 -11 14 -27 -1 -16 21 -99 47 -185 38 -125 52 -158 66 -158 25 0 22 17 -29 179 -50 160 -106 306 -184 481 -93 208 -148 368 -150 433 0 4 -7 7 -16 7 -14 0 -16 -9 -11 -62z"></path><path id="pfhGqr41d" d="M1740 2346 c0 -19 6 -41 14 -48 7 -8 17 -24 20 -36 4 -12 14 -22 22 -22 8 0 14 -9 14 -19 0 -29 11 -51 25 -51 7 0 15 -18 19 -40 5 -31 11 -40 26 -40 14 0 20 7 20 21 0 22 -139 269 -152 269 -4 0 -8 -15 -8 -34z"></path><path id="pl3iOWPe6" d="M1510 2226 c0 -40 54 -180 82 -211 34 -39 68 -47 68 -15 0 14 -7 20 -24 20 -18 0 -25 7 -29 28 -4 15 -19 64 -34 109 -21 62 -33 83 -45 83 -10 0 -18 -7 -18 -14z"></path><path id="p1CCriVwO6" d="M1808 2053 c-26 -14 -66 -27 -88 -30 -30 -4 -40 -10 -40 -24 0 -25 30 -25 115 2 63 19 105 47 105 69 0 17 -42 9 -92 -17z"></path><path id="pS3NNSotG" d="M1798 1878 c-38 -12 -68 -25 -68 -30 0 -8 66 -41 205 -101 60 -26 60 -26 63 -5 5 26 -13 38 -55 38 -20 0 -33 5 -33 13 0 6 -19 20 -43 30 -42 18 -42 19 -17 29 34 14 147 2 166 -17 9 -8 21 -15 29 -15 7 0 15 -7 19 -15 3 -8 12 -15 21 -15 8 0 15 -7 15 -15 0 -8 7 -15 15 -15 9 0 15 -9 15 -25 0 -14 5 -25 10 -25 6 0 10 -7 10 -15 0 -8 -4 -15 -10 -15 -5 0 -10 5 -10 10 0 6 -5 10 -11 10 -6 0 -17 7 -25 15 -16 15 -84 21 -84 7 0 -4 25 -22 55 -40 30 -18 70 -48 90 -66 28 -27 35 -30 35 -16 0 10 -6 21 -12 23 -10 4 -9 8 2 16 12 8 13 17 2 56 -26 96 -78 151 -177 186 -69 24 -122 23 -207 -3z"></path><path id="pibpRnRtY" d="M2214 1838 c25 -37 42 -79 57 -145 15 -67 26 -93 37 -93 12 0 14 9 9 48 -11 91 -28 152 -43 152 -8 0 -14 10 -14 26 0 42 -17 64 -51 64 l-30 0 35 -52z"></path><path id="p10FqGtRsS" d="M1810 1560 c-26 -26 -25 -40 3 -40 28 1 57 22 57 44 0 23 -36 20 -60 -4z"></path><path id="pPBOvE36Y" d="M1880 1560 c0 -13 7 -20 19 -20 21 0 31 -34 23 -75 -3 -16 -11 -25 -23 -25 -12 0 -19 -7 -19 -20 0 -30 34 -25 64 11 15 17 26 43 26 59 0 16 -11 42 -26 59 -30 36 -64 41 -64 11z"></path><path id="pocmJpa4I" d="M2285 1491 c-4 -18 2 -53 15 -92 11 -34 27 -99 36 -143 8 -45 21 -110 29 -146 14 -62 38 -193 50 -272 8 -49 35 -53 35 -5 0 48 -46 291 -106 570 -4 15 -10 27 -15 27 -5 0 -9 20 -9 45 0 52 -24 64 -35 16z"></path><path id="p10ih6rKiN" d="M1780 1470 c0 -12 11 -32 25 -45 26 -27 65 -33 65 -11 0 8 -14 28 -31 45 -35 36 -59 40 -59 11z"></path><path id="pqvbwfNWQ" d="M1530 1237 c0 -19 8 -58 19 -88 10 -31 22 -74 26 -97 4 -23 10 -42 15 -42 4 0 10 -19 13 -42 3 -24 11 -44 16 -46 6 -2 11 -12 11 -23 0 -14 7 -19 30 -19 27 0 30 -3 30 -30 0 -34 23 -50 69 -50 43 0 39 14 -14 44 -78 46 -95 79 -161 324 -17 64 -32 102 -41 102 -8 0 -13 -12 -13 -33z"></path><path id="pmcLVtK3T" d="M1894 1142 c-71 -57 -52 -158 33 -181 92 -26 169 73 116 149 -31 46 -53 52 -53 15 0 -16 6 -25 15 -25 24 0 18 -51 -10 -82 -23 -27 -65 -38 -65 -18 0 6 -7 10 -15 10 -8 0 -17 14 -20 34 -6 27 -2 39 14 55 12 12 26 21 31 21 6 0 10 9 10 20 0 25 -27 26 -56 2z"></path><path id="p0CTo7UBd" d="M290 868 c0 -7 9 -48 19 -91 24 -97 88 -227 140 -287 l40 -45 1 38 c0 31 -4 40 -20 44 -11 3 -20 13 -20 23 0 10 -7 25 -15 34 -8 8 -15 19 -15 25 0 6 -4 11 -9 11 -5 0 -11 14 -14 30 -4 18 -13 30 -22 30 -10 0 -15 9 -15 28 0 15 -8 60 -17 99 -14 56 -22 73 -35 73 -10 0 -18 -6 -18 -12z"></path><path id="pSObFwzF0" d="M3232 793 c-12 -49 -22 -98 -22 -110 0 -13 -6 -23 -14 -23 -7 0 -20 -15 -27 -32 -7 -18 -19 -39 -26 -46 -7 -7 -13 -24 -13 -38 0 -17 -5 -24 -20 -24 -16 0 -20 -7 -20 -34 0 -33 -2 -35 -37 -38 -28 -2 -41 -9 -48 -25 -5 -13 -18 -23 -27 -23 -13 0 -18 -8 -18 -31 l0 -30 46 33 c122 87 221 240 263 405 25 99 26 103 3 103 -13 0 -22 -19 -40 -87z"></path><path id="pfvFPeN4n" d="M1810 784 c0 -21 5 -24 35 -24 22 0 35 5 35 13 0 8 -16 18 -35 24 -33 11 -35 10 -35 -13z"></path><path id="p119xlSYrd" d="M2412 748 c-5 -24 -17 -60 -26 -80 -16 -38 -16 -38 8 -38 25 0 36 16 36 56 0 13 5 24 10 24 6 0 10 18 10 40 0 55 -25 54 -38 -2z"></path><path id="paf45k0IZ" d="M1880 735 c0 -8 -4 -15 -10 -15 -5 0 -10 -11 -10 -25 0 -18 -5 -25 -20 -25 -16 0 -20 -7 -20 -30 0 -16 -5 -30 -11 -30 -17 0 -5 -109 16 -150 9 -18 25 -35 36 -37 10 -3 19 -12 19 -19 0 -8 9 -14 20 -14 11 0 20 -6 20 -13 0 -18 43 -37 80 -37 43 0 37 16 -17 44 -92 48 -143 112 -143 178 0 44 10 67 52 118 33 41 37 70 8 70 -11 0 -20 -7 -20 -15z"></path><path id="pP0EQL4N0" d="M1991 606 c-32 -34 -32 -88 -1 -121 53 -56 150 -17 150 60 0 76 -97 116 -149 61z m91 -33 c10 -9 18 -21 18 -26 0 -21 -34 -47 -60 -47 -29 0 -39 21 -32 68 4 27 46 31 74 5z"></path><path id="pkYdVT2yJ" d="M2298 505 l-47 -75 29 0 c20 0 30 5 30 15 0 8 5 15 10 15 6 0 10 11 10 25 0 16 6 25 15 25 10 0 15 11 15 35 0 19 -3 35 -7 35 -5 0 -29 -34 -55 -75z"></path><path id="pMwtoLrD" d="M545 394 c38 -34 40 -34 43 -14 6 38 -5 50 -45 50 l-38 -1 40 -35z"></path><path id="p1DMtNSp2Z" d="M2163 375 c-43 -18 -42 -35 2 -35 31 0 35 3 35 25 0 14 -1 25 -2 25 -2 -1 -18 -7 -35 -15z"></path><path id="ptM38tHrt" d="M630 341 c0 -11 104 -62 160 -80 36 -11 201 -41 226 -41 8 0 14 9 14 20 0 16 -7 20 -32 20 -37 0 -250 50 -258 60 -19 25 -110 42 -110 21z"></path><path id="pX0O6j3ob" d="M2850 332 c-19 -9 -37 -19 -40 -23 -7 -8 -195 -49 -224 -49 -19 0 -26 -5 -26 -20 0 -25 18 -25 135 0 124 26 255 79 255 102 0 14 -64 7 -100 -10z"></path></g></g><g id="l2np9UvVU4Aifhsot2bpC4T" fill="rgb(173,159,113)" style="transform: none;"><g><path id="pgxjhoRpH" d="M700 3364 c-40 -17 -70 -47 -70 -69 0 -8 -4 -15 -10 -15 -5 0 -10 -16 -10 -35 0 -24 5 -35 15 -35 9 0 15 -9 15 -25 0 -16 6 -25 15 -25 10 0 15 -10 15 -30 0 -25 -4 -30 -24 -30 -21 0 -24 -6 -30 -51 -4 -28 -4 -71 0 -95 6 -40 9 -44 35 -44 25 0 29 -4 29 -29 0 -31 18 -41 73 -41 41 0 33 25 -12 39 -22 6 -52 26 -66 43 -24 29 -27 38 -23 92 4 52 8 63 37 86 17 15 51 33 74 40 97 29 123 63 72 96 -33 21 -68 12 -94 -25 -20 -27 -23 -28 -57 -18 -45 14 -50 26 -29 70 37 79 174 107 255 53 l40 -26 0 30 c0 27 -3 30 -30 30 -20 0 -30 5 -30 15 0 21 -141 20 -190 -1z m110 -164 c0 -5 -7 -10 -15 -10 -8 0 -15 5 -15 10 0 6 7 10 15 10 8 0 15 -4 15 -10z"></path><path id="piGbnp59y" d="M2615 3365 c-22 -8 -41 -19 -43 -25 -2 -5 -8 -10 -14 -10 -13 0 -38 -26 -38 -39 0 -6 -4 -11 -10 -11 -5 0 -10 -16 -10 -35 0 -24 -5 -35 -15 -35 -12 0 -15 14 -15 64 0 86 -5 96 -46 96 -38 0 -48 -24 -14 -33 19 -5 20 -14 20 -230 0 -250 3 -240 -69 -230 -37 5 -41 8 -41 34 0 22 -5 29 -20 29 -16 0 -20 -7 -20 -35 0 -19 5 -35 10 -35 6 0 10 -7 10 -15 0 -12 15 -15 71 -15 90 0 99 8 100 97 0 58 2 64 11 41 5 -16 16 -28 24 -28 8 0 14 -10 14 -25 0 -20 5 -25 25 -25 18 0 25 -5 25 -20 0 -25 80 -50 160 -50 69 0 160 25 160 45 0 7 10 15 23 17 14 2 23 11 25 26 2 12 8 22 13 22 5 0 9 16 9 35 0 33 -2 35 -35 35 -28 0 -35 4 -35 19 0 22 -19 31 -66 31 -27 0 -34 -4 -34 -19 0 -22 -44 -34 -89 -25 -25 5 -30 12 -36 50 -10 69 2 110 36 124 30 13 41 50 14 50 -49 0 -95 -61 -95 -128 0 -48 20 -101 47 -122 37 -29 97 -27 127 5 27 29 33 30 86 9 50 -20 52 -42 5 -83 -32 -28 -116 -61 -155 -61 -36 0 -121 32 -150 57 -36 30 -64 82 -74 136 -4 23 -13 37 -21 37 -8 0 -15 9 -15 20 0 11 7 20 15 20 10 0 17 14 21 41 9 53 58 117 114 149 61 33 156 34 219 1 45 -24 90 -67 91 -88 0 -7 7 -13 15 -13 10 0 15 10 15 33 0 37 -31 71 -92 103 -45 24 -198 30 -253 9z"></path><path id="pxXz3eTy8" d="M2006 3354 c-3 -9 -6 -99 -6 -200 0 -177 1 -184 20 -184 19 0 20 7 20 181 0 172 1 181 20 186 11 3 20 12 20 19 0 20 -66 19 -74 -2z"></path><path id="pdJsNcCvB" d="M2110 3355 c0 -8 7 -15 16 -15 9 0 18 -9 21 -20 9 -35 33 -24 33 15 0 33 -2 35 -35 35 -24 0 -35 -5 -35 -15z"></path><path id="pqNUQ6UKP" d="M1490 3350 c0 -5 7 -10 15 -10 9 0 15 -10 16 -22 1 -13 2 -48 3 -78 2 -51 4 -55 26 -55 21 0 31 13 64 78 22 42 46 77 53 77 7 0 13 5 13 10 0 6 -15 10 -33 10 -26 0 -36 -6 -45 -25 -7 -14 -12 -35 -12 -45 0 -11 -7 -20 -15 -20 -11 0 -15 12 -15 45 0 45 0 45 -35 45 -19 0 -35 -4 -35 -10z"></path><path id="pQJUaypN6" d="M1740 3350 c0 -5 7 -10 15 -10 22 0 19 -12 -25 -99 l-39 -79 20 -18 c12 -11 27 -31 35 -46 20 -38 34 -35 34 7 0 19 -4 35 -10 35 -5 0 -10 7 -10 15 0 7 -8 19 -17 24 -16 9 -16 10 -2 11 19 0 29 20 29 56 0 15 6 24 15 24 13 0 15 -29 15 -205 l0 -205 37 0 c31 0 34 2 21 13 -21 16 -21 6 -19 255 1 181 3 212 16 212 8 0 15 5 15 10 0 6 -28 10 -65 10 -37 0 -65 -4 -65 -10z"></path><path id="p136T8is6J" d="M2248 3300 c-7 -16 -16 -30 -20 -30 -5 0 -8 -13 -8 -30 0 -23 -4 -30 -20 -30 -13 0 -20 -7 -20 -20 0 -11 -7 -20 -15 -20 -11 0 -15 -11 -15 -40 0 -22 2 -40 3 -40 4 0 94 129 145 206 l22 34 -29 0 c-23 0 -32 -7 -43 -30z"></path><path id="p12A9Q1Vcf" d="M963 3245 c6 -19 16 -35 24 -35 8 0 13 13 13 35 0 30 -3 35 -24 35 -23 0 -24 -2 -13 -35z"></path><path id="p18PhsrQYn" d="M2740 3220 c0 -16 7 -20 35 -20 39 0 46 14 16 30 -31 16 -51 12 -51 -10z"></path><path id="p17RIeLn3k" d="M955 3130 c-16 -31 -68 -63 -122 -75 -33 -7 -44 -29 -20 -38 6 -3 -3 -6 -21 -6 -26 -1 -33 -5 -30 -18 2 -13 15 -19 44 -21 35 -3 44 1 58 23 18 27 22 27 83 4 20 -7 21 -12 12 -36 -15 -42 -48 -72 -91 -85 -44 -13 -51 -38 -10 -38 54 0 72 10 72 41 0 22 5 29 19 29 15 0 21 -8 23 -32 3 -30 6 -33 41 -36 27 -2 37 1 37 11 0 8 -9 17 -20 20 -26 7 -42 50 -30 82 9 23 15 25 65 25 49 0 55 2 55 21 0 20 -4 21 -75 17 -56 -2 -75 0 -75 9 0 7 -6 13 -14 13 -9 0 -12 8 -8 25 3 16 11 25 23 25 15 0 19 7 19 35 0 43 -14 45 -35 5z"></path><path id="paeCC4V11" d="M2232 3007 c-45 -70 -87 -128 -92 -128 -31 -4 -77 -5 -87 -1 -7 2 -13 17 -13 33 0 22 -5 29 -20 29 -16 0 -20 -7 -20 -36 0 -52 18 -64 93 -64 74 0 97 6 97 26 0 8 5 14 10 14 6 0 10 11 10 25 0 16 6 25 16 25 9 0 21 14 27 30 6 17 15 30 19 30 4 0 8 7 8 15 0 8 5 15 10 15 6 0 10 13 10 29 0 16 5 31 11 33 6 2 9 15 7 28 -2 20 -18 2 -86 -103z"></path><path id="pbp8XsXIQ" d="M2700 3085 c0 -33 2 -35 35 -35 39 0 50 24 15 33 -11 3 -20 12 -20 21 0 9 -7 16 -15 16 -10 0 -15 -11 -15 -35z"></path><path id="p3dsHZPvB" d="M2930 3104 c0 -9 -9 -18 -20 -21 -35 -9 -24 -33 15 -33 33 0 35 2 35 35 0 24 -5 35 -15 35 -8 0 -15 -7 -15 -16z"></path><path id="p1Gs9QM8Gm" d="M1528 3083 c-1 -5 -2 -29 -2 -55 -1 -39 2 -48 17 -48 14 0 17 9 17 55 0 42 -3 55 -15 55 -8 0 -16 -3 -17 -7z"></path><path id="pRdKS06SP" d="M1570 3070 c0 -11 7 -20 15 -20 13 0 15 -7 9 -35 -5 -31 -4 -35 14 -35 26 0 33 11 34 52 1 19 -6 36 -17 44 -28 21 -55 17 -55 -6z"></path><path id="pDUymNl5E" d="M1240 3000 c0 -18 7 -20 55 -20 42 0 55 -3 55 -15 0 -8 5 -15 10 -15 6 0 10 16 10 35 l0 35 -65 0 c-58 0 -65 -2 -65 -20z"></path><path id="px3sOgf6u" d="M1744 2962 c-31 -70 -69 -86 -204 -87 -119 0 -130 2 -130 21 0 8 -4 14 -10 14 -5 0 -10 -16 -10 -36 l0 -36 152 4 c110 2 152 6 156 16 2 6 12 12 23 12 10 0 19 7 19 15 0 8 6 15 13 15 18 0 37 43 37 80 0 45 -22 36 -46 -18z"></path><path id="pawIvoVsn" d="M3240 2945 c0 -31 3 -35 25 -35 22 0 25 4 25 35 0 31 -3 35 -25 35 -22 0 -25 -4 -25 -35z"></path><path id="pmhE7jXOw" d="M1950 2895 c0 -8 -11 -17 -25 -21 -39 -10 -31 -34 10 -34 33 0 35 2 35 35 0 19 -4 35 -10 35 -5 0 -10 -7 -10 -15z"></path><path id="pAkpYwEoe" d="M1373 2793 c-13 -2 -23 -9 -23 -14 0 -5 -11 -9 -24 -9 -14 0 -31 -7 -40 -15 -8 -8 -19 -15 -25 -15 -6 0 -11 -14 -11 -31 l0 -30 30 21 c61 44 122 63 195 63 83 -1 144 -24 205 -79 43 -39 183 -221 236 -306 16 -27 32 -48 37 -48 4 0 7 16 7 35 0 19 -4 35 -9 35 -5 0 -12 11 -15 25 -4 14 -12 25 -20 25 -7 0 -16 14 -20 31 -4 19 -13 33 -26 36 -11 3 -20 14 -20 24 0 11 -7 19 -15 19 -8 0 -15 9 -15 20 0 11 -4 20 -10 20 -5 0 -10 7 -10 15 0 8 -9 20 -20 27 -11 7 -20 18 -20 25 0 7 -6 13 -14 13 -7 0 -16 9 -19 20 -3 12 -14 20 -26 20 -12 0 -21 6 -21 15 0 10 -10 15 -30 15 -20 0 -30 5 -30 15 0 10 -10 15 -30 15 -16 0 -30 5 -30 10 0 10 -140 12 -187 3z"></path><path id="p12n7fRCZ6" d="M1160 2615 c0 -44 9 -44 38 0 l22 35 -30 0 c-28 0 -30 -3 -30 -35z"></path><path id="p13do33NSP" d="M1114 2524 c-3 -25 -4 -76 -1 -112 6 -83 46 -222 64 -222 8 0 13 -12 13 -31 0 -34 67 -199 81 -199 5 0 9 -11 9 -25 0 -20 5 -25 25 -25 l25 0 -19 48 c-11 26 -40 94 -66 152 -84 191 -116 354 -85 434 9 23 7 26 -15 26 -21 0 -25 -6 -31 -46z"></path><path id="pR3tqdbS" d="M1524 2524 c-26 -12 -64 -59 -64 -78 0 -3 11 -6 25 -6 14 0 25 5 25 11 0 6 6 17 14 25 8 8 19 14 25 14 6 0 11 11 11 25 0 14 -1 25 -2 25 -2 0 -17 -7 -34 -16z"></path><path id="p194JTKeXL" d="M1580 2520 c0 -11 7 -20 15 -20 16 0 65 -46 65 -60 0 -6 5 -10 10 -10 6 0 10 -7 10 -15 0 -8 5 -15 10 -15 6 0 10 -7 10 -15 0 -8 4 -15 8 -15 4 0 14 -16 21 -35 7 -19 19 -35 27 -35 8 0 14 -10 14 -25 0 -14 4 -25 8 -25 4 0 14 -16 21 -35 7 -19 17 -35 22 -35 5 0 9 -6 9 -14 0 -8 4 -16 9 -18 5 -1 12 -20 16 -40 6 -31 4 -38 -9 -38 -9 0 -16 -4 -16 -10 0 -5 -9 -10 -20 -10 -11 0 -20 -4 -20 -9 0 -11 -115 -23 -146 -15 -13 3 -24 12 -24 20 0 8 -7 14 -15 14 -10 0 -15 10 -15 30 0 25 -4 30 -25 30 -22 0 -24 -2 -15 -25 38 -99 67 -120 152 -111 73 9 159 39 183 66 28 31 14 78 -61 208 -130 226 -176 282 -229 282 -8 0 -15 -9 -15 -20z"></path><path id="pdbo7AGpg" d="M1470 2358 c0 -31 66 -208 77 -208 20 0 16 44 -13 136 -21 66 -30 84 -45 84 -11 0 -19 -5 -19 -12z"></path><path id="p038wTieD" d="M1970 2295 c0 -3 9 -23 20 -44 10 -21 27 -68 36 -105 10 -41 22 -66 30 -66 17 0 18 31 3 100 -7 31 -16 50 -25 50 -9 0 -14 11 -14 35 0 31 -3 35 -25 35 -14 0 -25 -2 -25 -5z"></path><path id="prcgnx5r9" d="M2370 2175 c0 -33 2 -35 35 -35 33 0 35 2 35 35 0 33 -2 35 -35 35 -33 0 -35 -2 -35 -35z"></path><path id="ptXd8y1b7" d="M2062 2030 c5 -17 43 -65 83 -108 84 -90 110 -135 130 -232 8 -39 15 -73 15 -76 0 -2 7 -4 16 -4 14 0 16 8 10 57 -10 87 -27 143 -42 143 -9 0 -14 11 -14 30 0 23 -4 30 -20 30 -14 0 -20 7 -20 23 0 27 -77 107 -103 107 -12 0 -17 8 -17 30 0 25 -4 30 -24 30 -23 0 -24 -2 -14 -30z"></path><path id="pK4Ko7ht5" d="M1835 1884 c-27 -7 -62 -17 -77 -20 -37 -9 -35 -17 7 -37 43 -20 45 -21 45 -4 0 17 64 37 119 37 28 0 41 4 41 14 0 28 -59 32 -135 10z"></path><path id="pRlK4sloy" d="M1320 1856 c0 -25 4 -36 15 -36 10 0 15 -10 15 -27 0 -43 11 -73 26 -73 8 0 14 -10 14 -26 0 -14 5 -45 11 -70 9 -36 16 -44 34 -44 l23 0 -18 58 c-31 97 -95 245 -108 250 -8 2 -12 -8 -12 -32z"></path><path id="purEEbmeQ" d="M1980 1866 c0 -26 17 -36 61 -36 50 0 34 24 -35 50 -23 9 -26 7 -26 -14z"></path><path id="p12GIqDyFX" d="M2080 1810 c0 -18 6 -33 15 -36 8 -4 15 -12 15 -20 0 -8 7 -14 15 -14 9 0 15 -9 15 -25 0 -14 -4 -25 -10 -25 -5 0 -10 5 -10 10 0 6 -7 10 -15 10 -8 0 -15 4 -15 9 0 10 -130 71 -152 71 -9 0 -18 5 -20 11 -2 6 -25 13 -51 16 -58 7 -64 -11 -9 -33 107 -44 243 -117 286 -155 l49 -44 -6 64 c-8 71 -46 151 -83 176 -23 15 -24 15 -24 -15z"></path><path id="p2KZoLBOq" d="M1809 1551 c-34 -35 -39 -71 -9 -71 16 0 20 7 20 30 0 28 3 30 34 30 42 0 66 -22 66 -60 0 -21 -6 -29 -25 -34 -16 -4 -25 -13 -25 -26 0 -40 60 -18 85 31 13 25 14 37 5 65 -23 69 -99 87 -151 35z"></path><path id="plFiG3GJ3" d="M1440 1529 c0 -39 20 -109 32 -109 4 0 8 -13 8 -28 0 -16 8 -53 19 -83 10 -30 21 -71 25 -91 6 -31 11 -38 30 -38 l23 0 -17 63 c-50 182 -96 317 -107 317 -8 0 -13 -13 -13 -31z"></path><path id="p1DHCrE1RS" d="M2286 1487 c-3 -13 3 -48 14 -78 21 -61 118 -524 120 -576 0 -2 7 -3 15 -3 8 0 15 8 15 18 0 30 -27 201 -44 277 -9 39 -27 124 -41 189 -14 65 -30 127 -35 137 -6 10 -10 27 -10 38 0 29 -26 26 -34 -2z"></path><path id="pWTWUjogB" d="M1563 1108 c8 -76 55 -218 72 -218 7 0 15 -10 17 -22 2 -19 10 -24 42 -26 l40 -3 -41 44 c-41 44 -71 116 -94 225 -7 36 -16 52 -26 52 -13 0 -15 -9 -10 -52z"></path><path id="p7b5KuOdr" d="M1896 1139 c-38 -30 -49 -63 -36 -109 30 -111 195 -84 195 31 0 81 -96 127 -159 78z m82 -25 c33 -7 42 -29 34 -83 -4 -29 -7 -31 -43 -31 -56 0 -81 28 -73 80 7 43 17 47 82 34z"></path><path id="psg66c3RL" d="M290 897 c0 -34 33 -174 50 -214 5 -13 15 -23 21 -23 15 0 6 99 -9 109 -6 3 -14 41 -18 84 -6 66 -9 77 -25 77 -15 0 -19 -7 -19 -33z"></path><path id="p19LisILur" d="M3250 875 c0 -40 4 -55 14 -55 16 0 26 30 26 78 0 25 -4 32 -20 32 -18 0 -20 -7 -20 -55z"></path><path id="p5Q71rl8p" d="M1740 815 c0 -18 5 -25 20 -25 11 0 20 -4 20 -9 0 -11 85 -41 117 -41 46 0 23 29 -42 53 -22 8 -57 22 -77 31 l-38 16 0 -25z"></path><path id="ppOgfyCT4" d="M2411 728 c-20 -68 -112 -236 -155 -286 -89 -100 -220 -111 -331 -26 l-35 26 0 -32 c0 -23 5 -33 20 -37 11 -3 20 -9 20 -14 0 -12 98 -39 145 -39 51 0 148 25 153 39 2 6 9 11 16 11 16 0 56 42 56 58 0 7 5 12 10 12 6 0 10 7 10 15 0 8 4 15 10 15 5 0 12 11 16 25 3 14 9 25 14 25 13 0 83 162 88 206 6 60 -20 61 -37 2z"></path><path id="pZy7FBZwb" d="M3209 723 c-7 -27 -19 -54 -26 -61 -7 -7 -13 -22 -13 -33 0 -10 -4 -19 -10 -19 -5 0 -10 -5 -10 -10 0 -6 -11 -23 -25 -38 -14 -15 -25 -30 -25 -35 0 -4 -16 -21 -35 -38 -22 -19 -35 -40 -35 -55 0 -20 -5 -24 -30 -24 -19 0 -30 -5 -30 -14 0 -7 -13 -16 -30 -19 -18 -4 -30 -13 -30 -22 0 -10 -10 -15 -27 -15 -38 0 -55 -13 -51 -39 3 -21 4 -21 67 9 78 37 179 117 232 184 45 56 116 194 125 244 6 27 4 32 -13 32 -16 0 -23 -11 -34 -47z"></path><path id="paX8VN4tV" d="M1850 680 c0 -23 -5 -30 -19 -30 -28 0 -40 -71 -25 -149 5 -25 12 -31 31 -31 20 0 24 4 18 18 -28 69 -24 121 14 167 46 54 46 55 12 55 -28 0 -31 -3 -31 -30z"></path><path id="pXF5dwJq4" d="M367 623 c18 -47 83 -134 144 -194 84 -82 195 -141 326 -175 114 -29 123 -29 123 -6 0 13 -17 21 -77 35 -43 9 -86 17 -95 17 -10 0 -18 4 -18 8 0 12 -47 32 -75 32 -15 0 -25 6 -25 15 0 8 -11 17 -24 21 -14 3 -27 12 -30 20 -3 8 -15 14 -26 14 -11 0 -20 6 -20 13 0 7 -20 32 -45 55 -25 23 -45 47 -45 52 0 6 -4 10 -9 10 -5 0 -13 9 -16 20 -3 11 -15 20 -26 20 -14 0 -19 7 -19 30 0 25 -4 30 -25 30 -19 0 -23 -4 -18 -17z"></path><path id="p13jepFmJ6" d="M1995 605 c-31 -30 -33 -65 -5 -65 13 0 20 7 20 19 0 19 25 31 68 31 20 0 22 -5 22 -46 l0 -46 -60 7 c-39 5 -60 3 -60 -3 0 -18 43 -42 73 -42 37 0 87 49 87 85 0 16 -12 38 -29 56 -38 37 -82 39 -116 4z"></path><path id="p14ThT1vrm" d="M2708 287 c-26 -7 -38 -16 -38 -29 0 -22 4 -22 85 -2 41 10 65 22 65 30 0 17 -55 17 -112 1z"></path><path id="pOSU6659q" d="M970 246 c0 -7 10 -16 23 -20 29 -8 1575 -8 1605 0 12 4 22 13 22 20 0 12 -129 14 -825 14 -696 0 -825 -2 -825 -14z"></path></g></g><g id="l1bCPWnIHjD5gGt09QMSv1T" fill="rgb(212,191,132)" style="transform: none;"><g><path id="p182RczvvO" d="M292 2158 l3 -1333 27 -81 c34 -106 77 -190 124 -240 6 -7 21 -25 35 -41 80 -96 224 -176 379 -212 94 -23 101 -23 936 -23 l840 1 96 24 c268 70 436 227 526 491 l27 81 3 1333 3 1332 -1501 0 -1501 0 3 -1332z m599 1172 c59 -31 81 -72 76 -144 -3 -50 -8 -63 -33 -85 -16 -14 -49 -32 -74 -39 -67 -20 -94 -36 -98 -56 -9 -43 66 -50 96 -9 20 28 21 28 64 13 37 -13 43 -19 40 -40 -1 -14 -18 -41 -37 -60 -35 -34 -37 -35 -120 -35 -84 0 -85 0 -121 36 -34 34 -37 41 -36 95 0 54 3 61 35 90 18 17 58 39 88 49 69 23 81 32 77 64 -3 23 -8 26 -45 29 -38 3 -43 0 -58 -27 -18 -35 -23 -36 -70 -17 -41 17 -44 36 -15 84 40 66 153 91 231 52z m1949 -5 c19 -9 47 -29 63 -43 25 -24 27 -31 27 -114 l0 -88 -101 0 -100 0 3 48 3 47 43 3 c33 3 42 7 42 22 0 11 -12 22 -31 29 -46 16 -80 14 -116 -8 -25 -16 -33 -30 -43 -73 -17 -78 2 -137 53 -161 45 -23 88 -16 121 20 l23 25 51 -26 c49 -25 51 -27 40 -51 -29 -64 -149 -107 -242 -86 -111 25 -176 112 -176 236 1 117 50 195 147 231 48 18 147 12 193 -11z m-1602 -162 l2 -172 53 -3 52 -3 0 -55 0 -55 -170 0 -170 0 -3 52 c-3 49 -1 53 23 59 14 3 41 4 60 2 l35 -4 0 171 c0 95 3 175 7 179 4 4 30 6 58 4 l50 -3 3 -172z m290 100 c3 -68 4 -73 25 -73 17 0 30 16 58 73 l36 72 53 3 c84 5 85 3 40 -83 -43 -82 -48 -100 -27 -108 44 -17 62 -148 27 -204 -34 -56 -69 -68 -205 -68 l-120 0 -3 220 c-1 121 0 225 3 233 3 9 21 12 57 10 l53 -3 3 -72z m417 -158 l0 -230 -43 -3 c-72 -5 -72 -7 -72 238 0 119 3 220 7 224 4 4 30 6 58 4 l50 -3 0 -230z m205 108 l0 -128 58 84 c113 167 112 166 166 169 33 2 52 -1 57 -10 14 -22 11 -432 -3 -446 -15 -15 -94 -16 -103 -1 -4 6 -6 65 -6 132 l2 122 -23 -32 c-13 -17 -48 -71 -78 -119 -30 -48 -61 -93 -68 -101 -16 -16 -98 -17 -108 -2 -9 15 -18 402 -10 434 6 23 11 25 61 25 l55 0 0 -127z m-550 -475 c68 -31 107 -68 191 -178 132 -175 239 -360 239 -415 0 -8 9 -43 21 -77 16 -49 35 -78 94 -140 113 -121 149 -218 144 -397 -2 -50 2 -95 9 -107 6 -12 23 -75 37 -140 14 -65 34 -159 45 -209 28 -135 43 -256 38 -312 -9 -93 -130 -312 -200 -363 -59 -43 -134 -56 -205 -35 -44 13 -68 29 -113 74 -87 86 -90 140 -15 238 42 56 44 80 8 95 -189 78 -232 114 -267 227 -13 42 -27 92 -30 111 -4 19 -15 60 -25 90 -10 30 -28 89 -40 130 -89 308 -124 407 -226 635 -128 287 -159 381 -159 485 -1 90 27 151 96 216 61 57 69 62 129 85 72 26 156 22 229 -13z"></path><path id="pIuZWVN6V" d="M1530 3036 l0 -56 43 0 c49 0 67 13 67 50 0 39 -14 52 -64 57 l-46 6 0 -57z"></path><path id="pOQcAf1DD" d="M1525 2522 c-41 -26 -65 -64 -65 -104 0 -18 14 -73 31 -123 16 -49 34 -110 40 -134 18 -81 58 -152 94 -167 62 -25 241 21 266 69 19 34 0 78 -101 247 -5 8 -26 44 -47 79 -60 101 -101 142 -148 147 -29 4 -49 0 -70 -14z"></path><path id="p12fEPPMLP" d="M1786 1868 l-59 -21 65 -31 c36 -17 80 -37 99 -45 128 -51 211 -98 273 -156 l29 -27 -7 48 c-11 83 -25 119 -62 163 -75 87 -208 114 -338 69z"></path><path id="p3p4AGtyG" d="M1830 1567 c-54 -27 -64 -94 -21 -138 33 -33 67 -37 111 -14 30 15 37 30 38 80 2 65 -66 103 -128 72z"></path><path id="pYS1rnHaB" d="M1881 1124 c-31 -39 -29 -103 5 -135 37 -35 108 -33 141 5 32 38 32 98 -2 131 -19 20 -34 25 -74 25 -42 0 -53 -4 -70 -26z"></path><path id="pKcL0BcWw" d="M2014 615 c-47 -19 -60 -89 -24 -125 27 -27 100 -28 123 -2 23 25 22 94 0 114 -27 23 -65 28 -99 13z"></path></g></g></svg>