<svg xmlns="http://www.w3.org/2000/svg" width="359" height="468" viewBox="0 0 3590 4680"><g id="l5KIPrTrxshxlk7g4Gilgia" fill="rgb(35,33,18)" style="transform: none;"><g><path id="pgzMwKt32" d="M1501 4649 c-280 -31 -577 -129 -804 -265 -165 -99 -324 -251 -433 -414 -147 -221 -208 -420 -224 -735 -13 -241 -12 -1594 1 -1735 19 -213 63 -379 145 -549 215 -449 588 -739 1112 -865 181 -44 341 -59 566 -53 221 5 352 24 537 77 602 172 1027 619 1138 1194 37 191 44 399 38 1226 -4 654 -8 791 -22 878 -49 310 -178 566 -390 778 -235 233 -561 384 -975 449 -124 20 -559 29 -689 14z"></path></g></g><g id="l4wWEmpWs1P9kQ6fIjCt40Y" fill="rgb(169,95,47)" style="transform: none;"><g><path id="p1D0Q8vCAc" d="M1635 4508 c-482 -23 -860 -177 -1133 -462 -78 -81 -164 -201 -210 -291 -38 -75 -93 -258 -108 -356 -11 -76 -14 -187 -12 -496 l3 -398 1630 0 1630 0 3 370 c3 395 -5 496 -49 654 -83 298 -249 536 -479 690 -339 227 -732 316 -1275 289z m-315 -718 l0 -230 60 0 61 0 -3 -57 -3 -58 -180 0 -180 0 -3 58 -3 57 61 0 60 0 0 223 c0 123 3 227 7 230 3 4 33 7 65 7 l58 0 0 -230z m310 129 c0 -98 0 -100 22 -97 18 2 28 17 46 63 13 33 30 77 39 98 l16 37 69 0 c37 0 68 -2 68 -4 0 -1 -20 -51 -44 -109 l-44 -105 25 -24 c37 -33 53 -79 53 -145 -1 -76 -27 -133 -75 -163 -32 -20 -54 -24 -162 -28 -81 -3 -127 -1 -132 6 -3 5 -5 136 -3 291 l3 281 59 0 60 0 0 -101z m458 -186 l-3 -288 -57 -3 c-42 -2 -58 1 -59 10 0 13 0 561 1 566 0 1 27 2 60 2 l60 0 -2 -287z m232 202 l0 -85 36 0 c146 0 231 -105 204 -252 -13 -65 -34 -96 -90 -127 -37 -21 -59 -25 -144 -27 -56 -1 -109 0 -118 2 -16 5 -17 30 -18 290 l0 284 65 0 65 0 0 -85z m-429 -670 c59 -39 83 -100 87 -226 8 -208 -40 -306 -158 -327 -61 -11 -125 2 -165 33 -100 75 -113 385 -22 489 18 21 50 44 72 52 55 20 139 10 186 -21z m442 10 c25 -12 43 -31 58 -62 19 -40 22 -65 26 -247 2 -112 1 -215 -3 -230 -6 -24 -10 -26 -60 -26 l-53 0 -3 226 c-3 210 -4 227 -22 240 -25 18 -57 18 -82 0 -18 -13 -19 -31 -24 -238 l-5 -223 -55 0 -55 0 2 232 c2 212 4 235 23 272 11 22 30 46 43 52 55 30 152 32 210 4z m440 0 c18 -8 43 -32 57 -52 22 -33 25 -48 28 -150 l4 -113 -91 0 -91 0 0 49 0 50 38 3 c34 3 37 6 40 36 6 63 -49 108 -98 82 -35 -19 -50 -70 -50 -175 0 -163 31 -202 135 -167 l58 20 23 -26 c28 -30 29 -35 8 -67 -21 -32 -83 -55 -150 -55 -60 0 -85 9 -126 48 -47 44 -63 110 -63 262 0 119 3 140 21 175 12 22 31 48 42 58 51 46 144 56 215 22z m-2253 -215 l0 -230 55 0 56 0 -3 -57 -3 -56 -163 1 c-90 0 -166 3 -169 6 -3 3 -6 27 -7 53 l0 48 57 3 57 3 0 229 0 230 60 0 60 0 0 -230z m292 108 l3 -123 65 0 65 0 0 120 0 120 58 3 57 3 1 -33 c3 -69 -3 -533 -6 -537 -10 -9 -97 -5 -106 5 -6 7 -9 54 -8 106 l2 93 -66 3 -66 3 -3 -108 -3 -108 -55 0 -55 0 -3 288 -2 287 60 0 59 0 3 -122z m468 27 c0 -94 0 -95 24 -95 21 0 27 9 47 68 39 120 41 122 109 122 43 0 60 -4 60 -13 0 -7 -18 -55 -40 -107 -39 -92 -40 -93 -20 -107 74 -52 78 -233 7 -301 -47 -45 -158 -64 -269 -46 l-38 7 0 283 0 284 60 0 60 0 0 -95z m1778 -32 l3 -123 64 0 64 0 3 123 3 122 55 0 55 0 0 -285 0 -285 -55 0 -55 0 -3 108 -3 107 -64 0 -64 0 -3 -107 -3 -108 -55 0 -55 0 -3 275 c-1 151 0 281 3 288 3 9 21 12 57 10 l53 -3 3 -122z"></path><path id="pWl06RWZP" d="M1632 3638 l3 -83 45 3 c28 2 50 9 58 19 13 18 16 91 4 109 -12 19 -49 34 -82 34 l-31 0 3 -82z"></path><path id="pkYLpzyF8" d="M2317 3733 c-4 -3 -7 -42 -7 -85 0 -72 2 -79 22 -87 34 -12 81 2 96 29 17 32 9 105 -13 130 -18 20 -83 28 -98 13z"></path><path id="polOHY7aO" d="M1732 3167 c-41 -44 -52 -220 -18 -302 18 -42 58 -62 94 -46 41 19 54 71 50 197 -2 96 -6 117 -24 141 -28 37 -72 42 -102 10z"></path><path id="pDZl5BF6u" d="M177 2363 c-4 -3 -7 -106 -7 -228 0 -166 3 -225 13 -233 6 -5 55 -20 107 -33 91 -23 110 -24 455 -24 308 0 369 3 420 17 33 9 88 21 122 27 34 5 93 24 132 41 75 32 113 33 131 0 23 -44 -54 -94 -187 -120 -160 -32 -188 -42 -191 -71 -6 -50 13 -54 237 -54 113 0 283 6 377 14 168 14 173 14 230 -7 51 -17 91 -21 281 -26 123 -4 234 -4 248 0 14 3 40 27 60 55 43 60 61 68 134 58 31 -5 120 -9 197 -10 159 -2 176 2 384 89 l115 48 0 229 0 230 -1626 3 c-894 1 -1629 -1 -1632 -5z m984 -239 c55 -49 -7 -75 -206 -84 -159 -8 -175 -4 -175 36 0 12 6 26 13 31 26 16 126 30 235 32 96 2 117 0 133 -15z m1782 -14 c107 -13 157 -31 157 -59 0 -32 -57 -44 -175 -36 -147 10 -219 26 -223 49 -6 28 12 38 80 46 35 4 65 8 68 9 3 0 45 -4 93 -9z"></path><path id="p13uzcSDGx" d="M170 1654 c0 -306 82 -588 240 -825 73 -109 249 -289 355 -364 211 -148 501 -246 840 -286 158 -19 441 -6 600 26 574 116 984 454 1156 953 54 158 103 586 69 607 -12 8 -185 -62 -200 -80 -5 -7 -14 -36 -20 -66 -11 -58 -62 -239 -87 -304 -8 -22 -29 -56 -48 -75 -40 -43 -61 -82 -69 -136 -15 -87 -56 -120 -238 -193 -40 -16 -95 -42 -122 -57 -62 -35 -119 -45 -177 -33 -52 11 -237 111 -316 170 -81 60 -86 73 -88 202 -1 106 -22 208 -45 222 -4 3 -42 -64 -83 -148 -60 -119 -78 -168 -88 -227 -16 -102 -18 -106 -90 -180 -47 -47 -69 -80 -83 -120 -26 -74 -93 -144 -154 -164 -37 -11 -102 -14 -297 -12 -234 2 -253 3 -290 23 -45 24 -108 87 -153 153 -16 25 -71 90 -121 145 -105 116 -116 141 -126 305 -5 93 -10 110 -35 150 -40 63 -54 105 -80 251 l-23 127 -96 22 c-53 12 -104 24 -113 27 -16 4 -18 -6 -18 -113z"></path><path id="pWAxSzjI3" d="M548 1733 c-34 -5 -35 -25 -12 -158 11 -69 24 -106 53 -155 37 -63 39 -69 44 -182 7 -140 19 -173 91 -248 29 -31 75 -89 101 -130 52 -83 104 -142 150 -170 27 -16 53 -18 270 -16 168 1 247 5 262 14 33 19 68 71 88 131 13 39 35 73 76 117 58 63 70 89 83 184 4 27 37 106 80 192 69 137 117 270 103 284 -11 11 -174 6 -217 -7 -49 -15 -60 -36 -60 -112 0 -92 -18 -163 -71 -289 -63 -151 -93 -211 -112 -227 -8 -6 -62 -25 -120 -40 -87 -23 -108 -26 -127 -16 -46 25 -185 227 -193 282 -15 100 -18 260 -7 392 9 118 9 145 -2 152 -19 12 -136 11 -159 -1 -21 -12 -21 -13 7 -125 12 -48 13 -79 6 -154 -8 -72 -7 -108 5 -160 7 -36 16 -78 20 -93 8 -39 -4 -76 -28 -89 -31 -16 -45 3 -66 91 -12 52 -17 120 -18 220 -1 80 -6 165 -13 190 -6 25 -12 64 -13 88 l-3 42 -95 -1 c-53 -1 -108 -4 -123 -6z"></path><path id="p2Xi57hxb" d="M2719 1644 c-6 -16 -19 -84 -29 -151 -10 -67 -21 -132 -26 -145 -12 -40 -84 -146 -120 -177 -30 -27 -43 -31 -90 -31 -63 0 -118 20 -133 47 -9 19 -30 130 -55 293 l-11 75 -74 3 c-41 2 -78 -1 -82 -5 -4 -4 8 -60 27 -123 20 -65 40 -157 45 -210 10 -92 11 -96 47 -129 82 -74 225 -152 281 -153 22 0 61 12 97 29 32 17 96 43 142 58 100 33 137 66 169 151 13 32 45 86 72 119 46 56 52 70 85 199 20 77 36 146 36 153 0 9 -17 13 -60 13 -72 0 -94 -17 -105 -81 -13 -78 -54 -195 -76 -214 -15 -15 -24 -17 -37 -8 -23 14 -20 52 11 138 14 39 28 89 32 111 7 46 8 46 -87 59 -46 7 -48 6 -59 -21z"></path></g></g><g id="l3EdI0BVA1E5zX505jwiF2b" fill="rgb(210,185,122)" style="transform: none;"><g><path id="p1HUkYCHAb" d="M1740 4513 c-427 -13 -751 -103 -1019 -280 -116 -77 -283 -245 -356 -357 -100 -154 -165 -338 -185 -526 -5 -52 -10 -263 -10 -467 l0 -373 93 0 c50 0 785 -1 1632 -2 l1540 -3 0 400 c0 347 -3 413 -19 500 -81 436 -320 748 -717 934 -259 122 -606 185 -959 174z m-420 -723 l0 -230 60 0 60 0 0 -60 0 -60 -182 2 -183 3 -3 58 -3 57 61 0 60 0 0 230 0 230 65 0 65 0 0 -230z m312 133 c3 -89 5 -98 22 -98 15 0 26 15 43 60 13 33 31 77 40 98 l16 37 69 0 c37 0 68 -2 68 -4 0 -2 -20 -51 -44 -109 l-44 -105 25 -24 c37 -33 53 -79 53 -148 0 -76 -26 -129 -77 -161 -34 -21 -53 -24 -165 -28 -102 -2 -128 0 -128 10 -1 16 -1 563 0 567 0 1 27 2 60 2 l59 0 3 -97z m456 -190 l-3 -288 -60 0 -60 0 -2 288 -2 287 65 0 64 0 -2 -287z m232 203 l0 -83 64 -5 c107 -9 165 -63 181 -170 9 -58 -15 -145 -47 -175 -52 -47 -87 -57 -208 -57 l-115 -1 -3 288 -2 287 65 0 65 0 0 -84z m-1832 -645 l32 -1 0 -230 0 -230 55 0 56 0 -3 -57 -3 -58 -168 -1 c-165 -2 -167 -1 -173 21 -3 12 -4 37 -2 56 3 34 3 34 61 37 l57 3 0 228 c0 125 3 231 6 234 4 4 16 5 28 2 12 -2 36 -4 54 -4z m319 -4 c2 -2 4 -57 6 -123 l2 -119 63 -3 62 -3 0 119 c0 65 4 122 10 128 5 5 33 7 62 4 l53 -5 0 -275 c1 -151 -3 -281 -8 -287 -5 -7 -27 -13 -47 -13 -70 0 -70 1 -70 116 l0 104 -65 0 -65 0 1 -101 c0 -56 -4 -106 -9 -111 -5 -5 -31 -8 -58 -6 l-49 3 -3 287 -2 287 27 3 c30 4 84 0 90 -5z m471 -90 c3 -93 4 -97 25 -97 19 0 26 13 51 83 16 45 33 88 39 95 15 18 127 16 127 -3 0 -8 -18 -55 -39 -105 l-39 -91 28 -28 c67 -67 65 -223 -3 -289 -18 -17 -50 -35 -72 -41 -47 -13 -222 -15 -229 -2 -3 4 -6 134 -6 287 l-1 279 48 6 c26 3 53 5 58 4 6 -1 11 -44 13 -98z m567 92 c89 -25 135 -118 136 -274 0 -187 -47 -280 -156 -305 -48 -11 -131 3 -165 28 -33 24 -67 94 -81 167 -13 67 -6 201 12 255 37 111 137 161 254 129z m488 -14 c25 -12 45 -32 59 -59 20 -38 21 -57 22 -271 l1 -230 -57 -3 -57 -3 -3 226 c-3 211 -4 228 -22 241 -25 18 -57 18 -82 0 -18 -13 -19 -31 -24 -238 l-5 -223 -55 0 -55 0 1 225 c1 234 8 282 44 315 51 46 159 56 233 20z m454 -6 c55 -34 73 -84 73 -206 l0 -103 -90 0 -90 0 0 49 0 50 38 3 c34 3 37 6 40 35 9 96 -104 123 -135 33 -7 -19 -12 -77 -12 -128 -1 -147 30 -194 116 -170 21 5 43 14 50 20 16 13 45 -4 62 -35 29 -55 -45 -107 -152 -107 -145 0 -206 107 -195 345 4 105 23 159 66 198 55 50 162 57 229 16z m271 -106 l3 -123 64 0 64 0 3 123 3 122 55 0 55 0 0 -285 0 -285 -55 0 -55 0 -3 108 -3 107 -64 0 -64 0 -3 -107 -3 -108 -55 0 -55 0 -3 275 c-1 151 0 281 3 288 3 9 21 12 57 10 l53 -3 3 -122z"></path><path id="pQUTJJMT4" d="M1632 3638 l3 -83 45 3 c28 1 50 8 58 19 13 18 16 91 4 110 -10 15 -57 33 -88 33 -25 0 -25 -1 -22 -82z"></path><path id="p4AHzMmpG" d="M2319 3718 c0 -13 -2 -36 -4 -53 -1 -16 0 -47 2 -67 5 -37 7 -38 48 -38 56 0 70 18 69 88 0 64 -24 92 -80 92 -28 0 -34 -4 -35 -22z"></path><path id="pV5T5RRgP" d="M1280 2905 l0 -85 33 0 c56 0 77 23 77 84 0 64 -19 86 -73 86 l-37 0 0 -85z"></path><path id="p2fUNQFcV" d="M1742 3174 c-13 -9 -28 -27 -33 -41 -16 -42 -12 -226 5 -267 28 -67 104 -68 131 -1 20 46 20 223 1 270 -22 53 -63 68 -104 39z"></path><path id="pXUR5C4AR" d="M546 1732 l-28 -4 7 -66 c10 -99 34 -198 54 -224 39 -50 49 -84 56 -203 8 -140 19 -173 83 -238 26 -26 76 -91 112 -144 36 -53 87 -115 113 -137 l48 -40 237 -2 c168 -1 246 3 268 11 40 16 77 66 99 135 13 38 34 72 70 110 66 69 72 81 86 171 9 57 25 100 69 186 67 128 105 222 113 276 l6 37 -97 -1 c-53 0 -113 -6 -132 -13 -39 -14 -48 -34 -49 -117 -2 -91 -17 -153 -72 -282 -63 -149 -93 -210 -112 -225 -26 -22 -219 -71 -242 -62 -12 5 -38 30 -58 57 -20 26 -51 69 -70 94 -59 77 -67 103 -79 231 -9 91 -8 161 1 281 9 130 9 162 -1 169 -17 12 -155 5 -166 -7 -6 -6 -3 -36 6 -75 10 -41 15 -118 16 -210 1 -88 7 -170 15 -207 16 -68 9 -107 -21 -127 -28 -17 -45 10 -68 114 -18 77 -21 114 -16 195 3 67 0 125 -9 175 -8 41 -17 92 -20 113 l-6 38 -92 -3 c-51 -1 -105 -4 -121 -6z"></path><path id="p1DSriw2gN" d="M2725 1657 c-18 -58 -26 -96 -39 -188 -9 -59 -20 -118 -25 -131 -17 -46 -79 -134 -117 -167 -36 -32 -39 -33 -110 -29 -120 6 -116 -4 -168 338 l-12 75 -68 3 c-97 4 -98 3 -80 -55 42 -137 63 -225 69 -293 4 -41 11 -83 16 -92 12 -22 115 -96 200 -142 83 -45 128 -47 207 -8 31 16 93 42 137 57 44 15 91 35 104 44 14 9 41 51 62 96 20 44 53 100 73 124 20 24 41 52 47 62 10 19 79 281 79 301 0 13 -126 6 -140 -8 -6 -6 -22 -54 -35 -107 -33 -135 -59 -189 -86 -185 -38 5 -46 32 -26 85 20 52 42 129 50 179 6 30 4 32 -29 38 -78 15 -105 16 -109 3z"></path></g></g><g id="l4U1j5dQTKllZpe5TL5cIis" fill="rgb(252,243,173)" style="transform: none;"><g><path id="pUqZi0foj" d="M1540 4499 c-105 -9 -284 -38 -277 -46 3 -2 45 3 93 11 151 27 350 39 554 34 107 -2 170 -1 140 3 -73 9 -391 8 -510 -2z"></path><path id="pGfn0pKU9" d="M2111 4486 c2 -2 33 -6 69 -9 41 -4 56 -3 40 3 -25 8 -117 14 -109 6z"></path><path id="p3HhJPnxb" d="M2257 4470 c4 -4 60 -19 123 -34 639 -154 994 -566 1044 -1211 2 -27 3 -20 4 20 3 112 -35 290 -94 439 -59 146 -144 275 -259 391 -150 151 -322 255 -540 327 -108 36 -294 82 -278 68z"></path><path id="p6ginnD0B" d="M1097 4410 c-369 -123 -652 -355 -797 -655 -78 -160 -122 -324 -119 -444 2 -51 2 -49 10 26 23 238 115 460 268 647 156 189 405 346 679 427 59 17 109 33 111 35 15 13 -51 -2 -152 -36z"></path><path id="p2N5hQvG9" d="M1255 4031 l60 -6 3 -232 c2 -225 3 -233 22 -233 11 0 20 4 20 10 0 5 -7 7 -15 4 -12 -5 -14 25 -15 216 0 151 -3 227 -11 236 -8 9 -31 13 -68 12 l-56 -1 60 -6z"></path><path id="pvEZP4G13" d="M1525 4035 c6 -2 30 -5 55 -7 l45 -4 3 -96 c2 -86 5 -96 23 -101 15 -4 23 1 31 21 5 15 21 56 35 92 30 79 38 90 72 91 23 2 23 2 4 6 -33 6 -57 -11 -72 -54 -42 -119 -54 -143 -67 -143 -12 0 -14 16 -13 83 2 113 -1 117 -70 116 -31 0 -51 -2 -46 -4z"></path><path id="p1DMkLxV6n" d="M1962 4028 c-17 -17 -17 -569 0 -586 15 -15 124 -16 133 -2 9 14 10 408 2 417 -4 3 -7 -89 -7 -206 l0 -212 -62 3 -63 3 0 290 0 290 65 6 65 6 -60 1 c-36 1 -66 -3 -73 -10z"></path><path id="pSbtJqQp6" d="M2187 4033 c-4 -3 -7 -136 -7 -293 0 -242 2 -290 15 -300 10 -9 48 -11 127 -8 92 3 121 8 156 26 56 30 91 86 98 160 8 72 -7 127 -47 175 -37 45 -63 57 -139 66 l-55 6 0 67 c0 37 -4 63 -8 59 -4 -4 -7 -37 -5 -72 l3 -64 61 -6 c84 -8 123 -32 157 -98 45 -90 32 -188 -32 -252 -47 -48 -97 -60 -218 -57 l-98 3 0 290 0 290 60 6 60 6 -61 1 c-33 1 -64 -1 -67 -5z"></path><path id="p2yiTwtwr" d="M1497 4023 c-4 -3 -7 -136 -7 -294 l0 -289 25 -6 c14 -3 78 -4 142 -2 105 3 122 6 155 28 20 14 44 38 54 54 20 35 35 96 23 96 -5 0 -9 -13 -9 -29 0 -41 -39 -93 -90 -119 -41 -20 -57 -22 -165 -20 l-120 3 0 293 c0 160 0 292 -1 292 0 0 -4 -3 -7 -7z"></path><path id="pHOL31QK3" d="M1885 4019 c3 -9 -13 -61 -39 -118 -42 -96 -43 -102 -25 -111 26 -14 58 -79 61 -124 1 -20 6 -36 10 -36 5 0 6 11 3 25 -3 14 -8 37 -11 53 -3 15 -18 44 -35 64 -16 20 -29 39 -29 42 0 3 13 33 29 68 50 109 55 128 42 141 -10 9 -11 8 -6 -4z"></path><path id="p8zEpRYTq" d="M1180 3800 l-5 -225 -50 -3 c-27 -2 -54 -8 -60 -13 -13 -13 -15 -89 -3 -111 8 -16 28 -18 191 -18 129 0 187 4 195 12 7 7 11 32 10 57 l-1 46 -6 -50 -6 -50 -184 -3 c-106 -1 -187 1 -190 7 -3 5 -4 32 -3 60 l4 51 54 0 c35 0 56 5 60 13 2 7 3 111 2 232 l-3 220 -5 -225z"></path><path id="p4Dhwuuro" d="M2097 3993 c-4 -3 -7 -31 -7 -61 0 -70 11 -61 16 12 3 57 2 61 -9 49z"></path><path id="pVGEnsUOx" d="M2345 3730 c-3 -5 0 -8 7 -5 29 10 63 -19 69 -60 l6 -40 2 38 c1 25 -5 43 -19 57 -21 21 -55 26 -65 10z"></path><path id="pEfLrrRQL" d="M2322 3648 l-2 -88 39 0 c42 0 71 20 71 48 0 12 -4 9 -13 -8 -9 -19 -22 -26 -49 -28 l-37 -3 -4 83 -3 83 -2 -87z"></path><path id="p19fRQebLA" d="M1630 3635 l0 -75 43 2 42 1 -37 4 -38 4 0 65 0 64 40 0 c29 0 42 -5 50 -19 13 -26 13 -67 -2 -94 -10 -20 -10 -21 5 -8 22 17 22 79 1 109 -12 17 -25 22 -60 22 l-44 0 0 -75z"></path><path id="pLzJF9j2P" d="M1388 3563 c12 -2 30 -2 40 0 9 3 -1 5 -23 4 -22 0 -30 -2 -17 -4z"></path><path id="pEth73GAP" d="M390 3295 c-14 -17 0 -21 17 -4 5 5 32 9 59 7 l49 -3 5 -230 5 -230 55 -5 55 -5 6 -50 6 -50 1 47 c1 26 -3 50 -8 53 -6 4 -8 10 -6 14 3 4 -19 6 -49 3 l-55 -4 0 222 c1 155 -3 226 -11 236 -16 20 -113 19 -129 -1z"></path><path id="p1BCdq0duG" d="M685 3298 c-8 -22 -10 -278 -3 -278 4 0 9 62 10 138 l3 137 48 3 c73 5 77 -2 77 -134 0 -112 0 -114 23 -113 16 1 18 2 5 6 -16 4 -18 18 -18 113 0 131 -6 140 -86 140 -35 0 -56 -5 -59 -12z"></path><path id="pruqUT5zU" d="M943 3303 c-10 -3 -13 -38 -13 -124 l0 -119 -32 -1 -33 -2 35 -6 35 -6 5 125 5 125 60 0 60 0 3 -270 c1 -148 0 -280 -3 -293 -5 -21 -10 -23 -63 -20 l-57 3 -3 108 -3 107 -59 0 -60 0 0 -94 c0 -52 -3 -101 -6 -110 -9 -24 -109 -22 -124 2 -10 15 -10 15 -8 -3 3 -17 12 -20 63 -23 79 -4 85 5 85 125 l0 93 50 0 50 0 0 -98 c0 -63 4 -102 12 -110 16 -16 110 -16 126 0 17 17 17 569 0 586 -12 12 -100 15 -125 5z"></path><path id="pI7IS98FB" d="M1156 3294 c-14 -13 -16 -54 -16 -293 0 -202 3 -280 12 -289 15 -15 198 -16 251 -1 51 14 104 63 117 107 23 85 7 192 -35 232 -14 13 -25 28 -25 33 0 5 18 50 40 100 22 49 38 92 36 95 -5 5 -39 -68 -70 -150 l-18 -47 33 -40 c29 -37 33 -49 37 -118 3 -68 1 -84 -20 -123 -38 -70 -72 -84 -212 -89 -92 -2 -120 0 -127 10 -5 8 -9 136 -9 285 0 223 3 274 14 283 8 7 36 11 63 9 l48 -3 3 -98 c3 -94 4 -98 24 -95 17 2 28 22 54 92 18 49 37 93 43 99 5 5 37 8 70 5 34 -2 56 -1 49 4 -7 4 -37 8 -66 8 -48 0 -54 -3 -71 -30 -10 -17 -29 -62 -42 -100 -33 -98 -49 -92 -49 18 0 55 -4 92 -12 100 -18 18 -103 15 -122 -4z"></path><path id="pc7f4G5rA" d="M1684 3291 c-84 -38 -124 -129 -124 -287 0 -96 18 -176 52 -232 19 -31 82 -72 110 -72 7 0 -8 10 -32 23 -88 44 -125 140 -118 306 5 118 21 168 69 217 60 62 187 71 255 19 73 -55 108 -197 86 -342 -23 -143 -71 -202 -182 -222 l-55 -10 54 4 c144 12 221 162 195 378 -12 93 -31 140 -75 185 -52 53 -158 68 -235 33z"></path><path id="pbQE4RGYo" d="M2136 3290 c-42 -21 -64 -47 -83 -95 -16 -43 -17 -467 -1 -483 13 -13 114 -17 122 -4 5 9 10 333 5 377 -2 17 -6 -60 -9 -170 l-5 -200 -55 0 -55 0 -3 213 c-3 228 3 273 43 320 70 83 252 63 300 -33 18 -37 20 -60 20 -270 l0 -230 -60 0 -60 0 0 178 c0 97 -3 177 -7 177 -3 0 -7 -78 -8 -174 0 -139 2 -176 14 -185 9 -7 38 -11 73 -9 l58 3 3 185 c4 228 -3 299 -31 342 -48 72 -178 101 -261 58z"></path><path id="pOKo0WSos" d="M2590 3288 c-59 -30 -97 -92 -108 -176 -5 -34 -5 -65 0 -68 4 -3 8 14 8 38 0 93 47 175 117 204 75 32 180 5 224 -57 22 -31 24 -43 24 -154 l0 -120 -78 -1 c-104 -2 -113 -14 -11 -14 49 0 85 5 92 12 17 17 16 209 -2 251 -40 95 -167 135 -266 85z"></path><path id="p3aqmUfFc" d="M2936 3291 c-8 -13 -8 -554 0 -575 5 -14 18 -16 68 -14 l61 3 3 108 3 107 54 0 54 0 3 -107 3 -108 59 -3 c32 -2 63 1 69 7 12 12 11 571 -1 583 -5 5 -36 8 -68 6 l-59 -3 -3 -116 c-2 -109 -4 -117 -25 -127 -22 -12 -22 -12 3 -9 25 2 25 3 30 122 l5 120 58 3 57 3 0 -291 0 -291 -57 3 -58 3 -3 108 -3 107 -64 0 -64 0 -3 -107 -3 -108 -55 0 -55 0 -3 288 -2 287 60 0 59 0 3 -122 3 -122 33 -3 c19 -3 32 0 32 7 0 6 -6 10 -12 9 -47 -6 -47 -5 -50 119 l-3 117 -62 3 c-34 2 -64 -1 -67 -7z"></path><path id="pGWdhWF5K" d="M170 2875 l0 -365 1630 0 1630 0 0 107 c0 132 -8 133 -11 0 l-2 -97 -1619 0 -1618 0 2 360 c2 198 0 360 -4 360 -5 0 -8 -164 -8 -365z"></path><path id="pbyhWiOAK" d="M1752 3180 c-37 -15 -52 -68 -52 -181 0 -146 29 -194 105 -175 42 11 50 40 50 176 0 104 -3 131 -18 153 -9 15 -22 27 -28 27 -5 0 1 -14 13 -31 21 -28 23 -41 23 -154 0 -108 -2 -126 -19 -144 -14 -15 -29 -21 -50 -19 -47 5 -66 51 -66 163 0 119 11 157 52 178 35 17 28 22 -10 7z"></path><path id="pssFNYkCK" d="M2196 3171 c-10 -11 -16 -28 -13 -38 4 -14 5 -13 6 5 3 54 86 49 94 -5 l4 -28 2 27 c0 18 -7 32 -21 42 -30 21 -51 20 -72 -3z"></path><path id="p1GTiYTjUj" d="M380 3100 c0 -46 3 -81 6 -78 7 8 8 147 0 155 -3 3 -6 -31 -6 -77z"></path><path id="p1DRgbhXTl" d="M2648 3168 c-38 -28 -50 -237 -18 -303 19 -37 63 -44 128 -19 l45 17 24 -27 c13 -15 23 -36 23 -46 0 -30 -62 -69 -131 -85 -44 -9 -54 -14 -33 -14 74 -2 174 58 174 104 0 12 -13 34 -29 49 l-29 28 -45 -17 c-107 -41 -141 1 -134 163 6 127 20 155 75 150 37 -3 37 -4 40 -51 3 -47 3 -47 -25 -45 -32 2 -53 -8 -53 -25 0 -8 3 -8 12 1 7 7 26 12 44 12 28 0 33 4 39 30 10 47 -13 84 -55 88 -19 2 -43 -3 -52 -10z"></path><path id="pjvvcJAQF" d="M3420 3139 c0 -23 3 -40 6 -36 9 9 11 68 2 73 -4 3 -8 -14 -8 -37z"></path><path id="pOSe9qdL3" d="M3421 2972 c1 -50 4 -90 8 -88 8 5 4 166 -4 174 -3 3 -5 -35 -4 -86z"></path><path id="p19SiRDPDG" d="M2470 3025 c-1 -50 25 -186 42 -219 23 -46 56 -86 72 -86 6 0 -1 11 -17 25 -48 45 -74 117 -78 212 -2 29 -6 58 -11 65 -4 7 -8 8 -8 3z"></path><path id="pF34stKFB" d="M380 2980 c0 -16 4 -30 8 -30 5 0 7 14 4 30 -2 17 -6 30 -8 30 -2 0 -4 -13 -4 -30z"></path><path id="p182j5PBOt" d="M679 2973 c-4 -114 -3 -173 4 -173 4 0 7 45 7 100 0 55 -2 100 -5 100 -3 0 -5 -12 -6 -27z"></path><path id="pEZvBZTsh" d="M1282 2908 l3 -83 39 1 c48 2 66 23 66 79 0 46 -20 81 -41 72 -11 -4 -10 -6 2 -6 18 -1 29 -29 29 -77 0 -34 -14 -51 -45 -54 -43 -5 -45 -2 -45 69 0 64 2 70 23 74 19 4 18 4 -6 6 l-28 1 3 -82z"></path><path id="p1FtLlqbkk" d="M380 2909 c0 -16 4 -28 9 -25 8 5 3 56 -5 56 -2 0 -4 -14 -4 -31z"></path><path id="pTugfxvXB" d="M380 2856 c0 -11 -15 -16 -52 -18 l-53 -3 -3 -53 c-5 -82 -5 -82 189 -82 92 0 170 3 172 8 3 4 -74 7 -171 7 l-177 0 -3 58 -3 57 56 0 c48 0 55 2 55 20 0 11 -2 20 -5 20 -3 0 -5 -7 -5 -14z"></path><path id="pIP1zBMXa" d="M3423 2790 c0 -36 2 -50 4 -32 2 17 2 47 0 65 -2 17 -4 3 -4 -33z"></path><path id="puP8zVwHl" d="M2605 2710 c3 -5 16 -10 28 -9 21 0 21 1 2 9 -28 12 -37 12 -30 0z"></path><path id="p4qJtjK78" d="M670 1732 c0 -4 18 -6 39 -4 35 4 40 1 44 -20 4 -21 4 -20 6 5 1 26 -1 27 -44 27 -25 0 -45 -3 -45 -8z"></path><path id="pCPGAOxiK" d="M883 1733 c-18 -4 -23 -11 -22 -36 0 -18 7 -50 15 -72 7 -22 11 -29 9 -15 -19 94 -18 107 6 113 33 9 111 8 125 -1 7 -4 14 -16 17 -27 4 -18 5 -18 6 2 0 13 -7 27 -18 33 -19 10 -94 12 -138 3z"></path><path id="pVKOO76xl" d="M532 1721 c-11 -6 -11 -23 -3 -84 17 -124 29 -164 66 -221 33 -52 35 -60 43 -183 11 -150 19 -170 103 -260 32 -35 70 -84 85 -110 15 -27 41 -65 56 -85 35 -45 123 -111 140 -105 8 3 6 8 -7 12 -56 22 -111 75 -170 166 -34 52 -84 117 -110 144 -69 72 -76 91 -86 237 -9 124 -11 133 -45 189 -36 59 -60 149 -66 244 l-3 50 60 6 60 6 -55 1 c-30 1 -61 -2 -68 -7z"></path><path id="pqboFCrxw" d="M767 1630 c4 -30 7 -99 8 -153 0 -53 3 -97 7 -97 14 0 12 135 -4 218 -10 48 -14 62 -11 32z"></path><path id="p1BvrHFaTf" d="M1015 1573 c-12 -155 1 -386 24 -436 22 -50 151 -223 181 -244 12 -9 33 -13 48 -10 66 12 189 52 213 68 23 16 96 165 160 329 21 55 41 220 27 220 -5 0 -8 -26 -8 -58 0 -78 -16 -133 -86 -295 -79 -185 -84 -191 -213 -228 -80 -23 -110 -28 -126 -21 -29 13 -162 184 -187 239 -15 35 -20 75 -24 225 -3 101 -2 211 3 246 6 34 6 62 2 62 -4 0 -10 -44 -14 -97z"></path><path id="pQjPSxvR5" d="M2715 1624 c-3 -20 -4 -38 -2 -40 3 -3 8 12 11 32 l7 36 55 -4 c30 -3 57 -8 61 -12 6 -6 -8 -96 -23 -144 -5 -15 -4 -15 6 1 6 9 17 48 24 86 l13 69 -36 6 c-20 3 -52 6 -72 6 -34 0 -37 -2 -44 -36z"></path><path id="pyGPFNsGs" d="M2987 1653 c-28 -4 -48 -35 -46 -71 1 -9 5 -1 11 19 9 35 12 37 64 44 29 3 57 4 62 1 5 -3 -8 -70 -28 -149 -34 -136 -39 -148 -83 -198 -28 -31 -58 -81 -72 -119 -39 -100 -44 -104 -179 -150 -45 -15 -104 -39 -131 -54 -28 -14 -63 -26 -80 -26 -53 0 -213 87 -282 153 -27 26 -33 38 -33 74 0 55 -24 174 -57 276 -13 43 -22 81 -20 83 3 3 27 6 55 7 28 1 47 6 43 10 -5 5 -33 6 -63 2 l-55 -7 28 -91 c37 -116 59 -223 59 -283 0 -38 5 -51 30 -74 76 -71 239 -160 292 -160 19 0 59 13 89 29 30 15 86 38 124 51 123 40 144 54 171 118 43 98 57 123 98 169 34 39 43 61 74 176 46 175 46 172 -3 173 -22 1 -53 -1 -68 -3z"></path><path id="pw1HWkE1F" d="M1755 1593 c-74 -16 -85 -24 -84 -56 l1 -32 7 30 c5 25 13 32 51 42 25 6 78 12 119 12 l74 1 -6 -39 c-6 -46 -17 -74 -107 -256 -50 -103 -70 -155 -75 -199 -4 -33 -9 -66 -12 -75 -4 -13 -3 -14 5 -2 6 8 13 42 17 75 5 48 22 91 77 200 75 149 95 197 107 264 l8 42 -81 -1 c-44 -1 -90 -3 -101 -6z"></path><path id="pBXO4Dwdx" d="M885 1464 c-7 -100 -5 -129 13 -203 11 -47 21 -75 21 -61 0 14 -6 48 -15 75 -12 40 -14 76 -9 178 4 70 5 127 2 127 -3 0 -8 -52 -12 -116z"></path><path id="p166iucuHK" d="M2691 1479 c-7 -50 -10 -93 -7 -96 3 -4 7 0 7 8 1 8 3 23 4 34 12 94 17 145 13 145 -2 0 -10 -41 -17 -91z"></path><path id="pJoQ7yhAI" d="M2238 1548 c7 -7 13 -30 13 -52 1 -23 5 -54 9 -71 5 -19 6 -4 3 40 -6 84 -9 95 -25 95 -9 0 -9 -3 0 -12z"></path><path id="pDBJJrpKR" d="M2917 1493 c-33 -124 -64 -164 -103 -132 -16 13 -15 53 1 94 6 16 5 17 -4 9 -19 -17 -26 -91 -11 -109 17 -21 53 -19 74 4 9 10 25 41 35 70 10 28 20 49 22 47 2 -2 5 16 6 40 1 24 1 44 0 44 -2 0 -11 -30 -20 -67z"></path><path id="p9UjQObuT" d="M2275 1351 c3 -24 7 -46 10 -49 8 -8 4 40 -6 68 -6 19 -7 14 -4 -19z"></path><path id="pECRhATcS" d="M2667 1348 c-10 -37 -102 -172 -132 -192 -17 -11 -47 -16 -96 -16 -67 0 -73 2 -105 34 -28 28 -34 42 -34 75 0 23 -4 41 -8 41 -11 0 1 -79 16 -107 20 -37 64 -53 142 -53 l71 0 47 48 c49 49 117 163 109 185 -2 6 -7 0 -10 -15z"></path><path id="pLqgHHJpp" d="M781 1313 c0 -12 8 -62 20 -112 22 -96 39 -119 79 -106 21 7 56 62 46 72 -3 3 -10 -5 -15 -19 -12 -33 -36 -51 -59 -44 -19 6 -24 23 -65 211 -4 18 -5 18 -6 -2z"></path><path id="p38NbyXnX" d="M1659 941 c-45 -45 -61 -69 -78 -123 -38 -115 -98 -148 -241 -131 -36 4 -119 6 -185 3 l-120 -6 170 -4 c241 -6 256 -6 293 9 41 17 67 53 97 138 20 55 35 77 77 115 29 25 51 48 48 50 -3 3 -30 -21 -61 -51z"></path></g></g></svg>