<svg xmlns="http://www.w3.org/2000/svg" width="359" height="468" viewBox="0 0 3590 4680"><g id="l4MsGJKE0pFUibf5pEIhAlx" fill="rgb(33,31,18)" style="transform: none;"><g><path id="pkcXDlisU" d="M1470 4560 c-330 -26 -608 -91 -810 -191 -135 -66 -207 -117 -303 -218 -88 -92 -123 -144 -195 -286 -57 -114 -74 -165 -104 -320 -21 -106 -22 -138 -25 -935 -4 -793 -3 -831 17 -970 22 -149 47 -252 82 -330 89 -196 169 -341 215 -390 28 -30 53 -63 53 -70 0 -12 242 -250 254 -250 6 0 27 -14 46 -32 78 -69 303 -193 461 -252 95 -36 343 -84 495 -96 236 -19 566 26 773 105 395 151 666 370 896 724 98 152 180 355 221 546 18 85 19 143 19 970 0 812 -1 887 -18 970 -20 99 -72 269 -91 300 -7 11 -19 38 -26 60 -32 98 -167 262 -315 382 -88 72 -324 182 -451 212 -83 19 -293 50 -414 60 -166 15 -646 21 -780 11z m790 -175 c391 -40 643 -134 844 -314 l39 -36 -47 -5 -48 -5 -36 -82 c-19 -46 -38 -80 -41 -77 -3 3 -6 40 -6 82 l0 77 -170 0 -170 0 -10 -50 c-11 -48 -12 -50 -47 -53 -41 -4 -51 8 -63 71 l-7 37 -173 0 -173 0 -31 -72 -30 -73 -1 73 0 73 -82 -3 -83 -3 0 -310 0 -310 145 0 c167 0 191 9 232 79 20 36 23 54 23 142 0 93 -2 104 -27 142 l-28 42 27 55 c15 30 30 55 33 55 3 0 34 -109 68 -242 34 -134 66 -250 71 -258 6 -11 30 -16 95 -18 l86 -3 11 28 c15 41 105 358 121 427 12 55 13 44 18 -195 l5 -254 85 0 85 0 42 85 42 85 0 -76 c1 -53 5 -80 15 -88 9 -7 41 -11 83 -9 l68 3 5 255 5 255 47 -95 c67 -136 124 -346 130 -480 l3 -55 -1617 -3 -1618 -2 0 25 c0 14 7 70 15 124 49 324 219 604 460 753 159 99 507 189 815 211 143 11 659 5 790 -8z m-120 -761 c0 -25 -27 -57 -41 -49 -10 7 -12 88 -2 98 11 12 43 -25 43 -49z m-802 -649 c-73 -82 -109 -115 -125 -115 -12 0 -86 14 -163 30 -221 47 -240 44 -240 -39 0 -59 36 -173 141 -446 l50 -131 -62 -99 c-68 -108 -90 -170 -114 -315 -37 -233 -3 -495 88 -675 28 -57 113 -180 155 -227 74 -82 273 -206 415 -258 139 -51 423 -53 577 -4 124 39 179 65 282 136 144 98 231 191 307 333 69 126 103 225 120 349 36 254 -24 537 -147 700 l-29 39 32 86 c18 47 52 136 77 196 92 224 99 249 96 312 l-3 58 -55 3 c-32 1 -118 -10 -204 -27 -81 -16 -153 -28 -160 -25 -6 2 -60 56 -119 119 l-109 115 634 -2 633 -3 3 -580 c4 -718 -4 -817 -85 -1055 -68 -201 -178 -378 -345 -554 -225 -238 -480 -385 -819 -471 -143 -36 -272 -49 -449 -42 -186 7 -303 30 -479 94 -243 88 -425 198 -590 358 -237 229 -372 474 -443 801 -20 95 -22 129 -25 763 -2 365 -2 670 1 677 4 12 113 14 631 14 l626 0 -103 -115z m672 111 c0 -3 -27 -80 -60 -171 -34 -92 -69 -191 -78 -221 l-17 -54 -47 0 c-26 0 -49 4 -53 10 -5 8 -140 384 -152 423 -5 16 9 17 201 17 113 0 206 -2 206 -4z m-487 -369 l34 -104 -46 -12 c-67 -18 -201 -83 -281 -137 -39 -26 -72 -45 -73 -43 -9 11 -99 260 -96 263 2 2 38 -2 79 -9 41 -8 102 -14 135 -14 l60 -1 68 80 c38 44 72 80 77 80 4 0 24 -46 43 -103z m812 -56 c33 0 94 6 135 14 41 7 76 12 77 11 2 -2 -96 -257 -102 -264 -1 -1 -33 19 -71 44 -82 55 -199 115 -271 138 l-51 17 29 87 c16 48 32 94 35 102 4 10 28 -9 82 -68 l77 -82 60 1z m-387 -217 c281 -58 561 -325 617 -589 38 -185 26 -323 -43 -483 -59 -137 -99 -198 -180 -279 -173 -171 -345 -243 -579 -243 -160 0 -256 30 -398 125 -119 79 -171 129 -231 222 -104 160 -120 210 -135 408 -10 135 -9 143 15 239 42 162 72 215 189 331 113 113 205 177 317 223 148 60 286 75 428 46z"></path><path id="p19PtutGfM" d="M479 4003 c-46 -121 -151 -525 -147 -567 l3 -31 90 0 90 0 31 145 31 145 15 -70 c9 -38 24 -105 33 -147 l17 -77 454 -1 454 0 0 85 0 84 -52 3 -53 3 -3 228 -2 227 -90 0 -90 0 0 -230 0 -231 -132 3 -133 3 -3 27 c-3 27 -3 27 65 30 l68 3 3 82 3 82 -68 3 c-66 3 -68 4 -71 30 l-3 27 88 3 88 3 3 30 c2 16 1 53 -3 82 l-6 53 -170 0 -169 0 -2 -267 -3 -267 -70 265 -70 264 -93 3 -92 3 -11 -28z"></path><path id="pAjNEHgOs" d="M1562 3718 l3 -313 165 0 165 0 3 82 3 82 -83 3 c-81 3 -83 4 -83 28 0 24 3 25 68 28 l67 3 0 84 0 84 -67 3 c-65 3 -68 4 -68 28 0 24 2 25 85 30 l85 5 0 80 0 80 -173 3 -172 2 2 -312z"></path><path id="pUoph8zPJ" d="M2045 2229 c-49 -28 -124 -68 -166 -89 l-76 -39 -159 80 c-146 73 -163 79 -219 79 -34 0 -66 -5 -73 -12 -20 -20 -14 -115 19 -282 l31 -158 -141 -142 -141 -141 0 -51 c0 -73 11 -83 105 -94 189 -22 310 -41 318 -49 4 -4 42 -80 83 -167 120 -256 99 -229 171 -232 75 -4 65 -16 163 203 40 88 81 170 92 181 13 15 37 24 76 28 214 24 315 41 328 53 9 9 14 35 14 70 l0 55 -136 139 -136 138 6 48 c4 26 14 73 21 103 26 100 38 236 25 275 -24 73 -82 74 -205 4z m-241 -327 c23 3 84 24 135 47 52 23 95 40 97 38 2 -1 -6 -55 -18 -120 -11 -65 -17 -128 -13 -144 3 -15 42 -64 86 -108 l80 -82 -118 -12 c-93 -9 -122 -16 -139 -32 -12 -11 -41 -65 -65 -120 -50 -116 -45 -117 -111 18 -57 116 -65 121 -194 140 -60 9 -111 17 -113 19 -2 2 33 39 78 82 l81 78 0 60 c-1 32 -7 88 -15 124 -26 118 -29 116 86 58 85 -43 107 -50 143 -46z"></path></g></g><g id="l1BpQIAi4WDh1YDz3oZIxAb" fill="rgb(119,92,48)" style="transform: none;"><g><path id="p9m4LKwWA" d="M1468 4423 c-10 -2 -18 -11 -18 -19 0 -11 20 -14 100 -14 93 0 100 1 100 20 0 18 -6 20 -82 19 -46 -1 -91 -3 -100 -6z"></path><path id="p1DIZm6DQ" d="M1990 4412 c0 -17 13 -19 143 -25 134 -6 306 -25 407 -47 68 -14 100 -12 100 5 0 8 -2 15 -4 15 -2 0 -47 9 -100 20 -113 23 -367 50 -472 50 -65 0 -74 -2 -74 -18z"></path><path id="pBpAEYh6I" d="M1250 4404 c-212 -28 -509 -119 -625 -192 -78 -49 -163 -123 -218 -189 -55 -68 -118 -168 -137 -217 -9 -24 -7 -26 15 -26 18 0 27 8 36 35 7 19 16 35 20 35 4 0 13 16 20 35 7 19 17 35 21 35 4 0 8 9 8 20 0 11 7 20 15 20 10 0 15 10 15 30 0 25 4 30 23 30 24 0 87 57 87 78 0 7 9 12 21 12 12 0 23 8 26 20 3 11 14 20 24 20 11 0 19 5 19 10 0 6 7 10 15 10 8 0 15 7 15 15 0 9 9 15 25 15 14 0 25 5 25 10 0 6 11 10 24 10 14 0 31 7 40 15 8 8 24 15 35 15 12 0 21 5 21 10 0 6 6 10 14 10 8 0 68 15 133 34 130 37 264 62 391 72 71 6 82 9 82 25 0 23 -35 24 -190 3z"></path><path id="pCa1kMl0U" d="M2680 4320 c0 -16 7 -20 30 -20 17 0 30 -4 30 -10 0 -5 9 -10 21 -10 11 0 27 -7 35 -15 19 -19 87 -21 82 -2 -5 13 -152 76 -180 77 -11 0 -18 -8 -18 -20z"></path><path id="p118rYz3Do" d="M2910 4226 c0 -19 8 -28 35 -37 19 -7 35 -17 35 -21 0 -4 9 -8 20 -8 11 0 20 -7 20 -15 0 -9 9 -15 25 -15 17 0 25 -5 25 -18 0 -23 19 -42 43 -42 17 0 18 -5 13 -35 -7 -36 -8 -36 44 -39 8 -1 21 -15 29 -31 8 -17 18 -31 23 -33 4 -2 8 -10 8 -18 0 -8 7 -14 15 -14 8 0 15 -9 15 -20 0 -24 31 -90 42 -90 4 0 8 -7 8 -16 0 -9 11 -46 24 -83 13 -36 32 -101 42 -143 14 -62 21 -78 36 -78 24 0 23 5 -12 137 -65 248 -166 416 -327 544 -65 52 -140 99 -158 99 -3 0 -5 -11 -5 -24z"></path><path id="pZCwvzeI6" d="M492 4032 c-15 -10 -82 -233 -82 -274 0 -15 -4 -28 -9 -28 -12 0 -71 -238 -71 -287 0 -42 0 -43 35 -43 24 0 35 5 35 15 0 8 -6 15 -14 15 -8 0 -17 4 -20 8 -8 13 105 434 143 535 10 27 13 28 73 25 l62 -3 74 -275 c40 -151 77 -277 81 -280 4 -3 10 -13 14 -22 8 -22 77 -26 77 -4 0 7 -9 16 -20 19 -19 5 -20 14 -20 286 l0 281 140 0 c157 0 139 9 145 -73 2 -21 -4 -31 -19 -37 -17 -7 -14 -9 17 -9 l37 -1 0 60 c0 33 -4 60 -10 60 -5 0 -10 9 -10 20 0 19 -7 20 -156 20 -121 0 -159 -3 -170 -14 -11 -12 -14 -63 -15 -268 -1 -189 -4 -239 -10 -198 -5 30 -14 57 -19 58 -6 2 -10 15 -10 28 0 27 -75 336 -90 372 -9 20 -16 22 -92 22 -46 0 -89 -4 -96 -8z"></path><path id="p2ygdPHVB" d="M1270 4005 c0 -19 5 -35 10 -35 6 0 10 7 10 15 0 12 13 15 60 15 47 0 60 -3 60 -15 0 -8 5 -15 10 -15 6 0 10 16 10 35 l0 35 -80 0 -80 0 0 -35z"></path><path id="pWvyP4znS" d="M1556 4024 c-3 -9 -6 -118 -7 -242 0 -125 -3 -221 -6 -214 -3 8 -27 12 -70 12 -56 0 -64 -2 -61 -17 2 -14 15 -19 56 -21 l52 -3 0 -55 c0 -41 -4 -54 -15 -54 -8 0 -15 -4 -15 -9 0 -7 77 -21 123 -21 24 0 22 26 -3 33 -19 5 -20 14 -20 286 l0 281 141 0 c132 0 141 -1 146 -20 9 -34 33 -24 33 14 0 44 -8 46 -196 46 -129 0 -153 -2 -158 -16z"></path><path id="pcFIKrNh8" d="M1943 4033 c-19 -4 -23 -11 -23 -39 0 -38 24 -48 33 -14 4 17 14 20 56 20 l51 0 0 -90 c0 -90 0 -90 25 -90 15 0 28 7 32 18 3 9 19 50 35 90 l30 72 69 0 c38 0 69 -1 69 -3 0 -1 -22 -46 -50 -100 l-50 -97 34 -44 c19 -25 36 -62 40 -85 9 -56 36 -57 36 -1 0 22 -4 40 -10 40 -5 0 -10 14 -10 31 0 22 -5 32 -20 36 -11 3 -20 9 -20 14 0 13 53 119 60 119 3 0 32 -103 65 -230 51 -200 61 -230 78 -230 25 0 24 1 -57 304 -34 130 -60 238 -58 241 3 3 29 5 58 5 l52 0 7 -37 c10 -52 22 -73 45 -73 13 0 20 7 20 20 0 11 -4 20 -10 20 -5 0 -12 16 -16 35 -3 19 -10 35 -15 35 -5 0 -9 9 -9 20 0 18 -7 20 -69 20 -58 0 -70 -3 -74 -17 -4 -17 -5 -17 -6 0 -1 15 -12 17 -86 17 -50 0 -85 -4 -85 -10 0 -5 -7 -10 -15 -10 -10 0 -15 -11 -15 -35 0 -24 -5 -35 -14 -35 -8 0 -17 -12 -19 -27 -2 -16 -5 2 -6 38 -1 51 -5 68 -17 73 -17 7 -105 6 -141 -1z"></path><path id="pXq2BWUec" d="M2640 4020 c0 -11 -6 -20 -14 -20 -8 0 -16 -15 -20 -37 -10 -61 -8 -75 11 -71 11 2 20 19 28 53 l10 50 63 3 c57 3 63 1 58 -15 -2 -10 -12 -49 -21 -88 -20 -83 -109 -398 -124 -437 -10 -26 -8 -28 13 -28 20 0 26 9 44 74 12 41 22 86 22 100 0 14 4 26 8 26 10 0 42 119 42 154 0 14 4 26 8 26 5 0 15 25 22 56 8 31 20 58 27 61 7 3 13 20 13 40 l0 34 53 -3 52 -3 -3 -152 c-2 -84 0 -153 5 -153 5 0 23 33 40 73 17 39 38 89 47 110 16 37 16 37 -7 37 -15 0 -28 -9 -35 -22 -9 -19 -11 -8 -11 58 l-1 81 -46 7 c-84 11 -102 8 -107 -16 l-4 -23 -8 23 c-7 20 -13 22 -86 22 -72 0 -79 -2 -79 -20z"></path><path id="p1GpOohx3F" d="M3030 3964 c0 -44 18 -42 37 4 13 31 12 32 -12 32 -22 0 -25 -4 -25 -36z"></path><path id="p1As0ZoqH2" d="M1880 3914 c0 -9 -9 -18 -20 -21 -35 -9 -24 -33 15 -33 33 0 35 2 35 35 0 24 -5 35 -15 35 -8 0 -15 -7 -15 -16z"></path><path id="pYBQJeK8e" d="M960 3870 c0 -13 7 -20 20 -20 13 0 20 7 20 20 0 13 -7 20 -20 20 -13 0 -20 -7 -20 -20z"></path><path id="p1FXvRk5r3" d="M1704 3876 c-3 -7 -4 -33 -2 -57 2 -32 8 -45 21 -47 15 -3 17 5 17 57 0 48 -3 61 -15 61 -9 0 -18 -6 -21 -14z"></path><path id="p19x0BN9Hn" d="M537 3677 c-20 -94 -40 -187 -44 -206 -4 -21 -13 -36 -25 -38 -33 -9 -21 -33 17 -33 28 0 36 4 40 23 2 12 14 74 27 137 12 63 23 109 26 102 2 -7 13 -12 24 -12 18 0 20 4 14 32 -3 18 -10 34 -14 38 -4 3 -8 30 -10 60 -1 30 -6 58 -10 62 -4 4 -24 -70 -45 -165z"></path><path id="pSs5Ig3jL" d="M1070 3780 c0 -5 7 -10 15 -10 11 0 15 -12 15 -51 0 -42 -3 -52 -20 -56 -34 -9 -24 -33 14 -33 30 0 34 4 40 31 3 17 6 53 6 80 l0 49 -35 0 c-19 0 -35 -4 -35 -10z"></path><path id="pQHKEADrc" d="M1810 3780 c0 -5 7 -10 15 -10 24 0 21 -107 -2 -113 -10 -3 -1 -5 20 -6 l37 -1 0 70 0 70 -35 0 c-19 0 -35 -4 -35 -10z"></path><path id="py3a0mYRV" d="M2569 3768 c-1 -17 -2 -19 -6 -5 -2 9 -14 17 -25 17 -18 0 -19 -4 -14 -35 4 -20 15 -62 25 -93 l17 -57 22 87 c27 106 27 108 2 108 -14 0 -20 -7 -21 -22z"></path><path id="pKckM7xhM" d="M246 3751 c-3 -4 -10 -20 -15 -35 -10 -24 -8 -26 14 -26 22 0 25 4 25 35 0 33 -12 46 -24 26z"></path><path id="pbU5OPqU5" d="M3080 3735 c0 -2 -9 -27 -20 -55 l-20 -50 24 0 c22 0 24 5 28 55 1 30 0 55 -4 55 -5 0 -8 -2 -8 -5z"></path><path id="pl2n1wo4A" d="M2064 3697 c-3 -8 -4 -45 -2 -83 2 -56 6 -69 21 -72 15 -3 17 5 17 62 0 59 2 66 20 66 17 0 20 -7 20 -40 0 -22 -4 -40 -10 -40 -5 0 -10 -11 -10 -25 0 -28 12 -32 33 -10 33 32 32 100 -1 138 -18 20 -80 23 -88 4z"></path><path id="pNRCecbuW" d="M195 3608 c-22 -81 -45 -228 -45 -300 0 -50 3 -58 18 -58 17 0 20 12 25 103 4 56 14 131 22 167 27 110 30 150 13 150 -10 0 -21 -21 -33 -62z"></path><path id="puqfAQAyu" d="M1704 3646 c-3 -7 -4 -33 -2 -57 l3 -44 83 -3 82 -3 0 -50 c0 -42 -3 -52 -20 -56 -11 -3 -20 -12 -20 -20 0 -10 10 -13 38 -11 l37 3 0 85 0 85 -82 3 -83 3 0 39 c0 29 -4 40 -15 40 -9 0 -18 -6 -21 -14z"></path><path id="pp1qtYgQN" d="M600 3608 c0 -13 7 -60 16 -105 l17 -83 36 1 c20 1 28 3 19 6 -10 3 -20 22 -27 51 -5 26 -15 71 -21 100 -12 53 -40 74 -40 30z"></path><path id="pgofuRTBC" d="M2295 3578 c-10 -48 -44 -104 -71 -119 -33 -17 -30 -29 7 -29 53 0 99 70 99 153 0 39 -27 35 -35 -5z"></path><path id="pYD7F7leY" d="M2990 3525 c-22 -47 -46 -88 -55 -91 -26 -11 -16 -24 18 -24 26 0 36 6 45 25 7 14 12 35 12 45 0 11 4 20 8 20 13 0 32 48 32 80 0 51 -19 33 -60 -55z"></path><path id="pUEP3f4G2" d="M962 3563 c3 -15 16 -18 86 -21 64 -2 82 -6 82 -17 0 -8 5 -15 10 -15 6 0 10 -22 10 -50 l0 -50 35 0 c19 0 35 5 35 10 0 6 -7 10 -15 10 -12 0 -15 13 -15 55 l0 55 50 0 c43 0 50 3 50 20 0 19 -7 20 -166 20 -152 0 -165 -1 -162 -17z"></path><path id="pfU7Zf9Ow" d="M2790 3476 c0 -64 7 -76 45 -76 38 0 57 27 22 32 -18 2 -23 11 -25 46 -3 34 -7 42 -23 42 -16 0 -19 -7 -19 -44z"></path><path id="pCkFih2YW" d="M3062 3443 c3 -36 5 -38 41 -41 27 -2 37 1 37 11 0 8 -9 17 -21 20 -11 3 -23 15 -26 26 -3 12 -12 21 -20 21 -10 0 -13 -10 -11 -37z"></path><path id="peK0GcGVD" d="M1920 3435 c0 -33 2 -35 35 -35 39 0 50 24 15 33 -11 3 -20 12 -20 21 0 9 -7 16 -15 16 -10 0 -15 -11 -15 -35z"></path><path id="pSv7STr19" d="M3200 3454 c0 -9 -9 -18 -20 -21 -35 -9 -24 -33 15 -33 33 0 35 2 35 35 0 24 -5 35 -15 35 -8 0 -15 -7 -15 -16z"></path><path id="p1C08XUrYq" d="M2138 3433 c-33 -8 -20 -33 17 -33 28 0 35 4 35 20 0 20 -14 23 -52 13z"></path><path id="p2bLMXlAP" d="M3410 3330 c0 -63 2 -70 20 -70 17 0 20 7 20 48 0 61 -9 92 -26 92 -11 0 -14 -17 -14 -70z"></path><path id="pwOQA54qy" d="M157 3113 c-4 -3 -7 -28 -7 -55 0 -46 1 -48 29 -48 25 0 30 5 34 28 l4 27 2 -27 c1 -27 3 -28 51 -28 44 0 50 3 50 21 0 26 23 49 49 49 14 0 21 -6 21 -19 0 -21 19 -31 61 -31 19 0 29 5 29 15 0 11 11 15 40 15 29 0 40 -4 40 -15 0 -10 11 -15 35 -15 24 0 35 5 35 15 0 10 10 15 30 15 27 0 30 -3 30 -30 0 -28 3 -30 35 -30 28 0 35 4 35 20 0 15 7 20 25 20 14 0 25 5 25 10 0 6 22 10 49 10 44 0 49 -3 55 -25 5 -21 12 -25 46 -25 33 0 40 3 40 20 0 14 7 20 24 20 13 0 31 3 40 6 11 4 16 1 16 -10 0 -10 11 -19 30 -22 25 -5 30 -11 30 -35 0 -26 3 -29 35 -29 33 0 35 2 35 35 0 28 -4 35 -20 35 -11 0 -20 7 -20 16 0 12 5 13 23 7 24 -9 129 -9 192 -1 22 3 32 4 23 1 -11 -3 -18 -14 -18 -29 0 -16 -6 -24 -17 -24 -9 0 -25 -7 -35 -17 -17 -15 -18 -15 -18 5 0 18 -6 22 -35 22 -33 0 -35 -2 -35 -35 0 -25 -4 -35 -16 -35 -13 0 -15 -8 -12 -39 3 -39 3 -40 -27 -34 -50 8 -55 11 -55 38 0 15 -6 25 -14 25 -8 0 -17 11 -20 25 -5 21 -12 25 -46 25 -33 0 -40 -3 -40 -20 0 -11 -7 -20 -15 -20 -8 0 -15 5 -15 10 0 6 -15 10 -34 10 -26 0 -36 -5 -41 -20 -5 -16 -15 -20 -46 -20 -35 0 -39 3 -39 25 0 22 -4 25 -35 25 -19 0 -35 -4 -35 -10 0 -5 -18 -10 -40 -10 -39 0 -40 -1 -40 -35 0 -31 3 -35 25 -35 15 0 25 -6 25 -14 0 -15 21 -26 51 -26 12 0 19 -7 19 -19 0 -10 7 -37 15 -60 12 -36 12 -41 0 -41 -8 0 -15 9 -15 20 0 16 -7 20 -35 20 -39 0 -41 -7 -28 -84 l6 -38 57 6 c48 6 59 4 64 -9 13 -34 7 -37 -59 -30 -62 7 -65 6 -65 -14 0 -12 -6 -21 -15 -21 -11 0 -15 -11 -15 -36 l0 -37 47 6 c26 3 49 10 51 16 2 6 18 11 37 11 27 0 35 -5 46 -32 7 -18 17 -36 22 -39 10 -7 -2 -59 -14 -59 -5 0 -9 -16 -9 -35 0 -19 5 -35 10 -35 6 0 10 -9 10 -20 0 -11 -4 -20 -10 -20 -5 0 -10 -13 -10 -30 0 -23 -4 -30 -20 -30 -12 0 -20 7 -20 16 0 14 -8 16 -52 11 -29 -4 -54 -11 -56 -17 -2 -5 -12 -10 -23 -10 -15 0 -19 -7 -19 -35 0 -25 4 -35 16 -35 20 0 44 -24 44 -44 0 -12 10 -16 35 -16 32 0 35 2 35 30 0 27 3 30 30 30 27 0 30 3 31 33 0 17 3 26 6 20 2 -7 17 -14 31 -14 17 -1 21 -3 10 -6 -10 -2 -18 -11 -18 -19 0 -8 -4 -14 -10 -14 -5 0 -10 -9 -10 -20 0 -11 -7 -20 -15 -20 -8 0 -15 -7 -15 -15 0 -8 -4 -15 -10 -15 -5 0 -10 -16 -10 -36 0 -48 -32 -204 -42 -204 -5 0 -8 16 -8 35 0 33 -2 35 -35 35 -28 0 -35 -4 -35 -20 0 -11 -7 -20 -15 -20 -10 0 -15 -10 -15 -34 0 -30 4 -35 30 -41 17 -4 30 -10 30 -15 0 -5 12 -11 28 -13 21 -3 18 -4 -12 -6 l-39 -1 5 -45 c4 -33 2 -45 -8 -45 -7 0 -16 9 -19 20 -5 15 -15 20 -41 20 -32 0 -34 -2 -34 -33 0 -47 29 -77 74 -77 25 0 36 4 36 15 0 8 7 15 15 15 8 0 15 -7 15 -15 0 -10 10 -15 30 -15 l30 0 0 63 c0 75 24 230 49 313 10 33 48 108 84 166 37 58 67 111 67 117 0 6 -23 71 -51 144 -84 218 -149 410 -149 439 0 17 7 29 18 32 10 3 94 -10 187 -29 94 -19 179 -35 191 -35 13 0 57 41 132 125 112 125 147 149 181 128 8 -5 37 -70 64 -144 26 -74 62 -174 80 -224 l33 -90 79 -3 80 -2 17 54 c33 105 139 390 150 403 6 7 18 13 28 13 9 0 76 -61 148 -136 96 -99 136 -134 149 -130 64 18 363 68 377 63 18 -7 22 -53 6 -89 -106 -256 -208 -530 -202 -548 3 -8 19 -35 37 -60 88 -122 144 -299 154 -488 1 -9 11 -11 36 -6 31 5 35 4 35 -15 0 -17 6 -21 35 -21 19 0 35 5 35 10 0 6 7 10 15 10 10 0 15 11 15 35 0 28 -4 35 -20 35 -11 0 -20 5 -20 10 0 6 -24 10 -52 11 -29 0 -47 3 -40 6 23 9 9 113 -16 113 -13 0 -14 14 -8 95 l6 95 -25 0 c-18 0 -25 5 -25 19 0 10 -10 22 -22 26 -21 7 -20 8 10 12 17 2 32 8 32 14 0 5 15 9 34 9 l34 0 7 -70 7 -70 37 -1 c20 -1 28 -3 19 -6 -12 -3 -18 -14 -18 -34 0 -23 -4 -29 -21 -29 -20 0 -21 -4 -15 -52 3 -29 6 -65 6 -80 0 -25 4 -28 35 -28 31 0 35 3 35 25 0 16 6 25 15 25 10 0 15 11 15 35 0 28 -4 35 -20 35 -11 0 -20 7 -20 15 0 8 9 15 20 15 11 0 20 5 20 10 0 6 7 10 15 10 10 0 15 10 15 30 0 20 5 30 15 30 10 0 15 11 15 35 0 33 -2 35 -34 35 -32 0 -35 -3 -39 -32 -4 -32 -4 -32 -5 5 -2 25 -7 37 -17 37 -10 0 -15 10 -15 30 0 28 -3 30 -35 30 -33 0 -35 2 -35 35 0 24 -5 35 -15 35 -9 0 -15 9 -15 25 0 20 -5 25 -25 25 -16 0 -25 6 -25 15 0 10 -11 15 -35 15 -31 0 -35 -3 -35 -25 0 -20 -5 -25 -25 -25 -18 0 -25 5 -25 20 0 29 21 70 37 70 9 0 14 15 15 48 1 36 2 39 5 15 5 -36 17 -40 82 -27 25 5 31 11 31 33 0 56 -10 71 -46 71 -29 0 -34 3 -34 24 0 22 3 23 45 18 l45 -5 0 37 c0 32 -3 36 -25 36 -31 0 -31 12 -4 84 18 46 26 56 45 56 21 0 24 5 24 35 0 19 -4 35 -10 35 -5 0 -10 23 -10 50 0 49 1 50 30 50 28 0 30 3 30 35 0 33 -2 35 -35 35 -19 0 -35 -4 -35 -8 0 -10 -131 -33 -222 -39 -38 -3 -58 -1 -58 6 0 6 -16 11 -35 11 -33 0 -35 -2 -35 -35 0 -31 -3 -35 -36 -41 -26 -5 -40 -2 -52 10 -15 15 -14 16 16 16 30 0 32 2 32 35 l0 35 -63 0 c-49 0 -68 4 -80 18 -22 24 -23 82 -2 82 8 0 15 -4 15 -10 0 -6 27 -10 60 -10 35 0 60 4 60 10 0 13 73 2 78 -11 5 -12 72 -12 72 0 0 5 9 11 20 14 11 3 20 1 20 -5 0 -6 17 -8 40 -6 38 3 40 2 40 -24 0 -25 3 -28 35 -28 33 0 35 2 35 35 l0 35 54 0 c34 0 56 5 59 13 4 9 8 9 14 1 4 -6 42 -14 83 -18 41 -3 94 -9 118 -12 27 -4 42 -2 42 5 0 6 14 11 30 11 23 0 30 -4 30 -20 0 -13 7 -20 20 -20 11 0 20 -6 20 -14 0 -19 -82 -30 -164 -21 l-66 7 0 -36 c0 -33 2 -36 30 -36 20 0 30 -5 30 -15 0 -9 9 -15 25 -15 20 0 25 -5 25 -24 0 -26 16 -36 61 -36 22 0 29 5 29 19 0 21 19 31 56 31 21 0 24 5 24 35 0 19 5 35 10 35 6 0 10 16 10 35 0 28 -4 35 -20 35 -13 0 -20 7 -20 20 0 17 7 20 45 20 38 0 45 -3 45 -20 0 -16 7 -20 35 -20 28 0 35 4 35 20 0 15 7 20 26 20 22 0 25 4 22 28 l-3 27 -1641 3 c-902 1 -1644 -1 -1647 -5z m1491 -91 c3 -29 6 -32 38 -32 32 0 34 2 34 35 0 19 4 35 9 35 5 0 12 -16 15 -35 7 -33 9 -35 46 -35 36 0 40 3 40 25 0 16 6 25 15 25 8 0 15 5 15 10 0 6 16 10 35 10 32 0 35 -2 35 -30 0 -16 5 -30 10 -30 17 0 0 -96 -30 -180 -29 -80 -50 -101 -50 -51 0 29 -3 31 -35 31 -33 0 -35 -2 -35 -35 0 -24 5 -35 15 -35 10 0 15 -10 15 -30 0 -23 4 -30 20 -30 11 0 20 -4 20 -10 0 -5 -23 -10 -50 -10 -45 0 -52 3 -60 26 -6 14 -10 40 -10 59 0 43 -9 65 -26 65 -9 0 -14 12 -14 35 0 31 3 35 25 35 14 0 25 5 25 10 0 6 7 10 15 10 8 0 15 -4 15 -10 0 -5 16 -10 35 -10 33 0 35 2 35 35 0 32 2 35 30 35 28 0 30 3 30 35 0 33 -2 35 -35 35 -33 0 -35 -2 -35 -35 0 -28 -4 -35 -20 -35 -11 0 -20 5 -20 10 0 6 -16 10 -35 10 -19 0 -35 -4 -35 -10 0 -5 -13 -10 -30 -10 -16 0 -30 5 -30 10 0 6 -6 10 -13 10 -7 0 -20 23 -29 51 -15 47 -15 50 0 47 11 -2 18 -15 20 -36z"></path><path id="p1ERZwH11O" d="M394 2935 c5 -45 3 -55 -9 -55 -10 0 -15 -10 -15 -35 0 -33 2 -35 35 -35 31 0 35 3 35 25 0 16 6 25 15 25 8 0 15 9 15 20 0 11 7 20 15 20 8 0 15 5 15 10 0 6 16 10 35 10 33 0 35 2 35 35 0 33 -2 35 -35 35 -19 0 -35 -4 -35 -10 0 -5 -9 -10 -20 -10 -11 0 -20 5 -20 10 0 6 -16 10 -36 10 l-37 0 7 -55z"></path><path id="pEkKTTJjz" d="M3390 2969 c0 -12 -8 -23 -20 -26 -15 -4 -20 -14 -20 -39 0 -27 4 -34 20 -34 11 0 20 -4 20 -10 0 -5 -4 -10 -10 -10 -5 0 -10 -16 -10 -35 0 -28 4 -35 20 -35 11 0 20 -7 20 -15 0 -8 -4 -15 -10 -15 -5 0 -10 -7 -10 -15 0 -8 -7 -15 -15 -15 -10 0 -15 10 -15 30 0 28 -3 30 -35 30 -39 0 -40 -3 -29 -84 l7 -46 53 0 c30 0 54 -4 54 -10 0 -5 -10 -10 -23 -10 -34 0 -59 -77 -41 -124 4 -12 20 -16 55 -16 l48 0 1 250 0 250 -30 0 c-24 0 -30 -4 -30 -21z"></path><path id="pH5lBrXCS" d="M150 2925 l0 -55 60 0 60 0 0 49 0 48 -46 7 c-76 10 -74 11 -74 -49z"></path><path id="pHQqImMyL" d="M3270 2905 c0 -33 2 -35 35 -35 33 0 35 2 35 35 0 33 -2 35 -35 35 -33 0 -35 -2 -35 -35z"></path><path id="pu6joBSaq" d="M280 2895 c0 -33 2 -35 35 -35 33 0 35 2 35 35 0 33 -2 35 -35 35 -33 0 -35 -2 -35 -35z"></path><path id="psIiP1KlB" d="M580 2905 c0 -8 -7 -15 -15 -15 -10 0 -15 -10 -15 -29 0 -49 9 -61 46 -61 30 0 34 3 34 25 0 14 5 25 10 25 6 0 10 16 10 35 0 33 -2 35 -35 35 -24 0 -35 -5 -35 -15z"></path><path id="pOVgkxeQ3" d="M1475 2886 c-6 -7 -46 -54 -90 -105 -92 -104 -80 -100 -241 -71 -139 25 -143 25 -137 0 17 -65 134 -355 143 -353 5 2 36 23 68 48 79 59 197 122 294 156 44 15 82 30 85 32 9 9 -94 307 -105 307 -4 0 -12 -6 -17 -14z m18 -68 c2 -24 8 -51 12 -60 5 -14 2 -18 -14 -18 -17 0 -21 -6 -21 -35 0 -33 2 -35 35 -35 28 0 35 -4 35 -20 0 -18 -7 -20 -54 -20 -52 0 -55 -1 -61 -28 -7 -35 -72 -72 -86 -50 -5 7 -9 21 -9 31 0 9 -4 17 -10 17 -5 0 -10 11 -10 25 0 19 5 25 21 25 23 0 49 22 49 42 0 21 21 38 47 38 19 0 23 5 23 29 0 17 5 33 10 36 6 3 10 19 10 36 0 44 17 35 23 -13z m-253 -195 c0 -13 -4 -23 -10 -23 -5 0 -10 -22 -10 -50 0 -47 2 -50 26 -50 21 0 23 -2 12 -13 -7 -7 -21 -16 -30 -20 -10 -3 -18 -11 -18 -17 0 -15 -49 -12 -66 5 -8 8 -17 43 -21 80 -4 45 -10 65 -19 65 -8 0 -14 2 -14 4 0 2 -3 11 -6 20 -6 16 23 21 114 21 37 0 42 -3 42 -22z"></path><path id="pESO5A08L" d="M2054 2748 c-27 -78 -50 -145 -52 -148 -1 -3 20 -12 48 -19 96 -25 277 -123 364 -197 22 -19 42 -32 44 -29 8 8 151 370 147 373 -1 2 -62 -7 -135 -18 -72 -12 -142 -19 -154 -16 -12 3 -60 48 -107 100 -46 52 -89 95 -95 95 -6 1 -33 -63 -60 -141z m72 -68 c8 0 14 -4 14 -10 0 -5 16 -10 35 -10 19 0 35 5 35 10 0 13 23 13 55 -2 25 -11 37 -45 12 -35 -8 3 -44 8 -80 12 -58 6 -67 5 -67 -9 0 -12 -10 -16 -36 -16 -27 0 -35 4 -31 14 3 8 11 33 18 56 13 42 13 42 22 16 5 -14 15 -26 23 -26z m354 -40 c0 -16 -4 -30 -10 -30 -5 0 -10 -16 -10 -35 0 -24 5 -35 15 -35 9 0 12 -6 9 -15 -4 -8 -12 -15 -20 -15 -9 0 -14 -12 -14 -35 0 -28 -4 -35 -20 -35 -13 0 -20 7 -20 20 0 16 -7 20 -35 20 -19 0 -35 4 -35 10 0 5 -11 12 -25 16 -14 3 -25 9 -25 13 0 4 -11 13 -25 19 -14 6 -25 16 -25 20 0 5 11 7 25 4 14 -2 25 -11 25 -18 0 -9 12 -14 35 -14 31 0 35 3 41 35 3 19 3 46 0 60 -5 20 -2 25 16 29 13 3 32 7 43 9 48 11 55 8 55 -23z"></path><path id="p8GV2rnT4" d="M210 2791 c0 -51 3 -61 20 -66 13 -4 20 -15 20 -31 0 -21 5 -24 35 -24 33 0 35 2 35 35 0 19 -4 35 -10 35 -5 0 -10 11 -10 25 0 14 -4 25 -10 25 -5 0 -10 14 -10 30 0 28 -3 30 -35 30 l-35 0 0 -59z"></path><path id="p8px1wunc" d="M2900 2795 c0 -33 2 -35 35 -35 33 0 35 2 35 35 0 33 -2 35 -35 35 -33 0 -35 -2 -35 -35z"></path><path id="p1AfPYOxDm" d="M3020 2765 c0 -33 2 -35 35 -35 33 0 35 2 35 35 0 33 -2 35 -35 35 -33 0 -35 -2 -35 -35z"></path><path id="px3EQE55A" d="M3210 2790 c0 -5 -11 -10 -25 -10 -22 0 -25 -4 -25 -34 0 -31 3 -34 38 -40 79 -13 82 -11 82 44 l0 50 -35 0 c-19 0 -35 -4 -35 -10z"></path><path id="pBPYMWNOn" d="M370 2735 c0 -30 5 -55 10 -55 6 0 10 -9 10 -20 0 -11 7 -20 15 -20 10 0 15 -11 15 -35 0 -23 -5 -35 -14 -35 -14 0 -26 -49 -26 -107 0 -30 -3 -33 -30 -33 -28 0 -30 -3 -30 -35 0 -32 2 -35 30 -35 21 0 30 -5 30 -16 0 -14 8 -16 60 -10 50 6 60 5 60 -9 0 -11 10 -15 35 -15 24 0 35 -5 35 -15 0 -12 13 -15 60 -15 l60 0 0 35 0 35 -60 0 c-47 0 -60 3 -60 15 0 10 -11 15 -35 15 -24 0 -35 5 -35 15 0 9 -9 15 -25 15 -22 0 -25 4 -25 40 0 33 3 40 20 40 11 0 20 5 20 10 0 6 16 10 35 10 19 0 35 5 35 10 0 6 7 10 15 10 8 0 15 -7 15 -15 0 -16 36 -20 78 -9 17 5 22 13 22 41 0 35 0 35 -40 31 -22 -2 -40 0 -40 4 0 5 5 8 10 8 6 0 10 16 10 35 0 28 -4 35 -20 35 -11 0 -20 5 -20 10 0 6 15 10 34 10 36 0 46 15 46 71 0 23 -5 27 -37 33 -66 10 -83 8 -83 -13 0 -11 -7 -26 -15 -35 -8 -8 -15 -28 -15 -45 0 -24 4 -31 20 -31 16 0 20 -7 20 -30 0 -28 -3 -30 -35 -30 -32 0 -35 2 -35 30 0 20 -5 30 -15 30 -8 0 -15 9 -15 20 0 11 5 20 10 20 6 0 10 16 10 35 0 28 -4 35 -20 35 -11 0 -20 5 -20 10 0 6 -16 10 -35 10 l-35 0 0 -55z"></path><path id="pCAAsBFjk" d="M2790 2685 c0 -33 2 -35 35 -35 28 0 35 -4 35 -19 0 -10 -9 -21 -20 -24 -15 -4 -20 -14 -20 -41 0 -33 2 -36 29 -36 42 0 61 10 61 31 0 10 5 19 10 19 6 0 10 16 10 35 0 33 -2 35 -35 35 -33 0 -35 2 -35 35 0 33 -2 35 -35 35 -33 0 -35 -2 -35 -35z"></path><path id="p14OvCirE2" d="M3170 2655 c0 -19 5 -35 10 -35 6 0 10 -7 10 -15 0 -8 -4 -15 -10 -15 -5 0 -10 -7 -10 -15 0 -8 -4 -15 -10 -15 -5 0 -10 -16 -10 -35 0 -33 2 -35 35 -35 24 0 35 -5 35 -14 0 -8 -4 -16 -10 -18 -5 -1 -12 -29 -16 -60 l-7 -58 37 0 c29 0 36 4 36 19 0 31 11 51 27 51 12 0 14 9 11 40 -2 22 0 40 4 40 5 0 8 16 8 35 0 31 -3 35 -25 35 -22 0 -25 4 -25 35 0 19 -4 35 -10 35 -5 0 -10 14 -10 30 0 28 -3 30 -35 30 -33 0 -35 -2 -35 -35z"></path><path id="pnz7rzJ3Z" d="M3030 2625 c0 -8 -4 -15 -10 -15 -5 0 -10 -16 -10 -35 0 -28 4 -35 20 -35 13 0 20 -7 20 -20 0 -16 7 -20 35 -20 33 0 35 2 35 35 0 19 -4 35 -10 35 -5 0 -10 16 -10 35 0 33 -2 35 -35 35 -24 0 -35 -5 -35 -15z"></path><path id="pI3qesiZq" d="M200 2600 c0 -15 -7 -20 -25 -20 -22 0 -25 -4 -25 -35 0 -31 3 -35 25 -35 20 0 25 -5 25 -25 0 -18 -5 -25 -20 -25 -16 0 -20 -7 -20 -35 0 -26 4 -35 16 -35 13 0 15 -7 10 -31 -3 -17 -6 -42 -6 -55 0 -15 -6 -24 -15 -24 -12 0 -15 -13 -15 -55 0 -54 0 -55 30 -55 28 0 29 1 33 58 3 52 3 50 5 -20 3 -100 6 -108 49 -108 l36 0 -7 60 c-6 50 -5 60 9 60 11 0 15 10 15 35 0 33 -2 35 -35 35 -24 0 -35 5 -35 15 0 10 10 15 30 15 28 0 30 3 30 35 0 19 -4 35 -10 35 -5 0 -10 9 -10 20 0 16 -7 20 -30 20 -20 0 -30 5 -30 15 0 8 9 15 20 15 12 0 20 7 20 16 0 8 7 22 15 30 8 9 15 31 15 50 0 24 -5 34 -15 34 -8 0 -15 7 -15 15 0 10 -11 15 -35 15 -28 0 -35 -4 -35 -20z"></path><path id="pkzzvDyAn" d="M540 2455 c0 -19 5 -35 10 -35 6 0 10 -7 10 -15 0 -8 7 -15 15 -15 8 0 15 -7 15 -15 0 -10 11 -15 35 -15 30 0 35 3 35 24 0 52 -12 86 -31 86 -11 0 -19 5 -19 10 0 6 -16 10 -35 10 -33 0 -35 -2 -35 -35z"></path><path id="p15f6BsYwb" d="M1635 2473 c-138 -29 -291 -107 -396 -202 l-44 -40 37 -1 c27 0 41 6 50 20 7 11 19 20 26 20 7 0 15 7 18 15 4 8 13 15 20 15 8 0 17 7 20 15 4 8 12 15 20 15 8 0 14 7 14 15 0 9 9 15 25 15 16 0 25 6 25 15 0 10 10 15 34 15 19 0 36 3 38 8 5 11 128 41 198 49 50 5 60 9 60 24 0 24 -43 24 -145 2z"></path><path id="pM8L1kTSc" d="M1790 2471 c0 -16 11 -19 88 -24 49 -3 114 -15 147 -26 64 -23 115 -27 115 -11 0 28 -192 80 -295 80 -47 0 -55 -3 -55 -19z"></path><path id="p17KNtoH02" d="M703 2460 c-3 -11 -12 -20 -19 -20 -9 0 -14 -12 -14 -34 0 -30 4 -35 30 -41 17 -4 30 -13 30 -21 0 -15 56 -20 77 -6 7 4 15 32 19 62 l6 55 -34 13 c-52 19 -89 16 -95 -8z"></path><path id="pj4oNKwlU" d="M2820 2435 c0 -19 4 -35 9 -35 5 0 12 -13 16 -30 6 -26 11 -30 41 -30 l34 0 0 50 c0 38 -4 50 -15 50 -8 0 -15 7 -15 15 0 10 -11 15 -35 15 -33 0 -35 -2 -35 -35z"></path><path id="p1DJ7aYyaS" d="M3410 2420 c0 -16 -4 -30 -10 -30 -5 0 -10 -16 -10 -35 0 -32 2 -35 30 -35 l30 0 0 65 c0 58 -2 65 -20 65 -16 0 -20 -7 -20 -30z"></path><path id="pJTzgvvFw" d="M3026 2415 c-8 -8 -19 -15 -25 -15 -6 0 -11 -16 -11 -35 0 -33 2 -35 35 -35 19 0 35 4 35 9 0 5 11 12 25 15 21 5 25 12 25 41 0 33 -2 35 -34 35 -19 0 -41 -7 -50 -15z"></path><path id="p10VB5QiUX" d="M2170 2375 c0 -16 6 -25 15 -25 8 0 15 -4 15 -10 0 -5 9 -10 20 -10 11 0 20 -7 20 -15 0 -8 6 -15 14 -15 8 0 16 -7 20 -15 3 -8 15 -15 26 -15 11 0 20 -6 20 -13 0 -16 62 -77 78 -77 7 0 12 -9 12 -21 0 -12 8 -23 20 -26 11 -3 20 -14 20 -24 0 -11 3 -19 8 -19 4 0 13 -13 20 -30 10 -21 21 -30 38 -30 13 0 24 3 24 6 0 27 -134 199 -191 245 -63 51 -161 119 -171 119 -4 0 -8 -11 -8 -25z"></path><path id="pKp8K0rN0" d="M2940 2275 c0 -33 2 -35 35 -35 23 0 35 -5 35 -14 0 -8 17 -16 46 -20 89 -12 94 -10 94 29 0 24 -5 35 -15 35 -8 0 -15 7 -15 15 0 17 -65 22 -75 5 -10 -15 -35 -12 -35 5 0 10 -11 15 -35 15 -33 0 -35 -2 -35 -35z"></path><path id="pUekkKZXy" d="M3320 2265 c0 -24 5 -35 15 -35 10 0 15 -10 15 -30 0 -27 3 -30 30 -30 17 0 30 -4 30 -10 0 -5 -7 -10 -15 -10 -9 0 -15 -9 -15 -21 0 -24 -26 -48 -52 -49 -25 0 -27 -100 -2 -100 9 0 18 -9 21 -20 4 -14 14 -20 34 -20 16 0 29 -3 29 -6 0 -14 -31 -34 -54 -34 -23 0 -26 -4 -26 -35 0 -33 2 -35 34 -35 19 0 37 6 39 13 3 6 6 0 6 -15 1 -34 26 -38 35 -5 3 12 6 118 6 235 l0 213 -30 6 c-16 3 -30 9 -30 14 0 5 -16 9 -35 9 -33 0 -35 -2 -35 -35z"></path><path id="puUfRKKrV" d="M380 2255 c0 -19 5 -35 10 -35 6 0 10 -20 10 -45 0 -33 -4 -45 -15 -45 -10 0 -15 -10 -15 -30 0 -27 -3 -30 -30 -30 -23 0 -30 -4 -30 -20 0 -11 -7 -20 -15 -20 -9 0 -15 9 -15 25 0 22 -4 25 -35 25 -19 0 -35 5 -35 10 0 6 -13 10 -30 10 -28 0 -30 -3 -30 -35 0 -24 5 -35 15 -35 8 0 15 -7 15 -15 0 -10 10 -15 30 -15 23 0 30 -4 30 -20 0 -16 7 -20 35 -20 28 0 35 4 35 20 0 13 7 20 20 20 11 0 20 -7 20 -15 0 -10 11 -15 35 -15 28 0 35 4 35 20 0 12 7 20 16 20 14 0 16 8 10 55 -5 44 -3 55 8 55 18 0 30 68 21 112 -10 42 -27 58 -64 58 -29 0 -31 -3 -31 -35z"></path><path id="p1GuHSoE6v" d="M2103 2268 c-13 -6 -23 -17 -23 -25 0 -7 -9 -13 -19 -13 -30 0 -51 -11 -51 -26 0 -8 -9 -14 -20 -14 -29 0 -150 -62 -150 -77 0 -20 -10 -17 -125 37 -98 46 -165 63 -165 41 0 -10 87 -57 187 -100 l73 -32 62 32 c35 17 115 60 179 95 125 69 142 72 163 22 14 -32 5 -132 -19 -228 -7 -30 -19 -88 -26 -128 l-12 -72 141 -144 c189 -191 190 -214 15 -235 -126 -16 -143 -20 -143 -37 0 -17 7 -17 153 1 72 9 124 20 133 29 20 21 20 134 -1 142 -8 4 -15 11 -15 17 0 21 -84 97 -107 97 -17 0 -23 6 -23 22 0 14 -22 44 -56 79 l-56 56 11 54 c6 30 20 97 31 149 29 139 27 240 -6 240 -8 0 -14 7 -14 15 0 18 -82 20 -117 3z"></path><path id="pfuVtMkVT" d="M553 2255 c-7 -8 -13 -27 -13 -43 0 -34 17 -42 93 -42 l47 0 0 35 c0 31 -3 35 -25 35 -16 0 -25 6 -25 15 0 20 -60 20 -77 0z"></path><path id="pifiTS0xo" d="M1354 2256 c-28 -21 -23 -116 15 -304 17 -84 31 -161 31 -172 0 -25 16 -26 30 -1 7 15 1 65 -25 197 -38 193 -41 224 -23 242 15 15 57 16 92 2 23 -9 26 -7 26 14 0 18 -7 25 -31 30 -51 10 -94 7 -115 -8z"></path><path id="pEx3dmIS2" d="M1111 2145 c-56 -64 -95 -147 -126 -270 -31 -121 -32 -145 -5 -145 15 0 20 7 20 28 0 80 89 305 137 346 19 17 24 29 21 56 l-3 34 -44 -49z"></path><path id="pXTNMLG6Y" d="M3180 2128 c0 -18 -3 -57 -6 -85 l-7 -53 35 0 c32 0 36 3 42 31 3 17 6 56 6 85 l0 54 -35 0 c-33 0 -35 -2 -35 -32z"></path><path id="papXeZ6XW" d="M3010 2085 l0 -55 35 0 35 0 0 55 0 55 -35 0 -35 0 0 -55z"></path><path id="pxFr1YzNp" d="M590 2055 c0 -31 -3 -35 -25 -35 -22 0 -25 -4 -25 -35 0 -33 2 -35 35 -35 32 0 35 2 35 30 0 28 3 30 35 30 33 0 35 2 35 34 0 37 -12 46 -61 46 -27 0 -29 -3 -29 -35z"></path><path id="ps87yluUV" d="M700 2055 c0 -28 4 -35 19 -35 13 0 21 -9 26 -30 6 -26 11 -30 40 -30 28 0 33 4 39 31 13 65 9 79 -24 79 -16 0 -30 5 -30 10 0 6 -16 10 -35 10 -33 0 -35 -2 -35 -35z"></path><path id="pNRm4MjOH" d="M1516 2023 c3 -21 15 -83 25 -138 10 -55 19 -111 19 -123 0 -17 -32 -55 -106 -129 -58 -58 -103 -107 -101 -110 3 -2 64 -12 137 -23 145 -20 164 -30 195 -99 10 -20 40 -78 68 -128 46 -85 67 -111 67 -82 0 24 102 245 123 266 18 18 41 24 122 32 55 6 120 14 144 17 l43 7 -100 101 c-55 55 -104 110 -109 121 -7 14 -2 64 17 170 15 83 27 151 25 153 -1 1 -51 -21 -110 -49 -60 -28 -127 -58 -149 -65 l-39 -14 -129 65 c-71 36 -133 65 -139 65 -6 0 -7 -14 -3 -37z m474 -83 c0 -11 7 -20 15 -20 8 0 15 -4 15 -10 0 -5 -13 -10 -30 -10 -28 0 -30 -3 -30 -35 0 -19 5 -35 10 -35 6 0 10 -9 10 -20 0 -11 6 -20 13 -21 10 0 10 -2 0 -6 -7 -2 -13 -13 -13 -24 0 -10 -7 -19 -15 -19 -10 0 -15 -11 -15 -35 0 -24 5 -35 15 -35 9 0 15 -9 15 -21 0 -18 5 -20 39 -18 33 3 45 -3 78 -32 45 -41 46 -69 2 -69 -16 0 -29 5 -29 10 0 6 -9 10 -20 10 -16 0 -20 7 -20 30 0 28 -3 30 -35 30 -30 0 -35 -3 -35 -24 0 -52 -12 -86 -31 -86 -14 0 -19 7 -19 30 0 25 -4 30 -25 30 -14 0 -25 5 -25 10 0 6 -16 10 -35 10 -28 0 -35 -4 -35 -20 0 -11 -4 -20 -10 -20 -5 0 -10 -16 -10 -35 0 -34 1 -35 40 -35 22 0 40 5 40 10 0 6 11 10 25 10 l24 0 -19 -42 c-14 -32 -25 -44 -44 -46 -16 -2 -26 -10 -27 -20 -1 -15 -2 -15 -6 1 -3 11 -14 17 -34 17 -39 0 -56 17 -65 66 -10 53 -26 66 -77 63 -81 -5 -117 0 -117 16 0 10 -10 15 -31 15 -26 0 -29 2 -19 14 6 8 21 16 33 18 16 2 23 11 25 31 4 34 22 36 22 2 0 -22 4 -25 35 -25 33 0 35 2 35 35 0 26 -4 35 -16 35 -12 0 -15 6 -9 23 7 23 12 52 21 123 l5 41 44 -5 45 -5 0 35 0 34 45 -10 c42 -10 64 -36 30 -36 -10 0 -15 -11 -15 -35 0 -33 2 -35 34 -35 30 0 35 4 39 28 4 25 4 25 6 -5 1 -31 3 -33 36 -33 33 0 35 2 35 35 0 31 -3 35 -25 35 -20 0 -25 5 -25 23 0 19 11 29 58 50 70 32 72 32 72 7z"></path><path id="pd92553Ww" d="M1764 1714 c-8 -64 0 -74 54 -74 36 0 37 3 26 84 -6 44 -8 46 -40 46 -32 0 -33 -1 -40 -56z"></path><path id="p9ENrKp87" d="M1620 1675 c0 -34 1 -35 40 -35 39 0 40 1 40 35 0 34 -1 35 -40 35 -39 0 -40 -1 -40 -35z"></path><path id="p14fAWD6eL" d="M3016 1921 c-4 -33 -4 -71 0 -86 6 -25 9 -27 48 -21 22 3 62 8 89 12 41 6 47 10 47 30 0 21 5 24 35 24 33 0 35 2 35 35 0 33 -2 35 -35 35 -31 0 -35 -3 -35 -25 0 -21 -5 -25 -29 -25 -16 0 -35 -2 -43 -5 -14 -5 -38 37 -38 67 0 14 -8 18 -34 18 l-33 0 -7 -59z"></path><path id="pA4xM925d" d="M2550 1938 c0 -13 7 -59 15 -103 18 -102 19 -243 1 -320 -23 -98 -40 -149 -53 -163 -7 -7 -13 -20 -13 -28 0 -8 -5 -20 -10 -27 -14 -17 -90 -137 -90 -142 0 -3 -18 -21 -40 -41 -25 -23 -40 -45 -40 -60 0 -20 -5 -24 -30 -24 -16 0 -33 -6 -37 -13 -4 -8 -16 -16 -25 -20 -10 -3 -18 -13 -18 -22 0 -8 -9 -15 -20 -15 -19 0 -140 -56 -150 -70 -3 -4 -40 -13 -82 -20 -65 -11 -78 -16 -78 -31 0 -23 1 -23 89 -4 148 31 278 105 403 228 81 81 121 142 180 279 75 174 87 356 37 571 -11 49 -39 67 -39 25z"></path><path id="p1F4YL39bW" d="M230 1926 c0 -21 -5 -25 -37 -28 l-38 -3 1 -85 c5 -264 119 -582 290 -810 143 -190 349 -362 559 -467 192 -97 439 -167 631 -180 l94 -6 0 31 c0 27 -4 32 -25 32 -16 0 -25 6 -25 15 0 8 5 15 10 15 6 0 10 16 10 35 l0 35 -56 0 -56 0 4 -52 3 -53 -39 0 c-23 0 -41 5 -43 13 -3 8 6 12 26 12 29 0 31 3 31 35 0 33 -2 35 -35 35 -19 0 -35 -4 -35 -10 0 -5 -13 -10 -29 -10 -25 0 -30 -4 -33 -28 l-3 -29 -62 14 c-60 14 -63 16 -63 44 0 29 -2 30 -37 28 -21 -1 -46 2 -56 6 -10 4 -33 5 -52 2 -30 -5 -35 -3 -35 14 0 15 -7 19 -30 19 -40 0 -90 26 -90 47 0 14 11 15 95 9 l95 -6 0 35 c0 19 -4 35 -10 35 -5 0 -10 7 -10 15 0 10 -11 15 -35 15 -19 0 -35 -4 -35 -10 0 -5 -25 -10 -55 -10 -54 0 -55 0 -55 30 0 20 5 30 15 30 10 0 15 11 15 35 0 19 -4 35 -10 35 -5 0 -10 7 -10 15 0 8 -4 15 -10 15 -5 0 -10 11 -10 25 0 22 -4 25 -35 25 -28 0 -35 -4 -35 -20 0 -11 -5 -20 -11 -20 -15 0 -5 -93 10 -98 12 -4 14 -34 4 -71 -5 -20 -10 -22 -40 -18 -51 9 -68 32 -68 94 0 44 3 53 18 53 13 0 17 8 17 35 0 40 -5 41 -109 24 -72 -11 -121 -5 -121 17 0 9 -11 14 -35 14 -31 0 -35 3 -35 25 0 21 5 25 28 25 15 1 53 2 85 4 31 1 57 -1 57 -7 0 -12 144 2 148 14 2 5 10 9 18 9 9 0 14 11 14 35 0 33 -2 35 -35 35 -21 0 -35 -5 -36 -12 -1 -7 -4 1 -8 17 -5 26 -11 30 -44 33 -33 3 -37 1 -37 -21 0 -20 -6 -26 -32 -30 -18 -2 -41 -1 -50 4 -22 12 -78 12 -78 0 0 -11 -62 -24 -69 -14 -3 5 -18 14 -34 22 -20 11 -29 24 -33 53 -4 21 -10 38 -15 38 -5 0 -9 7 -9 15 0 8 -7 15 -15 15 -20 0 -105 171 -87 177 26 9 13 63 -23 98 -28 25 -32 34 -20 39 9 3 15 0 15 -9 0 -10 11 -15 35 -15 31 0 35 3 35 25 0 16 6 25 15 25 8 0 15 -7 15 -15 0 -8 7 -15 15 -15 8 0 15 -5 15 -11 0 -8 17 -10 55 -5 35 4 55 2 55 -4 0 -5 16 -10 35 -10 27 0 35 4 35 19 0 16 6 17 50 13 l50 -5 0 36 c0 32 -3 35 -35 41 -31 6 -35 11 -35 36 0 28 -3 30 -35 30 -33 0 -35 -2 -35 -35 0 -24 5 -35 15 -35 8 0 15 -7 15 -15 0 -8 -9 -15 -20 -15 -11 0 -20 5 -20 10 0 6 -13 10 -29 10 -62 0 -121 13 -121 26 0 9 -11 14 -29 14 -16 0 -31 5 -33 11 -2 6 -25 13 -51 16 -43 5 -47 4 -47 -16 0 -12 -4 -19 -10 -16 -5 3 -10 21 -10 40 0 38 12 45 76 45 44 0 44 0 44 35 0 32 -2 35 -30 35 -26 0 -30 4 -30 26 0 24 -3 25 -42 22 -39 -2 -43 0 -46 21 -5 31 11 39 64 33 l44 -5 0 67 0 66 -35 0 c-30 0 -35 -3 -35 -24z"></path><path id="p4pN0HExc" d="M400 1905 c0 -24 -5 -35 -15 -35 -10 0 -15 -11 -15 -35 0 -33 2 -35 35 -35 33 0 35 2 35 35 0 24 5 35 15 35 10 0 15 11 15 35 0 33 -2 35 -35 35 -33 0 -35 -2 -35 -35z"></path><path id="pSoUFDA67" d="M610 1915 c0 -20 -5 -25 -25 -25 -16 0 -25 -6 -25 -15 0 -9 -9 -15 -25 -15 -23 0 -25 -3 -25 -50 0 -56 -1 -55 85 -43 l47 6 -5 49 c-6 46 -5 48 18 48 22 0 25 5 25 35 0 33 -2 35 -35 35 -31 0 -35 -3 -35 -25z"></path><path id="pkHJ7oVqA" d="M363 1733 c3 -26 9 -49 14 -50 5 -2 7 -21 5 -43 -4 -40 -4 -40 31 -40 29 0 36 4 39 23 2 16 11 23 31 25 24 3 27 8 27 38 0 32 -2 34 -34 34 -30 0 -35 4 -41 30 -6 26 -11 30 -42 30 l-36 0 6 -47z"></path><path id="pstdwI9h1" d="M3245 1750 c-6 -26 -11 -30 -41 -30 -32 0 -34 -2 -34 -35 0 -33 2 -35 35 -35 24 0 35 5 35 15 0 10 10 15 34 15 36 0 46 15 46 73 0 24 -4 27 -34 27 -30 0 -35 -4 -41 -30z"></path><path id="p3fLQFFPZ" d="M3393 1773 c-7 -2 -13 -20 -13 -39 0 -27 -4 -34 -20 -34 -16 0 -20 -7 -20 -35 0 -28 4 -35 20 -35 16 0 20 -7 20 -30 0 -21 -5 -30 -16 -30 -9 0 -25 -10 -35 -22 -21 -23 -26 -84 -8 -90 17 -6 -12 -80 -33 -86 -13 -3 -18 -14 -18 -39 0 -52 -35 -113 -65 -113 -18 0 -25 -5 -25 -20 0 -11 -4 -20 -10 -20 -5 0 -10 9 -10 20 0 16 -7 20 -35 20 -33 0 -35 -2 -35 -35 0 -24 5 -35 15 -35 8 0 15 -9 15 -20 0 -13 7 -20 20 -20 11 0 20 -4 20 -10 0 -5 -4 -10 -9 -10 -5 0 -19 -16 -32 -35 -15 -21 -32 -35 -44 -34 -11 0 -14 3 -7 6 6 2 12 20 12 39 0 30 -3 34 -25 34 -18 0 -25 5 -25 20 0 13 -7 20 -20 20 -16 0 -20 7 -20 30 0 27 3 30 30 30 28 0 30 3 30 35 0 33 -2 35 -35 35 -32 0 -35 -2 -35 -30 0 -27 -3 -30 -30 -30 -28 0 -30 -3 -30 -35 0 -28 4 -35 20 -35 16 0 20 -7 20 -35 0 -31 3 -35 28 -36 16 -1 20 -3 10 -6 -33 -8 -14 -113 20 -113 12 0 10 -5 -6 -23 -13 -14 -22 -36 -22 -55 0 -18 -4 -32 -10 -32 -5 0 -10 14 -10 30 0 27 -3 30 -30 30 -25 0 -30 4 -30 25 0 18 5 25 20 25 16 0 20 7 20 31 0 33 -19 59 -44 59 -11 0 -16 9 -16 30 0 28 -3 30 -35 30 l-35 0 0 -55 c0 -48 2 -55 20 -55 20 0 28 -15 11 -22 -5 -2 -12 -36 -16 -77 l-7 -74 46 5 c25 3 46 3 46 -1 0 -8 -50 -31 -67 -31 -7 0 -13 -7 -13 -15 0 -19 -36 -55 -55 -55 -11 0 -15 12 -15 50 0 38 -4 50 -15 50 -12 0 -14 10 -9 55 l7 55 -37 0 c-25 0 -36 4 -36 15 0 8 7 15 15 15 10 0 15 11 15 35 0 33 -2 35 -35 35 -28 0 -35 -4 -35 -20 0 -11 -7 -20 -15 -20 -10 0 -15 -11 -15 -35 0 -33 2 -35 35 -35 31 0 35 -3 35 -26 0 -14 -6 -32 -14 -40 -16 -16 -92 -19 -98 -4 -1 5 -29 12 -60 16 l-58 7 0 -37 c0 -31 3 -36 24 -36 14 0 31 -7 40 -15 9 -10 34 -15 70 -15 31 0 56 -4 56 -10 0 -5 14 -10 30 -10 17 0 30 -4 30 -10 0 -5 -9 -10 -20 -10 -15 0 -20 -7 -20 -25 0 -16 -6 -25 -15 -25 -8 0 -15 7 -15 15 0 10 -10 15 -34 15 -28 0 -35 -4 -39 -22 l-4 -23 -2 23 c-1 18 -7 22 -36 22 -31 0 -35 -3 -35 -25 0 -17 -5 -25 -17 -25 -38 0 -63 13 -63 31 0 11 -5 19 -10 19 -7 0 -9 20 -4 60 5 42 3 60 -5 60 -6 0 -11 7 -11 15 0 8 7 15 15 15 7 0 18 6 22 13 4 8 16 17 26 20 11 4 21 16 24 27 3 11 14 20 24 20 10 0 24 9 31 20 7 11 21 20 30 20 10 0 18 7 18 15 0 15 19 55 31 65 3 3 11 15 18 28 16 30 81 32 81 2 0 -16 7 -20 35 -20 33 0 35 2 35 35 0 32 -2 35 -30 35 -20 0 -30 5 -30 15 0 8 7 15 15 15 10 0 15 11 15 35 0 19 -4 35 -9 35 -5 0 -11 14 -13 30 -4 26 -1 30 19 30 25 0 39 33 30 76 -7 41 12 114 29 107 8 -3 14 -14 14 -24 0 -15 7 -19 35 -19 24 0 35 5 35 14 0 10 16 17 45 22 43 6 45 8 45 40 l0 33 -67 -1 c-92 -2 -113 6 -113 43 0 44 -28 38 -35 -8 -28 -187 -49 -250 -136 -405 -74 -134 -155 -219 -297 -316 -143 -98 -291 -154 -439 -167 l-83 -7 0 -29 c0 -26 3 -29 35 -29 24 0 35 5 35 15 0 8 5 15 10 15 6 0 10 -4 10 -10 0 -5 15 -10 34 -10 24 0 36 5 39 17 3 11 5 7 6 -9 1 -25 5 -28 35 -28 19 0 37 6 40 13 5 10 7 10 12 0 3 -7 14 -13 25 -13 12 0 19 -7 19 -20 0 -11 5 -20 10 -20 6 0 10 -35 10 -84 l0 -84 -35 -4 c-19 -2 -35 0 -35 4 0 4 -11 8 -25 8 -16 0 -25 6 -25 15 0 8 7 15 15 15 10 0 15 11 15 35 0 24 -5 35 -15 35 -8 0 -15 7 -15 15 0 10 -11 15 -35 15 l-35 0 0 -65 c0 -58 2 -65 20 -65 11 0 20 -7 20 -15 0 -9 -9 -15 -25 -15 -14 0 -25 5 -25 10 0 6 -16 10 -35 10 -32 0 -35 -2 -35 -30 0 -29 1 -30 48 -30 210 0 518 88 757 218 239 129 520 423 649 680 64 126 120 319 141 480 6 46 5 52 -12 51 -10 0 -24 -3 -30 -6z m-1088 -986 c19 -20 -7 -117 -31 -117 -9 0 -14 -12 -14 -35 0 -24 5 -35 14 -35 8 0 16 -5 18 -12 3 -9 21 -9 69 -2 83 12 109 8 109 -17 0 -15 -7 -19 -35 -19 -19 0 -35 -4 -35 -10 0 -5 -11 -10 -25 -10 -14 0 -25 -4 -25 -10 0 -5 -15 -10 -34 -10 -30 0 -35 -3 -38 -27 -2 -17 -10 -29 -20 -31 -15 -3 -18 4 -18 32 0 33 -2 36 -30 36 -25 0 -30 4 -30 25 0 16 6 25 15 25 10 0 15 11 15 35 0 19 -4 35 -10 35 -5 0 -10 7 -10 15 0 10 10 15 30 15 28 0 30 3 30 35 0 29 -4 35 -22 36 l-23 0 23 11 c12 6 22 15 22 20 0 4 7 8 15 8 8 0 15 5 15 10 0 14 9 13 25 -3z m255 -202 c0 -8 -4 -15 -10 -15 -5 0 -10 7 -10 15 0 8 5 15 10 15 6 0 10 -7 10 -15z"></path><path id="pWa8dvbRr" d="M3010 1755 c0 -9 -9 -15 -25 -15 -22 0 -25 -4 -25 -35 0 -28 4 -35 20 -35 16 0 20 -7 20 -34 0 -37 12 -46 61 -46 27 0 29 3 29 35 0 19 -4 35 -10 35 -5 0 -10 5 -10 10 0 6 9 10 20 10 16 0 20 7 20 35 0 24 -5 35 -15 35 -8 0 -15 5 -15 10 0 6 -16 10 -35 10 -24 0 -35 -5 -35 -15z"></path><path id="paWtotdpc" d="M540 1715 c0 -19 5 -35 10 -35 6 0 10 -7 10 -15 0 -10 11 -15 35 -15 33 0 35 2 35 35 0 19 -4 35 -10 35 -5 0 -10 7 -10 15 0 10 -11 15 -35 15 -33 0 -35 -2 -35 -35z"></path><path id="p10E3Vmhtd" d="M960 1673 c0 -43 11 -73 26 -73 10 0 14 14 14 50 0 43 -3 50 -20 50 -15 0 -20 -7 -20 -27z"></path><path id="p2mg1fv1E" d="M732 1557 c-7 -18 -12 -60 -12 -93 0 -47 -4 -63 -20 -77 -13 -11 -20 -29 -20 -51 0 -43 16 -49 112 -44 66 3 71 1 79 -19 8 -21 5 -23 -26 -23 -33 0 -35 -2 -35 -35 0 -33 2 -35 35 -35 28 0 35 -4 35 -20 0 -13 7 -20 20 -20 11 0 20 -7 20 -15 0 -8 15 -21 33 -29 l32 -14 -32 -1 c-31 -1 -33 -3 -33 -36 0 -19 5 -35 10 -35 6 0 10 -11 10 -25 0 -14 5 -25 10 -25 6 0 10 -7 10 -15 0 -10 11 -15 35 -15 32 0 35 2 35 30 0 17 5 30 10 30 6 0 10 -13 10 -30 0 -17 7 -33 18 -39 14 -9 13 -10 -10 -11 -25 0 -28 -4 -28 -35 0 -32 2 -35 30 -35 17 0 30 -4 30 -10 0 -5 -4 -10 -10 -10 -5 0 -10 -16 -10 -35 0 -34 1 -35 39 -35 l38 0 7 61 c8 66 22 73 17 9 -2 -37 -1 -40 23 -40 14 0 26 -4 26 -9 0 -5 30 -12 68 -15 83 -8 166 -43 156 -65 -4 -9 -9 -33 -12 -53 -4 -35 -2 -38 21 -38 13 0 39 3 56 6 26 6 31 11 31 35 0 26 3 29 35 29 26 0 33 -3 29 -15 -4 -8 -17 -15 -30 -15 -21 0 -24 -5 -24 -35 0 -33 2 -35 35 -35 19 0 35 4 35 9 0 5 23 12 50 16 l50 7 0 44 c0 24 -3 44 -6 44 -33 0 -160 26 -201 40 -141 52 -341 176 -415 258 -42 47 -127 170 -155 227 -35 69 -72 182 -83 253 -20 130 -16 122 -69 122 -44 0 -48 -2 -59 -33z m88 -101 c0 -7 3 -28 6 -45 6 -29 4 -31 -21 -31 -21 0 -26 4 -21 16 3 9 6 29 6 45 0 19 5 29 15 29 8 0 15 -6 15 -14z"></path><path id="pNEhttjzU" d="M975 1493 c4 -37 16 -95 26 -128 19 -62 86 -185 101 -185 19 0 5 61 -31 134 -41 80 -61 151 -61 211 0 29 -4 35 -21 35 -20 0 -21 -3 -14 -67z"></path><path id="pgCOiVk4c" d="M2990 1515 c0 -33 2 -35 35 -35 33 0 35 2 35 35 0 33 -2 35 -35 35 -33 0 -35 -2 -35 -35z"></path><path id="p9Ydxu4pL" d="M3190 1505 c0 -33 2 -35 35 -35 33 0 35 2 35 35 0 33 -2 35 -35 35 -33 0 -35 -2 -35 -35z"></path><path id="pVUBg94yT" d="M1120 1445 c0 -28 4 -35 20 -35 11 0 20 -7 20 -15 0 -11 11 -15 40 -15 53 0 55 26 4 36 -28 5 -39 13 -48 35 -15 41 -36 37 -36 -6z"></path><path id="ptSRYBvMj" d="M2993 1383 c3 -26 10 -49 16 -51 6 -2 11 -10 11 -18 0 -9 11 -14 35 -14 33 0 35 2 35 35 0 19 -4 35 -9 35 -5 0 -12 14 -16 30 -6 26 -11 30 -42 30 l-36 0 6 -47z"></path><path id="p7KYrzetU" d="M1250 1393 c0 -17 9 -21 53 -27 78 -9 97 -7 97 8 0 15 -19 22 -97 32 -49 6 -53 5 -53 -13z"></path><path id="pVnvRdAbS" d="M2840 1400 c0 -5 -11 -10 -25 -10 -22 0 -25 -4 -25 -35 0 -31 3 -35 25 -35 16 0 25 -6 25 -15 0 -8 9 -15 20 -15 16 0 20 -7 20 -30 0 -28 -3 -30 -35 -30 -33 0 -35 -2 -35 -35 0 -33 2 -35 35 -35 33 0 35 2 35 35 0 33 2 35 35 35 33 0 35 2 35 35 0 29 -4 35 -22 36 -17 1 -19 2 -5 6 22 6 25 73 2 73 -8 0 -15 7 -15 15 0 10 -11 15 -35 15 -19 0 -35 -4 -35 -10z"></path><path id="puTNOwVfr" d="M1410 1372 c0 -16 9 -20 60 -26 44 -5 64 -12 73 -27 6 -10 22 -19 35 -19 20 0 22 4 16 23 -11 35 -23 45 -65 51 -21 3 -57 9 -79 12 -35 5 -40 3 -40 -14z"></path><path id="pZFMLmwCT" d="M2074 1373 c-18 -2 -40 -14 -50 -25 l-19 -21 55 6 c30 4 65 7 78 7 15 0 22 6 22 20 0 21 -11 22 -86 13z"></path><path id="pl5WBSIVR" d="M410 1353 c0 -10 3 -42 6 -70 7 -52 7 -53 40 -53 38 0 38 1 28 88 -7 51 -7 52 -40 52 -26 0 -34 -4 -34 -17z"></path><path id="p186T1wMoY" d="M520 1320 c0 -48 1 -49 35 -56 19 -3 35 -10 35 -15 0 -5 7 -9 15 -9 9 0 15 -9 15 -25 0 -16 -6 -25 -15 -25 -10 0 -15 -10 -15 -30 0 -20 -5 -30 -15 -30 -10 0 -15 -11 -15 -35 0 -33 2 -35 35 -35 32 0 35 2 35 30 0 20 5 30 15 30 9 0 15 9 15 25 0 16 6 25 15 25 10 0 15 11 15 35 0 23 -5 35 -14 35 -9 0 -15 16 -19 47 -3 26 -10 49 -16 51 -6 2 -11 10 -11 18 0 10 -14 14 -55 14 l-55 0 0 -50z"></path><path id="p81P4WURJ" d="M3190 1341 c0 -11 -9 -23 -20 -26 -15 -5 -20 -15 -20 -41 0 -31 3 -34 29 -34 42 0 61 10 61 31 0 10 5 19 10 19 6 0 10 16 10 35 0 33 -2 35 -35 35 -28 0 -35 -4 -35 -19z"></path><path id="pr5WMKyBW" d="M1996 1311 c-3 -4 -10 -20 -15 -35 -10 -24 -8 -26 14 -26 22 0 25 4 25 35 0 33 -12 46 -24 26z"></path><path id="pUMkyjQr2" d="M1922 1148 c-76 -170 -84 -183 -120 -186 -37 -4 -40 0 -106 147 -44 100 -66 124 -66 72 0 -38 19 -81 37 -81 8 0 13 -11 13 -27 0 -15 7 -47 16 -70 13 -34 22 -43 40 -43 17 0 24 -6 24 -20 0 -17 7 -20 40 -20 33 0 40 3 40 20 0 15 7 20 25 20 18 0 25 5 25 19 0 11 3 21 8 23 10 4 52 95 52 114 0 8 7 22 15 30 17 17 21 84 5 84 -6 0 -27 -37 -48 -82z"></path><path id="pKSriLVFg" d="M720 1159 c0 -17 6 -37 14 -45 8 -8 28 -14 45 -14 28 0 31 3 31 31 0 17 -6 37 -14 45 -8 8 -28 14 -45 14 -28 0 -31 -3 -31 -31z"></path><path id="p1F8ETC97a" d="M1110 1162 c0 -17 58 -89 101 -126 103 -89 291 -196 344 -196 8 0 15 8 15 18 0 12 -22 26 -73 46 -39 16 -78 36 -85 43 -7 7 -20 13 -28 13 -8 0 -14 5 -14 10 0 6 -7 10 -15 10 -8 0 -15 5 -15 10 0 6 -9 10 -20 10 -11 0 -20 7 -20 15 0 8 -8 15 -19 15 -10 0 -21 9 -24 20 -4 15 -14 20 -36 20 -28 0 -31 3 -31 30 0 18 -6 33 -15 36 -8 4 -15 12 -15 20 0 8 -10 14 -25 14 -14 0 -25 -4 -25 -8z"></path><path id="p167SEYa1m" d="M1580 846 c0 -13 28 -26 58 -26 6 0 12 9 12 20 0 16 -7 20 -35 20 -23 0 -35 -5 -35 -14z"></path><path id="pvBv4EJ4T" d="M1710 835 c0 -16 1 -16 70 -20 57 -2 80 4 80 21 0 11 -18 14 -75 14 -60 0 -75 -3 -75 -15z"></path><path id="phPcuZVgD" d="M1210 645 c0 -33 2 -35 35 -35 33 0 35 2 35 35 0 33 -2 35 -35 35 -33 0 -35 -2 -35 -35z"></path><path id="p75Yznclj" d="M1320 615 c0 -33 2 -35 35 -35 33 0 35 2 35 35 0 33 -2 35 -35 35 -33 0 -35 -2 -35 -35z"></path><path id="p5Bm2srit" d="M1770 585 c0 -33 2 -35 35 -35 33 0 35 2 35 35 0 33 -2 35 -35 35 -33 0 -35 -2 -35 -35z"></path><path id="pOlQJMWWZ" d="M1330 505 c0 -33 2 -35 35 -35 33 0 35 2 35 35 0 33 -2 35 -35 35 -33 0 -35 -2 -35 -35z"></path><path id="puz4vdliT" d="M1790 485 l0 -35 50 0 50 0 0 35 0 35 -50 0 -50 0 0 -35z"></path><path id="phZmMfCes" d="M1710 455 c0 -33 2 -35 35 -35 33 0 35 2 35 35 0 33 -2 35 -35 35 -33 0 -35 -2 -35 -35z"></path></g></g><g id="l2WeNuKD5iKFbFh6J2TCYn6" fill="rgb(185,131,56)" style="transform: none;"><g><path id="pqooKGqN2" d="M1568 4423 c-10 -3 -18 -11 -18 -19 0 -10 14 -14 55 -14 48 0 55 3 55 19 0 16 -7 20 -37 19 -21 -1 -46 -3 -55 -5z"></path><path id="pZq6ifmWG" d="M1800 4410 c0 -19 7 -20 90 -20 53 0 90 -4 90 -10 0 -5 16 -10 35 -10 30 0 35 3 35 24 0 31 -20 36 -147 36 -96 0 -103 -1 -103 -20z"></path><path id="pVFRhDCS5" d="M1398 4413 c-33 -8 -20 -33 17 -33 28 0 35 4 35 20 0 20 -14 23 -52 13z"></path><path id="p18BhlKXBb" d="M2180 4400 c0 -17 7 -20 40 -20 45 0 57 23 18 34 -42 11 -58 7 -58 -14z"></path><path id="p7nmHYc6V" d="M1298 4403 c-10 -2 -18 -11 -18 -19 0 -8 -4 -14 -10 -14 -5 0 -10 7 -10 15 0 16 -12 18 -47 9 -35 -10 -28 -34 10 -35 30 -2 30 -2 5 -6 -24 -4 -28 -9 -28 -39 0 -32 2 -34 35 -34 19 0 35 5 35 10 0 6 11 10 25 10 22 0 25 4 25 35 0 24 5 35 15 35 8 0 15 9 15 20 0 20 -14 23 -52 13z"></path><path id="pJE6uzMHR" d="M2300 4390 c0 -16 -7 -20 -30 -20 -28 0 -30 -3 -30 -35 0 -32 2 -35 30 -35 29 0 30 -1 30 -50 l0 -50 35 0 35 0 0 60 0 60 -30 0 c-25 0 -30 4 -30 25 0 21 5 25 30 25 36 0 41 25 8 34 -38 10 -48 7 -48 -14z"></path><path id="pCRieykTn" d="M2450 4361 c0 -29 3 -31 34 -31 26 0 36 5 41 21 9 26 6 29 -39 36 -35 5 -36 5 -36 -26z"></path><path id="pli7aO3I4" d="M998 4353 c-50 -13 -58 -18 -58 -39 0 -21 5 -24 35 -24 23 0 35 5 35 14 0 7 14 16 31 20 47 9 49 8 49 -19 0 -23 3 -25 50 -25 l50 0 0 35 0 35 -50 0 c-27 0 -50 5 -50 10 0 13 -22 11 -92 -7z"></path><path id="pC0AZRXPp" d="M2550 4335 c0 -33 -2 -35 -35 -35 -33 0 -35 -2 -35 -35 0 -33 2 -35 35 -35 33 0 35 2 35 35 0 33 2 35 35 35 19 0 35 5 35 10 0 6 7 10 15 10 9 0 15 -9 15 -25 0 -24 2 -25 65 -25 58 0 65 2 65 19 0 26 -6 29 -108 57 -117 32 -122 32 -122 -11z"></path><path id="pMrnnjfId" d="M1620 4345 c0 -8 -4 -15 -10 -15 -5 0 -10 -16 -10 -35 0 -33 2 -35 35 -35 24 0 35 5 35 15 0 8 5 15 10 15 6 0 10 16 10 35 0 33 -2 35 -35 35 -24 0 -35 -5 -35 -15z"></path><path id="pu6xFDRv" d="M1952 4313 c3 -36 5 -38 41 -41 l38 -3 -3 38 c-3 36 -5 38 -41 41 l-38 3 3 -38z"></path><path id="pRrdNB4Sc" d="M1380 4305 c0 -33 2 -35 35 -35 33 0 35 2 35 35 0 33 -2 35 -35 35 -33 0 -35 -2 -35 -35z"></path><path id="pTxs1EM48" d="M883 4320 c-13 -6 -23 -18 -23 -30 0 -16 6 -20 35 -20 32 0 35 2 35 30 0 32 -9 35 -47 20z"></path><path id="pBjrmqZlI" d="M813 4295 c-43 -18 -42 -35 2 -35 31 0 35 3 35 25 0 14 -1 25 -2 25 -2 -1 -18 -7 -35 -15z"></path><path id="p8eFBHpO8" d="M2810 4245 l0 -35 75 0 c68 0 75 -2 75 -20 0 -16 7 -20 35 -20 19 0 35 4 35 8 0 15 -166 102 -193 102 -24 0 -27 -4 -27 -35z"></path><path id="pOz7tQDkQ" d="M683 4240 c-51 -23 -55 -40 -10 -40 42 0 60 12 55 38 l-3 21 -42 -19z"></path><path id="pdL4q5JxK" d="M1210 4175 c0 -33 2 -35 35 -35 33 0 35 2 35 35 0 33 -2 35 -35 35 -33 0 -35 -2 -35 -35z"></path><path id="p64keeZHz" d="M1970 4180 c0 -28 -3 -30 -35 -30 -33 0 -35 -2 -35 -35 0 -33 2 -35 35 -35 32 0 35 2 35 30 0 20 5 30 15 30 9 0 15 -9 15 -25 0 -22 4 -25 35 -25 33 0 35 2 35 35 0 24 -5 35 -15 35 -9 0 -15 9 -15 25 0 22 -4 25 -35 25 -32 0 -35 -2 -35 -30z"></path><path id="p156TUHZFH" d="M1420 4155 c0 -24 5 -35 15 -35 10 0 15 -11 15 -35 0 -33 2 -35 34 -35 37 0 46 12 46 61 0 22 -5 29 -20 29 -15 0 -20 7 -20 25 0 22 -4 25 -35 25 -33 0 -35 -2 -35 -35z"></path><path id="pNEJPCe3c" d="M1610 4155 c0 -19 5 -35 10 -35 6 0 10 -7 10 -15 0 -10 11 -15 35 -15 33 0 35 2 35 35 0 19 -4 35 -10 35 -5 0 -10 7 -10 15 0 10 -11 15 -35 15 -33 0 -35 -2 -35 -35z"></path><path id="p11RWTWrqz" d="M750 4153 c0 -58 10 -73 46 -73 30 0 34 3 34 28 0 57 -10 72 -46 72 -30 0 -34 -3 -34 -27z"></path><path id="pdMkxxJsP" d="M2870 4145 c0 -33 2 -35 35 -35 33 0 35 2 35 35 0 33 -2 35 -35 35 -33 0 -35 -2 -35 -35z"></path><path id="p3YKlO9Bs" d="M492 4104 c-40 -36 -72 -72 -72 -80 0 -9 12 -14 35 -14 24 0 35 5 35 15 0 8 7 15 15 15 9 0 15 9 15 25 0 14 5 25 10 25 6 0 10 -11 10 -25 0 -22 4 -25 35 -25 33 0 35 2 35 35 0 19 -4 35 -10 35 -5 0 -10 14 -10 30 0 18 -5 30 -13 30 -7 0 -46 -30 -85 -66z"></path><path id="paJvRS43k" d="M2080 4135 l0 -35 55 0 55 0 0 35 0 35 -55 0 -55 0 0 -35z"></path><path id="p6UqIetcv" d="M2670 4135 c0 -33 2 -35 35 -35 33 0 35 2 35 35 0 33 -2 35 -35 35 -33 0 -35 -2 -35 -35z"></path><path id="pHsqJ4iVs" d="M2240 4125 c0 -33 2 -35 35 -35 24 0 35 -5 35 -15 0 -10 11 -15 35 -15 33 0 35 2 35 35 0 19 -4 35 -10 35 -5 0 -10 7 -10 15 0 12 -13 15 -60 15 l-60 0 0 -35z"></path><path id="pRoEasJGJ" d="M1790 4115 c0 -33 2 -35 35 -35 33 0 35 2 35 35 0 33 -2 35 -35 35 -33 0 -35 -2 -35 -35z"></path><path id="pgn4urvhL" d="M2490 4100 c0 -39 1 -40 35 -40 34 0 35 1 35 40 0 39 -1 40 -35 40 -34 0 -35 -1 -35 -40z"></path><path id="pcDiSvoXv" d="M1280 4095 c0 -33 2 -35 35 -35 33 0 35 2 35 35 0 33 -2 35 -35 35 -33 0 -35 -2 -35 -35z"></path><path id="py6lfP3q5" d="M2590 4095 c0 -33 2 -35 35 -35 33 0 35 2 35 35 0 33 -2 35 -35 35 -33 0 -35 -2 -35 -35z"></path><path id="pIwoU36gh" d="M2950 4085 c0 -33 2 -35 35 -35 33 0 35 2 35 35 0 33 -2 35 -35 35 -33 0 -35 -2 -35 -35z"></path><path id="pOUbQY2sX" d="M3102 4086 c4 -34 2 -36 -24 -36 -25 0 -28 -3 -28 -35 0 -24 -5 -35 -14 -35 -8 0 -18 -9 -21 -20 -3 -11 -13 -20 -21 -20 -9 0 -14 -11 -14 -35 0 -29 4 -35 21 -35 15 0 27 16 50 65 l30 66 57 -3 c56 -3 57 -3 60 -35 3 -29 7 -33 33 -33 16 0 29 3 29 6 0 18 -107 148 -142 172 -20 14 -20 14 -16 -22z"></path><path id="p12rBk43YY" d="M816 4038 c-12 -45 -7 -98 9 -98 8 0 16 7 16 15 1 8 2 21 3 28 0 6 11 16 24 22 13 6 22 18 22 32 0 19 -5 23 -34 23 -26 0 -35 -5 -40 -22z"></path><path id="pSCaWXoyV" d="M1760 4035 c0 -22 4 -25 38 -25 75 0 82 -6 82 -66 0 -41 4 -54 15 -54 10 0 15 -11 15 -35 0 -19 -4 -35 -10 -35 -5 0 -10 -13 -10 -30 0 -23 -4 -30 -20 -30 -16 0 -20 7 -20 35 l0 35 -70 0 -70 0 0 -30 c0 -29 0 -29 68 -32 66 -3 67 -4 70 -32 5 -41 -6 -76 -23 -76 -8 0 -15 -4 -15 -10 0 -5 5 -10 10 -10 6 0 10 -13 10 -30 0 -28 3 -30 35 -30 l35 0 1 73 c1 39 4 62 6 50 3 -15 12 -23 24 -23 18 0 19 9 19 159 l0 159 40 7 c46 8 80 -1 80 -21 0 -8 5 -14 10 -14 6 0 10 16 10 35 0 28 -4 35 -20 35 -11 0 -20 5 -20 10 0 6 -16 10 -35 10 -19 0 -35 -4 -35 -10 0 -5 -11 -10 -25 -10 -21 0 -25 -5 -26 -32 -1 -21 -3 -26 -6 -14 -8 31 -29 46 -62 46 -17 0 -31 5 -31 10 0 6 -16 10 -35 10 -31 0 -35 -3 -35 -25z"></path><path id="p8dlhJfWq" d="M2164 4030 c-4 -16 -13 -30 -20 -30 -9 0 -14 -12 -14 -35 0 -19 5 -35 11 -35 5 0 17 16 25 35 8 19 18 35 22 36 63 6 123 5 127 -2 3 -5 1 -18 -5 -29 -10 -18 -8 -20 20 -20 27 0 30 3 25 21 -5 16 -1 22 24 32 17 6 31 17 31 24 0 16 -54 17 -83 2 -16 -9 -22 -9 -25 0 -2 6 -17 11 -33 11 -16 0 -29 5 -29 10 0 6 -16 10 -35 10 -31 0 -36 -3 -41 -30z"></path><path id="p13XEGJTeg" d="M730 4005 c0 -33 2 -35 35 -35 33 0 35 2 35 35 0 33 -2 35 -35 35 -33 0 -35 -2 -35 -35z"></path><path id="pfUItchJy" d="M1090 4025 c0 -8 7 -15 15 -15 18 0 35 -39 35 -82 0 -21 -6 -31 -20 -35 -11 -3 -20 -12 -20 -20 0 -13 9 -15 45 -10 26 2 48 7 50 9 2 2 7 29 11 60 6 51 5 56 -14 62 -12 4 -24 16 -27 27 -8 24 -75 28 -75 4z"></path><path id="pHOWKAXlZ" d="M1370 4027 c0 -8 9 -17 20 -20 12 -3 20 -14 20 -25 0 -11 7 -27 15 -36 8 -8 15 -26 15 -40 0 -16 -6 -26 -15 -26 -12 0 -15 -14 -15 -66 l0 -66 31 6 c17 3 38 6 45 6 9 0 14 12 14 35 0 24 -5 35 -15 35 -8 0 -15 9 -15 20 0 13 7 20 20 20 15 0 20 7 20 25 0 18 5 25 20 25 18 0 20 -7 20 -75 0 -43 -4 -75 -10 -75 -15 0 -12 -67 3 -73 6 -3 -3 -6 -20 -6 -26 -1 -33 -5 -33 -21 0 -11 -4 -20 -10 -20 -11 0 -13 -42 -4 -77 4 -13 12 -23 18 -23 19 0 56 -48 56 -71 0 -24 -26 -48 -52 -49 -11 0 -18 -8 -18 -19 0 -38 11 -51 46 -51 30 0 34 3 34 25 0 18 5 25 20 25 16 0 20 -7 20 -30 0 -28 3 -30 35 -30 33 0 35 2 35 34 0 31 -3 34 -40 40 -22 3 -40 10 -41 14 0 4 -2 56 -3 115 -2 81 -6 111 -17 118 -11 7 -12 11 -1 18 10 6 14 49 17 165 3 145 1 156 -15 156 -10 0 -20 -5 -22 -12 -5 -15 -51 -3 -73 18 -23 23 -105 32 -105 11z"></path><path id="pDur6PYqZ" d="M2720 4024 c0 -8 7 -15 15 -15 8 -1 21 -2 28 -3 7 -1 12 -15 12 -34 0 -17 3 -32 7 -32 5 0 8 -7 8 -15 0 -8 -6 -15 -13 -15 -8 0 -21 -25 -30 -60 -21 -76 -21 -80 3 -80 15 0 20 -7 20 -26 0 -29 21 -54 44 -54 14 0 16 21 16 155 0 96 4 155 10 156 53 7 99 -1 103 -18 3 -10 5 -1 6 19 l1 38 -115 -1 c-91 -1 -115 -4 -115 -15z m70 -209 c0 -14 -4 -25 -10 -25 -5 0 -10 11 -10 25 0 14 5 25 10 25 6 0 10 -11 10 -25z"></path><path id="p1GN6JpBdb" d="M2470 4003 c0 -30 22 -98 34 -105 6 -4 36 -8 67 -8 48 0 57 3 62 20 4 16 0 20 -19 20 -19 0 -24 5 -24 25 0 20 -5 25 -25 25 -18 0 -25 5 -25 20 0 16 -7 20 -35 20 -27 0 -35 -4 -35 -17z"></path><path id="p1Hmn8Jz0A" d="M390 3965 c0 -33 2 -35 35 -35 33 0 35 2 35 35 0 33 -2 35 -35 35 -33 0 -35 -2 -35 -35z"></path><path id="p17CYzSm4b" d="M347 3941 c-22 -38 -22 -41 8 -41 22 0 25 4 25 35 0 43 -10 44 -33 6z"></path><path id="pbDTC1S8h" d="M670 3929 c0 -32 24 -99 36 -99 15 0 18 28 8 79 -5 21 -12 31 -25 31 -11 0 -19 -5 -19 -11z"></path><path id="pFFDJXJPX" d="M2320 3900 c0 -20 -5 -30 -15 -30 -12 0 -15 -13 -15 -60 0 -33 -4 -60 -9 -60 -5 0 -4 -15 2 -35 10 -35 37 -49 37 -20 0 10 10 15 30 15 23 0 30 4 30 20 0 11 7 20 15 20 16 0 18 12 9 48 -4 12 -12 22 -19 22 -8 0 -16 -10 -18 -22 -2 -13 -5 -4 -6 19 0 23 4 43 10 45 8 3 9 15 4 36 -5 25 -12 32 -31 32 -20 0 -24 -5 -24 -30z"></path><path id="pXVpVunXe" d="M964 3876 c-3 -7 -4 -33 -2 -57 l3 -44 70 -5 70 -5 -1 -32 c-2 -65 -4 -72 -21 -76 -10 -2 12 -7 50 -11 65 -8 67 -9 67 -37 0 -27 3 -29 40 -29 39 0 40 1 40 35 0 34 -1 35 -40 35 -38 0 -40 2 -40 29 0 23 -5 31 -22 34 -14 3 -9 5 15 6 36 1 37 2 37 37 l0 37 -45 -5 c-38 -5 -45 -3 -45 12 0 14 -12 19 -60 24 -58 7 -60 8 -60 36 0 25 -4 30 -25 30 -14 0 -28 -6 -31 -14z"></path><path id="pOqT9VAEu" d="M430 3860 c0 -11 -6 -20 -14 -20 -18 0 -30 -67 -21 -110 12 -53 31 -34 54 53 26 99 26 97 1 97 -13 0 -20 -7 -20 -20z"></path><path id="p16cj3rXof" d="M2256 3861 c-3 -4 -10 -20 -15 -35 -10 -24 -8 -26 14 -26 22 0 25 4 25 35 0 33 -12 46 -24 26z"></path><path id="pOrE4TIxd" d="M561 3779 c-8 -38 -9 -54 -1 -59 8 -5 6 -12 -4 -23 -9 -9 -19 -30 -22 -46 -6 -26 -3 -31 14 -31 21 0 32 -18 32 -51 0 -14 7 -19 30 -19 17 0 30 3 30 8 1 19 -54 258 -61 265 -4 5 -12 -15 -18 -44z"></path><path id="peMHT3THt" d="M740 3820 c0 -5 -7 -10 -15 -10 -20 0 -19 -34 1 -115 11 -44 21 -65 32 -65 12 0 14 9 9 51 -6 51 5 79 32 79 6 0 11 16 11 35 0 33 -2 35 -35 35 -19 0 -35 -4 -35 -10z"></path><path id="psHQwtLkd" d="M265 3790 c-20 -39 -20 -40 20 -40 33 0 35 2 35 35 0 28 -4 35 -20 35 -11 0 -26 -12 -35 -30z"></path><path id="pgqBAA2uO" d="M1240 3760 c0 -47 2 -50 25 -50 23 0 25 3 25 50 0 47 -2 50 -25 50 -23 0 -25 -3 -25 -50z"></path><path id="pfhhy84CZ" d="M2520 3776 c0 -25 12 -46 26 -46 17 0 19 -17 3 -22 -8 -3 -9 -15 -4 -36 4 -18 12 -31 17 -30 11 4 29 55 41 116 l7 32 -45 0 c-32 0 -45 -4 -45 -14z"></path><path id="p4p0amV6T" d="M2940 3730 c0 -16 2 -30 4 -30 2 0 9 14 15 30 8 24 7 30 -5 30 -9 0 -14 -10 -14 -30z"></path><path id="p1AhBqJUsU" d="M2390 3716 c0 -52 12 -86 31 -86 22 0 23 6 8 66 -12 47 -39 61 -39 20z"></path><path id="p110IcjaMT" d="M224 3695 c-7 -19 -14 -62 -14 -95 l0 -60 34 0 c37 0 46 12 46 62 0 21 -6 31 -19 35 -15 4 -18 12 -13 49 6 54 -13 60 -34 9z"></path><path id="psICLWcWP" d="M2705 3698 c-5 -21 -4 -33 4 -36 14 -5 15 -62 1 -62 -5 0 -10 -16 -10 -36 l0 -37 45 5 45 6 0 -39 c0 -27 4 -39 14 -39 19 0 26 32 26 134 l0 88 -35 -6 c-34 -7 -35 -6 -35 24 0 25 -4 30 -24 30 -19 0 -26 -7 -31 -32z"></path><path id="pb5nyK9Bd" d="M3068 3690 c-15 -31 -15 -35 -1 -38 21 -5 25 2 21 40 l-4 33 -16 -35z"></path><path id="p1A0LGDeWM" d="M2070 3690 c0 -16 7 -20 30 -20 22 0 28 -4 24 -15 -4 -8 -17 -15 -30 -15 -21 0 -24 -5 -24 -35 0 -24 5 -35 15 -35 8 0 15 -7 15 -15 0 -21 34 -19 54 4 17 19 17 20 -6 24 -23 4 -23 4 0 6 19 1 22 6 22 45 0 51 -24 76 -72 76 -21 0 -28 -5 -28 -20z"></path><path id="pgtFGDPKg" d="M3330 3665 c0 -32 2 -35 30 -35 33 0 35 5 20 44 -6 16 -17 26 -30 26 -16 0 -20 -7 -20 -35z"></path><path id="pMSPjtTGG" d="M1910 3600 c0 -63 2 -70 20 -70 18 0 20 7 20 70 0 63 -2 70 -20 70 -18 0 -20 -7 -20 -70z"></path><path id="pxj9jE5r8" d="M960 3615 c0 -45 0 -45 35 -45 33 0 35 2 35 35 0 24 -5 35 -15 35 -8 0 -15 5 -15 10 0 6 -9 10 -20 10 -17 0 -20 -7 -20 -45z"></path><path id="p1GVFXsRRM" d="M1720 3615 c0 -33 2 -35 35 -35 33 0 35 2 35 35 0 33 -2 35 -35 35 -33 0 -35 -2 -35 -35z"></path><path id="p16Ei7LIos" d="M1040 3605 c0 -33 2 -35 35 -35 33 0 35 2 35 35 0 33 -2 35 -35 35 -33 0 -35 -2 -35 -35z"></path><path id="p4dCSfgOk" d="M3032 3615 c-18 -38 -15 -45 18 -45 28 0 30 3 30 35 0 27 -4 35 -18 35 -11 0 -24 -11 -30 -25z"></path><path id="pCCvsaJ7W" d="M3200 3605 c0 -32 2 -35 30 -35 28 0 30 3 30 35 0 32 -2 35 -30 35 -28 0 -30 -3 -30 -35z"></path><path id="pryVubnS8" d="M750 3612 c0 -4 9 -40 20 -80 24 -86 25 -102 5 -102 -8 0 -15 -4 -15 -9 0 -12 26 -21 62 -21 29 0 30 2 24 33 -3 17 -13 37 -21 43 -11 8 -15 30 -15 78 l0 66 -30 0 c-16 0 -30 -3 -30 -8z"></path><path id="pTzq3RA27" d="M3353 3573 c4 -27 9 -60 13 -75 5 -22 3 -28 -10 -28 -12 0 -16 -9 -16 -35 0 -28 4 -35 19 -35 10 0 33 -3 50 -6 39 -8 39 1 9 132 -20 87 -23 94 -46 94 -23 0 -24 -2 -19 -47z"></path><path id="p1Cxq8LO6l" d="M2296 3575 c-4 -14 -4 -36 0 -50 5 -21 12 -25 40 -25 32 0 34 2 34 35 0 28 -4 35 -20 35 -11 0 -20 7 -20 15 0 25 -27 17 -34 -10z"></path><path id="p13hvCWmbk" d="M330 3566 c0 -43 12 -86 25 -86 11 0 35 69 35 99 0 6 -13 11 -30 11 -25 0 -30 -4 -30 -24z"></path><path id="pSrjJpVYa" d="M511 3540 c-14 -67 -14 -70 8 -70 18 0 31 39 31 98 0 44 -28 23 -39 -28z"></path><path id="pR55cG5Ko" d="M1410 3570 c0 -13 7 -20 20 -20 13 0 20 7 20 20 0 13 -7 20 -20 20 -13 0 -20 -7 -20 -20z"></path><path id="pKcAtwLQa" d="M2440 3515 c0 -28 4 -35 20 -35 21 0 24 10 14 48 -10 36 -34 27 -34 -13z"></path><path id="p1BXMxoy97" d="M2978 3490 c-15 -35 -28 -52 -44 -56 -38 -10 -30 -34 10 -34 33 0 35 2 39 38 l4 37 1 -37 c1 -21 7 -38 12 -38 11 0 14 -49 4 -74 -5 -13 -23 -16 -95 -16 l-89 0 0 -30 0 -30 131 0 131 0 -3 38 c-5 83 -2 92 31 92 25 0 30 4 30 25 0 18 -5 25 -19 25 -11 0 -23 5 -26 10 -11 18 -24 10 -28 -17 -3 -23 -4 -21 -6 10 -1 30 -5 37 -21 37 -16 0 -20 7 -20 35 0 50 -18 43 -42 -15z"></path><path id="p5jC7Syne" d="M230 3465 c0 -33 2 -35 35 -35 33 0 35 2 35 35 0 33 -2 35 -35 35 -33 0 -35 -2 -35 -35z"></path><path id="plu9muKdl" d="M1910 3455 c0 -34 1 -35 38 -34 20 1 29 3 20 6 -12 3 -18 14 -18 34 0 22 -5 29 -20 29 -16 0 -20 -7 -20 -35z"></path><path id="p77wEjM3p" d="M2660 3472 c0 -12 -13 -23 -35 -32 -19 -8 -35 -17 -35 -22 0 -4 -11 -8 -25 -8 -14 0 -25 5 -25 10 0 6 -7 10 -15 10 -8 0 -20 9 -27 20 -19 29 -28 24 -28 -15 0 -31 3 -35 25 -35 21 0 25 -5 25 -30 0 -28 3 -30 35 -30 28 0 35 4 35 20 0 17 5 18 50 13 49 -6 50 -5 50 21 0 19 5 26 20 26 16 0 20 7 20 35 0 33 -2 35 -35 35 -27 0 -35 -4 -35 -18z"></path><path id="p17RASKYeq" d="M603 3473 c-30 -4 -33 -7 -33 -39 0 -33 1 -34 40 -34 29 0 40 -4 40 -15 0 -10 11 -15 35 -15 32 0 35 2 35 30 0 25 -4 30 -25 30 -18 0 -26 7 -31 25 -3 14 -11 24 -18 23 -6 0 -26 -3 -43 -5z"></path><path id="p13cugV8hE" d="M2270 3445 c0 -33 2 -35 35 -35 33 0 35 2 35 35 0 33 -2 35 -35 35 -33 0 -35 -2 -35 -35z"></path><path id="pOuEI5VjA" d="M2216 3454 c-16 -9 -55 -19 -87 -21 -55 -5 -59 -8 -59 -31 l0 -25 78 6 c102 7 112 12 112 53 0 38 -3 40 -44 18z"></path><path id="pogMKuNhO" d="M3210 3435 l0 -35 55 0 55 0 0 35 0 35 -55 0 -55 0 0 -35z"></path><path id="pdDgg6qr1" d="M166 3438 c-10 -38 -7 -48 14 -48 16 0 20 7 20 35 0 40 -24 49 -34 13z"></path><path id="phstVQBlJ" d="M487 3440 c-28 -33 -22 -50 18 -50 33 0 35 2 35 35 0 41 -24 48 -53 15z"></path><path id="p1Fixv8xpM" d="M2800 3415 c0 -33 2 -35 35 -35 31 0 35 3 35 25 0 18 -5 25 -20 25 -11 0 -20 5 -20 10 0 6 -7 10 -15 10 -10 0 -15 -11 -15 -35z"></path><path id="p15xI0N9VE" d="M960 3405 c0 -22 4 -25 35 -25 31 0 35 3 35 25 0 22 -4 25 -35 25 -31 0 -35 -3 -35 -25z"></path><path id="phoVpbNRL" d="M1740 3405 c0 -22 4 -25 35 -25 31 0 35 3 35 25 0 22 -4 25 -35 25 -31 0 -35 -3 -35 -25z"></path><path id="pPnl2oYOK" d="M1220 3391 c0 -49 9 -61 46 -61 31 0 34 3 34 29 0 49 -9 61 -46 61 -31 0 -34 -3 -34 -29z"></path><path id="pKW9SqynU" d="M1980 3380 c0 -13 -7 -20 -20 -20 -16 0 -20 -7 -20 -35 0 -33 2 -35 35 -35 28 0 35 4 35 20 0 13 7 20 20 20 16 0 20 7 20 35 0 33 -2 35 -35 35 -28 0 -35 -4 -35 -20z"></path><path id="p11beyIUse" d="M386 3344 c-11 -81 -10 -84 28 -84 32 0 34 2 40 46 11 81 10 84 -28 84 -32 0 -34 -2 -40 -46z"></path><path id="pW2vNu7uA" d="M3180 3345 c0 -33 2 -35 35 -35 33 0 35 2 35 35 0 33 -2 35 -35 35 -33 0 -35 -2 -35 -35z"></path><path id="p197ViuxMc" d="M3410 3299 c0 -43 3 -50 18 -47 16 3 18 18 13 86 -1 6 -8 12 -16 12 -11 0 -15 -12 -15 -51z"></path><path id="pw1EsELQE" d="M1606 3325 c-4 -12 -24 -15 -86 -15 l-80 0 0 -30 0 -30 125 0 c123 0 125 0 125 23 0 51 -11 67 -45 67 -20 0 -35 -6 -39 -15z"></path><path id="pLRu1Lcvl" d="M1770 3295 c0 -33 2 -35 35 -35 33 0 35 2 35 35 0 33 -2 35 -35 35 -33 0 -35 -2 -35 -35z"></path><path id="pnk0kY8qd" d="M154 3296 c-10 -39 2 -46 82 -46 l74 0 0 29 c0 27 -3 29 -52 35 -88 10 -97 8 -104 -18z"></path><path id="pbJchEFdP" d="M2098 3313 c-23 -4 -28 -9 -28 -34 0 -29 0 -29 60 -29 l60 0 0 35 c0 33 -2 35 -32 34 -18 -1 -45 -4 -60 -6z"></path><path id="p1H0WXOu2M" d="M2498 3313 c-12 -3 -18 -14 -18 -34 0 -28 1 -29 50 -29 l50 0 0 35 c0 33 -2 35 -32 34 -18 -1 -41 -3 -50 -6z"></path><path id="pnKFDzhDl" d="M630 3280 l0 -30 70 0 70 0 0 30 0 30 -70 0 -70 0 0 -30z"></path><path id="pL0J9GUdi" d="M870 3280 l0 -30 130 0 130 0 0 30 0 30 -130 0 -130 0 0 -30z"></path><path id="paJKqnvc0" d="M1320 3280 c0 -28 3 -30 35 -30 32 0 35 2 35 30 0 28 -3 30 -35 30 -32 0 -35 -2 -35 -30z"></path><path id="pTBGIdTw" d="M1190 3275 c0 -22 4 -25 35 -25 31 0 35 3 35 25 0 22 -4 25 -35 25 -31 0 -35 -3 -35 -25z"></path><path id="pforKqZEs" d="M792 3112 l-643 -2 4 -673 c3 -634 5 -679 25 -798 28 -161 58 -253 136 -414 145 -298 385 -534 705 -695 310 -155 661 -209 1031 -159 609 83 1138 518 1324 1089 64 197 68 249 72 983 4 528 2 658 -8 662 -16 6 -1782 11 -2646 7z m765 -40 c6 -4 43 -96 81 -203 99 -278 82 -254 172 -253 l75 1 7 34 c4 19 41 122 81 229 96 255 84 252 257 70 l127 -132 99 17 c54 9 138 25 186 34 94 20 129 14 136 -22 3 -15 -43 -136 -199 -531 -10 -27 -19 -55 -19 -63 0 -8 20 -43 44 -79 48 -70 96 -184 123 -292 26 -106 24 -344 -4 -447 -44 -160 -147 -348 -243 -443 -89 -89 -257 -199 -371 -244 -124 -49 -218 -62 -389 -55 -148 7 -193 18 -317 80 -42 22 -79 34 -90 31 -13 -4 -14 -3 -5 3 9 7 -3 19 -46 46 -147 91 -247 209 -337 400 -62 130 -76 191 -82 347 -10 248 19 371 127 552 l69 117 -105 282 c-106 285 -114 322 -78 336 9 3 77 -6 153 -21 75 -15 161 -29 191 -33 l55 -5 54 58 c142 155 185 194 210 194 14 0 31 -4 38 -8z"></path><path id="p1B4jF9Cxm" d="M1405 2800 c-48 -56 -96 -105 -105 -110 -11 -6 -62 -1 -150 15 -73 14 -135 23 -137 21 -4 -3 39 -130 97 -288 l32 -86 82 60 c92 69 208 129 309 160 40 12 66 25 64 32 -2 6 -26 75 -52 154 -26 78 -48 142 -50 142 -2 0 -42 -45 -90 -100z"></path><path id="p330oc3Ua" d="M2105 2873 c-4 -10 -25 -70 -47 -133 -22 -63 -44 -119 -49 -124 -16 -17 -10 -23 24 -29 86 -14 278 -112 371 -189 38 -33 50 -38 57 -27 9 15 121 297 134 337 6 20 4 22 -17 18 -13 -3 -74 -15 -136 -26 -140 -24 -138 -25 -247 99 -43 50 -80 91 -81 91 -1 0 -5 -8 -9 -17z"></path><path id="pYxVoS5KK" d="M1738 2483 c-36 -9 -20 -33 22 -33 33 0 40 3 40 20 0 20 -20 24 -62 13z"></path><path id="pfUkdYHxN" d="M1615 2465 c-115 -25 -232 -85 -166 -85 17 0 21 -6 21 -35 0 -33 2 -35 35 -35 34 0 35 1 35 41 0 38 2 41 23 35 12 -3 30 -6 40 -6 9 0 17 -7 17 -15 0 -10 11 -15 35 -15 33 0 35 2 35 35 0 31 -3 35 -26 35 -14 0 -23 4 -19 10 3 6 19 10 36 10 22 0 29 5 29 20 0 23 -10 24 -95 5z"></path><path id="pHxz7yFnh" d="M1963 2455 c-7 -8 -13 -28 -13 -45 0 -23 4 -30 20 -30 13 0 20 -7 20 -20 0 -16 7 -20 35 -20 34 0 35 1 35 40 0 22 5 40 10 40 16 0 11 19 -8 29 -34 18 -86 22 -99 6z"></path><path id="p6HdUVi1v" d="M2090 2415 c0 -18 5 -25 20 -25 14 0 20 -7 20 -21 0 -19 5 -21 40 -17 33 3 40 0 40 -14 0 -14 8 -18 36 -18 31 0 35 2 24 14 -16 21 -98 72 -143 91 l-37 15 0 -25z"></path><path id="pEbU8Cpar" d="M1740 2385 c0 -33 2 -35 35 -35 33 0 35 2 35 35 0 33 -2 35 -35 35 -33 0 -35 -2 -35 -35z"></path><path id="prGzuJIAg" d="M1359 2358 l-44 -33 35 -3 c19 -2 36 1 38 7 2 6 10 11 18 11 8 0 14 10 14 25 0 33 -8 32 -61 -7z"></path><path id="pxm0wYXdN" d="M1230 2260 c-39 -34 -42 -39 -22 -40 18 0 22 -5 22 -35 0 -33 2 -35 35 -35 19 0 35 5 35 10 0 25 28 7 34 -21 12 -60 9 -67 -34 -74 -37 -6 -40 -9 -40 -40 0 -21 6 -35 16 -39 26 -10 65 -7 78 7 17 17 26 92 17 148 -4 26 -4 56 0 67 6 16 3 21 -17 26 -19 5 -24 13 -24 36 0 26 -4 30 -27 30 -18 0 -44 -15 -73 -40z"></path><path id="p8rKmJLeQ" d="M2296 2269 c-12 -62 -8 -79 19 -79 14 0 25 -4 25 -10 0 -5 14 -10 30 -10 17 0 30 -4 30 -10 0 -5 9 -10 20 -10 15 0 20 -7 20 -25 0 -21 5 -25 31 -25 l30 0 -23 32 c-37 52 -149 168 -163 168 -7 0 -15 -14 -19 -31z"></path><path id="pwsSL8jQr" d="M2170 2274 c0 -18 38 -53 58 -54 7 0 12 13 12 35 0 33 -2 35 -35 35 -25 0 -35 -4 -35 -16z"></path><path id="pQmbWUGqO" d="M1430 2257 c0 -16 9 -25 33 -33 17 -6 40 -14 50 -19 14 -6 17 -2 17 28 0 39 -12 47 -66 47 -29 0 -34 -4 -34 -23z"></path><path id="p7IbpLBW2" d="M1722 2243 c3 -36 5 -38 41 -41 l38 -3 -3 38 c-3 36 -5 38 -41 41 l-38 3 3 -38z"></path><path id="pQL1kNJq1" d="M2010 2204 c0 -20 3 -34 8 -32 51 25 62 34 62 50 0 14 -8 18 -35 18 -33 0 -35 -2 -35 -36z"></path><path id="piy0l1dXh" d="M1540 2210 c0 -11 12 -26 30 -35 39 -20 40 -20 40 20 0 33 -2 35 -35 35 -28 0 -35 -4 -35 -20z"></path><path id="pFBH4wQfS" d="M1642 2148 c3 -7 19 -18 36 -25 31 -13 32 -12 32 12 0 22 -4 25 -36 25 -23 0 -34 -4 -32 -12z"></path><path id="p18niPOR0k" d="M2226 2123 c-19 -98 -19 -103 2 -103 15 0 21 9 26 46 3 26 6 55 6 65 0 29 -28 22 -34 -8z"></path><path id="p145x9GnfM" d="M1813 2113 c-19 -7 -16 -43 3 -43 19 0 74 31 74 42 0 9 -57 10 -77 1z"></path><path id="poKqLO9z6" d="M2300 2085 c0 -33 2 -35 35 -35 33 0 35 2 35 35 0 33 -2 35 -35 35 -33 0 -35 -2 -35 -35z"></path><path id="pBlH9sc8U" d="M1070 2071 c0 -10 -6 -21 -14 -24 -7 -3 -18 -19 -24 -36 l-11 -30 57 -7 c39 -5 57 -3 60 5 2 6 19 11 38 11 32 0 34 2 34 35 0 33 -2 35 -35 35 -24 0 -35 5 -35 15 0 10 -11 15 -35 15 -28 0 -35 -4 -35 -19z"></path><path id="pELb9m5lB" d="M2480 2045 c0 -33 2 -35 35 -35 40 0 41 2 18 41 -25 42 -53 39 -53 -6z"></path><path id="plPyCexLY" d="M1520 2038 c0 -13 11 -78 25 -146 14 -68 25 -127 25 -132 0 -5 -12 -23 -27 -41 -21 -25 -23 -31 -10 -26 12 4 16 3 12 -4 -4 -6 -13 -8 -20 -6 -6 3 -50 -33 -96 -79 -46 -46 -79 -84 -74 -84 55 0 260 -36 282 -50 17 -11 44 -48 68 -96 22 -43 54 -105 71 -137 l31 -58 58 136 c38 89 67 142 82 152 13 9 76 21 150 29 71 8 132 15 137 17 5 2 -36 48 -91 103 -55 54 -103 109 -107 121 -4 11 5 85 19 163 14 79 24 144 22 146 -2 3 -57 -21 -121 -52 -64 -30 -132 -58 -149 -61 -27 -4 -57 8 -160 61 -120 63 -127 66 -127 44z"></path><path id="pioKUyGrn" d="M2460 1965 c0 -33 2 -35 35 -35 33 0 35 2 35 35 0 33 -2 35 -35 35 -33 0 -35 -2 -35 -35z"></path><path id="pBXxNVCmf" d="M2540 1955 c0 -28 4 -35 20 -35 21 0 24 10 14 48 -10 36 -34 27 -34 -13z"></path><path id="p004UK3ML" d="M2186 1938 c-10 -38 -7 -48 14 -48 16 0 20 7 20 35 0 40 -24 49 -34 13z"></path><path id="pGUXDF0yt" d="M1270 1875 l0 -65 35 0 35 0 0 65 0 65 -35 0 -35 0 0 -65z"></path><path id="pyKwJBpkw" d="M2306 1914 c-3 -9 -6 -29 -6 -45 0 -28 1 -29 50 -29 49 0 50 1 50 31 0 17 -6 37 -14 45 -20 19 -72 18 -80 -2z"></path><path id="p6EeRYLIP" d="M2560 1876 c0 -13 3 -44 6 -70 5 -37 11 -46 26 -46 20 0 21 13 2 113 -7 33 -34 36 -34 3z"></path><path id="pl8qwheHg" d="M1390 1855 c0 -28 4 -35 20 -35 21 0 24 10 14 48 -10 36 -34 27 -34 -13z"></path><path id="pmdBatB7V" d="M1100 1835 c0 -33 2 -35 35 -35 33 0 35 2 35 35 0 33 -2 35 -35 35 -33 0 -35 -2 -35 -35z"></path><path id="pSJ6UQjYM" d="M966 1768 c-12 -47 -8 -58 24 -58 28 0 30 2 30 40 0 35 -3 40 -24 40 -16 0 -26 -7 -30 -22z"></path><path id="pMBNbePDQ" d="M2310 1745 c0 -34 1 -35 40 -35 39 0 40 1 40 35 0 34 -1 35 -40 35 -39 0 -40 -1 -40 -35z"></path><path id="pKxAxuKtf" d="M1270 1750 c0 -11 -7 -20 -15 -20 -10 0 -15 -10 -15 -29 0 -72 33 -80 91 -23 40 38 51 72 24 72 -8 0 -15 5 -15 10 0 6 -16 10 -35 10 -28 0 -35 -4 -35 -20z"></path><path id="pEV3MQLVW" d="M2560 1695 c0 -31 3 -35 25 -35 22 0 25 4 25 35 0 31 -3 35 -25 35 -22 0 -25 -4 -25 -35z"></path><path id="p4Qb2p3JW" d="M1110 1685 c0 -33 2 -35 35 -35 33 0 35 2 35 35 0 33 -2 35 -35 35 -33 0 -35 -2 -35 -35z"></path><path id="p198xo6Dkg" d="M2280 1660 c12 -17 30 -35 41 -40 17 -9 19 -7 19 18 0 36 -16 52 -53 52 l-28 0 21 -30z"></path><path id="p1AiIEYD1" d="M2524 1611 l-6 -39 -65 -7 -64 -7 26 -35 c20 -26 26 -43 23 -69 -4 -30 -1 -34 19 -34 20 0 23 5 23 40 0 33 3 40 20 40 15 0 20 7 20 25 0 20 5 25 26 25 24 0 26 -3 20 -27 -15 -69 -18 -123 -8 -123 28 0 55 120 45 200 -6 49 -7 50 -39 50 -31 0 -34 -3 -40 -39z"></path><path id="pGGli5I3l" d="M1180 1563 l0 -37 35 34 c19 19 35 35 35 37 0 2 -16 3 -35 3 -34 0 -35 -1 -35 -37z"></path><path id="p27e8qCJS" d="M970 1558 c1 -37 14 -58 36 -58 21 0 24 5 24 35 0 32 -2 35 -30 35 -17 0 -30 -5 -30 -12z"></path><path id="p1B9OckWh9" d="M985 1438 c9 -55 31 -108 44 -108 14 0 14 32 -1 97 -10 41 -17 53 -31 53 -16 0 -18 -5 -12 -42z"></path><path id="pQ8xH57yp" d="M1150 1409 c0 -26 3 -29 35 -29 45 0 45 20 0 41 l-35 16 0 -28z"></path><path id="pLlexvIRM" d="M1240 1390 c0 -16 7 -20 35 -20 40 0 49 24 13 34 -38 10 -48 7 -48 -14z"></path><path id="pY0LBZyyj" d="M2368 1403 c-33 -8 -20 -33 17 -33 28 0 35 4 35 20 0 20 -14 23 -52 13z"></path><path id="pM3s7AMqi" d="M2278 1393 c-9 -2 -19 -12 -21 -21 -4 -15 -5 -15 -6 1 -1 19 -27 19 -123 1 -29 -6 -39 -34 -13 -34 8 0 15 -4 15 -10 0 -5 16 -10 35 -10 24 0 35 -5 35 -15 0 -10 11 -15 35 -15 33 0 35 2 35 35 0 32 2 35 30 35 23 0 30 4 30 20 0 20 -14 23 -52 13z"></path><path id="p14sHpPQyL" d="M1400 1371 c0 -12 -7 -21 -15 -21 -10 0 -15 -11 -15 -35 0 -33 2 -35 35 -35 33 0 35 2 35 35 0 19 5 35 10 35 6 0 10 -7 10 -15 0 -10 11 -15 35 -15 30 0 35 3 35 24 0 27 -8 31 -82 41 -44 6 -48 4 -48 -14z"></path><path id="pWHRKxeYN" d="M2520 1355 c0 -24 -5 -35 -15 -35 -10 0 -15 -11 -15 -35 0 -32 -2 -35 -30 -35 -23 0 -31 -5 -36 -25 -3 -14 -10 -25 -15 -25 -5 0 -9 -16 -9 -35 0 -48 22 -45 59 8 31 45 82 142 100 190 10 25 9 27 -14 27 -22 0 -25 -4 -25 -35z"></path><path id="p1CPZTELKX" d="M2026 1348 c-13 -13 -41 -61 -61 -108 -60 -137 -58 -130 -30 -130 22 0 25 4 25 35 0 24 5 35 15 35 8 0 15 5 15 10 0 6 7 10 15 10 9 0 15 9 15 25 0 14 3 25 8 25 13 0 42 61 42 91 0 35 -11 36 -44 7z"></path><path id="p2p0GFmkw" d="M1260 1325 c0 -33 2 -35 35 -35 33 0 35 2 35 35 0 33 -2 35 -35 35 -33 0 -35 -2 -35 -35z"></path><path id="p7X5UM7tT" d="M1560 1321 c0 -45 10 -61 36 -61 29 0 29 3 2 51 -26 46 -38 50 -38 10z"></path><path id="pFlvvDRdE" d="M2180 1240 c0 -20 -5 -30 -15 -30 -10 0 -15 -11 -15 -35 0 -33 2 -35 35 -35 32 0 35 2 35 30 0 20 5 30 15 30 10 0 15 11 15 35 0 33 -2 35 -35 35 -32 0 -35 -2 -35 -30z"></path><path id="pYSorEmnp" d="M1616 1215 c-3 -9 -6 -30 -6 -46 0 -26 3 -29 35 -29 l34 0 -18 42 c-19 46 -35 58 -45 33z"></path><path id="pYXyNXMq8" d="M1080 1214 c0 -12 34 -64 42 -64 4 0 8 16 8 35 0 31 -3 35 -25 35 -14 0 -25 -3 -25 -6z"></path><path id="plTxeJjno" d="M1140 1155 c0 -33 2 -35 35 -35 33 0 35 2 35 35 0 33 -2 35 -35 35 -33 0 -35 -2 -35 -35z"></path><path id="pUowNqvyk" d="M2306 1104 c-9 -69 -8 -84 8 -84 25 0 66 59 66 96 0 32 -2 34 -34 34 -32 0 -34 -2 -40 -46z"></path><path id="p14KOadBpa" d="M1875 1035 c-14 -30 -37 -62 -50 -71 -23 -15 -27 -15 -50 0 -25 16 -25 16 -25 -14 0 -29 1 -30 50 -30 49 0 50 1 50 30 0 25 4 30 25 30 18 0 25 5 25 20 0 11 5 20 10 20 6 0 10 16 10 35 0 50 -17 43 -45 -20z"></path><path id="plJMrYOjd" d="M1673 1063 c-19 -4 -23 -11 -23 -39 0 -32 2 -34 33 -34 49 0 58 10 42 48 -8 17 -18 31 -22 31 -4 -1 -18 -4 -30 -6z"></path><path id="pKuEaBZM2" d="M1950 1025 c0 -33 2 -35 35 -35 33 0 35 2 35 35 0 33 -2 35 -35 35 -33 0 -35 -2 -35 -35z"></path><path id="p13EQBdC0Q" d="M1231 1024 c15 -18 189 -134 201 -134 4 0 8 11 8 25 0 20 -5 25 -25 25 -16 0 -25 6 -25 15 0 10 10 15 30 15 28 0 30 3 30 35 0 33 -2 35 -35 35 -33 0 -35 -2 -35 -35 0 -28 -4 -35 -20 -35 -15 0 -20 7 -20 25 0 20 -5 25 -25 25 -14 0 -25 5 -25 10 0 6 -16 10 -36 10 -32 0 -35 -2 -23 -16z"></path><path id="p1CI9aiXz5" d="M2180 1020 c0 -13 -7 -20 -20 -20 -16 0 -20 -7 -20 -35 0 -33 2 -35 34 -35 18 0 44 9 58 19 19 16 23 26 20 55 -4 33 -7 36 -38 36 -27 0 -34 -4 -34 -20z"></path><path id="p18xNHNE3j" d="M1610 935 c0 -33 2 -35 35 -35 33 0 35 2 35 35 0 33 -2 35 -35 35 -33 0 -35 -2 -35 -35z"></path><path id="pvbpFKIvY" d="M1920 860 c0 -31 7 -34 48 -24 15 4 22 14 22 30 0 21 -5 24 -35 24 -32 0 -35 -2 -35 -30z"></path><path id="pLiQwhhQv" d="M2010 870 c0 -22 20 -26 51 -10 30 16 23 30 -16 30 -28 0 -35 -4 -35 -20z"></path><path id="ppbAcgOAl" d="M1680 845 c0 -22 4 -25 35 -25 31 0 35 3 35 25 0 22 -4 25 -35 25 -31 0 -35 -3 -35 -25z"></path><path id="px5Ijxgex" d="M1790 845 c0 -22 4 -25 35 -25 31 0 35 3 35 25 0 22 -4 25 -35 25 -31 0 -35 -3 -35 -25z"></path><path id="pIhVhEsEy" d="M1590 846 c0 -13 28 -26 58 -26 6 0 12 9 12 20 0 16 -7 20 -35 20 -23 0 -35 -5 -35 -14z"></path></g></g><g id="l5u4itpXHQxnHsNfOr9fyA8" fill="rgb(214,194,134)" style="transform: none;"><g><path id="p565O6lC0" d="M1555 4424 c-429 -18 -802 -116 -992 -258 -189 -143 -333 -382 -382 -636 -13 -67 -27 -227 -23 -258 l3 -22 1642 2 1642 3 -3 65 c-5 112 -12 162 -43 279 -53 209 -120 338 -242 467 -193 205 -455 307 -882 343 -128 11 -586 20 -720 15z m-907 -431 c6 -10 31 -102 56 -205 26 -103 58 -224 70 -267 13 -44 21 -83 18 -86 -12 -11 -123 -5 -126 8 -3 6 -18 77 -35 157 -17 80 -36 170 -43 200 l-12 55 -6 -35 c-17 -88 -72 -357 -76 -372 -7 -25 -134 -27 -134 -2 0 19 82 325 121 454 16 52 35 98 42 102 6 4 35 8 64 8 40 0 55 -4 61 -17z m486 1 c3 -9 6 -36 6 -60 l0 -44 -84 0 -84 0 -3 -32 c-2 -18 -3 -45 -1 -60 3 -26 6 -27 70 -30 66 -3 67 -4 70 -32 2 -15 1 -39 -2 -52 -6 -21 -12 -23 -74 -26 l-67 -3 -3 -52 -2 -53 85 0 86 0 -3 -57 -3 -58 -140 0 -140 0 -3 279 c-2 217 1 281 10 288 7 4 72 8 144 8 111 0 133 -2 138 -16z m276 -96 c1 -62 2 -165 3 -228 l2 -115 52 -3 c59 -3 68 -16 61 -83 l-3 -34 -170 0 -170 0 0 55 0 55 53 3 52 3 0 223 c0 122 3 226 7 229 3 4 30 7 60 7 l53 0 0 -112z m466 100 c8 -12 9 -26 5 -90 -1 -16 -12 -18 -86 -18 l-85 0 0 -60 0 -60 61 1 c33 1 65 -3 71 -9 5 -5 8 -29 6 -53 l-3 -44 -67 -3 -68 -3 0 -54 0 -54 83 -3 82 -3 0 -55 0 -55 -145 0 -145 0 -3 265 c-2 146 0 275 3 287 5 22 9 23 144 23 99 0 141 -4 147 -12z m192 -85 c2 -80 5 -93 20 -93 12 0 26 22 46 73 47 116 47 117 116 117 32 0 61 -4 65 -10 3 -5 -9 -40 -28 -77 -63 -128 -64 -130 -33 -162 51 -53 62 -165 24 -241 -36 -70 -85 -90 -220 -90 -59 0 -108 3 -108 8 -5 121 -2 551 4 560 5 9 25 12 59 10 l52 -3 3 -92z m410 42 c8 -27 19 -53 25 -57 6 -3 36 -5 66 -3 52 2 57 5 64 31 20 66 31 79 71 82 22 2 49 1 62 -2 l23 -6 -25 -93 c-44 -163 -125 -441 -135 -459 -8 -14 -22 -18 -69 -18 l-58 0 -16 48 c-8 26 -38 137 -66 247 -28 110 -56 215 -62 234 -13 42 0 52 62 49 44 -3 44 -3 58 -53z m445 49 c15 -5 17 -21 17 -157 l1 -152 33 75 c18 41 50 110 69 153 l36 78 58 -3 58 -3 3 -283 2 -283 -52 3 -53 3 -5 155 c-3 85 -7 148 -8 140 -2 -8 -31 -78 -65 -155 l-63 -140 -61 -3 c-52 -2 -62 0 -67 15 -7 25 -1 537 7 550 7 11 62 15 90 7z"></path><path id="pxjzuyyI4" d="M2077 3704 c-4 -4 -7 -43 -7 -86 l0 -78 28 0 c49 0 72 25 72 79 0 26 -6 55 -12 64 -14 18 -69 33 -81 21z"></path><path id="p1HXvp7efb" d="M2520 3783 c0 -5 10 -46 22 -92 24 -94 24 -95 52 37 l14 62 -44 0 c-24 0 -44 -3 -44 -7z"></path><path id="ph7BBSjmi" d="M1705 2479 c-122 -15 -258 -66 -360 -133 -129 -86 -255 -216 -298 -308 -73 -153 -92 -262 -76 -445 16 -206 43 -284 148 -445 55 -82 127 -146 255 -223 130 -79 191 -97 350 -103 210 -7 323 19 480 112 174 104 299 266 372 483 59 176 38 494 -41 629 -43 73 -145 195 -157 188 -6 -4 -8 -3 -4 4 14 23 -176 159 -276 196 -117 44 -265 61 -393 45z m505 -256 c19 -24 21 -36 16 -88 -3 -33 -16 -107 -29 -165 -14 -58 -27 -123 -31 -145 l-7 -40 131 -130 c71 -71 137 -145 146 -163 14 -30 14 -36 0 -57 -18 -27 -24 -29 -226 -51 -85 -9 -164 -22 -175 -29 -24 -15 -26 -18 -110 -210 -67 -152 -95 -195 -126 -195 -23 0 -64 50 -79 97 -18 53 -139 300 -154 312 -7 6 -96 21 -197 33 -196 23 -219 31 -219 78 0 20 30 56 140 165 104 104 140 146 140 164 0 14 -16 105 -35 204 -20 99 -33 188 -30 198 9 26 40 41 71 33 15 -4 101 -42 191 -85 90 -44 170 -79 178 -79 18 0 181 81 280 139 39 22 78 41 87 41 9 0 26 -12 38 -27z"></path></g></g></svg>